<svg version="1.1" viewBox="0.0 0.0 486.74015748031496 143.1286089238845" fill="none" stroke="none" stroke-linecap="square" stroke-miterlimit="10" xmlns:xlink="http://www.w3.org/1999/xlink" xmlns="http://www.w3.org/2000/svg"><clipPath id="p.0"><path d="m0 0l486.74014 0l0 143.12862l-486.74014 0l0 -143.12862z" clip-rule="nonzero"/></clipPath><g clip-path="url(#p.0)"><path fill="#000000" fill-opacity="0.0" d="m0 0l486.74014 0l0 143.12862l-486.74014 0z" fill-rule="evenodd"/><path fill="#000000" fill-opacity="0.0" d="m285.34122 31.514435l222.67715 0l0 71.08662l-222.67715 0z" fill-rule="evenodd"/><path fill="#000000" d="m319.3136 60.994434l0 -15.265625l3.09375 0l0 15.265625l-3.09375 0zm4.9725037 -3.15625l2.9375 -0.453125q0.1875 0.859375 0.75 1.3125q0.578125 0.4375 1.609375 0.4375q1.140625 0 1.71875 -0.421875q0.375 -0.296875 0.375 -0.78125q0 -0.328125 -0.203125 -0.546875q-0.21875 -0.21875 -0.984375 -0.390625q-3.53125 -0.78125 -4.484375 -1.421875q-1.3125 -0.90625 -1.3125 -2.5q0 -1.4375 1.125 -2.40625q1.140625 -0.984375 3.53125 -0.984375q2.265625 0 3.375 0.75q1.109375 0.734375 1.515625 2.171875l-2.75 0.515625q-0.1875 -0.640625 -0.6875 -0.984375q-0.484375 -0.34375 -1.40625 -0.34375q-1.15625 0 -1.65625 0.3125q-0.328125 0.234375 -0.328125 0.59375q0 0.3125 0.296875 0.53125q0.390625 0.296875 2.71875 0.828125q2.34375 0.53125 3.28125 1.296875q0.90625 0.78125 0.90625 2.1875q0 1.515625 -1.265625 2.609375q-1.265625 1.09375 -3.765625 1.09375q-2.25 0 -3.578125 -0.90625q-1.3125 -0.921875 -1.71875 -2.5z" fill-rule="nonzero"/><path fill="#000000" d="m343.21408 60.60381l0 -1.890625q2.0 1.0 3.5 1.0q0.875 0 1.453125 -0.46875q0.59375 -0.484375 0.59375 -1.203125q0 -0.453125 -0.296875 -0.875q-0.28125 -0.4375 -1.34375 -0.875l-1.1875 -0.5q-1.390625 -0.578125 -2.03125 -1.34375q-0.625 -0.75 -0.625 -1.84375q0 -1.359375 0.984375 -2.265625q0.984375 -0.90625 2.921875 -0.90625q0.953125 0 2.34375 0.265625l0.4375 0.078125l0 1.703125q-1.71875 -0.5 -2.75 -0.5q-0.984375 0 -1.484375 0.421875q-0.484375 0.421875 -0.484375 1.015625q0 0.453125 0.34375 0.8125q0.3125 0.375 1.15625 0.75l1.0 0.40625q1.984375 0.84375 2.53125 1.671875q0.53125 0.828125 0.53125 1.796875q0 0.921875 -0.5 1.71875q-0.5 0.78125 -1.484375 1.234375q-0.984375 0.453125 -2.203125 0.453125q-1.40625 0 -3.40625 -0.65625zm16.32547 0.390625q-0.953125 0.265625 -1.640625 0.265625q-1.53125 0 -2.421875 -0.875q-0.890625 -0.890625 -0.890625 -2.515625l0 -6.640625l-1.421875 0l0 -1.546875l1.421875 0l0 -2.046875l2.046875 -0.203125l0 2.25l2.953125 0l0 1.546875l-2.953125 0l0 6.265625q0 1.1875 0.453125 1.703125q0.46875 0.515625 1.46875 0.515625q0.40625 0 0.984375 -0.140625l0 1.421875zm10.195953 0l0 -2.125q-0.625 1.1875 -1.578125 1.796875q-0.9375 0.59375 -2.1875 0.59375q-2.09375 0 -3.25 -1.53125q-1.140625 -1.546875 -1.140625 -4.03125q0 -2.6875 1.28125 -4.46875q1.296875 -1.796875 3.546875 -1.796875q0.65625 0 1.25 0.15625q0.59375 0.15625 1.046875 0.453125q0.46875 0.28125 1.03125 0.9375l0 -6.421875l2.0625 0l0 16.4375l-2.0625 0zm0 -8.609375q-1.0625 -0.9375 -1.6875 -1.171875q-0.609375 -0.234375 -1.328125 -0.234375q-1.5 0 -2.234375 1.265625q-0.71875 1.25 -0.71875 3.234375q0 1.84375 0.640625 2.90625q0.640625 1.0625 1.984375 1.0625q0.859375 0 1.6875 -0.46875q0.84375 -0.46875 1.65625 -1.390625l0 -5.203125zm6.455078 8.609375l0 -2.046875l2.046875 0l0 2.046875l-2.046875 0zm0 -9.25l0 -2.0625l2.046875 0l0 2.0625l-2.046875 0zm6.748352 9.25l0 -2.046875l2.046875 0l0 2.046875l-2.046875 0zm0 -9.25l0 -2.0625l2.046875 0l0 2.0625l-2.046875 0zm6.842102 9.25l0 -9.765625l-1.609375 0l0 -1.546875l1.609375 0l0 -1.34375q0 -1.40625 0.359375 -2.203125q0.359375 -0.796875 1.171875 -1.3125q0.828125 -0.53125 2.140625 -0.53125q1.046875 0 2.359375 0.34375l0 1.625q-1.390625 -0.421875 -2.21875 -0.421875q-0.484375 0 -0.875 0.15625q-0.390625 0.140625 -0.640625 0.53125q-0.234375 0.375 -0.234375 1.59375l0 1.5625l2.828125 0l0 1.546875l-2.828125 0l0 9.765625l-2.0625 0zm11.951202 0.265625q-1.609375 0 -2.8125 -0.65625q-1.1875 -0.671875 -1.890625 -2.09375q-0.6875 -1.421875 -0.6875 -3.171875q0 -1.640625 0.625 -3.046875q0.640625 -1.421875 1.859375 -2.140625q1.21875 -0.71875 2.90625 -0.71875q1.625 0 2.8125 0.65625q1.203125 0.65625 1.890625 2.09375q0.6875 1.421875 0.6875 3.15625q0 1.671875 -0.640625 3.078125q-0.640625 1.40625 -1.84375 2.125q-1.203125 0.71875 -2.90625 0.71875zm0 -1.546875q1.53125 0 2.375 -1.140625q0.84375 -1.140625 0.84375 -3.234375q0 -2.109375 -0.84375 -3.234375q-0.84375 -1.125 -2.375 -1.125q-1.515625 0 -2.359375 1.125q-0.84375 1.125 -0.84375 3.234375q0 2.09375 0.84375 3.234375q0.84375 1.140625 2.359375 1.140625zm8.600983 1.28125l0 -11.3125l2.0625 0l0 2.125q0.578125 -1.140625 1.5 -1.75q0.9375 -0.625 2.03125 -0.625q0.3125 0 0.65625 0.0625l0 1.90625q-0.515625 -0.171875 -0.9375 -0.171875q-0.96875 0 -1.78125 0.578125q-0.8125 0.578125 -1.46875 1.734375l0 7.453125l-2.0625 0zm7.5707703 1.546875l0 -1.546875l8.875 0l0 1.546875l-8.875 0zm20.117188 -1.90625q-2.0625 0.625 -3.53125 0.625q-2.640625 0 -4.15625 -1.78125q-1.5 -1.78125 -1.5 -4.1875q0 -1.59375 0.65625 -3.03125q0.671875 -1.4375 1.75 -2.125q1.078125 -0.703125 2.546875 -0.703125q1.953125 0 3.109375 1.40625q1.171875 1.390625 1.171875 4.203125l0 0.625l-7.140625 0q0.171875 1.5 0.640625 2.3125q0.484375 0.8125 1.28125 1.265625q0.796875 0.453125 2.03125 0.453125q0.625 0 1.234375 -0.109375q0.625 -0.109375 1.90625 -0.578125l0 1.625zm-7.0 -6.515625l4.984375 0q0 -1.703125 -0.65625 -2.421875q-0.65625 -0.734375 -1.6875 -0.734375q-1.1875 0 -1.84375 0.796875q-0.65625 0.78125 -0.796875 2.359375zm16.429413 5.4375q-0.921875 0.84375 -1.8125 1.28125q-0.890625 0.421875 -1.75 0.421875q-1.1875 0 -2.21875 -0.796875q-1.03125 -0.796875 -1.03125 -2.3125q0 -1.671875 1.4375 -2.75q1.4375 -1.09375 4.59375 -1.09375l0.46875 0l0 -1.359375q0 -0.8125 -0.21875 -1.1875q-0.21875 -0.375 -0.6875 -0.578125q-0.453125 -0.203125 -1.140625 -0.203125q-1.59375 0 -3.484375 1.0l0 -1.703125q2.078125 -0.84375 3.90625 -0.84375q1.0 0 1.84375 0.328125q0.84375 0.3125 1.34375 1.0q0.5 0.671875 0.5 2.1875l0 5.125q0 0.84375 0.125 1.140625q0.140625 0.296875 0.375 0.453125q0.25 0.15625 0.578125 0.15625q0.125 0 0.390625 -0.03125l0.140625 1.125q-0.6875 0.34375 -1.53125 0.34375q-0.5625 0 -1.09375 -0.359375q-0.515625 -0.375 -0.734375 -1.34375zm-0.3125 -1.109375l0 -2.9375l-0.65625 -0.015625q-1.609375 0 -2.703125 0.625q-1.09375 0.625 -1.09375 1.703125q0 0.734375 0.53125 1.25q0.546875 0.5 1.265625 0.5q0.640625 0 1.296875 -0.28125q0.671875 -0.28125 1.359375 -0.84375zm14.106506 2.203125q-1.984375 0.609375 -3.4375 0.609375q-1.515625 0 -2.78125 -0.8125q-1.25 -0.828125 -1.890625 -2.15625q-0.640625 -1.34375 -0.640625 -3.015625q0 -2.5 1.375 -4.171875q1.390625 -1.671875 4.296875 -1.671875q1.328125 0 2.953125 0.375l0 1.703125q-1.734375 -0.5 -2.828125 -0.5q-1.734375 0 -2.609375 1.28125q-0.875 1.28125 -0.875 3.046875q0 1.90625 0.984375 3.09375q0.984375 1.171875 2.5625 1.171875q1.40625 0 2.890625 -0.71875l0 1.765625zm3.065033 0.34375l0 -16.4375l2.0625 0l0 7.25q0.78125 -1.140625 1.8125 -1.75q1.03125 -0.625 2.15625 -0.625q1.4375 0 2.328125 0.921875q0.890625 0.90625 0.890625 2.515625l0 8.125l-2.046875 0l0 -7.453125q0 -1.1875 -0.21875 -1.5625q-0.203125 -0.375 -0.578125 -0.578125q-0.375 -0.203125 -0.796875 -0.203125q-0.765625 0 -1.640625 0.46875q-0.875 0.46875 -1.90625 2.0l0 7.328125l-2.0625 0z" fill-rule="nonzero"/><path fill="#000000" d="m347.17642 80.90694q0 -1.453125 0.71875 -2.8125q0.71875 -1.375 2.03125 -2.09375q1.3125 -0.71875 2.9375 -0.71875q2.515625 0 4.109375 1.640625q1.609375 1.625 1.609375 4.109375q0 2.515625 -1.625 4.171875q-1.609375 1.640625 -4.0625 1.640625q-1.53125 0 -2.90625 -0.6875q-1.375 -0.6875 -2.09375 -2.015625q-0.71875 -1.328125 -0.71875 -3.234375zm3.0 0.15625q0 1.640625 0.78125 2.515625q0.78125 0.875 1.921875 0.875q1.140625 0 1.921875 -0.875q0.78125 -0.875 0.78125 -2.53125q0 -1.625 -0.78125 -2.5q-0.78125 -0.875 -1.921875 -0.875q-1.140625 0 -1.921875 0.875q-0.78125 0.875 -0.78125 2.515625zm10.574951 5.53125l0 -15.265625l2.921875 0l0 5.5q1.359375 -1.546875 3.21875 -1.546875q2.015625 0 3.328125 1.46875q1.328125 1.453125 1.328125 4.203125q0 2.828125 -1.34375 4.359375q-1.34375 1.53125 -3.28125 1.53125q-0.9375 0 -1.859375 -0.46875q-0.921875 -0.484375 -1.59375 -1.40625l0 1.625l-2.71875 0zm2.90625 -5.765625q0 1.71875 0.546875 2.53125q0.75 1.171875 2.015625 1.171875q0.96875 0 1.640625 -0.828125q0.6875 -0.828125 0.6875 -2.609375q0 -1.890625 -0.6875 -2.734375q-0.6875 -0.84375 -1.75 -0.84375q-1.0625 0 -1.765625 0.828125q-0.6875 0.8125 -0.6875 2.484375zm9.215576 2.609375l2.9375 -0.453125q0.1875 0.859375 0.75 1.3125q0.578125 0.4375 1.609375 0.4375q1.140625 0 1.71875 -0.421875q0.375 -0.296875 0.375 -0.78125q0 -0.328125 -0.203125 -0.546875q-0.21875 -0.21875 -0.984375 -0.390625q-3.53125 -0.78125 -4.484375 -1.421875q-1.3125 -0.90625 -1.3125 -2.5q0 -1.4375 1.125 -2.40625q1.140625 -0.984375 3.53125 -0.984375q2.265625 0 3.375 0.75q1.109375 0.734375 1.515625 2.171875l-2.75 0.515625q-0.1875 -0.640625 -0.6875 -0.984375q-0.484375 -0.34375 -1.40625 -0.34375q-1.15625 0 -1.65625 0.3125q-0.328125 0.234375 -0.328125 0.59375q0 0.3125 0.296875 0.53125q0.390625 0.296875 2.71875 0.828125q2.34375 0.53125 3.28125 1.296875q0.90625 0.78125 0.90625 2.1875q0 1.515625 -1.265625 2.609375q-1.265625 1.09375 -3.765625 1.09375q-2.25 0 -3.578125 -0.90625q-1.3125 -0.921875 -1.71875 -2.5zm12.221069 -2.53125q0 -1.453125 0.71875 -2.8125q0.71875 -1.375 2.03125 -2.09375q1.3125 -0.71875 2.9375 -0.71875q2.515625 0 4.109375 1.640625q1.609375 1.625 1.609375 4.109375q0 2.515625 -1.625 4.171875q-1.609375 1.640625 -4.0625 1.640625q-1.53125 0 -2.90625 -0.6875q-1.375 -0.6875 -2.09375 -2.015625q-0.71875 -1.328125 -0.71875 -3.234375zm3.0 0.15625q0 1.640625 0.78125 2.515625q0.78125 0.875 1.921875 0.875q1.140625 0 1.921875 -0.875q0.78125 -0.875 0.78125 -2.53125q0 -1.625 -0.78125 -2.5q-0.78125 -0.875 -1.921875 -0.875q-1.140625 0 -1.921875 0.875q-0.78125 0.875 -0.78125 2.515625zm10.699951 5.53125l0 -15.265625l2.921875 0l0 15.265625l-2.921875 0zm12.331909 -3.515625l2.90625 0.484375q-0.546875 1.609375 -1.765625 2.453125q-1.21875 0.828125 -3.03125 0.828125q-2.890625 0 -4.28125 -1.890625q-1.09375 -1.5 -1.09375 -3.8125q0 -2.75 1.4375 -4.296875q1.4375 -1.5625 3.640625 -1.5625q2.46875 0 3.890625 1.640625q1.421875 1.625 1.359375 4.984375l-7.328125 0q0.03125 1.296875 0.703125 2.03125q0.6875 0.71875 1.703125 0.71875q0.6875 0 1.15625 -0.375q0.46875 -0.375 0.703125 -1.203125zm0.171875 -2.96875q-0.03125 -1.265625 -0.65625 -1.921875q-0.625 -0.671875 -1.53125 -0.671875q-0.953125 0 -1.578125 0.703125q-0.625 0.703125 -0.609375 1.890625l4.375 0zm10.361694 -4.578125l0 2.328125l-2.0 0l0 4.46875q0 1.34375 0.046875 1.578125q0.0625 0.21875 0.265625 0.375q0.203125 0.140625 0.5 0.140625q0.40625 0 1.171875 -0.28125l0.25 2.265625q-1.015625 0.4375 -2.3125 0.4375q-0.796875 0 -1.4375 -0.265625q-0.625 -0.265625 -0.921875 -0.6875q-0.296875 -0.421875 -0.40625 -1.140625q-0.09375 -0.515625 -0.09375 -2.0625l0 -4.828125l-1.34375 0l0 -2.328125l1.34375 0l0 -2.1875l2.9375 -1.71875l0 3.90625l2.0 0zm8.4305725 7.546875l2.90625 0.484375q-0.546875 1.609375 -1.765625 2.453125q-1.21875 0.828125 -3.03125 0.828125q-2.890625 0 -4.28125 -1.890625q-1.09375 -1.5 -1.09375 -3.8125q0 -2.75 1.4375 -4.296875q1.4375 -1.5625 3.640625 -1.5625q2.46875 0 3.890625 1.640625q1.421875 1.625 1.359375 4.984375l-7.328125 0q0.03125 1.296875 0.703125 2.03125q0.6875 0.71875 1.703125 0.71875q0.6875 0 1.15625 -0.375q0.46875 -0.375 0.703125 -1.203125zm0.171875 -2.96875q-0.03125 -1.265625 -0.65625 -1.921875q-0.625 -0.671875 -1.53125 -0.671875q-0.953125 0 -1.578125 0.703125q-0.625 0.703125 -0.609375 1.890625l4.375 0zm11.580444 2.546875l-2.65625 0q-0.015625 -0.578125 -0.015625 -0.703125q0 -1.28125 0.421875 -2.109375q0.4375 -0.84375 1.71875 -1.875q1.28125 -1.046875 1.53125 -1.375q0.375 -0.515625 0.375 -1.125q0 -0.84375 -0.6875 -1.453125q-0.671875 -0.609375 -1.828125 -0.609375q-1.109375 0 -1.859375 0.640625q-0.75 0.625 -1.03125 1.921875l-2.6875 -0.328125q0.109375 -1.859375 1.578125 -3.15625q1.484375 -1.3125 3.875 -1.3125q2.515625 0 4.0 1.328125q1.5 1.3125 1.5 3.0625q0 0.953125 -0.546875 1.828125q-0.546875 0.859375 -2.34375 2.34375q-0.921875 0.78125 -1.15625 1.25q-0.21875 0.46875 -0.1875 1.671875zm-2.65625 3.9375l0 -2.921875l2.921875 0l0 2.921875l-2.921875 0z" fill-rule="nonzero"/><path fill="#efefef" d="m18.002625 31.351706l0 0c0 -9.859949 7.9930687 -17.853018 17.85302 -17.853018l26.703411 0l0 0l66.834656 0l138.09448 0c4.7349243 0 9.275909 1.8809376 12.623993 5.2290287c3.3480835 3.3480892 5.2290344 7.8890743 5.2290344 12.623989l0 44.632545l0 0l0 26.779526l0 0c0 9.859947 -7.9930725 17.85302 -17.853027 17.85302l-138.09448 0l-33.416435 13.389763l-33.418217 -13.389763l-26.703411 0l0 0c-9.859951 0 -17.85302 -7.9930725 -17.85302 -17.85302l0 0l0 -26.779526l0 0z" fill-rule="evenodd"/><path stroke="#000000" stroke-width="3.0" stroke-linejoin="round" stroke-linecap="butt" d="m18.002625 31.351706l0 0c0 -9.859949 7.9930687 -17.853018 17.85302 -17.853018l26.703411 0l0 0l66.834656 0l138.09448 0c4.7349243 0 9.275909 1.8809376 12.623993 5.2290287c3.3480835 3.3480892 5.2290344 7.8890743 5.2290344 12.623989l0 44.632545l0 0l0 26.779526l0 0c0 9.859947 -7.9930725 17.85302 -17.853027 17.85302l-138.09448 0l-33.416435 13.389763l-33.418217 -13.389763l-26.703411 0l0 0c-9.859951 0 -17.85302 -7.9930725 -17.85302 -17.85302l0 0l0 -26.779526l0 0z" fill-rule="evenodd"/><path fill="#000000" d="m33.669094 40.63399l0 -1.65625q1.75 0.875 3.046875 0.875q0.765625 0 1.28125 -0.40625q0.515625 -0.421875 0.515625 -1.0625q0 -0.390625 -0.25 -0.765625q-0.25 -0.359375 -1.171875 -0.75l-1.046875 -0.453125q-1.21875 -0.5 -1.765625 -1.15625q-0.5625 -0.65625 -0.5625 -1.609375q0 -1.203125 0.859375 -1.984375q0.875 -0.796875 2.5625 -0.796875q0.828125 0 2.046875 0.21875l0.375 0.078125l0 1.5q-1.5 -0.453125 -2.390625 -0.453125q-0.859375 0 -1.296875 0.375q-0.421875 0.375 -0.421875 0.890625q0 0.390625 0.28125 0.71875q0.296875 0.328125 1.03125 0.640625l0.859375 0.359375q1.734375 0.75 2.21875 1.46875q0.46875 0.71875 0.46875 1.5625q0 0.8125 -0.4375 1.5q-0.4375 0.6875 -1.3125 1.09375q-0.859375 0.390625 -1.90625 0.390625q-1.234375 0 -2.984375 -0.578125zm14.27594 0.34375q-0.828125 0.234375 -1.4375 0.234375q-1.328125 0 -2.109375 -0.765625q-0.78125 -0.78125 -0.78125 -2.203125l0 -5.8125l-1.25 0l0 -1.34375l1.25 0l0 -1.796875l1.78125 -0.171875l0 1.96875l2.59375 0l0 1.34375l-2.59375 0l0 5.484375q0 1.046875 0.40625 1.5q0.40625 0.4375 1.28125 0.4375q0.34375 0 0.859375 -0.109375l0 1.234375zm8.915375 0l0 -1.859375q-0.546875 1.046875 -1.375 1.578125q-0.8125 0.515625 -1.921875 0.515625q-1.8125 0 -2.828125 -1.34375q-1.0 -1.34375 -1.0 -3.53125q0 -2.34375 1.125 -3.90625q1.125 -1.5625 3.09375 -1.5625q0.5625 0 1.078125 0.140625q0.53125 0.125 0.9375 0.375q0.40625 0.25 0.890625 0.828125l0 -5.625l1.8125 0l0 14.390625l-1.8125 0zm0 -7.53125q-0.921875 -0.828125 -1.46875 -1.03125q-0.546875 -0.203125 -1.171875 -0.203125q-1.3125 0 -1.953125 1.109375q-0.625 1.09375 -0.625 2.84375q0 1.609375 0.5625 2.546875q0.5625 0.921875 1.734375 0.921875q0.75 0 1.484375 -0.40625q0.734375 -0.421875 1.4375 -1.234375l0 -4.546875zm5.6483917 7.53125l0 -1.796875l1.7968788 0l0 1.796875l-1.7968788 0zm0 -8.09375l0 -1.796875l1.7968788 0l0 1.796875l-1.7968788 0zm5.902958 8.09375l0 -1.796875l1.796875 0l0 1.796875l-1.796875 0zm0 -8.09375l0 -1.796875l1.796875 0l0 1.796875l-1.796875 0zm7.699829 8.09375l-3.6875 -9.890625l1.796875 0l2.890625 7.6875l3.03125 -7.6875l1.671875 0l-3.90625 9.890625l-1.796875 0zm14.859192 -0.3125q-1.8125 0.546875 -3.09375 0.546875q-2.296875 0 -3.625 -1.546875q-1.3125 -1.5625 -1.3125 -3.671875q0 -1.40625 0.578125 -2.65625q0.578125 -1.265625 1.515625 -1.875q0.953125 -0.609375 2.234375 -0.609375q1.703125 0 2.71875 1.234375q1.03125 1.234375 1.03125 3.6875l-0.015625 0.53125l-6.234375 0q0.140625 1.3125 0.5625 2.03125q0.421875 0.703125 1.109375 1.109375q0.703125 0.390625 1.78125 0.390625q0.546875 0 1.078125 -0.09375q0.546875 -0.09375 1.671875 -0.5l0 1.421875zm-6.125 -5.703125l4.359375 0q0 -1.484375 -0.578125 -2.109375q-0.578125 -0.640625 -1.46875 -0.640625q-1.03125 0 -1.609375 0.6875q-0.578125 0.6875 -0.703125 2.0625zm16.128311 5.71875q-1.734375 0.53125 -3.0 0.53125q-1.3125 0 -2.421875 -0.71875q-1.109375 -0.71875 -1.671875 -1.875q-0.546875 -1.171875 -0.546875 -2.640625q0 -2.1875 1.203125 -3.640625q1.21875 -1.46875 3.75 -1.46875q1.15625 0 2.578125 0.3125l0 1.5q-1.515625 -0.4375 -2.46875 -0.4375q-1.515625 0 -2.28125 1.125q-0.765625 1.125 -0.765625 2.65625q0 1.671875 0.859375 2.703125q0.859375 1.03125 2.234375 1.03125q1.234375 0 2.53125 -0.625l0 1.546875zm7.1027374 0.296875q-0.828125 0.234375 -1.4375 0.234375q-1.328125 0 -2.109375 -0.765625q-0.78125 -0.78125 -0.78125 -2.203125l0 -5.8125l-1.25 0l0 -1.34375l1.25 0l0 -1.796875l1.78125 -0.171875l0 1.96875l2.59375 0l0 1.34375l-2.59375 0l0 5.484375q0 1.046875 0.40625 1.5q0.40625 0.4375 1.28125 0.4375q0.34375 0 0.859375 -0.109375l0 1.234375zm6.5091248 0.234375q-1.421875 0 -2.46875 -0.578125q-1.03125 -0.578125 -1.640625 -1.828125q-0.609375 -1.25 -0.609375 -2.78125q0 -1.4375 0.546875 -2.671875q0.5625 -1.234375 1.625 -1.859375q1.0625 -0.625 2.546875 -0.625q1.40625 0 2.453125 0.578125q1.046875 0.5625 1.65625 1.8125q0.609375 1.25 0.609375 2.765625q0 1.46875 -0.578125 2.703125q-0.5625 1.234375 -1.609375 1.859375q-1.046875 0.625 -2.53125 0.625zm0 -1.359375q1.328125 0 2.0625 -0.984375q0.75 -1.0 0.75 -2.84375q0 -1.828125 -0.75 -2.8125q-0.734375 -1.0 -2.0625 -1.0q-1.328125 0 -2.078125 1.0q-0.734375 0.984375 -0.734375 2.8125q0 1.84375 0.734375 2.84375q0.75 0.984375 2.078125 0.984375zm7.5222473 1.125l0 -9.890625l1.796875 0l0 1.859375q0.5 -1.0 1.3125 -1.53125q0.828125 -0.546875 1.78125 -0.546875q0.265625 0 0.578125 0.046875l0 1.671875q-0.453125 -0.15625 -0.828125 -0.15625q-0.84375 0 -1.5625 0.515625q-0.71875 0.5 -1.28125 1.515625l0 6.515625l-1.796875 0zm16.680634 -0.453125l-9.890625 -4.9375l9.890625 -4.953125l0 1.578125l-6.875 3.375l6.875 3.375l0 1.5625zm2.7499237 0.453125l0 -9.890625l1.796875 0l0 9.890625l-1.796875 0zm0 -11.6875l0 -1.796875l1.796875 0l0 1.796875l-1.796875 0zm5.3928223 11.6875l0 -9.890625l1.796875 0l0 1.859375q0.671875 -1.0 1.578125 -1.53125q0.90625 -0.546875 1.890625 -0.546875q1.25 0 2.03125 0.796875q0.796875 0.796875 0.796875 2.203125l0 7.109375l-1.796875 0l0 -6.515625q0 -1.03125 -0.1875 -1.359375q-0.1875 -0.328125 -0.515625 -0.5q-0.328125 -0.1875 -0.6875 -0.1875q-0.671875 0 -1.453125 0.40625q-0.765625 0.40625 -1.65625 1.75l0 6.40625l-1.796875 0zm15.984421 0q-0.828125 0.234375 -1.4375 0.234375q-1.328125 0 -2.109375 -0.765625q-0.78125 -0.78125 -0.78125 -2.203125l0 -5.8125l-1.25 0l0 -1.34375l1.25 0l0 -1.796875l1.78125 -0.171875l0 1.96875l2.59375 0l0 1.34375l-2.59375 0l0 5.484375q0 1.046875 0.40625 1.5q0.40625 0.4375 1.28125 0.4375q0.34375 0 0.859375 -0.109375l0 1.234375zm1.7278748 -10.34375l9.890625 4.953125l-9.890625 4.9375l0 -1.5625l6.875 -3.375l-6.875 -3.375l0 -1.578125zm18.543503 10.34375l0 -9.890625l1.796875 0l0 1.859375q0.671875 -1.0 1.578125 -1.53125q0.90625 -0.546875 1.890625 -0.546875q1.25 0 2.03125 0.796875q0.796875 0.796875 0.796875 2.203125l0 7.109375l-1.796875 0l0 -6.515625q0 -1.03125 -0.1875 -1.359375q-0.1875 -0.328125 -0.515625 -0.5q-0.328125 -0.1875 -0.6875 -0.1875q-0.671875 0 -1.453125 0.40625q-0.765625 0.40625 -1.65625 1.75l0 6.40625l-1.796875 0zm17.76567 0l0 -1.859375q-0.703125 1.0 -1.609375 1.546875q-0.890625 0.546875 -1.859375 0.546875q-1.25 0 -2.046875 -0.796875q-0.78125 -0.796875 -0.78125 -2.21875l0 -7.109375l1.796875 0l0 6.515625q0 1.03125 0.171875 1.359375q0.1875 0.328125 0.515625 0.515625q0.328125 0.171875 0.703125 0.171875q0.65625 0 1.421875 -0.40625q0.78125 -0.40625 1.6875 -1.75l0 -6.40625l1.796875 0l0 9.890625l-1.796875 0zm5.390671 0l0 -9.890625l1.796875 0l0 1.859375q0.546875 -0.875 1.390625 -1.46875q0.859375 -0.609375 1.96875 -0.609375q0.65625 0 1.140625 0.21875q0.484375 0.203125 0.875 0.59375q0.390625 0.375 0.703125 1.265625q0.546875 -0.890625 1.375 -1.484375q0.84375 -0.609375 1.9375 -0.609375q1.046875 0 1.890625 0.65625q0.859375 0.65625 0.859375 2.265625l0 7.203125l-1.8125 0l0 -6.921875q0 -0.96875 -0.421875 -1.328125q-0.40625 -0.359375 -0.90625 -0.359375q-0.640625 0 -1.328125 0.40625q-0.6875 0.390625 -1.59375 1.578125l0 6.625l-1.8125 0l0 -6.921875q0 -0.984375 -0.421875 -1.34375q-0.421875 -0.359375 -0.9375 -0.359375q-0.65625 0 -1.3125 0.40625q-0.65625 0.390625 -1.59375 1.59375l0 6.625l-1.796875 0zm17.417358 0.109375l0 -14.5l1.796875 0l0 6.359375q0.546875 -1.046875 1.375 -1.5625q0.828125 -0.515625 1.921875 -0.515625q1.84375 0 2.84375 1.34375q1.0 1.34375 1.0 3.515625q0 2.34375 -1.140625 3.921875q-1.125 1.5625 -3.09375 1.5625q-0.5625 0 -1.09375 -0.140625q-0.515625 -0.140625 -0.921875 -0.390625q-0.40625 -0.265625 -0.890625 -0.828125l-0.21875 1.234375l-1.578125 0zm1.796875 -2.46875q0.921875 0.8125 1.46875 1.03125q0.546875 0.203125 1.171875 0.203125q1.3125 0 1.9375 -1.109375q0.640625 -1.109375 0.640625 -2.828125q0 -1.609375 -0.5625 -2.546875q-0.546875 -0.9375 -1.734375 -0.9375q-0.734375 0 -1.46875 0.40625q-0.734375 0.40625 -1.453125 1.21875l0 4.5625zm17.195267 2.046875q-1.8125 0.546875 -3.09375 0.546875q-2.296875 0 -3.625 -1.546875q-1.3125 -1.5625 -1.3125 -3.671875q0 -1.40625 0.578125 -2.65625q0.578125 -1.265625 1.515625 -1.875q0.953125 -0.609375 2.234375 -0.609375q1.703125 0 2.71875 1.234375q1.03125 1.234375 1.03125 3.6875l-0.015625 0.53125l-6.234375 0q0.140625 1.3125 0.5625 2.03125q0.421875 0.703125 1.109375 1.109375q0.703125 0.390625 1.78125 0.390625q0.546875 0 1.078125 -0.09375q0.546875 -0.09375 1.671875 -0.5l0 1.421875zm-6.125 -5.703125l4.359375 0q0 -1.484375 -0.578125 -2.109375q-0.578125 -0.640625 -1.46875 -0.640625q-1.03125 0 -1.609375 0.6875q-0.578125 0.6875 -0.703125 2.0625zm9.268936 6.015625l0 -9.890625l1.796875 0l0 1.859375q0.5 -1.0 1.3125 -1.53125q0.828125 -0.546875 1.78125 -0.546875q0.265625 0 0.578125 0.046875l0 1.671875q-0.453125 -0.15625 -0.828125 -0.15625q-0.84375 0 -1.5625 0.515625q-0.71875 0.5 -1.28125 1.515625l0 6.515625l-1.796875 0zm7.2743835 -0.34375l0 -1.65625q1.75 0.875 3.046875 0.875q0.765625 0 1.28125 -0.40625q0.515625 -0.421875 0.515625 -1.0625q0 -0.390625 -0.25 -0.765625q-0.25 -0.359375 -1.171875 -0.75l-1.046875 -0.453125q-1.21875 -0.5 -1.765625 -1.15625q-0.5625 -0.65625 -0.5625 -1.609375q0 -1.203125 0.859375 -1.984375q0.875 -0.796875 2.5625 -0.796875q0.828125 0 2.046875 0.21875l0.375 0.078125l0 1.5q-1.5 -0.453125 -2.390625 -0.453125q-0.859375 0 -1.296875 0.375q-0.421875 0.375 -0.421875 0.890625q0 0.390625 0.28125 0.71875q0.296875 0.328125 1.03125 0.640625l0.859375 0.359375q1.734375 0.75 2.21875 1.46875q0.46875 0.71875 0.46875 1.5625q0 0.8125 -0.4375 1.5q-0.4375 0.6875 -1.3125 1.09375q-0.859375 0.390625 -1.90625 0.390625q-1.234375 0 -2.984375 -0.578125zm10.11969 3.265625l0 -0.671875q0.34375 -0.1875 0.5 -0.59375q0.15625 -0.40625 0.15625 -1.453125l0 -0.203125l-0.65625 0l0 -1.796875l1.796875 0l0 1.515625q0 1.171875 -0.203125 1.703125q-0.203125 0.53125 -0.640625 0.953125q-0.4375 0.421875 -0.953125 0.546875zm0 -11.015625l0 -1.796875l1.796875 0l0 1.796875l-1.796875 0z" fill-rule="nonzero"/><path fill="#000000" d="m34.356594 62.97774l0 -8.546875l-1.390625 0l0 -1.34375l1.390625 0l0 -1.1875q0 -1.21875 0.3125 -1.90625q0.328125 -0.703125 1.03125 -1.15625q0.71875 -0.46875 1.875 -0.46875q0.921875 0 2.0625 0.296875l0 1.421875q-1.21875 -0.375 -1.9375 -0.375q-0.421875 0 -0.765625 0.140625q-0.34375 0.125 -0.5625 0.46875q-0.203125 0.328125 -0.203125 1.390625l0 1.375l2.46875 0l0 1.34375l-2.46875 0l0 8.546875l-1.8125 0zm10.468826 0.234375q-1.421875 0 -2.46875 -0.578125q-1.03125 -0.578125 -1.640625 -1.828125q-0.609375 -1.25 -0.609375 -2.78125q0 -1.4375 0.546875 -2.671875q0.5625 -1.234375 1.625 -1.859375q1.0625 -0.625 2.546875 -0.625q1.40625 0 2.453125 0.578125q1.046875 0.5625 1.65625 1.8125q0.609375 1.25 0.609375 2.765625q0 1.46875 -0.578125 2.703125q-0.5625 1.234375 -1.609375 1.859375q-1.046875 0.625 -2.53125 0.625zm0 -1.359375q1.328125 0 2.0625 -0.984375q0.75 -1.0 0.75 -2.84375q0 -1.828125 -0.75 -2.8125q-0.734375 -1.0 -2.0625 -1.0q-1.328125 0 -2.078125 1.0q-0.734375 0.984375 -0.734375 2.8125q0 1.84375 0.734375 2.84375q0.75 0.984375 2.078125 0.984375zm7.5222473 1.125l0 -9.890625l1.796875 0l0 1.859375q0.5 -1.0 1.3125 -1.53125q0.828125 -0.546875 1.78125 -0.546875q0.265625 0 0.578125 0.046875l0 1.671875q-0.453125 -0.15625 -0.828125 -0.15625q-0.84375 0 -1.5625 0.515625q-0.71875 0.5 -1.28125 1.515625l0 6.515625l-1.796875 0zm17.130466 1.4531288l0 1.25q-1.484375 -1.015625 -2.40625 -2.4218788q-0.921875 -1.40625 -1.390625 -3.0q-0.46875 -1.59375 -0.46875 -3.125q0 -1.53125 0.46875 -3.125q0.46875 -1.59375 1.390625 -3.0q0.921875 -1.40625 2.40625 -2.421875l0 1.25q-1.03125 1.109375 -1.53125 2.171875q-0.484375 1.046875 -0.71875 2.359375q-0.21875 1.3125 -0.21875 2.765625q0 1.453125 0.21875 2.765625q0.234375 1.3125 0.71875 2.375q0.5 1.046875 1.53125 2.1562538zm2.473175 -1.4531288l0 -9.890625l1.796875 0l0 9.890625l-1.796875 0zm0 -11.6875l0 -1.796875l1.796875 0l0 1.796875l-1.796875 0zm5.3928223 11.6875l0 -9.890625l1.796875 0l0 1.859375q0.671875 -1.0 1.578125 -1.53125q0.90625 -0.546875 1.890625 -0.546875q1.25 0 2.03125 0.796875q0.796875 0.796875 0.796875 2.203125l0 7.109375l-1.796875 0l0 -6.515625q0 -1.03125 -0.1875 -1.359375q-0.1875 -0.328125 -0.515625 -0.5q-0.328125 -0.1875 -0.6875 -0.1875q-0.671875 0 -1.453125 0.40625q-0.765625 0.40625 -1.65625 1.75l0 6.40625l-1.796875 0zm15.984421 0q-0.828125 0.234375 -1.4375 0.234375q-1.328125 0 -2.109375 -0.765625q-0.78125 -0.78125 -0.78125 -2.203125l0 -5.8125l-1.25 0l0 -1.34375l1.25 0l0 -1.796875l1.78125 -0.171875l0 1.96875l2.59375 0l0 1.34375l-2.59375 0l0 5.484375q0 1.046875 0.40625 1.5q0.40625 0.4375 1.28125 0.4375q0.34375 0 0.859375 -0.109375l0 1.234375zm8.474579 0l0 -9.890625l1.796875 0l0 1.859375q0.671875 -1.0 1.578125 -1.53125q0.90625 -0.546875 1.890625 -0.546875q1.25 0 2.03125 0.796875q0.796875 0.796875 0.796875 2.203125l0 7.109375l-1.796875 0l0 -6.515625q0 -1.03125 -0.1875 -1.359375q-0.1875 -0.328125 -0.515625 -0.5q-0.328125 -0.1875 -0.6875 -0.1875q-0.671875 0 -1.453125 0.40625q-0.765625 0.40625 -1.65625 1.75l0 6.40625l-1.796875 0zm17.731125 0l0 -1.796875l1.796875 0l0 1.796875l-1.796875 0zm0 -8.09375l0 -1.796875l1.796875 0l0 1.796875l-1.796875 0zm11.555908 8.09375l0 -9.890625l1.796875 0l0 1.859375q0.671875 -1.0 1.578125 -1.53125q0.90625 -0.546875 1.890625 -0.546875q1.25 0 2.03125 0.796875q0.796875 0.796875 0.796875 2.203125l0 7.109375l-1.796875 0l0 -6.515625q0 -1.03125 -0.1875 -1.359375q-0.1875 -0.328125 -0.515625 -0.5q-0.328125 -0.1875 -0.6875 -0.1875q-0.671875 0 -1.453125 0.40625q-0.765625 0.40625 -1.65625 1.75l0 6.40625l-1.796875 0zm17.76567 0l0 -1.859375q-0.703125 1.0 -1.609375 1.546875q-0.890625 0.546875 -1.859375 0.546875q-1.25 0 -2.046875 -0.796875q-0.78125 -0.796875 -0.78125 -2.21875l0 -7.109375l1.796875 0l0 6.515625q0 1.03125 0.171875 1.359375q0.1875 0.328125 0.515625 0.515625q0.328125 0.171875 0.703125 0.171875q0.65625 0 1.421875 -0.40625q0.78125 -0.40625 1.6875 -1.75l0 -6.40625l1.796875 0l0 9.890625l-1.796875 0zm5.390671 0l0 -9.890625l1.796875 0l0 1.859375q0.546875 -0.875 1.390625 -1.46875q0.859375 -0.609375 1.96875 -0.609375q0.65625 0 1.140625 0.21875q0.484375 0.203125 0.875 0.59375q0.390625 0.375 0.703125 1.265625q0.546875 -0.890625 1.375 -1.484375q0.84375 -0.609375 1.9375 -0.609375q1.046875 0 1.890625 0.65625q0.859375 0.65625 0.859375 2.265625l0 7.203125l-1.8125 0l0 -6.921875q0 -0.96875 -0.421875 -1.328125q-0.40625 -0.359375 -0.90625 -0.359375q-0.640625 0 -1.328125 0.40625q-0.6875 0.390625 -1.59375 1.578125l0 6.625l-1.8125 0l0 -6.921875q0 -0.984375 -0.421875 -1.34375q-0.421875 -0.359375 -0.9375 -0.359375q-0.65625 0 -1.3125 0.40625q-0.65625 0.390625 -1.59375 1.59375l0 6.625l-1.796875 0zm17.417358 0.109375l0 -14.5l1.796875 0l0 6.359375q0.546875 -1.046875 1.375 -1.5625q0.828125 -0.515625 1.921875 -0.515625q1.84375 0 2.84375 1.34375q1.0 1.34375 1.0 3.515625q0 2.34375 -1.140625 3.921875q-1.125 1.5625 -3.09375 1.5625q-0.5625 0 -1.09375 -0.140625q-0.515625 -0.140625 -0.921875 -0.390625q-0.40625 -0.265625 -0.890625 -0.828125l-0.21875 1.234375l-1.578125 0zm1.796875 -2.46875q0.921875 0.8125 1.46875 1.03125q0.546875 0.203125 1.171875 0.203125q1.3125 0 1.9375 -1.109375q0.640625 -1.109375 0.640625 -2.828125q0 -1.609375 -0.5625 -2.546875q-0.546875 -0.9375 -1.734375 -0.9375q-0.734375 0 -1.46875 0.40625q-0.734375 0.40625 -1.453125 1.21875l0 4.5625zm17.195267 2.046875q-1.8125 0.546875 -3.09375 0.546875q-2.296875 0 -3.625 -1.546875q-1.3125 -1.5625 -1.3125 -3.671875q0 -1.40625 0.578125 -2.65625q0.578125 -1.265625 1.515625 -1.875q0.953125 -0.609375 2.234375 -0.609375q1.703125 0 2.71875 1.234375q1.03125 1.234375 1.03125 3.6875l-0.015625 0.53125l-6.234375 0q0.140625 1.3125 0.5625 2.03125q0.421875 0.703125 1.109375 1.109375q0.703125 0.390625 1.78125 0.390625q0.546875 0 1.078125 -0.09375q0.546875 -0.09375 1.671875 -0.5l0 1.421875zm-6.125 -5.703125l4.359375 0q0 -1.484375 -0.578125 -2.109375q-0.578125 -0.640625 -1.46875 -0.640625q-1.03125 0 -1.609375 0.6875q-0.578125 0.6875 -0.703125 2.0625zm9.268936 6.015625l0 -9.890625l1.796875 0l0 1.859375q0.5 -1.0 1.3125 -1.53125q0.828125 -0.546875 1.78125 -0.546875q0.265625 0 0.578125 0.046875l0 1.671875q-0.453125 -0.15625 -0.828125 -0.15625q-0.84375 0 -1.5625 0.515625q-0.71875 0.5 -1.28125 1.515625l0 6.515625l-1.796875 0zm7.2743835 -0.34375l0 -1.65625q1.75 0.875 3.046875 0.875q0.765625 0 1.28125 -0.40625q0.515625 -0.421875 0.515625 -1.0625q0 -0.390625 -0.25 -0.765625q-0.25 -0.359375 -1.171875 -0.75l-1.046875 -0.453125q-1.21875 -0.5 -1.765625 -1.15625q-0.5625 -0.65625 -0.5625 -1.609375q0 -1.203125 0.859375 -1.984375q0.875 -0.796875 2.5625 -0.796875q0.828125 0 2.046875 0.21875l0.375 0.078125l0 1.5q-1.5 -0.453125 -2.390625 -0.453125q-0.859375 0 -1.296875 0.375q-0.421875 0.375 -0.421875 0.890625q0 0.390625 0.28125 0.71875q0.296875 0.328125 1.03125 0.640625l0.859375 0.359375q1.734375 0.75 2.21875 1.46875q0.46875 0.71875 0.46875 1.5625q0 0.8125 -0.4375 1.5q-0.4375 0.6875 -1.3125 1.09375q-0.859375 0.390625 -1.90625 0.390625q-1.234375 0 -2.984375 -0.578125zm8.74469 -12.796875l0 -1.25q1.484375 1.015625 2.40625 2.421875q0.921875 1.40625 1.390625 3.0q0.484375 1.59375 0.484375 3.125q0 1.53125 -0.484375 3.125q-0.46875 1.59375 -1.390625 3.0q-0.921875 1.4062538 -2.40625 2.4218788l0 -1.25q1.03125 -1.1093788 1.515625 -2.1562538q0.5 -1.0625 0.71875 -2.375q0.234375 -1.328125 0.234375 -2.765625q0 -1.4375 -0.234375 -2.75q-0.21875 -1.328125 -0.71875 -2.375q-0.484375 -1.0625 -1.515625 -2.171875zm11.532379 6.625l0.4375 0q1.390625 0 1.390625 -1.46875q0 -0.625 -0.140625 -1.28125l-0.171875 -0.796875q-0.171875 -0.765625 -0.171875 -1.53125q0 -0.703125 0.375 -1.34375q0.390625 -0.640625 1.03125 -1.0q0.65625 -0.375 1.859375 -0.453125l0 1.359375l-0.265625 0q-0.484375 0 -0.96875 0.28125q-0.46875 0.28125 -0.46875 0.84375q0 0.203125 0.125 0.859375l0.15625 0.9375q0.09375 0.59375 0.09375 1.421875q0 0.96875 -0.328125 1.609375q-0.3125 0.640625 -1.015625 1.234375q0.703125 0.59375 1.015625 1.234375q0.328125 0.640625 0.328125 1.625q0 0.8125 -0.09375 1.40625l-0.15625 0.9375q-0.125 0.65625 -0.125 0.875q0 0.546875 0.46875 0.8281288q0.46875 0.28125 0.96875 0.28125l0.265625 0l0 1.359375q-1.203125 -0.078125 -1.859375 -0.453125q-0.640625 -0.359375 -1.03125 -1.0q-0.375 -0.6406288 -0.375 -1.3593788q0 -0.75 0.171875 -1.515625l0.171875 -0.796875q0.140625 -0.65625 0.140625 -1.296875q0 -1.453125 -1.390625 -1.453125l-0.4375 0l0 -1.34375z" fill-rule="nonzero"/><path fill="#000000" d="m57.28091 84.633995l0 -1.65625q1.75 0.875 3.046875 0.875q0.765625 0 1.28125 -0.40625q0.515625 -0.421875 0.515625 -1.0625q0 -0.390625 -0.25 -0.765625q-0.25 -0.359375 -1.171875 -0.75l-1.046875 -0.453125q-1.21875 -0.5 -1.765625 -1.15625q-0.5625 -0.65625 -0.5625 -1.609375q0 -1.203125 0.859375 -1.984375q0.875 -0.796875 2.5625 -0.796875q0.828125 0 2.046875 0.21875l0.375 0.078125l0 1.5q-1.5 -0.453125 -2.390625 -0.453125q-0.859375 0 -1.296875 0.375q-0.421875 0.375 -0.421875 0.890625q0 0.390625 0.28125 0.71875q0.296875 0.328125 1.03125 0.640625l0.859375 0.359375q1.734375 0.75 2.21875 1.46875q0.46875 0.71875 0.46875 1.5625q0 0.8125 -0.4375 1.5q-0.4375 0.6875 -1.3125 1.09375q-0.859375 0.390625 -1.90625 0.390625q-1.234375 0 -2.984375 -0.578125zm14.275944 0.34375q-0.828125 0.234375 -1.4375 0.234375q-1.328125 0 -2.109375 -0.765625q-0.78125 -0.78125 -0.78125 -2.203125l0 -5.8125l-1.25 0l0 -1.34375l1.25 0l0 -1.796875l1.78125 -0.171875l0 1.96875l2.59375 0l0 1.34375l-2.59375 0l0 5.484375q0 1.046875 0.40625 1.5q0.40625 0.4375 1.28125 0.4375q0.34375 0 0.859375 -0.109375l0 1.234375zm8.915375 0l0 -1.859375q-0.546875 1.046875 -1.375 1.578125q-0.8125 0.515625 -1.921875 0.515625q-1.8125 0 -2.828125 -1.34375q-1.0 -1.34375 -1.0 -3.53125q0 -2.34375 1.125 -3.90625q1.125 -1.5625 3.09375 -1.5625q0.5625 0 1.078125 0.140625q0.53125 0.125 0.9375 0.375q0.40625 0.25 0.890625 0.828125l0 -5.625l1.8125 0l0 14.390625l-1.8125 0zm0 -7.53125q-0.921875 -0.828125 -1.46875 -1.03125q-0.546875 -0.203125 -1.171875 -0.203125q-1.3125 0 -1.953125 1.109375q-0.625 1.09375 -0.625 2.84375q0 1.609375 0.5625 2.546875q0.5625 0.921875 1.734375 0.921875q0.75 0 1.484375 -0.40625q0.734375 -0.421875 1.4375 -1.234375l0 -4.546875zm5.6483917 7.53125l0 -1.796875l1.796875 0l0 1.796875l-1.796875 0zm0 -8.09375l0 -1.796875l1.796875 0l0 1.796875l-1.796875 0zm5.902954 8.09375l0 -1.796875l1.796875 0l0 1.796875l-1.796875 0zm0 -8.09375l0 -1.796875l1.796875 0l0 1.796875l-1.796875 0zm5.902954 8.09375l0 -1.796875l1.796875 0l0 1.796875l-1.796875 0zm0 -8.09375l0 -1.796875l1.796875 0l0 1.796875l-1.796875 0zm12.512329 7.796875q-1.734375 0.53125 -3.0 0.53125q-1.3125 0 -2.421875 -0.71875q-1.109375 -0.71875 -1.671875 -1.875q-0.546875 -1.171875 -0.546875 -2.640625q0 -2.1875 1.203125 -3.640625q1.21875 -1.46875 3.75 -1.46875q1.15625 0 2.578125 0.3125l0 1.5q-1.515625 -0.4375 -2.46875 -0.4375q-1.515625 0 -2.28125 1.125q-0.765625 1.125 -0.765625 2.65625q0 1.671875 0.859375 2.703125q0.859375 1.03125 2.234375 1.03125q1.234375 0 2.53125 -0.625l0 1.546875zm6.6339874 0.53125q-1.421875 0 -2.46875 -0.578125q-1.03125 -0.578125 -1.640625 -1.828125q-0.609375 -1.25 -0.609375 -2.78125q0 -1.4375 0.546875 -2.671875q0.5625 -1.234375 1.625 -1.859375q1.0625 -0.625 2.546875 -0.625q1.40625 0 2.453125 0.578125q1.046875 0.5625 1.65625 1.8125q0.609375 1.25 0.609375 2.765625q0 1.46875 -0.578125 2.703125q-0.5625 1.234375 -1.609375 1.859375q-1.046875 0.625 -2.53125 0.625zm0 -1.359375q1.328125 0 2.0625 -0.984375q0.75 -1.0 0.75 -2.84375q0 -1.828125 -0.75 -2.8125q-0.734375 -1.0 -2.0625 -1.0q-1.328125 0 -2.078125 1.0q-0.734375 0.984375 -0.734375 2.8125q0 1.84375 0.734375 2.84375q0.75 0.984375 2.078125 0.984375zm13.709747 1.125l0 -1.859375q-0.703125 1.0 -1.609375 1.546875q-0.890625 0.546875 -1.859375 0.546875q-1.25 0 -2.046875 -0.796875q-0.78125 -0.796875 -0.78125 -2.21875l0 -7.109375l1.796875 0l0 6.515625q0 1.03125 0.171875 1.359375q0.1875 0.328125 0.515625 0.515625q0.328125 0.171875 0.703125 0.171875q0.65625 0 1.421875 -0.40625q0.78125 -0.40625 1.6875 -1.75l0 -6.40625l1.796875 0l0 9.890625l-1.796875 0zm9.796921 0q-0.828125 0.234375 -1.4375 0.234375q-1.328125 0 -2.109375 -0.765625q-0.78125 -0.78125 -0.78125 -2.203125l0 -5.8125l-1.25 0l0 -1.34375l1.25 0l0 -1.796875l1.78125 -0.171875l0 1.96875l2.59375 0l0 1.34375l-2.59375 0l0 5.484375q0 1.046875 0.40625 1.5q0.40625 0.4375 1.28125 0.4375q0.34375 0 0.859375 -0.109375l0 1.234375zm17.521454 -0.453125l-9.890625 -4.9375l9.890625 -4.953125l0 1.578125l-6.875 3.375l6.875 3.375l0 1.5625zm11.796799 0l-9.890625 -4.9375l9.890625 -4.953125l0 1.578125l-6.875 3.375l6.875 3.375l0 1.5625zm8.652878 0.453125l0 -9.890625l1.796875 0l0 1.859375q0.671875 -1.0 1.578125 -1.53125q0.90625 -0.546875 1.890625 -0.546875q1.25 0 2.03125 0.796875q0.796875 0.796875 0.796875 2.203125l0 7.109375l-1.796875 0l0 -6.515625q0 -1.03125 -0.1875 -1.359375q-0.1875 -0.328125 -0.515625 -0.5q-0.328125 -0.1875 -0.6875 -0.1875q-0.671875 0 -1.453125 0.40625q-0.765625 0.40625 -1.65625 1.75l0 6.40625l-1.796875 0zm11.828171 2.921875l0 -0.671875q0.34375 -0.1875 0.5 -0.59375q0.15625 -0.40625 0.15625 -1.453125l0 -0.203125l-0.65625 0l0 -1.796875l1.796875 0l0 1.515625q0 1.171875 -0.203125 1.703125q-0.203125 0.53125 -0.640625 0.953125q-0.4375 0.421875 -0.953125 0.546875zm0 -11.015625l0 -1.796875l1.796875 0l0 1.796875l-1.796875 0z" fill-rule="nonzero"/><path fill="#000000" d="m38.075344 101.80587l-0.453125 0q-1.375 0 -1.375 1.46875q0 0.625 0.140625 1.28125l0.171875 0.796875q0.171875 0.765625 0.171875 1.53125q0 0.703125 -0.390625 1.34375q-0.390625 0.640625 -1.03125 1.0q-0.640625 0.375 -1.84375 0.453125l0 -1.359375l0.265625 0q0.5 0 0.96875 -0.28125q0.46875 -0.28125 0.46875 -0.828125q0 -0.25 -0.125 -0.875l-0.15625 -0.9375q-0.109375 -0.578125 -0.109375 -1.4375q0 -0.9375 0.3125 -1.578125q0.3125 -0.640625 1.03125 -1.25q-0.703125 -0.59375 -1.03125 -1.234375q-0.3125 -0.640625 -0.3125 -1.609375q0 -0.84375 0.109375 -1.421875l0.15625 -0.9375q0.125 -0.625 0.125 -0.875q0 -0.546875 -0.484375 -0.828125q-0.46875 -0.28125 -0.953125 -0.28125l-0.265625 0l0 -1.359375q1.203125 0.078125 1.84375 0.453125q0.640625 0.359375 1.03125 1.0q0.390625 0.640625 0.390625 1.359375q0 0.75 -0.171875 1.515625l-0.171875 0.796875q-0.140625 0.65625 -0.140625 1.296875q0 1.453125 1.375 1.453125l0.453125 0l0 1.34375z" fill-rule="nonzero"/></g></svg>