<svg version="1.1" viewBox="0.0 0.0 273.01574803149606 454.0" fill="none" stroke="none" stroke-linecap="square" stroke-miterlimit="10" xmlns:xlink="http://www.w3.org/1999/xlink" xmlns="http://www.w3.org/2000/svg"><clipPath id="p.0"><path d="m0 0l273.01575 0l0 454.0l-273.01575 0l0 -454.0z" clip-rule="nonzero"/></clipPath><g clip-path="url(#p.0)"><path fill="#000000" fill-opacity="0.0" d="m0 0l273.01575 0l0 454.0l-273.01575 0z" fill-rule="evenodd"/><path fill="#cfe2f3" d="m79.31233 4.5013123l118.33072 0l0 394.4882l-118.33072 0z" fill-rule="evenodd"/><path stroke="#000000" stroke-width="1.0" stroke-linejoin="round" stroke-linecap="butt" d="m79.31233 4.5013123l118.33072 0l0 394.4882l-118.33072 0z" fill-rule="evenodd"/><path fill="#d9d9d9" d="m79.31233 309.51443l118.33072 0l0 31.24411l-118.33072 0z" fill-rule="evenodd"/><path stroke="#000000" stroke-width="1.0" stroke-linejoin="round" stroke-linecap="butt" d="m79.31233 309.51443l118.33072 0l0 31.24411l-118.33072 0z" fill-rule="evenodd"/><path fill="#000000" d="m126.08797 330.2165l-2.65625 0l0 -4.5q0 -0.78125 -0.1875 -1.125q-0.1875 -0.34375 -0.59375 -0.34375q-0.796875 0 -1.4375 1.203125l0 4.765625l-2.640625 0l0 -4.5q0 -0.78125 -0.1875 -1.125q-0.171875 -0.34375 -0.609375 -0.34375q-0.765625 0 -1.40625 1.203125l0 4.765625l-2.65625 0l0 -7.9375l2.65625 0l0 1.484375l0.03125 0q0.109375 -0.359375 0.25 -0.546875q0.15625 -0.203125 0.5625 -0.53125q0.421875 -0.328125 0.828125 -0.46875q0.40625 -0.140625 0.921875 -0.140625q0.921875 0 1.453125 0.40625q0.53125 0.40625 0.734375 1.28125l0.109375 0q0.265625 -0.484375 0.453125 -0.71875q0.203125 -0.234375 0.5 -0.46875q0.34375 -0.25 0.75 -0.359375q0.40625 -0.125 0.9375 -0.125q1.125 0 1.65625 0.59375q0.53125 0.59375 0.53125 1.859375l0 5.671875zm8.023376 1.578125l-6.453125 0l0 -1.578125l6.453125 0l0 1.578125zm4.5 -1.578125l-2.828125 0l0 -11.296875l2.828125 0l0 11.296875zm9.741684 0q-0.78125 0.171875 -1.40625 0.171875q-0.5 0 -0.890625 -0.09375q-0.375 -0.078125 -0.609375 -0.21875q-0.234375 -0.171875 -0.484375 -0.5625l-0.171875 0q-0.46875 0.484375 -0.921875 0.6875q-0.4375 0.1875 -1.046875 0.1875q-0.75 0 -1.328125 -0.296875q-0.578125 -0.3125 -0.90625 -0.859375q-0.328125 -0.546875 -0.328125 -1.234375q0 -1.21875 0.875 -1.953125q0.5625 -0.453125 1.28125 -0.625q0.71875 -0.1875 1.984375 -0.1875l0.5625 0l0 -0.5q0 -1.09375 -1.40625 -1.09375q-0.625 0 -1.4375 0.21875q-0.578125 0.171875 -1.15625 0.5l0 -1.765625q0.125 -0.046875 0.21875 -0.078125q0.109375 -0.03125 0.1875 -0.046875q1.1875 -0.375 2.578125 -0.375q3.671875 0 3.671875 2.484375l0 3.4375q0 0.65625 0.4375 0.65625q0.09375 0 0.296875 -0.03125l0 1.578125zm-3.390625 -2.21875l0 -1.265625l-0.546875 0q-1.5 0 -1.5 1.046875q0 0.390625 0.234375 0.65625q0.234375 0.25 0.609375 0.25q0.640625 0 1.203125 -0.6875zm12.256531 -0.25q0 0.59375 -0.265625 1.09375q-0.265625 0.484375 -0.765625 0.828125q-0.484375 0.34375 -1.1875 0.53125q-0.703125 0.1875 -1.5625 0.1875q-0.78125 0 -1.46875 -0.078125q-0.96875 -0.09375 -1.890625 -0.328125l0 -1.8125q0.171875 0.0625 0.28125 0.109375q0.109375 0.03125 0.265625 0.09375q1.390625 0.4375 2.390625 0.4375q1.234375 0 1.234375 -0.640625q0 -0.171875 -0.078125 -0.28125q-0.21875 -0.234375 -0.953125 -0.515625l-0.578125 -0.21875q-1.6875 -0.625 -2.21875 -1.375q-0.15625 -0.21875 -0.25 -0.546875q-0.078125 -0.34375 -0.078125 -0.625q0 -1.21875 0.984375 -1.859375q0.984375 -0.65625 2.8125 -0.65625q1.28125 0 2.671875 0.3125l0 1.796875q-0.203125 -0.0625 -0.453125 -0.171875q-0.4375 -0.140625 -0.984375 -0.234375q-0.53125 -0.109375 -0.90625 -0.109375q-1.296875 0 -1.296875 0.640625q0 0.234375 0.203125 0.390625q0.21875 0.15625 0.71875 0.34375l0.5625 0.1875q1.59375 0.53125 2.203125 1.078125q0.609375 0.53125 0.609375 1.421875zm6.742218 2.390625q-0.515625 0.15625 -0.8125 0.203125q-0.296875 0.046875 -0.765625 0.046875q-1.234375 0 -1.96875 -0.453125q-0.53125 -0.34375 -0.734375 -0.84375q-0.203125 -0.5 -0.203125 -1.53125l0 -3.703125l-0.796875 0l0 -1.578125l0.796875 0l0 -1.25l2.828125 -0.359375l0 1.609375l1.5 0l0 1.578125l-1.5 0l0 3.40625q0 0.5 0.046875 0.71875q0.046875 0.203125 0.21875 0.390625q0.265625 0.265625 0.78125 0.265625q0.25 0 0.609375 -0.125l0 1.625z" fill-rule="nonzero"/><path fill="#d9d9d9" d="m79.31233 278.4147l118.33072 0l0 31.24408l-118.33072 0z" fill-rule="evenodd"/><path stroke="#000000" stroke-width="1.0" stroke-linejoin="round" stroke-linecap="butt" d="m79.31233 278.4147l118.33072 0l0 31.24408l-118.33072 0z" fill-rule="evenodd"/><path fill="#000000" d="m105.49893 300.2574l0 0.984375q-1.171875 -0.796875 -1.890625 -1.90625q-0.71875 -1.09375 -1.09375 -2.34375q-0.375 -1.265625 -0.375 -2.46875q0 -1.203125 0.375 -2.453125q0.375 -1.25 1.09375 -2.34375q0.71875 -1.109375 1.890625 -1.90625l0 0.96875q-0.8125 0.875 -1.203125 1.703125q-0.375 0.828125 -0.5625 1.859375q-0.171875 1.03125 -0.171875 2.171875q0 1.140625 0.171875 2.1875q0.1875 1.03125 0.5625 1.859375q0.390625 0.8125 1.203125 1.6875zm8.997223 -1.140625l0 -9.53125l-1.671875 0l0 -0.890625l3.09375 -0.265625l0 10.6875l-1.421875 0zm6.876877 0l0 -1.765625l1.765625 0l0 1.765625l-1.765625 0zm7.840454 0.265625q-1.1875 0 -2.046875 -0.765625q-0.84375 -0.765625 -1.25 -2.0625q-0.40625 -1.296875 -0.40625 -2.734375q0 -1.4375 0.390625 -2.734375q0.40625 -1.296875 1.265625 -2.0625q0.859375 -0.765625 2.046875 -0.765625q1.1875 0 2.03125 0.765625q0.859375 0.765625 1.265625 2.0625q0.40625 1.296875 0.40625 2.734375q0 1.4375 -0.40625 2.734375q-0.390625 1.28125 -1.25 2.0625q-0.859375 0.765625 -2.046875 0.765625zm0 -1.0625q1.15625 0 1.671875 -1.234375q0.53125 -1.234375 0.53125 -3.265625q0 -2.03125 -0.53125 -3.265625q-0.515625 -1.234375 -1.671875 -1.234375q-1.15625 0 -1.6875 1.234375q-0.515625 1.234375 -0.515625 3.265625q0 2.03125 0.515625 3.265625q0.53125 1.234375 1.6875 1.234375zm6.064377 3.09375l0 -0.53125q0.21875 -0.0625 0.359375 -0.25q0.140625 -0.171875 0.234375 -0.453125q0.09375 -0.265625 0.09375 -0.921875l0 -0.140625l-0.6875 0l0 -1.765625l1.765625 0l0 1.53125q0 1.21875 -0.421875 1.828125q-0.421875 0.609375 -1.34375 0.703125zm9.055908 -2.296875l0 -1.234375q0.609375 -1.4375 2.484375 -3.140625l0.8125 -0.71875q0.875 -0.796875 1.21875 -1.4375q0.34375 -0.65625 0.34375 -1.359375q0 -0.890625 -0.546875 -1.390625q-0.546875 -0.515625 -1.453125 -0.515625q-0.40625 0 -0.765625 0.078125q-0.359375 0.078125 -0.78125 0.25q-0.40625 0.15625 -1.046875 0.515625l0 -1.234375q1.40625 -0.671875 2.796875 -0.671875q1.53125 0 2.40625 0.84375q0.890625 0.828125 0.890625 2.09375q0 0.8125 -0.375 1.53125q-0.359375 0.71875 -1.78125 1.9375l-0.546875 0.46875q-0.59375 0.5 -1.203125 1.21875q-0.59375 0.71875 -0.75 1.53125l4.59375 0l0 1.234375l-6.296875 0zm9.486252 0l0 -1.765625l1.765625 0l0 1.765625l-1.765625 0zm7.840454 0.265625q-1.1875 0 -2.046875 -0.765625q-0.84375 -0.765625 -1.25 -2.0625q-0.40625 -1.296875 -0.40625 -2.734375q0 -1.4375 0.390625 -2.734375q0.40625 -1.296875 1.265625 -2.0625q0.859375 -0.765625 2.046875 -0.765625q1.1875 0 2.03125 0.765625q0.859375 0.765625 1.265625 2.0625q0.40625 1.296875 0.40625 2.734375q0 1.4375 -0.40625 2.734375q-0.390625 1.28125 -1.25 2.0625q-0.859375 0.765625 -2.046875 0.765625zm0 -1.0625q1.15625 0 1.671875 -1.234375q0.53125 -1.234375 0.53125 -3.265625q0 -2.03125 -0.53125 -3.265625q-0.515625 -1.234375 -1.671875 -1.234375q-1.15625 0 -1.6875 1.234375q-0.515625 1.234375 -0.515625 3.265625q0 2.03125 0.515625 3.265625q0.53125 1.234375 1.6875 1.234375zm9.795456 -9.53125l0 -0.96875q1.171875 0.796875 1.890625 1.90625q0.71875 1.09375 1.09375 2.34375q0.375 1.25 0.375 2.453125q0 1.203125 -0.375 2.46875q-0.375 1.25 -1.09375 2.34375q-0.71875 1.109375 -1.890625 1.90625l0 -0.984375q0.8125 -0.875 1.1875 -1.6875q0.390625 -0.828125 0.5625 -1.859375q0.1875 -1.046875 0.1875 -2.1875q0 -1.125 -0.1875 -2.15625q-0.171875 -1.046875 -0.5625 -1.875q-0.375 -0.828125 -1.1875 -1.703125z" fill-rule="nonzero"/><path fill="#d9d9d9" d="m79.31233 340.6273l118.33072 0l0 31.24411l-118.33072 0z" fill-rule="evenodd"/><path stroke="#000000" stroke-width="1.0" stroke-linejoin="round" stroke-linecap="butt" d="m79.31233 340.6273l118.33072 0l0 31.24411l-118.33072 0z" fill-rule="evenodd"/><path fill="#000000" d="m123.61186 361.32935l-2.65625 0l0 -4.5q0 -0.78125 -0.1875 -1.125q-0.1875 -0.34375 -0.59375 -0.34375q-0.796875 0 -1.4375 1.203125l0 4.765625l-2.640625 0l0 -4.5q0 -0.78125 -0.1875 -1.125q-0.171875 -0.34375 -0.609375 -0.34375q-0.765625 0 -1.40625 1.203125l0 4.765625l-2.65625 0l0 -7.9375l2.65625 0l0 1.484375l0.03125 0q0.109375 -0.359375 0.25 -0.546875q0.15625 -0.203125 0.5625 -0.53125q0.421875 -0.328125 0.828125 -0.46875q0.40625 -0.140625 0.921875 -0.140625q0.921875 0 1.453125 0.40625q0.53125 0.40625 0.734375 1.28125l0.109375 0q0.265625 -0.484375 0.453125 -0.71875q0.203125 -0.234375 0.5 -0.46875q0.34375 -0.25 0.75 -0.359375q0.40625 -0.125 0.9375 -0.125q1.125 0 1.65625 0.59375q0.53125 0.59375 0.53125 1.859375l0 5.671875zm8.023376 1.578125l-6.453125 0l0 -1.578125l6.453125 0l0 1.578125zm7.375 -11.0q-0.28125 -0.140625 -0.3125 -0.15625q-0.25 -0.125 -0.65625 -0.21875q-0.40625 -0.09375 -0.734375 -0.09375q-0.53125 0 -0.765625 0.421875q-0.234375 0.40625 -0.234375 1.3125l0 0.21875l2.046875 0l0 1.578125l-2.046875 0l0 6.359375l-2.828125 0l0 -6.359375l-1.0625 0l0 -1.578125l1.0625 0l0 -0.21875q0 -1.140625 0.34375 -1.875q0.359375 -0.75 1.078125 -1.09375q0.734375 -0.359375 1.84375 -0.359375q1.171875 0 2.265625 0.3125l0 1.75zm3.8806152 0.234375l-2.828125 0l0 -2.109375l2.828125 0l0 2.109375zm0 9.1875l-2.828125 0l0 -7.9375l2.828125 0l0 7.9375zm8.210434 -5.625q-0.34375 -0.125 -0.546875 -0.15625q-0.1875 -0.046875 -0.546875 -0.046875q-0.609375 0 -1.046875 0.234375q-0.4375 0.234375 -0.78125 0.734375l0 4.859375l-2.828125 0l0 -7.9375l2.828125 0l0 1.484375l0.03125 0q0.109375 -0.359375 0.4375 -0.71875q0.34375 -0.375 0.828125 -0.640625q0.546875 -0.3125 1.265625 -0.3125q0.21875 0 0.359375 0.046875l0 2.453125zm8.59375 3.15625q0 0.59375 -0.265625 1.09375q-0.265625 0.484375 -0.765625 0.828125q-0.484375 0.34375 -1.1875 0.53125q-0.703125 0.1875 -1.5625 0.1875q-0.78125 0 -1.46875 -0.078125q-0.96875 -0.09375 -1.890625 -0.328125l0 -1.8125q0.171875 0.0625 0.28125 0.109375q0.109375 0.03125 0.265625 0.09375q1.390625 0.4375 2.390625 0.4375q1.234375 0 1.234375 -0.640625q0 -0.171875 -0.078125 -0.28125q-0.21875 -0.234375 -0.953125 -0.515625l-0.578125 -0.21875q-1.6875 -0.625 -2.21875 -1.375q-0.15625 -0.21875 -0.25 -0.546875q-0.078125 -0.34375 -0.078125 -0.625q0 -1.21875 0.984375 -1.859375q0.984375 -0.65625 2.8125 -0.65625q1.28125 0 2.671875 0.3125l0 1.796875q-0.203125 -0.0625 -0.453125 -0.171875q-0.4375 -0.140625 -0.984375 -0.234375q-0.53125 -0.109375 -0.90625 -0.109375q-1.296875 0 -1.296875 0.640625q0 0.234375 0.203125 0.390625q0.21875 0.15625 0.71875 0.34375l0.5625 0.1875q1.59375 0.53125 2.203125 1.078125q0.609375 0.53125 0.609375 1.421875zm6.742218 2.390625q-0.515625 0.15625 -0.8125 0.203125q-0.296875 0.046875 -0.765625 0.046875q-1.234375 0 -1.96875 -0.453125q-0.53125 -0.34375 -0.734375 -0.84375q-0.203125 -0.5 -0.203125 -1.53125l0 -3.703125l-0.796875 0l0 -1.578125l0.796875 0l0 -1.25l2.828125 -0.359375l0 1.609375l1.5 0l0 1.578125l-1.5 0l0 3.40625q0 0.5 0.046875 0.71875q0.046875 0.203125 0.21875 0.390625q0.265625 0.265625 0.78125 0.265625q0.25 0 0.609375 -0.125l0 1.625z" fill-rule="nonzero"/><path fill="#d9d9d9" d="m79.31233 216.2021l118.33072 0l0 31.244095l-118.33072 0z" fill-rule="evenodd"/><path stroke="#000000" stroke-width="1.0" stroke-linejoin="round" stroke-linecap="butt" d="m79.31233 216.2021l118.33072 0l0 31.244095l-118.33072 0z" fill-rule="evenodd"/><path fill="#000000" d="m105.49893 238.04477l0 0.984375q-1.171875 -0.796875 -1.890625 -1.90625q-0.71875 -1.09375 -1.09375 -2.34375q-0.375 -1.265625 -0.375 -2.46875q0 -1.203125 0.375 -2.453125q0.375 -1.25 1.09375 -2.34375q0.71875 -1.109375 1.890625 -1.90625l0 0.96875q-0.8125 0.875 -1.203125 1.703125q-0.375 0.828125 -0.5625 1.859375q-0.171875 1.03125 -0.171875 2.171875q0 1.140625 0.171875 2.1875q0.1875 1.03125 0.5625 1.859375q0.390625 0.8125 1.203125 1.6875zm6.950348 -1.09375l0 -1.265625q1.046875 0.421875 2.0 0.421875q1.15625 0 1.703125 -0.671875q0.546875 -0.671875 0.546875 -1.625q0 -1.09375 -0.796875 -1.734375q-0.796875 -0.65625 -2.5 -0.65625q-0.375 0 -0.78125 0.046875l0 -5.15625l5.375 0l0 1.234375l-4.125 0l0 2.796875q2.234375 0 3.28125 1.015625q1.046875 1.015625 1.046875 2.515625q0 1.375 -0.953125 2.34375q-0.953125 0.953125 -2.96875 0.953125q-0.8125 0 -1.828125 -0.21875zm8.923752 -0.046875l0 -1.765625l1.765625 0l0 1.765625l-1.765625 0zm7.840454 0.265625q-1.1875 0 -2.046875 -0.765625q-0.84375 -0.765625 -1.25 -2.0625q-0.40625 -1.296875 -0.40625 -2.734375q0 -1.4375 0.390625 -2.734375q0.40625 -1.296875 1.265625 -2.0625q0.859375 -0.765625 2.046875 -0.765625q1.1875 0 2.03125 0.765625q0.859375 0.765625 1.265625 2.0625q0.40625 1.296875 0.40625 2.734375q0 1.4375 -0.40625 2.734375q-0.390625 1.28125 -1.25 2.0625q-0.859375 0.765625 -2.046875 0.765625zm0 -1.0625q1.15625 0 1.671875 -1.234375q0.53125 -1.234375 0.53125 -3.265625q0 -2.03125 -0.53125 -3.265625q-0.515625 -1.234375 -1.671875 -1.234375q-1.15625 0 -1.6875 1.234375q-0.515625 1.234375 -0.515625 3.265625q0 2.03125 0.515625 3.265625q0.53125 1.234375 1.6875 1.234375zm6.064377 3.09375l0 -0.53125q0.21875 -0.0625 0.359375 -0.25q0.140625 -0.171875 0.234375 -0.453125q0.09375 -0.265625 0.09375 -0.921875l0 -0.140625l-0.6875 0l0 -1.765625l1.765625 0l0 1.53125q0 1.21875 -0.421875 1.828125q-0.421875 0.609375 -1.34375 0.703125zm10.352783 -7.78125q0.40625 -0.53125 0.78125 -0.78125q0.375 -0.265625 0.8125 -0.390625q0.453125 -0.140625 0.953125 -0.140625q0.90625 0 1.640625 0.4375q0.734375 0.421875 1.125 1.171875q0.390625 0.75 0.390625 1.671875q0 1.015625 -0.453125 1.90625q-0.453125 0.875 -1.203125 1.375q-0.75 0.5 -1.859375 0.5q-1.890625 0 -2.8125 -1.53125q-0.90625 -1.546875 -0.90625 -3.796875q0 -1.484375 0.4375 -2.84375q0.453125 -1.375 1.359375 -2.15625q0.921875 -0.796875 2.515625 -0.796875q0.5 0 0.953125 0.0625q0.453125 0.0625 1.421875 0.328125l0 1.234375q-1.5 -0.5625 -2.46875 -0.5625q-1.40625 0 -2.046875 1.203125q-0.640625 1.1875 -0.640625 3.109375zm4.28125 2.25q0 -1.265625 -0.59375 -1.90625q-0.578125 -0.640625 -1.4375 -0.640625q-0.71875 0 -1.453125 0.53125q-0.734375 0.515625 -0.734375 1.515625q0 1.015625 0.5 1.984375q0.515625 0.953125 1.734375 0.953125q0.875 0 1.421875 -0.640625q0.5625 -0.640625 0.5625 -1.796875zm3.9081268 3.234375l0 -1.765625l1.765625 0l0 1.765625l-1.765625 0zm7.840454 0.265625q-1.1875 0 -2.046875 -0.765625q-0.84375 -0.765625 -1.25 -2.0625q-0.40625 -1.296875 -0.40625 -2.734375q0 -1.4375 0.390625 -2.734375q0.40625 -1.296875 1.265625 -2.0625q0.859375 -0.765625 2.046875 -0.765625q1.1875 0 2.03125 0.765625q0.859375 0.765625 1.265625 2.0625q0.40625 1.296875 0.40625 2.734375q0 1.4375 -0.40625 2.734375q-0.390625 1.28125 -1.25 2.0625q-0.859375 0.765625 -2.046875 0.765625zm0 -1.0625q1.15625 0 1.671875 -1.234375q0.53125 -1.234375 0.53125 -3.265625q0 -2.03125 -0.53125 -3.265625q-0.515625 -1.234375 -1.671875 -1.234375q-1.15625 0 -1.6875 1.234375q-0.515625 1.234375 -0.515625 3.265625q0 2.03125 0.515625 3.265625q0.53125 1.234375 1.6875 1.234375zm9.795456 -9.53125l0 -0.96875q1.171875 0.796875 1.890625 1.90625q0.71875 1.09375 1.09375 2.34375q0.375 1.25 0.375 2.453125q0 1.203125 -0.375 2.46875q-0.375 1.25 -1.09375 2.34375q-0.71875 1.109375 -1.890625 1.90625l0 -0.984375q0.8125 -0.875 1.1875 -1.6875q0.390625 -0.828125 0.5625 -1.859375q0.1875 -1.046875 0.1875 -2.1875q0 -1.125 -0.1875 -2.15625q-0.171875 -1.046875 -0.5625 -1.875q-0.375 -0.828125 -1.1875 -1.703125z" fill-rule="nonzero"/><path fill="#d9d9d9" d="m79.31233 247.17061l118.33072 0l0 31.244095l-118.33072 0z" fill-rule="evenodd"/><path stroke="#000000" stroke-width="1.0" stroke-linejoin="round" stroke-linecap="butt" d="m79.31233 247.17061l118.33072 0l0 31.244095l-118.33072 0z" fill-rule="evenodd"/><path fill="#000000" d="m105.49893 269.01328l0 0.984375q-1.171875 -0.796875 -1.890625 -1.90625q-0.71875 -1.09375 -1.09375 -2.34375q-0.375 -1.265625 -0.375 -2.46875q0 -1.203125 0.375 -2.453125q0.375 -1.25 1.09375 -2.34375q0.71875 -1.109375 1.890625 -1.90625l0 0.96875q-0.8125 0.875 -1.203125 1.703125q-0.375 0.828125 -0.5625 1.859375q-0.171875 1.03125 -0.171875 2.171875q0 1.140625 0.171875 2.1875q0.1875 1.03125 0.5625 1.859375q0.390625 0.8125 1.203125 1.6875zm6.653473 -1.21875l0 -1.3125q1.515625 0.59375 2.375 0.59375q1.015625 0 1.65625 -0.578125q0.640625 -0.59375 0.640625 -1.53125q0 -0.921875 -0.65625 -1.578125q-0.65625 -0.65625 -2.46875 -0.65625l-0.5625 0l0 -0.953125l0.5 -0.015625q1.6875 0 2.296875 -0.609375q0.625 -0.625 0.625 -1.453125q0 -0.734375 -0.484375 -1.171875q-0.484375 -0.453125 -1.453125 -0.453125q-1.046875 0 -2.328125 0.59375l0 -1.234375q0.921875 -0.296875 1.421875 -0.359375q0.515625 -0.0625 1.0 -0.0625q1.671875 0 2.46875 0.671875q0.796875 0.671875 0.796875 1.78125q0 0.625 -0.234375 1.09375q-0.21875 0.46875 -0.6875 0.875q-0.46875 0.40625 -1.28125 0.703125q1.03125 0.234375 1.53125 0.625q0.515625 0.375 0.765625 0.953125q0.265625 0.5625 0.265625 1.21875q0 1.25 -0.859375 2.234375q-0.84375 0.96875 -2.84375 0.96875q-0.984375 0 -2.484375 -0.34375zm9.220627 0.078125l0 -1.765625l1.765625 0l0 1.765625l-1.765625 0zm7.840454 0.265625q-1.1875 0 -2.046875 -0.765625q-0.84375 -0.765625 -1.25 -2.0625q-0.40625 -1.296875 -0.40625 -2.734375q0 -1.4375 0.390625 -2.734375q0.40625 -1.296875 1.265625 -2.0625q0.859375 -0.765625 2.046875 -0.765625q1.1875 0 2.03125 0.765625q0.859375 0.765625 1.265625 2.0625q0.40625 1.296875 0.40625 2.734375q0 1.4375 -0.40625 2.734375q-0.390625 1.28125 -1.25 2.0625q-0.859375 0.765625 -2.046875 0.765625zm0 -1.0625q1.15625 0 1.671875 -1.234375q0.53125 -1.234375 0.53125 -3.265625q0 -2.03125 -0.53125 -3.265625q-0.515625 -1.234375 -1.671875 -1.234375q-1.15625 0 -1.6875 1.234375q-0.515625 1.234375 -0.515625 3.265625q0 2.03125 0.515625 3.265625q0.53125 1.234375 1.6875 1.234375zm6.064377 3.09375l0 -0.53125q0.21875 -0.0625 0.359375 -0.25q0.140625 -0.171875 0.234375 -0.453125q0.09375 -0.265625 0.09375 -0.921875l0 -0.140625l-0.6875 0l0 -1.765625l1.765625 0l0 1.53125q0 1.21875 -0.421875 1.828125q-0.421875 0.609375 -1.34375 0.703125zm13.352783 -2.296875l0 -3.0l-4.765625 0l0 -1.0625l4.765625 -6.53125l1.328125 0l0 6.4375l1.421875 0l0 1.15625l-1.421875 0l0 3.0l-1.328125 0zm-3.390625 -4.15625l3.484375 0l0 -4.703125l-3.484375 4.703125zm8.580002 4.15625l0 -1.765625l1.765625 0l0 1.765625l-1.765625 0zm7.840454 0.265625q-1.1875 0 -2.046875 -0.765625q-0.84375 -0.765625 -1.25 -2.0625q-0.40625 -1.296875 -0.40625 -2.734375q0 -1.4375 0.390625 -2.734375q0.40625 -1.296875 1.265625 -2.0625q0.859375 -0.765625 2.046875 -0.765625q1.1875 0 2.03125 0.765625q0.859375 0.765625 1.265625 2.0625q0.40625 1.296875 0.40625 2.734375q0 1.4375 -0.40625 2.734375q-0.390625 1.28125 -1.25 2.0625q-0.859375 0.765625 -2.046875 0.765625zm0 -1.0625q1.15625 0 1.671875 -1.234375q0.53125 -1.234375 0.53125 -3.265625q0 -2.03125 -0.53125 -3.265625q-0.515625 -1.234375 -1.671875 -1.234375q-1.15625 0 -1.6875 1.234375q-0.515625 1.234375 -0.515625 3.265625q0 2.03125 0.515625 3.265625q0.53125 1.234375 1.6875 1.234375zm9.795456 -9.53125l0 -0.96875q1.171875 0.796875 1.890625 1.90625q0.71875 1.09375 1.09375 2.34375q0.375 1.25 0.375 2.453125q0 1.203125 -0.375 2.46875q-0.375 1.25 -1.09375 2.34375q-0.71875 1.109375 -1.890625 1.90625l0 -0.984375q0.8125 -0.875 1.1875 -1.6875q0.390625 -0.828125 0.5625 -1.859375q0.1875 -1.046875 0.1875 -2.1875q0 -1.125 -0.1875 -2.15625q-0.171875 -1.046875 -0.5625 -1.875q-0.375 -0.828125 -1.1875 -1.703125z" fill-rule="nonzero"/><path fill="#d9d9d9" d="m79.31233 184.82677l118.33072 0l0 31.244095l-118.33072 0z" fill-rule="evenodd"/><path stroke="#000000" stroke-width="1.0" stroke-linejoin="round" stroke-linecap="butt" d="m79.31233 184.82677l118.33072 0l0 31.244095l-118.33072 0z" fill-rule="evenodd"/><path fill="#000000" d="m105.49893 206.66945l0 0.984375q-1.171875 -0.796875 -1.890625 -1.90625q-0.71875 -1.09375 -1.09375 -2.34375q-0.375 -1.265625 -0.375 -2.46875q0 -1.203125 0.375 -2.453125q0.375 -1.25 1.09375 -2.34375q0.71875 -1.109375 1.890625 -1.90625l0 0.96875q-0.8125 0.875 -1.203125 1.703125q-0.375 0.828125 -0.5625 1.859375q-0.171875 1.03125 -0.171875 2.171875q0 1.140625 0.171875 2.1875q0.1875 1.03125 0.5625 1.859375q0.390625 0.8125 1.203125 1.6875zm7.372223 -1.140625q0.25 -1.4375 0.6875 -2.375q0.453125 -0.9375 1.265625 -2.234375l2.890625 -4.65625l-5.453125 0l0 -1.328125l6.796875 0l0 1.328125q-1.375 2.015625 -2.265625 3.625q-0.890625 1.609375 -1.515625 3.03125q-0.609375 1.421875 -0.78125 2.609375l-1.625 0zm8.501877 0l0 -1.765625l1.765625 0l0 1.765625l-1.765625 0zm7.840454 0.265625q-1.1875 0 -2.046875 -0.765625q-0.84375 -0.765625 -1.25 -2.0625q-0.40625 -1.296875 -0.40625 -2.734375q0 -1.4375 0.390625 -2.734375q0.40625 -1.296875 1.265625 -2.0625q0.859375 -0.765625 2.046875 -0.765625q1.1875 0 2.03125 0.765625q0.859375 0.765625 1.265625 2.0625q0.40625 1.296875 0.40625 2.734375q0 1.4375 -0.40625 2.734375q-0.390625 1.28125 -1.25 2.0625q-0.859375 0.765625 -2.046875 0.765625zm0 -1.0625q1.15625 0 1.671875 -1.234375q0.53125 -1.234375 0.53125 -3.265625q0 -2.03125 -0.53125 -3.265625q-0.515625 -1.234375 -1.671875 -1.234375q-1.15625 0 -1.6875 1.234375q-0.515625 1.234375 -0.515625 3.265625q0 2.03125 0.515625 3.265625q0.53125 1.234375 1.6875 1.234375zm6.064377 3.09375l0 -0.53125q0.21875 -0.0625 0.359375 -0.25q0.140625 -0.171875 0.234375 -0.453125q0.09375 -0.265625 0.09375 -0.921875l0 -0.140625l-0.6875 0l0 -1.765625l1.765625 0l0 1.53125q0 1.21875 -0.421875 1.828125q-0.421875 0.609375 -1.34375 0.703125zm11.212158 -8.0625q-1.015625 -0.703125 -1.296875 -1.234375q-0.265625 -0.546875 -0.265625 -1.15625q0 -1.171875 0.859375 -1.9375q0.875 -0.765625 2.328125 -0.765625q1.3125 0 2.109375 0.640625q0.8125 0.640625 0.8125 1.640625q0 0.703125 -0.421875 1.390625q-0.40625 0.6875 -1.546875 1.421875q1.328125 0.65625 1.859375 1.375q0.53125 0.71875 0.53125 1.65625q0 1.21875 -0.953125 2.109375q-0.953125 0.890625 -2.625 0.890625q-1.703125 0 -2.609375 -0.84375q-0.890625 -0.859375 -0.890625 -2.03125q0 -0.828125 0.5 -1.65625q0.5 -0.84375 1.609375 -1.5zm1.796875 -0.453125q0.703125 -0.453125 1.078125 -1.015625q0.390625 -0.5625 0.390625 -1.140625q0 -0.625 -0.484375 -1.015625q-0.484375 -0.40625 -1.296875 -0.40625q-0.84375 0 -1.3125 0.421875q-0.453125 0.40625 -0.453125 0.953125q0 0.515625 0.375 0.984375q0.375 0.46875 1.703125 1.21875zm-1.03125 1.015625q-1.015625 0.78125 -1.25 1.296875q-0.21875 0.5 -0.21875 1.078125q0 0.921875 0.609375 1.484375q0.609375 0.546875 1.53125 0.546875q0.859375 0 1.46875 -0.453125q0.625 -0.453125 0.625 -1.265625q0 -0.578125 -0.328125 -1.0q-0.328125 -0.421875 -1.4375 -1.078125l-1.0 -0.609375zm6.564377 5.203125l0 -1.765625l1.765625 0l0 1.765625l-1.765625 0zm7.840454 0.265625q-1.1875 0 -2.046875 -0.765625q-0.84375 -0.765625 -1.25 -2.0625q-0.40625 -1.296875 -0.40625 -2.734375q0 -1.4375 0.390625 -2.734375q0.40625 -1.296875 1.265625 -2.0625q0.859375 -0.765625 2.046875 -0.765625q1.1875 0 2.03125 0.765625q0.859375 0.765625 1.265625 2.0625q0.40625 1.296875 0.40625 2.734375q0 1.4375 -0.40625 2.734375q-0.390625 1.28125 -1.25 2.0625q-0.859375 0.765625 -2.046875 0.765625zm0 -1.0625q1.15625 0 1.671875 -1.234375q0.53125 -1.234375 0.53125 -3.265625q0 -2.03125 -0.53125 -3.265625q-0.515625 -1.234375 -1.671875 -1.234375q-1.15625 0 -1.6875 1.234375q-0.515625 1.234375 -0.515625 3.265625q0 2.03125 0.515625 3.265625q0.53125 1.234375 1.6875 1.234375zm9.795456 -9.53125l0 -0.96875q1.171875 0.796875 1.890625 1.90625q0.71875 1.09375 1.09375 2.34375q0.375 1.25 0.375 2.453125q0 1.203125 -0.375 2.46875q-0.375 1.25 -1.09375 2.34375q-0.71875 1.109375 -1.890625 1.90625l0 -0.984375q0.8125 -0.875 1.1875 -1.6875q0.390625 -0.828125 0.5625 -1.859375q0.1875 -1.046875 0.1875 -2.1875q0 -1.125 -0.1875 -2.15625q-0.171875 -1.046875 -0.5625 -1.875q-0.375 -0.828125 -1.1875 -1.703125z" fill-rule="nonzero"/><path fill="#d9d9d9" d="m79.31233 60.139107l118.33072 0l0 31.244095l-118.33072 0z" fill-rule="evenodd"/><path stroke="#000000" stroke-width="1.0" stroke-linejoin="round" stroke-linecap="butt" d="m79.31233 60.139107l118.33072 0l0 31.244095l-118.33072 0z" fill-rule="evenodd"/><path fill="#000000" d="m96.23143 81.98178l0 0.984375q-1.171875 -0.796875 -1.890625 -1.90625q-0.71875 -1.09375 -1.09375 -2.34375q-0.375 -1.265625 -0.375 -2.46875q0 -1.203125 0.375 -2.453125q0.375 -1.25 1.09375 -2.34375q0.71875 -1.109375 1.890625 -1.90625l0 0.96875q-0.8125 0.875 -1.203125 1.703125q-0.375 0.828125 -0.5625 1.859375q-0.171875 1.03125 -0.171875 2.171875q0 1.140625 0.171875 2.1875q0.1875 1.03125 0.5625 1.859375q0.390625 0.8125 1.203125 1.6875zm8.997223 -1.140625l0 -9.53125l-1.671875 0l0 -0.890625l3.09375 -0.265625l0 10.6875l-1.421875 0zm7.220627 0.046875l0 -1.265625q1.046875 0.421875 2.0 0.421875q1.15625 0 1.703125 -0.671875q0.546875 -0.671875 0.546875 -1.625q0 -1.09375 -0.796875 -1.734375q-0.796875 -0.65625 -2.5 -0.65625q-0.375 0 -0.78125 0.046875l0 -5.15625l5.375 0l0 1.234375l-4.125 0l0 2.796875q2.234375 0 3.28125 1.015625q1.046875 1.015625 1.046875 2.515625q0 1.375 -0.953125 2.34375q-0.953125 0.953125 -2.96875 0.953125q-0.8125 0 -1.828125 -0.21875zm8.923752 -0.046875l0 -1.765625l1.765625 0l0 1.765625l-1.765625 0zm7.840454 0.265625q-1.1875 0 -2.046875 -0.765625q-0.84375 -0.765625 -1.25 -2.0625q-0.40625 -1.296875 -0.40625 -2.734375q0 -1.4375 0.390625 -2.734375q0.40625 -1.296875 1.265625 -2.0625q0.859375 -0.765625 2.046875 -0.765625q1.1875 0 2.03125 0.765625q0.859375 0.765625 1.265625 2.0625q0.40625 1.296875 0.40625 2.734375q0 1.4375 -0.40625 2.734375q-0.390625 1.28125 -1.25 2.0625q-0.859375 0.765625 -2.046875 0.765625zm0 -1.0625q1.15625 0 1.671875 -1.234375q0.53125 -1.234375 0.53125 -3.265625q0 -2.03125 -0.53125 -3.265625q-0.515625 -1.234375 -1.671875 -1.234375q-1.15625 0 -1.6875 1.234375q-0.515625 1.234375 -0.515625 3.265625q0 2.03125 0.515625 3.265625q0.53125 1.234375 1.6875 1.234375zm6.064377 3.09375l0 -0.53125q0.21875 -0.0625 0.359375 -0.25q0.140625 -0.171875 0.234375 -0.453125q0.09375 -0.265625 0.09375 -0.921875l0 -0.140625l-0.6875 0l0 -1.765625l1.765625 0l0 1.53125q0 1.21875 -0.421875 1.828125q-0.421875 0.609375 -1.34375 0.703125zm11.665283 -2.296875l0 -9.53125l-1.671875 0l0 -0.890625l3.09375 -0.265625l0 10.6875l-1.421875 0zm7.955002 -5.484375q0.40625 -0.53125 0.78125 -0.78125q0.375 -0.265625 0.8125 -0.390625q0.453125 -0.140625 0.953125 -0.140625q0.90625 0 1.640625 0.4375q0.734375 0.421875 1.125 1.171875q0.390625 0.75 0.390625 1.671875q0 1.015625 -0.453125 1.90625q-0.453125 0.875 -1.203125 1.375q-0.75 0.5 -1.859375 0.5q-1.890625 0 -2.8125 -1.53125q-0.90625 -1.546875 -0.90625 -3.796875q0 -1.484375 0.4375 -2.84375q0.453125 -1.375 1.359375 -2.15625q0.921875 -0.796875 2.515625 -0.796875q0.5 0 0.953125 0.0625q0.453125 0.0625 1.421875 0.328125l0 1.234375q-1.5 -0.5625 -2.46875 -0.5625q-1.40625 0 -2.046875 1.203125q-0.640625 1.1875 -0.640625 3.109375zm4.28125 2.25q0 -1.265625 -0.59375 -1.90625q-0.578125 -0.640625 -1.4375 -0.640625q-0.71875 0 -1.453125 0.53125q-0.734375 0.515625 -0.734375 1.515625q0 1.015625 0.5 1.984375q0.515625 0.953125 1.734375 0.953125q0.875 0 1.421875 -0.640625q0.5625 -0.640625 0.5625 -1.796875zm3.9081268 3.234375l0 -1.765625l1.765625 0l0 1.765625l-1.765625 0zm7.840454 0.265625q-1.1875 0 -2.046875 -0.765625q-0.84375 -0.765625 -1.25 -2.0625q-0.40625 -1.296875 -0.40625 -2.734375q0 -1.4375 0.390625 -2.734375q0.40625 -1.296875 1.265625 -2.0625q0.859375 -0.765625 2.046875 -0.765625q1.1875 0 2.03125 0.765625q0.859375 0.765625 1.265625 2.0625q0.40625 1.296875 0.40625 2.734375q0 1.4375 -0.40625 2.734375q-0.390625 1.28125 -1.25 2.0625q-0.859375 0.765625 -2.046875 0.765625zm0 -1.0625q1.15625 0 1.671875 -1.234375q0.53125 -1.234375 0.53125 -3.265625q0 -2.03125 -0.53125 -3.265625q-0.515625 -1.234375 -1.671875 -1.234375q-1.15625 0 -1.6875 1.234375q-0.515625 1.234375 -0.515625 3.265625q0 2.03125 0.515625 3.265625q0.53125 1.234375 1.6875 1.234375zm9.795456 -9.53125l0 -0.96875q1.171875 0.796875 1.890625 1.90625q0.71875 1.09375 1.09375 2.34375q0.375 1.25 0.375 2.453125q0 1.203125 -0.375 2.46875q-0.375 1.25 -1.09375 2.34375q-0.71875 1.109375 -1.890625 1.90625l0 -0.984375q0.8125 -0.875 1.1875 -1.6875q0.390625 -0.828125 0.5625 -1.859375q0.1875 -1.046875 0.1875 -2.1875q0 -1.125 -0.1875 -2.15625q-0.171875 -1.046875 -0.5625 -1.875q-0.375 -0.828125 -1.1875 -1.703125z" fill-rule="nonzero"/><path fill="#d9d9d9" d="m79.31233 90.97638l118.33072 0l0 31.244095l-118.33072 0z" fill-rule="evenodd"/><path stroke="#000000" stroke-width="1.0" stroke-linejoin="round" stroke-linecap="butt" d="m79.31233 90.97638l118.33072 0l0 31.244095l-118.33072 0z" fill-rule="evenodd"/><path fill="#000000" d="m96.23143 112.81905l0 0.984375q-1.171875 -0.796875 -1.890625 -1.90625q-0.71875 -1.09375 -1.09375 -2.34375q-0.375 -1.265625 -0.375 -2.46875q0 -1.203125 0.375 -2.453125q0.375 -1.25 1.09375 -2.34375q0.71875 -1.109375 1.890625 -1.90625l0 0.96875q-0.8125 0.875 -1.203125 1.703125q-0.375 0.828125 -0.5625 1.859375q-0.171875 1.03125 -0.171875 2.171875q0 1.140625 0.171875 2.1875q0.1875 1.03125 0.5625 1.859375q0.390625 0.8125 1.203125 1.6875zm8.997223 -1.140625l0 -9.53125l-1.671875 0l0 -0.890625l3.09375 -0.265625l0 10.6875l-1.421875 0zm6.923752 -0.078125l0 -1.3125q1.515625 0.59375 2.375 0.59375q1.015625 0 1.65625 -0.578125q0.640625 -0.59375 0.640625 -1.53125q0 -0.921875 -0.65625 -1.578125q-0.65625 -0.65625 -2.46875 -0.65625l-0.5625 0l0 -0.953125l0.5 -0.015625q1.6875 0 2.296875 -0.609375q0.625 -0.625 0.625 -1.453125q0 -0.734375 -0.484375 -1.171875q-0.484375 -0.453125 -1.453125 -0.453125q-1.046875 0 -2.328125 0.59375l0 -1.234375q0.921875 -0.296875 1.421875 -0.359375q0.515625 -0.0625 1.0 -0.0625q1.671875 0 2.46875 0.671875q0.796875 0.671875 0.796875 1.78125q0 0.625 -0.234375 1.09375q-0.21875 0.46875 -0.6875 0.875q-0.46875 0.40625 -1.28125 0.703125q1.03125 0.234375 1.53125 0.625q0.515625 0.375 0.765625 0.953125q0.265625 0.5625 0.265625 1.21875q0 1.25 -0.859375 2.234375q-0.84375 0.96875 -2.84375 0.96875q-0.984375 0 -2.484375 -0.34375zm9.220627 0.078125l0 -1.765625l1.765625 0l0 1.765625l-1.765625 0zm7.840454 0.265625q-1.1875 0 -2.046875 -0.765625q-0.84375 -0.765625 -1.25 -2.0625q-0.40625 -1.296875 -0.40625 -2.734375q0 -1.4375 0.390625 -2.734375q0.40625 -1.296875 1.265625 -2.0625q0.859375 -0.765625 2.046875 -0.765625q1.1875 0 2.03125 0.765625q0.859375 0.765625 1.265625 2.0625q0.40625 1.296875 0.40625 2.734375q0 1.4375 -0.40625 2.734375q-0.390625 1.28125 -1.25 2.0625q-0.859375 0.765625 -2.046875 0.765625zm0 -1.0625q1.15625 0 1.671875 -1.234375q0.53125 -1.234375 0.53125 -3.265625q0 -2.03125 -0.53125 -3.265625q-0.515625 -1.234375 -1.671875 -1.234375q-1.15625 0 -1.6875 1.234375q-0.515625 1.234375 -0.515625 3.265625q0 2.03125 0.515625 3.265625q0.53125 1.234375 1.6875 1.234375zm6.064377 3.09375l0 -0.53125q0.21875 -0.0625 0.359375 -0.25q0.140625 -0.171875 0.234375 -0.453125q0.09375 -0.265625 0.09375 -0.921875l0 -0.140625l-0.6875 0l0 -1.765625l1.765625 0l0 1.53125q0 1.21875 -0.421875 1.828125q-0.421875 0.609375 -1.34375 0.703125zm11.665283 -2.296875l0 -9.53125l-1.671875 0l0 -0.890625l3.09375 -0.265625l0 10.6875l-1.421875 0zm10.955002 0l0 -3.0l-4.765625 0l0 -1.0625l4.765625 -6.53125l1.328125 0l0 6.4375l1.421875 0l0 1.15625l-1.421875 0l0 3.0l-1.328125 0zm-3.390625 -4.15625l3.484375 0l0 -4.703125l-3.484375 4.703125zm8.580002 4.15625l0 -1.765625l1.765625 0l0 1.765625l-1.765625 0zm7.840454 0.265625q-1.1875 0 -2.046875 -0.765625q-0.84375 -0.765625 -1.25 -2.0625q-0.40625 -1.296875 -0.40625 -2.734375q0 -1.4375 0.390625 -2.734375q0.40625 -1.296875 1.265625 -2.0625q0.859375 -0.765625 2.046875 -0.765625q1.1875 0 2.03125 0.765625q0.859375 0.765625 1.265625 2.0625q0.40625 1.296875 0.40625 2.734375q0 1.4375 -0.40625 2.734375q-0.390625 1.28125 -1.25 2.0625q-0.859375 0.765625 -2.046875 0.765625zm0 -1.0625q1.15625 0 1.671875 -1.234375q0.53125 -1.234375 0.53125 -3.265625q0 -2.03125 -0.53125 -3.265625q-0.515625 -1.234375 -1.671875 -1.234375q-1.15625 0 -1.6875 1.234375q-0.515625 1.234375 -0.515625 3.265625q0 2.03125 0.515625 3.265625q0.53125 1.234375 1.6875 1.234375zm9.795456 -9.53125l0 -0.96875q1.171875 0.796875 1.890625 1.90625q0.71875 1.09375 1.09375 2.34375q0.375 1.25 0.375 2.453125q0 1.203125 -0.375 2.46875q-0.375 1.25 -1.09375 2.34375q-0.71875 1.109375 -1.890625 1.90625l0 -0.984375q0.8125 -0.875 1.1875 -1.6875q0.390625 -0.828125 0.5625 -1.859375q0.1875 -1.046875 0.1875 -2.1875q0 -1.125 -0.1875 -2.15625q-0.171875 -1.046875 -0.5625 -1.875q-0.375 -0.828125 -1.1875 -1.703125z" fill-rule="nonzero"/><path fill="#d9d9d9" d="m79.31233 153.9895l118.33072 0l0 31.244095l-118.33072 0z" fill-rule="evenodd"/><path stroke="#000000" stroke-width="1.0" stroke-linejoin="round" stroke-linecap="butt" d="m79.31233 153.9895l118.33072 0l0 31.244095l-118.33072 0z" fill-rule="evenodd"/><path fill="#000000" d="m100.86518 175.83217l0 0.984375q-1.171875 -0.796875 -1.890625 -1.90625q-0.71875 -1.09375 -1.09375 -2.34375q-0.375 -1.265625 -0.375 -2.46875q0 -1.203125 0.375 -2.453125q0.375 -1.25 1.09375 -2.34375q0.71875 -1.109375 1.890625 -1.90625l0 0.96875q-0.8125 0.875 -1.203125 1.703125q-0.375 0.828125 -0.5625 1.859375q-0.171875 1.03125 -0.171875 2.171875q0 1.140625 0.171875 2.1875q0.1875 1.03125 0.5625 1.859375q0.390625 0.8125 1.203125 1.6875zm6.840973 -1.203125l0 -1.203125q1.34375 0.46875 2.28125 0.46875q0.875 0 1.484375 -0.453125q0.625 -0.46875 0.96875 -1.5q0.34375 -1.046875 0.34375 -2.28125q-0.46875 0.578125 -0.8125 0.828125q-0.34375 0.234375 -0.765625 0.375q-0.40625 0.125 -0.859375 0.125q-0.875 0 -1.625 -0.46875q-0.75 -0.46875 -1.171875 -1.21875q-0.40625 -0.765625 -0.40625 -1.703125q0 -0.984375 0.453125 -1.890625q0.46875 -0.90625 1.21875 -1.390625q0.75 -0.484375 1.8125 -0.484375q1.90625 0 2.8125 1.53125q0.90625 1.515625 0.90625 3.640625q0 1.625 -0.546875 3.0625q-0.53125 1.4375 -1.5 2.171875q-0.96875 0.71875 -2.4375 0.71875q-0.84375 0 -2.15625 -0.328125zm0.859375 -7.265625q0 1.1875 0.546875 1.90625q0.546875 0.703125 1.5 0.703125q0.78125 0 1.46875 -0.5625q0.6875 -0.578125 0.6875 -1.515625q0 -0.8125 -0.3125 -1.578125q-0.296875 -0.78125 -0.78125 -1.09375q-0.46875 -0.328125 -1.125 -0.328125q-0.9375 0 -1.46875 0.671875q-0.515625 0.65625 -0.515625 1.796875zm8.173752 7.328125l0 -1.765625l1.765625 0l0 1.765625l-1.765625 0zm7.840454 0.265625q-1.1875 0 -2.046875 -0.765625q-0.84375 -0.765625 -1.25 -2.0625q-0.40625 -1.296875 -0.40625 -2.734375q0 -1.4375 0.390625 -2.734375q0.40625 -1.296875 1.265625 -2.0625q0.859375 -0.765625 2.046875 -0.765625q1.1875 0 2.03125 0.765625q0.859375 0.765625 1.265625 2.0625q0.40624237 1.296875 0.40624237 2.734375q0 1.4375 -0.40624237 2.734375q-0.390625 1.28125 -1.25 2.0625q-0.859375 0.765625 -2.046875 0.765625zm0 -1.0625q1.15625 0 1.671875 -1.234375q0.53125 -1.234375 0.53125 -3.265625q0 -2.03125 -0.53125 -3.265625q-0.515625 -1.234375 -1.671875 -1.234375q-1.15625 0 -1.6875 1.234375q-0.515625 1.234375 -0.515625 3.265625q0 2.03125 0.515625 3.265625q0.53125 1.234375 1.6875 1.234375zm6.064369 3.09375l0 -0.53125q0.21875 -0.0625 0.359375 -0.25q0.140625 -0.171875 0.234375 -0.453125q0.09375 -0.265625 0.09375 -0.921875l0 -0.140625l-0.6875 0l0 -1.765625l1.765625 0l0 1.53125q0 1.21875 -0.421875 1.828125q-0.421875 0.609375 -1.34375 0.703125zm11.665283 -2.296875l0 -9.53125l-1.671875 0l0 -0.890625l3.09375 -0.265625l0 10.6875l-1.421875 0zm10.080002 0.265625q-1.1875 0 -2.046875 -0.765625q-0.84375 -0.765625 -1.25 -2.0625q-0.40625 -1.296875 -0.40625 -2.734375q0 -1.4375 0.390625 -2.734375q0.40625 -1.296875 1.265625 -2.0625q0.859375 -0.765625 2.046875 -0.765625q1.1875 0 2.03125 0.765625q0.859375 0.765625 1.265625 2.0625q0.40625 1.296875 0.40625 2.734375q0 1.4375 -0.40625 2.734375q-0.390625 1.28125 -1.25 2.0625q-0.859375 0.765625 -2.046875 0.765625zm0 -1.0625q1.15625 0 1.671875 -1.234375q0.53125 -1.234375 0.53125 -3.265625q0 -2.03125 -0.53125 -3.265625q-0.515625 -1.234375 -1.671875 -1.234375q-1.15625 0 -1.6875 1.234375q-0.515625 1.234375 -0.515625 3.265625q0 2.03125 0.515625 3.265625q0.53125 1.234375 1.6875 1.234375zm6.064377 0.796875l0 -1.765625l1.765625 0l0 1.765625l-1.765625 0zm7.840454 0.265625q-1.1875 0 -2.046875 -0.765625q-0.84375 -0.765625 -1.25 -2.0625q-0.40625 -1.296875 -0.40625 -2.734375q0 -1.4375 0.390625 -2.734375q0.40625 -1.296875 1.265625 -2.0625q0.859375 -0.765625 2.046875 -0.765625q1.1875 0 2.03125 0.765625q0.859375 0.765625 1.265625 2.0625q0.40625 1.296875 0.40625 2.734375q0 1.4375 -0.40625 2.734375q-0.390625 1.28125 -1.25 2.0625q-0.859375 0.765625 -2.046875 0.765625zm0 -1.0625q1.15625 0 1.671875 -1.234375q0.53125 -1.234375 0.53125 -3.265625q0 -2.03125 -0.53125 -3.265625q-0.515625 -1.234375 -1.671875 -1.234375q-1.15625 0 -1.6875 1.234375q-0.515625 1.234375 -0.515625 3.265625q0 2.03125 0.515625 3.265625q0.53125 1.234375 1.6875 1.234375zm9.795456 -9.53125l0 -0.96875q1.171875 0.796875 1.890625 1.90625q0.71875 1.09375 1.09375 2.34375q0.375 1.25 0.375 2.453125q0 1.203125 -0.375 2.46875q-0.375 1.25 -1.09375 2.34375q-0.71875 1.109375 -1.890625 1.90625l0 -0.984375q0.8125 -0.875 1.1875 -1.6875q0.390625 -0.828125 0.5625 -1.859375q0.1875 -1.046875 0.1875 -2.1875q0 -1.125 -0.1875 -2.15625q-0.171875 -1.046875 -0.5625 -1.875q-0.375 -0.828125 -1.1875 -1.703125z" fill-rule="nonzero"/><path fill="#d9d9d9" d="m79.31233 122.48294l118.33072 0l0 31.244095l-118.33072 0z" fill-rule="evenodd"/><path stroke="#000000" stroke-width="1.0" stroke-linejoin="round" stroke-linecap="butt" d="m79.31233 122.48294l118.33072 0l0 31.244095l-118.33072 0z" fill-rule="evenodd"/><path fill="#000000" d="m96.23143 144.3256l0 0.984375q-1.171875 -0.796875 -1.890625 -1.90625q-0.71875 -1.09375 -1.09375 -2.34375q-0.375 -1.265625 -0.375 -2.46875q0 -1.203125 0.375 -2.453125q0.375 -1.25 1.09375 -2.34375q0.71875 -1.109375 1.890625 -1.90625l0 0.96875q-0.8125 0.875 -1.203125 1.703125q-0.375 0.828125 -0.5625 1.859375q-0.171875 1.03125 -0.171875 2.171875q0 1.140625 0.171875 2.1875q0.1875 1.03125 0.5625 1.859375q0.390625 0.8125 1.203125 1.6875zm8.997223 -1.140625l0 -9.53125l-1.671875 0l0 -0.890625l3.09375 -0.265625l0 10.6875l-1.421875 0zm9.267502 0l0 -9.53125l-1.671875 0l0 -0.890625l3.09375 -0.265625l0 10.6875l-1.421875 0zm6.876877 0l0 -1.765625l1.765625 0l0 1.765625l-1.765625 0zm7.840454 0.265625q-1.1875 0 -2.046875 -0.765625q-0.84375 -0.765625 -1.25 -2.0625q-0.40625 -1.296875 -0.40625 -2.734375q0 -1.4375 0.390625 -2.734375q0.40625 -1.296875 1.265625 -2.0625q0.859375 -0.765625 2.046875 -0.765625q1.1875 0 2.03125 0.765625q0.859375 0.765625 1.265625 2.0625q0.40625 1.296875 0.40625 2.734375q0 1.4375 -0.40625 2.734375q-0.390625 1.28125 -1.25 2.0625q-0.859375 0.765625 -2.046875 0.765625zm0 -1.0625q1.15625 0 1.671875 -1.234375q0.53125 -1.234375 0.53125 -3.265625q0 -2.03125 -0.53125 -3.265625q-0.515625 -1.234375 -1.671875 -1.234375q-1.15625 0 -1.6875 1.234375q-0.515625 1.234375 -0.515625 3.265625q0 2.03125 0.515625 3.265625q0.53125 1.234375 1.6875 1.234375zm6.064377 3.09375l0 -0.53125q0.21875 -0.0625 0.359375 -0.25q0.140625 -0.171875 0.234375 -0.453125q0.09375 -0.265625 0.09375 -0.921875l0 -0.140625l-0.6875 0l0 -1.765625l1.765625 0l0 1.53125q0 1.21875 -0.421875 1.828125q-0.421875 0.609375 -1.34375 0.703125zm11.665283 -2.296875l0 -9.53125l-1.671875 0l0 -0.890625l3.09375 -0.265625l0 10.6875l-1.421875 0zm6.658127 0l0 -1.234375q0.609375 -1.4375 2.484375 -3.140625l0.8125 -0.71875q0.875 -0.796875 1.21875 -1.4375q0.34375 -0.65625 0.34375 -1.359375q0 -0.890625 -0.546875 -1.390625q-0.546875 -0.515625 -1.453125 -0.515625q-0.40625 0 -0.765625 0.078125q-0.359375 0.078125 -0.78125 0.25q-0.40625 0.15625 -1.046875 0.515625l0 -1.234375q1.40625 -0.671875 2.796875 -0.671875q1.53125 0 2.40625 0.84375q0.890625 0.828125 0.890625 2.09375q0 0.8125 -0.375 1.53125q-0.359375 0.71875 -1.78125 1.9375l-0.546875 0.46875q-0.59375 0.5 -1.203125 1.21875q-0.59375 0.71875 -0.75 1.53125l4.59375 0l0 1.234375l-6.296875 0zm9.486252 0l0 -1.765625l1.765625 0l0 1.765625l-1.765625 0zm7.840454 0.265625q-1.1875 0 -2.046875 -0.765625q-0.84375 -0.765625 -1.25 -2.0625q-0.40625 -1.296875 -0.40625 -2.734375q0 -1.4375 0.390625 -2.734375q0.40625 -1.296875 1.265625 -2.0625q0.859375 -0.765625 2.046875 -0.765625q1.1875 0 2.03125 0.765625q0.859375 0.765625 1.265625 2.0625q0.40625 1.296875 0.40625 2.734375q0 1.4375 -0.40625 2.734375q-0.390625 1.28125 -1.25 2.0625q-0.859375 0.765625 -2.046875 0.765625zm0 -1.0625q1.15625 0 1.671875 -1.234375q0.53125 -1.234375 0.53125 -3.265625q0 -2.03125 -0.53125 -3.265625q-0.515625 -1.234375 -1.671875 -1.234375q-1.15625 0 -1.6875 1.234375q-0.515625 1.234375 -0.515625 3.265625q0 2.03125 0.515625 3.265625q0.53125 1.234375 1.6875 1.234375zm9.795456 -9.53125l0 -0.96875q1.171875 0.796875 1.890625 1.90625q0.71875 1.09375 1.09375 2.34375q0.375 1.25 0.375 2.453125q0 1.203125 -0.375 2.46875q-0.375 1.25 -1.09375 2.34375q-0.71875 1.109375 -1.890625 1.90625l0 -0.984375q0.8125 -0.875 1.1875 -1.6875q0.390625 -0.828125 0.5625 -1.859375q0.1875 -1.046875 0.1875 -2.1875q0 -1.125 -0.1875 -2.15625q-0.171875 -1.046875 -0.5625 -1.875q-0.375 -0.828125 -1.1875 -1.703125z" fill-rule="nonzero"/><path fill="#000000" fill-opacity="0.0" d="m198.06561 356.04462l37.95276 -0.03149414" fill-rule="evenodd"/><path stroke="#000000" stroke-width="2.0" stroke-linejoin="round" stroke-linecap="butt" d="m205.64561 356.03833l30.372757 -0.02520752" fill-rule="evenodd"/><path fill="#000000" stroke="#000000" stroke-width="2.0" stroke-linecap="butt" d="m199.06561 356.0438c-0.0015106201 -1.8170166 1.4702606 -3.2912292 3.2872772 -3.2927246c1.8170166 -0.0015258789 3.291214 1.4702454 3.2927246 3.287262c0.0015106201 1.8170166 -1.4702606 3.2912292 -3.287262 3.2927246c-1.8170166 0.0015258789 -3.2912292 -1.4702454 -3.2927399 -3.287262z" fill-rule="nonzero"/><path fill="#000000" fill-opacity="0.0" d="m236.00787 294.5013l-37.95276 -0.3779602" fill-rule="evenodd"/><path stroke="#000000" stroke-width="2.0" stroke-linejoin="round" stroke-linecap="butt" d="m236.00787 294.5013l-25.953354 -0.25845337" fill-rule="evenodd"/><path fill="#000000" stroke="#000000" stroke-width="2.0" stroke-linecap="butt" d="m210.08742 290.93954l-9.108643 3.2129211l9.042847 3.3936768z" fill-rule="evenodd"/><path fill="#000000" fill-opacity="0.0" d="m235.56955 356.51443l0.25196838 -62.677155" fill-rule="evenodd"/><path stroke="#000000" stroke-width="2.0" stroke-linejoin="round" stroke-linecap="butt" d="m235.56955 356.51443l0.25196838 -62.677155" fill-rule="evenodd"/><path fill="#000000" fill-opacity="0.0" d="m79.31233 325.34778l-38.29921 -0.34646606" fill-rule="evenodd"/><path stroke="#000000" stroke-width="2.0" stroke-linejoin="round" stroke-linecap="butt" d="m71.73265 325.2792l-30.719528 -0.27789307" fill-rule="evenodd"/><path fill="#000000" stroke="#000000" stroke-width="2.0" stroke-linecap="butt" d="m78.31238 325.3387c-0.016433716 1.8169556 -1.5026855 3.2765503 -3.3196259 3.2601013c-1.8169403 -0.016418457 -3.2765427 -1.5026855 -3.260109 -3.3196106c0.016441345 -1.8169556 1.5026855 -3.2765503 3.3196259 -3.2601013c1.8169479 0.016418457 3.2765427 1.5026855 3.260109 3.3196106z" fill-rule="nonzero"/><path fill="#000000" fill-opacity="0.0" d="m42.007874 45.0l37.007874 -0.50393677" fill-rule="evenodd"/><path stroke="#000000" stroke-width="2.0" stroke-linejoin="round" stroke-linecap="butt" d="m42.007874 45.0l25.008987 -0.34054565" fill-rule="evenodd"/><path fill="#000000" stroke="#000000" stroke-width="2.0" stroke-linecap="butt" d="m67.061844 47.962612l9.030373 -3.4267387l-9.120338 -3.1795807z" fill-rule="evenodd"/><path fill="#000000" fill-opacity="0.0" d="m41.007874 324.5013l0.37795258 -280.09448" fill-rule="evenodd"/><path stroke="#000000" stroke-width="2.0" stroke-linejoin="round" stroke-linecap="butt" d="m41.007874 324.5013l0.37795258 -280.09448" fill-rule="evenodd"/><path fill="#000000" fill-opacity="0.0" d="m6.7296586 408.8714l263.49606 0l0 42.015747l-263.49606 0z" fill-rule="evenodd"/><path fill="#000000" d="m24.666388 435.44763l0 -1.65625q1.75 0.875 3.046875 0.875q0.765625 0 1.28125 -0.40625q0.515625 -0.421875 0.515625 -1.0625q0 -0.390625 -0.25 -0.765625q-0.25 -0.359375 -1.171875 -0.75l-1.046875 -0.453125q-1.21875 -0.5 -1.765625 -1.15625q-0.5625 -0.65625 -0.5625 -1.609375q0 -1.203125 0.859375 -1.984375q0.875 -0.796875 2.5625 -0.796875q0.828125 0 2.046875 0.21875l0.375 0.078125l0 1.5q-1.5 -0.453125 -2.390625 -0.453125q-0.859375 0 -1.296875 0.375q-0.421875 0.375 -0.421875 0.890625q0 0.390625 0.28125 0.71875q0.296875 0.328125 1.03125 0.640625l0.859375 0.359375q1.734375 0.75 2.21875 1.46875q0.46875 0.71875 0.46875 1.5625q0 0.8125 -0.4375 1.5q-0.4375 0.6875 -1.3125 1.09375q-0.859375 0.390625 -1.90625 0.390625q-1.234375 0 -2.984375 -0.578125zm14.275942 0.34375q-0.828125 0.234375 -1.4375 0.234375q-1.328125 0 -2.109375 -0.765625q-0.78125 -0.78125 -0.78125 -2.203125l0 -5.8125l-1.25 0l0 -1.34375l1.25 0l0 -1.796875l1.78125 -0.171875l0 1.96875l2.59375 0l0 1.34375l-2.59375 0l0 5.484375q0 1.046875 0.40625 1.5q0.40625 0.4375 1.28125 0.4375q0.34375 0 0.859375 -0.109375l0 1.234375zm8.915375 0l0 -1.859375q-0.546875 1.046875 -1.375 1.578125q-0.8125 0.515625 -1.921875 0.515625q-1.8125 0 -2.828125 -1.34375q-1.0 -1.34375 -1.0 -3.53125q0 -2.34375 1.125 -3.90625q1.125 -1.5625 3.09375 -1.5625q0.5625 0 1.078125 0.140625q0.53125 0.125 0.9375 0.375q0.40625 0.25 0.890625 0.828125l0 -5.625l1.8125 0l0 14.390625l-1.8125 0zm0 -7.53125q-0.921875 -0.828125 -1.46875 -1.03125q-0.546875 -0.203125 -1.171875 -0.203125q-1.3125 0 -1.953125 1.109375q-0.625 1.09375 -0.625 2.84375q0 1.609375 0.5625 2.546875q0.5625 0.921875 1.734375 0.921875q0.75 0 1.484375 -0.40625q0.734375 -0.421875 1.4375 -1.234375l0 -4.546875zm5.6483917 7.53125l0 -1.796875l1.796875 0l0 1.796875l-1.796875 0zm0 -8.09375l0 -1.796875l1.796875 0l0 1.796875l-1.796875 0zm5.902954 8.09375l0 -1.796875l1.796875 0l0 1.796875l-1.796875 0zm0 -8.09375l0 -1.796875l1.796875 0l0 1.796875l-1.796875 0zm5.652954 8.09375l0 -9.890625l1.796875 0l0 9.890625l-1.796875 0zm0 -11.6875l0 -1.796875l1.796875 0l0 1.796875l-1.796875 0zm5.3928223 11.6875l0 -9.890625l1.796875 0l0 1.859375q0.671875 -1.0 1.578125 -1.53125q0.90625 -0.546875 1.890625 -0.546875q1.25 0 2.03125 0.796875q0.796875 0.796875 0.796875 2.203125l0 7.109375l-1.796875 0l0 -6.515625q0 -1.03125 -0.1875 -1.359375q-0.1875 -0.328125 -0.515625 -0.5q-0.328125 -0.1875 -0.6875 -0.1875q-0.671875 0 -1.453125 0.40625q-0.765625 0.40625 -1.65625 1.75l0 6.40625l-1.796875 0zm11.578171 0l0 -9.890625l1.796875 0l0 9.890625l-1.796875 0zm0 -11.6875l0 -1.796875l1.796875 0l0 1.796875l-1.796875 0zm9.799072 11.6875q-0.828125 0.234375 -1.4375 0.234375q-1.328125 0 -2.109375 -0.765625q-0.78125 -0.78125 -0.78125 -2.203125l0 -5.8125l-1.25 0l0 -1.34375l1.25 0l0 -1.796875l1.78125 -0.171875l0 1.96875l2.59375 0l0 1.34375l-2.59375 0l0 5.484375q0 1.046875 0.40625 1.5q0.40625 0.4375 1.28125 0.4375q0.34375 0 0.859375 -0.109375l0 1.234375zm2.5716248 0l0 -9.890625l1.796875 0l0 9.890625l-1.796875 0zm0 -11.6875l0 -1.796875l1.796875 0l0 1.796875l-1.796875 0zm10.486572 10.4375q-0.796875 0.734375 -1.578125 1.109375q-0.78125 0.375 -1.515625 0.375q-1.0625 0 -1.96875 -0.6875q-0.890625 -0.703125 -0.890625 -2.03125q0 -1.453125 1.25 -2.40625q1.265625 -0.953125 4.03125 -0.953125l0.40625 0l0 -1.203125q0 -0.703125 -0.1875 -1.03125q-0.1875 -0.328125 -0.59375 -0.5q-0.40625 -0.1875 -1.0 -0.1875q-1.40625 0 -3.046875 0.875l0 -1.484375q1.8125 -0.734375 3.40625 -0.734375q0.875 0 1.609375 0.28125q0.734375 0.265625 1.171875 0.875q0.4375 0.59375 0.4375 1.90625l0 4.484375q0 0.75 0.109375 1.015625q0.125 0.25 0.34375 0.390625q0.21875 0.140625 0.5 0.140625q0.109375 0 0.34375 -0.046875l0.125 1.0q-0.609375 0.296875 -1.34375 0.296875q-0.5 0 -0.953125 -0.3125q-0.453125 -0.328125 -0.65625 -1.171875zm-0.265625 -0.984375l0 -2.5625l-0.5625 -0.015625q-1.421875 0 -2.375 0.546875q-0.953125 0.546875 -0.953125 1.484375q0 0.65625 0.46875 1.109375q0.46875 0.4375 1.09375 0.4375q0.5625 0 1.140625 -0.25q0.59375 -0.25 1.1875 -0.75zm5.474716 2.234375l0 -14.390625l1.796875 0l0 14.390625l-1.796875 0zm5.3928223 0l0 -9.890625l1.796875 0l0 9.890625l-1.796875 0zm0 -11.6875l0 -1.796875l1.796875 0l0 1.796875l-1.796875 0zm4.7209473 11.6875l0 -1.34375l6.109375 -7.203125l-5.828125 0l0 -1.34375l8.046867 0l0 1.34375l-6.1249924 7.203125l6.2499924 0l0 1.34375l-8.453117 0zm18.616417 -0.3125q-1.8125 0.546875 -3.09375 0.546875q-2.296875 0 -3.625 -1.546875q-1.3125 -1.5625 -1.3125 -3.671875q0 -1.40625 0.578125 -2.65625q0.578125 -1.265625 1.515625 -1.875q0.953125 -0.609375 2.234375 -0.609375q1.703125 0 2.71875 1.234375q1.03125 1.234375 1.03125 3.6875l-0.015625 0.53125l-6.234375 0q0.140625 1.3125 0.5625 2.03125q0.421875 0.703125 1.109375 1.109375q0.703125 0.390625 1.78125 0.390625q0.546875 0 1.078125 -0.09375q0.546875 -0.09375 1.671875 -0.5l0 1.421875zm-6.125 -5.703125l4.359375 0q0 -1.484375 -0.578125 -2.109375q-0.578125 -0.640625 -1.46875 -0.640625q-1.03125 0 -1.609375 0.6875q-0.578125 0.6875 -0.703125 2.0625zm9.268951 6.015625l0 -9.890625l1.796875 0l0 1.859375q0.5 -1.0 1.3125 -1.53125q0.828125 -0.546875 1.78125 -0.546875q0.265625 0 0.578125 0.046875l0 1.671875q-0.453125 -0.15625 -0.828125 -0.15625q-0.84375 0 -1.5625 0.515625q-0.71875 0.5 -1.28125 1.515625l0 6.515625l-1.796875 0zm6.6181335 1.34375l0 -1.34375l7.75 0l0 1.34375l-7.75 0zm10.34375 -1.34375l0 -14.390625l1.796875 0l0 14.390625l-1.796875 0zm5.3928223 0l0 -9.890625l1.796875 0l0 9.890625l-1.796875 0zm0 -11.6875l0 -1.796875l1.796875 0l0 1.796875l-1.796875 0zm5.0334473 11.34375l0 -1.65625q1.75 0.875 3.046875 0.875q0.765625 0 1.28125 -0.40625q0.515625 -0.421875 0.515625 -1.0625q0 -0.390625 -0.25 -0.765625q-0.25 -0.359375 -1.171875 -0.75l-1.046875 -0.453125q-1.21875 -0.5 -1.765625 -1.15625q-0.5625 -0.65625 -0.5625 -1.609375q0 -1.203125 0.859375 -1.984375q0.875 -0.796875 2.5625 -0.796875q0.828125 0 2.046875 0.21875l0.375 0.078125l0 1.5q-1.5 -0.453125 -2.390625 -0.453125q-0.859375 0 -1.296875 0.375q-0.421875 0.375 -0.421875 0.890625q0 0.390625 0.28125 0.71875q0.296875 0.328125 1.03125 0.640625l0.859375 0.359375q1.734375 0.75 2.21875 1.46875q0.46875 0.71875 0.46875 1.5625q0 0.8125 -0.4375 1.5q-0.4375 0.6875 -1.3125 1.09375q-0.859375 0.390625 -1.90625 0.390625q-1.234375 0 -2.984375 -0.578125zm14.27594 0.34375q-0.828125 0.234375 -1.4375 0.234375q-1.328125 0 -2.109375 -0.765625q-0.78125 -0.78125 -0.78125 -2.203125l0 -5.8125l-1.25 0l0 -1.34375l1.25 0l0 -1.796875l1.78125 -0.171875l0 1.96875l2.59375 0l0 1.34375l-2.59375 0l0 5.484375q0 1.046875 0.40625 1.5q0.40625 0.4375 1.28125 0.4375q0.34375 0 0.859375 -0.109375l0 1.234375zm11.6185 -0.453125l-9.890625 -4.9375l9.890625 -4.953125l0 1.578125l-6.875 3.375l6.875 3.375l0 1.5625zm2.6874084 0.453125l0 -13.484375l3.671875 0q1.96875 0 2.8125 0.390625q0.859375 0.375 1.3125 1.171875q0.453125 0.796875 0.453125 1.96875q0 1.390625 -0.609375 2.4375q-0.609375 1.03125 -1.953125 1.59375q-1.328125 0.5625 -2.9375 0.5625l-0.84375 0l0 5.359375l-1.90625 0zm1.90625 -6.8125l0.765625 0q1.90625 0 2.734375 -0.859375q0.828125 -0.859375 0.828125 -2.140625q0 -0.6875 -0.265625 -1.15625q-0.265625 -0.484375 -0.84375 -0.78125q-0.578125 -0.296875 -2.046875 -0.296875l-1.171875 0l0 5.234375zm12.405701 7.046875q-1.421875 0 -2.46875 -0.578125q-1.03125 -0.578125 -1.640625 -1.828125q-0.609375 -1.25 -0.609375 -2.78125q0 -1.4375 0.546875 -2.671875q0.5625 -1.234375 1.625 -1.859375q1.0625 -0.625 2.546875 -0.625q1.40625 0 2.453125 0.578125q1.046875 0.5625 1.65625 1.8125q0.609375 1.25 0.609375 2.765625q0 1.46875 -0.578125 2.703125q-0.5625 1.234375 -1.609375 1.859375q-1.046875 0.625 -2.53125 0.625zm0 -1.359375q1.328125 0 2.0625 -0.984375q0.75 -1.0 0.75 -2.84375q0 -1.828125 -0.75 -2.8125q-0.734375 -1.0 -2.0625 -1.0q-1.328125 0 -2.078125 1.0q-0.734375 0.984375 -0.734375 2.8125q0 1.84375 0.734375 2.84375q0.75 0.984375 2.078125 0.984375zm7.5222473 1.125l0 -9.890625l1.796875 0l0 9.890625l-1.796875 0zm0 -11.6875l0 -1.796875l1.796875 0l0 1.796875l-1.796875 0zm5.3928223 11.6875l0 -9.890625l1.796875 0l0 1.859375q0.671875 -1.0 1.578125 -1.53125q0.90625 -0.546875 1.890625 -0.546875q1.25 0 2.03125 0.796875q0.796875 0.796875 0.796875 2.203125l0 7.109375l-1.796875 0l0 -6.515625q0 -1.03125 -0.1875 -1.359375q-0.1875 -0.328125 -0.515625 -0.5q-0.328125 -0.1875 -0.6875 -0.1875q-0.671875 0 -1.453125 0.40625q-0.765625 0.40625 -1.65625 1.75l0 6.40625l-1.796875 0zm15.984436 0q-0.828125 0.234375 -1.4375 0.234375q-1.328125 0 -2.109375 -0.765625q-0.78125 -0.78125 -0.78125 -2.203125l0 -5.8125l-1.25 0l0 -1.34375l1.25 0l0 -1.796875l1.78125 -0.171875l0 1.96875l2.59375 0l0 1.34375l-2.59375 0l0 5.484375q0 1.046875 0.40625 1.5q0.40625 0.4375 1.28125 0.4375q0.34375 0 0.859375 -0.109375l0 1.234375zm1.7278748 -10.34375l9.890625 4.953125l-9.890625 4.9375l0 -1.5625l6.875 -3.375l-6.875 -3.375l0 -1.578125z" fill-rule="nonzero"/></g></svg>