<svg version="1.1" viewBox="0.0 0.0 378.0 211.33333333333334" fill="none" stroke="none" stroke-linecap="square" stroke-miterlimit="10" xmlns:xlink="http://www.w3.org/1999/xlink" xmlns="http://www.w3.org/2000/svg"><clipPath id="p.0"><path d="m0 0l378.0 0l0 211.33333l-378.0 0l0 -211.33333z" clip-rule="nonzero"/></clipPath><g clip-path="url(#p.0)"><path fill="#ffffff" d="m0 0l378.0 0l0 211.33333l-378.0 0z" fill-rule="evenodd"/><path fill="#000000" fill-opacity="0.0" d="m0 0l396.0 0l0 36.188976l-396.0 0z" fill-rule="evenodd"/><path fill="#000000" d="m16.625 11.436361l0 -1.71875l-3.875 0l0 18.25l3.875 0l0 -1.703125l-1.75 0l0 -14.828125l1.75 0zm9.273697 12.015625q-0.6875 0 -1.140625 -0.265625q-0.453125 -0.28125 -0.71875 -0.734375q-0.265625 -0.4375 -0.390625 -1.015625q-0.109375 -0.578125 -0.109375 -1.1875l0 -0.3125q0 -0.59375 0.109375 -1.171875q0.125 -0.578125 0.40625 -1.015625q0.265625 -0.453125 0.703125 -0.71875q0.453125 -0.28125 1.140625 -0.28125q0.453125 0 0.828125 0.15625q0.390625 0.140625 0.671875 0.40625q0.28125 0.265625 0.421875 0.625q0.15625 0.359375 0.15625 0.75l2.046875 0q0.015625 -0.8125 -0.296875 -1.5q-0.296875 -0.6875 -0.84375 -1.171875q-0.546875 -0.484375 -1.3125 -0.75q-0.765625 -0.28125 -1.65625 -0.28125q-1.125 0 -1.984375 0.390625q-0.84375 0.390625 -1.421875 1.0625q-0.578125 0.6875 -0.859375 1.59375q-0.28125 0.890625 -0.28125 1.90625l0 0.3125q0 1.015625 0.28125 1.921875q0.296875 0.890625 0.875 1.5625q0.5625 0.6875 1.40625 1.078125q0.859375 0.390625 2.0 0.390625q0.8125 0 1.546875 -0.265625q0.75 -0.265625 1.328125 -0.734375q0.5625 -0.46875 0.890625 -1.09375q0.34375 -0.640625 0.328125 -1.359375l-2.046875 0q0 0.375 -0.171875 0.6875q-0.171875 0.3125 -0.453125 0.53125q-0.28125 0.234375 -0.671875 0.359375q-0.375 0.125 -0.78125 0.125zm13.195572 1.5625l2.21875 0l0 -0.15625q-0.171875 -0.375 -0.265625 -0.90625q-0.09375 -0.546875 -0.09375 -1.203125l0 -4.390625q0 -0.828125 -0.3125 -1.46875q-0.3125 -0.640625 -0.859375 -1.0625q-0.546875 -0.421875 -1.296875 -0.625q-0.75 -0.21875 -1.625 -0.21875q-0.953125 0 -1.71875 0.25q-0.75 0.25 -1.25 0.671875q-0.53125 0.421875 -0.8125 0.96875q-0.265625 0.546875 -0.28125 1.140625l2.1875 0q0 -0.28125 0.109375 -0.53125q0.109375 -0.25 0.328125 -0.4375q0.21875 -0.1875 0.546875 -0.296875q0.328125 -0.109375 0.78125 -0.109375q0.484375 0 0.859375 0.125q0.390625 0.125 0.65625 0.359375q0.234375 0.21875 0.359375 0.53125q0.140625 0.3125 0.140625 0.6875l0 0.671875l-1.578125 0q-1.0625 0 -1.90625 0.203125q-0.84375 0.1875 -1.421875 0.578125q-0.625 0.40625 -0.953125 1.03125q-0.3125 0.625 -0.3125 1.4375q0 0.625 0.25 1.171875q0.25 0.546875 0.703125 0.921875q0.453125 0.390625 1.078125 0.625q0.640625 0.21875 1.40625 0.21875q0.46875 0 0.875 -0.09375q0.421875 -0.09375 0.765625 -0.25q0.359375 -0.15625 0.640625 -0.375q0.296875 -0.21875 0.515625 -0.453125q0.046875 0.28125 0.109375 0.546875q0.0625 0.25 0.15625 0.4375zm-2.640625 -1.5625q-0.421875 0 -0.734375 -0.109375q-0.3125 -0.109375 -0.515625 -0.28125q-0.21875 -0.1875 -0.328125 -0.4375q-0.109375 -0.265625 -0.109375 -0.5625q0 -0.375 0.125 -0.65625q0.140625 -0.296875 0.421875 -0.515625q0.3125 -0.234375 0.828125 -0.359375q0.515625 -0.140625 1.21875 -0.140625l1.40625 0l0 1.8125q-0.109375 0.25 -0.328125 0.46875q-0.21875 0.21875 -0.53125 0.390625q-0.296875 0.171875 -0.671875 0.28125q-0.359375 0.109375 -0.78125 0.109375zm7.570572 5.359375l2.171875 0l0 -4.6875q0.171875 0.1875 0.375 0.359375q0.203125 0.15625 0.421875 0.28125q0.359375 0.21875 0.796875 0.328125q0.453125 0.109375 0.984375 0.109375q0.921875 0 1.640625 -0.375q0.71875 -0.390625 1.21875 -1.0625q0.484375 -0.671875 0.734375 -1.59375q0.25 -0.921875 0.25 -1.984375l0 -0.1875q0 -1.109375 -0.25 -2.03125q-0.25 -0.9375 -0.734375 -1.59375q-0.5 -0.671875 -1.21875 -1.03125q-0.71875 -0.359375 -1.671875 -0.359375q-0.484375 0 -0.921875 0.109375q-0.421875 0.09375 -0.765625 0.28125q-0.28125 0.15625 -0.515625 0.359375q-0.234375 0.1875 -0.4375 0.4375l-0.078125 -1.015625l-2.0 0l0 13.65625zm6.421875 -8.8125l0 0.1875q0 0.65625 -0.125 1.25q-0.125 0.578125 -0.40625 1.03125q-0.28125 0.453125 -0.71875 0.71875q-0.421875 0.25 -1.03125 0.25q-0.375 0 -0.6875 -0.078125q-0.3125 -0.09375 -0.546875 -0.234375q-0.25 -0.15625 -0.4375 -0.359375q-0.171875 -0.21875 -0.296875 -0.46875l0 -4.390625q0.140625 -0.265625 0.328125 -0.484375q0.203125 -0.21875 0.46875 -0.375q0.234375 -0.125 0.515625 -0.203125q0.296875 -0.078125 0.640625 -0.078125q0.609375 0 1.046875 0.265625q0.4375 0.25 0.71875 0.6875q0.265625 0.4375 0.390625 1.03125q0.140625 0.578125 0.140625 1.25zm9.117447 -7.25l-2.1875 0l0 2.40625l-2.375 0l0 1.640625l2.375 0l0 4.84375q0 0.9375 0.25 1.625q0.25 0.671875 0.703125 1.09375q0.4375 0.4375 1.0625 0.640625q0.625 0.203125 1.375 0.203125q0.40625 0 0.8125 -0.046875q0.421875 -0.03125 0.8125 -0.109375q0.375 -0.0625 0.703125 -0.171875q0.34375 -0.109375 0.578125 -0.25l-0.234375 -1.5q-0.171875 0.03125 -0.40625 0.078125q-0.234375 0.046875 -0.515625 0.09375q-0.28125 0.046875 -0.578125 0.078125q-0.296875 0.015625 -0.59375 0.015625q-0.390625 0 -0.71875 -0.078125q-0.328125 -0.09375 -0.5625 -0.3125q-0.234375 -0.21875 -0.375 -0.578125q-0.125 -0.375 -0.125 -0.921875l0 -4.703125l3.703125 0l0 -1.640625l-3.703125 0l0 -2.40625zm13.289322 12.265625l1.96875 0l0 -9.859375l-2.1875 0l0 6.984375q-0.125 0.265625 -0.3125 0.5q-0.171875 0.21875 -0.40625 0.375q-0.28125 0.1875 -0.65625 0.296875q-0.375 0.09375 -0.859375 0.09375q-0.453125 0 -0.796875 -0.109375q-0.328125 -0.125 -0.546875 -0.40625q-0.21875 -0.265625 -0.328125 -0.71875q-0.09375 -0.46875 -0.09375 -1.15625l0 -5.859375l-2.171875 0l0 5.84375q0 1.109375 0.25 1.90625q0.25 0.796875 0.6875 1.3125q0.453125 0.5 1.078125 0.75q0.640625 0.234375 1.40625 0.234375q0.890625 0 1.609375 -0.40625q0.71875 -0.421875 1.234375 -1.15625l0.125 1.375zm11.539322 -10.03125q-1.015625 0 -1.859375 0.46875q-0.84375 0.46875 -1.4375 1.296875l-0.015625 -0.21875l-0.09375 -1.375l-2.03125 0l0 9.859375l2.171875 0l0 -6.078125q0.171875 -0.4375 0.421875 -0.78125q0.265625 -0.34375 0.625 -0.5625q0.34375 -0.21875 0.78125 -0.328125q0.4375 -0.109375 0.984375 -0.109375q0.484375 0 0.96875 0.0625q0.484375 0.046875 0.984375 0.15625l0.3125 -2.15625q-0.28125 -0.09375 -0.78125 -0.15625q-0.5 -0.078125 -1.03125 -0.078125zm8.992447 10.21875q1.4375 0 2.453125 -0.5625q1.015625 -0.578125 1.5 -1.28125l-1.15625 -1.125q-0.453125 0.578125 -1.15625 0.890625q-0.703125 0.3125 -1.515625 0.3125q-0.59375 0 -1.09375 -0.203125q-0.484375 -0.203125 -0.859375 -0.5625q-0.359375 -0.34375 -0.578125 -0.78125q-0.203125 -0.4375 -0.296875 -1.078125l0 -0.046875l6.828125 0l0 -0.9375q0 -1.0625 -0.28125 -1.953125q-0.28125 -0.890625 -0.84375 -1.546875q-0.546875 -0.625 -1.375 -0.984375q-0.8125 -0.359375 -1.890625 -0.359375q-0.953125 0 -1.796875 0.359375q-0.84375 0.359375 -1.46875 1.015625q-0.640625 0.671875 -1.015625 1.609375q-0.359375 0.9375 -0.359375 2.09375l0 0.375q0 1.0 0.34375 1.875q0.359375 0.875 1.0 1.515625q0.65625 0.640625 1.5625 1.015625q0.90625 0.359375 2.0 0.359375zm-0.265625 -8.453125q0.546875 0 0.953125 0.1875q0.421875 0.1875 0.6875 0.484375q0.28125 0.328125 0.4375 0.75q0.15625 0.421875 0.15625 0.84375l0 0.15625l-4.625 0q0.09375 -0.5625 0.296875 -1.015625q0.21875 -0.453125 0.53125 -0.765625q0.296875 -0.3125 0.6875 -0.46875q0.40625 -0.171875 0.875 -0.171875zm18.469269 -5.734375l0 1.828125l3.125 0l0 10.375l-3.125 0l0 1.796875l8.296875 0l0 -1.796875l-2.984375 0l0 -12.203125l-5.3125 0zm11.273697 4.140625l0 1.8125l3.046875 0l0 6.25l-3.046875 0l0 1.796875l8.125 0l0 -1.796875l-2.890625 0l0 -8.0625l-5.234375 0zm2.84375 -2.546875q0 0.34375 0.15625 0.609375q0.171875 0.25 0.5 0.359375q0.328125 0.09375 0.59375 0.046875q0.265625 -0.0625 0.453125 -0.234375q0.375 -0.09375 0.578125 -0.390625q0.203125 -0.296875 0.140625 -0.703125q-0.046875 -0.390625 -0.359375 -0.640625q-0.296875 -0.25 -0.796875 -0.25q-0.28125 0 -0.515625 0.09375q-0.234375 0.078125 -0.40625 0.234375q-0.171875 0.15625 -0.265625 0.390625q-0.078125 0.21875 -0.078125 0.484375zm14.304947 9.734375q0 0.234375 -0.109375 0.4375q-0.109375 0.1875 -0.3125 0.359375q-0.265625 0.203125 -0.6875 0.328125q-0.421875 0.109375 -0.984375 0.109375q-0.421875 0 -0.828125 -0.078125q-0.40625 -0.09375 -0.734375 -0.296875q-0.328125 -0.1875 -0.546875 -0.5q-0.203125 -0.3125 -0.234375 -0.78125l-2.109375 0q0 0.609375 0.28125 1.203125q0.296875 0.59375 0.859375 1.046875q0.5625 0.46875 1.390625 0.75q0.828125 0.28125 1.890625 0.28125q0.953125 0 1.734375 -0.21875q0.78125 -0.21875 1.34375 -0.609375q0.5625 -0.390625 0.859375 -0.9375q0.3125 -0.546875 0.3125 -1.203125q0 -0.671875 -0.296875 -1.15625q-0.28125 -0.5 -0.8125 -0.859375q-0.53125 -0.34375 -1.28125 -0.578125q-0.75 -0.25 -1.640625 -0.40625q-0.65625 -0.109375 -1.078125 -0.25q-0.421875 -0.140625 -0.65625 -0.296875q-0.25 -0.15625 -0.359375 -0.359375q-0.09375 -0.203125 -0.09375 -0.46875q0 -0.234375 0.109375 -0.453125q0.125 -0.234375 0.359375 -0.390625q0.234375 -0.1875 0.59375 -0.296875q0.375 -0.109375 0.875 -0.109375q0.53125 0 0.9375 0.15625q0.40625 0.140625 0.65625 0.375q0.21875 0.203125 0.328125 0.453125q0.125 0.25 0.125 0.515625l2.171875 0q0 -0.65625 -0.296875 -1.234375q-0.28125 -0.578125 -0.828125 -1.0q-0.546875 -0.421875 -1.328125 -0.65625q-0.78125 -0.234375 -1.765625 -0.234375q-0.921875 0 -1.671875 0.234375q-0.75 0.234375 -1.28125 0.640625q-0.53125 0.40625 -0.828125 0.953125q-0.28125 0.546875 -0.28125 1.140625q0 0.625 0.28125 1.109375q0.28125 0.46875 0.78125 0.8125q0.515625 0.375 1.21875 0.625q0.703125 0.25 1.5625 0.421875q0.6875 0.125 1.140625 0.28125q0.453125 0.140625 0.734375 0.3125q0.265625 0.171875 0.375 0.375q0.125 0.203125 0.125 0.453125zm9.117447 -9.59375l-2.1875 0l0 2.40625l-2.375 0l0 1.640625l2.375 0l0 4.84375q0 0.9375 0.25 1.625q0.25 0.671875 0.703125 1.09375q0.4375 0.4375 1.0625 0.640625q0.625 0.203125 1.375 0.203125q0.40625 0 0.8125 -0.046875q0.421875 -0.03125 0.8125 -0.109375q0.375 -0.0625 0.703125 -0.171875q0.34375 -0.109375 0.578125 -0.25l-0.234375 -1.5q-0.171875 0.03125 -0.40625 0.078125q-0.234375 0.046875 -0.515625 0.09375q-0.28125 0.046875 -0.578125 0.078125q-0.296875 0.015625 -0.59375 0.015625q-0.390625 0 -0.71875 -0.078125q-0.328125 -0.09375 -0.5625 -0.3125q-0.234375 -0.21875 -0.375 -0.578125q-0.125 -0.375 -0.125 -0.921875l0 -4.703125l3.703125 0l0 -1.640625l-3.703125 0l0 -2.40625zm9.070572 -3.03125l0 1.71875l1.765625 0l0 14.828125l-1.765625 0l0 1.703125l3.890625 0l0 -18.25l-3.890625 0zm21.922394 9.90625l0 0.15625q0 1.296875 0.203125 2.4375q0.203125 1.125 0.53125 2.09375q0.34375 0.96875 0.796875 1.765625q0.453125 0.8125 0.953125 1.421875q0.5 0.625 1.015625 1.046875q0.515625 0.4375 1.0 0.671875l0.4375 -1.21875q-0.359375 -0.28125 -0.734375 -0.703125q-0.359375 -0.40625 -0.6875 -0.953125q-0.328125 -0.546875 -0.625 -1.25q-0.28125 -0.703125 -0.5 -1.515625q-0.171875 -0.6875 -0.296875 -1.65625q-0.125 -0.984375 -0.125 -2.125l0 -0.1875q0 -1.171875 0.125 -2.171875q0.140625 -1.0 0.359375 -1.828125q0.25 -0.890625 0.59375 -1.625q0.34375 -0.75 0.734375 -1.3125q0.28125 -0.390625 0.5625 -0.703125q0.296875 -0.3125 0.59375 -0.53125l-0.4375 -1.265625q-0.484375 0.234375 -1.0 0.671875q-0.515625 0.4375 -1.015625 1.046875q-0.5 0.625 -0.953125 1.4375q-0.453125 0.796875 -0.796875 1.75q-0.328125 0.96875 -0.53125 2.125q-0.203125 1.140625 -0.203125 2.421875zm9.445572 9.1875l2.171875 0l0 -4.6875q0.171875 0.1875 0.375 0.359375q0.203125 0.15625 0.421875 0.28125q0.359375 0.21875 0.796875 0.328125q0.453125 0.109375 0.984375 0.109375q0.921875 0 1.640625 -0.375q0.71875 -0.390625 1.21875 -1.0625q0.484375 -0.671875 0.734375 -1.59375q0.25 -0.921875 0.25 -1.984375l0 -0.1875q0 -1.109375 -0.25 -2.03125q-0.25 -0.9375 -0.734375 -1.59375q-0.5 -0.671875 -1.21875 -1.03125q-0.71875 -0.359375 -1.671875 -0.359375q-0.484375 0 -0.921875 0.109375q-0.421875 0.09375 -0.765625 0.28125q-0.28125 0.15625 -0.515625 0.359375q-0.234375 0.1875 -0.4375 0.4375l-0.078125 -1.015625l-2.0 0l0 13.65625zm6.421875 -8.8125l0 0.1875q0 0.65625 -0.125 1.25q-0.125 0.578125 -0.40625 1.03125q-0.28125 0.453125 -0.71875 0.71875q-0.421875 0.25 -1.03125 0.25q-0.375 0 -0.6875 -0.078125q-0.3125 -0.09375 -0.546875 -0.234375q-0.25 -0.15625 -0.4375 -0.359375q-0.171875 -0.21875 -0.296875 -0.46875l0 -4.390625q0.140625 -0.265625 0.328125 -0.484375q0.203125 -0.21875 0.46875 -0.375q0.234375 -0.125 0.515625 -0.203125q0.296875 -0.078125 0.640625 -0.078125q0.609375 0 1.046875 0.265625q0.4375 0.25 0.71875 0.6875q0.265625 0.4375 0.390625 1.03125q0.140625 0.578125 0.140625 1.25zm11.039322 5.015625l2.21875 0l0 -0.15625q-0.171875 -0.375 -0.265625 -0.90625q-0.09375 -0.546875 -0.09375 -1.203125l0 -4.390625q0 -0.828125 -0.3125 -1.46875q-0.3125 -0.640625 -0.859375 -1.0625q-0.546875 -0.421875 -1.296875 -0.625q-0.75 -0.21875 -1.625 -0.21875q-0.953125 0 -1.71875 0.25q-0.75 0.25 -1.25 0.671875q-0.53125 0.421875 -0.8125 0.96875q-0.265625 0.546875 -0.28125 1.140625l2.1875 0q0 -0.28125 0.109375 -0.53125q0.109375 -0.25 0.328125 -0.4375q0.21875 -0.1875 0.546875 -0.296875q0.328125 -0.109375 0.78125 -0.109375q0.484375 0 0.859375 0.125q0.390625 0.125 0.65625 0.359375q0.234375 0.21875 0.359375 0.53125q0.140625 0.3125 0.140625 0.6875l0 0.671875l-1.578125 0q-1.0625 0 -1.90625 0.203125q-0.84375 0.1875 -1.421875 0.578125q-0.625 0.40625 -0.953125 1.03125q-0.3125 0.625 -0.3125 1.4375q0 0.625 0.25 1.171875q0.25 0.546875 0.703125 0.921875q0.453125 0.390625 1.078125 0.625q0.640625 0.21875 1.40625 0.21875q0.46875 0 0.875 -0.09375q0.421875 -0.09375 0.765625 -0.25q0.359375 -0.15625 0.640625 -0.375q0.296875 -0.21875 0.515625 -0.453125q0.046875 0.28125 0.109375 0.546875q0.0625 0.25 0.15625 0.4375zm-2.640625 -1.5625q-0.421875 0 -0.734375 -0.109375q-0.3125 -0.109375 -0.515625 -0.28125q-0.21875 -0.1875 -0.328125 -0.4375q-0.109375 -0.265625 -0.109375 -0.5625q0 -0.375 0.125 -0.65625q0.140625 -0.296875 0.421875 -0.515625q0.3125 -0.234375 0.828125 -0.359375q0.515625 -0.140625 1.21875 -0.140625l1.40625 0l0 1.8125q-0.109375 0.25 -0.328125 0.46875q-0.21875 0.21875 -0.53125 0.390625q-0.296875 0.171875 -0.671875 0.28125q-0.359375 0.109375 -0.78125 0.109375zm14.351822 -8.46875q-1.015625 0 -1.859375 0.46875q-0.84375 0.46875 -1.4375 1.296875l-0.015625 -0.21875l-0.09375 -1.375l-2.03125 0l0 9.859375l2.171875 0l0 -6.078125q0.171875 -0.4375 0.421875 -0.78125q0.265625 -0.34375 0.625 -0.5625q0.34375 -0.21875 0.78125 -0.328125q0.4375 -0.109375 0.984375 -0.109375q0.484375 0 0.96875 0.0625q0.484375 0.046875 0.984375 0.15625l0.3125 -2.15625q-0.28125 -0.09375 -0.78125 -0.15625q-0.5 -0.078125 -1.03125 -0.078125zm10.679947 10.03125l2.21875 0l0 -0.15625q-0.171875 -0.375 -0.265625 -0.90625q-0.09375 -0.546875 -0.09375 -1.203125l0 -4.390625q0 -0.828125 -0.3125 -1.46875q-0.3125 -0.640625 -0.859375 -1.0625q-0.546875 -0.421875 -1.296875 -0.625q-0.75 -0.21875 -1.625 -0.21875q-0.953125 0 -1.71875 0.25q-0.75 0.25 -1.25 0.671875q-0.53125 0.421875 -0.8125 0.96875q-0.265625 0.546875 -0.28125 1.140625l2.1875 0q0 -0.28125 0.109375 -0.53125q0.109375 -0.25 0.328125 -0.4375q0.21875 -0.1875 0.546875 -0.296875q0.328125 -0.109375 0.78125 -0.109375q0.484375 0 0.859375 0.125q0.390625 0.125 0.65625 0.359375q0.234375 0.21875 0.359375 0.53125q0.140625 0.3125 0.140625 0.6875l0 0.671875l-1.578125 0q-1.0625 0 -1.90625 0.203125q-0.84375 0.1875 -1.421875 0.578125q-0.625 0.40625 -0.953125 1.03125q-0.3125 0.625 -0.3125 1.4375q0 0.625 0.25 1.171875q0.25 0.546875 0.703125 0.921875q0.453125 0.390625 1.078125 0.625q0.640625 0.21875 1.40625 0.21875q0.46875 0 0.875 -0.09375q0.421875 -0.09375 0.765625 -0.25q0.359375 -0.15625 0.640625 -0.375q0.296875 -0.21875 0.515625 -0.453125q0.046875 0.28125 0.109375 0.546875q0.0625 0.25 0.15625 0.4375zm-2.640625 -1.5625q-0.421875 0 -0.734375 -0.109375q-0.3125 -0.109375 -0.515625 -0.28125q-0.21875 -0.1875 -0.328125 -0.4375q-0.109375 -0.265625 -0.109375 -0.5625q0 -0.375 0.125 -0.65625q0.140625 -0.296875 0.421875 -0.515625q0.3125 -0.234375 0.828125 -0.359375q0.515625 -0.140625 1.21875 -0.140625l1.40625 0l0 1.8125q-0.109375 0.25 -0.328125 0.46875q-0.21875 0.21875 -0.53125 0.390625q-0.296875 0.171875 -0.671875 0.28125q-0.359375 0.109375 -0.78125 0.109375zm8.789322 -8.296875l-1.90625 0l0 9.859375l2.015625 0l0 -7.5625q0.046875 -0.140625 0.109375 -0.25q0.078125 -0.109375 0.171875 -0.1875q0.109375 -0.125 0.28125 -0.1875q0.171875 -0.0625 0.390625 -0.0625q0.203125 0 0.359375 0.0625q0.15625 0.046875 0.28125 0.171875q0.109375 0.125 0.171875 0.328125q0.0625 0.203125 0.0625 0.484375l0 7.203125l1.96875 0l0 -7.3125q0 -0.09375 0 -0.140625q0 -0.046875 0 -0.09375q0.03125 -0.15625 0.09375 -0.265625q0.078125 -0.125 0.1875 -0.21875q0.125 -0.109375 0.28125 -0.15625q0.15625 -0.0625 0.359375 -0.0625q0.203125 0 0.375 0.0625q0.171875 0.046875 0.28125 0.171875q0.125 0.125 0.1875 0.328125q0.0625 0.203125 0.0625 0.5l0 7.1875l2.0 0l0 -7.171875q0 -0.765625 -0.15625 -1.3125q-0.15625 -0.5625 -0.453125 -0.90625q-0.296875 -0.328125 -0.6875 -0.484375q-0.390625 -0.15625 -0.875 -0.15625q-0.359375 0 -0.671875 0.09375q-0.296875 0.078125 -0.546875 0.25q-0.1875 0.125 -0.359375 0.3125q-0.15625 0.171875 -0.28125 0.390625q-0.09375 -0.234375 -0.21875 -0.40625q-0.125 -0.1875 -0.296875 -0.3125q-0.203125 -0.171875 -0.5 -0.25q-0.28125 -0.078125 -0.65625 -0.078125q-0.703125 0 -1.203125 0.34375q-0.484375 0.328125 -0.765625 0.921875l-0.0625 -1.09375zm14.554947 10.046875q1.4375 0 2.453125 -0.5625q1.015625 -0.578125 1.5 -1.28125l-1.15625 -1.125q-0.453125 0.578125 -1.15625 0.890625q-0.703125 0.3125 -1.515625 0.3125q-0.59375 0 -1.09375 -0.203125q-0.484375 -0.203125 -0.859375 -0.5625q-0.359375 -0.34375 -0.578125 -0.78125q-0.203125 -0.4375 -0.296875 -1.078125l0 -0.046875l6.828125 0l0 -0.9375q0 -1.0625 -0.28125 -1.953125q-0.28125 -0.890625 -0.84375 -1.546875q-0.546875 -0.625 -1.375 -0.984375q-0.8125 -0.359375 -1.890625 -0.359375q-0.953125 0 -1.796875 0.359375q-0.84375 0.359375 -1.46875 1.015625q-0.640625 0.671875 -1.015625 1.609375q-0.359375 0.9375 -0.359375 2.09375l0 0.375q0 1.0 0.34375 1.875q0.359375 0.875 1.0 1.515625q0.65625 0.640625 1.5625 1.015625q0.90625 0.359375 2.0 0.359375zm-0.265625 -8.453125q0.546875 0 0.953125 0.1875q0.421875 0.1875 0.6875 0.484375q0.28125 0.328125 0.4375 0.75q0.15625 0.421875 0.15625 0.84375l0 0.15625l-4.625 0q0.09375 -0.5625 0.296875 -1.015625q0.21875 -0.453125 0.53125 -0.765625q0.296875 -0.3125 0.6875 -0.46875q0.40625 -0.171875 0.875 -0.171875zm11.226822 -4.0l-2.1875 0l0 2.40625l-2.375 0l0 1.640625l2.375 0l0 4.84375q0 0.9375 0.25 1.625q0.25 0.671875 0.703125 1.09375q0.4375 0.4375 1.0625 0.640625q0.625 0.203125 1.375 0.203125q0.40625 0 0.8125 -0.046875q0.421875 -0.03125 0.8125 -0.109375q0.375 -0.0625 0.703125 -0.171875q0.34375 -0.109375 0.578125 -0.25l-0.234375 -1.5q-0.171875 0.03125 -0.40625 0.078125q-0.234375 0.046875 -0.515625 0.09375q-0.28125 0.046875 -0.578125 0.078125q-0.296875 0.015625 -0.59375 0.015625q-0.390625 0 -0.71875 -0.078125q-0.328125 -0.09375 -0.5625 -0.3125q-0.234375 -0.21875 -0.375 -0.578125q-0.125 -0.375 -0.125 -0.921875l0 -4.703125l3.703125 0l0 -1.640625l-3.703125 0l0 -2.40625zm11.429962 12.453125q1.4375 0 2.453125 -0.5625q1.015625 -0.578125 1.5 -1.28125l-1.15625 -1.125q-0.453125 0.578125 -1.15625 0.890625q-0.703125 0.3125 -1.515625 0.3125q-0.59375 0 -1.09375 -0.203125q-0.484375 -0.203125 -0.859375 -0.5625q-0.359375 -0.34375 -0.578125 -0.78125q-0.203125 -0.4375 -0.296875 -1.078125l0 -0.046875l6.828125 0l0 -0.9375q0 -1.0625 -0.28125 -1.953125q-0.28125 -0.890625 -0.84375 -1.546875q-0.546875 -0.625 -1.375 -0.984375q-0.8125 -0.359375 -1.890625 -0.359375q-0.953125 0 -1.796875 0.359375q-0.84375 0.359375 -1.46875 1.015625q-0.640625 0.671875 -1.015625 1.609375q-0.359375 0.9375 -0.359375 2.09375l0 0.375q0 1.0 0.34375 1.875q0.359375 0.875 1.0 1.515625q0.65625 0.640625 1.5625 1.015625q0.90625 0.359375 2.0 0.359375zm-0.265625 -8.453125q0.546875 0 0.953125 0.1875q0.421875 0.1875 0.6875 0.484375q0.28125 0.328125 0.4375 0.75q0.15625 0.421875 0.15625 0.84375l0 0.15625l-4.625 0q0.09375 -0.5625 0.296875 -1.015625q0.21875 -0.453125 0.53125 -0.765625q0.296875 -0.3125 0.6875 -0.46875q0.40625 -0.171875 0.875 -0.171875zm13.664307 -1.765625q-1.015625 0 -1.859375 0.46875q-0.84375 0.46875 -1.4375 1.296875l-0.015625 -0.21875l-0.09375 -1.375l-2.03125 0l0 9.859375l2.171875 0l0 -6.078125q0.171875 -0.4375 0.421875 -0.78125q0.265625 -0.34375 0.625 -0.5625q0.34375 -0.21875 0.78125 -0.328125q0.4375 -0.109375 0.984375 -0.109375q0.484375 0 0.96875 0.0625q0.484375 0.046875 0.984375 0.15625l0.3125 -2.15625q-0.28125 -0.09375 -0.78125 -0.15625q-0.5 -0.078125 -1.03125 -0.078125zm10.836182 7.359375q0 0.234375 -0.109375 0.4375q-0.109375 0.1875 -0.3125 0.359375q-0.265625 0.203125 -0.6875 0.328125q-0.421875 0.109375 -0.984375 0.109375q-0.421875 0 -0.828125 -0.078125q-0.40625 -0.09375 -0.734375 -0.296875q-0.328125 -0.1875 -0.546875 -0.5q-0.203125 -0.3125 -0.234375 -0.78125l-2.109375 0q0 0.609375 0.28125 1.203125q0.296875 0.59375 0.859375 1.046875q0.5625 0.46875 1.390625 0.75q0.828125 0.28125 1.890625 0.28125q0.953125 0 1.734375 -0.21875q0.78125 -0.21875 1.34375 -0.609375q0.5625 -0.390625 0.859375 -0.9375q0.3125 -0.546875 0.3125 -1.203125q0 -0.671875 -0.296875 -1.15625q-0.28125 -0.5 -0.8125 -0.859375q-0.53125 -0.34375 -1.28125 -0.578125q-0.75 -0.25 -1.640625 -0.40625q-0.65625 -0.109375 -1.078125 -0.25q-0.421875 -0.140625 -0.65625 -0.296875q-0.25 -0.15625 -0.359375 -0.359375q-0.09375 -0.203125 -0.09375 -0.46875q0 -0.234375 0.109375 -0.453125q0.125 -0.234375 0.359375 -0.390625q0.234375 -0.1875 0.59375 -0.296875q0.375 -0.109375 0.875 -0.109375q0.53125 0 0.9375 0.15625q0.40625 0.140625 0.65625 0.375q0.21875 0.203125 0.328125 0.453125q0.125 0.25 0.125 0.515625l2.171875 0q0 -0.65625 -0.296875 -1.234375q-0.28125 -0.578125 -0.828125 -1.0q-0.546875 -0.421875 -1.328125 -0.65625q-0.78125 -0.234375 -1.765625 -0.234375q-0.921875 0 -1.671875 0.234375q-0.75 0.234375 -1.28125 0.640625q-0.53125 0.40625 -0.828125 0.953125q-0.28125 0.546875 -0.28125 1.140625q0 0.625 0.28125 1.109375q0.28125 0.46875 0.78125 0.8125q0.515625 0.375 1.21875 0.625q0.703125 0.25 1.5625 0.421875q0.6875 0.125 1.140625 0.28125q0.453125 0.140625 0.734375 0.3125q0.265625 0.171875 0.375 0.375q0.125 0.203125 0.125 0.453125zm11.242432 -2.5625l0 -0.15625q0 -1.3125 -0.21875 -2.421875q-0.203125 -1.109375 -0.53125 -2.078125q-0.34375 -0.984375 -0.796875 -1.78125q-0.453125 -0.796875 -0.96875 -1.421875q-0.515625 -0.625 -1.046875 -1.0625q-0.53125 -0.453125 -1.015625 -0.6875l-0.4375 1.21875q0.28125 0.21875 0.578125 0.546875q0.296875 0.328125 0.578125 0.734375q0.390625 0.578125 0.75 1.359375q0.359375 0.78125 0.609375 1.765625q0.203125 0.75 0.328125 1.71875q0.125 0.953125 0.125 2.09375l0 0.1875q0 1.09375 -0.125 2.046875q-0.109375 0.953125 -0.3125 1.75q-0.203125 0.859375 -0.515625 1.578125q-0.296875 0.71875 -0.640625 1.28125q-0.328125 0.515625 -0.671875 0.90625q-0.34375 0.390625 -0.703125 0.640625l0.4375 1.21875q0.484375 -0.234375 1.015625 -0.671875q0.53125 -0.4375 1.046875 -1.078125q0.5 -0.609375 0.953125 -1.421875q0.46875 -0.796875 0.8125 -1.765625q0.34375 -0.96875 0.546875 -2.09375q0.203125 -1.140625 0.203125 -2.40625z" fill-rule="nonzero"/><path fill="#000000" fill-opacity="0.0" d="m59.842518 36.194225l408.81888 0l0 98.48819l-408.81888 0z" fill-rule="evenodd"/><path fill="#000000" d="m71.49877 49.498943l-1.90625 0l0 9.859375l2.015625 0l0 -7.5625q0.046875 -0.140625 0.109375 -0.25q0.078125 -0.109375 0.171875 -0.1875q0.109375 -0.125 0.28125 -0.1875q0.171875 -0.0625 0.390625 -0.0625q0.203125 0 0.359375 0.0625q0.15625 0.046875 0.28125 0.171875q0.109375 0.125 0.171875 0.328125q0.0625 0.203125 0.0625 0.484375l0 7.203125l1.96875 0l0 -7.3125q0 -0.09375 0 -0.140625q0 -0.046875 0 -0.09375q0.03125 -0.15625 0.09375 -0.265625q0.078125 -0.125 0.1875 -0.21875q0.125 -0.109375 0.28125 -0.15625q0.15625 -0.0625 0.359375 -0.0625q0.203125 0 0.375 0.0625q0.171875 0.046875 0.28125 0.171875q0.125 0.125 0.1875 0.328125q0.0625 0.203125 0.0625 0.5l0 7.1875l2.0 0l0 -7.171875q0 -0.765625 -0.15625 -1.3125q-0.15625 -0.5625 -0.453125 -0.90625q-0.296875 -0.328125 -0.6875 -0.484375q-0.390625 -0.15625 -0.875 -0.15625q-0.359375 0 -0.671875 0.09375q-0.296875 0.078125 -0.546875 0.25q-0.1875 0.125 -0.359375 0.3125q-0.15625 0.171875 -0.28125 0.390625q-0.09375 -0.234375 -0.21875 -0.40625q-0.125 -0.1875 -0.296875 -0.3125q-0.203125 -0.171875 -0.5 -0.25q-0.28125 -0.078125 -0.65625 -0.078125q-0.703125 0 -1.203125 0.34375q-0.484375 0.328125 -0.765625 0.921875l-0.0625 -1.09375zm16.414322 9.859375l1.96875 0l0 -9.859375l-2.1875 0l0 6.984375q-0.125 0.265625 -0.3125 0.5q-0.171875 0.21875 -0.40625 0.375q-0.28125 0.1875 -0.65625 0.296875q-0.375 0.09375 -0.859375 0.09375q-0.453125 0 -0.796875 -0.109375q-0.328125 -0.125 -0.546875 -0.40625q-0.21875 -0.265625 -0.328125 -0.71875q-0.09375 -0.46875 -0.09375 -1.15625l0 -5.859375l-2.171875 0l0 5.84375q0 1.109375 0.25 1.90625q0.25 0.796875 0.6875 1.3125q0.453125 0.5 1.078125 0.75q0.640625 0.234375 1.40625 0.234375q0.890625 0 1.609375 -0.40625q0.71875 -0.421875 1.234375 -1.15625l0.125 1.375zm9.101822 -12.265625l-2.1875 0l0 2.40625l-2.375 0l0 1.640625l2.375 0l0 4.84375q0 0.9375 0.25 1.625q0.25 0.671875 0.703125 1.09375q0.4375 0.4375 1.0625 0.640625q0.625 0.203125 1.375 0.203125q0.40625 0 0.8125 -0.046875q0.421875 -0.03125 0.8125 -0.109375q0.375 -0.0625 0.703125 -0.171875q0.34375 -0.109375 0.578125 -0.25l-0.234375 -1.5q-0.171875 0.03125 -0.40625 0.078125q-0.234375 0.046875 -0.515625 0.09375q-0.28125 0.046875 -0.578125 0.078125q-0.296875 0.015625 -0.59375 0.015625q-0.390625 0 -0.71875 -0.078125q-0.328125 -0.09375 -0.5625 -0.3125q-0.234375 -0.21875 -0.375 -0.578125q-0.125 -0.375 -0.125 -0.921875l0 -4.703125l3.703125 0l0 -1.640625l-3.703125 0l0 -2.40625zm13.117447 12.265625l2.21875 0l0 -0.15625q-0.171875 -0.375 -0.265625 -0.90625q-0.09375 -0.546875 -0.09375 -1.203125l0 -4.390625q0 -0.828125 -0.3125 -1.46875q-0.3125 -0.640625 -0.859375 -1.0625q-0.546875 -0.421875 -1.296875 -0.625q-0.75 -0.21875 -1.625 -0.21875q-0.953125 0 -1.71875 0.25q-0.75 0.25 -1.25 0.671875q-0.53125 0.421875 -0.8125 0.96875q-0.265625 0.546875 -0.28125 1.140625l2.1875 0q0 -0.28125 0.109375 -0.53125q0.109375 -0.25 0.328125 -0.4375q0.21875 -0.1875 0.546875 -0.296875q0.328125 -0.109375 0.78125 -0.109375q0.484375 0 0.859375 0.125q0.390625 0.125 0.65625 0.359375q0.234375 0.21875 0.359375 0.53125q0.140625 0.3125 0.140625 0.6875l0 0.671875l-1.578125 0q-1.0625 0 -1.90625 0.203125q-0.84375 0.1875 -1.421875 0.578125q-0.625 0.40625 -0.953125 1.03125q-0.3125 0.625 -0.3125 1.4375q0 0.625 0.25 1.171875q0.25 0.546875 0.703125 0.921875q0.453125 0.390625 1.078125 0.625q0.640625 0.21875 1.40625 0.21875q0.46875 0 0.875 -0.09375q0.421875 -0.09375 0.765625 -0.25q0.359375 -0.15625 0.640625 -0.375q0.296875 -0.21875 0.515625 -0.453125q0.046875 0.28125 0.109375 0.546875q0.0625 0.25 0.15625 0.4375zm-2.640625 -1.5625q-0.421875 0 -0.734375 -0.109375q-0.3125 -0.109375 -0.515625 -0.28125q-0.21875 -0.1875 -0.328125 -0.4375q-0.109375 -0.265625 -0.109375 -0.5625q0 -0.375 0.125 -0.65625q0.140625 -0.296875 0.421875 -0.515625q0.3125 -0.234375 0.828125 -0.359375q0.515625 -0.140625 1.21875 -0.140625l1.40625 0l0 1.8125q-0.109375 0.25 -0.328125 0.46875q-0.21875 0.21875 -0.53125 0.390625q-0.296875 0.171875 -0.671875 0.28125q-0.359375 0.109375 -0.78125 0.109375zm16.211197 -3.265625l0 -0.1875q0 -0.84375 -0.15625 -1.578125q-0.140625 -0.75 -0.4375 -1.375q-0.21875 -0.4375 -0.515625 -0.796875q-0.28125 -0.375 -0.640625 -0.625q-0.4375 -0.3125 -0.96875 -0.46875q-0.53125 -0.171875 -1.171875 -0.171875q-0.46875 0 -0.890625 0.09375q-0.421875 0.09375 -0.765625 0.28125q-0.265625 0.140625 -0.5 0.34375q-0.21875 0.1875 -0.40625 0.421875l0 -5.109375l-2.171875 0l0 14.0l1.96875 0l0.09375 -1.078125q0.171875 0.203125 0.34375 0.375q0.171875 0.171875 0.375 0.3125q0.390625 0.28125 0.875 0.421875q0.5 0.15625 1.109375 0.15625q0.59375 0 1.09375 -0.15625q0.5 -0.15625 0.90625 -0.421875q0.515625 -0.34375 0.875 -0.84375q0.375 -0.515625 0.59375 -1.140625q0.1875 -0.53125 0.28125 -1.140625q0.109375 -0.625 0.109375 -1.3125zm-2.1875 -0.1875l0 0.1875q0 0.40625 -0.046875 0.796875q-0.03125 0.375 -0.125 0.703125q-0.109375 0.4375 -0.3125 0.796875q-0.203125 0.34375 -0.53125 0.578125q-0.234375 0.15625 -0.53125 0.25q-0.296875 0.09375 -0.671875 0.09375q-0.421875 0 -0.75 -0.09375q-0.328125 -0.109375 -0.578125 -0.296875q-0.234375 -0.171875 -0.421875 -0.390625q-0.171875 -0.21875 -0.296875 -0.5l0 -4.078125q0.109375 -0.234375 0.25 -0.4375q0.15625 -0.203125 0.359375 -0.359375q0.25 -0.234375 0.609375 -0.359375q0.359375 -0.125 0.796875 -0.125q0.375 0 0.65625 0.09375q0.296875 0.078125 0.53125 0.234375q0.34375 0.25 0.546875 0.59375q0.203125 0.328125 0.328125 0.75q0.09375 0.34375 0.140625 0.75q0.046875 0.390625 0.046875 0.8125zm5.133072 -8.984375l0 1.828125l3.1249924 0l0 10.375l-3.1249924 0l0 1.796875l8.296867 0l0 -1.796875l-2.984375 0l0 -12.203125l-5.3124924 0zm15.383064 14.1875q1.4375 0 2.453125 -0.5625q1.015625 -0.578125 1.5 -1.28125l-1.15625 -1.125q-0.453125 0.578125 -1.15625 0.890625q-0.703125 0.3125 -1.515625 0.3125q-0.59375 0 -1.09375 -0.203125q-0.484375 -0.203125 -0.859375 -0.5625q-0.359375 -0.34375 -0.578125 -0.78125q-0.203125 -0.4375 -0.296875 -1.078125l0 -0.046875l6.828125 0l0 -0.9375q0 -1.0625 -0.28125 -1.953125q-0.28125 -0.890625 -0.84375 -1.546875q-0.546875 -0.625 -1.375 -0.984375q-0.8125 -0.359375 -1.890625 -0.359375q-0.953125 0 -1.796875 0.359375q-0.84375 0.359375 -1.46875 1.015625q-0.640625 0.671875 -1.015625 1.609375q-0.359375 0.9375 -0.359375 2.09375l0 0.375q0 1.0 0.34375 1.875q0.359375 0.875 1.0 1.515625q0.65625 0.640625 1.5625 1.015625q0.90625 0.359375 2.0 0.359375zm-0.265625 -8.453125q0.546875 0 0.953125 0.1875q0.421875 0.1875 0.6875 0.484375q0.28125 0.328125 0.4375 0.75q0.15625 0.421875 0.15625 0.84375l0 0.15625l-4.625 0q0.09375 -0.5625 0.296875 -1.015625q0.21875 -0.453125 0.53125 -0.765625q0.296875 -0.3125 0.6875 -0.46875q0.40625 -0.171875 0.875 -0.171875zm120.58879 2.875l0 0.15625q0 1.296875 0.203125 2.4375q0.203125 1.125 0.53125 2.09375q0.34375 0.96875 0.796875 1.765625q0.453125 0.8125 0.953125 1.421875q0.5 0.625 1.015625 1.046875q0.515625 0.4375 1.0 0.671875l0.4375 -1.21875q-0.359375 -0.28125 -0.734375 -0.703125q-0.359375 -0.40625 -0.6875 -0.953125q-0.328125 -0.546875 -0.625 -1.25q-0.28125 -0.703125 -0.5 -1.515625q-0.171875 -0.6875 -0.296875 -1.65625q-0.125 -0.984375 -0.125 -2.125l0 -0.1875q0 -1.171875 0.125 -2.171875q0.140625 -1.0 0.359375 -1.828125q0.25 -0.890625 0.59375 -1.625q0.34375 -0.75 0.734375 -1.3125q0.28125 -0.390625 0.5625 -0.703125q0.296875 -0.3125 0.59375 -0.53125l-0.4375 -1.265625q-0.484375 0.234375 -1.0 0.671875q-0.515625 0.4375 -1.015625 1.046875q-0.5 0.625 -0.953125 1.4375q-0.453125 0.796875 -0.796875 1.75q-0.328125 0.96875 -0.53125 2.125q-0.203125 1.140625 -0.203125 2.421875z" fill-rule="nonzero"/><path fill="#000000" d="m271.26907 54.405193l-0.015625 0.1875q-0.078125 0.671875 -0.015625 1.3125q0.078125 0.640625 0.28125 1.21875q0.171875 0.421875 0.40625 0.78125q0.234375 0.359375 0.546875 0.703125q0.421875 0.40625 1.0625 0.671875q0.65625 0.25 1.453125 0.265625q1.09375 0.03125 1.984375 -0.375q0.890625 -0.40625 1.546875 -1.09375q0.65625 -0.703125 1.0625 -1.625q0.421875 -0.921875 0.546875 -1.9375l0.015625 -0.203125q0.078125 -0.671875 0.015625 -1.3125q-0.0625 -0.65625 -0.28125 -1.234375q-0.15625 -0.453125 -0.4375 -0.859375q-0.265625 -0.40625 -0.625 -0.734375q-0.4375 -0.375 -1.046875 -0.609375q-0.59375 -0.234375 -1.359375 -0.234375q-1.09375 -0.03125 -1.984375 0.375q-0.875 0.390625 -1.515625 1.0625q-0.6875 0.703125 -1.109375 1.65625q-0.40625 0.9375 -0.53125 1.984375zm2.09375 0.1875l0.03125 -0.1875q0.0625 -0.578125 0.265625 -1.171875q0.21875 -0.609375 0.5625 -1.09375q0.34375 -0.484375 0.859375 -0.78125q0.515625 -0.296875 1.1875 -0.28125q0.59375 0.03125 0.953125 0.3125q0.375 0.28125 0.578125 0.71875q0.21875 0.515625 0.234375 1.109375q0.03125 0.578125 -0.015625 1.109375l-0.015625 0.1875q-0.078125 0.515625 -0.28125 1.140625q-0.203125 0.625 -0.546875 1.09375q-0.359375 0.484375 -0.875 0.78125q-0.515625 0.296875 -1.1875 0.28125q-0.609375 -0.03125 -0.984375 -0.3125q-0.375 -0.296875 -0.546875 -0.75q-0.203125 -0.46875 -0.234375 -1.046875q-0.03125 -0.578125 0.015625 -1.109375zm17.59024 -0.125l0.015625 -0.1875q0.0625 -0.5625 0.046875 -1.140625q-0.015625 -0.578125 -0.125 -1.125q-0.125 -0.546875 -0.34375 -1.03125q-0.21875 -0.484375 -0.578125 -0.859375q-0.359375 -0.359375 -0.875 -0.5625q-0.5 -0.21875 -1.171875 -0.234375q-0.5 -0.015625 -0.96875 0.109375q-0.453125 0.109375 -0.84375 0.359375q-0.234375 0.140625 -0.453125 0.328125q-0.21875 0.171875 -0.421875 0.390625l0.15625 -1.015625l-1.9375 0l-2.375 13.65625l2.140625 0l0.875 -4.703125q0.171875 0.203125 0.375 0.375q0.203125 0.171875 0.421875 0.296875q0.34375 0.203125 0.75 0.3125q0.40625 0.109375 0.859375 0.109375q0.65625 0.015625 1.21875 -0.171875q0.5625 -0.171875 1.015625 -0.515625q0.515625 -0.359375 0.90625 -0.890625q0.40625 -0.546875 0.6875 -1.15625q0.234375 -0.5625 0.390625 -1.15625q0.171875 -0.59375 0.234375 -1.1875zm-2.109375 -0.1875l-0.03125 0.1875q-0.046875 0.359375 -0.140625 0.75q-0.078125 0.390625 -0.234375 0.75q-0.171875 0.40625 -0.421875 0.78125q-0.234375 0.359375 -0.5625 0.609375q-0.28125 0.203125 -0.640625 0.328125q-0.359375 0.109375 -0.78125 0.109375q-0.3125 -0.015625 -0.59375 -0.09375q-0.265625 -0.078125 -0.484375 -0.234375q-0.203125 -0.15625 -0.359375 -0.34375q-0.140625 -0.203125 -0.25 -0.484375l0.765625 -4.390625q0.171875 -0.234375 0.359375 -0.421875q0.203125 -0.203125 0.421875 -0.34375q0.28125 -0.1875 0.609375 -0.28125q0.328125 -0.09375 0.703125 -0.09375q0.40625 0.015625 0.671875 0.15625q0.28125 0.125 0.484375 0.34375q0.1875 0.21875 0.296875 0.515625q0.109375 0.296875 0.15625 0.625q0.0625 0.375 0.0625 0.78125q0 0.390625 -0.03125 0.75zm10.2152405 -7.1875l-2.125 0l-0.421875 2.40625l-2.3125 0l-0.296875 1.640625l2.328125 0l-0.8125 4.84375q-0.0625 0.734375 0.0625 1.375q0.140625 0.640625 0.484375 1.125q0.328125 0.46875 0.890625 0.765625q0.5625 0.28125 1.359375 0.296875q0.6875 0.015625 1.4375 -0.109375q0.765625 -0.109375 1.390625 -0.453125l-0.109375 -1.515625q-0.515625 0.109375 -1.03125 0.1875q-0.5 0.078125 -1.015625 0.0625q-0.4375 -0.015625 -0.71875 -0.15625q-0.265625 -0.140625 -0.40625 -0.40625q-0.15625 -0.234375 -0.203125 -0.5625q-0.03125 -0.34375 0.015625 -0.734375l0.78125 -4.71875l3.59375 0l0.28125 -1.640625l-3.59375 0l0.421875 -2.40625zm6.7621155 2.40625l-0.3125 1.8125l2.9375 0l-1.078125 6.25l-2.9375 0l-0.3125 1.796875l7.890625 0l0.328125 -1.796875l-2.828125 0l1.40625 -8.0625l-5.09375 0zm3.1875 -2.515625q0 0.546875 0.359375 0.859375q0.359375 0.3125 0.890625 0.296875q0.515625 0 0.875 -0.328125q0.359375 -0.34375 0.359375 -0.890625q0 -0.546875 -0.359375 -0.875q-0.359375 -0.328125 -0.875 -0.3125q-0.53125 0.015625 -0.890625 0.375q-0.34375 0.34375 -0.359375 0.875zm6.0589905 7.421875l-0.015625 0.1875q-0.078125 0.671875 -0.015625 1.3125q0.078125 0.640625 0.28125 1.21875q0.171875 0.421875 0.40625 0.78125q0.234375 0.359375 0.546875 0.703125q0.421875 0.40625 1.0625 0.671875q0.65625 0.25 1.453125 0.265625q1.09375 0.03125 1.984375 -0.375q0.890625 -0.40625 1.546875 -1.09375q0.65625 -0.703125 1.0625 -1.625q0.421875 -0.921875 0.546875 -1.9375l0.015625 -0.203125q0.078125 -0.671875 0.015625 -1.3125q-0.0625 -0.65625 -0.28125 -1.234375q-0.15625 -0.453125 -0.4375 -0.859375q-0.265625 -0.40625 -0.625 -0.734375q-0.4375 -0.375 -1.046875 -0.609375q-0.59375 -0.234375 -1.359375 -0.234375q-1.09375 -0.03125 -1.984375 0.375q-0.875 0.390625 -1.515625 1.0625q-0.6875 0.703125 -1.109375 1.65625q-0.40625 0.9375 -0.53125 1.984375zm2.09375 0.1875l0.03125 -0.1875q0.0625 -0.578125 0.265625 -1.171875q0.21875 -0.609375 0.5625 -1.09375q0.34375 -0.484375 0.859375 -0.78125q0.515625 -0.296875 1.1875 -0.28125q0.59375 0.03125 0.953125 0.3125q0.375 0.28125 0.578125 0.71875q0.21875 0.515625 0.234375 1.109375q0.03125 0.578125 -0.015625 1.109375l-0.015625 0.1875q-0.078125 0.515625 -0.28125 1.140625q-0.203125 0.625 -0.546875 1.09375q-0.359375 0.484375 -0.875 0.78125q-0.515625 0.296875 -1.1875 0.28125q-0.609375 -0.03125 -0.984375 -0.3125q-0.375 -0.296875 -0.546875 -0.75q-0.203125 -0.46875 -0.234375 -1.046875q-0.03125 -0.578125 0.015625 -1.109375zm8.3558655 4.765625l2.140625 0l1.21875 -7.046875q0.21875 -0.265625 0.46875 -0.484375q0.25 -0.234375 0.515625 -0.390625q0.296875 -0.15625 0.609375 -0.234375q0.328125 -0.09375 0.703125 -0.09375q0.484375 0.015625 0.8125 0.1875q0.328125 0.15625 0.5 0.4375q0.171875 0.28125 0.21875 0.671875q0.046875 0.375 0 0.828125l-1.03125 6.125l2.125 0l1.015625 -6.109375q0.09375 -0.75 -0.015625 -1.46875q-0.109375 -0.71875 -0.421875 -1.265625q-0.328125 -0.53125 -0.890625 -0.84375q-0.5625 -0.328125 -1.40625 -0.34375q-0.53125 -0.015625 -1.015625 0.125q-0.484375 0.125 -0.90625 0.390625q-0.34375 0.203125 -0.640625 0.484375q-0.296875 0.265625 -0.5625 0.59375l0.1875 -1.421875l-1.90625 0l-1.71875 9.859375zm17.168365 0l2.125 0l0 -0.15625q-0.15625 -0.515625 -0.140625 -1.046875q0.03125 -0.53125 0.125 -1.0625l0.71875 -4.390625q0.078125 -0.8125 -0.171875 -1.4375q-0.25 -0.640625 -0.734375 -1.0625q-0.5 -0.421875 -1.171875 -0.640625q-0.671875 -0.234375 -1.421875 -0.25q-0.71875 -0.015625 -1.453125 0.171875q-0.734375 0.171875 -1.328125 0.546875q-0.609375 0.375 -1.015625 0.96875q-0.40625 0.578125 -0.46875 1.359375l2.125 -0.015625q0.0625 -0.34375 0.234375 -0.59375q0.1875 -0.265625 0.4375 -0.4375q0.25 -0.171875 0.5625 -0.25q0.3125 -0.09375 0.671875 -0.078125q0.40625 0 0.71875 0.125q0.328125 0.109375 0.53125 0.328125q0.21875 0.21875 0.3125 0.53125q0.09375 0.3125 0.046875 0.71875l-0.125 0.671875l-1.609375 -0.015625q-0.5625 0 -1.125 0.078125q-0.5625 0.0625 -1.09375 0.21875q-0.53125 0.15625 -1.0 0.40625q-0.46875 0.25 -0.828125 0.625q-0.359375 0.375 -0.59375 0.875q-0.21875 0.484375 -0.25 1.140625q-0.03125 0.65625 0.1875 1.1875q0.234375 0.515625 0.65625 0.875q0.40625 0.375 0.953125 0.578125q0.5625 0.203125 1.1875 0.21875q0.546875 0 1.046875 -0.140625q0.5 -0.125 0.9375 -0.390625q0.234375 -0.125 0.453125 -0.28125q0.21875 -0.171875 0.421875 -0.359375q-0.015625 0.25 -0.015625 0.5q0.015625 0.234375 0.09375 0.484375zm-2.4375 -1.5625q-0.3125 0 -0.578125 -0.078125q-0.25 -0.09375 -0.4375 -0.265625q-0.171875 -0.15625 -0.265625 -0.40625q-0.078125 -0.25 -0.03125 -0.578125q0.03125 -0.28125 0.125 -0.5q0.109375 -0.234375 0.265625 -0.421875q0.15625 -0.171875 0.34375 -0.296875q0.203125 -0.125 0.421875 -0.234375q0.40625 -0.171875 0.859375 -0.234375q0.453125 -0.0625 0.875 -0.0625l1.25 0.015625l-0.34375 1.828125q-0.1875 0.265625 -0.453125 0.484375q-0.25 0.21875 -0.515625 0.375q-0.34375 0.1875 -0.734375 0.296875q-0.375 0.09375 -0.78125 0.078125zm10.0121155 -12.4375l-0.328125 1.828125l3.03125 0l-1.796875 10.375l-3.015625 0l-0.328125 1.796875l8.0625 0l0.328125 -1.796875l-2.90625 0l2.125 -12.203125l-5.171875 0z" fill-rule="nonzero"/><path fill="#000000" d="m365.866 54.123943l0 -0.15625q0 -1.3125 -0.21875 -2.421875q-0.203125 -1.109375 -0.53125 -2.078125q-0.34375 -0.984375 -0.796875 -1.78125q-0.453125 -0.796875 -0.96875 -1.421875q-0.515625 -0.625 -1.046875 -1.0625q-0.53125 -0.453125 -1.015625 -0.6875l-0.4375 1.21875q0.28125 0.21875 0.578125 0.546875q0.296875 0.328125 0.578125 0.734375q0.390625 0.578125 0.75 1.359375q0.359375 0.78125 0.609375 1.765625q0.203125 0.75 0.328125 1.71875q0.125 0.953125 0.125 2.09375l0 0.1875q0 1.09375 -0.125 2.046875q-0.109375 0.953125 -0.3125 1.75q-0.203125 0.859375 -0.515625 1.578125q-0.296875 0.71875 -0.640625 1.28125q-0.328125 0.515625 -0.671875 0.90625q-0.34375 0.390625 -0.703125 0.640625l0.4375 1.21875q0.484375 -0.234375 1.015625 -0.671875q0.53125 -0.4375 1.046875 -1.078125q0.5 -0.609375 0.953125 -1.421875q0.46875 -0.796875 0.8125 -1.765625q0.34375 -0.96875 0.546875 -2.09375q0.203125 -1.140625 0.203125 -2.40625z" fill-rule="nonzero"/><path fill="#000000" d="m74.54565 79.79582q-0.6875 0 -1.140625 -0.265625q-0.453125 -0.28125 -0.71875 -0.734375q-0.265625 -0.4375 -0.390625 -1.015625q-0.109375 -0.578125 -0.109375 -1.1875l0 -0.3125q0 -0.59375 0.109375 -1.171875q0.125 -0.578125 0.40625 -1.015625q0.265625 -0.453125 0.703125 -0.71875q0.453125 -0.28125 1.140625 -0.28125q0.453125 0 0.828125 0.15625q0.390625 0.140625 0.671875 0.40625q0.28125 0.265625 0.421875 0.625q0.15625 0.359375 0.15625 0.75l2.046875 0q0.015625 -0.8125 -0.296875 -1.5q-0.296875 -0.6875 -0.84375 -1.171875q-0.546875 -0.484375 -1.3125 -0.75q-0.765625 -0.28125 -1.65625 -0.28125q-1.125 0 -1.984375 0.390625q-0.84375 0.390625 -1.421875 1.0625q-0.578125 0.6875 -0.859375 1.59375q-0.28125 0.890625 -0.28125 1.90625l0 0.3125q0 1.015625 0.28125 1.921875q0.296875 0.890625 0.875 1.5625q0.5625 0.6875 1.40625 1.078125q0.859375 0.390625 2.0 0.390625q0.8125 0 1.546875 -0.265625q0.75 -0.265625 1.328125 -0.734375q0.5625 -0.46875 0.890625 -1.09375q0.34375 -0.640625 0.328125 -1.359375l-2.046875 0q0 0.375 -0.171875 0.6875q-0.171875 0.3125 -0.453125 0.53125q-0.28125 0.234375 -0.671875 0.359375q-0.375 0.125 -0.78125 0.125zm6.508072 -3.453125l0 0.1875q0 1.078125 0.296875 2.0q0.3125 0.90625 0.90625 1.578125q0.59375 0.671875 1.4375 1.0625q0.859375 0.375 1.953125 0.375q1.0625 0 1.90625 -0.375q0.859375 -0.390625 1.453125 -1.0625q0.578125 -0.671875 0.890625 -1.578125q0.3125 -0.921875 0.3125 -2.0l0 -0.1875q0 -1.078125 -0.3125 -1.984375q-0.3125 -0.921875 -0.890625 -1.59375q-0.59375 -0.6875 -1.453125 -1.0625q-0.84375 -0.375 -1.9375 -0.375q-1.078125 0 -1.921875 0.375q-0.84375 0.375 -1.4375 1.0625q-0.59375 0.671875 -0.90625 1.59375q-0.296875 0.90625 -0.296875 1.984375zm2.171875 0.1875l0 -0.1875q0 -0.65625 0.140625 -1.234375q0.140625 -0.59375 0.4375 -1.046875q0.296875 -0.453125 0.75 -0.703125q0.453125 -0.265625 1.0625 -0.265625q0.640625 0 1.078125 0.265625q0.453125 0.25 0.765625 0.703125q0.28125 0.453125 0.421875 1.046875q0.140625 0.578125 0.140625 1.234375l0 0.1875q0 0.671875 -0.140625 1.265625q-0.140625 0.578125 -0.421875 1.03125q-0.296875 0.4375 -0.75 0.703125q-0.453125 0.265625 -1.0625 0.265625q-0.640625 0 -1.09375 -0.265625q-0.453125 -0.265625 -0.75 -0.703125q-0.296875 -0.453125 -0.4375 -1.03125q-0.140625 -0.59375 -0.140625 -1.265625zm9.414322 4.828125l2.1875 0l0 -7.03125q0.140625 -0.25 0.328125 -0.453125q0.203125 -0.21875 0.421875 -0.359375q0.28125 -0.1875 0.625 -0.296875q0.34375 -0.109375 0.75 -0.109375q0.46875 0 0.84375 0.109375q0.375 0.109375 0.640625 0.359375q0.265625 0.234375 0.40625 0.65625q0.140625 0.40625 0.140625 1.015625l0 6.109375l2.171875 0l0 -6.15625q0 -1.03125 -0.25 -1.765625q-0.25 -0.734375 -0.6875 -1.203125q-0.453125 -0.46875 -1.078125 -0.6875q-0.625 -0.21875 -1.390625 -0.21875q-0.5625 0 -1.09375 0.171875q-0.515625 0.15625 -0.953125 0.453125q-0.265625 0.1875 -0.515625 0.4375q-0.234375 0.234375 -0.4375 0.515625l-0.140625 -1.40625l-1.96875 0l0 9.859375zm17.648697 -2.671875q0 0.234375 -0.109375 0.4375q-0.109375 0.1875 -0.3125 0.359375q-0.265625 0.203125 -0.6875 0.328125q-0.421875 0.109375 -0.984375 0.109375q-0.421875 0 -0.828125 -0.078125q-0.40625 -0.09375 -0.734375 -0.296875q-0.328125 -0.1875 -0.546875 -0.5q-0.203125 -0.3125 -0.234375 -0.78125l-2.109375 0q0 0.609375 0.28125 1.203125q0.296875 0.59375 0.859375 1.046875q0.5625 0.46875 1.390625 0.75q0.828125 0.28125 1.890625 0.28125q0.953125 0 1.734375 -0.21875q0.78125 -0.21875 1.34375 -0.609375q0.5625 -0.390625 0.859375 -0.9375q0.3125 -0.546875 0.3125 -1.203125q0 -0.671875 -0.296875 -1.15625q-0.28125 -0.5 -0.8125 -0.859375q-0.53125 -0.34375 -1.28125 -0.578125q-0.75 -0.25 -1.640625 -0.40625q-0.65625 -0.109375 -1.078125 -0.25q-0.421875 -0.140625 -0.65625 -0.296875q-0.25 -0.15625 -0.359375 -0.359375q-0.09375 -0.203125 -0.09375 -0.46875q0 -0.234375 0.109375 -0.453125q0.125 -0.234375 0.359375 -0.390625q0.234375 -0.1875 0.59375 -0.296875q0.375 -0.109375 0.875 -0.109375q0.53125 0 0.9375 0.15625q0.40625 0.140625 0.65625 0.375q0.21875 0.203125 0.328125 0.453125q0.125 0.25 0.125 0.515625l2.171875 0q0 -0.65625 -0.296875 -1.234375q-0.28125 -0.578125 -0.828125 -1.0q-0.546875 -0.421875 -1.328125 -0.65625q-0.78125 -0.234375 -1.765625 -0.234375q-0.921875 0 -1.671875 0.234375q-0.75 0.234375 -1.28125 0.640625q-0.53125 0.40625 -0.828125 0.953125q-0.28125 0.546875 -0.28125 1.140625q0 0.625 0.28125 1.109375q0.28125 0.46875 0.78125 0.8125q0.515625 0.375 1.21875 0.625q0.703125 0.25 1.5625 0.421875q0.6875 0.125 1.140625 0.28125q0.453125 0.140625 0.734375 0.3125q0.265625 0.171875 0.375 0.375q0.125 0.203125 0.125 0.453125zm9.117447 -9.59375l-2.1875 0l0 2.40625l-2.375 0l0 1.640625l2.375 0l0 4.84375q0 0.9375 0.25 1.625q0.25 0.671875 0.703125 1.09375q0.4375 0.4375 1.0625 0.640625q0.625 0.203125 1.375 0.203125q0.40625 0 0.8125 -0.046875q0.421875 -0.03125 0.8125 -0.109375q0.375 -0.0625 0.703125 -0.171875q0.34375 -0.109375 0.578125 -0.25l-0.234375 -1.5q-0.171875 0.03125 -0.40625 0.078125q-0.234375 0.046875 -0.515625 0.09375q-0.28125 0.046875 -0.578125 0.078125q-0.296875 0.015625 -0.59375 0.015625q-0.390625 0 -0.71875 -0.078125q-0.328125 -0.09375 -0.5625 -0.3125q-0.234375 -0.21875 -0.375 -0.578125q-0.125 -0.375 -0.125 -0.921875l0 -4.703125l3.703125 0l0 -1.640625l-3.703125 0l0 -2.40625zm11.429939 12.453125q1.4375 0 2.453125 -0.5625q1.015625 -0.578125 1.5 -1.28125l-1.15625 -1.125q-0.453125 0.578125 -1.15625 0.890625q-0.703125 0.3125 -1.515625 0.3125q-0.59375 0 -1.09375 -0.203125q-0.484375 -0.203125 -0.859375 -0.5625q-0.359375 -0.34375 -0.578125 -0.78125q-0.203125 -0.4375 -0.296875 -1.078125l0 -0.046875l6.828125 0l0 -0.9375q0 -1.0625 -0.28125 -1.953125q-0.28125 -0.890625 -0.84375 -1.546875q-0.546875 -0.625 -1.375 -0.984375q-0.8125 -0.359375 -1.890625 -0.359375q-0.953125 0 -1.796875 0.359375q-0.8437424 0.359375 -1.4687424 1.015625q-0.640625 0.671875 -1.015625 1.609375q-0.359375 0.9375 -0.359375 2.09375l0 0.375q0 1.0 0.34375 1.875q0.359375 0.875 1.0 1.515625q0.65625 0.640625 1.5624924 1.015625q0.90625 0.359375 2.0 0.359375zm-0.265625 -8.453125q0.546875 0 0.953125 0.1875q0.421875 0.1875 0.6875 0.484375q0.28125 0.328125 0.4375 0.75q0.15625 0.421875 0.15625 0.84375l0 0.15625l-4.625 0q0.09375 -0.5625 0.296875 -1.015625q0.21875 -0.453125 0.53125 -0.765625q0.296875 -0.3125 0.6875 -0.46875q0.40625 -0.171875 0.875 -0.171875zm11.179947 1.71875l-2.328125 -3.3125l-2.390625 0l3.453125 4.859375l-3.578125 5.0l2.421875 0l2.4375 -3.4375l2.46875 3.4375l2.40625 0l-3.578125 -5.0l3.46875 -4.859375l-2.421875 0l-2.359375 3.3125zm6.898697 10.34375l2.171875 0l0 -4.6875q0.171875 0.1875 0.375 0.359375q0.203125 0.15625 0.421875 0.28125q0.359375 0.21875 0.796875 0.328125q0.453125 0.109375 0.984375 0.109375q0.921875 0 1.640625 -0.375q0.71875 -0.390625 1.21875 -1.0625q0.484375 -0.671875 0.734375 -1.59375q0.25 -0.921875 0.25 -1.984375l0 -0.1875q0 -1.109375 -0.25 -2.03125q-0.25 -0.9375 -0.734375 -1.59375q-0.5 -0.671875 -1.21875 -1.03125q-0.71875 -0.359375 -1.671875 -0.359375q-0.484375 0 -0.921875 0.109375q-0.421875 0.09375 -0.765625 0.28125q-0.28125 0.15625 -0.515625 0.359375q-0.234375 0.1875 -0.4375 0.4375l-0.078125 -1.015625l-2.0 0l0 13.65625zm6.421875 -8.8125l0 0.1875q0 0.65625 -0.125 1.25q-0.125 0.578125 -0.40625 1.03125q-0.28125 0.453125 -0.71875 0.71875q-0.421875 0.25 -1.03125 0.25q-0.375 0 -0.6875 -0.078125q-0.3125 -0.09375 -0.546875 -0.234375q-0.25 -0.15625 -0.4375 -0.359375q-0.171875 -0.21875 -0.296875 -0.46875l0 -4.390625q0.140625 -0.265625 0.328125 -0.484375q0.203125 -0.21875 0.46875 -0.375q0.234375 -0.125 0.515625 -0.203125q0.296875 -0.078125 0.640625 -0.078125q0.609375 0 1.046875 0.265625q0.4375 0.25 0.71875 0.6875q0.265625 0.4375 0.390625 1.03125q0.140625 0.578125 0.140625 1.25zm11.554947 -5.015625q-1.015625 0 -1.859375 0.46875q-0.84375 0.46875 -1.4375 1.296875l-0.015625 -0.21875l-0.09375 -1.375l-2.03125 0l0 9.859375l2.171875 0l0 -6.078125q0.171875 -0.4375 0.421875 -0.78125q0.265625 -0.34375 0.625 -0.5625q0.34375 -0.21875 0.78125 -0.328125q0.4375 -0.109375 0.984375 -0.109375q0.484375 0 0.96875 0.0625q0.484375 0.046875 0.984375 0.15625l0.3125 -2.15625q-0.28125 -0.09375 -0.78125 -0.15625q-0.5 -0.078125 -1.03125 -0.078125zm95.7289 4.640625l0 0.15625q0 1.296875 0.203125 2.4375q0.203125 1.125 0.53125 2.09375q0.34375 0.96875 0.796875 1.765625q0.453125 0.8125 0.953125 1.421875q0.5 0.625 1.015625 1.046875q0.515625 0.4375 1.0 0.671875l0.4375 -1.21875q-0.359375 -0.28125 -0.734375 -0.703125q-0.359375 -0.40625 -0.6875 -0.953125q-0.328125 -0.546875 -0.625 -1.25q-0.28125 -0.703125 -0.5 -1.515625q-0.171875 -0.6875 -0.296875 -1.65625q-0.125 -0.984375 -0.125 -2.125l0 -0.1875q0 -1.171875 0.125 -2.171875q0.140625 -1.0 0.359375 -1.828125q0.25 -0.890625 0.59375 -1.625q0.34375 -0.75 0.734375 -1.3125q0.28125 -0.390625 0.5625 -0.703125q0.296875 -0.3125 0.59375 -0.53125l-0.4375 -1.265625q-0.484375 0.234375 -1.0 0.671875q-0.515625 0.4375 -1.015625 1.046875q-0.5 0.625 -0.953125 1.4375q-0.453125 0.796875 -0.796875 1.75q-0.328125 0.96875 -0.53125 2.125q-0.203125 1.140625 -0.203125 2.421875z" fill-rule="nonzero"/><path fill="#000000" d="m271.26907 76.4052l-0.015625 0.1875q-0.078125 0.671875 -0.015625 1.3125q0.078125 0.640625 0.28125 1.21875q0.171875 0.421875 0.40625 0.78125q0.234375 0.359375 0.546875 0.703125q0.421875 0.40625 1.0625 0.671875q0.65625 0.25 1.453125 0.265625q1.09375 0.03125 1.984375 -0.375q0.890625 -0.40625 1.546875 -1.09375q0.65625 -0.703125 1.0625 -1.625q0.421875 -0.921875 0.546875 -1.9375l0.015625 -0.203125q0.078125 -0.671875 0.015625 -1.3125q-0.0625 -0.65625 -0.28125 -1.234375q-0.15625 -0.453125 -0.4375 -0.859375q-0.265625 -0.40625 -0.625 -0.734375q-0.4375 -0.375 -1.046875 -0.609375q-0.59375 -0.234375 -1.359375 -0.234375q-1.09375 -0.03125 -1.984375 0.375q-0.875 0.390625 -1.515625 1.0625q-0.6875 0.703125 -1.109375 1.65625q-0.40625 0.9375 -0.53125 1.984375zm2.09375 0.1875l0.03125 -0.1875q0.0625 -0.578125 0.265625 -1.171875q0.21875 -0.609375 0.5625 -1.09375q0.34375 -0.484375 0.859375 -0.78125q0.515625 -0.296875 1.1875 -0.28125q0.59375 0.03125 0.953125 0.3125q0.375 0.28125 0.578125 0.71875q0.21875 0.515625 0.234375 1.109375q0.03125 0.578125 -0.015625 1.109375l-0.015625 0.1875q-0.078125 0.515625 -0.28125 1.140625q-0.203125 0.625 -0.546875 1.09375q-0.359375 0.484375 -0.875 0.78125q-0.515625 0.296875 -1.1875 0.28125q-0.609375 -0.03125 -0.984375 -0.3125q-0.375 -0.296875 -0.546875 -0.75q-0.203125 -0.46875 -0.234375 -1.046875q-0.03125 -0.578125 0.015625 -1.109375zm17.59024 -0.125l0.015625 -0.1875q0.0625 -0.5625 0.046875 -1.140625q-0.015625 -0.578125 -0.125 -1.125q-0.125 -0.546875 -0.34375 -1.03125q-0.21875 -0.484375 -0.578125 -0.859375q-0.359375 -0.359375 -0.875 -0.5625q-0.5 -0.21875 -1.171875 -0.234375q-0.5 -0.015625 -0.96875 0.109375q-0.453125 0.109375 -0.84375 0.359375q-0.234375 0.140625 -0.453125 0.328125q-0.21875 0.171875 -0.421875 0.390625l0.15625 -1.015625l-1.9375 0l-2.375 13.65625l2.140625 0l0.875 -4.703125q0.171875 0.203125 0.375 0.375q0.203125 0.171875 0.421875 0.296875q0.34375 0.203125 0.75 0.3125q0.40625 0.109375 0.859375 0.109375q0.65625 0.015625 1.21875 -0.171875q0.5625 -0.171875 1.015625 -0.515625q0.515625 -0.359375 0.90625 -0.890625q0.40625 -0.546875 0.6875 -1.15625q0.234375 -0.5625 0.390625 -1.15625q0.171875 -0.59375 0.234375 -1.1875zm-2.109375 -0.1875l-0.03125 0.1875q-0.046875 0.359375 -0.140625 0.75q-0.078125 0.390625 -0.234375 0.75q-0.171875 0.40625 -0.421875 0.78125q-0.234375 0.359375 -0.5625 0.609375q-0.28125 0.203125 -0.640625 0.328125q-0.359375 0.109375 -0.78125 0.109375q-0.3125 -0.015625 -0.59375 -0.09375q-0.265625 -0.078125 -0.484375 -0.234375q-0.203125 -0.15625 -0.359375 -0.34375q-0.140625 -0.203125 -0.25 -0.484375l0.765625 -4.390625q0.171875 -0.234375 0.359375 -0.421875q0.203125 -0.203125 0.421875 -0.34375q0.28125 -0.1875 0.609375 -0.28125q0.328125 -0.09375 0.703125 -0.09375q0.40625 0.015625 0.671875 0.15625q0.28125 0.125 0.484375 0.34375q0.1875 0.21875 0.296875 0.515625q0.109375 0.296875 0.15625 0.625q0.0625 0.375 0.0625 0.78125q0 0.390625 -0.03125 0.75zm10.2152405 -7.1875l-2.125 0l-0.421875 2.40625l-2.3125 0l-0.296875 1.640625l2.328125 0l-0.8125 4.84375q-0.0625 0.734375 0.0625 1.375q0.140625 0.640625 0.484375 1.125q0.328125 0.46875 0.890625 0.765625q0.5625 0.28125 1.359375 0.296875q0.6875 0.015625 1.4375 -0.109375q0.765625 -0.109375 1.390625 -0.453125l-0.109375 -1.515625q-0.515625 0.109375 -1.03125 0.1875q-0.5 0.078125 -1.015625 0.0625q-0.4375 -0.015625 -0.71875 -0.15625q-0.265625 -0.140625 -0.40625 -0.40625q-0.15625 -0.234375 -0.203125 -0.5625q-0.03125 -0.34375 0.015625 -0.734375l0.78125 -4.71875l3.59375 0l0.28125 -1.640625l-3.59375 0l0.421875 -2.40625zm6.7621155 2.40625l-0.3125 1.8125l2.9375 0l-1.078125 6.25l-2.9375 0l-0.3125 1.796875l7.890625 0l0.328125 -1.796875l-2.828125 0l1.40625 -8.0625l-5.09375 0zm3.1875 -2.515625q0 0.546875 0.359375 0.859375q0.359375 0.3125 0.890625 0.296875q0.515625 0 0.875 -0.328125q0.359375 -0.34375 0.359375 -0.890625q0 -0.546875 -0.359375 -0.875q-0.359375 -0.328125 -0.875 -0.3125q-0.53125 0.015625 -0.890625 0.375q-0.34375 0.34375 -0.359375 0.875zm6.0589905 7.421875l-0.015625 0.1875q-0.078125 0.671875 -0.015625 1.3125q0.078125 0.640625 0.28125 1.21875q0.171875 0.421875 0.40625 0.78125q0.234375 0.359375 0.546875 0.703125q0.421875 0.40625 1.0625 0.671875q0.65625 0.25 1.453125 0.265625q1.09375 0.03125 1.984375 -0.375q0.890625 -0.40625 1.546875 -1.09375q0.65625 -0.703125 1.0625 -1.625q0.421875 -0.921875 0.546875 -1.9375l0.015625 -0.203125q0.078125 -0.671875 0.015625 -1.3125q-0.0625 -0.65625 -0.28125 -1.234375q-0.15625 -0.453125 -0.4375 -0.859375q-0.265625 -0.40625 -0.625 -0.734375q-0.4375 -0.375 -1.046875 -0.609375q-0.59375 -0.234375 -1.359375 -0.234375q-1.09375 -0.03125 -1.984375 0.375q-0.875 0.390625 -1.515625 1.0625q-0.6875 0.703125 -1.109375 1.65625q-0.40625 0.9375 -0.53125 1.984375zm2.09375 0.1875l0.03125 -0.1875q0.0625 -0.578125 0.265625 -1.171875q0.21875 -0.609375 0.5625 -1.09375q0.34375 -0.484375 0.859375 -0.78125q0.515625 -0.296875 1.1875 -0.28125q0.59375 0.03125 0.953125 0.3125q0.375 0.28125 0.578125 0.71875q0.21875 0.515625 0.234375 1.109375q0.03125 0.578125 -0.015625 1.109375l-0.015625 0.1875q-0.078125 0.515625 -0.28125 1.140625q-0.203125 0.625 -0.546875 1.09375q-0.359375 0.484375 -0.875 0.78125q-0.515625 0.296875 -1.1875 0.28125q-0.609375 -0.03125 -0.984375 -0.3125q-0.375 -0.296875 -0.546875 -0.75q-0.203125 -0.46875 -0.234375 -1.046875q-0.03125 -0.578125 0.015625 -1.109375zm8.3558655 4.765625l2.140625 0l1.21875 -7.046875q0.21875 -0.265625 0.46875 -0.484375q0.25 -0.234375 0.515625 -0.390625q0.296875 -0.15625 0.609375 -0.234375q0.328125 -0.09375 0.703125 -0.09375q0.484375 0.015625 0.8125 0.1875q0.328125 0.15625 0.5 0.4375q0.171875 0.28125 0.21875 0.671875q0.046875 0.375 0 0.828125l-1.03125 6.125l2.125 0l1.015625 -6.109375q0.09375 -0.75 -0.015625 -1.46875q-0.109375 -0.71875 -0.421875 -1.265625q-0.328125 -0.53125 -0.890625 -0.84375q-0.5625 -0.328125 -1.40625 -0.34375q-0.53125 -0.015625 -1.015625 0.125q-0.484375 0.125 -0.90625 0.390625q-0.34375 0.203125 -0.640625 0.484375q-0.296875 0.265625 -0.5625 0.59375l0.1875 -1.421875l-1.90625 0l-1.71875 9.859375zm17.168365 0l2.125 0l0 -0.15625q-0.15625 -0.515625 -0.140625 -1.046875q0.03125 -0.53125 0.125 -1.0625l0.71875 -4.390625q0.078125 -0.8125 -0.171875 -1.4375q-0.25 -0.640625 -0.734375 -1.0625q-0.5 -0.421875 -1.171875 -0.640625q-0.671875 -0.234375 -1.421875 -0.25q-0.71875 -0.015625 -1.453125 0.171875q-0.734375 0.171875 -1.328125 0.546875q-0.609375 0.375 -1.015625 0.96875q-0.40625 0.578125 -0.46875 1.359375l2.125 -0.015625q0.0625 -0.34375 0.234375 -0.59375q0.1875 -0.265625 0.4375 -0.4375q0.25 -0.171875 0.5625 -0.25q0.3125 -0.09375 0.671875 -0.078125q0.40625 0 0.71875 0.125q0.328125 0.109375 0.53125 0.328125q0.21875 0.21875 0.3125 0.53125q0.09375 0.3125 0.046875 0.71875l-0.125 0.671875l-1.609375 -0.015625q-0.5625 0 -1.125 0.078125q-0.5625 0.0625 -1.09375 0.21875q-0.53125 0.15625 -1.0 0.40625q-0.46875 0.25 -0.828125 0.625q-0.359375 0.375 -0.59375 0.875q-0.21875 0.484375 -0.25 1.140625q-0.03125 0.65625 0.1875 1.1875q0.234375 0.515625 0.65625 0.875q0.40625 0.375 0.953125 0.578125q0.5625 0.203125 1.1875 0.21875q0.546875 0 1.046875 -0.140625q0.5 -0.125 0.9375 -0.390625q0.234375 -0.125 0.453125 -0.28125q0.21875 -0.171875 0.421875 -0.359375q-0.015625 0.25 -0.015625 0.5q0.015625 0.234375 0.09375 0.484375zm-2.4375 -1.5625q-0.3125 0 -0.578125 -0.078125q-0.25 -0.09375 -0.4375 -0.265625q-0.171875 -0.15625 -0.265625 -0.40625q-0.078125 -0.25 -0.03125 -0.578125q0.03125 -0.28125 0.125 -0.5q0.109375 -0.234375 0.265625 -0.421875q0.15625 -0.171875 0.34375 -0.296875q0.203125 -0.125 0.421875 -0.234375q0.40625 -0.171875 0.859375 -0.234375q0.453125 -0.0625 0.875 -0.0625l1.25 0.015625l-0.34375 1.828125q-0.1875 0.265625 -0.453125 0.484375q-0.25 0.21875 -0.515625 0.375q-0.34375 0.1875 -0.734375 0.296875q-0.375 0.09375 -0.78125 0.078125zm10.0121155 -12.4375l-0.328125 1.828125l3.03125 0l-1.796875 10.375l-3.015625 0l-0.328125 1.796875l8.0625 0l0.328125 -1.796875l-2.90625 0l2.125 -12.203125l-5.171875 0z" fill-rule="nonzero"/><path fill="#000000" d="m365.866 76.12395l0 -0.15625q0 -1.3125 -0.21875 -2.421875q-0.203125 -1.109375 -0.53125 -2.078125q-0.34375 -0.984375 -0.796875 -1.78125q-0.453125 -0.796875 -0.96875 -1.421875q-0.515625 -0.625 -1.046875 -1.0625q-0.53125 -0.453125 -1.015625 -0.6875l-0.4375 1.21875q0.28125 0.21875 0.578125 0.546875q0.296875 0.328125 0.578125 0.734375q0.390625 0.578125 0.75 1.359375q0.359375 0.78125 0.609375 1.765625q0.203125 0.75 0.328125 1.71875q0.125 0.953125 0.125 2.09375l0 0.1875q0 1.09375 -0.125 2.046875q-0.109375 0.953125 -0.3125 1.75q-0.203125 0.859375 -0.515625 1.578125q-0.296875 0.71875 -0.640625 1.28125q-0.328125 0.515625 -0.671875 0.90625q-0.34375 0.390625 -0.703125 0.640625l0.4375 1.21875q0.484375 -0.234375 1.015625 -0.671875q0.53125 -0.4375 1.046875 -1.078125q0.5 -0.609375 0.953125 -1.421875q0.46875 -0.796875 0.8125 -1.765625q0.34375 -0.96875 0.546875 -2.09375q0.203125 -1.140625 0.203125 -2.40625z" fill-rule="nonzero"/><path fill="#000000" d="m70.24877 103.35832l2.1875 0l0 -7.03125q0.140625 -0.25 0.328125 -0.453125q0.203125 -0.21875 0.421875 -0.359375q0.28125 -0.1875 0.625 -0.296875q0.34375 -0.109375 0.75 -0.109375q0.46875 0 0.84375 0.109375q0.375 0.109375 0.640625 0.359375q0.265625 0.234375 0.40625 0.65625q0.140625 0.40625 0.140625 1.015625l0 6.109375l2.171875 0l0 -6.15625q0 -1.03125 -0.25 -1.765625q-0.25 -0.734375 -0.6875 -1.203125q-0.453125 -0.46875 -1.078125 -0.6875q-0.625 -0.21875 -1.390625 -0.21875q-0.5625 0 -1.09375 0.171875q-0.515625 0.15625 -0.953125 0.453125q-0.265625 0.1875 -0.515625 0.4375q-0.234375 0.234375 -0.4375 0.515625l-0.140625 -1.40625l-1.96875 0l0 9.859375zm10.804947 -5.015625l0 0.1875q0 1.078125 0.296875 2.0q0.3125 0.90625 0.90625 1.578125q0.59375 0.671875 1.4375 1.0625q0.859375 0.375 1.953125 0.375q1.0625 0 1.90625 -0.375q0.859375 -0.390625 1.453125 -1.0625q0.578125 -0.671875 0.890625 -1.578125q0.3125 -0.921875 0.3125 -2.0l0 -0.1875q0 -1.078125 -0.3125 -1.984375q-0.3125 -0.921875 -0.890625 -1.59375q-0.59375 -0.6875 -1.453125 -1.0625q-0.84375 -0.375 -1.9375 -0.375q-1.078125 0 -1.921875 0.375q-0.84375 0.375 -1.4375 1.0625q-0.59375 0.671875 -0.90625 1.59375q-0.296875 0.90625 -0.296875 1.984375zm2.171875 0.1875l0 -0.1875q0 -0.65625 0.140625 -1.234375q0.140625 -0.59375 0.4375 -1.046875q0.296875 -0.453125 0.75 -0.703125q0.453125 -0.265625 1.0625 -0.265625q0.640625 0 1.078125 0.265625q0.453125 0.25 0.765625 0.703125q0.28125 0.453125 0.421875 1.046875q0.140625 0.578125 0.140625 1.234375l0 0.1875q0 0.671875 -0.140625 1.265625q-0.140625 0.578125 -0.421875 1.03125q-0.296875 0.4375 -0.75 0.703125q-0.453125 0.265625 -1.0625 0.265625q-0.640625 0 -1.09375 -0.265625q-0.453125 -0.265625 -0.75 -0.703125q-0.296875 -0.453125 -0.4375 -1.03125q-0.140625 -0.59375 -0.140625 -1.265625zm14.023697 5.015625q1.4375 0 2.453125 -0.5625q1.015625 -0.578125 1.5 -1.28125l-1.15625 -1.125q-0.453125 0.578125 -1.15625 0.890625q-0.703125 0.3125 -1.515625 0.3125q-0.59375 0 -1.09375 -0.203125q-0.484375 -0.203125 -0.859375 -0.5625q-0.359375 -0.34375 -0.578125 -0.78125q-0.203125 -0.4375 -0.296875 -1.078125l0 -0.046875l6.828125 0l0 -0.9375q0 -1.0625 -0.28125 -1.953125q-0.28125 -0.890625 -0.84375 -1.546875q-0.546875 -0.625 -1.375 -0.984375q-0.8125 -0.359375 -1.890625 -0.359375q-0.953125 0 -1.796875 0.359375q-0.84375 0.359375 -1.46875 1.015625q-0.640625 0.671875 -1.015625 1.609375q-0.359375 0.9375 -0.359375 2.09375l0 0.375q0 1.0 0.34375 1.875q0.359375 0.875 1.0 1.515625q0.65625 0.640625 1.5625 1.015625q0.90625 0.359375 2.0 0.359375zm-0.265625 -8.453125q0.546875 0 0.953125 0.1875q0.421875 0.1875 0.6875 0.484375q0.28125 0.328125 0.4375 0.75q0.15625 0.421875 0.15625 0.84375l0 0.15625l-4.625 0q0.09375 -0.5625 0.296875 -1.015625q0.21875 -0.453125 0.53125 -0.765625q0.296875 -0.3125 0.6875 -0.46875q0.40625 -0.171875 0.875 -0.171875zm11.179947 1.71875l-2.328125 -3.3125l-2.390625 0l3.453125 4.859375l-3.578125 5.0l2.421875 0l2.4375 -3.4375l2.46875 3.4375l2.40625 0l-3.578125 -5.0l3.46875 -4.859375l-2.421875 0l-2.359375 3.3125zm11.164322 4.984375q-0.6875 0 -1.140625 -0.265625q-0.453125 -0.28125 -0.71875 -0.734375q-0.265625 -0.4375 -0.390625 -1.015625q-0.109375 -0.578125 -0.109375 -1.1875l0 -0.3125q0 -0.59375 0.109375 -1.171875q0.125 -0.578125 0.40625 -1.015625q0.265625 -0.453125 0.703125 -0.71875q0.453125 -0.28125 1.140625 -0.28125q0.453125 0 0.828125 0.15625q0.390625 0.140625 0.671875 0.40625q0.28125 0.265625 0.421875 0.625q0.15625 0.359375 0.15625 0.75l2.046875 0q0.015625 -0.8125 -0.296875 -1.5q-0.296875 -0.6875 -0.84375 -1.171875q-0.546875 -0.484375 -1.3125 -0.75q-0.765625 -0.28125 -1.65625 -0.28125q-1.125 0 -1.984375 0.390625q-0.84375 0.390625 -1.421875 1.0625q-0.578125 0.6875 -0.859375 1.59375q-0.28125 0.890625 -0.28125 1.90625l0 0.3125q0 1.015625 0.28125 1.921875q0.296875 0.890625 0.875 1.5625q0.5625 0.6875 1.40625 1.078125q0.859375 0.390625 2.0 0.390625q0.8125 0 1.546875 -0.265625q0.75 -0.265625 1.328125 -0.734375q0.5625 -0.46875 0.890625 -1.09375q0.34375 -0.640625 0.328125 -1.359375l-2.046875 0q0 0.375 -0.171875 0.6875q-0.171875 0.3125 -0.453125 0.53125q-0.28125 0.234375 -0.671875 0.359375q-0.375 0.125 -0.78125 0.125zm11.508064 1.75q1.4375 0 2.453125 -0.5625q1.015625 -0.578125 1.5 -1.28125l-1.15625 -1.125q-0.453125 0.578125 -1.15625 0.890625q-0.703125 0.3125 -1.515625 0.3125q-0.59375 0 -1.09375 -0.203125q-0.484375 -0.203125 -0.859375 -0.5625q-0.359375 -0.34375 -0.578125 -0.78125q-0.203125 -0.4375 -0.296875 -1.078125l0 -0.046875l6.828125 0l0 -0.9375q0 -1.0625 -0.28125 -1.953125q-0.28125 -0.890625 -0.84375 -1.546875q-0.546875 -0.625 -1.375 -0.984375q-0.8125 -0.359375 -1.890625 -0.359375q-0.953125 0 -1.796875 0.359375q-0.8437424 0.359375 -1.4687424 1.015625q-0.640625 0.671875 -1.015625 1.609375q-0.359375 0.9375 -0.359375 2.09375l0 0.375q0 1.0 0.34375 1.875q0.359375 0.875 1.0 1.515625q0.65625 0.640625 1.5624924 1.015625q0.90625 0.359375 2.0 0.359375zm-0.265625 -8.453125q0.546875 0 0.953125 0.1875q0.421875 0.1875 0.6875 0.484375q0.28125 0.328125 0.4375 0.75q0.15625 0.421875 0.15625 0.84375l0 0.15625l-4.625 0q0.09375 -0.5625 0.296875 -1.015625q0.21875 -0.453125 0.53125 -0.765625q0.296875 -0.3125 0.6875 -0.46875q0.40625 -0.171875 0.875 -0.171875zm6.883072 12.0625l2.171875 0l0 -4.6875q0.171875 0.1875 0.375 0.359375q0.203125 0.15625 0.421875 0.28125q0.359375 0.21875 0.796875 0.328125q0.453125 0.109375 0.984375 0.109375q0.921875 0 1.640625 -0.375q0.71875 -0.390625 1.21875 -1.0625q0.484375 -0.671875 0.734375 -1.59375q0.25 -0.921875 0.25 -1.984375l0 -0.1875q0 -1.109375 -0.25 -2.03125q-0.25 -0.9375 -0.734375 -1.59375q-0.5 -0.671875 -1.21875 -1.03125q-0.71875 -0.359375 -1.671875 -0.359375q-0.484375 0 -0.921875 0.109375q-0.421875 0.09375 -0.765625 0.28125q-0.28125 0.15625 -0.515625 0.359375q-0.234375 0.1875 -0.4375 0.4375l-0.078125 -1.015625l-2.0 0l0 13.65625zm6.421875 -8.8125l0 0.1875q0 0.65625 -0.125 1.25q-0.125 0.578125 -0.40625 1.03125q-0.28125 0.453125 -0.71875 0.71875q-0.421875 0.25 -1.03125 0.25q-0.375 0 -0.6875 -0.078125q-0.3125 -0.09375 -0.546875 -0.234375q-0.25 -0.15625 -0.4375 -0.359375q-0.171875 -0.21875 -0.296875 -0.46875l0 -4.390625q0.140625 -0.265625 0.328125 -0.484375q0.203125 -0.21875 0.46875 -0.375q0.234375 -0.125 0.515625 -0.203125q0.296875 -0.078125 0.640625 -0.078125q0.609375 0 1.046875 0.265625q0.4375 0.25 0.71875 0.6875q0.265625 0.4375 0.390625 1.03125q0.140625 0.578125 0.140625 1.25zm9.117447 -7.25l-2.1875 0l0 2.40625l-2.375 0l0 1.640625l2.375 0l0 4.84375q0 0.9375 0.25 1.625q0.25 0.671875 0.703125 1.09375q0.4375 0.4375 1.0625 0.640625q0.625 0.203125 1.375 0.203125q0.40625 0 0.8125 -0.046875q0.421875 -0.03125 0.8125 -0.109375q0.375 -0.0625 0.703125 -0.171875q0.34375 -0.109375 0.578125 -0.25l-0.234375 -1.5q-0.171875 0.03125 -0.40625 0.078125q-0.234375 0.046875 -0.515625 0.09375q-0.28125 0.046875 -0.578125 0.078125q-0.296875 0.015625 -0.59375 0.015625q-0.390625 0 -0.71875 -0.078125q-0.328125 -0.09375 -0.5625 -0.3125q-0.234375 -0.21875 -0.375 -0.578125q-0.125 -0.375 -0.125 -0.921875l0 -4.703125l3.703125 0l0 -1.640625l-3.703125 0l0 -2.40625zm109.36197 6.875l0 0.15625q0 1.296875 0.203125 2.4375q0.203125 1.125 0.53125 2.09375q0.34375 0.96875 0.796875 1.765625q0.453125 0.8125 0.953125 1.421875q0.5 0.625 1.015625 1.046875q0.515625 0.4375 1.0 0.671875l0.4375 -1.21875q-0.359375 -0.28125 -0.734375 -0.703125q-0.359375 -0.40625 -0.6875 -0.953125q-0.328125 -0.546875 -0.625 -1.25q-0.28125 -0.703125 -0.5 -1.515625q-0.171875 -0.6875 -0.296875 -1.65625q-0.125 -0.984375 -0.125 -2.125l0 -0.1875q0 -1.171875 0.125 -2.171875q0.140625 -1.0 0.359375 -1.828125q0.25 -0.890625 0.59375 -1.625q0.34375 -0.75 0.734375 -1.3125q0.28125 -0.390625 0.5625 -0.703125q0.296875 -0.3125 0.59375 -0.53125l-0.4375 -1.265625q-0.484375 0.234375 -1.0 0.671875q-0.515625 0.4375 -1.015625 1.046875q-0.5 0.625 -0.953125 1.4375q-0.453125 0.796875 -0.796875 1.75q-0.328125 0.96875 -0.53125 2.125q-0.203125 1.140625 -0.203125 2.421875z" fill-rule="nonzero"/><path fill="#000000" d="m271.26907 98.4052l-0.015625 0.1875q-0.078125 0.671875 -0.015625 1.3125q0.078125 0.640625 0.28125 1.21875q0.171875 0.421875 0.40625 0.78125q0.234375 0.359375 0.546875 0.703125q0.421875 0.40625 1.0625 0.671875q0.65625 0.25 1.453125 0.265625q1.09375 0.03125 1.984375 -0.375q0.890625 -0.40625 1.546875 -1.09375q0.65625 -0.703125 1.0625 -1.625q0.421875 -0.921875 0.546875 -1.9375l0.015625 -0.203125q0.078125 -0.671875 0.015625 -1.3125q-0.0625 -0.65625 -0.28125 -1.234375q-0.15625 -0.453125 -0.4375 -0.859375q-0.265625 -0.40625 -0.625 -0.734375q-0.4375 -0.375 -1.046875 -0.609375q-0.59375 -0.234375 -1.359375 -0.234375q-1.09375 -0.03125 -1.984375 0.375q-0.875 0.390625 -1.515625 1.0625q-0.6875 0.703125 -1.109375 1.65625q-0.40625 0.9375 -0.53125 1.984375zm2.09375 0.1875l0.03125 -0.1875q0.0625 -0.578125 0.265625 -1.171875q0.21875 -0.609375 0.5625 -1.09375q0.34375 -0.484375 0.859375 -0.78125q0.515625 -0.296875 1.1875 -0.28125q0.59375 0.03125 0.953125 0.3125q0.375 0.28125 0.578125 0.71875q0.21875 0.515625 0.234375 1.109375q0.03125 0.578125 -0.015625 1.109375l-0.015625 0.1875q-0.078125 0.515625 -0.28125 1.140625q-0.203125 0.625 -0.546875 1.09375q-0.359375 0.484375 -0.875 0.78125q-0.515625 0.296875 -1.1875 0.28125q-0.609375 -0.03125 -0.984375 -0.3125q-0.375 -0.296875 -0.546875 -0.75q-0.203125 -0.46875 -0.234375 -1.046875q-0.03125 -0.578125 0.015625 -1.109375zm17.59024 -0.125l0.015625 -0.1875q0.0625 -0.5625 0.046875 -1.140625q-0.015625 -0.578125 -0.125 -1.125q-0.125 -0.546875 -0.34375 -1.03125q-0.21875 -0.484375 -0.578125 -0.859375q-0.359375 -0.359375 -0.875 -0.5625q-0.5 -0.21875 -1.171875 -0.234375q-0.5 -0.015625 -0.96875 0.109375q-0.453125 0.109375 -0.84375 0.359375q-0.234375 0.140625 -0.453125 0.328125q-0.21875 0.171875 -0.421875 0.390625l0.15625 -1.015625l-1.9375 0l-2.375 13.65625l2.140625 0l0.875 -4.703125q0.171875 0.203125 0.375 0.375q0.203125 0.171875 0.421875 0.296875q0.34375 0.203125 0.75 0.3125q0.40625 0.109375 0.859375 0.109375q0.65625 0.015625 1.21875 -0.171875q0.5625 -0.171875 1.015625 -0.515625q0.515625 -0.359375 0.90625 -0.890625q0.40625 -0.546875 0.6875 -1.15625q0.234375 -0.5625 0.390625 -1.15625q0.171875 -0.59375 0.234375 -1.1875zm-2.109375 -0.1875l-0.03125 0.1875q-0.046875 0.359375 -0.140625 0.75q-0.078125 0.390625 -0.234375 0.75q-0.171875 0.40625 -0.421875 0.78125q-0.234375 0.359375 -0.5625 0.609375q-0.28125 0.203125 -0.640625 0.328125q-0.359375 0.109375 -0.78125 0.109375q-0.3125 -0.015625 -0.59375 -0.09375q-0.265625 -0.078125 -0.484375 -0.234375q-0.203125 -0.15625 -0.359375 -0.34375q-0.140625 -0.203125 -0.25 -0.484375l0.765625 -4.390625q0.171875 -0.234375 0.359375 -0.421875q0.203125 -0.203125 0.421875 -0.34375q0.28125 -0.1875 0.609375 -0.28125q0.328125 -0.09375 0.703125 -0.09375q0.40625 0.015625 0.671875 0.15625q0.28125 0.125 0.484375 0.34375q0.1875 0.21875 0.296875 0.515625q0.109375 0.296875 0.15625 0.625q0.0625 0.375 0.0625 0.78125q0 0.390625 -0.03125 0.75zm10.2152405 -7.1875l-2.125 0l-0.421875 2.40625l-2.3125 0l-0.296875 1.640625l2.328125 0l-0.8125 4.84375q-0.0625 0.734375 0.0625 1.375q0.140625 0.640625 0.484375 1.125q0.328125 0.46875 0.890625 0.765625q0.5625 0.28125 1.359375 0.296875q0.6875 0.015625 1.4375 -0.109375q0.765625 -0.109375 1.390625 -0.453125l-0.109375 -1.515625q-0.515625 0.109375 -1.03125 0.1875q-0.5 0.078125 -1.015625 0.0625q-0.4375 -0.015625 -0.71875 -0.15625q-0.265625 -0.140625 -0.40625 -0.40625q-0.15625 -0.234375 -0.203125 -0.5625q-0.03125 -0.34375 0.015625 -0.734375l0.78125 -4.71875l3.59375 0l0.28125 -1.640625l-3.59375 0l0.421875 -2.40625zm6.7621155 2.40625l-0.3125 1.8125l2.9375 0l-1.078125 6.25l-2.9375 0l-0.3125 1.796875l7.890625 0l0.328125 -1.796875l-2.828125 0l1.40625 -8.0625l-5.09375 0zm3.1875 -2.515625q0 0.546875 0.359375 0.859375q0.359375 0.3125 0.890625 0.296875q0.515625 0 0.875 -0.328125q0.359375 -0.34375 0.359375 -0.890625q0 -0.546875 -0.359375 -0.875q-0.359375 -0.328125 -0.875 -0.3125q-0.53125 0.015625 -0.890625 0.375q-0.34375 0.34375 -0.359375 0.875zm6.0589905 7.421875l-0.015625 0.1875q-0.078125 0.671875 -0.015625 1.3125q0.078125 0.640625 0.28125 1.21875q0.171875 0.421875 0.40625 0.78125q0.234375 0.359375 0.546875 0.703125q0.421875 0.40625 1.0625 0.671875q0.65625 0.25 1.453125 0.265625q1.09375 0.03125 1.984375 -0.375q0.890625 -0.40625 1.546875 -1.09375q0.65625 -0.703125 1.0625 -1.625q0.421875 -0.921875 0.546875 -1.9375l0.015625 -0.203125q0.078125 -0.671875 0.015625 -1.3125q-0.0625 -0.65625 -0.28125 -1.234375q-0.15625 -0.453125 -0.4375 -0.859375q-0.265625 -0.40625 -0.625 -0.734375q-0.4375 -0.375 -1.046875 -0.609375q-0.59375 -0.234375 -1.359375 -0.234375q-1.09375 -0.03125 -1.984375 0.375q-0.875 0.390625 -1.515625 1.0625q-0.6875 0.703125 -1.109375 1.65625q-0.40625 0.9375 -0.53125 1.984375zm2.09375 0.1875l0.03125 -0.1875q0.0625 -0.578125 0.265625 -1.171875q0.21875 -0.609375 0.5625 -1.09375q0.34375 -0.484375 0.859375 -0.78125q0.515625 -0.296875 1.1875 -0.28125q0.59375 0.03125 0.953125 0.3125q0.375 0.28125 0.578125 0.71875q0.21875 0.515625 0.234375 1.109375q0.03125 0.578125 -0.015625 1.109375l-0.015625 0.1875q-0.078125 0.515625 -0.28125 1.140625q-0.203125 0.625 -0.546875 1.09375q-0.359375 0.484375 -0.875 0.78125q-0.515625 0.296875 -1.1875 0.28125q-0.609375 -0.03125 -0.984375 -0.3125q-0.375 -0.296875 -0.546875 -0.75q-0.203125 -0.46875 -0.234375 -1.046875q-0.03125 -0.578125 0.015625 -1.109375zm8.3558655 4.765625l2.140625 0l1.21875 -7.046875q0.21875 -0.265625 0.46875 -0.484375q0.25 -0.234375 0.515625 -0.390625q0.296875 -0.15625 0.609375 -0.234375q0.328125 -0.09375 0.703125 -0.09375q0.484375 0.015625 0.8125 0.1875q0.328125 0.15625 0.5 0.4375q0.171875 0.28125 0.21875 0.671875q0.046875 0.375 0 0.828125l-1.03125 6.125l2.125 0l1.015625 -6.109375q0.09375 -0.75 -0.015625 -1.46875q-0.109375 -0.71875 -0.421875 -1.265625q-0.328125 -0.53125 -0.890625 -0.84375q-0.5625 -0.328125 -1.40625 -0.34375q-0.53125 -0.015625 -1.015625 0.125q-0.484375 0.125 -0.90625 0.390625q-0.34375 0.203125 -0.640625 0.484375q-0.296875 0.265625 -0.5625 0.59375l0.1875 -1.421875l-1.90625 0l-1.71875 9.859375zm17.168365 0l2.125 0l0 -0.15625q-0.15625 -0.515625 -0.140625 -1.046875q0.03125 -0.53125 0.125 -1.0625l0.71875 -4.390625q0.078125 -0.8125 -0.171875 -1.4375q-0.25 -0.640625 -0.734375 -1.0625q-0.5 -0.421875 -1.171875 -0.640625q-0.671875 -0.234375 -1.421875 -0.25q-0.71875 -0.015625 -1.453125 0.171875q-0.734375 0.171875 -1.328125 0.546875q-0.609375 0.375 -1.015625 0.96875q-0.40625 0.578125 -0.46875 1.359375l2.125 -0.015625q0.0625 -0.34375 0.234375 -0.59375q0.1875 -0.265625 0.4375 -0.4375q0.25 -0.171875 0.5625 -0.25q0.3125 -0.09375 0.671875 -0.078125q0.40625 0 0.71875 0.125q0.328125 0.109375 0.53125 0.328125q0.21875 0.21875 0.3125 0.53125q0.09375 0.3125 0.046875 0.71875l-0.125 0.671875l-1.609375 -0.015625q-0.5625 0 -1.125 0.078125q-0.5625 0.0625 -1.09375 0.21875q-0.53125 0.15625 -1.0 0.40625q-0.46875 0.25 -0.828125 0.625q-0.359375 0.375 -0.59375 0.875q-0.21875 0.484375 -0.25 1.140625q-0.03125 0.65625 0.1875 1.1875q0.234375 0.515625 0.65625 0.875q0.40625 0.375 0.953125 0.578125q0.5625 0.203125 1.1875 0.21875q0.546875 0 1.046875 -0.140625q0.5 -0.125 0.9375 -0.390625q0.234375 -0.125 0.453125 -0.28125q0.21875 -0.171875 0.421875 -0.359375q-0.015625 0.25 -0.015625 0.5q0.015625 0.234375 0.09375 0.484375zm-2.4375 -1.5625q-0.3125 0 -0.578125 -0.078125q-0.25 -0.09375 -0.4375 -0.265625q-0.171875 -0.15625 -0.265625 -0.40625q-0.078125 -0.25 -0.03125 -0.578125q0.03125 -0.28125 0.125 -0.5q0.109375 -0.234375 0.265625 -0.421875q0.15625 -0.171875 0.34375 -0.296875q0.203125 -0.125 0.421875 -0.234375q0.40625 -0.171875 0.859375 -0.234375q0.453125 -0.0625 0.875 -0.0625l1.25 0.015625l-0.34375 1.828125q-0.1875 0.265625 -0.453125 0.484375q-0.25 0.21875 -0.515625 0.375q-0.34375 0.1875 -0.734375 0.296875q-0.375 0.09375 -0.78125 0.078125zm10.0121155 -12.4375l-0.328125 1.828125l3.03125 0l-1.796875 10.375l-3.015625 0l-0.328125 1.796875l8.0625 0l0.328125 -1.796875l-2.90625 0l2.125 -12.203125l-5.171875 0z" fill-rule="nonzero"/><path fill="#000000" d="m365.866 98.12395l0 -0.15625q0 -1.3125 -0.21875 -2.421875q-0.203125 -1.109375 -0.53125 -2.078125q-0.34375 -0.984375 -0.796875 -1.78125q-0.453125 -0.796875 -0.96875 -1.421875q-0.515625 -0.625 -1.046875 -1.0625q-0.53125 -0.453125 -1.015625 -0.6875l-0.4375 1.21875q0.28125 0.21875 0.578125 0.546875q0.296875 0.328125 0.578125 0.734375q0.390625 0.578125 0.75 1.359375q0.359375 0.78125 0.609375 1.765625q0.203125 0.75 0.328125 1.71875q0.125 0.953125 0.125 2.09375l0 0.1875q0 1.09375 -0.125 2.046875q-0.109375 0.953125 -0.3125 1.75q-0.203125 0.859375 -0.515625 1.578125q-0.296875 0.71875 -0.640625 1.28125q-0.328125 0.515625 -0.671875 0.90625q-0.34375 0.390625 -0.703125 0.640625l0.4375 1.21875q0.484375 -0.234375 1.015625 -0.671875q0.53125 -0.4375 1.046875 -1.078125q0.5 -0.609375 0.953125 -1.421875q0.46875 -0.796875 0.8125 -1.765625q0.34375 -0.96875 0.546875 -2.09375q0.203125 -1.140625 0.203125 -2.40625z" fill-rule="nonzero"/><path fill="#000000" d="m78.49877 120.4052l0 -1.765625l-7.328125 0l0 1.765625l7.328125 0zm3.070572 3.4375l8.140625 -3.390625l0 -1.75l-8.140625 -3.375l0 2.15625l5.515625 1.90625l0.546875 0.1875l-0.5625 0.15625l-5.5 1.953125l0 2.15625zm29.078644 -8.515625q-1.015625 0 -1.859375 0.46875q-0.84375 0.46875 -1.4375 1.296875l-0.015625 -0.21875l-0.09375 -1.375l-2.03125 0l0 9.859375l2.171875 0l0 -6.078125q0.171875 -0.4375 0.421875 -0.78125q0.265625 -0.34375 0.625 -0.5625q0.34375 -0.21875 0.78125 -0.328125q0.4375 -0.109375 0.984375 -0.109375q0.484375 0 0.96875 0.0625q0.484375 0.046875 0.984375 0.15625l0.3125 -2.15625q-0.28125 -0.09375 -0.78125 -0.15625q-0.5 -0.078125 -1.03125 -0.078125zm8.992447 10.21875q1.4375 0 2.453125 -0.5625q1.015625 -0.578125 1.5 -1.28125l-1.15625 -1.125q-0.453125 0.578125 -1.15625 0.890625q-0.703125 0.3125 -1.515625 0.3125q-0.59375 0 -1.09375 -0.203125q-0.484375 -0.203125 -0.859375 -0.5625q-0.359375 -0.34375 -0.578125 -0.78125q-0.203125 -0.4375 -0.296875 -1.078125l0 -0.046875l6.828125 0l0 -0.9375q0 -1.0625 -0.28125 -1.953125q-0.28125 -0.890625 -0.84375 -1.546875q-0.546875 -0.625 -1.375 -0.984375q-0.8125 -0.359375 -1.890625 -0.359375q-0.953125 0 -1.796875 0.359375q-0.84375 0.359375 -1.46875 1.015625q-0.640625 0.671875 -1.015625 1.609375q-0.359375 0.9375 -0.359375 2.09375l0 0.375q0 1.0 0.34375 1.875q0.359375 0.875 1.0 1.515625q0.65625 0.640625 1.5625 1.015625q0.90625 0.359375 2.0 0.359375zm-0.265625 -8.453125q0.546875 0 0.953125 0.1875q0.421875 0.1875 0.6875 0.484375q0.28125 0.328125 0.4375 0.75q0.15625 0.421875 0.15625 0.84375l0 0.15625l-4.625 0q0.09375 -0.5625 0.296875 -1.015625q0.21875 -0.453125 0.53125 -0.765625q0.296875 -0.3125 0.6875 -0.46875q0.40625 -0.171875 0.875 -0.171875zm11.226814 -4.0l-2.1875 0l0 2.40625l-2.3749924 0l0 1.640625l2.3749924 0l0 4.84375q0 0.9375 0.25 1.625q0.25 0.671875 0.703125 1.09375q0.4375 0.4375 1.0625 0.640625q0.625 0.203125 1.375 0.203125q0.40625 0 0.8125 -0.046875q0.421875 -0.03125 0.8125 -0.109375q0.375 -0.0625 0.703125 -0.171875q0.34375 -0.109375 0.578125 -0.25l-0.234375 -1.5q-0.171875 0.03125 -0.40625 0.078125q-0.234375 0.046875 -0.515625 0.09375q-0.28125 0.046875 -0.578125 0.078125q-0.296875 0.015625 -0.59375 0.015625q-0.390625 0 -0.71875 -0.078125q-0.328125 -0.09375 -0.5625 -0.3125q-0.234375 -0.21875 -0.375 -0.578125q-0.125 -0.375 -0.125 -0.921875l0 -4.703125l3.703125 0l0 -1.640625l-3.703125 0l0 -2.40625zm13.289322 12.265625l1.96875 0l0 -9.859375l-2.1875 0l0 6.984375q-0.125 0.265625 -0.3125 0.5q-0.171875 0.21875 -0.40625 0.375q-0.28125 0.1875 -0.65625 0.296875q-0.375 0.09375 -0.859375 0.09375q-0.453125 0 -0.796875 -0.109375q-0.328125 -0.125 -0.546875 -0.40625q-0.21875 -0.265625 -0.328125 -0.71875q-0.09375 -0.46875 -0.09375 -1.15625l0 -5.859375l-2.171875 0l0 5.84375q0 1.109375 0.25 1.90625q0.25 0.796875 0.6875 1.3125q0.453125 0.5 1.078125 0.75q0.640625 0.234375 1.40625 0.234375q0.890625 0 1.609375 -0.40625q0.71875 -0.421875 1.234375 -1.15625l0.125 1.375zm11.539322 -10.03125q-1.015625 0 -1.859375 0.46875q-0.84375 0.46875 -1.4375 1.296875l-0.015625 -0.21875l-0.09375 -1.375l-2.03125 0l0 9.859375l2.171875 0l0 -6.078125q0.171875 -0.4375 0.421875 -0.78125q0.265625 -0.34375 0.625 -0.5625q0.34375 -0.21875 0.78125 -0.328125q0.4375 -0.109375 0.984375 -0.109375q0.484375 0 0.96875 0.0625q0.484375 0.046875 0.984375 0.15625l0.3125 -2.15625q-0.28125 -0.09375 -0.78125 -0.15625q-0.5 -0.078125 -1.03125 -0.078125zm4.383072 10.03125l2.1875 0l0 -7.03125q0.140625 -0.25 0.328125 -0.453125q0.203125 -0.21875 0.421875 -0.359375q0.28125 -0.1875 0.625 -0.296875q0.34375 -0.109375 0.75 -0.109375q0.46875 0 0.84375 0.109375q0.375 0.109375 0.640625 0.359375q0.265625 0.234375 0.40625 0.65625q0.140625 0.40625 0.140625 1.015625l0 6.109375l2.171875 0l0 -6.15625q0 -1.03125 -0.25 -1.765625q-0.25 -0.734375 -0.6875 -1.203125q-0.453125 -0.46875 -1.078125 -0.6875q-0.625 -0.21875 -1.390625 -0.21875q-0.5625 0 -1.09375 0.171875q-0.515625 0.15625 -0.953125 0.453125q-0.265625 0.1875 -0.515625 0.4375q-0.234375 0.234375 -0.4375 0.515625l-0.140625 -1.40625l-1.96875 0l0 9.859375zm26.766144 -12.265625l-2.1875 0l0 2.40625l-2.375 0l0 1.640625l2.375 0l0 4.84375q0 0.9375 0.25 1.625q0.25 0.671875 0.703125 1.09375q0.4375 0.4375 1.0625 0.640625q0.625 0.203125 1.375 0.203125q0.40625 0 0.8125 -0.046875q0.421875 -0.03125 0.8125 -0.109375q0.375 -0.0625 0.703125 -0.171875q0.34375 -0.109375 0.578125 -0.25l-0.234375 -1.5q-0.171875 0.03125 -0.40625 0.078125q-0.234375 0.046875 -0.515625 0.09375q-0.28125 0.046875 -0.578125 0.078125q-0.296875 0.015625 -0.59375 0.015625q-0.390625 0 -0.71875 -0.078125q-0.328125 -0.09375 -0.5625 -0.3125q-0.234375 -0.21875 -0.375 -0.578125q-0.125 -0.375 -0.125 -0.921875l0 -4.703125l3.703125 0l0 -1.640625l-3.703125 0l0 -2.40625zm8.070572 16.25q0.71875 0 1.25 -0.25q0.546875 -0.25 0.9375 -0.625q0.390625 -0.375 0.640625 -0.8125q0.265625 -0.421875 0.4375 -0.796875l5.0 -11.359375l-2.40625 0l-2.390625 6.046875l-0.40625 1.0625l-0.328125 -1.078125l-2.453125 -6.03125l-2.40625 0l4.203125 9.421875l-0.609375 1.171875q-0.109375 0.203125 -0.21875 0.375q-0.109375 0.1875 -0.296875 0.4375q-0.1875 0.234375 -0.453125 0.421875q-0.25 0.1875 -0.5625 0.1875q-0.15625 0 -0.390625 -0.015625q-0.21875 -0.015625 -0.40625 -0.03125l-0.296875 1.703125q0.265625 0.0625 0.546875 0.109375q0.28125 0.0625 0.609375 0.0625zm9.976822 -0.1875l2.171875 0l0 -4.6875q0.171875 0.1875 0.375 0.359375q0.203125 0.15625 0.421875 0.28125q0.359375 0.21875 0.796875 0.328125q0.453125 0.109375 0.984375 0.109375q0.921875 0 1.640625 -0.375q0.71875 -0.390625 1.21875 -1.0625q0.484375 -0.671875 0.734375 -1.59375q0.25 -0.921875 0.25 -1.984375l0 -0.1875q0 -1.109375 -0.25 -2.03125q-0.25 -0.9375 -0.734375 -1.59375q-0.5 -0.671875 -1.21875 -1.03125q-0.71875 -0.359375 -1.671875 -0.359375q-0.484375 0 -0.921875 0.109375q-0.421875 0.09375 -0.765625 0.28125q-0.28125 0.15625 -0.515625 0.359375q-0.234375 0.1875 -0.4375 0.4375l-0.078125 -1.015625l-2.0 0l0 13.65625zm6.421875 -8.8125l0 0.1875q0 0.65625 -0.125 1.25q-0.125 0.578125 -0.40625 1.03125q-0.28125 0.453125 -0.71875 0.71875q-0.421875 0.25 -1.03125 0.25q-0.375 0 -0.6875 -0.078125q-0.3125 -0.09375 -0.546875 -0.234375q-0.25 -0.15625 -0.4375 -0.359375q-0.171875 -0.21875 -0.296875 -0.46875l0 -4.390625q0.140625 -0.265625 0.328125 -0.484375q0.203125 -0.21875 0.46875 -0.375q0.234375 -0.125 0.515625 -0.203125q0.296875 -0.078125 0.640625 -0.078125q0.609375 0 1.046875 0.265625q0.4375 0.25 0.71875 0.6875q0.265625 0.4375 0.390625 1.03125q0.140625 0.578125 0.140625 1.25zm9.351822 5.203125q1.4375 0 2.453125 -0.5625q1.015625 -0.578125 1.5 -1.28125l-1.15625 -1.125q-0.453125 0.578125 -1.15625 0.890625q-0.703125 0.3125 -1.515625 0.3125q-0.59375 0 -1.09375 -0.203125q-0.484375 -0.203125 -0.859375 -0.5625q-0.359375 -0.34375 -0.578125 -0.78125q-0.203125 -0.4375 -0.296875 -1.078125l0 -0.046875l6.828125 0l0 -0.9375q0 -1.0625 -0.28125 -1.953125q-0.28125 -0.890625 -0.84375 -1.546875q-0.546875 -0.625 -1.375 -0.984375q-0.8125 -0.359375 -1.890625 -0.359375q-0.953125 0 -1.796875 0.359375q-0.84375 0.359375 -1.46875 1.015625q-0.640625 0.671875 -1.015625 1.609375q-0.359375 0.9375 -0.359375 2.09375l0 0.375q0 1.0 0.34375 1.875q0.359375 0.875 1.0 1.515625q0.65625 0.640625 1.5625 1.015625q0.90625 0.359375 2.0 0.359375zm-0.265625 -8.453125q0.546875 0 0.953125 0.1875q0.421875 0.1875 0.6875 0.484375q0.28125 0.328125 0.4375 0.75q0.15625 0.421875 0.15625 0.84375l0 0.15625l-4.625 0q0.09375 -0.5625 0.296875 -1.015625q0.21875 -0.453125 0.53125 -0.765625q0.296875 -0.3125 0.6875 -0.46875q0.40625 -0.171875 0.875 -0.171875zm42.219788 2.875l0 0.15625q0 1.296875 0.203125 2.4375q0.203125 1.125 0.53125 2.09375q0.34375 0.96875 0.796875 1.765625q0.453125 0.8125 0.953125 1.421875q0.5 0.625 1.015625 1.046875q0.515625 0.4375 1.0 0.671875l0.4375 -1.21875q-0.359375 -0.28125 -0.734375 -0.703125q-0.359375 -0.40625 -0.6875 -0.953125q-0.328125 -0.546875 -0.625 -1.25q-0.28125 -0.703125 -0.5 -1.515625q-0.171875 -0.6875 -0.296875 -1.65625q-0.125 -0.984375 -0.125 -2.125l0 -0.1875q0 -1.171875 0.125 -2.171875q0.140625 -1.0 0.359375 -1.828125q0.25 -0.890625 0.59375 -1.625q0.34375 -0.75 0.734375 -1.3125q0.28125 -0.390625 0.5625 -0.703125q0.296875 -0.3125 0.59375 -0.53125l-0.4375 -1.265625q-0.484375 0.234375 -1.0 0.671875q-0.515625 0.4375 -1.015625 1.046875q-0.5 0.625 -0.953125 1.4375q-0.453125 0.796875 -0.796875 1.75q-0.328125 0.96875 -0.53125 2.125q-0.203125 1.140625 -0.203125 2.421875z" fill-rule="nonzero"/><path fill="#000000" d="m271.26907 120.4052l-0.015625 0.1875q-0.078125 0.671875 -0.015625 1.3125q0.078125 0.640625 0.28125 1.21875q0.171875 0.421875 0.40625 0.78125q0.234375 0.359375 0.546875 0.703125q0.421875 0.40625 1.0625 0.671875q0.65625 0.25 1.453125 0.265625q1.09375 0.03125 1.984375 -0.375q0.890625 -0.40625 1.546875 -1.09375q0.65625 -0.703125 1.0625 -1.625q0.421875 -0.921875 0.546875 -1.9375l0.015625 -0.203125q0.078125 -0.671875 0.015625 -1.3125q-0.0625 -0.65625 -0.28125 -1.234375q-0.15625 -0.453125 -0.4375 -0.859375q-0.265625 -0.40625 -0.625 -0.734375q-0.4375 -0.375 -1.046875 -0.609375q-0.59375 -0.234375 -1.359375 -0.234375q-1.09375 -0.03125 -1.984375 0.375q-0.875 0.390625 -1.515625 1.0625q-0.6875 0.703125 -1.109375 1.65625q-0.40625 0.9375 -0.53125 1.984375zm2.09375 0.1875l0.03125 -0.1875q0.0625 -0.578125 0.265625 -1.171875q0.21875 -0.609375 0.5625 -1.09375q0.34375 -0.484375 0.859375 -0.78125q0.515625 -0.296875 1.1875 -0.28125q0.59375 0.03125 0.953125 0.3125q0.375 0.28125 0.578125 0.71875q0.21875 0.515625 0.234375 1.109375q0.03125 0.578125 -0.015625 1.109375l-0.015625 0.1875q-0.078125 0.515625 -0.28125 1.140625q-0.203125 0.625 -0.546875 1.09375q-0.359375 0.484375 -0.875 0.78125q-0.515625 0.296875 -1.1875 0.28125q-0.609375 -0.03125 -0.984375 -0.3125q-0.375 -0.296875 -0.546875 -0.75q-0.203125 -0.46875 -0.234375 -1.046875q-0.03125 -0.578125 0.015625 -1.109375zm17.59024 -0.125l0.015625 -0.1875q0.0625 -0.5625 0.046875 -1.140625q-0.015625 -0.578125 -0.125 -1.125q-0.125 -0.546875 -0.34375 -1.03125q-0.21875 -0.484375 -0.578125 -0.859375q-0.359375 -0.359375 -0.875 -0.5625q-0.5 -0.21875 -1.171875 -0.234375q-0.5 -0.015625 -0.96875 0.109375q-0.453125 0.109375 -0.84375 0.359375q-0.234375 0.140625 -0.453125 0.328125q-0.21875 0.171875 -0.421875 0.390625l0.15625 -1.015625l-1.9375 0l-2.375 13.65625l2.140625 0l0.875 -4.703125q0.171875 0.203125 0.375 0.375q0.203125 0.171875 0.421875 0.296875q0.34375 0.203125 0.75 0.3125q0.40625 0.109375 0.859375 0.109375q0.65625 0.015625 1.21875 -0.171875q0.5625 -0.171875 1.015625 -0.515625q0.515625 -0.359375 0.90625 -0.890625q0.40625 -0.546875 0.6875 -1.15625q0.234375 -0.5625 0.390625 -1.15625q0.171875 -0.59375 0.234375 -1.1875zm-2.109375 -0.1875l-0.03125 0.1875q-0.046875 0.359375 -0.140625 0.75q-0.078125 0.390625 -0.234375 0.75q-0.171875 0.40625 -0.421875 0.78125q-0.234375 0.359375 -0.5625 0.609375q-0.28125 0.203125 -0.640625 0.328125q-0.359375 0.109375 -0.78125 0.109375q-0.3125 -0.015625 -0.59375 -0.09375q-0.265625 -0.078125 -0.484375 -0.234375q-0.203125 -0.15625 -0.359375 -0.34375q-0.140625 -0.203125 -0.25 -0.484375l0.765625 -4.390625q0.171875 -0.234375 0.359375 -0.421875q0.203125 -0.203125 0.421875 -0.34375q0.28125 -0.1875 0.609375 -0.28125q0.328125 -0.09375 0.703125 -0.09375q0.40625 0.015625 0.671875 0.15625q0.28125 0.125 0.484375 0.34375q0.1875 0.21875 0.296875 0.515625q0.109375 0.296875 0.15625 0.625q0.0625 0.375 0.0625 0.78125q0 0.390625 -0.03125 0.75zm10.2152405 -7.1875l-2.125 0l-0.421875 2.40625l-2.3125 0l-0.296875 1.640625l2.328125 0l-0.8125 4.84375q-0.0625 0.734375 0.0625 1.375q0.140625 0.640625 0.484375 1.125q0.328125 0.46875 0.890625 0.765625q0.5625 0.28125 1.359375 0.296875q0.6875 0.015625 1.4375 -0.109375q0.765625 -0.109375 1.390625 -0.453125l-0.109375 -1.515625q-0.515625 0.109375 -1.03125 0.1875q-0.5 0.078125 -1.015625 0.0625q-0.4375 -0.015625 -0.71875 -0.15625q-0.265625 -0.140625 -0.40625 -0.40625q-0.15625 -0.234375 -0.203125 -0.5625q-0.03125 -0.34375 0.015625 -0.734375l0.78125 -4.71875l3.59375 0l0.28125 -1.640625l-3.59375 0l0.421875 -2.40625zm6.7621155 2.40625l-0.3125 1.8125l2.9375 0l-1.078125 6.25l-2.9375 0l-0.3125 1.796875l7.890625 0l0.328125 -1.796875l-2.828125 0l1.40625 -8.0625l-5.09375 0zm3.1875 -2.515625q0 0.546875 0.359375 0.859375q0.359375 0.3125 0.890625 0.296875q0.515625 0 0.875 -0.328125q0.359375 -0.34375 0.359375 -0.890625q0 -0.546875 -0.359375 -0.875q-0.359375 -0.328125 -0.875 -0.3125q-0.53125 0.015625 -0.890625 0.375q-0.34375 0.34375 -0.359375 0.875zm6.0589905 7.421875l-0.015625 0.1875q-0.078125 0.671875 -0.015625 1.3125q0.078125 0.640625 0.28125 1.21875q0.171875 0.421875 0.40625 0.78125q0.234375 0.359375 0.546875 0.703125q0.421875 0.40625 1.0625 0.671875q0.65625 0.25 1.453125 0.265625q1.09375 0.03125 1.984375 -0.375q0.890625 -0.40625 1.546875 -1.09375q0.65625 -0.703125 1.0625 -1.625q0.421875 -0.921875 0.546875 -1.9375l0.015625 -0.203125q0.078125 -0.671875 0.015625 -1.3125q-0.0625 -0.65625 -0.28125 -1.234375q-0.15625 -0.453125 -0.4375 -0.859375q-0.265625 -0.40625 -0.625 -0.734375q-0.4375 -0.375 -1.046875 -0.609375q-0.59375 -0.234375 -1.359375 -0.234375q-1.09375 -0.03125 -1.984375 0.375q-0.875 0.390625 -1.515625 1.0625q-0.6875 0.703125 -1.109375 1.65625q-0.40625 0.9375 -0.53125 1.984375zm2.09375 0.1875l0.03125 -0.1875q0.0625 -0.578125 0.265625 -1.171875q0.21875 -0.609375 0.5625 -1.09375q0.34375 -0.484375 0.859375 -0.78125q0.515625 -0.296875 1.1875 -0.28125q0.59375 0.03125 0.953125 0.3125q0.375 0.28125 0.578125 0.71875q0.21875 0.515625 0.234375 1.109375q0.03125 0.578125 -0.015625 1.109375l-0.015625 0.1875q-0.078125 0.515625 -0.28125 1.140625q-0.203125 0.625 -0.546875 1.09375q-0.359375 0.484375 -0.875 0.78125q-0.515625 0.296875 -1.1875 0.28125q-0.609375 -0.03125 -0.984375 -0.3125q-0.375 -0.296875 -0.546875 -0.75q-0.203125 -0.46875 -0.234375 -1.046875q-0.03125 -0.578125 0.015625 -1.109375zm8.3558655 4.765625l2.140625 0l1.21875 -7.046875q0.21875 -0.265625 0.46875 -0.484375q0.25 -0.234375 0.515625 -0.390625q0.296875 -0.15625 0.609375 -0.234375q0.328125 -0.09375 0.703125 -0.09375q0.484375 0.015625 0.8125 0.1875q0.328125 0.15625 0.5 0.4375q0.171875 0.28125 0.21875 0.671875q0.046875 0.375 0 0.828125l-1.03125 6.125l2.125 0l1.015625 -6.109375q0.09375 -0.75 -0.015625 -1.46875q-0.109375 -0.71875 -0.421875 -1.265625q-0.328125 -0.53125 -0.890625 -0.84375q-0.5625 -0.328125 -1.40625 -0.34375q-0.53125 -0.015625 -1.015625 0.125q-0.484375 0.125 -0.90625 0.390625q-0.34375 0.203125 -0.640625 0.484375q-0.296875 0.265625 -0.5625 0.59375l0.1875 -1.421875l-1.90625 0l-1.71875 9.859375zm17.168365 0l2.125 0l0 -0.15625q-0.15625 -0.515625 -0.140625 -1.046875q0.03125 -0.53125 0.125 -1.0625l0.71875 -4.390625q0.078125 -0.8125 -0.171875 -1.4375q-0.25 -0.640625 -0.734375 -1.0625q-0.5 -0.421875 -1.171875 -0.640625q-0.671875 -0.234375 -1.421875 -0.25q-0.71875 -0.015625 -1.453125 0.171875q-0.734375 0.171875 -1.328125 0.546875q-0.609375 0.375 -1.015625 0.96875q-0.40625 0.578125 -0.46875 1.359375l2.125 -0.015625q0.0625 -0.34375 0.234375 -0.59375q0.1875 -0.265625 0.4375 -0.4375q0.25 -0.171875 0.5625 -0.25q0.3125 -0.09375 0.671875 -0.078125q0.40625 0 0.71875 0.125q0.328125 0.109375 0.53125 0.328125q0.21875 0.21875 0.3125 0.53125q0.09375 0.3125 0.046875 0.71875l-0.125 0.671875l-1.609375 -0.015625q-0.5625 0 -1.125 0.078125q-0.5625 0.0625 -1.09375 0.21875q-0.53125 0.15625 -1.0 0.40625q-0.46875 0.25 -0.828125 0.625q-0.359375 0.375 -0.59375 0.875q-0.21875 0.484375 -0.25 1.140625q-0.03125 0.65625 0.1875 1.1875q0.234375 0.515625 0.65625 0.875q0.40625 0.375 0.953125 0.578125q0.5625 0.203125 1.1875 0.21875q0.546875 0 1.046875 -0.140625q0.5 -0.125 0.9375 -0.390625q0.234375 -0.125 0.453125 -0.28125q0.21875 -0.171875 0.421875 -0.359375q-0.015625 0.25 -0.015625 0.5q0.015625 0.234375 0.09375 0.484375zm-2.4375 -1.5625q-0.3125 0 -0.578125 -0.078125q-0.25 -0.09375 -0.4375 -0.265625q-0.171875 -0.15625 -0.265625 -0.40625q-0.078125 -0.25 -0.03125 -0.578125q0.03125 -0.28125 0.125 -0.5q0.109375 -0.234375 0.265625 -0.421875q0.15625 -0.171875 0.34375 -0.296875q0.203125 -0.125 0.421875 -0.234375q0.40625 -0.171875 0.859375 -0.234375q0.453125 -0.0625 0.875 -0.0625l1.25 0.015625l-0.34375 1.828125q-0.1875 0.265625 -0.453125 0.484375q-0.25 0.21875 -0.515625 0.375q-0.34375 0.1875 -0.734375 0.296875q-0.375 0.09375 -0.78125 0.078125zm10.0121155 -12.4375l-0.328125 1.828125l3.03125 0l-1.796875 10.375l-3.015625 0l-0.328125 1.796875l8.0625 0l0.328125 -1.796875l-2.90625 0l2.125 -12.203125l-5.171875 0z" fill-rule="nonzero"/><path fill="#000000" d="m365.866 120.12395l0 -0.15625q0 -1.3125 -0.21875 -2.421875q-0.203125 -1.109375 -0.53125 -2.078125q-0.34375 -0.984375 -0.796875 -1.78125q-0.453125 -0.796875 -0.96875 -1.421875q-0.515625 -0.625 -1.046875 -1.0625q-0.53125 -0.453125 -1.015625 -0.6875l-0.4375 1.21875q0.28125 0.21875 0.578125 0.546875q0.296875 0.328125 0.578125 0.734375q0.390625 0.578125 0.75 1.359375q0.359375 0.78125 0.609375 1.765625q0.203125 0.75 0.328125 1.71875q0.125 0.953125 0.125 2.09375l0 0.1875q0 1.09375 -0.125 2.046875q-0.109375 0.953125 -0.3125 1.75q-0.203125 0.859375 -0.515625 1.578125q-0.296875 0.71875 -0.640625 1.28125q-0.328125 0.515625 -0.671875 0.90625q-0.34375 0.390625 -0.703125 0.640625l0.4375 1.21875q0.484375 -0.234375 1.015625 -0.671875q0.53125 -0.4375 1.046875 -1.078125q0.5 -0.609375 0.953125 -1.421875q0.46875 -0.796875 0.8125 -1.765625q0.34375 -0.96875 0.546875 -2.09375q0.203125 -1.140625 0.203125 -2.40625z" fill-rule="nonzero"/><path fill="#000000" fill-opacity="0.0" d="m0.35564303 134.68767l316.0315 0l0 69.95276l-316.0315 0z" fill-rule="evenodd"/><path fill="#000000" d="m18.058767 157.89655l0.265625 -1.28125q-0.5 0 -0.828125 -0.265625q-0.3125 -0.265625 -0.5 -0.703125q-0.203125 -0.421875 -0.265625 -0.953125q-0.0625 -0.53125 -0.0625 -1.046875l0 -1.515625q-0.015625 -1.078125 -0.53125 -1.90625q-0.51562405 -0.828125 -1.609374 -1.25q1.09375 -0.4375 1.609374 -1.265625q0.53125 -0.84375 0.53125 -1.921875l0 -1.515625q0 -0.515625 0.03125 -1.046875q0.03125 -0.53125 0.1875 -0.953125q0.171875 -0.4375 0.5 -0.703125q0.34375 -0.265625 0.9375 -0.265625l-0.265625 -1.265625q-0.890625 0.015625 -1.546875 0.359375q-0.64062405 0.34375 -1.031249 0.90625q-0.453125 0.609375 -0.671875 1.421875q-0.203125 0.796875 -0.203125 1.546875l0 1.515625q0 1.265625 -0.59375 1.828125q-0.578125 0.546875 -1.78125 0.546875l0 1.609375q1.203125 0 1.78125 0.5625q0.59375 0.546875 0.59375 1.796875l0 1.515625q0 0.71875 0.203125 1.46875q0.203125 0.75 0.625 1.359375q0.421875 0.625 1.078124 1.0q0.65625 0.390625 1.546875 0.421875z" fill-rule="nonzero"/><path fill="#000000" d="m64.21606 171.75592l0 -0.1875q0 -0.84375 -0.15625 -1.578125q-0.140625 -0.75 -0.4375 -1.375q-0.21875 -0.4375 -0.515625 -0.796875q-0.28125 -0.375 -0.640625 -0.625q-0.4375 -0.3125 -0.96875 -0.46875q-0.53125 -0.171875 -1.171875 -0.171875q-0.46875 0 -0.890625 0.09375q-0.421875 0.09375 -0.765625 0.28125q-0.265625 0.140625 -0.5 0.34375q-0.21875 0.1875 -0.40625 0.421875l0 -5.109375l-2.171875 0l0 14.0l1.96875 0l0.09375 -1.078125q0.171875 0.203125 0.34375 0.375q0.171875 0.171875 0.375 0.3125q0.390625 0.28125 0.875 0.421875q0.5 0.15625 1.109375 0.15625q0.59375 0 1.09375 -0.15625q0.5 -0.15625 0.90625 -0.421875q0.515625 -0.34375 0.875 -0.84375q0.375 -0.515625 0.59375 -1.140625q0.1875 -0.53125 0.28125 -1.140625q0.109375 -0.625 0.109375 -1.3125zm-2.1875 -0.1875l0 0.1875q0 0.40625 -0.046875 0.796875q-0.03125 0.375 -0.125 0.703125q-0.109375 0.4375 -0.3125 0.796875q-0.203125 0.34375 -0.53125 0.578125q-0.234375 0.15625 -0.53125 0.25q-0.296875 0.09375 -0.671875 0.09375q-0.421875 0 -0.75 -0.09375q-0.328125 -0.109375 -0.578125 -0.296875q-0.234375 -0.171875 -0.421875 -0.390625q-0.171875 -0.21875 -0.296875 -0.5l0 -4.078125q0.109375 -0.234375 0.25 -0.4375q0.15625 -0.203125 0.359375 -0.359375q0.25 -0.234375 0.609375 -0.359375q0.359375 -0.125 0.796875 -0.125q0.375 0 0.65625 0.09375q0.296875 0.078125 0.53125 0.234375q0.34375 0.25 0.546875 0.59375q0.203125 0.328125 0.328125 0.75q0.09375 0.34375 0.140625 0.75q0.046875 0.390625 0.046875 0.8125zm4.320572 0l0 0.1875q0 1.078125 0.296875 2.0q0.3125 0.90625 0.90625 1.578125q0.59375 0.671875 1.4375 1.0625q0.859375 0.375 1.953125 0.375q1.0625 0 1.90625 -0.375q0.859375 -0.390625 1.453125 -1.0625q0.578125 -0.671875 0.890625 -1.578125q0.3125 -0.921875 0.3125 -2.0l0 -0.1875q0 -1.078125 -0.3125 -1.984375q-0.3125 -0.921875 -0.890625 -1.59375q-0.59375 -0.6875 -1.453125 -1.0625q-0.84375 -0.375 -1.9375 -0.375q-1.078125 0 -1.921875 0.375q-0.84375 0.375 -1.4375 1.0625q-0.59375 0.671875 -0.90625 1.59375q-0.296875 0.90625 -0.296875 1.984375zm2.171875 0.1875l0 -0.1875q0 -0.65625 0.140625 -1.234375q0.140625 -0.59375 0.4375 -1.046875q0.296875 -0.453125 0.75 -0.703125q0.453125 -0.265625 1.0625 -0.265625q0.640625 0 1.078125 0.265625q0.453125 0.25 0.765625 0.703125q0.28125 0.453125 0.421875 1.046875q0.140625 0.578125 0.140625 1.234375l0 0.1875q0 0.671875 -0.140625 1.265625q-0.140625 0.578125 -0.421875 1.03125q-0.296875 0.4375 -0.75 0.703125q-0.453125 0.265625 -1.0625 0.265625q-0.640625 0 -1.09375 -0.265625q-0.453125 -0.265625 -0.75 -0.703125q-0.296875 -0.453125 -0.4375 -1.03125q-0.140625 -0.59375 -0.140625 -1.265625zm9.133072 -0.171875l0 0.1875q0 1.0625 0.265625 1.984375q0.28125 0.921875 0.78125 1.578125q0.5 0.671875 1.21875 1.0625q0.71875 0.375 1.625 0.375q0.84375 0 1.5 -0.3125q0.65625 -0.328125 1.140625 -0.90625l0.09375 1.03125l1.984375 0l0 -14.0l-2.1875 0l0 5.0625q-0.46875 -0.53125 -1.09375 -0.8125q-0.609375 -0.28125 -1.421875 -0.28125q-0.90625 0 -1.640625 0.375q-0.71875 0.359375 -1.21875 1.015625q-0.515625 0.671875 -0.78125 1.59375q-0.265625 0.921875 -0.265625 2.046875zm2.171875 0.1875l0 -0.1875q0 -0.671875 0.125 -1.25q0.125 -0.59375 0.40625 -1.03125q0.265625 -0.453125 0.703125 -0.703125q0.4375 -0.265625 1.046875 -0.265625q0.71875 0 1.203125 0.328125q0.484375 0.328125 0.765625 0.875l0 4.234375q-0.28125 0.546875 -0.765625 0.875q-0.484375 0.328125 -1.21875 0.328125q-0.609375 0 -1.046875 -0.25q-0.421875 -0.25 -0.6875 -0.703125q-0.28125 -0.421875 -0.40625 -1.0q-0.125 -0.59375 -0.125 -1.25zm10.554947 8.796875q0.71875 0 1.25 -0.25q0.546875 -0.25 0.9375 -0.625q0.390625 -0.375 0.640625 -0.8125q0.265625 -0.421875 0.4375 -0.796875l5.0 -11.359375l-2.40625 0l-2.390625 6.046875l-0.40625 1.0625l-0.328125 -1.078125l-2.453125 -6.03125l-2.40625 0l4.203125 9.421875l-0.609375 1.171875q-0.109375 0.203125 -0.21875 0.375q-0.109375 0.1875 -0.296875 0.4375q-0.1875 0.234375 -0.453125 0.421875q-0.25 0.1875 -0.5625 0.1875q-0.15625 0 -0.390625 -0.015625q-0.21875 -0.015625 -0.40625 -0.03125l-0.296875 1.703125q0.265625 0.0625 0.546875 0.109375q0.28125 0.0625 0.609375 0.0625z" fill-rule="nonzero"/><path fill="#000000" d="m12.340018 200.6153l0.265625 1.28125q0.890625 -0.015625 1.546875 -0.40625q0.65625 -0.390625 1.078125 -1.015625q0.40625 -0.59375 0.609375 -1.359375q0.21874905 -0.75 0.21874905 -1.46875l0 -1.515625q0 -0.5 0.09375 -0.890625q0.109375 -0.40625 0.3125 -0.6875q0.28125 -0.40625 0.765625 -0.59375q0.5 -0.1875 1.21875 -0.1875l0 -1.609375q-0.71875 0 -1.21875 -0.1875q-0.5 -0.1875 -0.765625 -0.578125q-0.21875 -0.28125 -0.3125 -0.671875q-0.09375 -0.40625 -0.09375 -0.9375l0 -1.515625q0 -0.71875 -0.18749905 -1.46875q-0.1875 -0.765625 -0.609375 -1.375q-0.40625 -0.625 -1.0625 -1.0q-0.65625 -0.375 -1.59375 -0.390625l-0.25 1.265625q0.59375 0 0.921875 0.265625q0.34375 0.265625 0.5 0.703125q0.15625 0.421875 0.203125 0.953125q0.046875 0.53125 0.046875 1.046875l0 1.515625q0 0.65625 0.171875 1.234375q0.1875 0.578125 0.578125 1.046875q0.25 0.28125 0.578125 0.515625q0.328125 0.21875 0.71874905 0.390625q-0.45312405 0.1875 -0.81249905 0.46875q-0.34375 0.265625 -0.59375 0.59375q-0.328125 0.421875 -0.484375 0.96875q-0.15625 0.53125 -0.15625 1.125l0 1.515625q0 0.515625 -0.078125 1.046875q-0.078125 0.53125 -0.28125 0.953125q-0.1875 0.4375 -0.515625 0.703125q-0.3125 0.265625 -0.8125 0.265625z" fill-rule="nonzero"/></g></svg>