<svg version="1.1" viewBox="0.0 0.0 331.0 239.0" fill="none" stroke="none" stroke-linecap="square" stroke-miterlimit="10" xmlns:xlink="http://www.w3.org/1999/xlink" xmlns="http://www.w3.org/2000/svg"><clipPath id="p.0"><path d="m0 0l331.0 0l0 239.0l-331.0 0l0 -239.0z" clip-rule="nonzero"/></clipPath><g clip-path="url(#p.0)"><path fill="#000000" fill-opacity="0.0" d="m0 0l331.0 0l0 239.0l-331.0 0z" fill-rule="evenodd"/><path fill="#000000" fill-opacity="0.0" d="m7.1286087 5.9422574l316.0315 0l0 53.480316l-316.0315 0z" fill-rule="evenodd"/><path fill="#000000" d="m22.300484 42.30554l-4.828125 0l0 -17.09375l4.828125 0l0 2.25l-2.015625 0l0 12.59375l2.015625 0l0 2.25zm10.611862 -2.828125q-1.71875 0.359375 -3.3125 0.359375q-0.703125 0 -1.3125 -0.078125q-0.609375 -0.0625 -1.109375 -0.21875q-0.5 -0.171875 -0.875 -0.390625q-0.375 -0.234375 -0.78125 -0.609375q-0.734375 -0.71875 -1.125 -1.734375q-0.390625 -1.015625 -0.390625 -2.203125q0 -1.609375 0.6875 -2.828125q0.703125 -1.21875 2.0 -1.859375q1.3125 -0.65625 3.03125 -0.65625q1.34375 0 3.125 0.453125l0 2.390625q-1.71875 -0.671875 -2.640625 -0.671875q-0.71875 0 -1.265625 0.390625q-0.53125 0.375 -0.828125 1.0625q-0.28125 0.671875 -0.28125 1.59375q0 1.390625 0.734375 2.265625q0.734375 0.859375 1.921875 0.859375q1.0 0 2.421875 -0.4375l0 2.3125zm11.541138 0.125q-1.0 0.234375 -1.796875 0.234375q-0.625 0 -1.125 -0.109375q-0.484375 -0.109375 -0.78125 -0.3125q-0.296875 -0.203125 -0.609375 -0.703125l-0.234375 0q-0.578125 0.625 -1.15625 0.875q-0.5625 0.25 -1.34375 0.25q-0.953125 0 -1.703125 -0.390625q-0.734375 -0.40625 -1.15625 -1.09375q-0.40625 -0.703125 -0.40625 -1.578125q0 -1.546875 1.125 -2.46875q0.703125 -0.59375 1.625 -0.8125q0.921875 -0.234375 2.515625 -0.234375l0.734375 0l0 -0.640625q0 -1.390625 -1.796875 -1.390625q-0.796875 0 -1.828125 0.28125q-0.75 0.21875 -1.46875 0.640625l0 -2.25q0.140625 -0.046875 0.265625 -0.09375q0.140625 -0.046875 0.234375 -0.0625q1.53125 -0.484375 3.296875 -0.484375q4.671875 0 4.671875 3.171875l0 4.375q0 0.8125 0.5625 0.8125q0.109375 0 0.375 -0.03125l0 2.015625zm-4.3125 -2.8125l0 -1.625l-0.703125 0q-1.90625 0 -1.90625 1.34375q0 0.5 0.296875 0.828125q0.296875 0.3125 0.78125 0.3125q0.796875 0 1.53125 -0.859375zm17.404968 -2.484375q0 1.265625 -0.296875 2.296875q-0.296875 1.015625 -0.875 1.75q-0.5625 0.71875 -1.375 1.109375q-0.8125 0.375 -1.796875 0.375q-0.578125 0 -1.0 -0.109375q-0.421875 -0.109375 -0.890625 -0.375q-0.453125 -0.265625 -0.875 -0.640625l-0.03125 0l0 0.890625l0 3.59375l-3.609375 0l0 -13.703125l3.609375 0l0 1.90625l0.03125 0q0.25 -0.671875 0.703125 -1.140625q0.46875 -0.484375 1.109375 -0.734375q0.65625 -0.265625 1.40625 -0.265625q0.890625 0 1.625 0.359375q0.734375 0.34375 1.234375 0.984375q0.5 0.640625 0.765625 1.59375q0.265625 0.9375 0.265625 2.109375zm-3.828125 0.234375q0 -0.828125 -0.203125 -1.421875q-0.1875 -0.59375 -0.5625 -0.90625q-0.359375 -0.3125 -0.875 -0.3125q-0.9375 0 -1.671875 1.46875l0 3.359375q0.359375 0.53125 0.71875 0.75q0.359375 0.21875 0.84375 0.21875q0.484375 0 0.890625 -0.390625q0.421875 -0.40625 0.640625 -1.125q0.21875 -0.734375 0.21875 -1.640625zm11.981033 4.96875q-0.671875 0.203125 -1.046875 0.265625q-0.375 0.0625 -0.96875 0.0625q-1.5625 0 -2.5 -0.59375q-0.6875 -0.4375 -0.9375 -1.078125q-0.25 -0.640625 -0.25 -1.9375l0 -4.71875l-1.015625 0l0 -2.015625l1.015625 0l0 -1.59375l3.59375 -0.4375l0 2.03125l1.90625 0l0 2.015625l-1.90625 0l0 4.34375q0 0.640625 0.0625 0.90625q0.0625 0.25 0.28125 0.5q0.328125 0.328125 0.984375 0.328125q0.3125 0 0.78125 -0.15625l0 2.078125zm11.994156 0.09375l-3.578125 0l0 -1.90625l-0.046875 0q-0.46875 1.0 -1.34375 1.578125q-0.875 0.5625 -1.953125 0.5625q-1.234375 0 -2.046875 -0.765625q-0.5 -0.4375 -0.71875 -1.03125q-0.203125 -0.59375 -0.203125 -1.515625l0 -7.03125l3.609375 0l0 6.28125q0 0.484375 0.078125 0.78125q0.09375 0.296875 0.28125 0.4375q0.203125 0.125 0.515625 0.125q0.46875 0 0.890625 -0.34375q0.4375 -0.34375 0.9375 -1.109375l0 -6.171875l3.578125 0l0 10.109375zm10.457626 -7.15625q-0.40625 -0.171875 -0.65625 -0.21875q-0.25 -0.046875 -0.71875 -0.046875q-0.78125 0 -1.34375 0.296875q-0.546875 0.296875 -0.984375 0.953125l0 6.171875l-3.609375 0l0 -10.109375l3.609375 0l0 1.90625l0.03125 0q0.15625 -0.46875 0.578125 -0.921875q0.4375 -0.46875 1.03125 -0.828125q0.71875 -0.390625 1.625 -0.390625q0.265625 0 0.4375 0.0625l0 3.125zm11.0625 6.8125q-0.328125 0.109375 -0.609375 0.15625q-1.8125 0.4375 -3.515625 0.4375q-1.25 0 -2.34375 -0.328125q-1.03125 -0.3125 -1.71875 -0.875q-0.859375 -0.71875 -1.359375 -1.875q-0.5 -1.171875 -0.5 -2.375q0 -1.140625 0.375 -2.09375q0.375 -0.96875 1.078125 -1.640625q0.703125 -0.6875 1.6875 -1.046875q1.0 -0.359375 2.203125 -0.359375q1.15625 0 1.96875 0.28125q0.8125 0.28125 1.40625 0.875q0.78125 0.828125 1.046875 1.859375q0.125 0.515625 0.171875 0.890625q0.0625 0.375 0.078125 0.890625q0.03125 0.515625 0.03125 1.28125l-6.34375 0q0.046875 0.4375 0.109375 0.71875q0.078125 0.265625 0.234375 0.515625q0.328125 0.515625 0.90625 0.734375q0.59375 0.203125 1.609375 0.234375q0.953125 0 1.5625 -0.109375q0.609375 -0.109375 1.921875 -0.53125l0 2.359375zm-3.390625 -5.71875l0 -0.15625q0 -1.125 -0.3125 -1.640625q-0.3125 -0.515625 -1.03125 -0.515625q-0.484375 0 -0.84375 0.28125q-0.359375 0.265625 -0.5625 0.78125q-0.203125 0.515625 -0.25 1.25l3.0 0zm15.015213 6.0625l-3.609375 0l0 -14.390625l3.609375 0l0 14.390625zm6.7319183 -11.703125l-3.609375 0l0 -2.6875l3.609375 0l0 2.6875zm0 11.703125l-3.609375 0l0 -10.109375l3.609375 0l0 10.109375zm12.060051 -3.140625q0 0.75 -0.34375 1.390625q-0.34375 0.625 -0.96875 1.0625q-0.6093826 0.4375 -1.5156326 0.6875q-0.890625 0.234375 -1.984375 0.234375q-1.0 0 -1.859375 -0.109375q-1.234375 -0.109375 -2.40625 -0.421875l0 -2.296875q0.203125 0.078125 0.34375 0.125q0.140625 0.046875 0.34375 0.125q1.765625 0.546875 3.03125 0.546875q1.59375 0 1.59375 -0.796875q0 -0.234375 -0.109375 -0.375q-0.28125 -0.296875 -1.21875 -0.640625l-0.734375 -0.296875q-2.140625 -0.796875 -2.828125 -1.75q-0.1875 -0.265625 -0.296875 -0.6875q-0.109375 -0.4375 -0.109375 -0.796875q0 -1.546875 1.25 -2.375q1.25 -0.828125 3.578125 -0.828125q1.625 0 3.4062576 0.390625l0 2.296875q-0.265625 -0.09375 -0.59375 -0.21875q-0.5468826 -0.171875 -1.2343826 -0.296875q-0.6875 -0.140625 -1.171875 -0.140625q-1.640625 0 -1.640625 0.8125q0 0.296875 0.265625 0.5q0.265625 0.203125 0.921875 0.4375l0.703125 0.234375q2.0312576 0.6875 2.7968826 1.375q0.78125 0.6875 0.78125 1.8125zm8.589874 3.046875q-0.671875 0.203125 -1.046875 0.265625q-0.375 0.0625 -0.96875 0.0625q-1.5625 0 -2.5 -0.59375q-0.6875 -0.4375 -0.9375 -1.078125q-0.25 -0.640625 -0.25 -1.9375l0 -4.71875l-1.015625 0l0 -2.015625l1.015625 0l0 -1.59375l3.59375 -0.4375l0 2.03125l1.90625 0l0 2.015625l-1.90625 0l0 4.34375q0 0.640625 0.0625 0.90625q0.0625 0.25 0.28125 0.5q0.328125 0.328125 0.984375 0.328125q0.3125 0 0.78125 -0.15625l0 2.078125zm6.494156 2.796875l-4.828125 0l0 -2.25l2.03125 0l0 -12.59375l-2.03125 0l0 -2.25l4.828125 0l0 17.09375z" fill-rule="nonzero"/><path fill="#000000" d="m157.07767 41.05554l0 1.25q-1.484375 -1.015625 -2.40625 -2.421875q-0.921875 -1.40625 -1.390625 -3.0q-0.46875 -1.59375 -0.46875 -3.125q0 -1.53125 0.46875 -3.125q0.46875 -1.59375 1.390625 -3.0q0.921875 -1.40625 2.40625 -2.421875l0 1.25q-1.03125 1.109375 -1.53125 2.171875q-0.484375 1.046875 -0.71875 2.359375q-0.21875 1.3125 -0.21875 2.765625q0 1.453125 0.21875 2.765625q0.234375 1.3125 0.71875 2.375q0.5 1.046875 1.53125 2.15625zm2.473175 2.140625l0 -13.484375l1.796875 0l0 1.859375q0.546875 -1.046875 1.375 -1.5625q0.828125 -0.515625 1.921875 -0.515625q1.84375 0 2.84375 1.34375q1.0 1.34375 1.0 3.515625q0 1.421875 -0.46875 2.703125q-0.46875 1.265625 -1.453125 2.03125q-0.96875 0.75 -2.203125 0.75q-0.5 0 -1.3125 -0.15625q-0.796875 -0.140625 -1.703125 -1.203125l0 4.71875l-1.796875 0zm1.796875 -5.953125q0.921875 0.8125 1.46875 1.03125q0.546875 0.203125 1.171875 0.203125q1.3125 0 1.9375 -1.109375q0.640625 -1.109375 0.640625 -2.828125q0 -1.609375 -0.5625 -2.546875q-0.546875 -0.9375 -1.734375 -0.9375q-0.734375 0 -1.46875 0.40625q-0.734375 0.40625 -1.453125 1.21875l0 4.5625zm15.039017 1.109375q-0.796875 0.734375 -1.578125 1.109375q-0.78125 0.375 -1.515625 0.375q-1.0625 0 -1.96875 -0.6875q-0.890625 -0.703125 -0.890625 -2.03125q0 -1.453125 1.25 -2.40625q1.265625 -0.953125 4.03125 -0.953125l0.40625 0l0 -1.203125q0 -0.703125 -0.1875 -1.03125q-0.1875 -0.328125 -0.59375 -0.5q-0.40625 -0.1875 -1.0 -0.1875q-1.40625 0 -3.046875 0.875l0 -1.484375q1.8125 -0.734375 3.40625 -0.734375q0.875 0 1.609375 0.28125q0.734375 0.265625 1.171875 0.875q0.4375 0.59375 0.4375 1.90625l0 4.484375q0 0.75 0.109375 1.015625q0.125 0.25 0.34375 0.390625q0.21875 0.140625 0.5 0.140625q0.109375 0 0.34375 -0.046875l0.125 1.0q-0.609375 0.296875 -1.34375 0.296875q-0.5 0 -0.953125 -0.3125q-0.453125 -0.328125 -0.65625 -1.171875zm-0.265625 -0.984375l0 -2.5625l-0.5625 -0.015625q-1.421875 0 -2.375 0.546875q-0.953125 0.546875 -0.953125 1.484375q0 0.65625 0.46875 1.109375q0.46875 0.4375 1.09375 0.4375q0.5625 0 1.140625 -0.25q0.59375 -0.25 1.1875 -0.75zm5.474716 2.234375l0 -9.890625l1.796875 0l0 1.859375q0.5 -1.0 1.3125 -1.53125q0.828125 -0.546875 1.78125 -0.546875q0.265625 0 0.578125 0.046875l0 1.671875q-0.453125 -0.15625 -0.828125 -0.15625q-0.84375 0 -1.5625 0.515625q-0.71875 0.5 -1.28125 1.515625l0 6.515625l-1.796875 0zm12.727509 -1.25q-0.796875 0.734375 -1.578125 1.109375q-0.78125 0.375 -1.515625 0.375q-1.0625 0 -1.96875 -0.6875q-0.890625 -0.703125 -0.890625 -2.03125q0 -1.453125 1.25 -2.40625q1.265625 -0.953125 4.03125 -0.953125l0.40625 0l0 -1.203125q0 -0.703125 -0.1875 -1.03125q-0.1875 -0.328125 -0.59375 -0.5q-0.40625 -0.1875 -1.0 -0.1875q-1.40625 0 -3.046875 0.875l0 -1.484375q1.8125 -0.734375 3.40625 -0.734375q0.875 0 1.609375 0.28125q0.734375 0.265625 1.171875 0.875q0.4375 0.59375 0.4375 1.90625l0 4.484375q0 0.75 0.109375 1.015625q0.125 0.25 0.34375 0.390625q0.21875 0.140625 0.5 0.140625q0.109375 0 0.34375 -0.046875l0.125 1.0q-0.609375 0.296875 -1.34375 0.296875q-0.5 0 -0.953125 -0.3125q-0.453125 -0.328125 -0.65625 -1.171875zm-0.265625 -0.984375l0 -2.5625l-0.5625 -0.015625q-1.421875 0 -2.375 0.546875q-0.953125 0.546875 -0.953125 1.484375q0 0.65625 0.46875 1.109375q0.46875 0.4375 1.09375 0.4375q0.5625 0 1.140625 -0.25q0.59375 -0.25 1.1875 -0.75zm5.474716 2.234375l0 -9.890625l1.796875 0l0 1.859375q0.546875 -0.875 1.390625 -1.46875q0.859375 -0.609375 1.96875 -0.609375q0.65625 0 1.140625 0.21875q0.484375 0.203125 0.875 0.59375q0.390625 0.375 0.703125 1.265625q0.546875 -0.890625 1.375 -1.484375q0.84375 -0.609375 1.9375 -0.609375q1.046875 0 1.890625 0.65625q0.859375 0.65625 0.859375 2.265625l0 7.203125l-1.8125 0l0 -6.921875q0 -0.96875 -0.421875 -1.328125q-0.40625 -0.359375 -0.90625 -0.359375q-0.640625 0 -1.328125 0.40625q-0.6875 0.390625 -1.59375 1.578125l0 6.625l-1.8125 0l0 -6.921875q0 -0.984375 -0.421875 -1.34375q-0.421875 -0.359375 -0.9375 -0.359375q-0.65625 0 -1.3125 0.40625q-0.65625 0.390625 -1.59375 1.59375l0 6.625l-1.796875 0zm24.667358 -0.3125q-1.8125 0.546875 -3.09375 0.546875q-2.296875 0 -3.625 -1.546875q-1.3125 -1.5625 -1.3125 -3.671875q0 -1.40625 0.578125 -2.65625q0.578125 -1.265625 1.515625 -1.875q0.953125 -0.609375 2.234375 -0.609375q1.703125 0 2.71875 1.234375q1.03125 1.234375 1.03125 3.6875l-0.015625 0.53125l-6.234375 0q0.140625 1.3125 0.5625 2.03125q0.421875 0.703125 1.109375 1.109375q0.703125 0.390625 1.78125 0.390625q0.546875 0 1.078125 -0.09375q0.546875 -0.09375 1.671875 -0.5l0 1.421875zm-6.125 -5.703125l4.359375 0q0 -1.484375 -0.578125 -2.109375q-0.578125 -0.640625 -1.46875 -0.640625q-1.03125 0 -1.609375 0.6875q-0.578125 0.6875 -0.703125 2.0625zm13.675186 6.015625q-0.828125 0.234375 -1.4375 0.234375q-1.328125 0 -2.109375 -0.765625q-0.78125 -0.78125 -0.78125 -2.203125l0 -5.8125l-1.25 0l0 -1.34375l1.25 0l0 -1.796875l1.78125 -0.171875l0 1.96875l2.59375 0l0 1.34375l-2.59375 0l0 5.484375q0 1.046875 0.40625 1.5q0.40625 0.4375 1.28125 0.4375q0.34375 0 0.859375 -0.109375l0 1.234375zm9.821625 -0.3125q-1.8125 0.546875 -3.09375 0.546875q-2.296875 0 -3.625 -1.546875q-1.3125 -1.5625 -1.3125 -3.671875q0 -1.40625 0.578125 -2.65625q0.578125 -1.265625 1.515625 -1.875q0.953125 -0.609375 2.234375 -0.609375q1.703125 0 2.71875 1.234375q1.03125 1.234375 1.03125 3.6875l-0.015625 0.53125l-6.234375 0q0.140625 1.3125 0.5625 2.03125q0.421875 0.703125 1.109375 1.109375q0.703125 0.390625 1.78125 0.390625q0.546875 0 1.078125 -0.09375q0.546875 -0.09375 1.671875 -0.5l0 1.421875zm-6.125 -5.703125l4.359375 0q0 -1.484375 -0.578125 -2.109375q-0.578125 -0.640625 -1.46875 -0.640625q-1.03125 0 -1.609375 0.6875q-0.578125 0.6875 -0.703125 2.0625zm9.268936 6.015625l0 -9.890625l1.796875 0l0 1.859375q0.5 -1.0 1.3125 -1.53125q0.828125 -0.546875 1.78125 -0.546875q0.265625 0 0.578125 0.046875l0 1.671875q-0.453125 -0.15625 -0.828125 -0.15625q-0.84375 0 -1.5625 0.515625q-0.71875 0.5 -1.28125 1.515625l0 6.515625l-1.796875 0zm7.2743835 -0.34375l0 -1.65625q1.75 0.875 3.046875 0.875q0.765625 0 1.2812347 -0.40625q0.515625 -0.421875 0.515625 -1.0625q0 -0.390625 -0.25 -0.765625q-0.25 -0.359375 -1.1718597 -0.75l-1.046875 -0.453125q-1.21875 -0.5 -1.765625 -1.15625q-0.5625 -0.65625 -0.5625 -1.609375q0 -1.203125 0.859375 -1.984375q0.875 -0.796875 2.5625 -0.796875q0.82810974 0 2.0468597 0.21875l0.375 0.078125l0 1.5q-1.5 -0.453125 -2.3906097 -0.453125q-0.859375 0 -1.296875 0.375q-0.421875 0.375 -0.421875 0.890625q0 0.390625 0.28125 0.71875q0.296875 0.328125 1.03125 0.640625l0.859375 0.359375q1.7343597 0.75 2.2187347 1.46875q0.46875 0.71875 0.46875 1.5625q0 0.8125 -0.4375 1.5q-0.4375 0.6875 -1.3125 1.09375q-0.859375 0.390625 -1.9062347 0.390625q-1.234375 0 -2.984375 -0.578125zm8.744675 -12.796875l0 -1.25q1.484375 1.015625 2.40625 2.421875q0.921875 1.40625 1.390625 3.0q0.484375 1.59375 0.484375 3.125q0 1.53125 -0.484375 3.125q-0.46875 1.59375 -1.390625 3.0q-0.921875 1.40625 -2.40625 2.421875l0 -1.25q1.03125 -1.109375 1.515625 -2.15625q0.5 -1.0625 0.71875 -2.375q0.234375 -1.328125 0.234375 -2.765625q0 -1.4375 -0.234375 -2.75q-0.21875 -1.328125 -0.71875 -2.375q-0.484375 -1.0625 -1.515625 -2.171875z" fill-rule="nonzero"/><path fill="#000000" fill-opacity="0.0" d="m66.97113 42.136482l288.0315 0l0 114.42519l-288.0315 0z" fill-rule="evenodd"/><path fill="#666666" d="m77.768005 73.26908l0 -9.890625l1.796875 0l0 1.859375q0.546875 -0.875 1.390625 -1.46875q0.859375 -0.609375 1.96875 -0.609375q0.65625 0 1.140625 0.21875q0.484375 0.203125 0.875 0.59375q0.390625 0.375 0.703125 1.265625q0.546875 -0.890625 1.375 -1.484375q0.84375 -0.609375 1.9375 -0.609375q1.046875 0 1.890625 0.65625q0.859375 0.65625 0.859375 2.265625l0 7.203125l-1.8125 0l0 -6.921875q0 -0.96875 -0.421875 -1.328125q-0.40625 -0.359375 -0.90625 -0.359375q-0.640625 0 -1.328125 0.40625q-0.6875 0.390625 -1.59375 1.578125l0 6.625l-1.8125 0l0 -6.921875q0 -0.984375 -0.421875 -1.34375q-0.421875 -0.359375 -0.9375 -0.359375q-0.65625 0 -1.3125 0.40625q-0.65625 0.390625 -1.59375 1.59375l0 6.625l-1.796875 0zm23.604858 0l0 -1.859375q-0.703125 1.0 -1.609375 1.546875q-0.890625 0.546875 -1.859375 0.546875q-1.25 0 -2.046875 -0.796875q-0.78125 -0.796875 -0.78125 -2.21875l0 -7.109375l1.796875 0l0 6.515625q0 1.03125 0.171875 1.359375q0.1875 0.328125 0.515625 0.515625q0.328125 0.171875 0.703125 0.171875q0.65625 0 1.421875 -0.40625q0.78125 -0.40625 1.6875 -1.75l0 -6.40625l1.796875 0l0 9.890625l-1.796875 0zm9.796921 0q-0.828125 0.234375 -1.4375 0.234375q-1.328125 0 -2.109375 -0.765625q-0.78125 -0.78125 -0.78125 -2.203125l0 -5.8125l-1.25 0l0 -1.34375l1.25 0l0 -1.796875l1.78125 -0.171875l0 1.96875l2.59375 0l0 1.34375l-2.59375 0l0 5.484375q0 1.046875 0.40625 1.5q0.40625 0.4375 1.28125 0.4375q0.34375 0 0.859375 -0.109375l0 1.234375zm7.6653748 -1.25q-0.796875 0.734375 -1.578125 1.109375q-0.78125 0.375 -1.515625 0.375q-1.0625 0 -1.96875 -0.6875q-0.890625 -0.703125 -0.890625 -2.03125q0 -1.453125 1.25 -2.40625q1.265625 -0.953125 4.03125 -0.953125l0.40625 0l0 -1.203125q0 -0.703125 -0.1875 -1.03125q-0.1875 -0.328125 -0.59375 -0.5q-0.40625 -0.1875 -1.0 -0.1875q-1.40625 0 -3.046875 0.875l0 -1.484375q1.8125 -0.734375 3.40625 -0.734375q0.875 0 1.609375 0.28125q0.734375 0.265625 1.171875 0.875q0.4375 0.59375 0.4375 1.90625l0 4.484375q0 0.75 0.109375 1.015625q0.125 0.25 0.34375 0.390625q0.21875 0.140625 0.5 0.140625q0.109375 0 0.34375 -0.046875l0.125 1.0q-0.609375 0.296875 -1.34375 0.296875q-0.5 0 -0.953125 -0.3125q-0.453125 -0.328125 -0.65625 -1.171875zm-0.265625 -0.984375l0 -2.5625l-0.5625 -0.015625q-1.421875 0 -2.375 0.546875q-0.953125 0.546875 -0.953125 1.484375q0 0.65625 0.46875 1.109375q0.46875 0.4375 1.09375 0.4375q0.5625 0 1.140625 -0.25q0.59375 -0.25 1.1875 -0.75zm5.474716 2.34375l0 -14.5l1.796875 0l0 6.359375q0.546875 -1.046875 1.375 -1.5625q0.828125 -0.515625 1.921875 -0.515625q1.84375 0 2.84375 1.34375q1.0 1.34375 1.0 3.515625q0 2.34375 -1.140625 3.921875q-1.125 1.5625 -3.09375 1.5625q-0.5625 0 -1.09375 -0.140625q-0.515625 -0.140625 -0.921875 -0.390625q-0.40625 -0.265625 -0.890625 -0.828125l-0.21875 1.234375l-1.578125 0zm1.796875 -2.46875q0.921875 0.8125 1.46875 1.03125q0.546875 0.203125 1.171875 0.203125q1.3125 0 1.9375 -1.109375q0.640625 -1.109375 0.640625 -2.828125q0 -1.609375 -0.5625 -2.546875q-0.546875 -0.9375 -1.734375 -0.9375q-0.734375 0 -1.46875 0.40625q-0.734375 0.40625 -1.453125 1.21875l0 4.5625zm9.945267 2.359375l0 -14.390625l1.796875 0l0 14.390625l-1.796875 0zm12.642822 -0.3125q-1.8125 0.546875 -3.09375 0.546875q-2.296875 0 -3.625 -1.546875q-1.3125 -1.5625 -1.3125 -3.671875q0 -1.40625 0.578125 -2.65625q0.578125 -1.265625 1.515625 -1.875q0.953125 -0.609375 2.234375 -0.609375q1.703125 0 2.71875 1.234375q1.03125 1.234375 1.03125 3.6875l-0.015625 0.53125l-6.234375 0q0.140625 1.3125 0.5625 2.03125q0.421875 0.703125 1.109375 1.109375q0.703125 0.390625 1.78125 0.390625q0.546875 0 1.078125 -0.09375q0.546875 -0.09375 1.671875 -0.5l0 1.421875zm-6.125 -5.703125l4.359375 0q0 -1.484375 -0.578125 -2.109375q-0.578125 -0.640625 -1.46875 -0.640625q-1.03125 0 -1.609375 0.6875q-0.578125 0.6875 -0.703125 2.0625zm95.50404 7.46875l0 1.25q-1.484375 -1.015625 -2.40625 -2.421875q-0.921875 -1.40625 -1.390625 -3.0q-0.46875 -1.59375 -0.46875 -3.125q0 -1.53125 0.46875 -3.125q0.46875 -1.59375 1.390625 -3.0q0.921875 -1.40625 2.40625 -2.421875l0 1.25q-1.03125 1.109375 -1.53125 2.171875q-0.484375 1.046875 -0.71875 2.359375q-0.21875 1.3125 -0.21875 2.765625q0 1.453125 0.21875 2.765625q0.234375 1.3125 0.71875 2.375q0.5 1.046875 1.53125 2.15625z" fill-rule="nonzero"/><path fill="#666666" d="m244.17206 73.503456q-1.421875 0 -2.34375 -0.578125q-0.90625 -0.578125 -1.25 -1.828125q-0.34375 -1.25 -0.03125 -2.78125q0.3125 -1.4375 1.125 -2.671875q0.828125 -1.234375 2.015625 -1.859375q1.203125 -0.625 2.6875 -0.625q1.40625 0 2.328125 0.578125q0.921875 0.5625 1.265625 1.8125q0.34375 1.25 0.015625 2.765625q-0.3125 1.46875 -1.140625 2.703125q-0.828125 1.234375 -2.015625 1.859375q-1.171875 0.625 -2.65625 0.625zm0.28125 -1.359375q1.328125 0 2.28125 -0.984375q0.953125 -1.0 1.34375 -2.84375q0.390625 -1.828125 -0.140625 -2.8125q-0.53125 -1.0 -1.859375 -1.0q-1.328125 0 -2.28125 1.0q-0.953125 0.984375 -1.34375 2.8125q-0.390625 1.84375 0.140625 2.84375q0.53125 0.984375 1.859375 0.984375zm6.5222473 4.71875l2.875 -13.484375l1.796875 0l-0.40625 1.859375q0.765625 -1.046875 1.703125 -1.5625q0.953125 -0.515625 2.046875 -0.515625q1.84375 0 2.546875 1.34375q0.71875 1.34375 0.25 3.515625q-0.296875 1.421875 -1.046875 2.703125q-0.734375 1.265625 -1.875 2.03125q-1.125 0.75 -2.359375 0.75q-0.5 0 -1.28125 -0.15625q-0.765625 -0.140625 -1.453125 -1.203125l-1.0 4.71875l-1.796875 0zm3.0625 -5.953125q0.75 0.8125 1.25 1.03125q0.5 0.203125 1.125 0.203125q1.3125 0 2.171875 -1.109375q0.875 -1.109375 1.25 -2.828125q0.34375 -1.609375 -0.015625 -2.546875q-0.359375 -0.9375 -1.546875 -0.9375q-0.734375 0 -1.5625 0.40625q-0.8125 0.40625 -1.703125 1.21875l-0.96875 4.5625zm13.851501 2.359375q-0.875 0.234375 -1.484375 0.234375q-1.328125 0 -1.953125 -0.765625q-0.609375 -0.78125 -0.3125 -2.203125l1.234375 -5.8125l-1.25 0l0.296875 -1.34375l1.25 0l0.375 -1.796875l1.8125 -0.171875l-0.40625 1.96875l2.59375 0l-0.296875 1.34375l-2.59375 0l-1.15625 5.484375q-0.234375 1.046875 0.078125 1.5q0.3125 0.4375 1.1875 0.4375q0.34375 0 0.890625 -0.109375l-0.265625 1.234375zm2.5716248 0l2.109375 -9.890625l1.796875 0l-2.109375 9.890625l-1.796875 0zm2.484375 -11.6875l0.375 -1.796875l1.796875 0l-0.375 1.796875l-1.796875 0zm6.7990723 11.921875q-1.421875 0 -2.34375 -0.578125q-0.90625 -0.578125 -1.25 -1.828125q-0.34375 -1.25 -0.03125 -2.78125q0.3125 -1.4375 1.125 -2.671875q0.828125 -1.234375 2.015625 -1.859375q1.203125 -0.625 2.6875 -0.625q1.40625 0 2.328125 0.578125q0.921875 0.5625 1.265625 1.8125q0.34375 1.25 0.015625 2.765625q-0.3125 1.46875 -1.140625 2.703125q-0.828125 1.234375 -2.015625 1.859375q-1.171875 0.625 -2.65625 0.625zm0.28125 -1.359375q1.328125 0 2.28125 -0.984375q0.953125 -1.0 1.34375 -2.84375q0.390625 -1.828125 -0.140625 -2.8125q-0.53125 -1.0 -1.859375 -1.0q-1.328125 0 -2.28125 1.0q-0.953125 0.984375 -1.34375 2.8125q-0.390625 1.84375 0.140625 2.84375q0.53125 0.984375 1.859375 0.984375zm7.2878723 1.125l2.109375 -9.890625l1.796875 0l-0.40625 1.859375q0.890625 -1.0 1.90625 -1.53125q1.03125 -0.546875 2.015625 -0.546875q1.25 0 1.859375 0.796875q0.625 0.796875 0.328125 2.203125l-1.515625 7.109375l-1.796875 0l1.390625 -6.515625q0.21875 -1.03125 0.09375 -1.359375q-0.109375 -0.328125 -0.40625 -0.5q-0.296875 -0.1875 -0.65625 -0.1875q-0.671875 0 -1.53125 0.40625q-0.859375 0.40625 -2.03125 1.75l-1.359375 6.40625l-1.796875 0zm16.937561 -1.25q-0.953125 0.734375 -1.8125 1.109375q-0.859375 0.375 -1.59375 0.375q-1.0625 0 -1.8125 -0.6875q-0.75 -0.703125 -0.46875 -2.03125q0.3125 -1.453125 1.765625 -2.40625q1.453125 -0.953125 4.21875 -0.953125l0.40625 0l0.265625 -1.203125q0.140625 -0.703125 0.015625 -1.03125q-0.109375 -0.328125 -0.484375 -0.5q-0.359375 -0.1875 -0.953125 -0.1875q-1.40625 0 -3.234375 0.875l0.328125 -1.484375q1.96875 -0.734375 3.5625 -0.734375q0.875 0 1.546875 0.28125q0.671875 0.265625 0.984375 0.875q0.3125 0.59375 0.03125 1.90625l-0.953125 4.484375q-0.15625 0.75 -0.09375 1.015625q0.0625 0.25 0.25 0.390625q0.1875 0.140625 0.46875 0.140625q0.109375 0 0.34375 -0.046875l-0.078125 1.0q-0.671875 0.296875 -1.40625 0.296875q-0.5 0 -0.890625 -0.3125q-0.375 -0.328125 -0.40625 -1.171875zm-0.0625 -0.984375l0.546875 -2.5625l-0.5625 -0.015625q-1.421875 0 -2.484375 0.546875q-1.0625 0.546875 -1.265625 1.484375q-0.140625 0.65625 0.234375 1.109375q0.375 0.4375 1.0 0.4375q0.5625 0 1.203125 -0.25q0.640625 -0.25 1.328125 -0.75zm5.005951 2.234375l3.0625 -14.390625l1.796875 0l-3.0625 14.390625l-1.796875 0z" fill-rule="nonzero"/><path fill="#666666" d="m313.4626 60.128456l0 -1.25q1.484375 1.015625 2.40625 2.421875q0.921875 1.40625 1.390625 3.0q0.484375 1.59375 0.484375 3.125q0 1.53125 -0.484375 3.125q-0.46875 1.59375 -1.390625 3.0q-0.921875 1.40625 -2.40625 2.421875l0 -1.25q1.03125 -1.109375 1.515625 -2.15625q0.5 -1.0625 0.71875 -2.375q0.234375 -1.328125 0.234375 -2.765625q0 -1.4375 -0.234375 -2.75q-0.21875 -1.328125 -0.71875 -2.375q-0.484375 -1.0625 -1.515625 -2.171875z" fill-rule="nonzero"/><path fill="#666666" d="m84.62738 94.972206q-1.734375 0.53125 -3.0 0.53125q-1.3125 0 -2.421875 -0.71875q-1.109375 -0.71875 -1.671875 -1.875q-0.546875 -1.171875 -0.546875 -2.640625q0 -2.1875 1.203125 -3.640625q1.21875 -1.46875 3.75 -1.46875q1.15625 0 2.578125 0.3125l0 1.5q-1.515625 -0.4375 -2.46875 -0.4375q-1.515625 0 -2.28125 1.125q-0.765625 1.125 -0.765625 2.65625q0 1.671875 0.859375 2.703125q0.859375 1.03125 2.234375 1.03125q1.234375 0 2.53125 -0.625l0 1.546875zm6.6339874 0.53125q-1.421875 0 -2.46875 -0.578125q-1.03125 -0.578125 -1.640625 -1.828125q-0.609375 -1.25 -0.609375 -2.78125q0 -1.4375 0.546875 -2.671875q0.5625 -1.234375 1.625 -1.859375q1.0625 -0.625 2.546875 -0.625q1.40625 0 2.453125 0.578125q1.046875 0.5625 1.65625 1.8125q0.609375 1.25 0.609375 2.765625q0 1.46875 -0.578125 2.703125q-0.5625 1.234375 -1.609375 1.859375q-1.046875 0.625 -2.53125 0.625zm0 -1.359375q1.328125 0 2.0625 -0.984375q0.75 -1.0 0.75 -2.84375q0 -1.828125 -0.75 -2.8125q-0.734375 -1.0 -2.0625 -1.0q-1.328125 0 -2.078125 1.0q-0.734375 0.984375 -0.734375 2.8125q0 1.84375 0.734375 2.84375q0.75 0.984375 2.078125 0.984375zm7.5222473 1.125l0 -9.890625l1.796875 0l0 1.859375q0.671875 -1.0 1.578125 -1.53125q0.90625 -0.546875 1.890625 -0.546875q1.25 0 2.03125 0.796875q0.796875 0.796875 0.796875 2.203125l0 7.109375l-1.796875 0l0 -6.515625q0 -1.03125 -0.1875 -1.359375q-0.1875 -0.328125 -0.515625 -0.5q-0.328125 -0.1875 -0.6875 -0.1875q-0.671875 0 -1.453125 0.40625q-0.765625 0.40625 -1.65625 1.75l0 6.40625l-1.796875 0zm11.218796 -0.34375l0 -1.65625q1.75 0.875 3.046875 0.875q0.765625 0 1.28125 -0.40625q0.515625 -0.421875 0.515625 -1.0625q0 -0.390625 -0.25 -0.765625q-0.25 -0.359375 -1.171875 -0.75l-1.046875 -0.453125q-1.21875 -0.5 -1.765625 -1.15625q-0.5625 -0.65625 -0.5625 -1.609375q0 -1.203125 0.859375 -1.984375q0.875 -0.796875 2.5625 -0.796875q0.828125 0 2.046875 0.21875l0.375 0.078125l0 1.5q-1.5 -0.453125 -2.390625 -0.453125q-0.859375 0 -1.296875 0.375q-0.421875 0.375 -0.421875 0.890625q0 0.390625 0.28125 0.71875q0.296875 0.328125 1.03125 0.640625l0.859375 0.359375q1.734375 0.75 2.21875 1.46875q0.46875 0.71875 0.46875 1.5625q0 0.8125 -0.4375 1.5q-0.4375 0.6875 -1.3125 1.09375q-0.859375 0.390625 -1.90625 0.390625q-1.234375 0 -2.984375 -0.578125zm14.27594 0.34375q-0.828125 0.234375 -1.4375 0.234375q-1.328125 0 -2.109375 -0.765625q-0.78125 -0.78125 -0.78125 -2.203125l0 -5.8125l-1.25 0l0 -1.34375l1.25 0l0 -1.796875l1.78125 -0.171875l0 1.96875l2.59375 0l0 1.34375l-2.59375 0l0 5.484375q0 1.046875 0.40625 1.5q0.40625 0.4375 1.28125 0.4375q0.34375 0 0.859375 -0.109375l0 1.234375zm9.821625 -0.3125q-1.8125 0.546875 -3.09375 0.546875q-2.296875 0 -3.625 -1.546875q-1.3125 -1.5625 -1.3125 -3.671875q0 -1.40625 0.578125 -2.65625q0.578125 -1.265625 1.515625 -1.875q0.953125 -0.609375 2.234375 -0.609375q1.703125 0 2.71875 1.234375q1.03125 1.234375 1.03125 3.6875l-0.015625 0.53125l-6.234375 0q0.140625 1.3125 0.5625 2.03125q0.421875 0.703125 1.109375 1.109375q0.703125 0.390625 1.78125 0.390625q0.546875 0 1.078125 -0.09375q0.546875 -0.09375 1.671875 -0.5l0 1.421875zm-6.125 -5.703125l4.359375 0q0 -1.484375 -0.578125 -2.109375q-0.578125 -0.640625 -1.46875 -0.640625q-1.03125 0 -1.609375 0.6875q-0.578125 0.6875 -0.703125 2.0625zm8.268936 6.015625l3.765625 -5.109375l-3.65625 -4.78125l2.140625 0l2.890625 3.8125l2.609375 -3.8125l1.75 0l-3.421875 5.015625l3.71875 4.875l-2.125 0l-2.984375 -3.921875l-2.875 3.921875l-1.8125 0zm12.441528 3.59375l0 -13.484375l1.796875 0l0 1.859375q0.546875 -1.046875 1.375 -1.5625q0.828125 -0.515625 1.921875 -0.515625q1.84375 0 2.84375 1.34375q1.0 1.34375 1.0 3.515625q0 1.421875 -0.46875 2.703125q-0.46875 1.265625 -1.453125 2.03125q-0.96875 0.75 -2.203125 0.75q-0.5 0 -1.3125 -0.15625q-0.796875 -0.140625 -1.703125 -1.203125l0 4.71875l-1.796875 0zm1.796875 -5.953125q0.921875 0.8125 1.46875 1.03125q0.546875 0.203125 1.171875 0.203125q1.3125 0 1.9375 -1.109375q0.640625 -1.109375 0.640625 -2.828125q0 -1.609375 -0.5625 -2.546875q-0.546875 -0.9375 -1.734375 -0.9375q-0.734375 0 -1.46875 0.40625q-0.734375 0.40625 -1.453125 1.21875l0 4.5625zm9.945267 2.359375l0 -9.890625l1.796875 0l0 1.859375q0.5 -1.0 1.3125 -1.53125q0.828125 -0.546875 1.78125 -0.546875q0.265625 0 0.578125 0.046875l0 1.671875q-0.453125 -0.15625 -0.828125 -0.15625q-0.84375 0 -1.5625 0.515625q-0.71875 0.5 -1.28125 1.515625l0 6.515625l-1.796875 0zm76.16 1.453125l0 1.25q-1.484375 -1.015625 -2.40625 -2.421875q-0.921875 -1.40625 -1.390625 -3.0q-0.46875 -1.59375 -0.46875 -3.125q0 -1.53125 0.46875 -3.125q0.46875 -1.59375 1.390625 -3.0q0.921875 -1.40625 2.40625 -2.421875l0 1.25q-1.03125 1.109375 -1.53125 2.171875q-0.484375 1.046875 -0.71875 2.359375q-0.21875 1.3125 -0.21875 2.765625q0 1.453125 0.21875 2.765625q0.234375 1.3125 0.71875 2.375q0.5 1.046875 1.53125 2.15625z" fill-rule="nonzero"/><path fill="#666666" d="m242.95139 95.503456q-1.421875 0 -2.34375 -0.578125q-0.90625 -0.578125 -1.25 -1.828125q-0.34375 -1.25 -0.03125 -2.78125q0.3125 -1.4375 1.125 -2.671875q0.828125 -1.234375 2.015625 -1.859375q1.203125 -0.625 2.6875 -0.625q1.40625 0 2.328125 0.578125q0.921875 0.5625 1.265625 1.8125q0.34375 1.25 0.015625 2.765625q-0.3125 1.46875 -1.140625 2.703125q-0.828125 1.234375 -2.015625 1.859375q-1.171875 0.625 -2.65625 0.625zm0.28125 -1.359375q1.328125 0 2.28125 -0.984375q0.953125 -1.0 1.34375 -2.84375q0.390625 -1.828125 -0.140625 -2.8125q-0.53125 -1.0 -1.859375 -1.0q-1.328125 0 -2.28125 1.0q-0.953125 0.984375 -1.34375 2.8125q-0.390625 1.84375 0.140625 2.84375q0.53125 0.984375 1.859375 0.984375zm6.5222473 4.71875l2.875 -13.484375l1.796875 0l-0.40625 1.859375q0.765625 -1.046875 1.703125 -1.5625q0.953125 -0.515625 2.046875 -0.515625q1.84375 0 2.546875 1.34375q0.71875 1.34375 0.25 3.515625q-0.296875 1.421875 -1.046875 2.703125q-0.734375 1.265625 -1.875 2.03125q-1.125 0.75 -2.359375 0.75q-0.5 0 -1.28125 -0.15625q-0.765625 -0.140625 -1.453125 -1.203125l-1.0 4.71875l-1.796875 0zm3.0625 -5.953125q0.75 0.8125 1.25 1.03125q0.5 0.203125 1.125 0.203125q1.3125 0 2.171875 -1.109375q0.875 -1.109375 1.25 -2.828125q0.34375 -1.609375 -0.015625 -2.546875q-0.359375 -0.9375 -1.546875 -0.9375q-0.734375 0 -1.5625 0.40625q-0.8125 0.40625 -1.703125 1.21875l-0.96875 4.5625zm13.851501 2.359375q-0.875 0.234375 -1.484375 0.234375q-1.328125 0 -1.953125 -0.765625q-0.609375 -0.78125 -0.3125 -2.203125l1.234375 -5.8125l-1.25 0l0.296875 -1.34375l1.25 0l0.375 -1.796875l1.8125 -0.171875l-0.40625 1.96875l2.59375 0l-0.296875 1.34375l-2.59375 0l-1.15625 5.484375q-0.234375 1.046875 0.078125 1.5q0.3125 0.4375 1.1875 0.4375q0.34375 0 0.890625 -0.109375l-0.265625 1.234375zm2.5716248 0l2.109375 -9.890625l1.796875 0l-2.109375 9.890625l-1.796875 0zm2.484375 -11.6875l0.375 -1.796875l1.796875 0l-0.375 1.796875l-1.796875 0zm6.7990723 11.921875q-1.421875 0 -2.34375 -0.578125q-0.90625 -0.578125 -1.25 -1.828125q-0.34375 -1.25 -0.03125 -2.78125q0.3125 -1.4375 1.125 -2.671875q0.828125 -1.234375 2.015625 -1.859375q1.203125 -0.625 2.6875 -0.625q1.40625 0 2.328125 0.578125q0.921875 0.5625 1.265625 1.8125q0.34375 1.25 0.015625 2.765625q-0.3125 1.46875 -1.140625 2.703125q-0.828125 1.234375 -2.015625 1.859375q-1.171875 0.625 -2.65625 0.625zm0.28125 -1.359375q1.328125 0 2.28125 -0.984375q0.953125 -1.0 1.34375 -2.84375q0.390625 -1.828125 -0.140625 -2.8125q-0.53125 -1.0 -1.859375 -1.0q-1.328125 0 -2.28125 1.0q-0.953125 0.984375 -1.34375 2.8125q-0.390625 1.84375 0.140625 2.84375q0.53125 0.984375 1.859375 0.984375zm7.2878723 1.125l2.109375 -9.890625l1.796875 0l-0.40625 1.859375q0.890625 -1.0 1.90625 -1.53125q1.03125 -0.546875 2.015625 -0.546875q1.25 0 1.859375 0.796875q0.625 0.796875 0.328125 2.203125l-1.515625 7.109375l-1.796875 0l1.390625 -6.515625q0.21875 -1.03125 0.09375 -1.359375q-0.109375 -0.328125 -0.40625 -0.5q-0.296875 -0.1875 -0.65625 -0.1875q-0.671875 0 -1.53125 0.40625q-0.859375 0.40625 -2.03125 1.75l-1.359375 6.40625l-1.796875 0zm16.937561 -1.25q-0.953125 0.734375 -1.8125 1.109375q-0.859375 0.375 -1.59375 0.375q-1.0625 0 -1.8125 -0.6875q-0.75 -0.703125 -0.46875 -2.03125q0.3125 -1.453125 1.765625 -2.40625q1.453125 -0.953125 4.21875 -0.953125l0.40625 0l0.265625 -1.203125q0.140625 -0.703125 0.015625 -1.03125q-0.109375 -0.328125 -0.484375 -0.5q-0.359375 -0.1875 -0.953125 -0.1875q-1.40625 0 -3.234375 0.875l0.328125 -1.484375q1.96875 -0.734375 3.5625 -0.734375q0.875 0 1.546875 0.28125q0.671875 0.265625 0.984375 0.875q0.3125 0.59375 0.03125 1.90625l-0.953125 4.484375q-0.15625 0.75 -0.09375 1.015625q0.0625 0.25 0.25 0.390625q0.1875 0.140625 0.46875 0.140625q0.109375 0 0.34375 -0.046875l-0.078125 1.0q-0.671875 0.296875 -1.40625 0.296875q-0.5 0 -0.890625 -0.3125q-0.375 -0.328125 -0.40625 -1.171875zm-0.0625 -0.984375l0.546875 -2.5625l-0.5625 -0.015625q-1.421875 0 -2.484375 0.546875q-1.0625 0.546875 -1.265625 1.484375q-0.140625 0.65625 0.234375 1.109375q0.375 0.4375 1.0 0.4375q0.5625 0 1.203125 -0.25q0.640625 -0.25 1.328125 -0.75zm5.005951 2.234375l3.0625 -14.390625l1.796875 0l-3.0625 14.390625l-1.796875 0z" fill-rule="nonzero"/><path fill="#666666" d="m312.2419 82.128456l0 -1.25q1.484375 1.015625 2.40625 2.421875q0.921875 1.40625 1.390625 3.0q0.484375 1.59375 0.484375 3.125q0 1.53125 -0.484375 3.125q-0.46875 1.59375 -1.390625 3.0q-0.921875 1.40625 -2.40625 2.421875l0 -1.25q1.03125 -1.109375 1.515625 -2.15625q0.5 -1.0625 0.71875 -2.375q0.234375 -1.328125 0.234375 -2.765625q0 -1.4375 -0.234375 -2.75q-0.21875 -1.328125 -0.71875 -2.375q-0.484375 -1.0625 -1.515625 -2.171875z" fill-rule="nonzero"/><path fill="#666666" d="m85.018005 116.95658q-1.8125 0.546875 -3.09375 0.546875q-2.296875 0 -3.625 -1.546875q-1.3125 -1.5625 -1.3125 -3.671875q0 -1.40625 0.578125 -2.65625q0.578125 -1.265625 1.515625 -1.875q0.953125 -0.609375 2.234375 -0.609375q1.703125 0 2.71875 1.234375q1.03125 1.234375 1.03125 3.6875l-0.015625 0.53125l-6.234375 0q0.140625 1.3125 0.5625 2.03125q0.421875 0.703125 1.109375 1.109375q0.703125 0.390625 1.78125 0.390625q0.546875 0 1.078125 -0.09375q0.546875 -0.09375 1.671875 -0.5l0 1.421875zm-6.125 -5.703125l4.359375 0q0 -1.484375 -0.578125 -2.109375q-0.578125 -0.640625 -1.46875 -0.640625q-1.03125 0 -1.609375 0.6875q-0.578125 0.6875 -0.703125 2.0625zm8.268936 6.015625l3.765625 -5.109375l-3.65625 -4.78125l2.140625 0l2.890625 3.8125l2.609375 -3.8125l1.75 0l-3.421875 5.015625l3.71875 4.875l-2.125 0l-2.984375 -3.921875l-2.875 3.921875l-1.8125 0zm19.300903 -0.296875q-1.734375 0.53125 -3.0 0.53125q-1.3125 0 -2.421875 -0.71875q-1.109375 -0.71875 -1.671875 -1.875q-0.546875 -1.171875 -0.546875 -2.640625q0 -2.1875 1.203125 -3.640625q1.21875 -1.46875 3.75 -1.46875q1.15625 0 2.578125 0.3125l0 1.5q-1.515625 -0.4375 -2.46875 -0.4375q-1.515625 0 -2.28125 1.125q-0.765625 1.125 -0.765625 2.65625q0 1.671875 0.859375 2.703125q0.859375 1.03125 2.234375 1.03125q1.234375 0 2.53125 -0.625l0 1.546875zm9.946487 -0.015625q-1.8125 0.546875 -3.09375 0.546875q-2.296875 0 -3.625 -1.546875q-1.3125 -1.5625 -1.3125 -3.671875q0 -1.40625 0.578125 -2.65625q0.578125 -1.265625 1.515625 -1.875q0.953125 -0.609375 2.234375 -0.609375q1.703125 0 2.71875 1.234375q1.03125 1.234375 1.03125 3.6875l-0.015625 0.53125l-6.234375 0q0.140625 1.3125 0.5625 2.03125q0.421875 0.703125 1.109375 1.109375q0.703125 0.390625 1.78125 0.390625q0.546875 0 1.078125 -0.09375q0.546875 -0.09375 1.671875 -0.5l0 1.421875zm-6.125 -5.703125l4.359375 0q0 -1.484375 -0.578125 -2.109375q-0.578125 -0.640625 -1.46875 -0.640625q-1.03125 0 -1.609375 0.6875q-0.578125 0.6875 -0.703125 2.0625zm9.268936 9.609375l0 -13.484375l1.796875 0l0 1.859375q0.546875 -1.046875 1.375 -1.5625q0.828125 -0.515625 1.921875 -0.515625q1.84375 0 2.84375 1.34375q1.0 1.34375 1.0 3.515625q0 1.421875 -0.46875 2.703125q-0.46875 1.265625 -1.453125 2.03125q-0.96875 0.75 -2.203125 0.75q-0.5 0 -1.3125 -0.15625q-0.796875 -0.140625 -1.703125 -1.203125l0 4.71875l-1.796875 0zm1.796875 -5.953125q0.921875 0.8125 1.46875 1.03125q0.546875 0.203125 1.171875 0.203125q1.3125 0 1.9375 -1.109375q0.640625 -1.109375 0.640625 -2.828125q0 -1.609375 -0.5625 -2.546875q-0.546875 -0.9375 -1.734375 -0.9375q-0.734375 0 -1.46875 0.40625q-0.734375 0.40625 -1.453125 1.21875l0 4.5625zm14.351517 2.359375q-0.828125 0.234375 -1.4375 0.234375q-1.328125 0 -2.109375 -0.765625q-0.78125 -0.78125 -0.78125 -2.203125l0 -5.8125l-1.25 0l0 -1.34375l1.25 0l0 -1.796875l1.78125 -0.171875l0 1.96875l2.59375 0l0 1.34375l-2.59375 0l0 5.484375q0 1.046875 0.40625 1.5q0.40625 0.4375 1.28125 0.4375q0.34375 0 0.859375 -0.109375l0 1.234375zm2.5716248 0l0 -9.890625l1.796875 0l0 9.890625l-1.796875 0zm0 -11.6875l0 -1.796875l1.796875 0l0 1.796875l-1.796875 0zm9.330322 11.921875q-1.421875 0 -2.46875 -0.578125q-1.03125 -0.578125 -1.640625 -1.828125q-0.609375 -1.25 -0.609375 -2.78125q0 -1.4375 0.546875 -2.671875q0.5625 -1.234375 1.625 -1.859375q1.0625 -0.625 2.546875 -0.625q1.40625 0 2.453125 0.578125q1.046875 0.5625 1.65625 1.8125q0.609375 1.25 0.609375 2.765625q0 1.46875 -0.578125 2.703125q-0.5625 1.234375 -1.609375 1.859375q-1.046875 0.625 -2.53125 0.625zm0 -1.359375q1.328125 0 2.0625 -0.984375q0.75 -1.0 0.75 -2.84375q0 -1.828125 -0.75 -2.8125q-0.734375 -1.0 -2.0625 -1.0q-1.328125 0 -2.078125 1.0q-0.734375 0.984375 -0.734375 2.8125q0 1.84375 0.734375 2.84375q0.75 0.984375 2.078125 0.984375zm7.5222473 1.125l0 -9.890625l1.796875 0l0 1.859375q0.671875 -1.0 1.578125 -1.53125q0.90625 -0.546875 1.890625 -0.546875q1.25 0 2.03125 0.796875q0.796875 0.796875 0.796875 2.203125l0 7.109375l-1.796875 0l0 -6.515625q0 -1.03125 -0.1875 -1.359375q-0.1875 -0.328125 -0.515625 -0.5q-0.328125 -0.1875 -0.6875 -0.1875q-0.671875 0 -1.453125 0.40625q-0.765625 0.40625 -1.65625 1.75l0 6.40625l-1.796875 0zm22.574875 -1.25q-0.796875 0.734375 -1.578125 1.109375q-0.78125 0.375 -1.515625 0.375q-1.0625 0 -1.96875 -0.6875q-0.890625 -0.703125 -0.890625 -2.03125q0 -1.453125 1.25 -2.40625q1.265625 -0.953125 4.03125 -0.953125l0.40625 0l0 -1.203125q0 -0.703125 -0.1875 -1.03125q-0.1875 -0.328125 -0.59375 -0.5q-0.40625 -0.1875 -1.0 -0.1875q-1.40625 0 -3.046875 0.875l0 -1.484375q1.8125 -0.734375 3.40625 -0.734375q0.875 0 1.609375 0.28125q0.734375 0.265625 1.171875 0.875q0.4375 0.59375 0.4375 1.90625l0 4.484375q0 0.75 0.109375 1.015625q0.125 0.25 0.34375 0.390625q0.21875 0.140625 0.5 0.140625q0.109375 0 0.34375 -0.046875l0.125 1.0q-0.609375 0.296875 -1.34375 0.296875q-0.5 0 -0.953125 -0.3125q-0.453125 -0.328125 -0.65625 -1.171875zm-0.265625 -0.984375l0 -2.5625l-0.5625 -0.015625q-1.421875 0 -2.375 0.546875q-0.953125 0.546875 -0.953125 1.484375q0 0.65625 0.46875 1.109375q0.46875 0.4375 1.09375 0.4375q0.5625 0 1.140625 -0.25q0.59375 -0.25 1.1875 -0.75zm9.880966 2.234375q-0.828125 0.234375 -1.4375 0.234375q-1.328125 0 -2.109375 -0.765625q-0.78125 -0.78125 -0.78125 -2.203125l0 -5.8125l-1.25 0l0 -1.34375l1.25 0l0 -1.796875l1.78125 -0.171875l0 1.96875l2.59375 0l0 1.34375l-2.59375 0l0 5.484375q0 1.046875 0.40625 1.5q0.40625 0.4375 1.28125 0.4375q0.34375 0 0.859375 -0.109375l0 1.234375zm6.9778748 0q-0.828125 0.234375 -1.4375 0.234375q-1.328125 0 -2.109375 -0.765625q-0.78125 -0.78125 -0.78125 -2.203125l0 -5.8125l-1.25 0l0 -1.34375l1.25 0l0 -1.796875l1.78125 -0.171875l0 1.96875l2.59375 0l0 1.34375l-2.59375 0l0 5.484375q0 1.046875 0.40625 1.5q0.40625 0.4375 1.28125 0.4375q0.34375 0 0.859375 -0.109375l0 1.234375zm2.5716248 0l0 -9.890625l1.796875 0l0 1.859375q0.5 -1.0 1.3125 -1.53125q0.828125 -0.546875 1.78125 -0.546875q0.265625 0 0.578125 0.046875l0 1.671875q-0.453125 -0.15625 -0.828125 -0.15625q-0.84375 0 -1.5625 0.515625q-0.71875 0.5 -1.28125 1.515625l0 6.515625l-1.796875 0zm40.74228 1.453125l0 1.25q-1.484375 -1.015625 -2.40625 -2.421875q-0.921875 -1.40625 -1.390625 -3.0q-0.46875 -1.59375 -0.46875 -3.125q0 -1.53125 0.46875 -3.125q0.46875 -1.59375 1.390625 -3.0q0.921875 -1.40625 2.40625 -2.421875l0 1.25q-1.03125 1.109375 -1.53125 2.171875q-0.484375 1.046875 -0.71875 2.359375q-0.21875 1.3125 -0.21875 2.765625q0 1.453125 0.21875 2.765625q0.234375 1.3125 0.71875 2.375q0.5 1.046875 1.53125 2.15625z" fill-rule="nonzero"/><path fill="#666666" d="m243.97165 117.503456q-1.421875 0 -2.34375 -0.578125q-0.90625 -0.578125 -1.25 -1.828125q-0.34375 -1.25 -0.03125 -2.78125q0.3125 -1.4375 1.125 -2.671875q0.828125 -1.234375 2.015625 -1.859375q1.203125 -0.625 2.6875 -0.625q1.40625 0 2.328125 0.578125q0.921875 0.5625 1.265625 1.8125q0.34375 1.25 0.015625 2.765625q-0.3125 1.46875 -1.140625 2.703125q-0.828125 1.234375 -2.015625 1.859375q-1.171875 0.625 -2.65625 0.625zm0.28125 -1.359375q1.328125 0 2.28125 -0.984375q0.953125 -1.0 1.34375 -2.84375q0.390625 -1.828125 -0.140625 -2.8125q-0.53125 -1.0 -1.859375 -1.0q-1.328125 0 -2.28125 1.0q-0.953125 0.984375 -1.34375 2.8125q-0.390625 1.84375 0.140625 2.84375q0.53125 0.984375 1.859375 0.984375zm6.5222473 4.71875l2.875 -13.484375l1.796875 0l-0.40625 1.859375q0.765625 -1.046875 1.703125 -1.5625q0.953125 -0.515625 2.046875 -0.515625q1.84375 0 2.546875 1.34375q0.71875 1.34375 0.25 3.515625q-0.296875 1.421875 -1.046875 2.703125q-0.734375 1.265625 -1.875 2.03125q-1.125 0.75 -2.359375 0.75q-0.5 0 -1.28125 -0.15625q-0.765625 -0.140625 -1.453125 -1.203125l-1.0 4.71875l-1.796875 0zm3.0625 -5.953125q0.75 0.8125 1.25 1.03125q0.5 0.203125 1.125 0.203125q1.3125 0 2.171875 -1.109375q0.875 -1.109375 1.25 -2.828125q0.34375 -1.609375 -0.015625 -2.546875q-0.359375 -0.9375 -1.546875 -0.9375q-0.734375 0 -1.5625 0.40625q-0.8125 0.40625 -1.703125 1.21875l-0.96875 4.5625zm13.851501 2.359375q-0.875 0.234375 -1.484375 0.234375q-1.328125 0 -1.953125 -0.765625q-0.609375 -0.78125 -0.3125 -2.203125l1.234375 -5.8125l-1.25 0l0.296875 -1.34375l1.25 0l0.375 -1.796875l1.8125 -0.171875l-0.40625 1.96875l2.59375 0l-0.296875 1.34375l-2.59375 0l-1.15625 5.484375q-0.234375 1.046875 0.078125 1.5q0.3125 0.4375 1.1875 0.4375q0.34375 0 0.890625 -0.109375l-0.265625 1.234375zm2.5716248 0l2.109375 -9.890625l1.796875 0l-2.109375 9.890625l-1.796875 0zm2.484375 -11.6875l0.375 -1.796875l1.796875 0l-0.375 1.796875l-1.796875 0zm6.7990723 11.921875q-1.421875 0 -2.34375 -0.578125q-0.90625 -0.578125 -1.25 -1.828125q-0.34375 -1.25 -0.03125 -2.78125q0.3125 -1.4375 1.125 -2.671875q0.828125 -1.234375 2.015625 -1.859375q1.203125 -0.625 2.6875 -0.625q1.40625 0 2.328125 0.578125q0.921875 0.5625 1.265625 1.8125q0.34375 1.25 0.015625 2.765625q-0.3125 1.46875 -1.140625 2.703125q-0.828125 1.234375 -2.015625 1.859375q-1.171875 0.625 -2.65625 0.625zm0.28125 -1.359375q1.328125 0 2.28125 -0.984375q0.953125 -1.0 1.34375 -2.84375q0.390625 -1.828125 -0.140625 -2.8125q-0.53125 -1.0 -1.859375 -1.0q-1.328125 0 -2.28125 1.0q-0.953125 0.984375 -1.34375 2.8125q-0.390625 1.84375 0.140625 2.84375q0.53125 0.984375 1.859375 0.984375zm7.2878723 1.125l2.109375 -9.890625l1.796875 0l-0.40625 1.859375q0.890625 -1.0 1.90625 -1.53125q1.03125 -0.546875 2.015625 -0.546875q1.25 0 1.859375 0.796875q0.625 0.796875 0.328125 2.203125l-1.515625 7.109375l-1.796875 0l1.390625 -6.515625q0.21875 -1.03125 0.09375 -1.359375q-0.109375 -0.328125 -0.40625 -0.5q-0.296875 -0.1875 -0.65625 -0.1875q-0.671875 0 -1.53125 0.40625q-0.859375 0.40625 -2.03125 1.75l-1.359375 6.40625l-1.796875 0zm16.937561 -1.25q-0.953125 0.734375 -1.8125 1.109375q-0.859375 0.375 -1.59375 0.375q-1.0625 0 -1.8125 -0.6875q-0.75 -0.703125 -0.46875 -2.03125q0.3125 -1.453125 1.765625 -2.40625q1.453125 -0.953125 4.21875 -0.953125l0.40625 0l0.265625 -1.203125q0.140625 -0.703125 0.015625 -1.03125q-0.109375 -0.328125 -0.484375 -0.5q-0.359375 -0.1875 -0.953125 -0.1875q-1.40625 0 -3.234375 0.875l0.328125 -1.484375q1.96875 -0.734375 3.5625 -0.734375q0.875 0 1.546875 0.28125q0.671875 0.265625 0.984375 0.875q0.3125 0.59375 0.03125 1.90625l-0.953125 4.484375q-0.15625 0.75 -0.09375 1.015625q0.0625 0.25 0.25 0.390625q0.1875 0.140625 0.46875 0.140625q0.109375 0 0.34375 -0.046875l-0.078125 1.0q-0.671875 0.296875 -1.40625 0.296875q-0.5 0 -0.890625 -0.3125q-0.375 -0.328125 -0.40625 -1.171875zm-0.0625 -0.984375l0.546875 -2.5625l-0.5625 -0.015625q-1.421875 0 -2.484375 0.546875q-1.0625 0.546875 -1.265625 1.484375q-0.140625 0.65625 0.234375 1.109375q0.375 0.4375 1.0 0.4375q0.5625 0 1.203125 -0.25q0.640625 -0.25 1.328125 -0.75zm5.005951 2.234375l3.0625 -14.390625l1.796875 0l-3.0625 14.390625l-1.796875 0z" fill-rule="nonzero"/><path fill="#666666" d="m313.26218 104.128456l0 -1.25q1.484375 1.015625 2.40625 2.421875q0.921875 1.40625 1.390625 3.0q0.484375 1.59375 0.484375 3.125q0 1.53125 -0.484375 3.125q-0.46875 1.59375 -1.390625 3.0q-0.921875 1.40625 -2.40625 2.421875l0 -1.25q1.03125 -1.109375 1.515625 -2.15625q0.5 -1.0625 0.71875 -2.375q0.234375 -1.328125 0.234375 -2.765625q0 -1.4375 -0.234375 -2.75q-0.21875 -1.328125 -0.71875 -2.375q-0.484375 -1.0625 -1.515625 -2.171875z" fill-rule="nonzero"/><path fill="#666666" d="m76.986755 134.31596l0 -1.34375l4.046875 0l0 1.34375l-4.046875 0zm6.004425 -5.390625l9.890625 4.953125l-9.890625 4.9375l0 -1.5625l6.875 -3.375l-6.875 -3.375l0 -1.578125zm18.543503 10.34375l0 -9.890625l1.796875 0l0 1.859375q0.5 -1.0 1.3125 -1.53125q0.828125 -0.546875 1.78125 -0.546875q0.265625 0 0.578125 0.046875l0 1.671875q-0.453125 -0.15625 -0.828125 -0.15625q-0.84375 0 -1.5625 0.515625q-0.71875 0.5 -1.28125 1.515625l0 6.515625l-1.796875 0zm14.883759 -0.3125q-1.8125 0.546875 -3.09375 0.546875q-2.296875 0 -3.625 -1.546875q-1.3125 -1.5625 -1.3125 -3.671875q0 -1.40625 0.578125 -2.65625q0.578125 -1.265625 1.515625 -1.875q0.953125 -0.609375 2.234375 -0.609375q1.703125 0 2.71875 1.234375q1.03125 1.234375 1.03125 3.6875l-0.015625 0.53125l-6.234375 0q0.140625 1.3125 0.5625 2.03125q0.421875 0.703125 1.109375 1.109375q0.703125 0.390625 1.78125 0.390625q0.546875 0 1.078125 -0.09375q0.546875 -0.09375 1.671875 -0.5l0 1.421875zm-6.125 -5.703125l4.359375 0q0 -1.484375 -0.578125 -2.109375q-0.578125 -0.640625 -1.46875 -0.640625q-1.03125 0 -1.609375 0.6875q-0.578125 0.6875 -0.703125 2.0625zm13.675186 6.015625q-0.828125 0.234375 -1.4375 0.234375q-1.328125 0 -2.109375 -0.765625q-0.78125 -0.78125 -0.78125 -2.203125l0 -5.8125l-1.25 0l0 -1.34375l1.25 0l0 -1.7968826l1.78125 -0.171875l0 1.9687576l2.59375 0l0 1.34375l-2.59375 0l0 5.484375q0 1.046875 0.40625 1.5q0.40625 0.4375 1.28125 0.4375q0.34375 0 0.859375 -0.109375l0 1.234375zm8.759125 0l0 -1.859375q-0.703125 1.0 -1.609375 1.546875q-0.890625 0.546875 -1.859375 0.546875q-1.25 0 -2.046875 -0.796875q-0.78125 -0.796875 -0.78125 -2.21875l0 -7.109375l1.796875 0l0 6.515625q0 1.03125 0.171875 1.359375q0.1875 0.328125 0.515625 0.515625q0.328125 0.171875 0.703125 0.171875q0.65625 0 1.421875 -0.40625q0.78125 -0.40625 1.6875 -1.75l0 -6.40625l1.796875 0l0 9.890625l-1.796875 0zm5.390671 0l0 -9.890625l1.796875 0l0 1.859375q0.5 -1.0 1.3125 -1.53125q0.828125 -0.546875 1.78125 -0.546875q0.265625 0 0.578125 0.046875l0 1.671875q-0.453125 -0.15625 -0.828125 -0.15625q-0.84375 0 -1.5625 0.515625q-0.71875 0.5 -1.28125 1.515625l0 6.515625l-1.796875 0zm7.6337585 0l0 -9.890625l1.796875 0l0 1.859375q0.671875 -1.0 1.578125 -1.53125q0.90625 -0.546875 1.890625 -0.546875q1.25 0 2.03125 0.796875q0.796875 0.796875 0.796875 2.203125l0 7.109375l-1.796875 0l0 -6.515625q0 -1.03125 -0.1875 -1.359375q-0.1875 -0.328125 -0.515625 -0.5q-0.328125 -0.1875 -0.6875 -0.1875q-0.671875 0 -1.453125 0.40625q-0.765625 0.40625 -1.65625 1.75l0 6.40625l-1.796875 0zm21.887375 0q-0.828125 0.234375 -1.4375 0.234375q-1.328125 0 -2.109375 -0.765625q-0.78125 -0.78125 -0.78125 -2.203125l0 -5.8125l-1.25 0l0 -1.34375l1.25 0l0 -1.7968826l1.78125 -0.171875l0 1.9687576l2.59375 0l0 1.34375l-2.59375 0l0 5.484375q0 1.046875 0.40625 1.5q0.40625 0.4375 1.28125 0.4375q0.34375 0 0.859375 -0.109375l0 1.234375zm3.1497498 3.59375l1.59375 -3.59375l-3.828125 -9.890625l1.953125 0l2.828125 7.453125l3.015625 -7.453125l1.703125 0l-5.40625 13.484375l-1.859375 0zm9.169037 0l0 -13.484375l1.796875 0l0 1.859375q0.546875 -1.046875 1.375 -1.5625q0.828125 -0.515625 1.921875 -0.515625q1.84375 0 2.84375 1.34375q1.0 1.34375 1.0 3.515625q0 1.421875 -0.46875 2.703125q-0.46875 1.265625 -1.453125 2.03125q-0.96875 0.75 -2.203125 0.75q-0.5 0 -1.3125 -0.15625q-0.796875 -0.140625 -1.703125 -1.203125l0 4.71875l-1.796875 0zm1.796875 -5.953125q0.921875 0.8125 1.46875 1.03125q0.546875 0.203125 1.171875 0.203125q1.3125 0 1.9375 -1.109375q0.640625 -1.109375 0.640625 -2.828125q0 -1.609375 -0.5625 -2.546875q-0.546875 -0.9375 -1.734375 -0.9375q-0.734375 0 -1.46875 0.40625q-0.734375 0.40625 -1.453125 1.21875l0 4.5625zm17.195267 2.046875q-1.8125 0.546875 -3.09375 0.546875q-2.296875 0 -3.625 -1.546875q-1.3125 -1.5625 -1.3125 -3.671875q0 -1.40625 0.578125 -2.65625q0.578125 -1.265625 1.515625 -1.875q0.953125 -0.609375 2.234375 -0.609375q1.703125 0 2.71875 1.234375q1.03125 1.234375 1.03125 3.6875l-0.015625 0.53125l-6.234375 0q0.140625 1.3125 0.5625 2.03125q0.421875 0.703125 1.109375 1.109375q0.703125 0.390625 1.78125 0.390625q0.546875 0 1.078125 -0.09375q0.546875 -0.09375 1.671875 -0.5l0 1.421875zm-6.125 -5.703125l4.359375 0q0 -1.484375 -0.578125 -2.109375q-0.578125 -0.640625 -1.46875 -0.640625q-1.03125 0 -1.609375 0.6875q-0.578125 0.6875 -0.703125 2.0625zm42.377457 7.46875l0 1.25q-1.484375 -1.015625 -2.40625 -2.421875q-0.921875 -1.40625 -1.390625 -3.0q-0.46875 -1.59375 -0.46875 -3.125q0 -1.53125 0.46875 -3.125q0.46875 -1.59375 1.390625 -3.0000076q0.921875 -1.40625 2.40625 -2.421875l0 1.25q-1.03125 1.109375 -1.53125 2.1718826q-0.484375 1.046875 -0.71875 2.359375q-0.21875 1.3125 -0.21875 2.765625q0 1.453125 0.21875 2.765625q0.234375 1.3125 0.71875 2.375q0.5 1.046875 1.53125 2.15625z" fill-rule="nonzero"/><path fill="#666666" d="m241.56674 139.50346q-1.421875 0 -2.34375 -0.578125q-0.90625 -0.578125 -1.25 -1.828125q-0.34375 -1.25 -0.03125 -2.78125q0.3125 -1.4375 1.125 -2.671875q0.828125 -1.234375 2.015625 -1.859375q1.203125 -0.625 2.6875 -0.625q1.40625 0 2.328125 0.578125q0.921875 0.5625 1.265625 1.8125q0.34375 1.25 0.015625 2.765625q-0.3125 1.46875 -1.140625 2.703125q-0.828125 1.234375 -2.015625 1.859375q-1.171875 0.625 -2.65625 0.625zm0.28125 -1.359375q1.328125 0 2.28125 -0.984375q0.953125 -1.0 1.34375 -2.84375q0.390625 -1.828125 -0.140625 -2.8125q-0.53125 -1.0 -1.859375 -1.0q-1.328125 0 -2.28125 1.0q-0.953125 0.984375 -1.34375 2.8125q-0.390625 1.84375 0.140625 2.84375q0.53125 0.984375 1.859375 0.984375zm6.5222473 4.71875l2.875 -13.484375l1.796875 0l-0.40625 1.859375q0.765625 -1.046875 1.703125 -1.5625q0.953125 -0.515625 2.046875 -0.515625q1.84375 0 2.546875 1.34375q0.71875 1.34375 0.25 3.515625q-0.296875 1.421875 -1.046875 2.703125q-0.734375 1.265625 -1.875 2.03125q-1.125 0.75 -2.359375 0.75q-0.5 0 -1.28125 -0.15625q-0.765625 -0.140625 -1.453125 -1.203125l-1.0 4.71875l-1.796875 0zm3.0625 -5.953125q0.75 0.8125 1.25 1.03125q0.5 0.203125 1.125 0.203125q1.3125 0 2.171875 -1.109375q0.875 -1.109375 1.25 -2.828125q0.34375 -1.609375 -0.015625 -2.546875q-0.359375 -0.9375 -1.546875 -0.9375q-0.734375 0 -1.5625 0.40625q-0.8125 0.40625 -1.703125 1.21875l-0.96875 4.5625zm13.851501 2.359375q-0.875 0.234375 -1.484375 0.234375q-1.328125 0 -1.953125 -0.765625q-0.609375 -0.78125 -0.3125 -2.203125l1.234375 -5.8125l-1.25 0l0.296875 -1.34375l1.25 0l0.375 -1.7968826l1.8125 -0.171875l-0.40625 1.9687576l2.59375 0l-0.296875 1.34375l-2.59375 0l-1.15625 5.484375q-0.234375 1.046875 0.078125 1.5q0.3125 0.4375 1.1875 0.4375q0.34375 0 0.890625 -0.109375l-0.265625 1.234375zm2.5716248 0l2.109375 -9.890625l1.796875 0l-2.109375 9.890625l-1.796875 0zm2.484375 -11.687508l0.375 -1.796875l1.796875 0l-0.375 1.796875l-1.796875 0zm6.7990723 11.921883q-1.421875 0 -2.34375 -0.578125q-0.90625 -0.578125 -1.25 -1.828125q-0.34375 -1.25 -0.03125 -2.78125q0.3125 -1.4375 1.125 -2.671875q0.828125 -1.234375 2.015625 -1.859375q1.203125 -0.625 2.6875 -0.625q1.40625 0 2.328125 0.578125q0.921875 0.5625 1.265625 1.8125q0.34375 1.25 0.015625 2.765625q-0.3125 1.46875 -1.140625 2.703125q-0.828125 1.234375 -2.015625 1.859375q-1.171875 0.625 -2.65625 0.625zm0.28125 -1.359375q1.328125 0 2.28125 -0.984375q0.953125 -1.0 1.34375 -2.84375q0.390625 -1.828125 -0.140625 -2.8125q-0.53125 -1.0 -1.859375 -1.0q-1.328125 0 -2.28125 1.0q-0.953125 0.984375 -1.34375 2.8125q-0.390625 1.84375 0.140625 2.84375q0.53125 0.984375 1.859375 0.984375zm7.2878723 1.125l2.109375 -9.890625l1.796875 0l-0.40625 1.859375q0.890625 -1.0 1.90625 -1.53125q1.03125 -0.546875 2.015625 -0.546875q1.25 0 1.859375 0.796875q0.625 0.796875 0.328125 2.203125l-1.515625 7.109375l-1.796875 0l1.390625 -6.515625q0.21875 -1.03125 0.09375 -1.359375q-0.109375 -0.328125 -0.40625 -0.5q-0.296875 -0.1875 -0.65625 -0.1875q-0.671875 0 -1.53125 0.40625q-0.859375 0.40625 -2.03125 1.75l-1.359375 6.40625l-1.796875 0zm16.937561 -1.25q-0.953125 0.734375 -1.8125 1.109375q-0.859375 0.375 -1.59375 0.375q-1.0625 0 -1.8125 -0.6875q-0.75 -0.703125 -0.46875 -2.03125q0.3125 -1.453125 1.765625 -2.40625q1.453125 -0.953125 4.21875 -0.953125l0.40625 0l0.265625 -1.203125q0.140625 -0.703125 0.015625 -1.03125q-0.109375 -0.328125 -0.484375 -0.5q-0.359375 -0.1875 -0.953125 -0.1875q-1.40625 0 -3.234375 0.875l0.328125 -1.484375q1.96875 -0.734375 3.5625 -0.734375q0.875 0 1.546875 0.28125q0.671875 0.265625 0.984375 0.875q0.3125 0.59375 0.03125 1.90625l-0.953125 4.484375q-0.15625 0.75 -0.09375 1.015625q0.0625 0.25 0.25 0.390625q0.1875 0.140625 0.46875 0.140625q0.109375 0 0.34375 -0.046875l-0.078125 1.0q-0.671875 0.296875 -1.40625 0.296875q-0.5 0 -0.890625 -0.3125q-0.375 -0.328125 -0.40625 -1.171875zm-0.0625 -0.984375l0.546875 -2.5625l-0.5625 -0.015625q-1.421875 0 -2.484375 0.546875q-1.0625 0.546875 -1.265625 1.484375q-0.140625 0.65625 0.234375 1.109375q0.375 0.4375 1.0 0.4375q0.5625 0 1.203125 -0.25q0.640625 -0.25 1.328125 -0.75zm5.005951 2.234375l3.0625 -14.390633l1.796875 0l-3.0625 14.390633l-1.796875 0z" fill-rule="nonzero"/><path fill="#666666" d="m310.85727 126.128456l0 -1.25q1.484375 1.015625 2.40625 2.421875q0.921875 1.4062576 1.390625 3.0000076q0.484375 1.59375 0.484375 3.125q0 1.53125 -0.484375 3.125q-0.46875 1.59375 -1.390625 3.0q-0.921875 1.40625 -2.40625 2.421875l0 -1.25q1.03125 -1.109375 1.515625 -2.15625q0.5 -1.0625 0.71875 -2.375q0.234375 -1.328125 0.234375 -2.765625q0 -1.4375 -0.234375 -2.75q-0.21875 -1.328125 -0.71875 -2.375q-0.484375 -1.0625076 -1.515625 -2.1718826z" fill-rule="nonzero"/><path fill="#000000" fill-opacity="0.0" d="m7.1286087 150.88977l316.0315 0l0 83.1181l-316.0315 0z" fill-rule="evenodd"/><path fill="#000000" d="m22.362984 180.07195l-0.71875 0q-0.84375 0 -1.515625 -0.1875q-0.671875 -0.171875 -1.140625 -0.53125q-0.46875 -0.34375 -0.71875 -0.859375q-0.234375 -0.515625 -0.234375 -1.15625q0 -0.75 0.25 -1.578125l0.234375 -0.890625q0.015625 -0.09375 0.125 -0.65625q0.078125 -0.4375 0.078125 -0.578125q0 -0.46875 -0.3125 -0.71875q-0.296875 -0.265625 -0.828125 -0.265625l-0.4375 0l0 -2.234375l0.4375 0q0.53125 0 0.828125 -0.265625q0.3125 -0.28125 0.3125 -0.71875q0 -0.140625 -0.078125 -0.59375q-0.078125 -0.484375 -0.125 -0.671875l-0.234375 -0.875q-0.25 -0.859375 -0.25 -1.5625q0 -1.3125 0.9375 -2.03125q0.9375 -0.71875 2.671875 -0.71875l0.71875 0l0 2.25q-0.890625 0.046875 -0.890625 0.875q0 0.109375 0.0625 0.671875l0.09375 0.609375q0.109375 0.8125 0.109375 1.109375q0 1.015625 -0.65625 1.875q-0.328125 0.421875 -0.640625 0.65625q-0.296875 0.21875 -0.9375 0.5q0.609375 0.265625 0.921875 0.5q0.328125 0.21875 0.65625 0.640625q0.65625 0.859375 0.65625 1.890625q0 0.28125 -0.109375 1.09375l-0.09375 0.640625q-0.0625 0.515625 -0.0625 0.65625q0 0.421875 0.21875 0.640625q0.21875 0.21875 0.671875 0.234375l0 2.25z" fill-rule="nonzero"/><path fill="#000000" d="m50.88691 194.07195q0 1.28125 -0.296875 2.3125q-0.296875 1.015625 -0.875 1.734375q-0.5625 0.71875 -1.390625 1.109375q-0.8125 0.375 -1.8125 0.375q-0.78125 0 -1.328125 -0.21875q-0.546875 -0.21875 -1.4375 -0.90625l-0.21875 0l-0.453125 0.890625l-2.9375 0l0 -14.390625l3.609375 0l0 4.28125l0 1.90625l0.03125 0q0.25 -0.671875 0.703125 -1.140625q0.46875 -0.484375 1.109375 -0.734375q0.65625 -0.265625 1.40625 -0.265625q0.890625 0 1.625 0.359375q0.734375 0.34375 1.234375 0.984375q0.5 0.640625 0.765625 1.59375q0.265625 0.9375 0.265625 2.109375zm-3.828125 0.234375q0 -0.828125 -0.203125 -1.421875q-0.1875 -0.59375 -0.5625 -0.90625q-0.359375 -0.3125 -0.875 -0.3125q-0.9375 0 -1.671875 1.46875l0 3.359375q0.359375 0.53125 0.71875 0.75q0.359375 0.21875 0.84375 0.21875q0.484375 0 0.890625 -0.390625q0.421875 -0.40625 0.640625 -1.125q0.21875 -0.734375 0.21875 -1.640625zm16.418533 0q0 1.234375 -0.390625 2.21875q-0.375 0.96875 -1.109375 1.671875q-0.734375 0.6875 -1.765625 1.046875q-1.015625 0.359375 -2.296875 0.359375q-1.296875 0 -2.359375 -0.34375q-1.0625 -0.359375 -1.8125 -1.046875q-0.75 -0.703125 -1.140625 -1.703125q-0.375 -1.0 -0.375 -2.21875q0 -1.203125 0.375 -2.1875q0.390625 -1.0 1.125 -1.671875q0.75 -0.6875 1.765625 -1.046875q1.03125 -0.359375 2.34375 -0.359375q1.328125 0 2.359375 0.359375q1.046875 0.359375 1.78125 1.046875q0.734375 0.671875 1.109375 1.65625q0.390625 0.96875 0.390625 2.21875zm-3.828125 -0.015625q0 -1.453125 -0.515625 -2.34375q-0.5 -0.890625 -1.296875 -0.890625q-0.53125 0 -0.9375 0.40625q-0.390625 0.40625 -0.625 1.15625q-0.21875 0.75 -0.21875 1.6875q0 0.9375 0.21875 1.6875q0.21875 0.75 0.625 1.171875q0.40625 0.40625 0.921875 0.40625q0.828125 0 1.328125 -0.90625q0.5 -0.90625 0.5 -2.375zm15.8862 5.078125l-3.578125 0l0 -1.90625l-0.03125 0q-0.359375 0.984375 -1.234375 1.5625q-0.859375 0.578125 -1.96875 0.578125q-1.21875 0 -2.09375 -0.59375q-0.875 -0.609375 -1.34375 -1.75q-0.46875 -1.15625 -0.46875 -2.703125q0 -1.703125 0.515625 -2.953125q0.53125 -1.25 1.515625 -1.90625q0.984375 -0.671875 2.3125 -0.671875q0.828125 0 1.40625 0.25q0.59375 0.234375 1.359375 0.875l0.03125 0l0 -0.890625l0 -4.28125l3.578125 0l0 14.390625zm-3.578125 -3.875l0 -3.390625q-0.6875 -0.9375 -1.5625 -0.9375q-0.5 0 -0.90625 0.390625q-0.390625 0.390625 -0.625 1.125q-0.21875 0.734375 -0.21875 1.609375q0 1.25 0.4375 1.953125q0.4375 0.703125 1.203125 0.703125q0.953125 0 1.671875 -1.453125zm16.981033 -6.234375l-6.59375 13.703125l-3.703125 0l2.75 -3.59375l-3.984375 -10.109375l3.859375 0l2.34375 5.890625l2.828125 -5.890625l2.5 0z" fill-rule="nonzero"/><path fill="#000000" d="m22.300484 216.65007l-0.4375 0q-0.53125 0 -0.828125 0.25q-0.296875 0.25 -0.296875 0.734375q0 0.203125 0.0625 0.578125q0.0625 0.34375 0.140625 0.65625l0.25 0.890625q0.21875 0.8125 0.21875 1.578125q0 1.296875 -0.953125 2.015625q-0.9375 0.71875 -2.65625 0.71875l-0.71875 0l0 -2.25q0.46875 -0.03125 0.671875 -0.25q0.21875 -0.203125 0.21875 -0.625q0 -0.265625 -0.046875 -0.65625l-0.125 -0.640625q-0.109375 -0.59375 -0.109375 -1.078125q0 -1.03125 0.671875 -1.90625q0.375 -0.4375 0.671875 -0.65625q0.3125 -0.21875 0.921875 -0.484375q-0.3125 -0.125 -0.53125 -0.234375q-0.203125 -0.109375 -0.375 -0.234375q-0.15625 -0.125 -0.359375 -0.3125q-0.1875 -0.203125 -0.328125 -0.375q-0.671875 -0.859375 -0.671875 -1.875q0 -0.5 0.109375 -1.109375l0.125 -0.609375q0.046875 -0.28125 0.046875 -0.671875q0 -0.828125 -0.890625 -0.875l0 -2.25l0.71875 0q1.734375 0 2.671875 0.71875q0.9375 0.71875 0.9375 2.03125q0 0.734375 -0.21875 1.5625l-0.25 0.875q-0.109375 0.46875 -0.140625 0.671875q-0.0625 0.375 -0.0625 0.59375q0 0.453125 0.28125 0.71875q0.296875 0.265625 0.84375 0.265625l0.4375 0l0 2.234375z" fill-rule="nonzero"/></g></svg>