<svg version="1.1" viewBox="0.0 0.0 716.0918635170603 232.1968503937008" fill="none" stroke="none" stroke-linecap="square" stroke-miterlimit="10" xmlns:xlink="http://www.w3.org/1999/xlink" xmlns="http://www.w3.org/2000/svg"><clipPath id="p.0"><path d="m0 0l716.09186 0l0 232.19685l-716.09186 0l0 -232.19685z" clip-rule="nonzero"/></clipPath><g clip-path="url(#p.0)"><path fill="#000000" fill-opacity="0.0" d="m0 0l716.09186 0l0 232.19685l-716.09186 0z" fill-rule="evenodd"/><path fill="#000000" fill-opacity="0.0" d="m481.10236 45.21391l232.25195 0l0 71.08661l-232.25195 0z" fill-rule="evenodd"/><path fill="#000000" d="m521.7419 74.69391l0 -15.265625l11.328125 0l0 2.578125l-8.234375 0l0 3.390625l7.65625 0l0 2.5625l-7.65625 0l0 4.15625l8.515625 0l0 2.578125l-11.609375 0zm17.256958 0l-4.46875 -11.0625l3.078125 0l2.078125 5.640625l0.609375 1.890625q0.234375 -0.71875 0.296875 -0.953125q0.15625 -0.46875 0.3125 -0.9375l2.109375 -5.640625l3.0 0l-4.390625 11.0625l-2.625 0zm15.221069 -3.515625l2.90625 0.484375q-0.546875 1.609375 -1.765625 2.453125q-1.21875 0.828125 -3.03125 0.828125q-2.890625 0 -4.28125 -1.890625q-1.09375 -1.5 -1.09375 -3.8125q0 -2.75 1.4375 -4.296875q1.4375 -1.5625 3.640625 -1.5625q2.46875 0 3.890625 1.640625q1.421875 1.625 1.359375 4.984375l-7.328125 0q0.03125 1.296875 0.703125 2.03125q0.6875 0.71875 1.703125 0.71875q0.6875 0 1.15625 -0.375q0.46875 -0.375 0.703125 -1.203125zm0.171875 -2.96875q-0.03125 -1.265625 -0.65625 -1.921875q-0.625 -0.671875 -1.53125 -0.671875q-0.953125 0 -1.578125 0.703125q-0.625 0.703125 -0.609375 1.890625l4.375 0zm8.080444 6.484375l-2.921875 0l0 -11.0625l2.71875 0l0 1.578125q0.703125 -1.125 1.25 -1.46875q0.5625 -0.359375 1.265625 -0.359375q1.0 0 1.9375 0.5625l-0.90625 2.546875q-0.75 -0.484375 -1.375 -0.484375q-0.625 0 -1.046875 0.34375q-0.421875 0.328125 -0.671875 1.21875q-0.25 0.890625 -0.25 3.703125l0 3.421875zm4.112549 -11.0625l3.125 0l2.640625 7.859375l2.578125 -7.859375l3.03125 0l-3.90625 10.640625l-0.6875 1.9375q-0.390625 0.96875 -0.75 1.46875q-0.34375 0.515625 -0.796875 0.828125q-0.453125 0.328125 -1.109375 0.5q-0.65625 0.171875 -1.5 0.171875q-0.84375 0 -1.65625 -0.171875l-0.25 -2.296875q0.6875 0.140625 1.234375 0.140625q1.015625 0 1.5 -0.609375q0.5 -0.59375 0.765625 -1.515625l-4.21875 -11.09375zm18.330444 0l0 2.328125l-2.0 0l0 4.46875q0 1.34375 0.046875 1.578125q0.0625 0.21875 0.265625 0.375q0.203125 0.140625 0.5 0.140625q0.40625 0 1.171875 -0.28125l0.25 2.265625q-1.015625 0.4375 -2.3125 0.4375q-0.796875 0 -1.4375 -0.265625q-0.625 -0.265625 -0.921875 -0.6875q-0.296875 -0.421875 -0.40625 -1.140625q-0.09375 -0.515625 -0.09375 -2.0625l0 -4.828125l-1.34375 0l0 -2.328125l1.34375 0l0 -2.1875l2.9375 -1.71875l0 3.90625l2.0 0zm4.946228 -4.203125l0 5.609375q1.40625 -1.65625 3.375 -1.65625q1.015625 0 1.828125 0.375q0.8125 0.375 1.21875 0.96875q0.40625 0.578125 0.5625 1.28125q0.15625 0.703125 0.15625 2.203125l0 6.484375l-2.921875 0l0 -5.84375q0 -1.734375 -0.171875 -2.203125q-0.171875 -0.46875 -0.59375 -0.75q-0.421875 -0.28125 -1.046875 -0.28125q-0.734375 0 -1.3125 0.359375q-0.5625 0.359375 -0.828125 1.078125q-0.265625 0.703125 -0.265625 2.09375l0 5.546875l-2.9375 0l0 -15.265625l2.9375 0zm10.106201 2.703125l0 -2.703125l2.921875 0l0 2.703125l-2.921875 0zm0 12.5625l0 -11.0625l2.921875 0l0 11.0625l-2.921875 0zm15.988098 0l-2.921875 0l0 -5.640625q0 -1.796875 -0.1875 -2.3125q-0.1875 -0.53125 -0.609375 -0.828125q-0.421875 -0.296875 -1.015625 -0.296875q-0.765625 0 -1.375 0.421875q-0.59375 0.421875 -0.828125 1.109375q-0.21875 0.6875 -0.21875 2.53125l0 5.015625l-2.921875 0l0 -11.0625l2.71875 0l0 1.625q1.4375 -1.875 3.640625 -1.875q0.96875 0 1.765625 0.359375q0.8125 0.34375 1.21875 0.890625q0.40625 0.53125 0.5625 1.21875q0.171875 0.6875 0.171875 1.96875l0 6.875zm2.6999512 0.734375l3.34375 0.40625q0.078125 0.578125 0.375 0.796875q0.421875 0.3125 1.3125 0.3125q1.15625 0 1.71875 -0.34375q0.390625 -0.234375 0.59375 -0.734375q0.125 -0.375 0.125 -1.34375l0 -1.625q-1.3125 1.796875 -3.3125 1.796875q-2.21875 0 -3.53125 -1.890625q-1.015625 -1.484375 -1.015625 -3.703125q0 -2.78125 1.328125 -4.25q1.34375 -1.46875 3.34375 -1.46875q2.046875 0 3.375 1.796875l0 -1.546875l2.734375 0l0 9.921875q0 1.96875 -0.328125 2.9375q-0.3125 0.96875 -0.890625 1.515625q-0.578125 0.546875 -1.5625 0.859375q-0.96875 0.3125 -2.453125 0.3125q-2.8125 0 -4.0 -0.96875q-1.171875 -0.953125 -1.171875 -2.4375q0 -0.140625 0.015625 -0.34375zm2.609375 -6.5q0 1.765625 0.671875 2.59375q0.6875 0.8125 1.6875 0.8125q1.078125 0 1.8125 -0.84375q0.75 -0.84375 0.75 -2.484375q0 -1.71875 -0.71875 -2.546875q-0.703125 -0.84375 -1.78125 -0.84375q-1.0625 0 -1.75 0.828125q-0.671875 0.8125 -0.671875 2.484375zm15.21936 -5.296875l3.125 0l2.640625 7.859375l2.578125 -7.859375l3.03125 0l-3.90625 10.640625l-0.6875 1.9375q-0.390625 0.96875 -0.75 1.46875q-0.34375 0.515625 -0.796875 0.828125q-0.453125 0.328125 -1.109375 0.5q-0.65625 0.171875 -1.5 0.171875q-0.84375 0 -1.65625 -0.171875l-0.25 -2.296875q0.6875 0.140625 1.234375 0.140625q1.015625 0 1.5 -0.609375q0.5 -0.59375 0.765625 -1.515625l-4.21875 -11.09375zm12.580444 5.375q0 -1.453125 0.71875 -2.8125q0.71875 -1.375 2.03125 -2.09375q1.3125 -0.71875 2.9375 -0.71875q2.515625 0 4.109375 1.640625q1.609375 1.625 1.609375 4.109375q0 2.515625 -1.625 4.171875q-1.609375 1.640625 -4.0625 1.640625q-1.53125 0 -2.90625 -0.6875q-1.375 -0.6875 -2.09375 -2.015625q-0.71875 -1.328125 -0.71875 -3.234375zm3.0 0.15625q0 1.640625 0.78125 2.515625q0.78125 0.875 1.921875 0.875q1.140625 0 1.921875 -0.875q0.78125 -0.875 0.78125 -2.53125q0 -1.625 -0.78125 -2.5q-0.78125 -0.875 -1.921875 -0.875q-1.140625 0 -1.921875 0.875q-0.78125 0.875 -0.78125 2.515625zm17.981201 5.53125l0 -1.65625q-0.609375 0.890625 -1.59375 1.40625q-0.984375 0.5 -2.078125 0.5q-1.109375 0 -2.0 -0.484375q-0.875 -0.5 -1.28125 -1.375q-0.390625 -0.890625 -0.390625 -2.453125l0 -7.0l2.921875 0l0 5.078125q0 2.34375 0.15625 2.875q0.171875 0.515625 0.59375 0.828125q0.4375 0.296875 1.09375 0.296875q0.75 0 1.34375 -0.40625q0.59375 -0.40625 0.8125 -1.015625q0.21875 -0.609375 0.21875 -2.984375l0 -4.671875l2.921875 0l0 11.0625l-2.71875 0z" fill-rule="nonzero"/><path fill="#000000" d="m508.70065 100.29391l-2.921875 0l0 -5.640625q0 -1.796875 -0.1875 -2.3125q-0.1875 -0.53125 -0.609375 -0.828125q-0.421875 -0.296875 -1.015625 -0.296875q-0.765625 0 -1.375 0.421875q-0.59375 0.421875 -0.828125 1.109375q-0.21875 0.6875 -0.21875 2.53125l0 5.015625l-2.921875 0l0 -11.0625l2.71875 0l0 1.625q1.4375 -1.875 3.640625 -1.875q0.96875 0 1.765625 0.359375q0.8125 0.34375 1.21875 0.890625q0.40625 0.53125 0.5625 1.21875q0.171875 0.6875 0.171875 1.96875l0 6.875zm9.371796 -3.515625l2.90625 0.484375q-0.546875 1.609375 -1.765625 2.453125q-1.21875 0.828125 -3.03125 0.828125q-2.890625 0 -4.2812195 -1.890625q-1.09375 -1.5 -1.09375 -3.8125q0 -2.75 1.4374695 -4.296875q1.4375 -1.5625 3.640625 -1.5625q2.46875 0 3.890625 1.640625q1.421875 1.625 1.359375 4.984375l-7.328125 0q0.03125 1.296875 0.703125 2.03125q0.6875 0.71875 1.703125 0.71875q0.6875 0 1.15625 -0.375q0.46875 -0.375 0.703125 -1.203125zm0.171875 -2.96875q-0.03125 -1.265625 -0.65625 -1.921875q-0.625 -0.671875 -1.53125 -0.671875q-0.953125 0 -1.578125 0.703125q-0.625 0.703125 -0.609375 1.890625l4.375 0zm11.689819 2.96875l2.90625 0.484375q-0.546875 1.609375 -1.765625 2.453125q-1.21875 0.828125 -3.03125 0.828125q-2.890625 0 -4.28125 -1.890625q-1.09375 -1.5 -1.09375 -3.8125q0 -2.75 1.4375 -4.296875q1.4375 -1.5625 3.640625 -1.5625q2.46875 0 3.890625 1.640625q1.421875 1.625 1.359375 4.984375l-7.328125 0q0.03125 1.296875 0.703125 2.03125q0.6875 0.71875 1.703125 0.71875q0.6875 0 1.15625 -0.375q0.46875 -0.375 0.703125 -1.203125zm0.171875 -2.96875q-0.03125 -1.265625 -0.65625 -1.921875q-0.625 -0.671875 -1.53125 -0.671875q-0.953125 0 -1.578125 0.703125q-0.625 0.703125 -0.609375 1.890625l4.375 0zm15.424194 6.484375l-2.71875 0l0 -1.625q-0.671875 0.953125 -1.59375 1.421875q-0.921875 0.453125 -1.859375 0.453125q-1.90625 0 -3.265625 -1.53125q-1.359375 -1.546875 -1.359375 -4.296875q0 -2.8125 1.3125 -4.265625q1.328125 -1.46875 3.359375 -1.46875q1.84375 0 3.203125 1.546875l0 -5.5l2.921875 0l0 15.265625zm-7.8125 -5.765625q0 1.765625 0.5 2.5625q0.703125 1.140625 1.96875 1.140625q1.015625 0 1.71875 -0.859375q0.71875 -0.859375 0.71875 -2.5625q0 -1.90625 -0.6875 -2.75q-0.6875 -0.84375 -1.765625 -0.84375q-1.046875 0 -1.75 0.828125q-0.703125 0.828125 -0.703125 2.484375zm21.703735 -5.296875l0 2.328125l-2.0 0l0 4.46875q0 1.34375 0.046875 1.578125q0.0625 0.21875 0.265625 0.375q0.203125 0.140625 0.5 0.140625q0.40625 0 1.171875 -0.28125l0.25 2.265625q-1.015625 0.4375 -2.3125 0.4375q-0.796875 0 -1.4375 -0.265625q-0.625 -0.265625 -0.921875 -0.6875q-0.296875 -0.421875 -0.40625 -1.140625q-0.09375 -0.515625 -0.09375 -2.0625l0 -4.828125l-1.34375 0l0 -2.328125l1.34375 0l0 -2.1875l2.9375 -1.71875l0 3.90625l2.0 0zm1.352417 5.375q0 -1.453125 0.71875 -2.8125q0.71875 -1.375 2.03125 -2.09375q1.3125 -0.71875 2.9375 -0.71875q2.515625 0 4.109375 1.640625q1.609375 1.625 1.609375 4.109375q0 2.515625 -1.625 4.171875q-1.609375 1.640625 -4.0625 1.640625q-1.53125 0 -2.90625 -0.6875q-1.375 -0.6875 -2.09375 -2.015625q-0.71875 -1.328125 -0.71875 -3.234375zm3.0 0.15625q0 1.640625 0.78125 2.515625q0.78125 0.875 1.921875 0.875q1.140625 0 1.921875 -0.875q0.78125 -0.875 0.78125 -2.53125q0 -1.625 -0.78125 -2.5q-0.78125 -0.875 -1.921875 -0.875q-1.140625 0 -1.921875 0.875q-0.78125 0.875 -0.78125 2.515625zm16.516235 5.53125l0 -15.265625l2.9375 0l0 8.09375l3.421875 -3.890625l3.59375 0l-3.765625 4.046875l4.046875 7.015625l-3.15625 0l-2.78125 -4.96875l-1.359375 1.421875l0 3.546875l-2.9375 0zm22.03357 0l-2.921875 0l0 -5.640625q0 -1.796875 -0.1875 -2.3125q-0.1875 -0.53125 -0.609375 -0.828125q-0.421875 -0.296875 -1.015625 -0.296875q-0.765625 0 -1.375 0.421875q-0.59375 0.421875 -0.828125 1.109375q-0.21875 0.6875 -0.21875 2.53125l0 5.015625l-2.921875 0l0 -11.0625l2.71875 0l0 1.625q1.4375 -1.875 3.640625 -1.875q0.96875 0 1.765625 0.359375q0.8125 0.34375 1.21875 0.890625q0.40625 0.53125 0.5625 1.21875q0.171875 0.6875 0.171875 1.96875l0 6.875zm2.2937012 -5.6875q0 -1.453125 0.71875 -2.8125q0.71875 -1.375 2.03125 -2.09375q1.3125 -0.71875 2.9375 -0.71875q2.515625 0 4.109375 1.640625q1.609375 1.625 1.609375 4.109375q0 2.515625 -1.625 4.171875q-1.609375 1.640625 -4.0625 1.640625q-1.53125 0 -2.90625 -0.6875q-1.375 -0.6875 -2.09375 -2.015625q-0.71875 -1.328125 -0.71875 -3.234375zm3.0 0.15625q0 1.640625 0.78125 2.515625q0.78125 0.875 1.921875 0.875q1.140625 0 1.921875 -0.875q0.78125 -0.875 0.78125 -2.53125q0 -1.625 -0.78125 -2.5q-0.78125 -0.875 -1.921875 -0.875q-1.140625 0 -1.921875 0.875q-0.78125 0.875 -0.78125 2.515625zm12.762451 5.53125l-3.5 -11.0625l2.84375 0l2.078125 7.25l1.90625 -7.25l2.8125 0l1.84375 7.25l2.109375 -7.25l2.890625 0l-3.546875 11.0625l-2.8125 0l-1.90625 -7.109375l-1.875 7.109375l-2.84375 0zm22.64038 -7.6875l-2.65625 -0.484375q0.453125 -1.59375 1.546875 -2.359375q1.09375 -0.78125 3.25 -0.78125q1.953125 0 2.90625 0.46875q0.96875 0.453125 1.359375 1.171875q0.390625 0.71875 0.390625 2.625l-0.03125 3.40625q0 1.46875 0.125 2.15625q0.140625 0.6875 0.53125 1.484375l-2.890625 0q-0.109375 -0.296875 -0.28125 -0.859375q-0.078125 -0.265625 -0.109375 -0.34375q-0.75 0.71875 -1.609375 1.09375q-0.84375 0.359375 -1.8125 0.359375q-1.703125 0 -2.6875 -0.921875q-0.984375 -0.9375 -0.984375 -2.34375q0 -0.9375 0.4375 -1.671875q0.453125 -0.734375 1.25 -1.125q0.8125 -0.390625 2.34375 -0.6875q2.046875 -0.390625 2.84375 -0.71875l0 -0.296875q0 -0.84375 -0.421875 -1.203125q-0.421875 -0.359375 -1.578125 -0.359375q-0.78125 0 -1.21875 0.3125q-0.4375 0.3125 -0.703125 1.078125zm3.921875 2.375q-0.5625 0.1875 -1.78125 0.453125q-1.21875 0.25 -1.59375 0.5q-0.578125 0.40625 -0.578125 1.03125q0 0.625 0.453125 1.078125q0.46875 0.4375 1.171875 0.4375q0.796875 0 1.515625 -0.515625q0.53125 -0.40625 0.6875 -0.96875q0.125 -0.375 0.125 -1.4375l0 -0.578125zm5.6273193 5.3125l0 -15.265625l2.921875 0l0 5.5q1.359375 -1.546875 3.21875 -1.546875q2.015625 0 3.328125 1.46875q1.328125 1.453125 1.328125 4.203125q0 2.828125 -1.34375 4.359375q-1.34375 1.53125 -3.28125 1.53125q-0.9375 0 -1.859375 -0.46875q-0.921875 -0.484375 -1.59375 -1.40625l0 1.625l-2.71875 0zm2.90625 -5.765625q0 1.71875 0.546875 2.53125q0.75 1.171875 2.015625 1.171875q0.96875 0 1.640625 -0.828125q0.6875 -0.828125 0.6875 -2.609375q0 -1.890625 -0.6875 -2.734375q-0.6875 -0.84375 -1.75 -0.84375q-1.0625 0 -1.765625 0.828125q-0.6875 0.8125 -0.6875 2.484375zm9.574951 0.078125q0 -1.453125 0.71875 -2.8125q0.71875 -1.375 2.03125 -2.09375q1.3125 -0.71875 2.9375 -0.71875q2.515625 0 4.109375 1.640625q1.609375 1.625 1.609375 4.109375q0 2.515625 -1.625 4.171875q-1.609375 1.640625 -4.0625 1.640625q-1.53125 0 -2.90625 -0.6875q-1.375 -0.6875 -2.09375 -2.015625q-0.71875 -1.328125 -0.71875 -3.234375zm3.0 0.15625q0 1.640625 0.78125 2.515625q0.78125 0.875 1.921875 0.875q1.140625 0 1.921875 -0.875q0.78125 -0.875 0.78125 -2.53125q0 -1.625 -0.78125 -2.5q-0.78125 -0.875 -1.921875 -0.875q-1.140625 0 -1.921875 0.875q-0.78125 0.875 -0.78125 2.515625zm17.981201 5.53125l0 -1.65625q-0.609375 0.890625 -1.59375 1.40625q-0.984375 0.5 -2.078125 0.5q-1.109375 0 -2.0 -0.484375q-0.875 -0.5 -1.28125 -1.375q-0.390625 -0.890625 -0.390625 -2.453125l0 -7.0l2.921875 0l0 5.078125q0 2.34375 0.15625 2.875q0.171875 0.515625 0.59375 0.828125q0.4375 0.296875 1.09375 0.296875q0.75 0 1.34375 -0.40625q0.59375 -0.40625 0.8125 -1.015625q0.21875 -0.609375 0.21875 -2.984375l0 -4.671875l2.921875 0l0 11.0625l-2.71875 0zm10.824951 -11.0625l0 2.328125l-2.0 0l0 4.46875q0 1.34375 0.046875 1.578125q0.0625 0.21875 0.265625 0.375q0.203125 0.140625 0.5 0.140625q0.40625 0 1.171875 -0.28125l0.25 2.265625q-1.015625 0.4375 -2.3125 0.4375q-0.796875 0 -1.4375 -0.265625q-0.625 -0.265625 -0.921875 -0.6875q-0.296875 -0.421875 -0.40625 -1.140625q-0.09375 -0.515625 -0.09375 -2.0625l0 -4.828125l-1.34375 0l0 -2.328125l1.34375 0l0 -2.1875l2.9375 -1.71875l0 3.90625l2.0 0z" fill-rule="nonzero"/><path fill="#000000" fill-opacity="0.0" d="m481.10498 103.41601l232.25195 0l0 45.25985l-232.25195 0z" fill-rule="evenodd"/><path fill="#000000" d="m549.64404 132.50539l0 -1.890625q2.0 1.0 3.5 1.0q0.875 0 1.453125 -0.46875q0.59375 -0.484375 0.59375 -1.203125q0 -0.453125 -0.296875 -0.875q-0.28125 -0.4375 -1.34375 -0.875l-1.1875 -0.5q-1.390625 -0.578125 -2.03125 -1.34375q-0.625 -0.75 -0.625 -1.84375q0 -1.359375 0.984375 -2.265625q0.984375 -0.90625 2.921875 -0.90625q0.953125 0 2.34375 0.265625l0.4375 0.078125l0 1.703125q-1.71875 -0.5 -2.75 -0.5q-0.984375 0 -1.484375 0.421875q-0.484375 0.421875 -0.484375 1.015625q0 0.453125 0.34375 0.8125q0.3125 0.375 1.15625 0.75l1.0 0.40625q1.984375 0.84375 2.53125 1.671875q0.53125 0.828125 0.53125 1.796875q0 0.921875 -0.5 1.71875q-0.5 0.78125 -1.484375 1.234375q-0.984375 0.453125 -2.203125 0.453125q-1.40625 0 -3.40625 -0.65625zm16.32544 0.390625q-0.953125 0.265625 -1.640625 0.265625q-1.53125 0 -2.421875 -0.875q-0.890625 -0.890625 -0.890625 -2.515625l0 -6.640625l-1.421875 0l0 -1.546875l1.421875 0l0 -2.046875l2.046875 -0.203125l0 2.25l2.953125 0l0 1.546875l-2.953125 0l0 6.265625q0 1.1875 0.453125 1.703125q0.46875 0.515625 1.46875 0.515625q0.40625 0 0.984375 -0.140625l0 1.421875zm10.195984 0l0 -2.125q-0.625 1.1875 -1.578125 1.796875q-0.9375 0.59375 -2.1875 0.59375q-2.09375 0 -3.25 -1.53125q-1.140625 -1.546875 -1.140625 -4.03125q0 -2.6875 1.28125 -4.46875q1.296875 -1.796875 3.546875 -1.796875q0.65625 0 1.25 0.15625q0.59375 0.15625 1.046875 0.453125q0.46875 0.28125 1.03125 0.9375l0 -6.421875l2.0625 0l0 16.4375l-2.0625 0zm0 -8.609375q-1.0625 -0.9375 -1.6875 -1.171875q-0.609375 -0.234375 -1.328125 -0.234375q-1.5 0 -2.234375 1.265625q-0.71875 1.25 -0.71875 3.234375q0 1.84375 0.640625 2.90625q0.640625 1.0625 1.984375 1.0625q0.859375 0 1.6875 -0.46875q0.84375 -0.46875 1.65625 -1.390625l0 -5.203125zm6.455078 8.609375l0 -2.046875l2.046875 0l0 2.046875l-2.046875 0zm0 -9.25l0 -2.0625l2.046875 0l0 2.0625l-2.046875 0zm6.748352 9.25l0 -2.046875l2.046875 0l0 2.046875l-2.046875 0zm0 -9.25l0 -2.0625l2.046875 0l0 2.0625l-2.046875 0zm11.498352 9.25q-0.953125 0.265625 -1.640625 0.265625q-1.53125 0 -2.421875 -0.875q-0.890625 -0.890625 -0.890625 -2.515625l0 -6.640625l-1.421875 0l0 -1.546875l1.421875 0l0 -2.046875l2.046875 -0.203125l0 2.25l2.953125 0l0 1.546875l-2.953125 0l0 6.265625q0 1.1875 0.453125 1.703125q0.46875 0.515625 1.46875 0.515625q0.40625 0 0.984375 -0.140625l0 1.421875zm10.008423 0l0 -2.125q-0.796875 1.140625 -1.828125 1.765625q-1.03125 0.625 -2.140625 0.625q-1.421875 0 -2.328125 -0.90625q-0.90625 -0.921875 -0.90625 -2.546875l0 -8.125l2.0625 0l0 7.453125q0 1.1875 0.203125 1.5625q0.203125 0.375 0.578125 0.578125q0.375 0.203125 0.8125 0.203125q0.75 0 1.625 -0.46875q0.890625 -0.46875 1.921875 -2.0l0 -7.328125l2.046875 0l0 11.3125l-2.046875 0zm6.158264 4.109375l0 -15.421875l2.0625 0l0 2.125q0.625 -1.1875 1.5625 -1.78125q0.953125 -0.59375 2.21875 -0.59375q2.09375 0 3.234375 1.546875q1.140625 1.53125 1.140625 4.015625q0 1.609375 -0.53125 3.078125q-0.53125 1.453125 -1.65625 2.328125q-1.109375 0.859375 -2.53125 0.859375q-0.5625 0 -1.484375 -0.171875q-0.921875 -0.171875 -1.953125 -1.375l0 5.390625l-2.0625 0zm2.0625 -6.8125q1.046875 0.9375 1.671875 1.1875q0.625 0.234375 1.34375 0.234375q1.515625 0 2.234375 -1.265625q0.71875 -1.28125 0.71875 -3.25q0 -1.828125 -0.640625 -2.890625q-0.640625 -1.078125 -1.984375 -1.078125q-0.84375 0 -1.6875 0.46875q-0.84375 0.453125 -1.65625 1.390625l0 5.203125zm11.361328 2.703125l0 -16.4375l2.0625 0l0 16.4375l-2.0625 0zm14.462036 -0.359375q-2.0625 0.625 -3.53125 0.625q-2.640625 0 -4.15625 -1.78125q-1.5 -1.78125 -1.5 -4.1875q0 -1.59375 0.65625 -3.03125q0.671875 -1.4375 1.75 -2.125q1.078125 -0.703125 2.546875 -0.703125q1.953125 0 3.109375 1.40625q1.171875 1.390625 1.171875 4.203125l0 0.625l-7.140625 0q0.171875 1.5 0.640625 2.3125q0.484375 0.8125 1.28125 1.265625q0.796875 0.453125 2.03125 0.453125q0.625 0 1.234375 -0.109375q0.625 -0.109375 1.90625 -0.578125l0 1.625zm-7.0 -6.515625l4.984375 0q0 -1.703125 -0.65625 -2.421875q-0.65625 -0.734375 -1.6875 -0.734375q-1.1875 0 -1.84375 0.796875q-0.65625 0.78125 -0.796875 2.359375z" fill-rule="nonzero"/><path fill="#f3f3f3" d="m5.5196853 36.850395l0 0c0 -16.594637 13.452608 -30.047245 30.047243 -30.047245l47.947506 0l0 0l116.99213 0l242.93439 0c7.9690247 0 15.611664 3.1656823 21.246613 8.800634c5.6349487 5.6349516 8.800629 13.277585 8.800629 21.246613l0 75.11811l0 0l0 45.07086l0 0c0 16.594635 -13.452606 30.047241 -30.047241 30.047241l-242.93439 0l-58.494507 22.53543l-58.49762 -22.53543l-47.947506 0l0 0c-16.594635 0 -30.047243 -13.452606 -30.047243 -30.047241l0 0l0 -45.07086l0 0z" fill-rule="evenodd"/><path stroke="#000000" stroke-width="3.0" stroke-linejoin="round" stroke-linecap="butt" d="m5.5196853 36.850395l0 0c0 -16.594637 13.452608 -30.047245 30.047243 -30.047245l47.947506 0l0 0l116.99213 0l242.93439 0c7.9690247 0 15.611664 3.1656823 21.246613 8.800634c5.6349487 5.6349516 8.800629 13.277585 8.800629 21.246613l0 75.11811l0 0l0 45.07086l0 0c0 16.594635 -13.452606 30.047241 -30.047241 30.047241l-242.93439 0l-58.494507 22.53543l-58.49762 -22.53543l-47.947506 0l0 0c-16.594635 0 -30.047243 -13.452606 -30.047243 -30.047241l0 0l0 -45.07086l0 0z" fill-rule="evenodd"/><path fill="#000000" d="m23.429598 51.568005l7.515625 -17.09375l1.4687481 0l-7.515623 17.09375l-1.46875 0zm16.68756 -14.4375l0.40625 1.28125l-2.75 0.59375l0.015625 -0.140625q0 -0.359375 -0.265625 -0.609375l2.59375 -1.125zm-0.5 4.09375l-1.09375 0.796875l-1.421875 -2.4375q0.171875 -0.015625 0.359375 -0.140625q0.1875 -0.140625 0.265625 -0.3125l1.890625 2.09375zm-4.0625 0.796875l-1.09375 -0.796875l1.875 -2.09375q0.078125 0.1875 0.265625 0.3125q0.203125 0.125 0.375 0.140625l-1.421875 2.4375zm-2.015625 -3.609375l0.421875 -1.28125l2.59375 1.125q-0.265625 0.234375 -0.265625 0.609375l0.015625 0.140625l-2.765625 -0.59375zm2.828125 -3.03125l1.34375 0l-0.28125 2.8125q-0.15625 -0.109375 -0.390625 -0.109375q-0.234375 0 -0.390625 0.109375l-0.28125 -2.8125z" fill-rule="nonzero"/><path fill="#000000" d="m36.8013 59.130505l0.40625 1.28125l-2.75 0.59375l0.015625 -0.140625q0 -0.359375 -0.265625 -0.609375l2.59375 -1.125zm-0.5 4.09375l-1.09375 0.7968712l-1.421875 -2.4374962q0.171875 -0.015625 0.359375 -0.140625q0.1875 -0.140625 0.265625 -0.3125l1.890625 2.09375zm-4.0625 0.7968712l-1.0937481 -0.7968712l1.8749981 -2.09375q0.078125 0.1875 0.265625 0.3125q0.203125 0.125 0.375 0.140625l-1.421875 2.4374962zm-2.015623 -3.6093712l0.421875 -1.28125l2.593748 1.125q-0.265625 0.234375 -0.265625 0.609375l0.015625 0.140625l-2.765623 -0.59375zm2.828123 -3.03125l1.34375 0l-0.28125 2.8125q-0.15625 -0.109375 -0.390625 -0.109375q-0.234375 0 -0.390625 0.109375l-0.28125 -2.8125zm12.503403 13.140621l0 -1.65625q1.75 0.875 3.046875 0.875q0.765625 0 1.28125 -0.40625q0.515625 -0.421875 0.515625 -1.0625q0 -0.390625 -0.25 -0.765625q-0.25 -0.359375 -1.171875 -0.75l-1.046875 -0.453125q-1.21875 -0.5 -1.765625 -1.15625q-0.5625 -0.65625 -0.5625 -1.6093712q0 -1.203125 0.859375 -1.984375q0.875 -0.796875 2.5625 -0.796875q0.828125 0 2.046875 0.21875l0.375 0.078125l0 1.5q-1.5 -0.453125 -2.390625 -0.453125q-0.859375 0 -1.296875 0.375q-0.421875 0.375 -0.421875 0.890625q0 0.390625 0.28125 0.7187462q0.296875 0.328125 1.03125 0.640625l0.859375 0.359375q1.734375 0.75 2.21875 1.46875q0.46875 0.71875 0.46875 1.5625q0 0.8125 -0.4375 1.5q-0.4375 0.6875 -1.3125 1.09375q-0.859375 0.390625 -1.90625 0.390625q-1.234375 0 -2.984375 -0.578125zm14.27594 0.34375q-0.828125 0.234375 -1.4375 0.234375q-1.328125 0 -2.109375 -0.765625q-0.78125 -0.78125 -0.78125 -2.203125l0 -5.812496l-1.25 0l0 -1.34375l1.25 0l0 -1.796875l1.78125 -0.171875l0 1.96875l2.59375 0l0 1.34375l-2.59375 0l0 5.484371q0 1.046875 0.40625 1.5q0.40625 0.4375 1.28125 0.4375q0.34375 0 0.859375 -0.109375l0 1.234375zm8.915375 0l0 -1.859375q-0.546875 1.046875 -1.375 1.578125q-0.8125 0.515625 -1.921875 0.515625q-1.8125 0 -2.828125 -1.34375q-1.0 -1.34375 -1.0 -3.53125q0 -2.3437462 1.125 -3.9062462q1.125 -1.5625 3.09375 -1.5625q0.5625 0 1.078125 0.140625q0.53125 0.125 0.9375 0.375q0.40625 0.25 0.890625 0.828125l0 -5.625l1.8125 0l0 14.390621l-1.8125 0zm0 -7.531246q-0.921875 -0.828125 -1.46875 -1.03125q-0.546875 -0.203125 -1.171875 -0.203125q-1.3125 0 -1.953125 1.109375q-0.625 1.0937462 -0.625 2.8437462q0 1.609375 0.5625 2.546875q0.5625 0.921875 1.734375 0.921875q0.75 0 1.484375 -0.40625q0.734375 -0.421875 1.4375 -1.234375l0 -4.546871zm5.6483917 7.531246l0 -1.796875l1.796875 0l0 1.796875l-1.796875 0zm0 -8.093746l0 -1.796875l1.796875 0l0 1.796875l-1.796875 0zm5.902954 8.093746l0 -1.796875l1.796875 0l0 1.796875l-1.796875 0zm0 -8.093746l0 -1.796875l1.796875 0l0 1.796875l-1.796875 0zm5.652954 8.093746l0 -9.890621l1.796875 0l0 1.859375q0.546875 -0.875 1.390625 -1.46875q0.859375 -0.609375 1.96875 -0.609375q0.65625 0 1.140625 0.21875q0.484375 0.203125 0.875 0.59375q0.390625 0.375 0.703125 1.265625q0.546875 -0.890625 1.375 -1.484375q0.84375 -0.609375 1.9375 -0.609375q1.046875 0 1.890625 0.65625q0.859375 0.65625 0.859375 2.265625l0 7.203121l-1.8125 0l0 -6.921871q0 -0.96875 -0.421875 -1.328125q-0.40625 -0.359375 -0.90625 -0.359375q-0.640625 0 -1.328125 0.40625q-0.6875 0.390625 -1.59375 1.5781212l0 6.625l-1.8125 0l0 -6.921871q0 -0.984375 -0.421875 -1.34375q-0.421875 -0.359375 -0.9375 -0.359375q-0.65625 0 -1.3125 0.40625q-0.65625 0.390625 -1.59375 1.5937462l0 6.625l-1.796875 0zm22.511108 -1.25q-0.796875 0.734375 -1.578125 1.109375q-0.78125 0.375 -1.515625 0.375q-1.0625 0 -1.96875 -0.6875q-0.890625 -0.703125 -0.890625 -2.03125q0 -1.453125 1.25 -2.40625q1.265625 -0.953125 4.03125 -0.953125l0.40625 0l0 -1.2031212q0 -0.703125 -0.1875 -1.03125q-0.1875 -0.328125 -0.59375 -0.5q-0.40625 -0.1875 -1.0 -0.1875q-1.40625 0 -3.046875 0.875l0 -1.484375q1.8125 -0.734375 3.40625 -0.734375q0.875 0 1.609375 0.28125q0.734375 0.265625 1.171875 0.875q0.4375 0.59375 0.4375 1.90625l0 4.484371q0 0.75 0.109375 1.015625q0.125 0.25 0.34375 0.390625q0.21875 0.140625 0.5 0.140625q0.109375 0 0.34375 -0.046875l0.125 1.0q-0.609375 0.296875 -1.34375 0.296875q-0.5 0 -0.953125 -0.3125q-0.453125 -0.328125 -0.65625 -1.171875zm-0.265625 -0.984375l0 -2.5625l-0.5625 -0.015625q-1.421875 0 -2.375 0.546875q-0.953125 0.546875 -0.953125 1.484375q0 0.65625 0.46875 1.109375q0.46875 0.4375 1.09375 0.4375q0.5625 0 1.140625 -0.25q0.59375 -0.25 1.1875 -0.75zm5.474716 2.234375l0 -14.390621l1.796875 0l0 9.296871l4.1875 -4.796871l1.921875 0l-3.984375 4.609371l4.828125 5.28125l-2.296875 0l-4.65625 -5.078125l0 5.078125l-1.796875 0zm18.154068 -0.3125q-1.8125 0.546875 -3.09375 0.546875q-2.296875 0 -3.625 -1.546875q-1.3125 -1.5625 -1.3125 -3.671875q0 -1.40625 0.578125 -2.6562462q0.578125 -1.265625 1.515625 -1.875q0.953125 -0.609375 2.234375 -0.609375q1.703125 0 2.71875 1.234375q1.03125 1.234375 1.03125 3.6874962l-0.015625 0.53125l-6.234375 0q0.140625 1.3125 0.5625 2.03125q0.421875 0.703125 1.109375 1.109375q0.703125 0.390625 1.78125 0.390625q0.546875 0 1.078125 -0.09375q0.546875 -0.09375 1.671875 -0.5l0 1.421875zm-6.125 -5.703125l4.359375 0q0 -1.4843712 -0.578125 -2.1093712q-0.578125 -0.640625 -1.46875 -0.640625q-1.03125 0 -1.609375 0.6875q-0.578125 0.6875 -0.703125 2.0624962zm8.253311 7.359375l0 -1.34375l7.75 0l0 1.34375l-7.75 0zm14.75 -1.34375q-0.828125 0.234375 -1.4375 0.234375q-1.328125 0 -2.109375 -0.765625q-0.78125 -0.78125 -0.78125 -2.203125l0 -5.812496l-1.25 0l0 -1.34375l1.25 0l0 -1.796875l1.78125 -0.171875l0 1.96875l2.59375 0l0 1.34375l-2.59375 0l0 5.484371q0 1.046875 0.40625 1.5q0.40625 0.4375 1.28125 0.4375q0.34375 0 0.859375 -0.109375l0 1.234375zm8.759125 0l0 -1.859375q-0.703125 1.0 -1.609375 1.546875q-0.890625 0.546875 -1.859375 0.546875q-1.25 0 -2.046875 -0.796875q-0.78125 -0.796875 -0.78125 -2.21875l0 -7.109371l1.796875 0l0 6.515621q0 1.03125 0.171875 1.359375q0.1875 0.328125 0.515625 0.515625q0.328125 0.171875 0.703125 0.171875q0.65625 0 1.421875 -0.40625q0.78125 -0.40625 1.6875 -1.75l0 -6.406246l1.796875 0l0 9.890621l-1.796875 0zm5.390671 3.59375l0 -13.484371l1.796875 0l0 1.859375q0.546875 -1.046875 1.375 -1.5625q0.828125 -0.515625 1.921875 -0.515625q1.84375 0 2.84375 1.34375q1.0 1.34375 1.0 3.5156212q0 1.421875 -0.46875 2.703125q-0.46875 1.265625 -1.453125 2.03125q-0.96875 0.75 -2.203125 0.75q-0.5 0 -1.3125 -0.15625q-0.796875 -0.140625 -1.703125 -1.203125l0 4.71875l-1.796875 0zm1.796875 -5.953125q0.921875 0.8125 1.46875 1.03125q0.546875 0.203125 1.171875 0.203125q1.3125 0 1.9375 -1.109375q0.640625 -1.109375 0.640625 -2.828125q0 -1.609375 -0.5625 -2.5468712q-0.546875 -0.9375 -1.734375 -0.9375q-0.734375 0 -1.46875 0.40625q-0.734375 0.40625 -1.453125 1.21875l0 4.562496zm9.945267 2.359375l0 -14.390621l1.796875 0l0 14.390621l-1.796875 0zm12.642822 -0.3125q-1.8125 0.546875 -3.09375 0.546875q-2.296875 0 -3.625 -1.546875q-1.3125 -1.5625 -1.3125 -3.671875q0 -1.40625 0.578125 -2.6562462q0.578125 -1.265625 1.515625 -1.875q0.953125 -0.609375 2.234375 -0.609375q1.703125 0 2.71875 1.234375q1.03125 1.234375 1.03125 3.6874962l-0.015625 0.53125l-6.234375 0q0.140625 1.3125 0.5625 2.03125q0.421875 0.703125 1.109375 1.109375q0.703125 0.390625 1.78125 0.390625q0.546875 0 1.078125 -0.09375q0.546875 -0.09375 1.671875 -0.5l0 1.421875zm-6.125 -5.703125l4.359375 0q0 -1.4843712 -0.578125 -2.1093712q-0.578125 -0.640625 -1.46875 -0.640625q-1.03125 0 -1.609375 0.6875q-0.578125 0.6875 -0.703125 2.0624962zm12.862686 7.46875l0 1.25q-1.484375 -1.015625 -2.40625 -2.421875q-0.921875 -1.40625 -1.390625 -3.0q-0.46875 -1.59375 -0.46875 -3.125q0 -1.5312462 0.46875 -3.1249962q0.46875 -1.59375 1.390625 -3.0q0.921875 -1.40625 2.40625 -2.421875l0 1.25q-1.03125 1.109375 -1.53125 2.171875q-0.484375 1.046875 -0.71875 2.359375q-0.21875 1.3125 -0.21875 2.7656212q0 1.453125 0.21875 2.765625q0.234375 1.3125 0.71875 2.375q0.5 1.046875 1.53125 2.15625zm2.504425 -1.453125l0 -2.25l2.25 0l0 2.25l-2.25 0zm5.902954 0l0 -2.25l2.25 0l0 2.25l-2.25 0zm5.902954 0l0 -2.25l2.25 0l0 2.25l-2.25 0zm4.746704 -13.140621l0 -1.25q1.484375 1.015625 2.40625 2.421875q0.921875 1.40625 1.390625 3.0q0.484375 1.59375 0.484375 3.1249962q0 1.53125 -0.484375 3.125q-0.46875 1.59375 -1.390625 3.0q-0.921875 1.40625 -2.40625 2.421875l0 -1.25q1.03125 -1.109375 1.515625 -2.15625q0.5 -1.0625 0.71875 -2.375q0.234375 -1.328125 0.234375 -2.765625q0 -1.4374962 -0.234375 -2.7499962q-0.21875 -1.328125 -0.71875 -2.375q-0.484375 -1.0625 -1.515625 -2.171875z" fill-rule="nonzero"/><path fill="#000000" d="m36.8013 81.1305l0.40625 1.28125l-2.75 0.59375l0.015625 -0.140625q0 -0.359375 -0.265625 -0.609375l2.59375 -1.125zm-0.5 4.09375l-1.09375 0.796875l-1.421875 -2.4375q0.171875 -0.015625 0.359375 -0.140625q0.1875 -0.140625 0.265625 -0.3125l1.890625 2.09375zm-4.0625 0.796875l-1.0937481 -0.796875l1.8749981 -2.09375q0.078125 0.1875 0.265625 0.3125q0.203125 0.125 0.375 0.140625l-1.421875 2.4375zm-2.015623 -3.609375l0.421875 -1.28125l2.593748 1.125q-0.265625 0.234375 -0.265625 0.609375l0.015625 0.140625l-2.765623 -0.59375zm2.828123 -3.03125l1.34375 0l-0.28125 2.8125q-0.15625 -0.109375 -0.390625 -0.109375q-0.234375 0 -0.390625 0.109375l-0.28125 -2.8125zm12.503403 13.140625l0 -1.65625q1.75 0.875 3.046875 0.875q0.765625 0 1.28125 -0.40625q0.515625 -0.421875 0.515625 -1.0625q0 -0.390625 -0.25 -0.765625q-0.25 -0.359375 -1.171875 -0.75l-1.046875 -0.453125q-1.21875 -0.5 -1.765625 -1.15625q-0.5625 -0.65625 -0.5625 -1.609375q0 -1.203125 0.859375 -1.984375q0.875 -0.796875 2.5625 -0.796875q0.828125 0 2.046875 0.21875l0.375 0.078125l0 1.5q-1.5 -0.453125 -2.390625 -0.453125q-0.859375 0 -1.296875 0.375q-0.421875 0.375 -0.421875 0.890625q0 0.390625 0.28125 0.71875q0.296875 0.328125 1.03125 0.640625l0.859375 0.359375q1.734375 0.75 2.21875 1.46875q0.46875 0.71875 0.46875 1.5625q0 0.8125 -0.4375 1.5q-0.4375 0.6875 -1.3125 1.09375q-0.859375 0.390625 -1.90625 0.390625q-1.234375 0 -2.984375 -0.578125zm14.27594 0.34375q-0.828125 0.234375 -1.4375 0.234375q-1.328125 0 -2.109375 -0.765625q-0.78125 -0.78125 -0.78125 -2.203125l0 -5.8125l-1.25 0l0 -1.34375l1.25 0l0 -1.796875l1.78125 -0.171875l0 1.96875l2.59375 0l0 1.34375l-2.59375 0l0 5.484375q0 1.046875 0.40625 1.5q0.40625 0.4375 1.28125 0.4375q0.34375 0 0.859375 -0.109375l0 1.234375zm8.915375 0l0 -1.859375q-0.546875 1.046875 -1.375 1.578125q-0.8125 0.515625 -1.921875 0.515625q-1.8125 0 -2.828125 -1.34375q-1.0 -1.34375 -1.0 -3.53125q0 -2.34375 1.125 -3.90625q1.125 -1.5625 3.09375 -1.5625q0.5625 0 1.078125 0.140625q0.53125 0.125 0.9375 0.375q0.40625 0.25 0.890625 0.828125l0 -5.625l1.8125 0l0 14.390625l-1.8125 0zm0 -7.53125q-0.921875 -0.828125 -1.46875 -1.03125q-0.546875 -0.203125 -1.171875 -0.203125q-1.3125 0 -1.953125 1.109375q-0.625 1.09375 -0.625 2.84375q0 1.609375 0.5625 2.546875q0.5625 0.921875 1.734375 0.921875q0.75 0 1.484375 -0.40625q0.734375 -0.421875 1.4375 -1.234375l0 -4.546875zm5.6483917 7.53125l0 -1.796875l1.796875 0l0 1.796875l-1.796875 0zm0 -8.09375l0 -1.796875l1.796875 0l0 1.796875l-1.796875 0zm5.902954 8.09375l0 -1.796875l1.796875 0l0 1.796875l-1.796875 0zm0 -8.09375l0 -1.796875l1.796875 0l0 1.796875l-1.796875 0zm5.684204 11.375l0.21875 -1.546875q1.546875 0.734375 3.078125 0.734375q1.703125 0 2.359375 -0.875q0.65625 -0.859375 0.65625 -2.34375l0 -1.5625q-0.390625 0.828125 -1.21875 1.453125q-0.828125 0.625 -2.015625 0.625q-2.03125 0 -2.96875 -1.453125q-0.921875 -1.46875 -0.921875 -3.328125q0 -1.40625 0.546875 -2.625q0.546875 -1.234375 1.515625 -1.84375q0.96875 -0.625 2.21875 -0.625q0.546875 0 1.03125 0.125q0.484375 0.125 0.890625 0.390625q0.421875 0.25 0.921875 0.828125l0 -1.125l1.8125 0l0 7.1875q0 3.15625 -0.53125 4.3125q-0.515625 1.15625 -1.640625 1.671875q-1.109375 0.53125 -2.65625 0.53125q-0.5 0 -1.078125 -0.0625q-0.578125 -0.046875 -1.03125 -0.140625q-0.453125 -0.078125 -1.1875 -0.328125zm6.3125 -6.703125l0 -4.109375q-0.59375 -0.625 -1.234375 -0.921875q-0.640625 -0.3125 -1.34375 -0.3125q-1.1875 0 -1.921875 0.96875q-0.71875 0.953125 -0.71875 2.78125q0 1.421875 0.53125 2.328125q0.546875 0.890625 1.75 0.890625q0.796875 0 1.515625 -0.40625q0.734375 -0.40625 1.421875 -1.21875zm12.539078 3.109375q-1.8125 0.546875 -3.09375 0.546875q-2.296875 0 -3.625 -1.546875q-1.3125 -1.5625 -1.3125 -3.671875q0 -1.40625 0.578125 -2.65625q0.578125 -1.265625 1.515625 -1.875q0.953125 -0.609375 2.234375 -0.609375q1.703125 0 2.71875 1.234375q1.03125 1.234375 1.03125 3.6875l-0.015625 0.53125l-6.234375 0q0.140625 1.3125 0.5625 2.03125q0.421875 0.703125 1.109375 1.109375q0.703125 0.390625 1.78125 0.390625q0.546875 0 1.078125 -0.09375q0.546875 -0.09375 1.671875 -0.5l0 1.421875zm-6.125 -5.703125l4.359375 0q0 -1.484375 -0.578125 -2.109375q-0.578125 -0.640625 -1.46875 -0.640625q-1.03125 0 -1.609375 0.6875q-0.578125 0.6875 -0.703125 2.0625zm13.675186 6.015625q-0.828125 0.234375 -1.4375 0.234375q-1.328125 0 -2.109375 -0.765625q-0.78125 -0.78125 -0.78125 -2.203125l0 -5.8125l-1.25 0l0 -1.34375l1.25 0l0 -1.796875l1.78125 -0.171875l0 1.96875l2.59375 0l0 1.34375l-2.59375 0l0 5.484375q0 1.046875 0.40625 1.5q0.40625 0.4375 1.28125 0.4375q0.34375 0 0.859375 -0.109375l0 1.234375zm11.6185 -0.453125l-9.890625 -4.9375l9.890625 -4.953125l0 1.578125l-6.875 3.375l6.875 3.375l0 1.5625zm2.7499237 0.453125l0 -9.890625l1.796875 0l0 9.890625l-1.796875 0zm0 -11.6875l0 -1.796875l1.796875 0l0 1.796875l-1.796875 0zm5.3928223 11.6875l0 -9.890625l1.796875 0l0 1.859375q0.671875 -1.0 1.578125 -1.53125q0.90625 -0.546875 1.890625 -0.546875q1.25 0 2.03125 0.796875q0.796875 0.796875 0.796875 2.203125l0 7.109375l-1.796875 0l0 -6.515625q0 -1.03125 -0.1875 -1.359375q-0.1875 -0.328125 -0.515625 -0.5q-0.328125 -0.1875 -0.6875 -0.1875q-0.671875 0 -1.453125 0.40625q-0.765625 0.40625 -1.65625 1.75l0 6.40625l-1.796875 0zm15.984421 0q-0.828125 0.234375 -1.4375 0.234375q-1.328125 0 -2.109375 -0.765625q-0.78125 -0.78125 -0.78125 -2.203125l0 -5.8125l-1.25 0l0 -1.34375l1.25 0l0 -1.796875l1.78125 -0.171875l0 1.96875l2.59375 0l0 1.34375l-2.59375 0l0 5.484375q0 1.046875 0.40625 1.5q0.40625 0.4375 1.28125 0.4375q0.34375 0 0.859375 -0.109375l0 1.234375zm1.7278748 -10.34375l9.890625 4.953125l-9.890625 4.9375l0 -1.5625l6.875 -3.375l-6.875 -3.375l0 -1.578125zm16.234299 11.796875l0 1.25q-1.484375 -1.015625 -2.40625 -2.421875q-0.921875 -1.40625 -1.390625 -3.0q-0.46875 -1.59375 -0.46875 -3.125q0 -1.53125 0.46875 -3.125q0.46875 -1.59375 1.390625 -3.0q0.921875 -1.40625 2.40625 -2.421875l0 1.25q-1.03125 1.109375 -1.53125 2.171875q-0.484375 1.046875 -0.71875 2.359375q-0.21875 1.3125 -0.21875 2.765625q0 1.453125 0.21875 2.765625q0.234375 1.3125 0.71875 2.375q0.5 1.046875 1.53125 2.15625zm6.879425 -1.453125q-0.828125 0.234375 -1.4375 0.234375q-1.328125 0 -2.109375 -0.765625q-0.78125 -0.78125 -0.78125 -2.203125l0 -5.8125l-1.25 0l0 -1.34375l1.25 0l0 -1.796875l1.78125 -0.171875l0 1.96875l2.59375 0l0 1.34375l-2.59375 0l0 5.484375q0 1.046875 0.40625 1.5q0.40625 0.4375 1.28125 0.4375q0.34375 0 0.859375 -0.109375l0 1.234375zm8.759125 0l0 -1.859375q-0.703125 1.0 -1.609375 1.546875q-0.890625 0.546875 -1.859375 0.546875q-1.25 0 -2.046875 -0.796875q-0.78125 -0.796875 -0.78125 -2.21875l0 -7.109375l1.796875 0l0 6.515625q0 1.03125 0.171875 1.359375q0.1875 0.328125 0.515625 0.515625q0.328125 0.171875 0.703125 0.171875q0.65625 0 1.421875 -0.40625q0.78125 -0.40625 1.6875 -1.75l0 -6.40625l1.796875 0l0 9.890625l-1.796875 0zm5.390671 3.59375l0 -13.484375l1.796875 0l0 1.859375q0.546875 -1.046875 1.375 -1.5625q0.828125 -0.515625 1.921875 -0.515625q1.84375 0 2.84375 1.34375q1.0 1.34375 1.0 3.515625q0 1.421875 -0.46875 2.703125q-0.46875 1.265625 -1.453125 2.03125q-0.96875 0.75 -2.203125 0.75q-0.5 0 -1.3125 -0.15625q-0.796875 -0.140625 -1.703125 -1.203125l0 4.71875l-1.796875 0zm1.796875 -5.953125q0.921875 0.8125 1.46875 1.03125q0.546875 0.203125 1.171875 0.203125q1.3125 0 1.9375 -1.109375q0.640625 -1.109375 0.640625 -2.828125q0 -1.609375 -0.5625 -2.546875q-0.546875 -0.9375 -1.734375 -0.9375q-0.734375 0 -1.46875 0.40625q-0.734375 0.40625 -1.453125 1.21875l0 4.5625zm9.945267 2.359375l0 -14.390625l1.796875 0l0 14.390625l-1.796875 0zm12.642822 -0.3125q-1.8125 0.546875 -3.09375 0.546875q-2.296875 0 -3.625 -1.546875q-1.3125 -1.5625 -1.3125 -3.671875q0 -1.40625 0.578125 -2.65625q0.578125 -1.265625 1.515625 -1.875q0.953125 -0.609375 2.234375 -0.609375q1.703125 0 2.71875 1.234375q1.03125 1.234375 1.03125 3.6875l-0.015625 0.53125l-6.234375 0q0.140625 1.3125 0.5625 2.03125q0.421875 0.703125 1.109375 1.109375q0.703125 0.390625 1.78125 0.390625q0.546875 0 1.078125 -0.09375q0.546875 -0.09375 1.671875 -0.5l0 1.421875zm-6.125 -5.703125l4.359375 0q0 -1.484375 -0.578125 -2.109375q-0.578125 -0.640625 -1.46875 -0.640625q-1.03125 0 -1.609375 0.6875q-0.578125 0.6875 -0.703125 2.0625zm8.143936 -7.125l0 -1.25q1.484375 1.015625 2.40625 2.421875q0.921875 1.40625 1.390625 3.0q0.484375 1.59375 0.484375 3.125q0 1.53125 -0.484375 3.125q-0.46875 1.59375 -1.390625 3.0q-0.921875 1.40625 -2.40625 2.421875l0 -1.25q1.03125 -1.109375 1.515625 -2.15625q0.5 -1.0625 0.71875 -2.375q0.234375 -1.328125 0.234375 -2.765625q0 -1.4375 -0.234375 -2.75q-0.21875 -1.328125 -0.71875 -2.375q-0.484375 -1.0625 -1.515625 -2.171875z" fill-rule="nonzero"/><path fill="#000000" d="m36.8013 103.1305l0.40625 1.28125l-2.75 0.59375l0.015625 -0.140625q0 -0.359375 -0.265625 -0.609375l2.59375 -1.125zm-0.5 4.09375l-1.09375 0.796875l-1.421875 -2.4375q0.171875 -0.015625 0.359375 -0.140625q0.1875 -0.140625 0.265625 -0.3125l1.890625 2.09375zm-4.0625 0.796875l-1.0937481 -0.796875l1.8749981 -2.09375q0.078125 0.1875 0.265625 0.3125q0.203125 0.125 0.375 0.140625l-1.421875 2.4375zm-2.015623 -3.609375l0.421875 -1.28125l2.593748 1.125q-0.265625 0.234375 -0.265625 0.609375l0.015625 0.140625l-2.765623 -0.59375zm2.828123 -3.03125l1.34375 0l-0.28125 2.8125q-0.15625 -0.109375 -0.390625 -0.109375q-0.234375 0 -0.390625 0.109375l-0.28125 -2.8125zm12.503403 13.140625l0 -1.65625q1.75 0.875 3.046875 0.875q0.765625 0 1.28125 -0.40625q0.515625 -0.421875 0.515625 -1.0625q0 -0.390625 -0.25 -0.765625q-0.25 -0.359375 -1.171875 -0.75l-1.046875 -0.453125q-1.21875 -0.5 -1.765625 -1.15625q-0.5625 -0.65625 -0.5625 -1.609375q0 -1.203125 0.859375 -1.984375q0.875 -0.796875 2.5625 -0.796875q0.828125 0 2.046875 0.21875l0.375 0.078125l0 1.5q-1.5 -0.453125 -2.390625 -0.453125q-0.859375 0 -1.296875 0.375q-0.421875 0.375 -0.421875 0.890625q0 0.390625 0.28125 0.71875q0.296875 0.328125 1.03125 0.640625l0.859375 0.359375q1.734375 0.75 2.21875 1.46875q0.46875 0.71875 0.46875 1.5625q0 0.8125 -0.4375 1.5q-0.4375 0.6875 -1.3125 1.09375q-0.859375 0.390625 -1.90625 0.390625q-1.234375 0 -2.984375 -0.578125zm14.27594 0.34375q-0.828125 0.234375 -1.4375 0.234375q-1.328125 0 -2.109375 -0.765625q-0.78125 -0.78125 -0.78125 -2.203125l0 -5.8125l-1.25 0l0 -1.34375l1.25 0l0 -1.796875l1.78125 -0.171875l0 1.96875l2.59375 0l0 1.34375l-2.59375 0l0 5.484375q0 1.046875 0.40625 1.5q0.40625 0.4375 1.28125 0.4375q0.34375 0 0.859375 -0.109375l0 1.234375zm8.915375 0l0 -1.859375q-0.546875 1.046875 -1.375 1.578125q-0.8125 0.515625 -1.921875 0.515625q-1.8125 0 -2.828125 -1.34375q-1.0 -1.34375 -1.0 -3.53125q0 -2.34375 1.125 -3.90625q1.125 -1.5625 3.09375 -1.5625q0.5625 0 1.078125 0.140625q0.53125 0.125 0.9375 0.375q0.40625 0.25 0.890625 0.828125l0 -5.625l1.8125 0l0 14.390625l-1.8125 0zm0 -7.53125q-0.921875 -0.828125 -1.46875 -1.03125q-0.546875 -0.203125 -1.171875 -0.203125q-1.3125 0 -1.953125 1.109375q-0.625 1.09375 -0.625 2.84375q0 1.609375 0.5625 2.546875q0.5625 0.921875 1.734375 0.921875q0.75 0 1.484375 -0.40625q0.734375 -0.421875 1.4375 -1.234375l0 -4.546875zm5.6483917 7.53125l0 -1.796875l1.796875 0l0 1.796875l-1.796875 0zm0 -8.09375l0 -1.796875l1.796875 0l0 1.796875l-1.796875 0zm5.902954 8.09375l0 -1.796875l1.796875 0l0 1.796875l-1.796875 0zm0 -8.09375l0 -1.796875l1.796875 0l0 1.796875l-1.796875 0zm10.059204 8.09375q-0.828125 0.234375 -1.4375 0.234375q-1.328125 0 -2.109375 -0.765625q-0.78125 -0.78125 -0.78125 -2.203125l0 -5.8125l-1.25 0l0 -1.34375l1.25 0l0 -1.796875l1.78125 -0.171875l0 1.96875l2.59375 0l0 1.34375l-2.59375 0l0 5.484375q0 1.046875 0.40625 1.5q0.40625 0.4375 1.28125 0.4375q0.34375 0 0.859375 -0.109375l0 1.234375zm2.5716248 0l0 -9.890625l1.796875 0l0 9.890625l-1.796875 0zm0 -11.6875l0 -1.796875l1.796875 0l0 1.796875l-1.796875 0zm12.642822 11.375q-1.8125 0.546875 -3.09375 0.546875q-2.296875 0 -3.625 -1.546875q-1.3125 -1.5625 -1.3125 -3.671875q0 -1.40625 0.578125 -2.65625q0.578125 -1.265625 1.515625 -1.875q0.953125 -0.609375 2.234375 -0.609375q1.703125 0 2.71875 1.234375q1.03125 1.234375 1.03125 3.6875l-0.015625 0.53125l-6.234375 0q0.140625 1.3125 0.5625 2.03125q0.421875 0.703125 1.109375 1.109375q0.703125 0.390625 1.78125 0.390625q0.546875 0 1.078125 -0.09375q0.546875 -0.09375 1.671875 -0.5l0 1.421875zm-6.125 -5.703125l4.359375 0q0 -1.484375 -0.578125 -2.109375q-0.578125 -0.640625 -1.46875 -0.640625q-1.03125 0 -1.609375 0.6875q-0.578125 0.6875 -0.703125 2.0625zm12.862686 7.46875l0 1.25q-1.484375 -1.015625 -2.40625 -2.421875q-0.921875 -1.40625 -1.390625 -3.0q-0.46875 -1.59375 -0.46875 -3.125q0 -1.53125 0.46875 -3.125q0.46875 -1.59375 1.390625 -3.0q0.921875 -1.40625 2.40625 -2.421875l0 1.25q-1.03125 1.109375 -1.53125 2.171875q-0.484375 1.046875 -0.71875 2.359375q-0.21875 1.3125 -0.21875 2.765625q0 1.453125 0.21875 2.765625q0.234375 1.3125 0.71875 2.375q0.5 1.046875 1.53125 2.15625zm2.504425 -1.453125l0 -2.25l2.25 0l0 2.25l-2.25 0zm5.902954 0l0 -2.25l2.25 0l0 2.25l-2.25 0zm5.902954 0l0 -2.25l2.25 0l0 2.25l-2.25 0zm4.746704 -13.140625l0 -1.25q1.484375 1.015625 2.40625 2.421875q0.921875 1.40625 1.390625 3.0q0.484375 1.59375 0.484375 3.125q0 1.53125 -0.484375 3.125q-0.46875 1.59375 -1.390625 3.0q-0.921875 1.40625 -2.40625 2.421875l0 -1.25q1.03125 -1.109375 1.515625 -2.15625q0.5 -1.0625 0.71875 -2.375q0.234375 -1.328125 0.234375 -2.765625q0 -1.4375 -0.234375 -2.75q-0.21875 -1.328125 -0.71875 -2.375q-0.484375 -1.0625 -1.515625 -2.171875z" fill-rule="nonzero"/><path fill="#000000" d="m36.8013 125.1305l0.40625 1.28125l-2.75 0.59375l0.015625 -0.140625q0 -0.359375 -0.265625 -0.609375l2.59375 -1.125zm-0.5 4.0937576l-1.09375 0.796875l-1.421875 -2.4375076q0.171875 -0.015625 0.359375 -0.140625q0.1875 -0.140625 0.265625 -0.3125l1.890625 2.0937576zm-4.0625 0.796875l-1.0937481 -0.796875l1.8749981 -2.0937576q0.078125 0.1875 0.265625 0.3125q0.203125 0.125 0.375 0.140625l-1.421875 2.4375076zm-2.015623 -3.6093826l0.421875 -1.28125l2.593748 1.125q-0.265625 0.234375 -0.265625 0.609375l0.015625 0.140625l-2.765623 -0.59375zm2.828123 -3.03125l1.34375 0l-0.28125 2.8125q-0.15625 -0.109375 -0.390625 -0.109375q-0.234375 0 -0.390625 0.109375l-0.28125 -2.8125zm12.503403 13.140633l0 -1.65625q1.75 0.875 3.046875 0.875q0.765625 0 1.28125 -0.40625q0.515625 -0.421875 0.515625 -1.0625q0 -0.390625 -0.25 -0.765625q-0.25 -0.359375 -1.171875 -0.75l-1.046875 -0.453125q-1.21875 -0.5 -1.765625 -1.15625q-0.5625 -0.65625 -0.5625 -1.609375q0 -1.203125 0.859375 -1.9843826q0.875 -0.796875 2.5625 -0.796875q0.828125 0 2.046875 0.21875l0.375 0.078125l0 1.5000076q-1.5 -0.453125 -2.390625 -0.453125q-0.859375 0 -1.296875 0.375q-0.421875 0.375 -0.421875 0.890625q0 0.390625 0.28125 0.71875q0.296875 0.328125 1.03125 0.640625l0.859375 0.359375q1.734375 0.75 2.21875 1.46875q0.46875 0.71875 0.46875 1.5625q0 0.8125 -0.4375 1.5q-0.4375 0.6875 -1.3125 1.09375q-0.859375 0.390625 -1.90625 0.390625q-1.234375 0 -2.984375 -0.578125zm14.27594 0.34375q-0.828125 0.234375 -1.4375 0.234375q-1.328125 0 -2.109375 -0.765625q-0.78125 -0.78125 -0.78125 -2.203125l0 -5.8125l-1.25 0l0 -1.3437576l1.25 0l0 -1.796875l1.78125 -0.171875l0 1.96875l2.59375 0l0 1.3437576l-2.59375 0l0 5.484375q0 1.046875 0.40625 1.5q0.40625 0.4375 1.28125 0.4375q0.34375 0 0.859375 -0.109375l0 1.234375zm8.915375 0l0 -1.859375q-0.546875 1.046875 -1.375 1.578125q-0.8125 0.515625 -1.921875 0.515625q-1.8125 0 -2.828125 -1.34375q-1.0 -1.34375 -1.0 -3.53125q0 -2.34375 1.125 -3.90625q1.125 -1.5625076 3.09375 -1.5625076q0.5625 0 1.078125 0.140625q0.53125 0.125 0.9375 0.375q0.40625 0.25 0.890625 0.8281326l0 -5.6250076l1.8125 0l0 14.390633l-1.8125 0zm0 -7.53125q-0.921875 -0.828125 -1.46875 -1.03125q-0.546875 -0.203125 -1.171875 -0.203125q-1.3125 0 -1.953125 1.109375q-0.625 1.09375 -0.625 2.84375q0 1.609375 0.5625 2.546875q0.5625 0.921875 1.734375 0.921875q0.75 0 1.484375 -0.40625q0.734375 -0.421875 1.4375 -1.234375l0 -4.546875zm5.6483917 7.53125l0 -1.796875l1.796875 0l0 1.796875l-1.796875 0zm0 -8.09375l0 -1.7968826l1.796875 0l0 1.7968826l-1.796875 0zm5.902954 8.09375l0 -1.796875l1.796875 0l0 1.796875l-1.796875 0zm0 -8.09375l0 -1.7968826l1.796875 0l0 1.7968826l-1.796875 0zm10.059204 8.09375q-0.828125 0.234375 -1.4375 0.234375q-1.328125 0 -2.109375 -0.765625q-0.78125 -0.78125 -0.78125 -2.203125l0 -5.8125l-1.25 0l0 -1.3437576l1.25 0l0 -1.796875l1.78125 -0.171875l0 1.96875l2.59375 0l0 1.3437576l-2.59375 0l0 5.484375q0 1.046875 0.40625 1.5q0.40625 0.4375 1.28125 0.4375q0.34375 0 0.859375 -0.109375l0 1.234375zm8.759125 0l0 -1.859375q-0.703125 1.0 -1.609375 1.546875q-0.890625 0.546875 -1.859375 0.546875q-1.25 0 -2.046875 -0.796875q-0.78125 -0.796875 -0.78125 -2.21875l0 -7.1093826l1.796875 0l0 6.5156326q0 1.03125 0.171875 1.359375q0.1875 0.328125 0.515625 0.515625q0.328125 0.171875 0.703125 0.171875q0.65625 0 1.421875 -0.40625q0.78125 -0.40625 1.6875 -1.75l0 -6.4062576l1.796875 0l0 9.890633l-1.796875 0zm5.390671 3.59375l0 -13.484383l1.796875 0l0 1.8593826q0.546875 -1.0468826 1.375 -1.5625076q0.828125 -0.515625 1.921875 -0.515625q1.84375 0 2.84375 1.3437576q1.0 1.34375 1.0 3.515625q0 1.421875 -0.46875 2.703125q-0.46875 1.265625 -1.453125 2.03125q-0.96875 0.75 -2.203125 0.75q-0.5 0 -1.3125 -0.15625q-0.796875 -0.140625 -1.703125 -1.203125l0 4.71875l-1.796875 0zm1.796875 -5.953125q0.921875 0.8125 1.46875 1.03125q0.546875 0.203125 1.171875 0.203125q1.3125 0 1.9375 -1.109375q0.640625 -1.109375 0.640625 -2.828125q0 -1.609375 -0.5625 -2.546875q-0.546875 -0.9375 -1.734375 -0.9375q-0.734375 0 -1.46875 0.40625q-0.734375 0.40625 -1.453125 1.21875l0 4.5625zm9.945267 2.359375l0 -14.390633l1.796875 0l0 14.390633l-1.796875 0zm12.642822 -0.3125q-1.8125 0.546875 -3.09375 0.546875q-2.296875 0 -3.625 -1.546875q-1.3125 -1.5625 -1.3125 -3.671875q0 -1.40625 0.578125 -2.65625q0.578125 -1.2656326 1.515625 -1.8750076q0.953125 -0.609375 2.234375 -0.609375q1.703125 0 2.71875 1.234375q1.03125 1.2343826 1.03125 3.6875076l-0.015625 0.53125l-6.234375 0q0.140625 1.3125 0.5625 2.03125q0.421875 0.703125 1.109375 1.109375q0.703125 0.390625 1.78125 0.390625q0.546875 0 1.078125 -0.09375q0.546875 -0.09375 1.671875 -0.5l0 1.421875zm-6.125 -5.703125l4.359375 0q0 -1.484375 -0.578125 -2.109375q-0.578125 -0.640625 -1.46875 -0.640625q-1.03125 0 -1.609375 0.6875q-0.578125 0.6875 -0.703125 2.0625zm8.253311 7.359375l0 -1.34375l7.75 0l0 1.34375l-7.75 0zm9.984375 -1.6875l0 -1.65625q1.75 0.875 3.046875 0.875q0.765625 0 1.28125 -0.40625q0.515625 -0.421875 0.515625 -1.0625q0 -0.390625 -0.25 -0.765625q-0.25 -0.359375 -1.171875 -0.75l-1.046875 -0.453125q-1.21875 -0.5 -1.765625 -1.15625q-0.5625 -0.65625 -0.5625 -1.609375q0 -1.203125 0.859375 -1.9843826q0.875 -0.796875 2.5625 -0.796875q0.828125 0 2.046875 0.21875l0.375 0.078125l0 1.5000076q-1.5 -0.453125 -2.390625 -0.453125q-0.859375 0 -1.296875 0.375q-0.421875 0.375 -0.421875 0.890625q0 0.390625 0.28125 0.71875q0.296875 0.328125 1.03125 0.640625l0.859375 0.359375q1.734375 0.75 2.21875 1.46875q0.46875 0.71875 0.46875 1.5625q0 0.8125 -0.4375 1.5q-0.4375 0.6875 -1.3125 1.09375q-0.859375 0.390625 -1.90625 0.390625q-1.234375 0 -2.984375 -0.578125zm9.86969 0.34375l0 -9.890633l1.796875 0l0 9.890633l-1.796875 0zm0 -11.687508l0 -1.796875l1.796875 0l0 1.796875l-1.796875 0zm4.7209473 11.687508l0 -1.34375l6.109375 -7.203125l-5.828125 0l0 -1.3437576l8.046875 0l0 1.3437576l-6.125 7.203125l6.25 0l0 1.34375l-8.453125 0zm18.616425 -0.3125q-1.8125 0.546875 -3.09375 0.546875q-2.296875 0 -3.625 -1.546875q-1.3125 -1.5625 -1.3125 -3.671875q0 -1.40625 0.578125 -2.65625q0.578125 -1.2656326 1.515625 -1.8750076q0.953125 -0.609375 2.234375 -0.609375q1.703125 0 2.71875 1.234375q1.03125 1.2343826 1.03125 3.6875076l-0.015625 0.53125l-6.234375 0q0.140625 1.3125 0.5625 2.03125q0.421875 0.703125 1.109375 1.109375q0.703125 0.390625 1.78125 0.390625q0.546875 0 1.078125 -0.09375q0.546875 -0.09375 1.671875 -0.5l0 1.421875zm-6.125 -5.703125l4.359375 0q0 -1.484375 -0.578125 -2.109375q-0.578125 -0.640625 -1.46875 -0.640625q-1.03125 0 -1.609375 0.6875q-0.578125 0.6875 -0.703125 2.0625zm18.315811 5.5625l-9.890625 -4.9375l9.890625 -4.9531326l0 1.5781326l-6.875 3.375l6.875 3.375l0 1.5625zm2.3905487 0.109375l0 -1.65625q1.75 0.875 3.046875 0.875q0.765625 0 1.28125 -0.40625q0.515625 -0.421875 0.515625 -1.0625q0 -0.390625 -0.25 -0.765625q-0.25 -0.359375 -1.171875 -0.75l-1.046875 -0.453125q-1.21875 -0.5 -1.765625 -1.15625q-0.5625 -0.65625 -0.5625 -1.609375q0 -1.203125 0.859375 -1.9843826q0.875 -0.796875 2.5625 -0.796875q0.828125 0 2.046875 0.21875l0.375 0.078125l0 1.5000076q-1.5 -0.453125 -2.390625 -0.453125q-0.859375 0 -1.296875 0.375q-0.421875 0.375 -0.421875 0.890625q0 0.390625 0.28125 0.71875q0.296875 0.328125 1.03125 0.640625l0.859375 0.359375q1.734375 0.75 2.21875 1.46875q0.46875 0.71875 0.46875 1.5625q0 0.8125 -0.4375 1.5q-0.4375 0.6875 -1.3125 1.09375q-0.859375 0.390625 -1.90625 0.390625q-1.234375 0 -2.984375 -0.578125zm14.27594 0.34375q-0.828125 0.234375 -1.4375 0.234375q-1.328125 0 -2.109375 -0.765625q-0.78125 -0.78125 -0.78125 -2.203125l0 -5.8125l-1.25 0l0 -1.3437576l1.25 0l0 -1.796875l1.78125 -0.171875l0 1.96875l2.59375 0l0 1.3437576l-2.59375 0l0 5.484375q0 1.046875 0.40625 1.5q0.40625 0.4375 1.28125 0.4375q0.34375 0 0.859375 -0.109375l0 1.234375zm8.915375 0l0 -1.859375q-0.546875 1.046875 -1.375 1.578125q-0.8125 0.515625 -1.921875 0.515625q-1.8125 0 -2.828125 -1.34375q-1.0 -1.34375 -1.0 -3.53125q0 -2.34375 1.125 -3.90625q1.125 -1.5625076 3.09375 -1.5625076q0.5625 0 1.078125 0.140625q0.53125 0.125 0.9375 0.375q0.40625 0.25 0.890625 0.8281326l0 -5.6250076l1.8125 0l0 14.390633l-1.8125 0zm0 -7.53125q-0.921875 -0.828125 -1.46875 -1.03125q-0.546875 -0.203125 -1.171875 -0.203125q-1.3125 0 -1.953125 1.109375q-0.625 1.09375 -0.625 2.84375q0 1.609375 0.5625 2.546875q0.5625 0.921875 1.734375 0.921875q0.75 0 1.484375 -0.40625q0.734375 -0.421875 1.4375 -1.234375l0 -4.546875zm5.6483917 7.53125l0 -1.796875l1.796875 0l0 1.796875l-1.796875 0zm0 -8.09375l0 -1.7968826l1.796875 0l0 1.7968826l-1.796875 0zm5.902954 8.09375l0 -1.796875l1.796875 0l0 1.796875l-1.796875 0zm0 -8.09375l0 -1.7968826l1.796875 0l0 1.7968826l-1.796875 0zm10.059204 8.09375q-0.828125 0.234375 -1.4375 0.234375q-1.328125 0 -2.109375 -0.765625q-0.78125 -0.78125 -0.78125 -2.203125l0 -5.8125l-1.25 0l0 -1.3437576l1.25 0l0 -1.796875l1.78125 -0.171875l0 1.96875l2.59375 0l0 1.3437576l-2.59375 0l0 5.484375q0 1.046875 0.40625 1.5q0.40625 0.4375 1.28125 0.4375q0.34375 0 0.859375 -0.109375l0 1.234375zm8.759125 0l0 -1.859375q-0.703125 1.0 -1.609375 1.546875q-0.890625 0.546875 -1.859375 0.546875q-1.25 0 -2.046875 -0.796875q-0.78125 -0.796875 -0.78125 -2.21875l0 -7.1093826l1.796875 0l0 6.5156326q0 1.03125 0.171875 1.359375q0.1875 0.328125 0.515625 0.515625q0.328125 0.171875 0.703125 0.171875q0.65625 0 1.421875 -0.40625q0.78125 -0.40625 1.6875 -1.75l0 -6.4062576l1.796875 0l0 9.890633l-1.796875 0zm5.390671 3.59375l0 -13.484383l1.796875 0l0 1.8593826q0.546875 -1.0468826 1.375 -1.5625076q0.828125 -0.515625 1.921875 -0.515625q1.84375 0 2.84375 1.3437576q1.0000153 1.34375 1.0000153 3.515625q0 1.421875 -0.46875 2.703125q-0.46876526 1.265625 -1.4531403 2.03125q-0.96875 0.75 -2.203125 0.75q-0.5 0 -1.3125 -0.15625q-0.796875 -0.140625 -1.703125 -1.203125l0 4.71875l-1.796875 0zm1.796875 -5.953125q0.921875 0.8125 1.46875 1.03125q0.546875 0.203125 1.171875 0.203125q1.3125 0 1.9375 -1.109375q0.640625 -1.109375 0.640625 -2.828125q0 -1.609375 -0.5625 -2.546875q-0.546875 -0.9375 -1.734375 -0.9375q-0.734375 0 -1.46875 0.40625q-0.734375 0.40625 -1.453125 1.21875l0 4.5625zm9.945267 2.359375l0 -14.390633l1.796875 0l0 14.390633l-1.796875 0zm12.642822 -0.3125q-1.8125 0.546875 -3.09375 0.546875q-2.296875 0 -3.625 -1.546875q-1.3125 -1.5625 -1.3125 -3.671875q0 -1.40625 0.578125 -2.65625q0.578125 -1.2656326 1.515625 -1.8750076q0.953125 -0.609375 2.234375 -0.609375q1.703125 0 2.71875 1.234375q1.03125 1.2343826 1.03125 3.6875076l-0.015625 0.53125l-6.234375 0q0.140625 1.3125 0.5625 2.03125q0.421875 0.703125 1.109375 1.109375q0.703125 0.390625 1.78125 0.390625q0.546875 0 1.078125 -0.09375q0.546875 -0.09375 1.671875 -0.5l0 1.421875zm-6.125 -5.703125l4.359375 0q0 -1.484375 -0.578125 -2.109375q-0.578125 -0.640625 -1.46875 -0.640625q-1.03125 0 -1.609375 0.6875q-0.578125 0.6875 -0.703125 2.0625zm18.315796 5.5625l-9.890625 -4.9375l9.890625 -4.9531326l0 1.5781326l-6.875 3.375l6.875 3.375l0 1.5625zm2.781189 0.453125l0 -2.25l2.25 0l0 2.25l-2.25 0zm5.902954 0l0 -2.25l2.25 0l0 2.25l-2.25 0zm5.902954 0l0 -2.25l2.25 0l0 2.25l-2.25 0zm5.027954 -10.343758l9.890625 4.9531326l-9.890625 4.9375l0 -1.5625l6.875 -3.375l-6.875 -3.375l0 -1.5781326zm11.796814 0l9.890625 4.9531326l-9.890625 4.9375l0 -1.5625l6.875 -3.375l-6.875 -3.375l0 -1.5781326z" fill-rule="nonzero"/><path fill="#000000" d="m36.8013 147.13051l0.40625 1.28125l-2.75 0.59375l0.015625 -0.140625q0 -0.359375 -0.265625 -0.609375l2.59375 -1.125zm-0.5 4.09375l-1.09375 0.796875l-1.421875 -2.4375q0.171875 -0.015625 0.359375 -0.140625q0.1875 -0.140625 0.265625 -0.3125l1.890625 2.09375zm-4.0625 0.796875l-1.0937481 -0.796875l1.8749981 -2.09375q0.078125 0.1875 0.265625 0.3125q0.203125 0.125 0.375 0.140625l-1.421875 2.4375zm-2.015623 -3.609375l0.421875 -1.28125l2.593748 1.125q-0.265625 0.234375 -0.265625 0.609375l0.015625 0.140625l-2.765623 -0.59375zm2.828123 -3.03125l1.34375 0l-0.28125 2.8125q-0.15625 -0.109375 -0.390625 -0.109375q-0.234375 0 -0.390625 0.109375l-0.28125 -2.8125zm5.2723236 16.1875l7.515625 -17.09375l1.46875 0l-7.515625 17.09375l-1.46875 0z" fill-rule="nonzero"/></g></svg>