<svg version="1.1" viewBox="0.0 0.0 479.0 250.0" fill="none" stroke="none" stroke-linecap="square" stroke-miterlimit="10" xmlns:xlink="http://www.w3.org/1999/xlink" xmlns="http://www.w3.org/2000/svg"><clipPath id="p.0"><path d="m0 0l479.0 0l0 250.0l-479.0 0l0 -250.0z" clip-rule="nonzero"/></clipPath><g clip-path="url(#p.0)"><path fill="#000000" fill-opacity="0.0" d="m0 0l479.0 0l0 250.0l-479.0 0z" fill-rule="evenodd"/><path fill="#000000" fill-opacity="0.0" d="m109.944885 133.07874l57.13385 0l0 42.015747l-57.13385 0z" fill-rule="evenodd"/><path stroke="#000000" stroke-width="2.0" stroke-linejoin="round" stroke-linecap="butt" d="m109.944885 133.07874l57.13385 0l0 42.015747l-57.13385 0z" fill-rule="evenodd"/><path fill="#000000" d="m137.48842 159.99873l0 -12.140625l-2.125 0l0 -1.125l3.9375 -0.328125l0 13.59375l-1.8125 0z" fill-rule="nonzero"/><path fill="#000000" fill-opacity="0.0" d="m167.07874 133.07874l57.133865 0l0 42.015747l-57.133865 0z" fill-rule="evenodd"/><path stroke="#000000" stroke-width="2.0" stroke-linejoin="round" stroke-linecap="butt" d="m167.07874 133.07874l57.133865 0l0 42.015747l-57.133865 0z" fill-rule="evenodd"/><path fill="#000000" d="m191.29414 159.99873l0 -1.578125q0.78125 -1.828125 3.171875 -3.984375l1.03125 -0.921875q1.125 -1.015625 1.546875 -1.84375q0.4375 -0.828125 0.4375 -1.71875q0 -1.140625 -0.703125 -1.78125q-0.6875 -0.640625 -1.84375 -0.640625q-0.5 0 -0.96875 0.09375q-0.453125 0.09375 -0.984375 0.3125q-0.515625 0.203125 -1.34375 0.671875l0 -1.578125q1.796875 -0.84375 3.5625 -0.84375q1.9375 0 3.0625 1.0625q1.125 1.0625 1.125 2.65625q0 1.03125 -0.46875 1.953125q-0.453125 0.921875 -2.265625 2.46875l-0.6875 0.59375q-0.765625 0.640625 -1.53125 1.5625q-0.765625 0.90625 -0.96875 1.9375l5.859375 0l0 1.578125l-8.03125 0z" fill-rule="nonzero"/><path fill="#000000" fill-opacity="0.0" d="m224.2126 133.07874l57.133865 0l0 42.015747l-57.133865 0z" fill-rule="evenodd"/><path stroke="#000000" stroke-width="2.0" stroke-linejoin="round" stroke-linecap="butt" d="m224.2126 133.07874l57.133865 0l0 42.015747l-57.133865 0z" fill-rule="evenodd"/><path fill="#000000" d="m248.77176 159.90498l0 -1.6875q1.921875 0.765625 3.03125 0.765625q1.28125 0 2.09375 -0.75q0.8125 -0.75 0.8125 -1.9375q0 -1.171875 -0.828125 -2.0q-0.828125 -0.84375 -3.140625 -0.84375l-0.71875 0l0 -1.21875l0.625 0q2.171875 0 2.953125 -0.78125q0.78125 -0.796875 0.78125 -1.859375q0 -0.9375 -0.625 -1.5q-0.609375 -0.5625 -1.84375 -0.5625q-1.328125 0 -2.953125 0.75l0 -1.5625q1.15625 -0.390625 1.796875 -0.453125q0.65625 -0.078125 1.265625 -0.078125q2.140625 0 3.15625 0.859375q1.015625 0.84375 1.015625 2.265625q0 0.78125 -0.296875 1.390625q-0.28125 0.59375 -0.875 1.109375q-0.59375 0.515625 -1.640625 0.875q1.3125 0.3125 1.953125 0.796875q0.640625 0.484375 0.96875 1.21875q0.328125 0.71875 0.328125 1.5625q0 1.578125 -1.078125 2.828125q-1.078125 1.25 -3.625 1.25q-1.25 0 -3.15625 -0.4375z" fill-rule="nonzero"/><path fill="#000000" fill-opacity="0.0" d="m281.34647 133.07874l57.13385 0l0 42.015747l-57.13385 0z" fill-rule="evenodd"/><path stroke="#000000" stroke-width="2.0" stroke-linejoin="round" stroke-linecap="butt" d="m281.34647 133.07874l57.13385 0l0 42.015747l-57.13385 0z" fill-rule="evenodd"/><path fill="#000000" d="m311.0306 159.99873l0 -3.8125l-6.0625 0l0 -1.359375l6.0625 -8.3125l1.6875 0l0 8.203125l1.8125 0l0 1.46875l-1.8125 0l0 3.8125l-1.6875 0zm-4.296875 -5.28125l4.421875 0l0 -6.0l-4.421875 6.0z" fill-rule="nonzero"/><path fill="#000000" fill-opacity="0.0" d="m338.48032 133.07874l57.13385 0l0 42.015747l-57.13385 0z" fill-rule="evenodd"/><path stroke="#000000" stroke-width="2.0" stroke-linejoin="round" stroke-linecap="butt" d="m338.48032 133.07874l57.13385 0l0 42.015747l-57.13385 0z" fill-rule="evenodd"/><path fill="#000000" d="m363.41446 160.04561l0 -1.59375q1.34375 0.53125 2.546875 0.53125q1.46875 0 2.15625 -0.859375q0.703125 -0.859375 0.703125 -2.0625q0 -1.390625 -1.015625 -2.21875q-1.015625 -0.828125 -3.171875 -0.828125q-0.484375 0 -0.984375 0.0625l0 -6.5625l6.8125 0l0 1.5625l-5.234375 0l0 3.5625q2.84375 0 4.171875 1.296875q1.328125 1.296875 1.328125 3.203125q0 1.75 -1.203125 2.984375q-1.203125 1.21875 -3.78125 1.21875q-1.03125 0 -2.328125 -0.296875z" fill-rule="nonzero"/><path fill="#000000" fill-opacity="0.0" d="m252.98425 95.28346l-0.40945435 37.795273" fill-rule="evenodd"/><path stroke="#000000" stroke-width="2.0" stroke-linejoin="round" stroke-linecap="butt" d="m252.98425 95.28346l-0.27946472 25.795982" fill-rule="evenodd"/><path fill="#000000" stroke="#000000" stroke-width="2.0" stroke-linecap="butt" d="m249.40152 121.04366l3.204956 9.111443l3.4015808 -9.039879z" fill-rule="evenodd"/><path fill="#000000" fill-opacity="0.0" d="m3.2322834 2.1706038l472.53546 0l0 61.41732l-472.53546 0z" fill-rule="evenodd"/><path fill="#000000" d="m13.560409 27.482477l0 -1.53125q1.640625 0.8125 2.843749 0.8125q0.703125 0 1.1875 -0.375q0.484375 -0.390625 0.484375 -0.984375q0 -0.359375 -0.25 -0.703125q-0.234375 -0.34375 -1.078125 -0.703125l-0.98437405 -0.421875q-1.125 -0.46875 -1.640625 -1.078125q-0.515625 -0.609375 -0.515625 -1.5q0 -1.109375 0.796875 -1.84375q0.8125 -0.734375 2.390624 -0.734375q0.765625 0 1.90625 0.203125l0.34375 0.078125l0 1.390625q-1.390625 -0.421875 -2.234375 -0.421875q-0.796875 0 -1.203124 0.34375q-0.390625 0.34375 -0.390625 0.828125q0 0.375 0.265625 0.671875q0.265625 0.296875 0.95312405 0.59375l0.8125 0.34375q1.609375 0.6875 2.046875 1.34375q0.4375 0.671875 0.4375 1.453125q0 0.765625 -0.40625 1.40625q-0.40625 0.640625 -1.21875 1.015625q-0.796875 0.359375 -1.765625 0.359375q-1.140624 0 -2.781249 -0.546875zm13.2707815 0.328125q-0.78125 0.21875 -1.34375 0.21875q-1.234375 0 -1.96875 -0.71875q-0.71875 -0.71875 -0.71875 -2.03125l0 -5.40625l-1.15625 0l0 -1.25l1.15625 0l0 -1.671875l1.671875 -0.15625l0 1.828125l2.390625 0l0 1.25l-2.390625 0l0 5.09375q0 0.96875 0.359375 1.390625q0.375 0.40625 1.1875 0.40625q0.328125 0 0.8125 -0.109375l0 1.15625zm8.278002 0l0 -1.71875q-0.5 0.953125 -1.265625 1.453125q-0.765625 0.484375 -1.796875 0.484375q-1.6875019 0 -2.625002 -1.25q-0.9375 -1.25 -0.9375 -3.28125q0 -2.171875 1.046875 -3.625q1.046875 -1.453125 2.875002 -1.453125q0.53125 0 1.015625 0.125q0.484375 0.125 0.859375 0.359375q0.375 0.234375 0.828125 0.765625l0 -5.218749l1.671875 0l0 13.359374l-1.671875 0zm0 -7.0q-0.859375 -0.765625 -1.375 -0.953125q-0.5 -0.1875 -1.078125 -0.1875q-1.2187519 0 -1.8125019 1.03125q-0.578125 1.015625 -0.578125 2.640625q0 1.484375 0.515625 2.359375q0.515625 0.859375 1.6093769 0.859375q0.703125 0 1.375 -0.375q0.6875 -0.390625 1.34375 -1.140625l0 -4.234375zm5.2499847 7.0l0 -1.671875l1.671875 0l0 1.671875l-1.671875 0zm0 -7.515625l0 -1.671875l1.671875 0l0 1.671875l-1.671875 0zm5.482727 7.515625l0 -1.671875l1.671875 0l0 1.671875l-1.671875 0zm0 -7.515625l0 -1.671875l1.671875 0l0 1.671875l-1.671875 0zm7.154602 7.515625l-3.421875 -9.1875l1.65625 0l2.6875 7.140625l2.8125 -7.140625l1.546875 0l-3.625 9.1875l-1.65625 0zm13.796783 -0.296875q-1.6875 0.515625 -2.875 0.515625q-2.140625 0 -3.375 -1.4375q-1.21875 -1.453125 -1.21875 -3.421875q0 -1.296875 0.53125 -2.453125q0.546875 -1.171875 1.421875 -1.734375q0.890625 -0.578125 2.0625 -0.578125q1.59375 0 2.53125 1.15625q0.953125 1.140625 0.953125 3.40625l0 0.515625l-5.796875 0q0.140625 1.21875 0.515625 1.875q0.390625 0.65625 1.03125 1.03125q0.65625 0.359375 1.65625 0.359375q0.515625 0 1.015625 -0.078125q0.5 -0.09375 1.546875 -0.46875l0 1.3125zm-5.6875 -5.28125l4.046875 0q0 -1.390625 -0.546875 -1.96875q-0.53125 -0.59375 -1.359375 -0.59375q-0.953125 0 -1.5 0.640625q-0.53125 0.625 -0.640625 1.921875zm14.982132 5.296875q-1.609375 0.5 -2.796875 0.5q-1.21875 0 -2.25 -0.65625q-1.015625 -0.671875 -1.546875 -1.75q-0.515625 -1.09375 -0.515625 -2.453125q0 -2.03125 1.125 -3.390625q1.125 -1.359375 3.484375 -1.359375q1.078125 0 2.390625 0.296875l0 1.390625q-1.40625 -0.40625 -2.296875 -0.40625q-1.40625 0 -2.125 1.046875q-0.703125 1.03125 -0.703125 2.46875q0 1.546875 0.796875 2.5q0.8125 0.953125 2.078125 0.953125q1.15625 0 2.359375 -0.578125l0 1.4375zm6.594345 0.28125q-0.78125 0.21875 -1.34375 0.21875q-1.234375 0 -1.96875 -0.71875q-0.71875 -0.71875 -0.71875 -2.03125l0 -5.40625l-1.15625 0l0 -1.25l1.15625 0l0 -1.671875l1.671875 -0.15625l0 1.828125l2.390625 0l0 1.25l-2.390625 0l0 5.09375q0 0.96875 0.359375 1.390625q0.375 0.40625 1.1875 0.40625q0.328125 0 0.8125 -0.109375l0 1.15625zm6.043625 0.21875q-1.3125 0 -2.28125 -0.53125q-0.96875 -0.546875 -1.546875 -1.703125q-0.5625 -1.15625 -0.5625 -2.578125q0 -1.34375 0.515625 -2.484375q0.515625 -1.140625 1.5 -1.71875q0.984375 -0.59375 2.375 -0.59375q1.3125 0 2.28125 0.53125q0.96875 0.53125 1.53125 1.703125q0.5625 1.15625 0.5625 2.5625q0 1.359375 -0.53125 2.5q-0.515625 1.140625 -1.5 1.734375q-0.96875 0.578125 -2.34375 0.578125zm0 -1.265625q1.234375 0 1.921875 -0.921875q0.6875 -0.921875 0.6875 -2.625q0 -1.703125 -0.6875 -2.625q-0.6875 -0.921875 -1.921875 -0.921875q-1.234375 0 -1.921875 0.921875q-0.6875 0.921875 -0.6875 2.625q0 1.703125 0.6875 2.625q0.6875 0.921875 1.921875 0.921875zm6.987686 1.046875l0 -9.1875l1.65625 0l0 1.71875q0.484375 -0.921875 1.234375 -1.421875q0.765625 -0.5 1.640625 -0.5q0.265625 0 0.546875 0.046875l0 1.546875q-0.421875 -0.140625 -0.765625 -0.140625q-0.796875 0 -1.46875 0.46875q-0.65625 0.46875 -1.1875 1.40625l0 6.0625l-1.65625 0zm15.496567 -0.421875l-9.1875 -4.59375l9.1875 -4.59375l0 1.46875l-6.390625 3.125l6.390625 3.140625l0 1.453125zm2.5507507 0.421875l0 -9.1875l1.65625 0l0 9.1875l-1.65625 0zm0 -10.859375l0 -1.656249l1.65625 0l0 1.656249l-1.65625 0zm5.008911 10.859375l0 -9.1875l1.65625 0l0 1.71875q0.640625 -0.921875 1.484375 -1.421875q0.84375 -0.5 1.75 -0.5q1.15625 0 1.890625 0.75q0.734375 0.734375 0.734375 2.046875l0 6.59375l-1.671875 0l0 -6.0625q0 -0.953125 -0.171875 -1.25q-0.171875 -0.3125 -0.484375 -0.46875q-0.296875 -0.171875 -0.640625 -0.171875q-0.625 0 -1.34375 0.390625q-0.703125 0.375 -1.546875 1.609375l0 5.953125l-1.65625 0zm14.847687 0q-0.78125 0.21875 -1.34375 0.21875q-1.234375 0 -1.96875 -0.71875q-0.71875 -0.71875 -0.71875 -2.03125l0 -5.40625l-1.15625 0l0 -1.25l1.15625 0l0 -1.671875l1.671875 -0.15625l0 1.828125l2.390625 0l0 1.25l-2.390625 0l0 5.09375q0 0.96875 0.359375 1.390625q0.375 0.40625 1.1875 0.40625q0.328125 0 0.8125 -0.109375l0 1.15625zm1.6061249 -9.609375l9.1875 4.59375l-9.1875 4.59375l0 -1.453125l6.390625 -3.140625l-6.390625 -3.125l0 -1.46875zm11.972626 9.609375l0 -1.671875l1.671875 0l0 1.671875l-1.671875 0zm0 -7.515625l0 -1.671875l1.671875 0l0 1.671875l-1.671875 0zm5.482727 7.515625l0 -1.671875l1.671875 0l0 1.671875l-1.671875 0zm0 -7.515625l0 -1.671875l1.671875 0l0 1.671875l-1.671875 0zm5.248352 7.515625l0 -9.1875l1.65625 0l0 9.1875l-1.65625 0zm0 -10.859375l0 -1.656249l1.65625 0l0 1.656249l-1.65625 0zm9.102661 10.859375q-0.78125 0.21875 -1.34375 0.21875q-1.234375 0 -1.96875 -0.71875q-0.71875 -0.71875 -0.71875 -2.03125l0 -5.40625l-1.15625 0l0 -1.25l1.15625 0l0 -1.671875l1.671875 -0.15625l0 1.828125l2.390625 0l0 1.25l-2.390625 0l0 5.09375q0 0.96875 0.359375 1.390625q0.375 0.40625 1.1875 0.40625q0.328125 0 0.8125 -0.109375l0 1.15625zm9.12175 -0.296875q-1.6875 0.515625 -2.875 0.515625q-2.140625 0 -3.375 -1.4375q-1.21875 -1.453125 -1.21875 -3.421875q0 -1.296875 0.53125 -2.453125q0.546875 -1.171875 1.421875 -1.734375q0.890625 -0.578125 2.0625 -0.578125q1.59375 0 2.53125 1.15625q0.953125 1.140625 0.953125 3.40625l0 0.515625l-5.796875 0q0.140625 1.21875 0.515625 1.875q0.390625 0.65625 1.03125 1.03125q0.65625 0.359375 1.65625 0.359375q0.515625 0 1.015625 -0.078125q0.5 -0.09375 1.546875 -0.46875l0 1.3125zm-5.6875 -5.28125l4.046875 0q0 -1.390625 -0.546875 -1.96875q-0.53125 -0.59375 -1.359375 -0.59375q-0.953125 0 -1.5 0.640625q-0.53125 0.625 -0.640625 1.921875zm8.607132 5.578125l0 -9.1875l1.65625 0l0 1.71875q0.484375 -0.921875 1.234375 -1.421875q0.765625 -0.5 1.640625 -0.5q0.265625 0 0.546875 0.046875l0 1.546875q-0.421875 -0.140625 -0.765625 -0.140625q-0.796875 0 -1.46875 0.46875q-0.65625 0.46875 -1.1875 1.40625l0 6.0625l-1.65625 0zm11.824692 -1.171875q-0.75 0.6875 -1.46875 1.046875q-0.71875 0.34375 -1.421875 0.34375q-0.96875 0 -1.8125 -0.640625q-0.828125 -0.65625 -0.828125 -1.890625q0 -1.34375 1.15625 -2.234375q1.171875 -0.890625 3.734375 -0.890625l0.390625 0l0 -1.109375q0 -0.65625 -0.1875 -0.953125q-0.171875 -0.296875 -0.546875 -0.46875q-0.375 -0.171875 -0.921875 -0.171875q-1.296875 0 -2.828125 0.8125l0 -1.375q1.671875 -0.6875 3.171875 -0.6875q0.8125 0 1.484375 0.265625q0.6875 0.25 1.09375 0.8125q0.40625 0.546875 0.40625 1.765625l0 4.171875q0 0.6875 0.109375 0.9375q0.109375 0.234375 0.296875 0.359375q0.203125 0.125 0.46875 0.125q0.109375 0 0.328125 -0.03125l0.109375 0.921875q-0.5625 0.28125 -1.25 0.28125q-0.453125 0 -0.875 -0.296875q-0.421875 -0.296875 -0.609375 -1.09375zm-0.25 -0.90625l0 -2.375l-0.53125 -0.015625q-1.3125 0 -2.203125 0.515625q-0.890625 0.5 -0.890625 1.375q0 0.59375 0.4375 1.015625q0.4375 0.40625 1.03125 0.40625q0.515625 0 1.046875 -0.21875q0.546875 -0.234375 1.109375 -0.703125zm9.178772 2.078125q-0.78125 0.21875 -1.34375 0.21875q-1.234375 0 -1.96875 -0.71875q-0.71875 -0.71875 -0.71875 -2.03125l0 -5.40625l-1.15625 0l0 -1.25l1.15625 0l0 -1.671875l1.671875 -0.15625l0 1.828125l2.390625 0l0 1.25l-2.390625 0l0 5.09375q0 0.96875 0.359375 1.390625q0.375 0.40625 1.1875 0.40625q0.328125 0 0.8125 -0.109375l0 1.15625zm6.043625 0.21875q-1.3125 0 -2.28125 -0.53125q-0.96875 -0.546875 -1.546875 -1.703125q-0.5625 -1.15625 -0.5625 -2.578125q0 -1.34375 0.515625 -2.484375q0.515625 -1.140625 1.5 -1.71875q0.984375 -0.59375 2.375 -0.59375q1.3125 0 2.28125 0.53125q0.96875 0.53125 1.53125 1.703125q0.5625 1.15625 0.5625 2.5625q0 1.359375 -0.53125 2.5q-0.515625 1.140625 -1.5 1.734375q-0.96875 0.578125 -2.34375 0.578125zm0 -1.265625q1.234375 0 1.921875 -0.921875q0.6875 -0.921875 0.6875 -2.625q0 -1.703125 -0.6875 -2.625q-0.6875 -0.921875 -1.921875 -0.921875q-1.234375 0 -1.921875 0.921875q-0.6875 0.921875 -0.6875 2.625q0 1.703125 0.6875 2.625q0.6875 0.921875 1.921875 0.921875zm6.987686 1.046875l0 -9.1875l1.65625 0l0 1.71875q0.484375 -0.921875 1.234375 -1.421875q0.765625 -0.5 1.640625 -0.5q0.265625 0 0.546875 0.046875l0 1.546875q-0.421875 -0.140625 -0.765625 -0.140625q-0.796875 0 -1.46875 0.46875q-0.65625 0.46875 -1.1875 1.40625l0 6.0625l-1.65625 0zm12.573044 0l0 -9.1875l1.65625 0l0 9.1875l-1.65625 0zm0 -10.859375l0 -1.656249l1.65625 0l0 1.656249l-1.65625 0zm9.102661 10.859375q-0.78125 0.21875 -1.34375 0.21875q-1.234375 0 -1.96875 -0.71875q-0.71875 -0.71875 -0.71875 -2.03125l0 -5.40625l-1.15625 0l0 -1.25l1.15625 0l0 -1.671875l1.671875 -0.15625l0 1.828125l2.390625 0l0 1.25l-2.390625 0l0 5.09375q0 0.96875 0.359375 1.390625q0.375 0.40625 1.1875 0.40625q0.328125 0 0.8125 -0.109375l0 1.15625zm2.6217499 2.71875l0 -0.625q0.3125 -0.171875 0.453125 -0.546875q0.140625 -0.375 0.140625 -1.359375l0 -0.1875l-0.59375 0l0 -1.671875l1.671875 0l0 1.40625q0 1.09375 -0.1875 1.578125q-0.1875 0.5 -0.59375 0.890625q-0.40625 0.390625 -0.890625 0.515625zm0 -10.234375l0 -1.671875l1.671875 0l0 1.671875l-1.671875 0z" fill-rule="nonzero"/><path fill="#000000" d="m13.560409 48.28248l0 -1.53125q1.640625 0.8125 2.843749 0.8125q0.703125 0 1.1875 -0.375q0.484375 -0.390625 0.484375 -0.984375q0 -0.359375 -0.25 -0.703125q-0.234375 -0.34375 -1.078125 -0.703125l-0.98437405 -0.421875q-1.125 -0.46875 -1.640625 -1.078125q-0.515625 -0.609375 -0.515625 -1.5q0 -1.109375 0.796875 -1.84375q0.8125 -0.734375 2.390624 -0.734375q0.765625 0 1.90625 0.203125l0.34375 0.078125l0 1.390625q-1.390625 -0.421875 -2.234375 -0.421875q-0.796875 0 -1.203124 0.34375q-0.390625 0.34375 -0.390625 0.828125q0 0.375 0.265625 0.671875q0.265625 0.296875 0.95312405 0.59375l0.8125 0.34375q1.609375 0.6875 2.046875 1.34375q0.4375 0.671875 0.4375 1.453125q0 0.765625 -0.40625 1.40625q-0.40625 0.640625 -1.21875 1.015625q-0.796875 0.359375 -1.765625 0.359375q-1.140624 0 -2.781249 -0.546875zm13.2707815 0.328125q-0.78125 0.21875 -1.34375 0.21875q-1.234375 0 -1.96875 -0.71875q-0.71875 -0.71875 -0.71875 -2.03125l0 -5.40625l-1.15625 0l0 -1.25l1.15625 0l0 -1.671875l1.671875 -0.15625l0 1.828125l2.390625 0l0 1.25l-2.390625 0l0 5.09375q0 0.96875 0.359375 1.390625q0.375 0.40625 1.1875 0.40625q0.328125 0 0.8125 -0.109375l0 1.15625zm8.278002 0l0 -1.71875q-0.5 0.953125 -1.265625 1.453125q-0.765625 0.484375 -1.796875 0.484375q-1.6875019 0 -2.625002 -1.25q-0.9375 -1.25 -0.9375 -3.28125q0 -2.171875 1.046875 -3.625q1.046875 -1.453125 2.875002 -1.453125q0.53125 0 1.015625 0.125q0.484375 0.125 0.859375 0.359375q0.375 0.234375 0.828125 0.765625l0 -5.21875l1.671875 0l0 13.359375l-1.671875 0zm0 -7.0q-0.859375 -0.765625 -1.375 -0.953125q-0.5 -0.1875 -1.078125 -0.1875q-1.2187519 0 -1.8125019 1.03125q-0.578125 1.015625 -0.578125 2.640625q0 1.484375 0.515625 2.359375q0.515625 0.859375 1.6093769 0.859375q0.703125 0 1.375 -0.375q0.6875 -0.390625 1.34375 -1.140625l0 -4.234375zm5.2499847 7.0l0 -1.671875l1.671875 0l0 1.671875l-1.671875 0zm0 -7.515625l0 -1.671875l1.671875 0l0 1.671875l-1.671875 0zm5.482727 7.515625l0 -1.671875l1.671875 0l0 1.671875l-1.671875 0zm0 -7.515625l0 -1.671875l1.671875 0l0 1.671875l-1.671875 0zm5.248352 7.515625l0 -9.1875l1.65625 0l0 1.71875q0.484375 -0.921875 1.234375 -1.421875q0.765625 -0.5 1.640625 -0.5q0.265625 0 0.546875 0.046875l0 1.546875q-0.421875 -0.140625 -0.765625 -0.140625q-0.796875 0 -1.46875 0.46875q-0.65625 0.46875 -1.1875 1.40625l0 6.0625l-1.65625 0zm13.824692 -0.296875q-1.6875 0.515625 -2.875 0.515625q-2.140625 0 -3.375 -1.4375q-1.21875 -1.453125 -1.21875 -3.421875q0 -1.296875 0.53125 -2.453125q0.546875 -1.171875 1.421875 -1.734375q0.890625 -0.578125 2.0625 -0.578125q1.59375 0 2.53125 1.15625q0.953125 1.140625 0.953125 3.40625l0 0.515625l-5.796875 0q0.140625 1.21875 0.515625 1.875q0.390625 0.65625 1.03125 1.03125q0.65625 0.359375 1.65625 0.359375q0.515625 0 1.015625 -0.078125q0.5 -0.09375 1.546875 -0.46875l0 1.3125zm-5.6875 -5.28125l4.046875 0q0 -1.390625 -0.546875 -1.96875q-0.53125 -0.59375 -1.359375 -0.59375q-0.953125 0 -1.5 0.640625q-0.53125 0.625 -0.640625 1.921875zm10.513382 5.578125l-3.421875 -9.1875l1.65625 0l2.6875 7.140625l2.8125 -7.140625l1.546875 0l-3.625 9.1875l-1.65625 0zm13.796783 -0.296875q-1.6875 0.515625 -2.875 0.515625q-2.140625 0 -3.375 -1.4375q-1.21875 -1.453125 -1.21875 -3.421875q0 -1.296875 0.53125 -2.453125q0.546875 -1.171875 1.421875 -1.734375q0.890625 -0.578125 2.0625 -0.578125q1.59375 0 2.53125 1.15625q0.953125 1.140625 0.953125 3.40625l0 0.515625l-5.796875 0q0.140625 1.21875 0.515625 1.875q0.390625 0.65625 1.03125 1.03125q0.65625 0.359375 1.65625 0.359375q0.515625 0 1.015625 -0.078125q0.5 -0.09375 1.546875 -0.46875l0 1.3125zm-5.6875 -5.28125l4.046875 0q0 -1.390625 -0.546875 -1.96875q-0.53125 -0.59375 -1.359375 -0.59375q-0.953125 0 -1.5 0.640625q-0.53125 0.625 -0.640625 1.921875zm8.607132 5.578125l0 -9.1875l1.65625 0l0 1.71875q0.484375 -0.921875 1.234375 -1.421875q0.765625 -0.5 1.640625 -0.5q0.265625 0 0.546875 0.046875l0 1.546875q-0.421875 -0.140625 -0.765625 -0.140625q-0.796875 0 -1.46875 0.46875q-0.65625 0.46875 -1.1875 1.40625l0 6.0625l-1.65625 0zm6.746567 -0.328125l0 -1.53125q1.640625 0.8125 2.84375 0.8125q0.703125 0 1.1875 -0.375q0.484375 -0.390625 0.484375 -0.984375q0 -0.359375 -0.25 -0.703125q-0.234375 -0.34375 -1.078125 -0.703125l-0.984375 -0.421875q-1.125 -0.46875 -1.640625 -1.078125q-0.515625 -0.609375 -0.515625 -1.5q0 -1.109375 0.796875 -1.84375q0.8125 -0.734375 2.390625 -0.734375q0.765625 0 1.90625 0.203125l0.34375 0.078125l0 1.390625q-1.390625 -0.421875 -2.234375 -0.421875q-0.796875 0 -1.203125 0.34375q-0.390625 0.34375 -0.390625 0.828125q0 0.375 0.265625 0.671875q0.265625 0.296875 0.953125 0.59375l0.8125 0.34375q1.609375 0.6875 2.046875 1.34375q0.4375 0.671875 0.4375 1.453125q0 0.765625 -0.40625 1.40625q-0.40625 0.640625 -1.21875 1.015625q-0.796875 0.359375 -1.765625 0.359375q-1.140625 0 -2.78125 -0.546875zm15.911407 0.03125q-1.6875 0.515625 -2.875 0.515625q-2.140625 0 -3.375 -1.4375q-1.21875 -1.453125 -1.21875 -3.421875q0 -1.296875 0.53125 -2.453125q0.546875 -1.171875 1.421875 -1.734375q0.890625 -0.578125 2.0625 -0.578125q1.59375 0 2.53125 1.15625q0.953125 1.140625 0.953125 3.40625l0 0.515625l-5.796875 0q0.140625 1.21875 0.515625 1.875q0.390625 0.65625 1.03125 1.03125q0.65625 0.359375 1.65625 0.359375q0.515625 0 1.015625 -0.078125q0.5 -0.09375 1.546875 -0.46875l0 1.3125zm-5.6875 -5.28125l4.046875 0q0 -1.390625 -0.546875 -1.96875q-0.53125 -0.59375 -1.359375 -0.59375q-0.953125 0 -1.5 0.640625q-0.53125 0.625 -0.640625 1.921875zm7.669632 6.828125l0 -1.25l7.1875 0l0 1.25l-7.1875 0zm9.6015625 -1.25l0 -9.1875l1.65625 0l0 9.1875l-1.65625 0zm0 -10.859375l0 -1.65625l1.65625 0l0 1.65625l-1.65625 0zm9.102661 10.859375q-0.78125 0.21875 -1.34375 0.21875q-1.234375 0 -1.96875 -0.71875q-0.71875 -0.71875 -0.71875 -2.03125l0 -5.40625l-1.15625 0l0 -1.25l1.15625 0l0 -1.671875l1.671875 -0.15625l0 1.828125l2.390625 0l0 1.25l-2.390625 0l0 5.09375q0 0.96875 0.359375 1.390625q0.375 0.40625 1.1875 0.40625q0.328125 0 0.8125 -0.109375l0 1.15625zm9.12175 -0.296875q-1.6875 0.515625 -2.875 0.515625q-2.140625 0 -3.375 -1.4375q-1.21875 -1.453125 -1.21875 -3.421875q0 -1.296875 0.53125 -2.453125q0.546875 -1.171875 1.421875 -1.734375q0.890625 -0.578125 2.0625 -0.578125q1.59375 0 2.53125 1.15625q0.953125 1.140625 0.953125 3.40625l0 0.515625l-5.796875 0q0.140625 1.21875 0.515625 1.875q0.390625 0.65625 1.03125 1.03125q0.65625 0.359375 1.65625 0.359375q0.515625 0 1.015625 -0.078125q0.5 -0.09375 1.546875 -0.46875l0 1.3125zm-5.6875 -5.28125l4.046875 0q0 -1.390625 -0.546875 -1.96875q-0.53125 -0.59375 -1.359375 -0.59375q-0.953125 0 -1.5 0.640625q-0.53125 0.625 -0.640625 1.921875zm8.607132 5.578125l0 -9.1875l1.65625 0l0 1.71875q0.484375 -0.921875 1.234375 -1.421875q0.765625 -0.5 1.640625 -0.5q0.265625 0 0.546875 0.046875l0 1.546875q-0.421875 -0.140625 -0.765625 -0.140625q-0.796875 0 -1.46875 0.46875q-0.65625 0.46875 -1.1875 1.40625l0 6.0625l-1.65625 0zm11.824692 -1.171875q-0.75 0.6875 -1.46875 1.046875q-0.71875 0.34375 -1.421875 0.34375q-0.96875 0 -1.8125 -0.640625q-0.828125 -0.65625 -0.828125 -1.890625q0 -1.34375 1.15625 -2.234375q1.171875 -0.890625 3.734375 -0.890625l0.390625 0l0 -1.109375q0 -0.65625 -0.1875 -0.953125q-0.171875 -0.296875 -0.546875 -0.46875q-0.375 -0.171875 -0.921875 -0.171875q-1.296875 0 -2.828125 0.8125l0 -1.375q1.671875 -0.6875 3.171875 -0.6875q0.8125 0 1.484375 0.265625q0.6875 0.25 1.09375 0.8125q0.40625 0.546875 0.40625 1.765625l0 4.171875q0 0.6875 0.109375 0.9375q0.109375 0.234375 0.296875 0.359375q0.203125 0.125 0.46875 0.125q0.109375 0 0.328125 -0.03125l0.109375 0.921875q-0.5625 0.28125 -1.25 0.28125q-0.453125 0 -0.875 -0.296875q-0.421875 -0.296875 -0.609375 -1.09375zm-0.25 -0.90625l0 -2.375l-0.53125 -0.015625q-1.3125 0 -2.203125 0.515625q-0.890625 0.5 -0.890625 1.375q0 0.59375 0.4375 1.015625q0.4375 0.40625 1.03125 0.40625q0.515625 0 1.046875 -0.21875q0.546875 -0.234375 1.109375 -0.703125zm9.178772 2.078125q-0.78125 0.21875 -1.34375 0.21875q-1.234375 0 -1.96875 -0.71875q-0.71875 -0.71875 -0.71875 -2.03125l0 -5.40625l-1.15625 0l0 -1.25l1.15625 0l0 -1.671875l1.671875 -0.15625l0 1.828125l2.390625 0l0 1.25l-2.390625 0l0 5.09375q0 0.96875 0.359375 1.390625q0.375 0.40625 1.1875 0.40625q0.328125 0 0.8125 -0.109375l0 1.15625zm6.043625 0.21875q-1.3125 0 -2.28125 -0.53125q-0.96875 -0.546875 -1.546875 -1.703125q-0.5625 -1.15625 -0.5625 -2.578125q0 -1.34375 0.515625 -2.484375q0.515625 -1.140625 1.5 -1.71875q0.984375 -0.59375 2.375 -0.59375q1.3125 0 2.28125 0.53125q0.96875 0.53125 1.53125 1.703125q0.5625 1.15625 0.5625 2.5625q0 1.359375 -0.53125 2.5q-0.515625 1.140625 -1.5 1.734375q-0.96875 0.578125 -2.34375 0.578125zm0 -1.265625q1.234375 0 1.921875 -0.921875q0.6875 -0.921875 0.6875 -2.625q0 -1.703125 -0.6875 -2.625q-0.6875 -0.921875 -1.921875 -0.921875q-1.234375 0 -1.921875 0.921875q-0.6875 0.921875 -0.6875 2.625q0 1.703125 0.6875 2.625q0.6875 0.921875 1.921875 0.921875zm6.987686 1.046875l0 -9.1875l1.65625 0l0 1.71875q0.484375 -0.921875 1.234375 -1.421875q0.765625 -0.5 1.640625 -0.5q0.265625 0 0.546875 0.046875l0 1.546875q-0.421875 -0.140625 -0.765625 -0.140625q-0.796875 0 -1.46875 0.46875q-0.65625 0.46875 -1.1875 1.40625l0 6.0625l-1.65625 0zm15.496567 -0.421875l-9.1875 -4.59375l9.1875 -4.59375l0 1.46875l-6.390625 3.125l6.390625 3.140625l0 1.453125zm2.2070007 0.09375l0 -1.53125q1.640625 0.8125 2.84375 0.8125q0.703125 0 1.1875 -0.375q0.484375 -0.390625 0.484375 -0.984375q0 -0.359375 -0.25 -0.703125q-0.234375 -0.34375 -1.078125 -0.703125l-0.984375 -0.421875q-1.125 -0.46875 -1.640625 -1.078125q-0.515625 -0.609375 -0.515625 -1.5q0 -1.109375 0.796875 -1.84375q0.8125 -0.734375 2.390625 -0.734375q0.765625 0 1.90625 0.203125l0.34375 0.078125l0 1.390625q-1.390625 -0.421875 -2.234375 -0.421875q-0.796875 0 -1.203125 0.34375q-0.390625 0.34375 -0.390625 0.828125q0 0.375 0.265625 0.671875q0.265625 0.296875 0.953125 0.59375l0.8125 0.34375q1.609375 0.6875 2.046875 1.34375q0.4375 0.671875 0.4375 1.453125q0 0.765625 -0.40625 1.40625q-0.40625 0.640625 -1.21875 1.015625q-0.796875 0.359375 -1.765625 0.359375q-1.140625 0 -2.78125 -0.546875zm13.270782 0.328125q-0.78125 0.21875 -1.34375 0.21875q-1.234375 0 -1.96875 -0.71875q-0.71875 -0.71875 -0.71875 -2.03125l0 -5.40625l-1.15625 0l0 -1.25l1.15625 0l0 -1.671875l1.671875 -0.15625l0 1.828125l2.390625 0l0 1.25l-2.390625 0l0 5.09375q0 0.96875 0.359375 1.390625q0.375 0.40625 1.1875 0.40625q0.328125 0 0.8125 -0.109375l0 1.15625zm8.278 0l0 -1.71875q-0.5 0.953125 -1.265625 1.453125q-0.765625 0.484375 -1.796875 0.484375q-1.6875 0 -2.625 -1.25q-0.9375 -1.25 -0.9375 -3.28125q0 -2.171875 1.046875 -3.625q1.046875 -1.453125 2.875 -1.453125q0.53125 0 1.015625 0.125q0.484375 0.125 0.859375 0.359375q0.375 0.234375 0.828125 0.765625l0 -5.21875l1.671875 0l0 13.359375l-1.671875 0zm0 -7.0q-0.859375 -0.765625 -1.375 -0.953125q-0.5 -0.1875 -1.078125 -0.1875q-1.21875 0 -1.8125 1.03125q-0.578125 1.015625 -0.578125 2.640625q0 1.484375 0.515625 2.359375q0.515625 0.859375 1.609375 0.859375q0.703125 0 1.375 -0.375q0.6875 -0.390625 1.34375 -1.140625l0 -4.234375zm5.2499847 7.0l0 -1.671875l1.671875 0l0 1.671875l-1.671875 0zm0 -7.515625l0 -1.671875l1.671875 0l0 1.671875l-1.671875 0zm5.482727 7.515625l0 -1.671875l1.671875 0l0 1.671875l-1.671875 0zm0 -7.515625l0 -1.671875l1.671875 0l0 1.671875l-1.671875 0zm7.154602 7.515625l-3.421875 -9.1875l1.65625 0l2.6875 7.140625l2.8125 -7.140625l1.546875 0l-3.625 9.1875l-1.65625 0zm13.796783 -0.296875q-1.6875 0.515625 -2.875 0.515625q-2.140625 0 -3.375 -1.4375q-1.21875 -1.453125 -1.21875 -3.421875q0 -1.296875 0.53125 -2.453125q0.546875 -1.171875 1.421875 -1.734375q0.890625 -0.578125 2.0625 -0.578125q1.59375 0 2.53125 1.15625q0.953125 1.140625 0.953125 3.40625l0 0.515625l-5.796875 0q0.140625 1.21875 0.515625 1.875q0.390625 0.65625 1.03125 1.03125q0.65625 0.359375 1.65625 0.359375q0.515625 0 1.015625 -0.078125q0.5 -0.09375 1.546875 -0.46875l0 1.3125zm-5.6875 -5.28125l4.046875 0q0 -1.390625 -0.546875 -1.96875q-0.53125 -0.59375 -1.359375 -0.59375q-0.953125 0 -1.5 0.640625q-0.53125 0.625 -0.640625 1.921875zm14.982132 5.296875q-1.609375 0.5 -2.796875 0.5q-1.21875 0 -2.25 -0.65625q-1.015625 -0.671875 -1.546875 -1.75q-0.515625 -1.09375 -0.515625 -2.453125q0 -2.03125 1.125 -3.390625q1.125 -1.359375 3.484375 -1.359375q1.078125 0 2.390625 0.296875l0 1.390625q-1.40625 -0.40625 -2.296875 -0.40625q-1.40625 0 -2.125 1.046875q-0.703125 1.03125 -0.703125 2.46875q0 1.546875 0.796875 2.5q0.8125 0.953125 2.078125 0.953125q1.15625 0 2.359375 -0.578125l0 1.4375zm6.594345 0.28125q-0.78125 0.21875 -1.34375 0.21875q-1.234375 0 -1.96875 -0.71875q-0.71875 -0.71875 -0.71875 -2.03125l0 -5.40625l-1.15625 0l0 -1.25l1.15625 0l0 -1.671875l1.671875 -0.15625l0 1.828125l2.390625 0l0 1.25l-2.390625 0l0 5.09375q0 0.96875 0.359375 1.390625q0.375 0.40625 1.1875 0.40625q0.328125 0 0.8125 -0.109375l0 1.15625zm6.0436096 0.21875q-1.3125 0 -2.28125 -0.53125q-0.96875 -0.546875 -1.546875 -1.703125q-0.5625 -1.15625 -0.5625 -2.578125q0 -1.34375 0.515625 -2.484375q0.515625 -1.140625 1.5 -1.71875q0.984375 -0.59375 2.375 -0.59375q1.3125 0 2.28125 0.53125q0.96875 0.53125 1.53125 1.703125q0.5625 1.15625 0.5625 2.5625q0 1.359375 -0.53125 2.5q-0.515625 1.140625 -1.5 1.734375q-0.96875 0.578125 -2.34375 0.578125zm0 -1.265625q1.234375 0 1.921875 -0.921875q0.6875 -0.921875 0.6875 -2.625q0 -1.703125 -0.6875 -2.625q-0.6875 -0.921875 -1.921875 -0.921875q-1.234375 0 -1.921875 0.921875q-0.6875 0.921875 -0.6875 2.625q0 1.703125 0.6875 2.625q0.6875 0.921875 1.921875 0.921875zm6.9877014 1.046875l0 -9.1875l1.65625 0l0 1.71875q0.484375 -0.921875 1.234375 -1.421875q0.765625 -0.5 1.640625 -0.5q0.265625 0 0.546875 0.046875l0 1.546875q-0.421875 -0.140625 -0.765625 -0.140625q-0.796875 0 -1.46875 0.46875q-0.65625 0.46875 -1.1875 1.40625l0 6.0625l-1.65625 0zm15.496582 -0.421875l-9.1875 -4.59375l9.1875 -4.59375l0 1.46875l-6.390625 3.125l6.390625 3.140625l0 1.453125zm2.5507507 0.421875l0 -9.1875l1.65625 0l0 9.1875l-1.65625 0zm0 -10.859375l0 -1.65625l1.65625 0l0 1.65625l-1.65625 0zm5.008911 10.859375l0 -9.1875l1.65625 0l0 1.71875q0.640625 -0.921875 1.484375 -1.421875q0.84375 -0.5 1.75 -0.5q1.15625 0 1.890625 0.75q0.734375 0.734375 0.734375 2.046875l0 6.59375l-1.671875 0l0 -6.0625q0 -0.953125 -0.171875 -1.25q-0.171875 -0.3125 -0.484375 -0.46875q-0.296875 -0.171875 -0.640625 -0.171875q-0.625 0 -1.34375 0.390625q-0.703125 0.375 -1.546875 1.609375l0 5.953125l-1.65625 0zm14.847687 0q-0.78125 0.21875 -1.34375 0.21875q-1.234375 0 -1.96875 -0.71875q-0.71875 -0.71875 -0.71875 -2.03125l0 -5.40625l-1.15625 0l0 -1.25l1.15625 0l0 -1.671875l1.671875 -0.15625l0 1.828125l2.390625 0l0 1.25l-2.390625 0l0 5.09375q0 0.96875 0.359375 1.390625q0.375 0.40625 1.1875 0.40625q0.328125 0 0.8125 -0.109375l0 1.15625zm1.6061401 -9.609375l9.1875 4.59375l-9.1875 4.59375l0 -1.453125l6.390625 -3.140625l-6.390625 -3.125l0 -1.46875zm11.972626 9.609375l0 -1.671875l1.671875 0l0 1.671875l-1.671875 0zm0 -7.515625l0 -1.671875l1.671875 0l0 1.671875l-1.671875 0zm5.482727 7.515625l0 -1.671875l1.671875 0l0 1.671875l-1.671875 0zm0 -7.515625l0 -1.671875l1.671875 0l0 1.671875l-1.671875 0zm5.248352 7.515625l0 -9.1875l1.65625 0l0 9.1875l-1.65625 0zm0 -10.859375l0 -1.65625l1.65625 0l0 1.65625l-1.65625 0zm9.102661 10.859375q-0.78125 0.21875 -1.34375 0.21875q-1.234375 0 -1.96875 -0.71875q-0.71875 -0.71875 -0.71875 -2.03125l0 -5.40625l-1.15625 0l0 -1.25l1.15625 0l0 -1.671875l1.671875 -0.15625l0 1.828125l2.390625 0l0 1.25l-2.390625 0l0 5.09375q0 0.96875 0.359375 1.390625q0.375 0.40625 1.1875 0.40625q0.328125 0 0.8125 -0.109375l0 1.15625zm9.121735 -0.296875q-1.6875 0.515625 -2.875 0.515625q-2.140625 0 -3.375 -1.4375q-1.21875 -1.453125 -1.21875 -3.421875q0 -1.296875 0.53125 -2.453125q0.546875 -1.171875 1.421875 -1.734375q0.890625 -0.578125 2.0625 -0.578125q1.59375 0 2.53125 1.15625q0.953125 1.140625 0.953125 3.40625l0 0.515625l-5.796875 0q0.140625 1.21875 0.515625 1.875q0.390625 0.65625 1.03125 1.03125q0.65625 0.359375 1.65625 0.359375q0.515625 0 1.015625 -0.078125q0.5 -0.09375 1.546875 -0.46875l0 1.3125zm-5.6875 -5.28125l4.046875 0q0 -1.390625 -0.546875 -1.96875q-0.53125 -0.59375 -1.359375 -0.59375q-0.953125 0 -1.5 0.640625q-0.53125 0.625 -0.640625 1.921875zm8.607117 5.578125l0 -9.1875l1.65625 0l0 1.71875q0.484375 -0.921875 1.234375 -1.421875q0.765625 -0.5 1.640625 -0.5q0.265625 0 0.546875 0.046875l0 1.546875q-0.421875 -0.140625 -0.765625 -0.140625q-0.796875 0 -1.46875 0.46875q-0.65625 0.46875 -1.1875 1.40625l0 6.0625l-1.65625 0zm11.824707 -1.171875q-0.75 0.6875 -1.46875 1.046875q-0.71875 0.34375 -1.421875 0.34375q-0.96875 0 -1.8125 -0.640625q-0.828125 -0.65625 -0.828125 -1.890625q0 -1.34375 1.15625 -2.234375q1.171875 -0.890625 3.734375 -0.890625l0.390625 0l0 -1.109375q0 -0.65625 -0.1875 -0.953125q-0.171875 -0.296875 -0.546875 -0.46875q-0.375 -0.171875 -0.921875 -0.171875q-1.296875 0 -2.828125 0.8125l0 -1.375q1.671875 -0.6875 3.171875 -0.6875q0.8125 0 1.484375 0.265625q0.6875 0.25 1.09375 0.8125q0.40625 0.546875 0.40625 1.765625l0 4.171875q0 0.6875 0.109375 0.9375q0.109375 0.234375 0.296875 0.359375q0.203125 0.125 0.46875 0.125q0.109375 0 0.328125 -0.03125l0.109375 0.921875q-0.5625 0.28125 -1.25 0.28125q-0.453125 0 -0.875 -0.296875q-0.421875 -0.296875 -0.609375 -1.09375zm-0.25 -0.90625l0 -2.375l-0.53125 -0.015625q-1.3125 0 -2.203125 0.515625q-0.890625 0.5 -0.890625 1.375q0 0.59375 0.4375 1.015625q0.4375 0.40625 1.03125 0.40625q0.515625 0 1.046875 -0.21875q0.546875 -0.234375 1.109375 -0.703125zm9.178772 2.078125q-0.78125 0.21875 -1.34375 0.21875q-1.234375 0 -1.96875 -0.71875q-0.71875 -0.71875 -0.71875 -2.03125l0 -5.40625l-1.15625 0l0 -1.25l1.15625 0l0 -1.671875l1.671875 -0.15625l0 1.828125l2.390625 0l0 1.25l-2.390625 0l0 5.09375q0 0.96875 0.359375 1.390625q0.375 0.40625 1.1875 0.40625q0.328125 0 0.8125 -0.109375l0 1.15625zm6.04364 0.21875q-1.3125 0 -2.28125 -0.53125q-0.96875 -0.546875 -1.546875 -1.703125q-0.5625 -1.15625 -0.5625 -2.578125q0 -1.34375 0.515625 -2.484375q0.515625 -1.140625 1.5 -1.71875q0.984375 -0.59375 2.375 -0.59375q1.3125 0 2.28125 0.53125q0.96875 0.53125 1.53125 1.703125q0.5625 1.15625 0.5625 2.5625q0 1.359375 -0.53125 2.5q-0.515625 1.140625 -1.5 1.734375q-0.96875 0.578125 -2.34375 0.578125zm0 -1.265625q1.234375 0 1.921875 -0.921875q0.6875 -0.921875 0.6875 -2.625q0 -1.703125 -0.6875 -2.625q-0.6875 -0.921875 -1.921875 -0.921875q-1.234375 0 -1.921875 0.921875q-0.6875 0.921875 -0.6875 2.625q0 1.703125 0.6875 2.625q0.6875 0.921875 1.921875 0.921875zm6.987671 1.046875l0 -9.1875l1.65625 0l0 1.71875q0.484375 -0.921875 1.234375 -1.421875q0.765625 -0.5 1.640625 -0.5q0.265625 0 0.546875 0.046875l0 1.546875q-0.421875 -0.140625 -0.765625 -0.140625q-0.796875 0 -1.46875 0.46875q-0.65625 0.46875 -1.1875 1.40625l0 6.0625l-1.65625 0zm6.309082 -9.609375l9.1875 4.59375l-9.1875 4.59375l0 -1.453125l6.390625 -3.140625l-6.390625 -3.125l0 -1.46875zm17.220978 9.609375l0 -9.1875l1.65625 0l0 1.71875q0.484375 -0.921875 1.234375 -1.421875q0.765625 -0.5 1.640625 -0.5q0.265625 0 0.546875 0.046875l0 1.546875q-0.421875 -0.140625 -0.765625 -0.140625q-0.796875 0 -1.46875 0.46875q-0.65625 0.46875 -1.1875 1.40625l0 6.0625l-1.65625 0zm7.0903015 0l0 -9.1875l1.65625 0l0 9.1875l-1.65625 0zm0 -10.859375l0 -1.65625l1.65625 0l0 1.65625l-1.65625 0zm9.102661 10.859375q-0.78125 0.21875 -1.34375 0.21875q-1.234375 0 -1.96875 -0.71875q-0.71875 -0.71875 -0.71875 -2.03125l0 -5.40625l-1.15625 0l0 -1.25l1.15625 0l0 -1.671875l1.671875 -0.15625l0 1.828125l2.390625 0l0 1.25l-2.390625 0l0 5.09375q0 0.96875 0.359375 1.390625q0.375 0.40625 1.1875 0.40625q0.328125 0 0.8125 -0.109375l0 1.15625zm5.73114 1.359375l0 1.140625q-1.390625 -0.9375 -2.25 -2.25q-0.84375 -1.296875 -1.28125 -2.765625q-0.4375 -1.484375 -0.4375 -2.921875q0 -1.421875 0.4375 -2.890625q0.4375 -1.484375 1.28125 -2.78125q0.859375 -1.3125 2.25 -2.25l0 1.15625q-0.96875 1.03125 -1.421875 2.015625q-0.453125 0.96875 -0.671875 2.1875q-0.21875 1.21875 -0.21875 2.5625q0 1.359375 0.21875 2.578125q0.21875 1.21875 0.671875 2.203125q0.453125 0.96875 1.421875 2.015625zm2.2912598 -1.359375l0 -9.1875l1.65625 0l0 9.1875l-1.65625 0zm0 -10.859375l0 -1.65625l1.65625 0l0 1.65625l-1.65625 0zm9.102661 10.859375q-0.78125 0.21875 -1.34375 0.21875q-1.234375 0 -1.96875 -0.71875q-0.71875 -0.71875 -0.71875 -2.03125l0 -5.40625l-1.15625 0l0 -1.25l1.15625 0l0 -1.671875l1.671875 -0.15625l0 1.828125l2.390625 0l0 1.25l-2.390625 0l0 5.09375q0 0.96875 0.359375 1.390625q0.375 0.40625 1.1875 0.40625q0.328125 0 0.8125 -0.109375l0 1.15625zm1.3405151 -12.203125l0 -1.15625q1.375 0.9375 2.234375 2.25q0.859375 1.296875 1.296875 2.78125q0.4375 1.484375 0.4375 2.890625q0 1.421875 -0.4375 2.90625q-0.4375 1.484375 -1.296875 2.796875q-0.859375 1.3125 -2.234375 2.234375l0 -1.140625q0.953125 -1.046875 1.40625 -2.015625q0.46875 -0.984375 0.671875 -2.203125q0.21875 -1.234375 0.21875 -2.578125q0 -1.328125 -0.21875 -2.546875q-0.203125 -1.234375 -0.671875 -2.203125q-0.453125 -0.984375 -1.40625 -2.015625zm6.91626 14.921875l0 -0.625q0.3125 -0.171875 0.453125 -0.546875q0.140625 -0.375 0.140625 -1.359375l0 -0.1875l-0.59375 0l0 -1.671875l1.671875 0l0 1.40625q0 1.09375 -0.1875 1.578125q-0.1875 0.5 -0.59375 0.890625q-0.40625 0.390625 -0.890625 0.515625zm0 -10.234375l0 -1.671875l1.671875 0l0 1.671875l-1.671875 0z" fill-rule="nonzero"/><path fill="#000000" fill-opacity="0.0" d="m239.06299 60.343834l95.40158 0l0 42.015747l-95.40158 0z" fill-rule="evenodd"/><path fill="#000000" d="m249.85986 87.26383l0 -9.890625l1.796875 0l0 9.890625l-1.796875 0zm0 -11.6875l0 -1.796875l1.796875 0l0 1.796875l-1.796875 0zm9.799072 11.6875q-0.828125 0.234375 -1.4375 0.234375q-1.328125 0 -2.109375 -0.765625q-0.78125 -0.78125 -0.78125 -2.203125l0 -5.8125l-1.25 0l0 -1.34375l1.25 0l0 -1.796875l1.78125 -0.171875l0 1.96875l2.59375 0l0 1.34375l-2.59375 0l0 5.484375q0 1.046875 0.40625 1.5q0.40625 0.4375 1.28125 0.4375q0.34375 0 0.859375 -0.109375l0 1.234375zm2.6028748 2.921875l0 -0.671875q0.28125 -0.078125 0.453125 -0.3125q0.171875 -0.21875 0.296875 -0.578125q0.125 -0.34375 0.125 -1.171875l0 -0.1875l-0.875 0l0 -2.25l2.25 0l0 1.953125q0 1.546875 -0.546875 2.328125q-0.53125 0.78125 -1.703125 0.890625zm17.555908 -14.65625l0.40625 1.28125l-2.75 0.59375l0.015625 -0.140625q0 -0.359375 -0.265625 -0.609375l2.59375 -1.125zm-0.5 4.09375l-1.09375 0.796875l-1.421875 -2.4375q0.171875 -0.015625 0.359375 -0.140625q0.1875 -0.140625 0.265625 -0.3125l1.890625 2.09375zm-4.0625 0.796875l-1.09375 -0.796875l1.875 -2.09375q0.078125 0.1875 0.265625 0.3125q0.203125 0.125 0.375 0.140625l-1.421875 2.4375zm-2.015625 -3.609375l0.421875 -1.28125l2.59375 1.125q-0.265625 0.234375 -0.265625 0.609375l0.015625 0.140625l-2.765625 -0.59375zm2.828125 -3.03125l1.34375 0l-0.28125 2.8125q-0.15625 -0.109375 -0.390625 -0.109375q-0.234375 0 -0.390625 0.109375l-0.28125 -2.8125zm6.959839 13.484375l0 -9.890625l1.796875 0l0 9.890625l-1.796875 0zm0 -11.6875l0 -1.796875l1.796875 0l0 1.796875l-1.796875 0zm9.799072 11.6875q-0.828125 0.234375 -1.4375 0.234375q-1.328125 0 -2.109375 -0.765625q-0.78125 -0.78125 -0.78125 -2.203125l0 -5.8125l-1.25 0l0 -1.34375l1.25 0l0 -1.796875l1.78125 -0.171875l0 1.96875l2.59375 0l0 1.34375l-2.59375 0l0 5.484375q0 1.046875 0.40625 1.5q0.40625 0.4375 1.28125 0.4375q0.34375 0 0.859375 -0.109375l0 1.234375z" fill-rule="nonzero"/><path fill="#000000" fill-opacity="0.0" d="m253.69292 212.87474l-0.3779602 -37.795273" fill-rule="evenodd"/><path stroke="#000000" stroke-width="2.0" stroke-linejoin="round" stroke-linecap="butt" d="m253.69292 212.87474l-0.2579651 -25.795883" fill-rule="evenodd"/><path fill="#000000" stroke="#000000" stroke-width="2.0" stroke-linecap="butt" d="m256.73825 187.04582l-3.3940582 -9.042709l-3.2125397 9.10878z" fill-rule="evenodd"/><path fill="#000000" fill-opacity="0.0" d="m195.4567 212.87491l0.37794495 -37.795273" fill-rule="evenodd"/><path stroke="#000000" stroke-width="2.0" stroke-linejoin="round" stroke-linecap="butt" d="m195.4567 212.87492l0.25794983 -25.795883" fill-rule="evenodd"/><path fill="#000000" stroke="#000000" stroke-width="2.0" stroke-linecap="butt" d="m199.01794 187.11208l-3.2125397 -9.10878l-3.3940582 9.042709z" fill-rule="evenodd"/><path fill="#000000" fill-opacity="0.0" d="m239.06299 205.81364l64.12598 0l0 42.015747l-64.12598 0z" fill-rule="evenodd"/><path fill="#000000" d="m249.85986 232.73364l0 -9.890625l1.796875 0l0 1.859375q0.5 -1.0 1.3125 -1.53125q0.828125 -0.546875 1.78125 -0.546875q0.265625 0 0.578125 0.046875l0 1.671875q-0.453125 -0.15625 -0.828125 -0.15625q-0.84375 0 -1.5625 0.515625q-0.71875 0.5 -1.28125 1.515625l0 6.515625l-1.796875 0zm7.6337585 0l0 -9.890625l1.796875 0l0 9.890625l-1.796875 0zm0 -11.6875l0 -1.796875l1.796875 0l0 1.796875l-1.796875 0zm9.799072 11.6875q-0.828125 0.234375 -1.4375 0.234375q-1.328125 0 -2.109375 -0.765625q-0.78125 -0.78125 -0.78125 -2.203125l0 -5.8125l-1.25 0l0 -1.34375l1.25 0l0 -1.796875l1.78125 -0.171875l0 1.96875l2.59375 0l0 1.34375l-2.59375 0l0 5.484375q0 1.046875 0.40625 1.5q0.40625 0.4375 1.28125 0.4375q0.34375 0 0.859375 -0.109375l0 1.234375z" fill-rule="nonzero"/><path fill="#000000" fill-opacity="0.0" d="m181.5748 205.81364l49.88977 0l0 42.015747l-49.88977 0z" fill-rule="evenodd"/><path fill="#000000" d="m198.15292 220.99927l0.40625 1.28125l-2.75 0.59375l0.015625 -0.140625q0 -0.359375 -0.265625 -0.609375l2.59375 -1.125zm-0.5 4.09375l-1.09375 0.796875l-1.421875 -2.4375q0.171875 -0.015625 0.359375 -0.140625q0.1875 -0.140625 0.265625 -0.3125l1.890625 2.09375zm-4.0625 0.796875l-1.09375 -0.796875l1.875 -2.09375q0.078125 0.1875 0.265625 0.3125q0.203125 0.125 0.375 0.140625l-1.421875 2.4375zm-2.015625 -3.609375l0.421875 -1.28125l2.59375 1.125q-0.265625 0.234375 -0.265625 0.609375l0.015625 0.140625l-2.765625 -0.59375zm2.828125 -3.03125l1.34375 0l-0.28125 2.8125q-0.15625 -0.109375 -0.390625 -0.109375q-0.234375 0 -0.390625 0.109375l-0.28125 -2.8125zm6.9598236 13.484375l0 -9.890625l1.796875 0l0 1.859375q0.5 -1.0 1.3125 -1.53125q0.828125 -0.546875 1.78125 -0.546875q0.265625 0 0.578125 0.046875l0 1.671875q-0.453125 -0.15625 -0.828125 -0.15625q-0.84375 0 -1.5625 0.515625q-0.71875 0.5 -1.28125 1.515625l0 6.515625l-1.796875 0zm7.6337585 0l0 -9.890625l1.796875 0l0 9.890625l-1.796875 0zm0 -11.6875l0 -1.796875l1.796875 0l0 1.796875l-1.796875 0zm9.799072 11.6875q-0.828125 0.234375 -1.4375 0.234375q-1.328125 0 -2.109375 -0.765625q-0.78125 -0.78125 -0.78125 -2.203125l0 -5.8125l-1.25 0l0 -1.34375l1.25 0l0 -1.796875l1.78125 -0.171875l0 1.96875l2.59375 0l0 1.34375l-2.59375 0l0 5.484375q0 1.046875 0.40625 1.5q0.40625 0.4375 1.28125 0.4375q0.34375 0 0.859375 -0.109375l0 1.234375z" fill-rule="nonzero"/></g></svg>