<svg version="1.1" viewBox="0.0 0.0 274.43569553805776 287.71128608923885" fill="none" stroke="none" stroke-linecap="square" stroke-miterlimit="10" xmlns:xlink="http://www.w3.org/1999/xlink" xmlns="http://www.w3.org/2000/svg"><clipPath id="p.0"><path d="m0 0l274.4357 0l0 287.71127l-274.4357 0l0 -287.71127z" clip-rule="nonzero"/></clipPath><g clip-path="url(#p.0)"><path fill="#000000" fill-opacity="0.0" d="m0 0l274.4357 0l0 287.71127l-274.4357 0z" fill-rule="evenodd"/><path fill="#000000" fill-opacity="0.0" d="m7.5013123 10.677165l269.82678 0l0 42.015747l-269.82678 0z" fill-rule="evenodd"/><path fill="#000000" d="m20.579437 23.20654l0 0.6875q-0.296875 0.078125 -0.484375 0.3125q-0.171875 0.21875 -0.28125 0.5625q-0.109375 0.34375 -0.109375 1.171875l0 0.203125l0.875 0l0 2.234375l-2.25 0l0 -1.953125q0 -1.53125 0.515625 -2.296875q0.53125 -0.78125 1.734375 -0.921875zm10.481079 14.09375q-1.734375 0.53125 -3.0 0.53125q-1.3125 0 -2.421875 -0.71875q-1.109375 -0.71875 -1.671875 -1.875q-0.546875 -1.171875 -0.546875 -2.640625q0 -2.1875 1.203125 -3.640625q1.21875 -1.46875 3.75 -1.46875q1.15625 0 2.578125 0.3125l0 1.5q-1.515625 -0.4375 -2.46875 -0.4375q-1.515625 0 -2.28125 1.125q-0.765625 1.125 -0.765625 2.65625q0 1.671875 0.859375 2.703125q0.859375 1.03125 2.234375 1.03125q1.234375 0 2.53125 -0.625l0 1.546875zm6.6339874 0.53125q-1.421875 0 -2.46875 -0.578125q-1.03125 -0.578125 -1.640625 -1.828125q-0.609375 -1.25 -0.609375 -2.78125q0 -1.4375 0.546875 -2.671875q0.5625 -1.234375 1.625 -1.859375q1.0625 -0.625 2.546875 -0.625q1.40625 0 2.453125 0.578125q1.046875 0.5625 1.65625 1.8125q0.609375 1.25 0.609375 2.765625q0 1.46875 -0.578125 2.703125q-0.5625 1.234375 -1.609375 1.859375q-1.046875 0.625 -2.53125 0.625zm0 -1.359375q1.328125 0 2.0625 -0.984375q0.75 -1.0 0.75 -2.84375q0 -1.828125 -0.75 -2.8125q-0.734375 -1.0 -2.0625 -1.0q-1.328125 0 -2.078125 1.0q-0.734375 0.984375 -0.734375 2.8125q0 1.84375 0.734375 2.84375q0.75 0.984375 2.078125 0.984375zm7.5222473 1.125l0 -9.890625l1.796875 0l0 1.859375q0.671875 -1.0 1.578125 -1.53125q0.90625 -0.546875 1.890625 -0.546875q1.25 0 2.03125 0.796875q0.796875 0.796875 0.796875 2.203125l0 7.109375l-1.796875 0l0 -6.515625q0 -1.03125 -0.1875 -1.359375q-0.1875 -0.328125 -0.515625 -0.5q-0.328125 -0.1875 -0.6875 -0.1875q-0.671875 0 -1.453125 0.40625q-0.765625 0.40625 -1.65625 1.75l0 6.40625l-1.796875 0zm11.218796 -0.34375l0 -1.65625q1.75 0.875 3.046875 0.875q0.765625 0 1.28125 -0.40625q0.515625 -0.421875 0.515625 -1.0625q0 -0.390625 -0.25 -0.765625q-0.25 -0.359375 -1.171875 -0.75l-1.046875 -0.453125q-1.21875 -0.5 -1.765625 -1.15625q-0.5625 -0.65625 -0.5625 -1.609375q0 -1.203125 0.859375 -1.984375q0.875 -0.796875 2.5625 -0.796875q0.828125 0 2.046875 0.21875l0.375 0.078125l0 1.5q-1.5 -0.453125 -2.390625 -0.453125q-0.859375 0 -1.296875 0.375q-0.421875 0.375 -0.421875 0.890625q0 0.390625 0.28125 0.71875q0.296875 0.328125 1.03125 0.640625l0.859375 0.359375q1.734375 0.75 2.21875 1.46875q0.46875 0.71875 0.46875 1.5625q0 0.8125 -0.4375 1.5q-0.4375 0.6875 -1.3125 1.09375q-0.859375 0.390625 -1.90625 0.390625q-1.234375 0 -2.984375 -0.578125zm14.27594 0.34375q-0.828125 0.234375 -1.4375 0.234375q-1.328125 0 -2.109375 -0.765625q-0.78125 -0.78125 -0.78125 -2.203125l0 -5.8125l-1.25 0l0 -1.34375l1.25 0l0 -1.796875l1.78125 -0.171875l0 1.96875l2.59375 0l0 1.34375l-2.59375 0l0 5.484375q0 1.046875 0.40625 1.5q0.40625 0.4375 1.28125 0.4375q0.34375 0 0.859375 -0.109375l0 1.234375zm2.6028748 -9.21875l0 -0.671875q0.28125 -0.078125 0.453125 -0.296875q0.171875 -0.234375 0.296875 -0.578125q0.125 -0.359375 0.125 -1.1875l0 -0.1875l-0.875 0l0 -2.25l2.25 0l0 1.953125q0 1.546875 -0.53125 2.328125q-0.53125 0.765625 -1.71875 0.890625z" fill-rule="nonzero"/><path fill="#000000" d="m88.542145 37.597164l-5.171875 -13.359375l1.921875 0l3.46875 9.703125q0.421875 1.171875 0.703125 2.1875q0.3125 -1.09375 0.71875 -2.1875l3.609375 -9.703125l1.796875 0l-5.234375 13.359375l-1.8125 0zm13.355026 -1.1875q-0.921875 0.765625 -1.765625 1.09375q-0.828125 0.3125 -1.796875 0.3125q-1.59375 0 -2.453125 -0.78125q-0.859375 -0.78125 -0.859375 -1.984375q0 -0.71875 0.328125 -1.296875q0.328125 -0.59375 0.84375 -0.9375q0.53125 -0.359375 1.1875 -0.546875q0.46875 -0.125 1.453125 -0.25q1.984375 -0.234375 2.921875 -0.5625q0.015625 -0.34375 0.015625 -0.421875q0 -1.0 -0.46875 -1.421875q-0.625 -0.546875 -1.875 -0.546875q-1.15625 0 -1.703125 0.40625q-0.546875 0.40625 -0.8125 1.421875l-1.609375 -0.21875q0.21875 -1.015625 0.71875 -1.640625q0.5 -0.640625 1.453125 -0.984375q0.953125 -0.34375 2.1875 -0.34375q1.25 0 2.015625 0.296875q0.78125 0.28125 1.140625 0.734375q0.375 0.4375 0.515625 1.109375q0.078125 0.421875 0.078125 1.515625l0 2.1875q0 2.28125 0.109375 2.890625q0.109375 0.59375 0.40625 1.15625l-1.703125 0q-0.265625 -0.515625 -0.328125 -1.1875zm-0.140625 -3.671875q-0.890625 0.375 -2.671875 0.625q-1.015625 0.140625 -1.4375 0.328125q-0.421875 0.1875 -0.65625 0.53125q-0.21875 0.34375 -0.21875 0.78125q0 0.65625 0.5 1.09375q0.5 0.4375 1.453125 0.4375q0.9375 0 1.671875 -0.40625q0.75 -0.421875 1.09375 -1.140625q0.265625 -0.5625 0.265625 -1.640625l0 -0.609375zm4.188217 4.859375l0 -9.671875l1.46875 0l0 1.46875q0.5625 -1.03125 1.03125 -1.359375q0.484375 -0.328125 1.0625 -0.328125q0.828125 0 1.6875 0.53125l-0.5625 1.515625q-0.609375 -0.359375 -1.203125 -0.359375q-0.546875 0 -0.96875 0.328125q-0.421875 0.328125 -0.609375 0.890625q-0.28125 0.875 -0.28125 1.921875l0 5.0625l-1.625 0zm6.228302 -11.46875l0 -1.890625l1.640625 0l0 1.890625l-1.640625 0zm0 11.46875l0 -9.671875l1.640625 0l0 9.671875l-1.640625 0zm10.457321 -1.1875q-0.921875 0.765625 -1.765625 1.09375q-0.828125 0.3125 -1.796875 0.3125q-1.59375 0 -2.453125 -0.78125q-0.859375 -0.78125 -0.859375 -1.984375q0 -0.71875 0.328125 -1.296875q0.328125 -0.59375 0.84375 -0.9375q0.53125 -0.359375 1.1875 -0.546875q0.46875 -0.125 1.453125 -0.25q1.984375 -0.234375 2.921875 -0.5625q0.015625 -0.34375 0.015625 -0.421875q0 -1.0 -0.46875 -1.421875q-0.625 -0.546875 -1.875 -0.546875q-1.15625 0 -1.703125 0.40625q-0.546875 0.40625 -0.8125 1.421875l-1.609375 -0.21875q0.21875 -1.015625 0.71875 -1.640625q0.5 -0.640625 1.453125 -0.984375q0.953125 -0.34375 2.1875 -0.34375q1.25 0 2.015625 0.296875q0.78125 0.28125 1.140625 0.734375q0.375 0.4375 0.515625 1.109375q0.078125 0.421875 0.078125 1.515625l0 2.1875q0 2.28125 0.109375 2.890625q0.109375 0.59375 0.40625 1.15625l-1.703125 0q-0.265625 -0.515625 -0.328125 -1.1875zm-0.140625 -3.671875q-0.890625 0.375 -2.671875 0.625q-1.015625 0.140625 -1.4375 0.328125q-0.421875 0.1875 -0.65625 0.53125q-0.21875 0.34375 -0.21875 0.78125q0 0.65625 0.5 1.09375q0.5 0.4375 1.453125 0.4375q0.9375 0 1.671875 -0.40625q0.75 -0.421875 1.09375 -1.140625q0.265625 -0.5625 0.265625 -1.640625l0 -0.609375zm4.203842 4.859375l0 -9.671875l1.46875 0l0 1.375q1.0625 -1.59375 3.078125 -1.59375q0.875 0 1.609375 0.3125q0.734375 0.3125 1.09375 0.828125q0.375 0.5 0.515625 1.203125q0.09375 0.453125 0.09375 1.59375l0 5.953125l-1.640625 0l0 -5.890625q0 -1.0 -0.203125 -1.484375q-0.1875 -0.5 -0.671875 -0.796875q-0.484375 -0.296875 -1.140625 -0.296875q-1.046875 0 -1.8125 0.671875q-0.75 0.65625 -0.75 2.515625l0 5.28125l-1.640625 0zm13.953842 -1.46875l0.234375 1.453125q-0.6875 0.140625 -1.234375 0.140625q-0.890625 0 -1.390625 -0.28125q-0.484375 -0.28125 -0.6875 -0.734375q-0.203125 -0.46875 -0.203125 -1.9375l0 -5.578125l-1.203125 0l0 -1.265625l1.203125 0l0 -2.390625l1.625 -0.984375l0 3.375l1.65625 0l0 1.265625l-1.65625 0l0 5.671875q0 0.6875 0.078125 0.890625q0.09375 0.203125 0.28125 0.328125q0.203125 0.109375 0.578125 0.109375q0.265625 0 0.71875 -0.0625zm8.230179 -1.640625l1.6875 0.203125q-0.40625 1.484375 -1.484375 2.3125q-1.078125 0.8125 -2.765625 0.8125q-2.125 0 -3.375 -1.296875q-1.234375 -1.3125 -1.234375 -3.671875q0 -2.453125 1.25 -3.796875q1.265625 -1.34375 3.265625 -1.34375q1.9375 0 3.15625 1.328125q1.234375 1.3125 1.234375 3.703125q0 0.15625 0 0.4375l-7.21875 0q0.09375 1.59375 0.90625 2.453125q0.8125 0.84375 2.015625 0.84375q0.90625 0 1.546875 -0.46875q0.640625 -0.484375 1.015625 -1.515625zm-5.390625 -2.65625l5.40625 0q-0.109375 -1.21875 -0.625 -1.828125q-0.78125 -0.953125 -2.03125 -0.953125q-1.125 0 -1.90625 0.765625q-0.765625 0.75 -0.84375 2.015625zm9.141342 5.765625l0 -9.671875l1.46875 0l0 1.375q1.0625 -1.59375 3.078125 -1.59375q0.875 0 1.609375 0.3125q0.734375 0.3125 1.09375 0.828125q0.375 0.5 0.515625 1.203125q0.09375 0.453125 0.09375 1.59375l0 5.953125l-1.640625 0l0 -5.890625q0 -1.0 -0.203125 -1.484375q-0.1875 -0.5 -0.671875 -0.796875q-0.484375 -0.296875 -1.140625 -0.296875q-1.046875 0 -1.8125 0.671875q-0.75 0.65625 -0.75 2.515625l0 5.28125l-1.640625 0zm15.559021 -11.46875l0 -1.890625l1.640625 0l0 1.890625l-1.640625 0zm0 11.46875l0 -9.671875l1.640625 0l0 9.671875l-1.640625 0zm4.144821 0l0 -9.671875l1.46875 0l0 1.375q1.0625 -1.59375 3.078125 -1.59375q0.875 0 1.609375 0.3125q0.734375 0.3125 1.09375 0.828125q0.375 0.5 0.515625 1.203125q0.09375 0.453125 0.09375 1.59375l0 5.953125l-1.640625 0l0 -5.890625q0 -1.0 -0.203125 -1.484375q-0.1875 -0.5 -0.671875 -0.796875q-0.484375 -0.296875 -1.140625 -0.296875q-1.046875 0 -1.8125 0.671875q-0.75 0.65625 -0.75 2.515625l0 5.28125l-1.640625 0zm25.293396 -4.6875l1.765625 0.453125q-0.5625 2.171875 -2.0 3.328125q-1.4375 1.140625 -3.53125 1.140625q-2.15625 0 -3.515625 -0.875q-1.34375 -0.890625 -2.0625 -2.546875q-0.703125 -1.671875 -0.703125 -3.59375q0 -2.078125 0.796875 -3.625q0.796875 -1.5625 2.265625 -2.359375q1.484375 -0.8125 3.25 -0.8125q2.0 0 3.359375 1.015625q1.375 1.015625 1.90625 2.875l-1.734375 0.40625q-0.46875 -1.453125 -1.359375 -2.109375q-0.875 -0.671875 -2.203125 -0.671875q-1.546875 0 -2.578125 0.734375q-1.03125 0.734375 -1.453125 1.984375q-0.421875 1.234375 -0.421875 2.5625q0 1.703125 0.5 2.96875q0.5 1.265625 1.546875 1.90625q1.046875 0.625 2.265625 0.625q1.484375 0 2.515625 -0.859375q1.03125 -0.859375 1.390625 -2.546875zm7.176071 2.53125l0 -3.671875l-3.640625 0l0 -1.515625l3.640625 0l0 -3.640625l1.546875 0l0 3.640625l3.640625 0l0 1.515625l-3.640625 0l0 3.671875l-1.546875 0zm10.8949585 0l0 -3.671875l-3.640625 0l0 -1.515625l3.640625 0l0 -3.640625l1.546875 0l0 3.640625l3.640625 0l0 1.515625l-3.640625 0l0 3.671875l-1.546875 0zm20.797012 0.578125l0 1.578125l-8.828125 0q-0.015625 -0.59375 0.1875 -1.140625q0.34375 -0.90625 1.078125 -1.78125q0.75 -0.875 2.15625 -2.015625q2.171875 -1.78125 2.9375 -2.828125q0.765625 -1.046875 0.765625 -1.96875q0 -0.984375 -0.703125 -1.640625q-0.6875 -0.671875 -1.8125 -0.671875q-1.1875 0 -1.90625 0.71875q-0.703125 0.703125 -0.703125 1.953125l-1.6875 -0.171875q0.171875 -1.890625 1.296875 -2.875q1.140625 -0.984375 3.03125 -0.984375q1.921875 0 3.046875 1.0625q1.125 1.0625 1.125 2.640625q0 0.796875 -0.328125 1.578125q-0.328125 0.78125 -1.09375 1.640625q-0.75 0.84375 -2.53125 2.34375q-1.46875 1.234375 -1.890625 1.6875q-0.421875 0.4375 -0.6875 0.875l6.546875 0zm1.7663422 -5.015625q0 -2.359375 0.484375 -3.796875q0.484375 -1.453125 1.4375 -2.234375q0.96875 -0.78125 2.421875 -0.78125q1.078125 0 1.890625 0.4375q0.8125 0.421875 1.328125 1.25q0.53125 0.8125 0.828125 1.984375q0.3125 1.15625 0.3125 3.140625q0 2.359375 -0.484375 3.8125q-0.484375 1.4375 -1.453125 2.234375q-0.953125 0.78125 -2.421875 0.78125q-1.921875 0 -3.03125 -1.390625q-1.3125 -1.671875 -1.3125 -5.4375zm1.671875 0q0 3.296875 0.765625 4.390625q0.78125 1.078125 1.90625 1.078125q1.140625 0 1.90625 -1.09375q0.765625 -1.09375 0.765625 -4.375q0 -3.296875 -0.765625 -4.375q-0.765625 -1.078125 -1.921875 -1.078125q-1.125 0 -1.796875 0.953125q-0.859375 1.21875 -0.859375 4.5zm9.610092 -1.21875l0 -1.859375l1.859375 0l0 1.859375l-1.859375 0zm0 7.8125l0 -1.875l1.859375 0l0 1.875l-1.859375 0z" fill-rule="nonzero"/><path fill="#cccccc" d="m45.013123 69.79542l0 0c0 -3.8675232 3.1352463 -7.0027657 7.0027657 -7.0027657l180.79762 0c1.857254 0 3.6384277 0.73778915 4.951706 2.0510597c1.3132782 1.3132782 2.051056 3.094452 2.051056 4.951706l0 28.010216c0 3.8675232 -3.1352386 7.002762 -7.002762 7.002762l-180.79762 0c-3.8675194 0 -7.0027657 -3.1352386 -7.0027657 -7.002762z" fill-rule="evenodd"/><path stroke="#000000" stroke-width="1.0" stroke-linejoin="round" stroke-linecap="butt" d="m45.013123 69.79542l0 0c0 -3.8675232 3.1352463 -7.0027657 7.0027657 -7.0027657l180.79762 0c1.857254 0 3.6384277 0.73778915 4.951706 2.0510597c1.3132782 1.3132782 2.051056 3.094452 2.051056 4.951706l0 28.010216c0 3.8675232 -3.1352386 7.002762 -7.002762 7.002762l-180.79762 0c-3.8675194 0 -7.0027657 -3.1352386 -7.0027657 -7.002762z" fill-rule="evenodd"/><path fill="#000000" d="m126.52996 90.423645q-1.734375 0.53125 -3.0 0.53125q-1.3125 0 -2.421875 -0.71875q-1.109375 -0.71875 -1.671875 -1.875q-0.546875 -1.171875 -0.546875 -2.640625q0 -2.1875 1.203125 -3.640625q1.21875 -1.46875 3.75 -1.46875q1.15625 0 2.578125 0.3125l0 1.5q-1.515625 -0.4375 -2.46875 -0.4375q-1.515625 0 -2.28125 1.125q-0.765625 1.125 -0.765625 2.65625q0 1.671875 0.859375 2.703125q0.859375 1.03125 2.234375 1.03125q1.234375 0 2.53125 -0.625l0 1.546875zm6.63398 0.53125q-1.421875 0 -2.46875 -0.578125q-1.03125 -0.578125 -1.640625 -1.828125q-0.609375 -1.25 -0.609375 -2.78125q0 -1.4375 0.546875 -2.671875q0.5625 -1.234375 1.625 -1.859375q1.0625 -0.625 2.546875 -0.625q1.40625 0 2.453125 0.578125q1.046875 0.5625 1.65625 1.8125q0.609375 1.25 0.609375 2.765625q0 1.46875 -0.578125 2.703125q-0.5625 1.234375 -1.609375 1.859375q-1.046875 0.625 -2.53125 0.625zm0 -1.359375q1.328125 0 2.0625 -0.984375q0.75 -1.0 0.75 -2.84375q0 -1.828125 -0.75 -2.8125q-0.734375 -1.0 -2.0625 -1.0q-1.328125 0 -2.078125 1.0q-0.734375 0.984375 -0.734375 2.8125q0 1.84375 0.734375 2.84375q0.75 0.984375 2.078125 0.984375zm7.5222473 1.125l0 -9.890625l1.796875 0l0 1.859375q0.671875 -1.0 1.578125 -1.53125q0.90625 -0.546875 1.890625 -0.546875q1.25 0 2.03125 0.796875q0.796875 0.796875 0.796875 2.203125l0 7.109375l-1.796875 0l0 -6.515625q0 -1.03125 -0.1875 -1.359375q-0.1875 -0.328125 -0.515625 -0.5q-0.328125 -0.1875 -0.6875 -0.1875q-0.671875 0 -1.453125 0.40625q-0.765625 0.40625 -1.65625 1.75l0 6.40625l-1.796875 0zm11.218796 -0.34375l0 -1.65625q1.75 0.875 3.046875 0.875q0.765625 0 1.28125 -0.40625q0.515625 -0.421875 0.515625 -1.0625q0 -0.390625 -0.25 -0.765625q-0.25 -0.359375 -1.171875 -0.75l-1.046875 -0.453125q-1.21875 -0.5 -1.765625 -1.15625q-0.5625 -0.65625 -0.5625 -1.609375q0 -1.203125 0.859375 -1.984375q0.875 -0.796875 2.5625 -0.796875q0.828125 0 2.046875 0.21875l0.375 0.078125l0 1.5q-1.5 -0.453125 -2.390625 -0.453125q-0.859375 0 -1.296875 0.375q-0.421875 0.375 -0.421875 0.890625q0 0.390625 0.28125 0.71875q0.296875 0.328125 1.03125 0.640625l0.859375 0.359375q1.734375 0.75 2.21875 1.46875q0.46875 0.71875 0.46875 1.5625q0 0.8125 -0.4375 1.5q-0.4375 0.6875 -1.3125 1.09375q-0.859375 0.390625 -1.90625 0.390625q-1.234375 0 -2.984375 -0.578125zm14.27594 0.34375q-0.828125 0.234375 -1.4375 0.234375q-1.328125 0 -2.109375 -0.765625q-0.78125 -0.78125 -0.78125 -2.203125l0 -5.8125l-1.25 0l0 -1.34375l1.25 0l0 -1.796875l1.78125 -0.171875l0 1.96875l2.59375 0l0 1.34375l-2.59375 0l0 5.484375q0 1.046875 0.40625 1.5q0.40625 0.4375 1.28125 0.4375q0.34375 0 0.859375 -0.109375l0 1.234375z" fill-rule="nonzero"/><path fill="#cccccc" d="m45.013123 238.62288l0 0c0 -3.8675232 3.1352463 -7.002762 7.0027657 -7.002762l180.79762 0c1.857254 0 3.6384277 0.7377777 4.951706 2.051056c1.3132782 1.3132782 2.051056 3.094452 2.051056 4.951706l0 28.010208c0 3.8675232 -3.1352386 7.002777 -7.002762 7.002777l-180.79762 0c-3.8675194 0 -7.0027657 -3.135254 -7.0027657 -7.002777z" fill-rule="evenodd"/><path stroke="#000000" stroke-width="1.0" stroke-linejoin="round" stroke-linecap="butt" d="m45.013123 238.62288l0 0c0 -3.8675232 3.1352463 -7.002762 7.0027657 -7.002762l180.79762 0c1.857254 0 3.6384277 0.7377777 4.951706 2.051056c1.3132782 1.3132782 2.051056 3.094452 2.051056 4.951706l0 28.010208c0 3.8675232 -3.1352386 7.002777 -7.002762 7.002777l-180.79762 0c-3.8675194 0 -7.0027657 -3.135254 -7.0027657 -7.002777z" fill-rule="evenodd"/><path fill="#000000" d="m111.859116 259.2511q-1.734375 0.53125 -3.0 0.53125q-1.3125 0 -2.421875 -0.71875q-1.109375 -0.71875 -1.671875 -1.875q-0.546875 -1.171875 -0.546875 -2.6406097q0 -2.1875 1.203125 -3.640625q1.21875 -1.46875 3.75 -1.46875q1.15625 0 2.578125 0.3125l0 1.5q-1.515625 -0.4375 -2.46875 -0.4375q-1.515625 0 -2.28125 1.125q-0.765625 1.125 -0.765625 2.65625q0 1.6718597 0.859375 2.7031097q0.859375 1.03125 2.234375 1.03125q1.234375 0 2.53125 -0.625l0 1.546875zm6.6339874 0.53125q-1.421875 0 -2.46875 -0.578125q-1.03125 -0.578125 -1.640625 -1.828125q-0.609375 -1.25 -0.609375 -2.7812347q0 -1.4375 0.546875 -2.671875q0.5625 -1.234375 1.625 -1.859375q1.0625 -0.625 2.546875 -0.625q1.40625 0 2.453125 0.578125q1.046875 0.5625 1.65625 1.8125q0.609375 1.25 0.609375 2.765625q0 1.4687347 -0.578125 2.7031097q-0.5625 1.234375 -1.609375 1.859375q-1.046875 0.625 -2.53125 0.625zm0 -1.359375q1.328125 0 2.0625 -0.984375q0.75 -1.0 0.75 -2.8437347q0 -1.828125 -0.75 -2.8125q-0.734375 -1.0 -2.0625 -1.0q-1.328125 0 -2.078125 1.0q-0.734375 0.984375 -0.734375 2.8125q0 1.8437347 0.734375 2.8437347q0.75 0.984375 2.078125 0.984375zm7.5222473 1.125l0 -9.89061l1.796875 0l0 1.859375q0.671875 -1.0 1.578125 -1.53125q0.90625 -0.546875 1.890625 -0.546875q1.25 0 2.03125 0.796875q0.796875 0.796875 0.796875 2.203125l0 7.1093597l-1.796875 0l0 -6.5156097q0 -1.03125 -0.1875 -1.359375q-0.1875 -0.328125 -0.515625 -0.5q-0.328125 -0.1875 -0.6875 -0.1875q-0.671875 0 -1.453125 0.40625q-0.765625 0.40625 -1.65625 1.75l0 6.4062347l-1.796875 0zm11.218796 -0.34375l0 -1.65625q1.75 0.875 3.046875 0.875q0.765625 0 1.28125 -0.40625q0.515625 -0.421875 0.515625 -1.0625q0 -0.390625 -0.25 -0.765625q-0.25 -0.35935974 -1.171875 -0.74998474l-1.046875 -0.453125q-1.21875 -0.5 -1.765625 -1.15625q-0.5625 -0.65625 -0.5625 -1.609375q0 -1.203125 0.859375 -1.984375q0.875 -0.796875 2.5625 -0.796875q0.828125 0 2.046875 0.21875l0.375 0.078125l0 1.5q-1.5 -0.453125 -2.390625 -0.453125q-0.859375 0 -1.296875 0.375q-0.421875 0.375 -0.421875 0.890625q0 0.390625 0.28125 0.71875q0.296875 0.328125 1.03125 0.640625l0.859375 0.359375q1.734375 0.75 2.21875 1.46875q0.46875 0.71875 0.46875 1.5624847q0 0.8125 -0.4375 1.5q-0.4375 0.6875 -1.3125 1.09375q-0.859375 0.390625 -1.90625 0.390625q-1.234375 0 -2.984375 -0.578125zm14.27594 0.34375q-0.828125 0.234375 -1.4375 0.234375q-1.328125 0 -2.109375 -0.765625q-0.78125 -0.78125 -0.78125 -2.203125l0 -5.8124847l-1.25 0l0 -1.34375l1.25 0l0 -1.796875l1.78125 -0.171875l0 1.96875l2.59375 0l0 1.34375l-2.59375 0l0 5.4843597q0 1.046875 0.40625 1.5q0.40625 0.4375 1.28125 0.4375q0.34375 0 0.859375 -0.109375l0 1.234375zm2.5716248 0l0 -9.89061l1.796875 0l0 9.89061l-1.796875 0zm0 -11.687485l0 -1.796875l1.796875 0l0 1.796875l-1.796875 0zm5.3928223 11.687485l0 -9.89061l1.796875 0l0 1.859375q0.671875 -1.0 1.578125 -1.53125q0.90625 -0.546875 1.890625 -0.546875q1.25 0 2.03125 0.796875q0.796875 0.796875 0.796875 2.203125l0 7.1093597l-1.796875 0l0 -6.5156097q0 -1.03125 -0.1875 -1.359375q-0.1875 -0.328125 -0.515625 -0.5q-0.328125 -0.1875 -0.6875 -0.1875q-0.671875 0 -1.453125 0.40625q-0.765625 0.40625 -1.65625 1.75l0 6.4062347l-1.796875 0zm11.578171 0l0 -9.89061l1.796875 0l0 9.89061l-1.796875 0zm0 -11.687485l0 -1.796875l1.796875 0l0 1.796875l-1.796875 0zm9.799072 11.687485q-0.828125 0.234375 -1.4375 0.234375q-1.328125 0 -2.109375 -0.765625q-0.78125 -0.78125 -0.78125 -2.203125l0 -5.8124847l-1.25 0l0 -1.34375l1.25 0l0 -1.796875l1.78125 -0.171875l0 1.96875l2.59375 0l0 1.34375l-2.59375 0l0 5.4843597q0 1.046875 0.40625 1.5q0.40625 0.4375 1.28125 0.4375q0.34375 0 0.859375 -0.109375l0 1.234375z" fill-rule="nonzero"/><path fill="#cccccc" d="m45.013123 126.070244l0 0c0 -3.8675156 3.1352463 -7.002762 7.0027657 -7.002762l180.79762 0c1.857254 0 3.6384277 0.73779297 4.951706 2.0510635c1.3132782 1.3132706 2.051056 3.094452 2.051056 4.9516983l0 28.010216c0 3.8675232 -3.1352386 7.002777 -7.002762 7.002777l-180.79762 0c-3.8675194 0 -7.0027657 -3.135254 -7.0027657 -7.002777z" fill-rule="evenodd"/><path stroke="#000000" stroke-width="1.0" stroke-linejoin="round" stroke-linecap="butt" d="m45.013123 126.070244l0 0c0 -3.8675156 3.1352463 -7.002762 7.0027657 -7.002762l180.79762 0c1.857254 0 3.6384277 0.73779297 4.951706 2.0510635c1.3132782 1.3132706 2.051056 3.094452 2.051056 4.9516983l0 28.010216c0 3.8675232 -3.1352386 7.002777 -7.002762 7.002777l-180.79762 0c-3.8675194 0 -7.0027657 -3.135254 -7.0027657 -7.002777z" fill-rule="evenodd"/><path fill="#000000" d="m105.92428 146.69849q-1.734375 0.53125 -3.0 0.53125q-1.3125 0 -2.421875 -0.71875q-1.109375 -0.71875 -1.671875 -1.875q-0.546875 -1.171875 -0.546875 -2.640625q0 -2.1875 1.203125 -3.640625q1.21875 -1.46875 3.75 -1.46875q1.15625 0 2.578125 0.3125l0 1.5q-1.515625 -0.4375 -2.46875 -0.4375q-1.515625 0 -2.28125 1.125q-0.765625 1.125 -0.765625 2.65625q0 1.671875 0.859375 2.703125q0.859375 1.03125 2.234375 1.03125q1.234375 0 2.53125 -0.625l0 1.546875zm6.6339874 0.53125q-1.421875 0 -2.46875 -0.578125q-1.03125 -0.578125 -1.640625 -1.828125q-0.609375 -1.25 -0.609375 -2.78125q0 -1.4375 0.546875 -2.671875q0.5625 -1.234375 1.625 -1.859375q1.0625 -0.625 2.546875 -0.625q1.40625 0 2.453125 0.578125q1.046875 0.5625 1.65625 1.8125q0.609375 1.25 0.609375 2.765625q0 1.46875 -0.578125 2.703125q-0.5625 1.234375 -1.609375 1.859375q-1.046875 0.625 -2.53125 0.625zm0 -1.359375q1.328125 0 2.0625 -0.984375q0.75 -1.0 0.75 -2.84375q0 -1.828125 -0.75 -2.8125q-0.734375 -1.0 -2.0625 -1.0q-1.328125 0 -2.078125 1.0q-0.734375 0.984375 -0.734375 2.8125q0 1.84375 0.734375 2.84375q0.75 0.984375 2.078125 0.984375zm7.5222473 1.125l0 -9.890625l1.796875 0l0 1.859375q0.671875 -1.0 1.578125 -1.53125q0.90625 -0.546875 1.890625 -0.546875q1.25 0 2.03125 0.796875q0.7968674 0.796875 0.7968674 2.203125l0 7.109375l-1.7968674 0l0 -6.515625q0 -1.03125 -0.1875 -1.359375q-0.1875 -0.328125 -0.515625 -0.5q-0.328125 -0.1875 -0.6875 -0.1875q-0.671875 0 -1.453125 0.40625q-0.765625 0.40625 -1.65625 1.75l0 6.40625l-1.796875 0zm11.218788 -0.34375l0 -1.65625q1.75 0.875 3.046875 0.875q0.765625 0 1.28125 -0.40625q0.515625 -0.421875 0.515625 -1.0625q0 -0.390625 -0.25 -0.765625q-0.25 -0.359375 -1.171875 -0.75l-1.046875 -0.453125q-1.21875 -0.5 -1.765625 -1.15625q-0.5625 -0.65625 -0.5625 -1.609375q0 -1.203125 0.859375 -1.984375q0.875 -0.796875 2.5625 -0.796875q0.828125 0 2.046875 0.21875l0.375 0.078125l0 1.5q-1.5 -0.453125 -2.390625 -0.453125q-0.859375 0 -1.296875 0.375q-0.421875 0.375 -0.421875 0.890625q0 0.390625 0.28125 0.71875q0.296875 0.328125 1.03125 0.640625l0.859375 0.359375q1.734375 0.75 2.21875 1.46875q0.46875 0.71875 0.46875 1.5625q0 0.8125 -0.4375 1.5q-0.4375 0.6875 -1.3125 1.09375q-0.859375 0.390625 -1.90625 0.390625q-1.234375 0 -2.984375 -0.578125zm14.27594 0.34375q-0.828125 0.234375 -1.4375 0.234375q-1.328125 0 -2.109375 -0.765625q-0.78125 -0.78125 -0.78125 -2.203125l0 -5.8125l-1.25 0l0 -1.34375l1.25 0l0 -1.796875l1.78125 -0.171875l0 1.96875l2.59375 0l0 1.34375l-2.59375 0l0 5.484375q0 1.046875 0.40625 1.5q0.40625 0.4375 1.28125 0.4375q0.34375 0 0.859375 -0.109375l0 1.234375zm9.821625 -0.3125q-1.8125 0.546875 -3.09375 0.546875q-2.296875 0 -3.625 -1.546875q-1.3125 -1.5625 -1.3125 -3.671875q0 -1.40625 0.578125 -2.65625q0.578125 -1.265625 1.515625 -1.875q0.953125 -0.609375 2.234375 -0.609375q1.703125 0 2.71875 1.234375q1.03125 1.234375 1.03125 3.6875l-0.015625 0.53125l-6.234375 0q0.140625 1.3125 0.5625 2.03125q0.421875 0.703125 1.109375 1.109375q0.703125 0.390625 1.78125 0.390625q0.546875 0 1.078125 -0.09375q0.546875 -0.09375 1.671875 -0.5l0 1.421875zm-6.125 -5.703125l4.359375 0q0 -1.484375 -0.578125 -2.109375q-0.578125 -0.640625 -1.46875 -0.640625q-1.03125 0 -1.609375 0.6875q-0.578125 0.6875 -0.703125 2.0625zm8.268936 6.015625l3.765625 -5.109375l-3.65625 -4.78125l2.140625 0l2.890625 3.8125l2.609375 -3.8125l1.75 0l-3.421875 5.015625l3.71875 4.875l-2.125 0l-2.984375 -3.921875l-2.875 3.921875l-1.8125 0zm12.441528 3.59375l0 -13.484375l1.796875 0l0 1.859375q0.546875 -1.046875 1.375 -1.5625q0.828125 -0.515625 1.9218903 -0.515625q1.84375 0 2.84375 1.34375q1.0 1.34375 1.0 3.515625q0 1.421875 -0.46875 2.703125q-0.46875 1.265625 -1.453125 2.03125q-0.96875 0.75 -2.2031403 0.75q-0.5 0 -1.3125 -0.15625q-0.796875 -0.140625 -1.703125 -1.203125l0 4.71875l-1.796875 0zm1.796875 -5.953125q0.921875 0.8125 1.46875 1.03125q0.546875 0.203125 1.171875 0.203125q1.3125153 0 1.9375153 -1.109375q0.640625 -1.109375 0.640625 -2.828125q0 -1.609375 -0.5625 -2.546875q-0.546875 -0.9375 -1.7343903 -0.9375q-0.734375 0 -1.46875 0.40625q-0.734375 0.40625 -1.453125 1.21875l0 4.5625zm9.945267 2.359375l0 -9.890625l1.796875 0l0 1.859375q0.5 -1.0 1.3125 -1.53125q0.828125 -0.546875 1.78125 -0.546875q0.265625 0 0.578125 0.046875l0 1.671875q-0.453125 -0.15625 -0.828125 -0.15625q-0.84375 0 -1.5625 0.515625q-0.71875 0.5 -1.28125 1.515625l0 6.515625l-1.796875 0z" fill-rule="nonzero"/><path fill="#cccccc" d="m45.013123 182.34787l0 0c0 -3.8675232 3.1352463 -7.002762 7.0027657 -7.002762l180.79762 0c1.857254 0 3.6384277 0.73779297 4.951706 2.051056c1.3132782 1.3132782 2.051056 3.0944672 2.051056 4.951706l0 28.010223c0 3.8675232 -3.1352386 7.002762 -7.002762 7.002762l-180.79762 0c-3.8675194 0 -7.0027657 -3.1352386 -7.0027657 -7.002762z" fill-rule="evenodd"/><path stroke="#000000" stroke-width="1.0" stroke-linejoin="round" stroke-linecap="butt" d="m45.013123 182.34787l0 0c0 -3.8675232 3.1352463 -7.002762 7.0027657 -7.002762l180.79762 0c1.857254 0 3.6384277 0.73779297 4.951706 2.051056c1.3132782 1.3132782 2.051056 3.0944672 2.051056 4.951706l0 28.010223c0 3.8675232 -3.1352386 7.002762 -7.002762 7.002762l-180.79762 0c-3.8675194 0 -7.0027657 -3.1352386 -7.0027657 -7.002762z" fill-rule="evenodd"/><path fill="#000000" d="m108.65713 202.9761q-1.734375 0.53125 -3.0 0.53125q-1.3125 0 -2.421875 -0.71875q-1.109375 -0.71875 -1.671875 -1.875q-0.546875 -1.171875 -0.546875 -2.640625q0 -2.1875 1.203125 -3.640625q1.21875 -1.46875 3.75 -1.46875q1.15625 0 2.578125 0.3125l0 1.5q-1.515625 -0.4375 -2.46875 -0.4375q-1.515625 0 -2.28125 1.125q-0.765625 1.125 -0.765625 2.65625q0 1.671875 0.859375 2.703125q0.859375 1.03125 2.234375 1.03125q1.234375 0 2.53125 -0.625l0 1.546875zm6.6339874 0.53125q-1.421875 0 -2.46875 -0.578125q-1.03125 -0.578125 -1.640625 -1.828125q-0.609375 -1.25 -0.609375 -2.78125q0 -1.4375 0.546875 -2.671875q0.5625 -1.234375 1.625 -1.859375q1.0625 -0.625 2.546875 -0.625q1.40625 0 2.453125 0.578125q1.046875 0.5625 1.65625 1.8125q0.609375 1.25 0.609375 2.765625q0 1.46875 -0.578125 2.703125q-0.5625 1.234375 -1.609375 1.859375q-1.046875 0.625 -2.53125 0.625zm0 -1.359375q1.328125 0 2.0625 -0.984375q0.75 -1.0 0.75 -2.84375q0 -1.828125 -0.75 -2.8125q-0.734375 -1.0 -2.0625 -1.0q-1.328125 0 -2.078125 1.0q-0.734375 0.984375 -0.734375 2.8125q0 1.84375 0.734375 2.84375q0.75 0.984375 2.078125 0.984375zm7.5222473 1.125l0 -9.890625l1.796875 0l0 1.859375q0.671875 -1.0 1.578125 -1.53125q0.90625 -0.546875 1.8906174 -0.546875q1.25 0 2.03125 0.796875q0.796875 0.796875 0.796875 2.203125l0 7.109375l-1.796875 0l0 -6.515625q0 -1.03125 -0.1875 -1.359375q-0.1875 -0.328125 -0.515625 -0.5q-0.328125 -0.1875 -0.6874924 -0.1875q-0.671875 0 -1.453125 0.40625q-0.765625 0.40625 -1.65625 1.75l0 6.40625l-1.796875 0zm11.218788 -0.34375l0 -1.65625q1.75 0.875 3.046875 0.875q0.765625 0 1.28125 -0.40625q0.515625 -0.421875 0.515625 -1.0625q0 -0.390625 -0.25 -0.765625q-0.25 -0.359375 -1.171875 -0.75l-1.046875 -0.453125q-1.21875 -0.5 -1.765625 -1.15625q-0.5625 -0.65625 -0.5625 -1.609375q0 -1.203125 0.859375 -1.984375q0.875 -0.796875 2.5625 -0.796875q0.828125 0 2.046875 0.21875l0.375 0.078125l0 1.5q-1.5 -0.453125 -2.390625 -0.453125q-0.859375 0 -1.296875 0.375q-0.421875 0.375 -0.421875 0.890625q0 0.390625 0.28125 0.71875q0.296875 0.328125 1.03125 0.640625l0.859375 0.359375q1.734375 0.75 2.21875 1.46875q0.46875 0.71875 0.46875 1.5625q0 0.8125 -0.4375 1.5q-0.4375 0.6875 -1.3125 1.09375q-0.859375 0.390625 -1.90625 0.390625q-1.234375 0 -2.984375 -0.578125zm14.27594 0.34375q-0.828125 0.234375 -1.4375 0.234375q-1.328125 0 -2.109375 -0.765625q-0.78125 -0.78125 -0.78125 -2.203125l0 -5.8125l-1.25 0l0 -1.34375l1.25 0l0 -1.796875l1.78125 -0.171875l0 1.96875l2.59375 0l0 1.34375l-2.59375 0l0 5.484375q0 1.046875 0.40625 1.5q0.40625 0.4375 1.28125 0.4375q0.34375 0 0.859375 -0.109375l0 1.234375zm9.821625 -0.3125q-1.8125 0.546875 -3.09375 0.546875q-2.296875 0 -3.625 -1.546875q-1.3125 -1.5625 -1.3125 -3.671875q0 -1.40625 0.578125 -2.65625q0.578125 -1.265625 1.515625 -1.875q0.953125 -0.609375 2.234375 -0.609375q1.703125 0 2.71875 1.234375q1.03125 1.234375 1.03125 3.6875l-0.015625 0.53125l-6.234375 0q0.140625 1.3125 0.5625 2.03125q0.421875 0.703125 1.109375 1.109375q0.703125 0.390625 1.78125 0.390625q0.546875 0 1.078125 -0.09375q0.546875 -0.09375 1.671875 -0.5l0 1.421875zm-6.125 -5.703125l4.359375 0q0 -1.484375 -0.578125 -2.109375q-0.578125 -0.640625 -1.46875 -0.640625q-1.03125 0 -1.609375 0.6875q-0.578125 0.6875 -0.703125 2.0625zm11.315811 6.015625l-3.6875 -9.890625l1.796875 0l2.890625 7.6875l3.03125 -7.6875l1.671875 0l-3.90625 9.890625l-1.796875 0zm12.702957 -1.25q-0.796875 0.734375 -1.5781403 1.109375q-0.78125 0.375 -1.515625 0.375q-1.0625 0 -1.96875 -0.6875q-0.890625 -0.703125 -0.890625 -2.03125q0 -1.453125 1.25 -2.40625q1.265625 -0.953125 4.0312653 -0.953125l0.40625 0l0 -1.203125q0 -0.703125 -0.1875 -1.03125q-0.1875 -0.328125 -0.59376526 -0.5q-0.40625 -0.1875 -1.0 -0.1875q-1.40625 0 -3.046875 0.875l0 -1.484375q1.8125 -0.734375 3.40625 -0.734375q0.87501526 0 1.6093903 0.28125q0.734375 0.265625 1.171875 0.875q0.4375 0.59375 0.4375 1.90625l0 4.484375q0 0.75 0.109375 1.015625q0.125 0.25 0.34375 0.390625q0.21875 0.140625 0.5 0.140625q0.109375 0 0.34375 -0.046875l0.125 1.0q-0.609375 0.296875 -1.34375 0.296875q-0.5 0 -0.953125 -0.3125q-0.453125 -0.328125 -0.65625 -1.171875zm-0.265625 -0.984375l0 -2.5625l-0.5625 -0.015625q-1.4218903 0 -2.3750153 0.546875q-0.953125 0.546875 -0.953125 1.484375q0 0.65625 0.46875 1.109375q0.46875 0.4375 1.09375 0.4375q0.5625 0 1.140625 -0.25q0.59376526 -0.25 1.1875153 -0.75zm5.474701 2.234375l0 -14.390625l1.796875 0l0 14.390625l-1.796875 0z" fill-rule="nonzero"/></g></svg>