<svg version="1.1" viewBox="0.0 0.0 517.2414698162729 346.1469816272966" fill="none" stroke="none" stroke-linecap="square" stroke-miterlimit="10" xmlns:xlink="http://www.w3.org/1999/xlink" xmlns="http://www.w3.org/2000/svg"><clipPath id="p.0"><path d="m0 0l517.24146 0l0 346.14697l-517.24146 0l0 -346.14697z" clip-rule="nonzero"/></clipPath><g clip-path="url(#p.0)"><path fill="#000000" fill-opacity="0.0" d="m0 0l517.24146 0l0 346.14697l-517.24146 0z" fill-rule="evenodd"/><path fill="#ffffff" d="m63.96719 111.154854l84.944885 0l0 36.409447l-84.944885 0z" fill-rule="evenodd"/><path stroke="#000000" stroke-width="2.0" stroke-linejoin="round" stroke-linecap="butt" d="m63.96719 111.154854l84.944885 0l0 36.409447l-84.944885 0z" fill-rule="evenodd"/><path fill="#ffffff" d="m63.96719 147.5643l84.944885 0l0 36.409454l-84.944885 0z" fill-rule="evenodd"/><path stroke="#000000" stroke-width="2.0" stroke-linejoin="round" stroke-linecap="butt" d="m63.96719 147.5643l84.944885 0l0 36.409454l-84.944885 0z" fill-rule="evenodd"/><path fill="#000000" d="m107.95917 171.62903l-1.40625 0l0 -8.96875q-0.515625 0.484375 -1.34375 0.96875q-0.8125 0.484375 -1.46875 0.734375l0 -1.359375q1.171875 -0.5625 2.046875 -1.34375q0.890625 -0.796875 1.265625 -1.53125l0.90625 0l0 11.5z" fill-rule="nonzero"/><path fill="#ffffff" d="m194.03543 48.682415l84.944885 0l0 36.40945l-84.944885 0z" fill-rule="evenodd"/><path stroke="#000000" stroke-width="2.0" stroke-linejoin="round" stroke-linecap="butt" d="m194.03543 48.682415l84.944885 0l0 36.40945l-84.944885 0z" fill-rule="evenodd"/><path fill="#000000" d="m221.34772 69.919014l1.375 0.140625q-0.296875 1.03125 -1.359375 1.953125q-1.0625 0.921875 -2.546875 0.921875q-0.921875 0 -1.6875 -0.421875q-0.765625 -0.4375 -1.171875 -1.25q-0.40625 -0.8125 -0.40625 -1.84375q0 -1.359375 0.625 -2.640625q0.640625 -1.28125 1.640625 -1.890625q1.0 -0.625 2.15625 -0.625q1.484375 0 2.375 0.921875q0.890625 0.921875 0.890625 2.515625q0 0.609375 -0.109375 1.25l-6.109375 0q-0.03125 0.234375 -0.03125 0.4375q0 1.15625 0.53125 1.78125q0.53125 0.609375 1.3125 0.609375q0.71875 0 1.421875 -0.46875q0.703125 -0.484375 1.09375 -1.390625zm-4.109375 -2.046875l4.65625 0q0.015625 -0.21875 0.015625 -0.3125q0 -1.0625 -0.53125 -1.625q-0.53125 -0.578125 -1.375 -0.578125q-0.90625 0 -1.65625 0.625q-0.734375 0.625 -1.109375 1.890625zm6.9140625 4.875l1.734375 -8.296875l1.40625 0l-0.28125 1.359375q0.78125 -0.875 1.40625 -1.203125q0.625 -0.34375 1.34375 -0.34375q0.78125 0 1.296875 0.40625q0.515625 0.40625 0.6875 1.140625q0.625 -0.78125 1.328125 -1.15625q0.703125 -0.390625 1.46875 -0.390625q1.046875 0 1.5625 0.5q0.515625 0.484375 0.515625 1.375q0 0.375 -0.171875 1.265625l-1.125 5.34375l-1.40625 0l1.140625 -5.484375q0.140625 -0.671875 0.140625 -0.96875q0 -0.40625 -0.265625 -0.640625q-0.25 -0.234375 -0.71875 -0.234375q-0.625 0 -1.28125 0.390625q-0.65625 0.375 -1.03125 1.0q-0.359375 0.625 -0.625 1.90625l-0.84375 4.03125l-1.421875 0l1.171875 -5.609375q0.125 -0.5625 0.125 -0.8125q0 -0.40625 -0.25 -0.65625q-0.25 -0.25 -0.65625 -0.25q-0.609375 0 -1.265625 0.390625q-0.65625 0.375 -1.078125 1.0625q-0.40625 0.6875 -0.671875 1.953125l-0.828125 3.921875l-1.40625 0zm12.625 3.1875l2.40625 -11.484375l1.3125 0l-0.25 1.15625q0.734375 -0.765625 1.296875 -1.046875q0.578125 -0.296875 1.21875 -0.296875q1.1875 0 1.96875 0.859375q0.78125 0.859375 0.78125 2.46875q0 1.296875 -0.4375 2.375q-0.421875 1.0625 -1.046875 1.71875q-0.625 0.640625 -1.265625 0.953125q-0.640625 0.296875 -1.3125 0.296875q-1.484375 0 -2.3125 -1.515625l-0.9375 4.515625l-1.421875 0zm2.8125 -6.578125q0 0.921875 0.125 1.28125q0.203125 0.515625 0.640625 0.828125q0.453125 0.3125 1.03125 0.3125q1.21875 0 1.96875 -1.375q0.75 -1.375 0.75 -2.796875q0 -1.0625 -0.5 -1.625q-0.5 -0.578125 -1.25 -0.578125q-0.546875 0 -1.015625 0.28125q-0.453125 0.28125 -0.84375 0.859375q-0.390625 0.5625 -0.65625 1.390625q-0.25 0.8125 -0.25 1.421875zm10.1015625 2.234375l-0.234375 1.171875q-0.515625 0.125 -0.984375 0.125q-0.84375 0 -1.34375 -0.421875q-0.375 -0.3125 -0.375 -0.84375q0 -0.28125 0.203125 -1.265625l1.0 -4.8125l-1.109375 0l0.21875 -1.09375l1.125 0l0.421875 -2.046875l1.625 -0.96875l-0.640625 3.015625l1.390625 0l-0.234375 1.09375l-1.375 0l-0.96875 4.578125q-0.171875 0.875 -0.171875 1.046875q0 0.25 0.140625 0.390625q0.140625 0.125 0.46875 0.125q0.46875 0 0.84375 -0.09375zm0.6015625 4.359375l0.09375 -1.328125q0.4375 0.125 0.84375 0.125q0.4375 0 0.703125 -0.1875q0.34375 -0.265625 0.75 -0.96875l0.453125 -0.8125l-1.390625 -8.328125l1.390625 0l0.625 4.1875q0.1875 1.25 0.328125 2.484375l3.703125 -6.671875l1.484375 0l-5.296875 9.40625q-0.765625 1.375 -1.359375 1.8125q-0.59375 0.453125 -1.359375 0.453125q-0.5 0 -0.96875 -0.171875z" fill-rule="nonzero"/><path fill="#ffffff" d="m194.03543 85.091866l84.944885 0l0 36.409447l-84.944885 0z" fill-rule="evenodd"/><path stroke="#000000" stroke-width="2.0" stroke-linejoin="round" stroke-linecap="butt" d="m194.03543 85.091866l84.944885 0l0 36.409447l-84.944885 0z" fill-rule="evenodd"/><path fill="#000000" d="m232.73053 103.500336q0 -2.03125 0.40625 -3.265625q0.421875 -1.234375 1.25 -1.90625q0.828125 -0.671875 2.078125 -0.671875q0.921875 0 1.609375 0.375q0.703125 0.359375 1.15625 1.0625q0.453125 0.703125 0.703125 1.703125q0.265625 1.0 0.265625 2.703125q0 2.015625 -0.421875 3.265625q-0.40625 1.234375 -1.234375 1.921875q-0.828125 0.671875 -2.078125 0.671875q-1.65625 0 -2.609375 -1.203125q-1.125 -1.421875 -1.125 -4.65625zm1.4375 0q0 2.828125 0.65625 3.765625q0.671875 0.921875 1.640625 0.921875q0.96875 0 1.625 -0.9375q0.65625 -0.9375 0.65625 -3.75q0 -2.828125 -0.65625 -3.75q-0.65625 -0.9375 -1.640625 -0.9375q-0.96875 0 -1.546875 0.828125q-0.734375 1.046875 -0.734375 3.859375z" fill-rule="nonzero"/><path fill="#000000" fill-opacity="0.0" d="m103.61024 130.57217c22.6063 0 33.909447 -15.921257 45.212593 -31.842514c11.303162 -15.921265 22.606308 -31.842522 45.2126 -31.842522" fill-rule="evenodd"/><path stroke="#000000" stroke-width="2.0" stroke-linejoin="round" stroke-linecap="butt" d="m111.16318 129.9323l0.4166565 -0.07533264c2.4946442 -0.46644592 4.834755 -1.1505585 7.0423965 -2.0212555c4.415291 -1.7413864 8.300751 -4.22908 11.832985 -7.2143173c7.0644684 -5.9704742 12.716049 -13.931099 18.367615 -21.891731c5.651581 -7.9606323 11.303162 -15.921265 18.36763 -21.891731c3.5322266 -2.9852371 7.417679 -5.4729385 11.832977 -7.214325c0.55192566 -0.21767426 1.1121063 -0.42368317 1.6809235 -0.6175461c0.28440857 -0.09693909 0.5709686 -0.19083405 0.8597107 -0.28163147c0.14437866 -0.045402527 0.2893219 -0.090026855 0.4347992 -0.13386536l0.1517334 -0.04473877" fill-rule="evenodd"/><path fill="#000000" stroke="#000000" stroke-width="2.0" stroke-linecap="butt" d="m104.60667 130.48776c-0.15338898 -1.8105316 1.1899948 -3.4026031 3.0005264 -3.5559845c1.8105316 -0.15338898 3.4026031 1.1899872 3.5559845 3.0005188c0.15338898 1.8105316 -1.1899948 3.4026031 -3.0005264 3.5559845c-1.8105316 0.1533966 -3.4025955 -1.1899872 -3.5559845 -3.0005188z" fill-rule="nonzero"/><path fill="#000000" stroke="#000000" stroke-width="2.0" stroke-linecap="butt" d="m182.60724 71.81758l8.532455 -4.526306l-9.445694 -2.0172043z" fill-rule="evenodd"/><path fill="#000000" fill-opacity="0.0" d="m16.877953 101.879265l55.1811 0l0 42.015755l-55.1811 0z" fill-rule="evenodd"/><path fill="#000000" d="m27.315453 128.45552l0 -1.6562576q1.75 0.875 3.046875 0.875q0.765625 0 1.28125 -0.40625q0.515625 -0.421875 0.515625 -1.0625q0 -0.390625 -0.25 -0.765625q-0.25 -0.359375 -1.171875 -0.75l-1.046875 -0.453125q-1.21875 -0.5 -1.765625 -1.15625q-0.5625 -0.65625 -0.5625 -1.609375q0 -1.203125 0.859375 -1.984375q0.875 -0.796875 2.5625 -0.796875q0.828125 0 2.046875 0.21875l0.375 0.078125l0 1.5q-1.5 -0.453125 -2.390625 -0.453125q-0.859375 0 -1.296875 0.375q-0.421875 0.375 -0.421875 0.890625q0 0.390625 0.28125 0.71875q0.296875 0.328125 1.03125 0.640625l0.859375 0.359375q1.734375 0.75 2.21875 1.46875q0.46875 0.71875 0.46875 1.5625q0 0.8125 -0.4375 1.5q-0.4375 0.6875076 -1.3125 1.0937576q-0.859375 0.390625 -1.90625 0.390625q-1.234375 0 -2.984375 -0.578125zm9.86969 3.9375l0 -13.484383l1.796875 0l0 1.859375q0.546875 -1.046875 1.375 -1.5625q0.828125 -0.515625 1.921875 -0.515625q1.84375 0 2.84375 1.34375q1.0 1.34375 1.0 3.515625q0 1.421875 -0.46875 2.703125q-0.46875 1.265625 -1.453125 2.0312576q-0.96875 0.75 -2.203125 0.75q-0.5 0 -1.3125 -0.15625q-0.796875 -0.140625 -1.703125 -1.2031326l0 4.7187576l-1.796875 0zm1.796875 -5.9531326q0.921875 0.8125 1.46875 1.03125q0.546875 0.203125 1.171875 0.203125q1.3125 0 1.9375 -1.109375q0.640625 -1.109375 0.640625 -2.828125q0 -1.609375 -0.5625 -2.546875q-0.546875 -0.9375 -1.734375 -0.9375q-0.734375 0 -1.46875 0.40625q-0.734375 0.40625 -1.453125 1.21875l0 4.5625zm13.023392 2.3593826l0 -12.140633l-2.125 0l0 -1.125l3.9375 -0.328125l0 13.593758l-1.8125 0z" fill-rule="nonzero"/><path fill="#000000" fill-opacity="0.0" d="m3.9776902 3.863517l520.66144 0l0 42.015747l-520.66144 0z" fill-rule="evenodd"/><path fill="#000000" d="m31.349867 21.502266q1.0000019 0 1.9687519 0.53125q0.96875 0.515625 1.5 1.484375q0.53125 0.96875 0.53125 2.0q0 1.671875 -1.171875 2.84375q-1.171875 1.171875 -2.828127 1.171875q-1.671875 0 -2.84375 -1.171875q-1.171875 -1.171875 -1.171875 -2.84375q0 -1.046875 0.53125 -2.0q0.546875 -0.96875 1.5 -1.484375q0.96875 -0.53125 1.984375 -0.53125z" fill-rule="nonzero"/><path fill="#000000" d="m62.41519 30.439766l0 -1.65625q1.75 0.875 3.046875 0.875q0.765625 0 1.28125 -0.40625q0.515625 -0.421875 0.515625 -1.0625q0 -0.390625 -0.25 -0.765625q-0.25 -0.359375 -1.171875 -0.75l-1.046875 -0.453125q-1.21875 -0.5 -1.765625 -1.15625q-0.5625 -0.65625 -0.5625 -1.609375q0 -1.203125 0.859375 -1.984375q0.875 -0.796875 2.5625 -0.796875q0.828125 0 2.046875 0.21875l0.375 0.078125l0 1.5q-1.5 -0.453125 -2.390625 -0.453125q-0.859375 0 -1.296875 0.375q-0.421875 0.375 -0.421875 0.890625q0 0.390625 0.28125 0.71875q0.296875 0.328125 1.03125 0.640625l0.859375 0.359375q1.734375 0.75 2.21875 1.46875q0.46875 0.71875 0.46875 1.5625q0 0.8125 -0.4375 1.5q-0.4375 0.6875 -1.3125 1.09375q-0.859375 0.390625 -1.90625 0.390625q-1.234375 0 -2.984375 -0.578125zm14.27594 0.34375q-0.828125 0.234375 -1.4375 0.234375q-1.328125 0 -2.109375 -0.765625q-0.78125 -0.78125 -0.78125 -2.203125l0 -5.8125l-1.25 0l0 -1.34375l1.25 0l0 -1.796875l1.78125 -0.171875l0 1.96875l2.59375 0l0 1.34375l-2.59375 0l0 5.484375q0 1.046875 0.40625 1.5q0.40625 0.4375 1.28125 0.4375q0.34375 0 0.859375 -0.109375l0 1.234375zm8.915375 0l0 -1.859375q-0.546875 1.046875 -1.375 1.578125q-0.8125 0.515625 -1.921875 0.515625q-1.8125 0 -2.828125 -1.34375q-1.0 -1.34375 -1.0 -3.53125q0 -2.34375 1.125 -3.90625q1.125 -1.5625 3.09375 -1.5625q0.5625 0 1.078125 0.140625q0.53125 0.125 0.9375 0.375q0.40625 0.25 0.890625 0.828125l0 -5.625l1.8125 0l0 14.390625l-1.8125 0zm0 -7.53125q-0.921875 -0.828125 -1.46875 -1.03125q-0.546875 -0.203125 -1.171875 -0.203125q-1.3125 0 -1.953125 1.109375q-0.625 1.09375 -0.625 2.84375q0 1.609375 0.5625 2.546875q0.5625 0.921875 1.734375 0.921875q0.75 0 1.484375 -0.40625q0.734375 -0.421875 1.4375 -1.234375l0 -4.546875zm5.6483917 7.53125l0 -1.796875l1.796875 0l0 1.796875l-1.796875 0zm0 -8.09375l0 -1.796875l1.796875 0l0 1.796875l-1.796875 0zm5.902954 8.09375l0 -1.796875l1.796875 0l0 1.796875l-1.796875 0zm0 -8.09375l0 -1.796875l1.796875 0l0 1.796875l-1.796875 0zm5.293579 7.75l0 -1.65625q1.75 0.875 3.046875 0.875q0.765625 0 1.28125 -0.40625q0.515625 -0.421875 0.515625 -1.0625q0 -0.390625 -0.25 -0.765625q-0.25 -0.359375 -1.171875 -0.75l-1.046875 -0.453125q-1.21875 -0.5 -1.765625 -1.15625q-0.5625 -0.65625 -0.5625 -1.609375q0 -1.203125 0.859375 -1.984375q0.875 -0.796875 2.5625 -0.796875q0.828125 0 2.046875 0.21875l0.375 0.078125l0 1.5q-1.5 -0.453125 -2.390625 -0.453125q-0.859375 0 -1.296875 0.375q-0.421875 0.375 -0.421875 0.890625q0 0.390625 0.28125 0.71875q0.296875 0.328125 1.03125 0.640625l0.859375 0.359375q1.734375 0.75 2.21875 1.46875q0.46875 0.71875 0.46875 1.5625q0 0.8125 -0.4375 1.5q-0.4375 0.6875 -1.3125 1.09375q-0.859375 0.390625 -1.90625 0.390625q-1.234375 0 -2.984375 -0.578125zm9.86969 0.34375l0 -14.390625l1.796875 0l0 6.359375q0.671875 -1.0 1.578125 -1.53125q0.90625 -0.546875 1.890625 -0.546875q1.25 0 2.03125 0.796875q0.796875 0.796875 0.796875 2.203125l0 7.109375l-1.796875 0l0 -6.515625q0 -1.03125 -0.1875 -1.359375q-0.1875 -0.328125 -0.515625 -0.5q-0.328125 -0.1875 -0.6875 -0.1875q-0.671875 0 -1.453125 0.40625q-0.765625 0.40625 -1.65625 1.75l0 6.40625l-1.796875 0zm16.67192 -1.25q-0.796875 0.734375 -1.578125 1.109375q-0.78125 0.375 -1.515625 0.375q-1.0625 0 -1.96875 -0.6875q-0.890625 -0.703125 -0.890625 -2.03125q0 -1.453125 1.25 -2.40625q1.265625 -0.953125 4.03125 -0.953125l0.40625 0l0 -1.203125q0 -0.703125 -0.1875 -1.03125q-0.1875 -0.328125 -0.59375 -0.5q-0.40625 -0.1875 -1.0 -0.1875q-1.40625 0 -3.046875 0.875l0 -1.484375q1.8125 -0.734375 3.40625 -0.734375q0.875 0 1.609375 0.28125q0.734375 0.265625 1.171875 0.875q0.4375 0.59375 0.4375 1.90625l0 4.484375q0 0.75 0.109375 1.015625q0.125 0.25 0.34375 0.390625q0.21875 0.140625 0.5 0.140625q0.109375 0 0.34375 -0.046875l0.125 1.0q-0.609375 0.296875 -1.34375 0.296875q-0.5 0 -0.953125 -0.3125q-0.453125 -0.328125 -0.65625 -1.171875zm-0.265625 -0.984375l0 -2.5625l-0.5625 -0.015625q-1.421875 0 -2.375 0.546875q-0.953125 0.546875 -0.953125 1.484375q0 0.65625 0.46875 1.109375q0.46875 0.4375 1.09375 0.4375q0.5625 0 1.140625 -0.25q0.59375 -0.25 1.1875 -0.75zm5.474716 2.234375l0 -9.890625l1.796875 0l0 1.859375q0.5 -1.0 1.3125 -1.53125q0.828125 -0.546875 1.78125 -0.546875q0.265625 0 0.578125 0.046875l0 1.671875q-0.453125 -0.15625 -0.828125 -0.15625q-0.84375 0 -1.5625 0.515625q-0.71875 0.5 -1.28125 1.515625l0 6.515625l-1.796875 0zm14.883759 -0.3125q-1.8125 0.546875 -3.09375 0.546875q-2.296875 0 -3.625 -1.546875q-1.3125 -1.5625 -1.3125 -3.671875q0 -1.40625 0.578125 -2.65625q0.578125 -1.265625 1.515625 -1.875q0.953125 -0.609375 2.234375 -0.609375q1.703125 0 2.71875 1.234375q1.03125 1.234375 1.03125 3.6875l-0.015625 0.53125l-6.234375 0q0.140625 1.3125 0.5625 2.03125q0.421875 0.703125 1.109375 1.109375q0.703125 0.390625 1.78125 0.390625q0.546875 0 1.078125 -0.09375q0.546875 -0.09375 1.671875 -0.5l0 1.421875zm-6.125 -5.703125l4.359375 0q0 -1.484375 -0.578125 -2.109375q-0.578125 -0.640625 -1.46875 -0.640625q-1.03125 0 -1.609375 0.6875q-0.578125 0.6875 -0.703125 2.0625zm15.612686 6.015625l0 -1.859375q-0.546875 1.046875 -1.375 1.578125q-0.8125 0.515625 -1.921875 0.515625q-1.8125 0 -2.828125 -1.34375q-1.0 -1.34375 -1.0 -3.53125q0 -2.34375 1.125 -3.90625q1.125 -1.5625 3.09375 -1.5625q0.5625 0 1.078125 0.140625q0.53125 0.125 0.9375 0.375q0.40625 0.25 0.890625 0.828125l0 -5.625l1.8125 0l0 14.390625l-1.8125 0zm0 -7.53125q-0.921875 -0.828125 -1.46875 -1.03125q-0.546875 -0.203125 -1.171875 -0.203125q-1.3125 0 -1.953125 1.109375q-0.625 1.09375 -0.625 2.84375q0 1.609375 0.5625 2.546875q0.5625 0.921875 1.734375 0.921875q0.75 0 1.484375 -0.40625q0.734375 -0.421875 1.4375 -1.234375l0 -4.546875zm4.3827667 8.875l0 -1.34375l7.75 0l0 1.34375l-7.75 0zm10.34375 2.25l0 -13.484375l1.796875 0l0 1.859375q0.546875 -1.046875 1.375 -1.5625q0.828125 -0.515625 1.921875 -0.515625q1.84375 0 2.84375 1.34375q1.0 1.34375 1.0 3.515625q0 1.421875 -0.46875 2.703125q-0.46875 1.265625 -1.453125 2.03125q-0.96875 0.75 -2.203125 0.75q-0.5 0 -1.3125 -0.15625q-0.796875 -0.140625 -1.703125 -1.203125l0 4.71875l-1.796875 0zm1.796875 -5.953125q0.921875 0.8125 1.46875 1.03125q0.546875 0.203125 1.171875 0.203125q1.3125 0 1.9375 -1.109375q0.640625 -1.109375 0.640625 -2.828125q0 -1.609375 -0.5625 -2.546875q-0.546875 -0.9375 -1.734375 -0.9375q-0.734375 0 -1.46875 0.40625q-0.734375 0.40625 -1.453125 1.21875l0 4.5625zm14.351517 2.359375q-0.828125 0.234375 -1.4375 0.234375q-1.328125 0 -2.109375 -0.765625q-0.78125 -0.78125 -0.78125 -2.203125l0 -5.8125l-1.25 0l0 -1.34375l1.25 0l0 -1.796875l1.78125 -0.171875l0 1.96875l2.59375 0l0 1.34375l-2.59375 0l0 5.484375q0 1.046875 0.40625 1.5q0.40625 0.4375 1.28125 0.4375q0.34375 0 0.859375 -0.109375l0 1.234375zm2.5716248 0l0 -9.890625l1.796875 0l0 1.859375q0.5 -1.0 1.3125 -1.53125q0.828125 -0.546875 1.78125 -0.546875q0.265625 0 0.578125 0.046875l0 1.671875q-0.453125 -0.15625 -0.828125 -0.15625q-0.84375 0 -1.5625 0.515625q-0.71875 0.5 -1.28125 1.515625l0 6.515625l-1.796875 0zm16.680634 -0.453125l-9.890625 -4.9375l9.890625 -4.953125l0 1.578125l-6.875 3.375l6.875 3.375l0 1.5625zm5.6092987 0.453125l0 -5.625l-4.5 -7.859375l2.1875 0l3.5 6.09375l3.765625 -6.09375l1.78125 0l-4.828125 7.8125l0 5.671875l-1.90625 0zm7.9205933 -10.34375l9.890625 4.953125l-9.890625 4.9375l0 -1.5625l6.875 -3.375l-6.875 -3.375l0 -1.578125zm18.184128 10.0l0 -1.65625q1.75 0.875 3.046875 0.875q0.765625 0 1.28125 -0.40625q0.515625 -0.421875 0.515625 -1.0625q0 -0.390625 -0.25 -0.765625q-0.25 -0.359375 -1.171875 -0.75l-1.046875 -0.453125q-1.21875 -0.5 -1.765625 -1.15625q-0.5625 -0.65625 -0.5625 -1.609375q0 -1.203125 0.859375 -1.984375q0.875 -0.796875 2.5625 -0.796875q0.828125 0 2.046875 0.21875l0.375 0.078125l0 1.5q-1.5 -0.453125 -2.390625 -0.453125q-0.859375 0 -1.296875 0.375q-0.421875 0.375 -0.421875 0.890625q0 0.390625 0.28125 0.71875q0.296875 0.328125 1.03125 0.640625l0.859375 0.359375q1.734375 0.75 2.21875 1.46875q0.46875 0.71875 0.46875 1.5625q0 0.8125 -0.4375 1.5q-0.4375 0.6875 -1.3125 1.09375q-0.859375 0.390625 -1.90625 0.390625q-1.234375 0 -2.984375 -0.578125zm9.86969 3.9375l0 -13.484375l1.796875 0l0 1.859375q0.546875 -1.046875 1.375 -1.5625q0.828125 -0.515625 1.921875 -0.515625q1.84375 0 2.84375 1.34375q1.0 1.34375 1.0 3.515625q0 1.421875 -0.46875 2.703125q-0.46875 1.265625 -1.453125 2.03125q-0.96875 0.75 -2.203125 0.75q-0.5 0 -1.3125 -0.15625q-0.796875 -0.140625 -1.703125 -1.203125l0 4.71875l-1.796875 0zm1.796875 -5.953125q0.921875 0.8125 1.46875 1.03125q0.546875 0.203125 1.171875 0.203125q1.3125 0 1.9375 -1.109375q0.640625 -1.109375 0.640625 -2.828125q0 -1.609375 -0.5625 -2.546875q-0.546875 -0.9375 -1.734375 -0.9375q-0.734375 0 -1.46875 0.40625q-0.734375 0.40625 -1.453125 1.21875l0 4.5625zm9.695251 2.359375l0 -1.578125q0.78125 -1.828125 3.171875 -3.984375l1.03125 -0.921875q1.125 -1.015625 1.546875 -1.84375q0.4375 -0.828125 0.4375 -1.71875q0 -1.140625 -0.703125 -1.78125q-0.6875 -0.640625 -1.84375 -0.640625q-0.5 0 -0.96875 0.09375q-0.453125 0.09375 -0.984375 0.3125q-0.515625 0.203125 -1.34375 0.671875l0 -1.578125q1.796875 -0.84375 3.5625 -0.84375q1.9375 0 3.0625 1.0625q1.125 1.0625 1.125 2.65625q0 1.03125 -0.46875 1.953125q-0.453125 0.921875 -2.265625 2.46875l-0.6875 0.59375q-0.765625 0.640625 -1.53125 1.5625q-0.765625 0.90625 -0.96875 1.9375l5.859375 0l0 1.578125l-8.03125 0zm10.484314 -6.515625l0.4375 0q1.390625 0 1.390625 -1.46875q0 -0.625 -0.140625 -1.28125l-0.171875 -0.796875q-0.171875 -0.765625 -0.171875 -1.53125q0 -0.703125 0.375 -1.34375q0.390625 -0.640625 1.03125 -1.0q0.65625 -0.375 1.859375 -0.453125l0 1.359375l-0.265625 0q-0.484375 0 -0.96875 0.28125q-0.46875 0.28125 -0.46875 0.84375q0 0.203125 0.125 0.859375l0.15625 0.9375q0.09375 0.59375 0.09375 1.421875q0 0.96875 -0.328125 1.609375q-0.3125 0.640625 -1.015625 1.234375q0.703125 0.59375 1.015625 1.234375q0.328125 0.640625 0.328125 1.625q0 0.8125 -0.09375 1.40625l-0.15625 0.9375q-0.125 0.65625 -0.125 0.875q0 0.546875 0.46875 0.828125q0.46875 0.28125 0.96875 0.28125l0.265625 0l0 1.359375q-1.203125 -0.078125 -1.859375 -0.453125q-0.640625 -0.359375 -1.03125 -1.0q-0.375 -0.640625 -0.375 -1.359375q0 -0.75 0.171875 -1.515625l0.171875 -0.796875q0.140625 -0.65625 0.140625 -1.296875q0 -1.453125 -1.390625 -1.453125l-0.4375 0l0 -1.34375zm13.173004 6.171875l0 -1.65625q1.75 0.875 3.046875 0.875q0.765625 0 1.28125 -0.40625q0.515625 -0.421875 0.515625 -1.0625q0 -0.390625 -0.25 -0.765625q-0.25 -0.359375 -1.171875 -0.75l-1.046875 -0.453125q-1.21875 -0.5 -1.765625 -1.15625q-0.5625 -0.65625 -0.5625 -1.609375q0 -1.203125 0.859375 -1.984375q0.875 -0.796875 2.5625 -0.796875q0.828125 0 2.046875 0.21875l0.375 0.078125l0 1.5q-1.5 -0.453125 -2.390625 -0.453125q-0.859375 0 -1.296875 0.375q-0.421875 0.375 -0.421875 0.890625q0 0.390625 0.28125 0.71875q0.296875 0.328125 1.03125 0.640625l0.859375 0.359375q1.734375 0.75 2.21875 1.46875q0.46875 0.71875 0.46875 1.5625q0 0.8125 -0.4375 1.5q-0.4375 0.6875 -1.3125 1.09375q-0.859375 0.390625 -1.90625 0.390625q-1.234375 0 -2.984375 -0.578125zm14.27594 0.34375q-0.828125 0.234375 -1.4375 0.234375q-1.328125 0 -2.109375 -0.765625q-0.78125 -0.78125 -0.78125 -2.203125l0 -5.8125l-1.25 0l0 -1.34375l1.25 0l0 -1.796875l1.78125 -0.171875l0 1.96875l2.59375 0l0 1.34375l-2.59375 0l0 5.484375q0 1.046875 0.40625 1.5q0.40625 0.4375 1.28125 0.4375q0.34375 0 0.859375 -0.109375l0 1.234375zm8.915375 0l0 -1.859375q-0.546875 1.046875 -1.375 1.578125q-0.8125 0.515625 -1.921875 0.515625q-1.8125 0 -2.828125 -1.34375q-1.0 -1.34375 -1.0 -3.53125q0 -2.34375 1.125 -3.90625q1.125 -1.5625 3.09375 -1.5625q0.5625 0 1.078125 0.140625q0.53125 0.125 0.9375 0.375q0.40625 0.25 0.890625 0.828125l0 -5.625l1.8125 0l0 14.390625l-1.8125 0zm0 -7.53125q-0.921875 -0.828125 -1.46875 -1.03125q-0.546875 -0.203125 -1.171875 -0.203125q-1.3125 0 -1.953125 1.109375q-0.625 1.09375 -0.625 2.84375q0 1.609375 0.5625 2.546875q0.5625 0.921875 1.734375 0.921875q0.75 0 1.484375 -0.40625q0.734375 -0.421875 1.4375 -1.234375l0 -4.546875zm5.6483765 7.53125l0 -1.796875l1.796875 0l0 1.796875l-1.796875 0zm0 -8.09375l0 -1.796875l1.796875 0l0 1.796875l-1.796875 0zm5.902954 8.09375l0 -1.796875l1.796875 0l0 1.796875l-1.796875 0zm0 -8.09375l0 -1.796875l1.796875 0l0 1.796875l-1.796875 0zm5.652954 8.09375l0 -9.890625l1.796875 0l0 1.859375q0.546875 -0.875 1.390625 -1.46875q0.859375 -0.609375 1.96875 -0.609375q0.65625 0 1.140625 0.21875q0.484375 0.203125 0.875 0.59375q0.390625 0.375 0.703125 1.265625q0.546875 -0.890625 1.375 -1.484375q0.84375 -0.609375 1.9375 -0.609375q1.046875 0 1.890625 0.65625q0.859375 0.65625 0.859375 2.265625l0 7.203125l-1.8125 0l0 -6.921875q0 -0.96875 -0.421875 -1.328125q-0.40625 -0.359375 -0.90625 -0.359375q-0.640625 0 -1.328125 0.40625q-0.6875 0.390625 -1.59375 1.578125l0 6.625l-1.8125 0l0 -6.921875q0 -0.984375 -0.421875 -1.34375q-0.421875 -0.359375 -0.9375 -0.359375q-0.65625 0 -1.3125 0.40625q-0.65625 0.390625 -1.59375 1.59375l0 6.625l-1.796875 0zm22.511108 -1.25q-0.796875 0.734375 -1.578125 1.109375q-0.78125 0.375 -1.515625 0.375q-1.0625 0 -1.96875 -0.6875q-0.890625 -0.703125 -0.890625 -2.03125q0 -1.453125 1.25 -2.40625q1.265625 -0.953125 4.03125 -0.953125l0.40625 0l0 -1.203125q0 -0.703125 -0.1875 -1.03125q-0.1875 -0.328125 -0.59375 -0.5q-0.40625 -0.1875 -1.0 -0.1875q-1.40625 0 -3.046875 0.875l0 -1.484375q1.8125 -0.734375 3.40625 -0.734375q0.875 0 1.609375 0.28125q0.734375 0.265625 1.171875 0.875q0.4375 0.59375 0.4375 1.90625l0 4.484375q0 0.75 0.109375 1.015625q0.125 0.25 0.34375 0.390625q0.21875 0.140625 0.5 0.140625q0.109375 0 0.34375 -0.046875l0.125 1.0q-0.609375 0.296875 -1.34375 0.296875q-0.5 0 -0.953125 -0.3125q-0.453125 -0.328125 -0.65625 -1.171875zm-0.265625 -0.984375l0 -2.5625l-0.5625 -0.015625q-1.421875 0 -2.375 0.546875q-0.953125 0.546875 -0.953125 1.484375q0 0.65625 0.46875 1.109375q0.46875 0.4375 1.09375 0.4375q0.5625 0 1.140625 -0.25q0.59375 -0.25 1.1875 -0.75zm5.4747314 2.234375l0 -14.390625l1.796875 0l0 9.296875l4.1875 -4.796875l1.921875 0l-3.984375 4.609375l4.828125 5.28125l-2.296875 0l-4.65625 -5.078125l0 5.078125l-1.796875 0zm18.154053 -0.3125q-1.8125 0.546875 -3.09375 0.546875q-2.296875 0 -3.625 -1.546875q-1.3125 -1.5625 -1.3125 -3.671875q0 -1.40625 0.578125 -2.65625q0.578125 -1.265625 1.515625 -1.875q0.953125 -0.609375 2.234375 -0.609375q1.703125 0 2.71875 1.234375q1.03125 1.234375 1.03125 3.6875l-0.015625 0.53125l-6.234375 0q0.140625 1.3125 0.5625 2.03125q0.421875 0.703125 1.109375 1.109375q0.703125 0.390625 1.78125 0.390625q0.546875 0 1.078125 -0.09375q0.546875 -0.09375 1.671875 -0.5l0 1.421875zm-6.125 -5.703125l4.359375 0q0 -1.484375 -0.578125 -2.109375q-0.578125 -0.640625 -1.46875 -0.640625q-1.03125 0 -1.609375 0.6875q-0.578125 0.6875 -0.703125 2.0625zm8.253296 7.359375l0 -1.34375l7.75 0l0 1.34375l-7.75 0zm9.984375 -1.6875l0 -1.65625q1.75 0.875 3.046875 0.875q0.765625 0 1.28125 -0.40625q0.515625 -0.421875 0.515625 -1.0625q0 -0.390625 -0.25 -0.765625q-0.25 -0.359375 -1.171875 -0.75l-1.046875 -0.453125q-1.21875 -0.5 -1.765625 -1.15625q-0.5625 -0.65625 -0.5625 -1.609375q0 -1.203125 0.859375 -1.984375q0.875 -0.796875 2.5625 -0.796875q0.828125 0 2.046875 0.21875l0.375 0.078125l0 1.5q-1.5 -0.453125 -2.390625 -0.453125q-0.859375 0 -1.296875 0.375q-0.421875 0.375 -0.421875 0.890625q0 0.390625 0.28125 0.71875q0.296875 0.328125 1.03125 0.640625l0.859375 0.359375q1.734375 0.75 2.21875 1.46875q0.46875 0.71875 0.46875 1.5625q0 0.8125 -0.4375 1.5q-0.4375 0.6875 -1.3125 1.09375q-0.859375 0.390625 -1.90625 0.390625q-1.234375 0 -2.984375 -0.578125zm9.86969 0.34375l0 -14.390625l1.796875 0l0 6.359375q0.671875 -1.0 1.578125 -1.53125q0.90625 -0.546875 1.890625 -0.546875q1.25 0 2.03125 0.796875q0.796875 0.796875 0.796875 2.203125l0 7.109375l-1.796875 0l0 -6.515625q0 -1.03125 -0.1875 -1.359375q-0.1875 -0.328125 -0.515625 -0.5q-0.328125 -0.1875 -0.6875 -0.1875q-0.671875 0 -1.453125 0.40625q-0.765625 0.40625 -1.65625 1.75l0 6.40625l-1.796875 0zm16.671936 -1.25q-0.796875 0.734375 -1.578125 1.109375q-0.78125 0.375 -1.515625 0.375q-1.0625 0 -1.96875 -0.6875q-0.890625 -0.703125 -0.890625 -2.03125q0 -1.453125 1.25 -2.40625q1.265625 -0.953125 4.03125 -0.953125l0.40625 0l0 -1.203125q0 -0.703125 -0.1875 -1.03125q-0.1875 -0.328125 -0.59375 -0.5q-0.40625 -0.1875 -1.0 -0.1875q-1.40625 0 -3.046875 0.875l0 -1.484375q1.8125 -0.734375 3.40625 -0.734375q0.875 0 1.609375 0.28125q0.734375 0.265625 1.171875 0.875q0.4375 0.59375 0.4375 1.90625l0 4.484375q0 0.75 0.109375 1.015625q0.125 0.25 0.34375 0.390625q0.21875 0.140625 0.5 0.140625q0.109375 0 0.34375 -0.046875l0.125 1.0q-0.609375 0.296875 -1.34375 0.296875q-0.5 0 -0.953125 -0.3125q-0.453125 -0.328125 -0.65625 -1.171875zm-0.265625 -0.984375l0 -2.5625l-0.5625 -0.015625q-1.421875 0 -2.375 0.546875q-0.953125 0.546875 -0.953125 1.484375q0 0.65625 0.46875 1.109375q0.46875 0.4375 1.09375 0.4375q0.5625 0 1.140625 -0.25q0.59375 -0.25 1.1875 -0.75zm5.4747314 2.234375l0 -9.890625l1.796875 0l0 1.859375q0.5 -1.0 1.3125 -1.53125q0.828125 -0.546875 1.78125 -0.546875q0.265625 0 0.578125 0.046875l0 1.671875q-0.453125 -0.15625 -0.828125 -0.15625q-0.84375 0 -1.5625 0.515625q-0.71875 0.5 -1.28125 1.515625l0 6.515625l-1.796875 0zm14.883759 -0.3125q-1.8125 0.546875 -3.09375 0.546875q-2.296875 0 -3.625 -1.546875q-1.3125 -1.5625 -1.3125 -3.671875q0 -1.40625 0.578125 -2.65625q0.578125 -1.265625 1.515625 -1.875q0.953125 -0.609375 2.234375 -0.609375q1.703125 0 2.71875 1.234375q1.03125 1.234375 1.03125 3.6875l-0.015625 0.53125l-6.234375 0q0.140625 1.3125 0.5625 2.03125q0.421875 0.703125 1.109375 1.109375q0.703125 0.390625 1.78125 0.390625q0.546875 0 1.078125 -0.09375q0.546875 -0.09375 1.671875 -0.5l0 1.421875zm-6.125 -5.703125l4.359375 0q0 -1.484375 -0.578125 -2.109375q-0.578125 -0.640625 -1.46875 -0.640625q-1.03125 0 -1.609375 0.6875q-0.578125 0.6875 -0.703125 2.0625zm15.612701 6.015625l0 -1.859375q-0.546875 1.046875 -1.375 1.578125q-0.8125 0.515625 -1.921875 0.515625q-1.8125 0 -2.828125 -1.34375q-1.0 -1.34375 -1.0 -3.53125q0 -2.34375 1.125 -3.90625q1.125 -1.5625 3.09375 -1.5625q0.5625 0 1.078125 0.140625q0.53125 0.125 0.9375 0.375q0.40625 0.25 0.890625 0.828125l0 -5.625l1.8125 0l0 14.390625l-1.8125 0zm0 -7.53125q-0.921875 -0.828125 -1.46875 -1.03125q-0.546875 -0.203125 -1.171875 -0.203125q-1.3125 0 -1.953125 1.109375q-0.625 1.09375 -0.625 2.84375q0 1.609375 0.5625 2.546875q0.5625 0.921875 1.734375 0.921875q0.75 0 1.484375 -0.40625q0.734375 -0.421875 1.4375 -1.234375l0 -4.546875zm14.445251 7.078125l-9.890625 -4.9375l9.890625 -4.953125l0 1.578125l-6.875 3.375l6.875 3.375l0 1.5625zm5.609314 0.453125l0 -5.625l-4.5 -7.859375l2.1875 0l3.5 6.09375l3.765625 -6.09375l1.78125 0l-4.828125 7.8125l0 5.671875l-1.90625 0zm7.9205933 -10.34375l9.890625 4.953125l-9.890625 4.9375l0 -1.5625l6.875 -3.375l-6.875 -3.375l0 -1.578125zm16.234314 11.796875l0 1.25q-1.484375 -1.015625 -2.40625 -2.421875q-0.921875 -1.40625 -1.390625 -3.0q-0.46875 -1.59375 -0.46875 -3.125q0 -1.53125 0.46875 -3.125q0.46875 -1.59375 1.390625 -3.0q0.921875 -1.40625 2.40625 -2.421875l0 1.25q-1.03125 1.109375 -1.53125 2.171875q-0.484375 1.046875 -0.71875 2.359375q-0.21875 1.3125 -0.21875 2.765625q0 1.453125 0.21875 2.765625q0.234375 1.3125 0.71875 2.375q0.5 1.046875 1.53125 2.15625zm1.348175 -14.59375l0 -1.25q1.484375 1.015625 2.40625 2.421875q0.921875 1.40625 1.390625 3.0q0.484375 1.59375 0.484375 3.125q0 1.53125 -0.484375 3.125q-0.46875 1.59375 -1.390625 3.0q-0.921875 1.40625 -2.40625 2.421875l0 -1.25q1.03125 -1.109375 1.515625 -2.15625q0.5 -1.0625 0.71875 -2.375q0.234375 -1.328125 0.234375 -2.765625q0 -1.4375 -0.234375 -2.75q-0.21875 -1.328125 -0.71875 -2.375q-0.484375 -1.0625 -1.515625 -2.171875zm17.141754 7.96875l-0.453125 0q-1.375 0 -1.375 1.46875q0 0.625 0.140625 1.28125l0.171875 0.796875q0.171875 0.765625 0.171875 1.53125q0 0.703125 -0.390625 1.34375q-0.390625 0.640625 -1.03125 1.0q-0.640625 0.375 -1.84375 0.453125l0 -1.359375l0.265625 0q0.5 0 0.96875 -0.28125q0.46875 -0.28125 0.46875 -0.828125q0 -0.25 -0.125 -0.875l-0.15625 -0.9375q-0.109375 -0.578125 -0.109375 -1.4375q0 -0.9375 0.3125 -1.578125q0.3125 -0.640625 1.03125 -1.25q-0.703125 -0.59375 -1.03125 -1.234375q-0.3125 -0.640625 -0.3125 -1.609375q0 -0.84375 0.109375 -1.421875l0.15625 -0.9375q0.125 -0.625 0.125 -0.875q0 -0.546875 -0.484375 -0.828125q-0.46875 -0.28125 -0.953125 -0.28125l-0.265625 0l0 -1.359375q1.203125 0.078125 1.84375 0.453125q0.640625 0.359375 1.03125 1.0q0.390625 0.640625 0.390625 1.359375q0 0.75 -0.171875 1.515625l-0.171875 0.796875q-0.140625 0.65625 -0.140625 1.296875q0 1.453125 1.375 1.453125l0.453125 0l0 1.34375zm2.27005 8.09375l0 -0.671875q0.34375 -0.1875 0.5 -0.59375q0.15625 -0.40625 0.15625 -1.453125l0 -0.203125l-0.65625 0l0 -1.796875l1.796875 0l0 1.515625q0 1.171875 -0.203125 1.703125q-0.203125 0.53125 -0.640625 0.953125q-0.4375 0.421875 -0.953125 0.546875zm0 -11.015625l0 -1.796875l1.796875 0l0 1.796875l-1.796875 0z" fill-rule="nonzero"/><path fill="#ffffff" d="m63.96719 265.77692l84.944885 0l0 36.409424l-84.944885 0z" fill-rule="evenodd"/><path stroke="#000000" stroke-width="2.0" stroke-linejoin="round" stroke-linecap="butt" d="m63.96719 265.77692l84.944885 0l0 36.409424l-84.944885 0z" fill-rule="evenodd"/><path fill="#ffffff" d="m63.96719 302.18634l84.944885 0l0 36.409454l-84.944885 0z" fill-rule="evenodd"/><path stroke="#000000" stroke-width="2.0" stroke-linejoin="round" stroke-linecap="butt" d="m63.96719 302.18634l84.944885 0l0 36.409454l-84.944885 0z" fill-rule="evenodd"/><path fill="#000000" d="m107.95917 326.25107l-1.40625 0l0 -8.96875q-0.515625 0.484375 -1.34375 0.96875q-0.8125 0.484375 -1.46875 0.734375l0 -1.359375q1.171875 -0.5625 2.046875 -1.34375q0.890625 -0.796875 1.265625 -1.53125l0.90625 0l0 11.5z" fill-rule="nonzero"/><path fill="#ffffff" d="m194.03543 203.30446l84.944885 0l0 36.409454l-84.944885 0z" fill-rule="evenodd"/><path stroke="#000000" stroke-width="2.0" stroke-linejoin="round" stroke-linecap="butt" d="m194.03543 203.30446l84.944885 0l0 36.409454l-84.944885 0z" fill-rule="evenodd"/><path fill="#000000" d="m221.34772 224.54106l1.375 0.140625q-0.296875 1.03125 -1.359375 1.953125q-1.0625 0.921875 -2.546875 0.921875q-0.921875 0 -1.6875 -0.421875q-0.765625 -0.4375 -1.171875 -1.25q-0.40625 -0.8125 -0.40625 -1.84375q0 -1.359375 0.625 -2.640625q0.640625 -1.28125 1.640625 -1.890625q1.0 -0.625 2.15625 -0.625q1.484375 0 2.375 0.921875q0.890625 0.921875 0.890625 2.515625q0 0.609375 -0.109375 1.25l-6.109375 0q-0.03125 0.234375 -0.03125 0.4375q0 1.15625 0.53125 1.78125q0.53125 0.609375 1.3125 0.609375q0.71875 0 1.421875 -0.46875q0.703125 -0.484375 1.09375 -1.390625zm-4.109375 -2.046875l4.65625 0q0.015625 -0.21875 0.015625 -0.3125q0 -1.0625 -0.53125 -1.625q-0.53125 -0.578125 -1.375 -0.578125q-0.90625 0 -1.65625 0.625q-0.734375 0.625 -1.109375 1.890625zm6.9140625 4.875l1.734375 -8.296875l1.40625 0l-0.28125 1.359375q0.78125 -0.875 1.40625 -1.203125q0.625 -0.34375 1.34375 -0.34375q0.78125 0 1.296875 0.40625q0.515625 0.40625 0.6875 1.140625q0.625 -0.78125 1.328125 -1.15625q0.703125 -0.390625 1.46875 -0.390625q1.046875 0 1.5625 0.5q0.515625 0.484375 0.515625 1.375q0 0.375 -0.171875 1.265625l-1.125 5.34375l-1.40625 0l1.140625 -5.484375q0.140625 -0.671875 0.140625 -0.96875q0 -0.40625 -0.265625 -0.640625q-0.25 -0.234375 -0.71875 -0.234375q-0.625 0 -1.28125 0.390625q-0.65625 0.375 -1.03125 1.0q-0.359375 0.625 -0.625 1.90625l-0.84375 4.03125l-1.421875 0l1.171875 -5.609375q0.125 -0.5625 0.125 -0.8125q0 -0.40625 -0.25 -0.65625q-0.25 -0.25 -0.65625 -0.25q-0.609375 0 -1.265625 0.390625q-0.65625 0.375 -1.078125 1.0625q-0.40625 0.6875 -0.671875 1.953125l-0.828125 3.921875l-1.40625 0zm12.625 3.1875l2.40625 -11.484375l1.3125 0l-0.25 1.15625q0.734375 -0.765625 1.296875 -1.046875q0.578125 -0.296875 1.21875 -0.296875q1.1875 0 1.96875 0.859375q0.78125 0.859375 0.78125 2.46875q0 1.296875 -0.4375 2.375q-0.421875 1.0625 -1.046875 1.71875q-0.625 0.640625 -1.265625 0.953125q-0.640625 0.296875 -1.3125 0.296875q-1.484375 0 -2.3125 -1.515625l-0.9375 4.515625l-1.421875 0zm2.8125 -6.578125q0 0.921875 0.125 1.28125q0.203125 0.515625 0.640625 0.828125q0.453125 0.3125 1.03125 0.3125q1.21875 0 1.96875 -1.375q0.75 -1.375 0.75 -2.796875q0 -1.0625 -0.5 -1.625q-0.5 -0.578125 -1.25 -0.578125q-0.546875 0 -1.015625 0.28125q-0.453125 0.28125 -0.84375 0.859375q-0.390625 0.5625 -0.65625 1.390625q-0.25 0.8125 -0.25 1.421875zm10.1015625 2.234375l-0.234375 1.171875q-0.515625 0.125 -0.984375 0.125q-0.84375 0 -1.34375 -0.421875q-0.375 -0.3125 -0.375 -0.84375q0 -0.28125 0.203125 -1.265625l1.0 -4.8125l-1.109375 0l0.21875 -1.09375l1.125 0l0.421875 -2.046875l1.625 -0.96875l-0.640625 3.015625l1.390625 0l-0.234375 1.09375l-1.375 0l-0.96875 4.578125q-0.171875 0.875 -0.171875 1.046875q0 0.25 0.140625 0.390625q0.140625 0.125 0.46875 0.125q0.46875 0 0.84375 -0.09375zm0.6015625 4.359375l0.09375 -1.328125q0.4375 0.125 0.84375 0.125q0.4375 0 0.703125 -0.1875q0.34375 -0.265625 0.75 -0.96875l0.453125 -0.8125l-1.390625 -8.328125l1.390625 0l0.625 4.1875q0.1875 1.25 0.328125 2.484375l3.703125 -6.671875l1.484375 0l-5.296875 9.40625q-0.765625 1.375 -1.359375 1.8125q-0.59375 0.453125 -1.359375 0.453125q-0.5 0 -0.96875 -0.171875z" fill-rule="nonzero"/><path fill="#ffffff" d="m194.03543 239.71391l84.944885 0l0 36.40944l-84.944885 0z" fill-rule="evenodd"/><path stroke="#000000" stroke-width="2.0" stroke-linejoin="round" stroke-linecap="butt" d="m194.03543 239.71391l84.944885 0l0 36.40944l-84.944885 0z" fill-rule="evenodd"/><path fill="#000000" d="m232.73053 258.12238q0 -2.03125 0.40625 -3.2656097q0.421875 -1.234375 1.25 -1.90625q0.828125 -0.671875 2.078125 -0.671875q0.921875 0 1.609375 0.375q0.703125 0.359375 1.15625 1.0625q0.453125 0.703125 0.703125 1.703125q0.265625 0.99998474 0.265625 2.7031097q0 2.015625 -0.421875 3.265625q-0.40625 1.234375 -1.234375 1.921875q-0.828125 0.671875 -2.078125 0.671875q-1.65625 0 -2.609375 -1.203125q-1.125 -1.421875 -1.125 -4.65625zm1.4375 0q0 2.828125 0.65625 3.765625q0.671875 0.921875 1.640625 0.921875q0.96875 0 1.625 -0.9375q0.65625 -0.9375 0.65625 -3.75q0 -2.8281097 -0.65625 -3.7499847q-0.65625 -0.9375 -1.640625 -0.9375q-0.96875 0 -1.546875 0.828125q-0.734375 1.046875 -0.734375 3.8593597z" fill-rule="nonzero"/><path fill="#000000" fill-opacity="0.0" d="m103.61024 285.1942c22.6063 0 33.909447 -15.921234 45.212593 -31.842514c11.303162 -15.921249 22.606308 -31.842514 45.2126 -31.842514" fill-rule="evenodd"/><path stroke="#000000" stroke-width="2.0" stroke-linejoin="round" stroke-linecap="butt" d="m111.16318 284.55435l0.4166565 -0.0753479c2.4946442 -0.46643066 4.834755 -1.1505432 7.0423965 -2.0212402c4.415291 -1.741394 8.300751 -4.2290955 11.832985 -7.214325c7.0644684 -5.970459 12.716049 -13.931091 18.367615 -21.891739c5.651581 -7.960617 11.303162 -15.921249 18.36763 -21.891724c3.5322266 -2.9852448 7.417679 -5.472931 11.832977 -7.214325c0.55192566 -0.21768188 1.1121063 -0.42367554 1.6809235 -0.6175537c0.28440857 -0.09692383 0.5709686 -0.19082642 0.8597107 -0.2816162c0.14437866 -0.045410156 0.2893219 -0.090026855 0.4347992 -0.13388062l0.1517334 -0.04472351" fill-rule="evenodd"/><path fill="#000000" stroke="#000000" stroke-width="2.0" stroke-linecap="butt" d="m104.60667 285.1098c-0.15338898 -1.8105164 1.1899948 -3.402588 3.0005264 -3.5559692c1.8105316 -0.15341187 3.4026031 1.1899719 3.5559845 3.0005188c0.15338898 1.8105164 -1.1899948 3.402588 -3.0005264 3.5559692c-1.8105316 0.15341187 -3.4025955 -1.1899719 -3.5559845 -3.0005188z" fill-rule="nonzero"/><path fill="#000000" stroke="#000000" stroke-width="2.0" stroke-linecap="butt" d="m182.60724 226.43962l8.532455 -4.526291l-9.445694 -2.017212z" fill-rule="evenodd"/><path fill="#000000" fill-opacity="0.0" d="m16.877953 256.5013l55.1811 0l0 42.015747l-55.1811 0z" fill-rule="evenodd"/><path fill="#000000" d="m27.315453 283.07758l0 -1.65625q1.75 0.875 3.046875 0.875q0.765625 0 1.28125 -0.40625q0.515625 -0.421875 0.515625 -1.0625q0 -0.390625 -0.25 -0.765625q-0.25 -0.359375 -1.171875 -0.75l-1.046875 -0.453125q-1.21875 -0.5 -1.765625 -1.15625q-0.5625 -0.65625 -0.5625 -1.609375q0 -1.203125 0.859375 -1.984375q0.875 -0.796875 2.5625 -0.796875q0.828125 0 2.046875 0.21875l0.375 0.078125l0 1.5q-1.5 -0.453125 -2.390625 -0.453125q-0.859375 0 -1.296875 0.375q-0.421875 0.375 -0.421875 0.890625q0 0.390625 0.28125 0.71875q0.296875 0.328125 1.03125 0.640625l0.859375 0.359375q1.734375 0.75 2.21875 1.46875q0.46875 0.71875 0.46875 1.5625q0 0.8125 -0.4375 1.5q-0.4375 0.6875 -1.3125 1.09375q-0.859375 0.390625 -1.90625 0.390625q-1.234375 0 -2.984375 -0.578125zm9.86969 3.9375l0 -13.484375l1.796875 0l0 1.859375q0.546875 -1.046875 1.375 -1.5625q0.828125 -0.515625 1.921875 -0.515625q1.84375 0 2.84375 1.34375q1.0 1.34375 1.0 3.515625q0 1.421875 -0.46875 2.703125q-0.46875 1.265625 -1.453125 2.03125q-0.96875 0.75 -2.203125 0.75q-0.5 0 -1.3125 -0.15625q-0.796875 -0.140625 -1.703125 -1.203125l0 4.71875l-1.796875 0zm1.796875 -5.953125q0.921875 0.8125 1.46875 1.03125q0.546875 0.203125 1.171875 0.203125q1.3125 0 1.9375 -1.109375q0.640625 -1.109375 0.640625 -2.828125q0 -1.609375 -0.5625 -2.546875q-0.546875 -0.9375 -1.734375 -0.9375q-0.734375 0 -1.46875 0.40625q-0.734375 0.40625 -1.453125 1.21875l0 4.5625zm9.695267 2.359375l0 -1.578125q0.78125 -1.828125 3.171875 -3.984375l1.03125 -0.921875q1.125 -1.015625 1.546875 -1.84375q0.4375 -0.828125 0.4375 -1.71875q0 -1.140625 -0.703125 -1.78125q-0.6875 -0.640625 -1.84375 -0.640625q-0.5 0 -0.96875 0.09375q-0.453125 0.09375 -0.984375 0.3125q-0.515625 0.203125 -1.34375 0.671875l0 -1.578125q1.796875 -0.84375 3.5625 -0.84375q1.9375 0 3.0625 1.0625q1.125 1.0625 1.125 2.65625q0 1.03125 -0.46875 1.953125q-0.453125 0.921875 -2.265625 2.46875l-0.6875 0.59375q-0.765625 0.640625 -1.53125 1.5625q-0.765625 0.90625 -0.96875 1.9375l5.859375 0l0 1.578125l-8.03125 0z" fill-rule="nonzero"/><path fill="#000000" fill-opacity="0.0" d="m278.98032 45.879265l153.85828 0l0 42.015747l-153.85828 0z" fill-rule="evenodd"/><path fill="#000000" fill-opacity="0.0" d="m278.98032 59.863518l110.4252 0l0 42.015747l-110.4252 0z" fill-rule="evenodd"/><path fill="#000000" d="m288.12094 87.59139l4.484375 -6.765625l-4.265625 -6.71875l2.265625 0l3.234375 5.078125l3.421875 -5.078125l1.796875 0l-4.3125 6.515625l4.421875 6.96875l-2.265625 0l-3.421875 -5.34375l-3.546875 5.34375l-1.8125 0zm13.584625 0l0 -1.796875l1.796875 0l0 1.796875l-1.796875 0zm0 -8.09375l0 -1.796875l1.796875 0l0 1.796875l-1.796875 0zm5.902954 8.09375l0 -1.796875l1.796875 0l0 1.796875l-1.796875 0zm0 -8.09375l0 -1.796875l1.796875 0l0 1.796875l-1.796875 0zm5.652954 8.09375l0 -9.890625l1.796875 0l0 1.859375q0.546875 -0.875 1.390625 -1.46875q0.859375 -0.609375 1.96875 -0.609375q0.65625 0 1.140625 0.21875q0.484375 0.203125 0.875 0.59375q0.390625 0.375 0.703125 1.265625q0.546875 -0.890625 1.375 -1.484375q0.84375 -0.609375 1.9375 -0.609375q1.046875 0 1.890625 0.65625q0.859375 0.65625 0.859375 2.265625l0 7.203125l-1.8125 0l0 -6.921875q0 -0.96875 -0.421875 -1.328125q-0.40625 -0.359375 -0.90625 -0.359375q-0.640625 0 -1.328125 0.40625q-0.6875 0.390625 -1.59375 1.578125l0 6.625l-1.8125 0l0 -6.921875q0 -0.984375 -0.421875 -1.34375q-0.421875 -0.359375 -0.9375 -0.359375q-0.65625 0 -1.3125 0.40625q-0.65625 0.390625 -1.59375 1.59375l0 6.625l-1.796875 0zm16.401733 1.34375l0 -1.34375l7.75 0l0 1.34375l-7.75 0zm9.984375 -1.6875l0 -1.65625q1.75 0.875 3.046875 0.875q0.765625 0 1.28125 -0.40625q0.515625 -0.421875 0.515625 -1.0625q0 -0.390625 -0.25 -0.765625q-0.25 -0.359375 -1.171875 -0.75l-1.046875 -0.453125q-1.21875 -0.5 -1.765625 -1.15625q-0.5625 -0.65625 -0.5625 -1.609375q0 -1.203125 0.859375 -1.984375q0.875 -0.796875 2.5625 -0.796875q0.828125 0 2.046875 0.21875l0.375 0.078125l0 1.5q-1.5 -0.453125 -2.390625 -0.453125q-0.859375 0 -1.296875 0.375q-0.421875 0.375 -0.421875 0.890625q0 0.390625 0.28125 0.71875q0.296875 0.328125 1.03125 0.640625l0.859375 0.359375q1.734375 0.75 2.21875 1.46875q0.46875 0.71875 0.46875 1.5625q0 0.8125 -0.4375 1.5q-0.4375 0.6875 -1.3125 1.09375q-0.859375 0.390625 -1.90625 0.390625q-1.234375 0 -2.984375 -0.578125zm9.86969 3.9375l0 -13.484375l1.796875 0l0 1.859375q0.546875 -1.046875 1.375 -1.5625q0.828125 -0.515625 1.921875 -0.515625q1.84375 0 2.84375 1.34375q1.0 1.34375 1.0 3.515625q0 1.421875 -0.46875 2.703125q-0.46875 1.265625 -1.453125 2.03125q-0.96875 0.75 -2.203125 0.75q-0.5 0 -1.3125 -0.15625q-0.796875 -0.140625 -1.703125 -1.203125l0 4.71875l-1.796875 0zm1.796875 -5.953125q0.921875 0.8125 1.46875 1.03125q0.546875 0.203125 1.171875 0.203125q1.3125 0 1.9375 -1.109375q0.640625 -1.109375 0.640625 -2.828125q0 -1.609375 -0.5625 -2.546875q-0.546875 -0.9375 -1.734375 -0.9375q-0.734375 0 -1.46875 0.40625q-0.734375 0.40625 -1.453125 1.21875l0 4.5625zm12.804626 2.359375l0 -5.625l-4.5 -7.859375l2.1875 0l3.5 6.09375l3.765625 -6.09375l1.78125 0l-4.828125 7.8125l0 5.671875l-1.90625 0z" fill-rule="nonzero"/><path fill="#000000" fill-opacity="0.0" d="m278.98032 214.48557l110.4252 0l0 42.015747l-110.4252 0z" fill-rule="evenodd"/><path fill="#000000" d="m292.63657 242.21344l0 -5.625l-4.5 -7.859375l2.1875 0l3.5 6.09375l3.765625 -6.09375l1.78125 0l-4.828125 7.8125l0 5.671875l-1.90625 0zm9.014343 0l0 -1.796875l1.796875 0l0 1.796875l-1.796875 0zm0 -8.09375l0 -1.796875l1.796875 0l0 1.796875l-1.796875 0zm5.902954 8.09375l0 -1.796875l1.796875 0l0 1.796875l-1.796875 0zm0 -8.09375l0 -1.796875l1.796875 0l0 1.796875l-1.796875 0zm5.652954 8.09375l0 -9.890625l1.796875 0l0 1.859375q0.546875 -0.875 1.390625 -1.46875q0.859375 -0.609375 1.96875 -0.609375q0.65625 0 1.140625 0.21875q0.484375 0.203125 0.875 0.59375q0.390625 0.375 0.703125 1.265625q0.546875 -0.890625 1.375 -1.484375q0.84375 -0.609375 1.9375 -0.609375q1.046875 0 1.890625 0.65625q0.859375 0.65625 0.859375 2.265625l0 7.203125l-1.8125 0l0 -6.921875q0 -0.96875 -0.421875 -1.328125q-0.40625 -0.359375 -0.90625 -0.359375q-0.640625 0 -1.328125 0.40625q-0.6875 0.390625 -1.59375 1.578125l0 6.625l-1.8125 0l0 -6.921875q0 -0.984375 -0.421875 -1.34375q-0.421875 -0.359375 -0.9375 -0.359375q-0.65625 0 -1.3125 0.40625q-0.65625 0.390625 -1.59375 1.59375l0 6.625l-1.796875 0zm16.401733 1.34375l0 -1.34375l7.75 0l0 1.34375l-7.75 0zm9.984375 -1.6875l0 -1.65625q1.75 0.875 3.046875 0.875q0.765625 0 1.28125 -0.40625q0.515625 -0.421875 0.515625 -1.0625q0 -0.390625 -0.25 -0.765625q-0.25 -0.359375 -1.171875 -0.75l-1.046875 -0.453125q-1.21875 -0.5 -1.765625 -1.15625q-0.5625 -0.65625 -0.5625 -1.609375q0 -1.203125 0.859375 -1.984375q0.875 -0.796875 2.5625 -0.796875q0.828125 0 2.046875 0.21875l0.375 0.078125l0 1.5q-1.5 -0.453125 -2.390625 -0.453125q-0.859375 0 -1.296875 0.375q-0.421875 0.375 -0.421875 0.890625q0 0.390625 0.28125 0.71875q0.296875 0.328125 1.03125 0.640625l0.859375 0.359375q1.734375 0.75 2.21875 1.46875q0.46875 0.71875 0.46875 1.5625q0 0.8125 -0.4375 1.5q-0.4375 0.6875 -1.3125 1.09375q-0.859375 0.390625 -1.90625 0.390625q-1.234375 0 -2.984375 -0.578125zm9.86969 3.9375l0 -13.484375l1.796875 0l0 1.859375q0.546875 -1.046875 1.375 -1.5625q0.828125 -0.515625 1.921875 -0.515625q1.84375 0 2.84375 1.34375q1.0 1.34375 1.0 3.515625q0 1.421875 -0.46875 2.703125q-0.46875 1.265625 -1.453125 2.03125q-0.96875 0.75 -2.203125 0.75q-0.5 0 -1.3125 -0.15625q-0.796875 -0.140625 -1.703125 -1.203125l0 4.71875l-1.796875 0zm1.796875 -5.953125q0.921875 0.8125 1.46875 1.03125q0.546875 0.203125 1.171875 0.203125q1.3125 0 1.9375 -1.109375q0.640625 -1.109375 0.640625 -2.828125q0 -1.609375 -0.5625 -2.546875q-0.546875 -0.9375 -1.734375 -0.9375q-0.734375 0 -1.46875 0.40625q-0.734375 0.40625 -1.453125 1.21875l0 4.5625zm8.289001 2.359375l4.484375 -6.765625l-4.265625 -6.71875l2.265625 0l3.234375 5.078125l3.421875 -5.078125l1.796875 0l-4.3125 6.515625l4.421875 6.96875l-2.265625 0l-3.421875 -5.34375l-3.546875 5.34375l-1.8125 0z" fill-rule="nonzero"/></g></svg>