<svg version="1.1" viewBox="0.0 0.0 802.0 184.0" fill="none" stroke="none" stroke-linecap="square" stroke-miterlimit="10" xmlns:xlink="http://www.w3.org/1999/xlink" xmlns="http://www.w3.org/2000/svg"><clipPath id="p.0"><path d="m0 0l802.0 0l0 184.0l-802.0 0l0 -184.0z" clip-rule="nonzero"/></clipPath><g clip-path="url(#p.0)"><path fill="#000000" fill-opacity="0.0" d="m0 0l802.0 0l0 184.0l-802.0 0z" fill-rule="evenodd"/><path fill="#000000" fill-opacity="0.0" d="m309.0 6.968504l173.82678 0l0 60.125984l-173.82678 0z" fill-rule="evenodd"/><path stroke="#000000" stroke-width="3.0" stroke-linejoin="round" stroke-linecap="butt" d="m309.0 6.968504l173.82678 0l0 60.125984l-173.82678 0z" fill-rule="evenodd"/><path fill="#000000" d="m355.55792 34.422745q0 0.9375 -0.296875 1.671875q-0.28125 0.734375 -0.875 1.265625q-0.578125 0.515625 -1.421875 0.78125q-0.84375 0.265625 -1.890625 0.265625l-1.234375 0l0 4.484375l-2.90625 0l0 -11.578123l4.734375 0q0.84375 0 1.34375 0.0625q0.515625 0.0625 0.875 0.21875q0.375 0.140625 0.71875 0.390625q0.953125 0.7812481 0.953125 2.437498zm-3.109375 0.265625q0 -1.4375 -1.796875 -1.4375l-0.8125 0l0 3.40625l0.359375 0q1.0625 0 1.65625 -0.515625q0.59375 -0.515625 0.59375 -1.453125zm12.953125 8.203125q-0.859375 0.203125 -1.53125 0.203125q-0.546875 0 -0.96875 -0.09375q-0.40625 -0.09375 -0.671875 -0.265625q-0.25 -0.1875 -0.515625 -0.609375l-0.203125 0q-0.5 0.53125 -0.984375 0.75q-0.484375 0.21875 -1.171875 0.21875q-0.8125 0 -1.453125 -0.34375q-0.625 -0.34375 -0.984375 -0.9375q-0.34375 -0.59375 -0.34375 -1.359375q0 -1.328125 0.953125 -2.109375q0.609375 -0.515625 1.390625 -0.703125q0.796875 -0.1875 2.171875 -0.1875l0.625 0l0 -0.546875q0 -1.203125 -1.546875 -1.203125q-0.671875 0 -1.5625 0.234375q-0.640625 0.1875 -1.265625 0.546875l0 -1.921875q0.125 -0.046875 0.234375 -0.078125q0.109375 -0.03125 0.203125 -0.0625q1.296875 -0.40625 2.828125 -0.40625q4.0 0 4.0 2.71875l0 3.75q0 0.703125 0.484375 0.703125q0.09375 0 0.3125 -0.03125l0 1.734375zm-3.6875 -2.421875l0 -1.390625l-0.609375 0q-1.640625 0 -1.640625 1.15625q0 0.421875 0.25 0.703125q0.265625 0.265625 0.6875 0.265625q0.6875 0 1.3125 -0.734375zm11.984375 -3.71875q-0.359375 -0.140625 -0.578125 -0.1875q-0.21875 -0.046875 -0.609375 -0.046875q-0.671875 0 -1.15625 0.265625q-0.46875 0.25 -0.84375 0.8125l0 5.296875l-3.09375 0l0 -8.671875l3.09375 0l0 1.625l0.03125 0q0.125 -0.390625 0.484375 -0.78125q0.375 -0.40625 0.890625 -0.703125q0.609375 -0.34375 1.390625 -0.34375q0.234375 0 0.390625 0.0625l0 2.671875zm9.484375 5.84375q-0.296875 0.09375 -0.53125 0.140625q-1.5625 0.375 -3.015625 0.375q-1.0625 0 -2.0 -0.28125q-0.890625 -0.28125 -1.484375 -0.75q-0.734375 -0.625 -1.171875 -1.625q-0.421875 -1.0 -0.421875 -2.03125q0 -0.984375 0.3125 -1.796875q0.328125 -0.828125 0.921875 -1.40625q0.609375 -0.578125 1.46875 -0.890625q0.859375 -0.3125 1.890625 -0.3125q0.984375 0 1.671875 0.25q0.703125 0.234375 1.203125 0.75q0.671875 0.703125 0.90625 1.578125q0.109375 0.453125 0.15625 0.78125q0.046875 0.3125 0.0625 0.75q0.015625 0.4375 0.03125 1.09375l-5.4375 0q0.03125 0.390625 0.078125 0.625q0.0625 0.21875 0.203125 0.453125q0.28125 0.4375 0.78125 0.625q0.515625 0.171875 1.375 0.1875q0.828125 0 1.34375 -0.09375q0.515625 -0.09375 1.65625 -0.453125l0 2.03125zm-2.90625 -4.90625l0 -0.125q0 -0.96875 -0.28125 -1.40625q-0.265625 -0.453125 -0.875 -0.453125q-0.421875 0 -0.734375 0.234375q-0.3125 0.234375 -0.484375 0.6875q-0.171875 0.4375 -0.203125 1.0625l2.578125 0zm13.4453125 5.203125l-3.078125 0l0 -5.390625q0 -0.625 -0.171875 -0.890625q-0.171875 -0.28125 -0.578125 -0.28125q-0.40625 0 -0.78125 0.3125q-0.375 0.296875 -0.78125 0.953125l0 5.296875l-3.09375 0l0 -8.671875l3.09375 0l0 1.625l0.03125 0q0.40625 -0.875 1.140625 -1.34375q0.75 -0.484375 1.6875 -0.484375q1.046875 0 1.765625 0.640625q0.421875 0.390625 0.59375 0.890625q0.171875 0.5 0.171875 1.3125l0 6.03125zm7.6796875 -0.078125q-0.578125 0.171875 -0.90625 0.21875q-0.3125 0.0625 -0.828125 0.0625q-1.328125 0 -2.140625 -0.515625q-0.59375 -0.375 -0.8125 -0.921875q-0.203125 -0.546875 -0.203125 -1.671875l0 -4.046875l-0.875 0l0 -1.71875l0.875 0l0 -1.359375l3.078125 -0.390625l0 1.75l1.640625 0l0 1.71875l-1.640625 0l0 3.734375q0 0.546875 0.046875 0.78125q0.0625 0.21875 0.25 0.421875q0.28125 0.28125 0.84375 0.28125q0.265625 0 0.671875 -0.125l0 1.78125zm11.7421875 0.078125l-2.5625 0l-4.953125 -6.953125l0 6.953125l-2.328125 0l0 -11.578123l2.578125 0l4.953125 6.953123l0 -6.953123l2.3125 0l0 11.578123zm11.578125 -4.34375q0 1.046875 -0.328125 1.890625q-0.328125 0.84375 -0.96875 1.4375q-0.625 0.59375 -1.5 0.90625q-0.875 0.3125 -1.984375 0.3125q-1.109375 0 -2.015625 -0.296875q-0.90625 -0.3125 -1.5625 -0.90625q-0.640625 -0.59375 -0.96875 -1.453125q-0.328125 -0.859375 -0.328125 -1.90625q0 -1.03125 0.328125 -1.875q0.328125 -0.859375 0.953125 -1.4375q0.640625 -0.59375 1.515625 -0.890625q0.890625 -0.3125 2.015625 -0.3125q1.140625 0 2.03125 0.3125q0.890625 0.296875 1.515625 0.890625q0.640625 0.578125 0.96875 1.421875q0.328125 0.828125 0.328125 1.90625zm-3.28125 -0.015625q0 -1.25 -0.4375 -2.015625q-0.4375 -0.765625 -1.125 -0.765625q-0.453125 0 -0.796875 0.359375q-0.34375 0.34375 -0.546875 1.0q-0.1875 0.640625 -0.1875 1.4375q0 0.796875 0.1875 1.4375q0.1875 0.640625 0.53125 1.0q0.359375 0.359375 0.796875 0.359375q0.71875 0 1.140625 -0.78125q0.4375 -0.78125 0.4375 -2.03125zm13.625 4.359375l-3.078125 0l0 -1.640625l-0.03125 0q-0.3125 0.84375 -1.046875 1.34375q-0.734375 0.5 -1.703125 0.5q-1.03125 0 -1.796875 -0.515625q-0.75 -0.53125 -1.15625 -1.515625q-0.390625 -0.984375 -0.390625 -2.296875q0 -1.46875 0.453125 -2.53125q0.453125 -1.078125 1.296875 -1.640625q0.84375 -0.578125 1.984375 -0.578125q0.703125 0 1.203125 0.203125q0.515625 0.203125 1.15625 0.765625l0.03125 0l0 -0.765625l0 -3.671873l3.078125 0l0 12.343748zm-3.078125 -3.328125l0 -2.90625q-0.578125 -0.8125 -1.34375 -0.8125q-0.421875 0 -0.765625 0.34375q-0.34375 0.34375 -0.546875 0.96875q-0.1875 0.625 -0.1875 1.375q0 1.078125 0.375 1.6875q0.375 0.59375 1.03125 0.59375q0.828125 0 1.4375 -1.25zm13.5390625 3.03125q-0.296875 0.09375 -0.53125 0.140625q-1.5625 0.375 -3.015625 0.375q-1.0625 0 -2.0 -0.28125q-0.890625 -0.28125 -1.484375 -0.75q-0.734375 -0.625 -1.171875 -1.625q-0.421875 -1.0 -0.421875 -2.03125q0 -0.984375 0.3125 -1.796875q0.328125 -0.828125 0.921875 -1.40625q0.609375 -0.578125 1.46875 -0.890625q0.859375 -0.3125 1.890625 -0.3125q0.984375 0 1.671875 0.25q0.703125 0.234375 1.203125 0.75q0.671875 0.703125 0.90625 1.578125q0.109375 0.453125 0.15625 0.78125q0.046875 0.3125 0.0625 0.75q0.015625 0.4375 0.03125 1.09375l-5.4375 0q0.03125 0.390625 0.078125 0.625q0.0625 0.21875 0.203125 0.453125q0.28125 0.4375 0.78125 0.625q0.515625 0.171875 1.375 0.1875q0.828125 0 1.34375 -0.09375q0.515625 -0.09375 1.65625 -0.453125l0 2.03125zm-2.90625 -4.90625l0 -0.125q0 -0.96875 -0.28125 -1.40625q-0.265625 -0.453125 -0.875 -0.453125q-0.421875 0 -0.734375 0.234375q-0.3125 0.234375 -0.484375 0.6875q-0.171875 0.4375 -0.203125 1.0625l2.578125 0z" fill-rule="nonzero"/><path fill="#000000" fill-opacity="0.0" d="m106.755905 66.49606l148.15749 0.5354309" fill-rule="evenodd"/><path stroke="#000000" stroke-width="2.0" stroke-linejoin="round" stroke-linecap="butt" d="m106.755905 66.49606l148.15749 0.5354309" fill-rule="evenodd"/><path fill="#000000" fill-opacity="0.0" d="m107.249344 65.968506l0.50393677 45.543304" fill-rule="evenodd"/><path stroke="#000000" stroke-width="2.0" stroke-linejoin="round" stroke-linecap="butt" d="m107.249344 65.968506l0.3711624 33.544044" fill-rule="evenodd"/><path stroke="#000000" stroke-width="2.0" stroke-linecap="butt" d="m104.317245 99.549095l3.4036865 9.039093l3.2028427 -9.11219z" fill-rule="evenodd"/><path fill="#ffffff" d="m254.91339 50.02362l107.52756 0l0 34.015747l-107.52756 0z" fill-rule="evenodd"/><path stroke="#000000" stroke-width="2.0" stroke-linejoin="round" stroke-linecap="butt" d="m254.91339 50.02362l107.52756 0l0 34.015747l-107.52756 0z" fill-rule="evenodd"/><path fill="#000000" d="m272.89932 71.8315l0 -7.0625l1.28125 0l0 1.328125q0.390625 -0.625 1.0 -1.046875q0.609375 -0.4375 1.40625 -0.4375q0.46875 0 0.8125 0.15625q0.34375 0.140625 0.625 0.421875q0.28125 0.265625 0.5 0.90625q0.390625 -0.640625 0.984375 -1.0625q0.609375 -0.4375 1.390625 -0.4375q0.75 0 1.34375 0.46875q0.609375 0.46875 0.609375 1.625l0 5.140625l-1.28125 0l0 -4.9375q0 -0.703125 -0.296875 -0.953125q-0.296875 -0.265625 -0.65625 -0.265625q-0.46875 0 -0.953125 0.296875q-0.484375 0.28125 -1.140625 1.125l0 4.734375l-1.296875 0l0 -4.9375q0 -0.71875 -0.296875 -0.96875q-0.296875 -0.25 -0.671875 -0.25q-0.46875 0 -0.9375 0.28125q-0.46875 0.28125 -1.140625 1.140625l0 4.734375l-1.28125 0zm11.724304 0.96875l0 -0.96875l5.53125 0l0 0.96875l-5.53125 0zm7.3828125 -0.96875l0 -10.281254l1.28125 0l0 10.281254l-1.28125 0zm9.040161 -0.234375q-1.296875 0.390625 -2.21875 0.390625q-1.640625 0 -2.59375 -1.109375q-0.9375 -1.109375 -0.9375 -2.609375q0 -1.0 0.421875 -1.890625q0.421875 -0.90625 1.09375 -1.34375q0.671875 -0.4375 1.578125 -0.4375q1.21875 0 1.953125 0.890625q0.734375 0.875 0.734375 2.625l-0.015625 0.390625l-4.453125 0q0.109375 0.9375 0.40625 1.453125q0.296875 0.5 0.796875 0.78125q0.5 0.28125 1.265625 0.28125q0.390625 0 0.765625 -0.0625q0.390625 -0.078125 1.203125 -0.375l0 1.015625zm-4.375 -4.0625l3.109375 0q0 -1.0625 -0.421875 -1.515625q-0.40625 -0.453125 -1.046875 -0.453125q-0.734375 0 -1.15625 0.5q-0.40625 0.484375 -0.484375 1.46875zm6.847351 4.296875l0 -6.109375l-1.0 0l0 -0.953125l1.0 0l0 -0.8437538q0 -0.875 0.21875 -1.375q0.234375 -0.5 0.75 -0.828125q0.515625 -0.328125 1.328125 -0.328125q0.65625 0 1.484375 0.21875l0 1.015625q-0.875 -0.265625 -1.390625 -0.265625q-0.296875 0 -0.546875 0.09375q-0.25 0.09375 -0.40625 0.328125q-0.140625 0.234375 -0.140625 1.0l0 0.9843788l1.765625 0l0 0.953125l-1.765625 0l0 6.109375l-1.296875 0zm7.8223267 0q-0.59375 0.15625 -1.03125 0.15625q-0.953125 0 -1.515625 -0.546875q-0.5625 -0.546875 -0.5625 -1.5625l0 -4.15625l-0.875 0l0 -0.953125l0.875 0l0 -1.2812538l1.28125 -0.125l0 1.4062538l1.859375 0l0 0.953125l-1.859375 0l0 3.921875q0 0.75 0.28125 1.078125q0.296875 0.3125 0.921875 0.3125q0.25 0 0.625 -0.09375l0 0.890625zm1.7975159 0l0 -9.625004l1.328125 0l4.859375 7.437504l0 -7.437504l1.171875 0l0 9.625004l-1.34375 0l-4.84375 -7.4375l0 7.4375l-1.171875 0zm12.690186 0.15625q-1.015625 0 -1.765625 -0.40625q-0.734375 -0.40625 -1.171875 -1.296875q-0.4375 -0.890625 -0.4375 -1.984375q0 -1.03125 0.390625 -1.90625q0.40625 -0.890625 1.15625 -1.328125q0.765625 -0.453125 1.828125 -0.453125q1.015625 0 1.75 0.40625q0.75 0.40625 1.1875 1.296875q0.4375 0.890625 0.4375 1.984375q0 1.03125 -0.40625 1.921875q-0.40625 0.875 -1.15625 1.328125q-0.75 0.4375 -1.8125 0.4375zm0 -0.953125q0.953125 0 1.484375 -0.703125q0.53125 -0.71875 0.53125 -2.03125q0 -1.3125 -0.53125 -2.015625q-0.53125 -0.71875 -1.484375 -0.71875q-0.953125 0 -1.484375 0.71875q-0.515625 0.703125 -0.515625 2.015625q0 1.3125 0.515625 2.03125q0.53125 0.703125 1.484375 0.703125zm9.90564 0.796875l0 -1.328125q-0.390625 0.75 -0.984375 1.125q-0.578125 0.359375 -1.359375 0.359375q-1.3125 0 -2.03125 -0.953125q-0.71875 -0.953125 -0.71875 -2.515625q0 -1.671875 0.8125 -2.78125q0.8125 -1.125 2.203125 -1.125q0.40625 0 0.78125 0.09375q0.375 0.09375 0.65625 0.28125q0.296875 0.171875 0.640625 0.578125l0 -4.015629l1.296875 0l0 10.281254l-1.296875 0zm0 -5.375q-0.65625 -0.59375 -1.046875 -0.734375q-0.390625 -0.15625 -0.828125 -0.15625q-0.9375 0 -1.390625 0.796875q-0.453125 0.78125 -0.453125 2.03125q0 1.140625 0.390625 1.8125q0.40625 0.65625 1.25 0.65625q0.53125 0 1.046875 -0.28125q0.53125 -0.296875 1.03125 -0.875l0 -3.25zm9.044922 5.140625q-1.296875 0.390625 -2.21875 0.390625q-1.640625 0 -2.59375 -1.109375q-0.9375 -1.109375 -0.9375 -2.609375q0 -1.0 0.421875 -1.890625q0.421875 -0.90625 1.09375 -1.34375q0.671875 -0.4375 1.578125 -0.4375q1.21875 0 1.953125 0.890625q0.734375 0.875 0.734375 2.625l-0.015625 0.390625l-4.453125 0q0.109375 0.9375 0.40625 1.453125q0.296875 0.5 0.796875 0.78125q0.5 0.28125 1.265625 0.28125q0.390625 0 0.765625 -0.0625q0.390625 -0.078125 1.203125 -0.375l0 1.015625zm-4.375 -4.0625l3.109375 0q0 -1.0625 -0.421875 -1.515625q-0.40625 -0.453125 -1.046875 -0.453125q-0.734375 0 -1.15625 0.5q-0.40625 0.484375 -0.484375 1.46875z" fill-rule="nonzero"/><path fill="#ffffff" d="m429.95276 50.02362l107.52753 0l0 34.015747l-107.52753 0z" fill-rule="evenodd"/><path stroke="#000000" stroke-width="2.0" stroke-linejoin="round" stroke-linecap="butt" d="m429.95276 50.02362l107.52753 0l0 34.015747l-107.52753 0z" fill-rule="evenodd"/><path fill="#000000" d="m440.234 71.8315l0 -7.0625l1.28125 0l0 1.328125q0.390625 -0.625 1.0 -1.046875q0.609375 -0.4375 1.40625 -0.4375q0.46875 0 0.8125 0.15625q0.34375 0.140625 0.625 0.421875q0.28125 0.265625 0.5 0.90625q0.390625 -0.640625 0.984375 -1.0625q0.609375 -0.4375 1.390625 -0.4375q0.75 0 1.34375 0.46875q0.609375 0.46875 0.609375 1.625l0 5.140625l-1.28125 0l0 -4.9375q0 -0.703125 -0.296875 -0.953125q-0.296875 -0.265625 -0.65625 -0.265625q-0.46875 0 -0.953125 0.296875q-0.484375 0.28125 -1.140625 1.125l0 4.734375l-1.296875 0l0 -4.9375q0 -0.71875 -0.296875 -0.96875q-0.296875 -0.25 -0.671875 -0.25q-0.46875 0 -0.9375 0.28125q-0.46875 0.28125 -1.140625 1.140625l0 4.734375l-1.28125 0zm11.724304 0.96875l0 -0.96875l5.53125 0l0 0.96875l-5.53125 0zm7.3828125 -0.96875l0 -7.0625l1.28125 0l0 1.328125q0.359375 -0.71875 0.9375 -1.09375q0.59375 -0.390625 1.28125 -0.390625q0.1875 0 0.40625 0.03125l0 1.1875q-0.328125 -0.109375 -0.59375 -0.109375q-0.59375 0 -1.109375 0.375q-0.515625 0.359375 -0.921875 1.078125l0 4.65625l-1.28125 0zm5.453583 0l0 -7.0625l1.28125 0l0 7.0625l-1.28125 0zm0 -8.343754l0 -1.28125l1.28125 0l0 1.28125l-1.28125 0zm3.8839111 10.687504l0.140625 -1.109375q1.125 0.53125 2.203125 0.53125q1.21875 0 1.6875 -0.625q0.46875 -0.625 0.46875 -1.671875l0 -1.109375q-0.28125 0.578125 -0.875 1.03125q-0.578125 0.453125 -1.4375 0.453125q-1.453125 0 -2.125 -1.046875q-0.65625 -1.046875 -0.65625 -2.375q0 -1.015625 0.390625 -1.890625q0.390625 -0.875 1.078125 -1.3125q0.703125 -0.4375 1.59375 -0.4375q0.390625 0 0.734375 0.09375q0.34375 0.078125 0.640625 0.265625q0.296875 0.1875 0.65625 0.59375l0 -0.796875l1.296875 0l0 5.140625q0 2.234375 -0.375 3.0625q-0.375 0.828125 -1.171875 1.203125q-0.796875 0.390625 -1.90625 0.390625q-0.34375 0 -0.765625 -0.046875q-0.40625 -0.03125 -0.734375 -0.09375q-0.328125 -0.0625 -0.84375 -0.25zm4.5 -4.796875l0 -2.921875q-0.421875 -0.453125 -0.875 -0.671875q-0.453125 -0.21875 -0.96875 -0.21875q-0.84375 0 -1.359375 0.6875q-0.515625 0.6875 -0.515625 2.0q0 1.015625 0.375 1.65625q0.390625 0.640625 1.25 0.640625q0.5625 0 1.078125 -0.296875q0.53125 -0.296875 1.015625 -0.875zm3.7793274 2.453125l0 -10.281254l1.28125 0l0 4.546879q0.484375 -0.71875 1.125 -1.09375q0.65625 -0.390625 1.359375 -0.390625q0.890625 0 1.453125 0.578125q0.5625 0.5625 0.5625 1.5625l0 5.078125l-1.28125 0l0 -4.65625q0 -0.734375 -0.140625 -0.96875q-0.125 -0.234375 -0.359375 -0.359375q-0.234375 -0.140625 -0.5 -0.140625q-0.46875 0 -1.03125 0.296875q-0.546875 0.296875 -1.1875 1.25l0 4.578125l-1.28125 0zm11.427765 0q-0.59375 0.15625 -1.03125 0.15625q-0.953125 0 -1.515625 -0.546875q-0.5625 -0.546875 -0.5625 -1.5625l0 -4.15625l-0.875 0l0 -0.953125l0.875 0l0 -1.2812538l1.28125 -0.125l0 1.4062538l1.859375 0l0 0.953125l-1.859375 0l0 3.921875q0 0.75 0.28125 1.078125q0.296875 0.3125 0.921875 0.3125q0.25 0 0.625 -0.09375l0 0.890625zm1.7975159 0l0 -9.625004l1.328125 0l4.859375 7.437504l0 -7.437504l1.171875 0l0 9.625004l-1.34375 0l-4.84375 -7.4375l0 7.4375l-1.171875 0zm12.690186 0.15625q-1.015625 0 -1.765625 -0.40625q-0.734375 -0.40625 -1.171875 -1.296875q-0.4375 -0.890625 -0.4375 -1.984375q0 -1.03125 0.390625 -1.90625q0.40625 -0.890625 1.15625 -1.328125q0.765625 -0.453125 1.828125 -0.453125q1.015625 0 1.75 0.40625q0.75 0.40625 1.1875 1.296875q0.4375 0.890625 0.4375 1.984375q0 1.03125 -0.40625 1.921875q-0.40625 0.875 -1.15625 1.328125q-0.75 0.4375 -1.8125 0.4375zm0 -0.953125q0.953125 0 1.484375 -0.703125q0.53125 -0.71875 0.53125 -2.03125q0 -1.3125 -0.53125 -2.015625q-0.53125 -0.71875 -1.484375 -0.71875q-0.953125 0 -1.484375 0.71875q-0.515625 0.703125 -0.515625 2.015625q0 1.3125 0.515625 2.03125q0.53125 0.703125 1.484375 0.703125zm9.90564 0.796875l0 -1.328125q-0.390625 0.75 -0.984375 1.125q-0.578125 0.359375 -1.359375 0.359375q-1.3125 0 -2.03125 -0.953125q-0.71875 -0.953125 -0.71875 -2.515625q0 -1.671875 0.8125 -2.78125q0.8125 -1.125 2.203125 -1.125q0.40625 0 0.78125 0.09375q0.375 0.09375 0.65625 0.28125q0.296875 0.171875 0.640625 0.578125l0 -4.015629l1.296875 0l0 10.281254l-1.296875 0zm0 -5.375q-0.65625 -0.59375 -1.046875 -0.734375q-0.390625 -0.15625 -0.828125 -0.15625q-0.9375 0 -1.390625 0.796875q-0.453125 0.78125 -0.453125 2.03125q0 1.140625 0.390625 1.8125q0.40625 0.65625 1.25 0.65625q0.53125 0 1.046875 -0.28125q0.53125 -0.296875 1.03125 -0.875l0 -3.25zm9.044922 5.140625q-1.296875 0.390625 -2.21875 0.390625q-1.640625 0 -2.59375 -1.109375q-0.9375 -1.109375 -0.9375 -2.609375q0 -1.0 0.421875 -1.890625q0.421875 -0.90625 1.09375 -1.34375q0.671875 -0.4375 1.578125 -0.4375q1.21875 0 1.953125 0.890625q0.734375 0.875 0.734375 2.625l-0.015625 0.390625l-4.453125 0q0.109375 0.9375 0.40625 1.453125q0.296875 0.5 0.796875 0.78125q0.5 0.28125 1.265625 0.28125q0.390625 0 0.765625 -0.0625q0.390625 -0.078125 1.203125 -0.375l0 1.015625zm-4.375 -4.0625l3.109375 0q0 -1.0625 -0.421875 -1.515625q-0.40625 -0.453125 -1.046875 -0.453125q-0.734375 0 -1.15625 0.5q-0.40625 0.484375 -0.484375 1.46875z" fill-rule="nonzero"/><path fill="#000000" fill-opacity="0.0" d="m628.54596 111.51181l161.29132 0l0 39.93701l-161.29132 0z" fill-rule="evenodd"/><path stroke="#000000" stroke-width="3.0" stroke-linejoin="round" stroke-linecap="butt" d="m628.54596 111.51181l161.29132 0l0 39.93701l-161.29132 0z" fill-rule="evenodd"/><path fill="#000000" d="m680.91797 136.28032l-3.109375 0l-2.078125 -3.859375l-0.90625 0l0 3.859375l-2.40625 0l0 -9.640633l4.203125 0q0.828125 0 1.328125 0.140625q0.5 0.140625 0.90625 0.484375q0.765625 0.640625 0.765625 1.7812576q0 0.578125 -0.21875 1.109375q-0.21875 0.53125 -0.625 0.953125q-0.390625 0.421875 -0.953125 0.6875l3.09375 4.484375zm-3.859375 -6.9375q0 -0.59375 -0.40625 -0.84375q-0.390625 -0.25 -1.34375 -0.25l-0.484375 0l0 2.734375l0.421875 0q0.859375 0 1.328125 -0.421875q0.484375 -0.4375 0.484375 -1.21875zm7.703247 -1.4218826l-2.5625 0l0 -1.921875l2.5625 0l0 1.921875zm0 8.359383l-2.5625 0l0 -7.21875l2.5625 0l0 7.21875zm9.262451 -1.453125q0 0.96875 -0.078125 1.5625q-0.078125 0.59375 -0.28125 0.96875q-0.1875 0.375 -0.53125 0.671875q-0.5 0.453125 -1.34375 0.71875q-0.828125 0.265625 -1.75 0.265625q-0.71875 0 -1.421875 -0.15625q-0.703125 -0.140625 -1.53125 -0.484375l0.15625 -1.703125q0.453125 0.25 0.84375 0.390625q0.40625 0.15625 0.796875 0.203125q0.390625 0.0625 0.9375 0.0625q0.5 0 0.8125 -0.09375q0.3125 -0.078125 0.53125 -0.265625q0.234375 -0.1875 0.28125 -0.40625q0.0625 -0.203125 0.0625 -0.875l0 -1.0l-0.046875 0q-0.34375 0.71875 -0.9375 1.109375q-0.578125 0.375 -1.375 0.375q-0.640625 0 -1.15625 -0.234375q-0.5 -0.25 -0.875 -0.703125q-0.359375 -0.46875 -0.5625 -1.125q-0.1875 -0.65625 -0.1875 -1.40625q0 -1.140625 0.375 -2.0q0.375 -0.875 1.078125 -1.34375q0.703125 -0.46875 1.640625 -0.46875q0.59375 0 1.015625 0.171875q0.421875 0.171875 0.96875 0.625l0.015625 0l0 -0.625l2.5625 0l0 5.765625zm-2.5625 -1.578125l0 -2.1875q-0.203125 -0.28125 -0.34375 -0.40625q-0.3125 -0.28125 -0.75 -0.28125q-0.375 0 -0.671875 0.28125q-0.28125 0.265625 -0.4375 0.765625q-0.15625 0.5 -0.15625 1.125q0 0.8125 0.296875 1.296875q0.296875 0.46875 0.796875 0.46875q0.75 0 1.265625 -1.0625zm11.883057 3.03125l-2.5625 0l0 -4.484375q0 -0.53125 -0.15625 -0.75q-0.140625 -0.234375 -0.46875 -0.234375q-0.34375 0 -0.65625 0.265625q-0.3125 0.25 -0.65625 0.796875l0 4.40625l-2.5625 0l0 -10.281258l2.5625 0l0 3.0625076l0 1.359375l0.03125 0q0.34375 -0.734375 0.953125 -1.125q0.625 -0.40625 1.40625 -0.40625q0.875 0 1.46875 0.53125q0.359375 0.328125 0.5 0.75q0.140625 0.40625 0.140625 1.078125l0 5.03125zm6.39093 -0.0625q-0.46875 0.140625 -0.75 0.171875q-0.265625 0.046875 -0.6875 0.046875q-1.109375 0 -1.78125 -0.40625q-0.5 -0.3125 -0.6875 -0.765625q-0.171875 -0.46875 -0.171875 -1.40625l0 -3.359375l-0.71875 0l0 -1.4375l0.71875 0l0 -1.1406326l2.578125 -0.3125l0 1.4531326l1.359375 0l0 1.4375l-1.359375 0l0 3.09375q0 0.46875 0.03125 0.65625q0.046875 0.1875 0.203125 0.359375q0.234375 0.234375 0.703125 0.234375q0.234375 0 0.5625 -0.109375l0 1.484375zm9.780334 0.0625l-2.125 0l-4.140625 -5.78125l0 5.78125l-1.921875 0l0 -9.640633l2.140625 0l4.125 5.7812576l0 -5.7812576l1.921875 0l0 9.640633zm9.641724 -3.609375q0 0.875 -0.28125 1.578125q-0.265625 0.6875 -0.796875 1.1875q-0.515625 0.5 -1.25 0.75q-0.734375 0.25 -1.640625 0.25q-0.9375 0 -1.6875 -0.25q-0.75 -0.25 -1.296875 -0.734375q-0.53125 -0.5 -0.8125 -1.203125q-0.265625 -0.71875 -0.265625 -1.59375q0 -0.859375 0.265625 -1.5625q0.28125 -0.71875 0.796875 -1.203125q0.53125 -0.484375 1.265625 -0.734375q0.734375 -0.265625 1.671875 -0.265625q0.953125 0 1.6875 0.265625q0.75 0.25 1.265625 0.734375q0.53125 0.484375 0.796875 1.1875q0.28125 0.6875 0.28125 1.59375zm-2.734375 -0.015625q0 -1.046875 -0.359375 -1.671875q-0.359375 -0.640625 -0.9375 -0.640625q-0.375 0 -0.65625 0.296875q-0.28125 0.28125 -0.453125 0.828125q-0.15625 0.53125 -0.15625 1.203125q0 0.65625 0.15625 1.203125q0.15625 0.53125 0.4375 0.828125q0.296875 0.296875 0.671875 0.296875q0.578125 0 0.9375 -0.640625q0.359375 -0.65625 0.359375 -1.703125zm11.3532715 3.625l-2.5625 0l0 -1.359375l-0.015625 0q-0.265625 0.703125 -0.890625 1.109375q-0.609375 0.40625 -1.40625 0.40625q-0.859375 0 -1.5 -0.421875q-0.625 -0.4375 -0.953125 -1.25q-0.328125 -0.828125 -0.328125 -1.921875q0 -1.21875 0.375 -2.109375q0.375 -0.890625 1.078125 -1.359375q0.703125 -0.484375 1.640625 -0.484375q0.59375 0 1.015625 0.171875q0.421875 0.171875 0.96875 0.625l0.015625 0l0 -0.625l0 -3.0625076l2.5625 0l0 10.281258zm-2.5625 -2.765625l0 -2.421875q-0.484375 -0.671875 -1.109375 -0.671875q-0.359375 0 -0.65625 0.28125q-0.28125 0.28125 -0.4375 0.8125q-0.15625 0.515625 -0.15625 1.140625q0 0.890625 0.3125 1.390625q0.3125 0.5 0.859375 0.5q0.671875 0 1.1875 -1.03125zm11.273743 2.53125q-0.234375 0.0625 -0.4375 0.109375q-1.296875 0.296875 -2.515625 0.296875q-0.890625 0 -1.65625 -0.21875q-0.75 -0.234375 -1.234375 -0.625q-0.609375 -0.515625 -0.984375 -1.34375q-0.359375 -0.84375 -0.359375 -1.703125q0 -0.8125 0.265625 -1.5q0.28125 -0.6875 0.78125 -1.171875q0.5 -0.484375 1.203125 -0.734375q0.71875 -0.265625 1.578125 -0.265625q0.828125 0 1.40625 0.203125q0.578125 0.203125 1.0 0.625q0.5625 0.59375 0.75 1.328125q0.09375 0.359375 0.125 0.640625q0.046875 0.265625 0.0625 0.640625q0.015625 0.359375 0.015625 0.90625l-4.53125 0q0.03125 0.3125 0.078125 0.515625q0.046875 0.1875 0.171875 0.375q0.234375 0.359375 0.640625 0.515625q0.421875 0.15625 1.15625 0.15625q0.671875 0 1.109375 -0.078125q0.4375 -0.078125 1.375 -0.375l0 1.703125zm-2.421875 -4.09375l0 -0.109375q0 -0.8125 -0.234375 -1.171875q-0.21875 -0.375 -0.71875 -0.375q-0.359375 0 -0.625 0.203125q-0.25 0.1875 -0.390625 0.5625q-0.140625 0.359375 -0.171875 0.890625l2.140625 0z" fill-rule="nonzero"/><path fill="#000000" fill-opacity="0.0" d="m8.776903 112.51706l161.29134 0l0 39.93701l-161.29134 0z" fill-rule="evenodd"/><path stroke="#000000" stroke-width="3.0" stroke-linejoin="round" stroke-linecap="butt" d="m8.776903 112.51706l161.29134 0l0 39.93701l-161.29134 0z" fill-rule="evenodd"/><path fill="#000000" d="m64.81031 137.28557l-6.90625 0l0 -9.640633l2.5625 0l0 8.046883l4.34375 0l0 1.59375zm7.8118744 -0.234375q-0.234375 0.0625 -0.4375 0.109375q-1.296875 0.296875 -2.515625 0.296875q-0.890625 0 -1.65625 -0.21875q-0.75 -0.234375 -1.234375 -0.625q-0.609375 -0.515625 -0.984375 -1.34375q-0.359375 -0.84375 -0.359375 -1.703125q0 -0.8125 0.265625 -1.5q0.28125 -0.6875 0.78125 -1.171875q0.5 -0.484375 1.203125 -0.734375q0.71875 -0.265625 1.578125 -0.265625q0.828125 0 1.40625 0.203125q0.578125 0.203125 1.0 0.625q0.5625 0.59375 0.75 1.328125q0.09375 0.359375 0.125 0.640625q0.046875 0.265625 0.0625 0.640625q0.015625 0.359375 0.015625 0.90625l-4.53125 0q0.03125 0.3125 0.078125 0.515625q0.046875 0.1875 0.171875 0.375q0.234375 0.359375 0.640625 0.515625q0.421875 0.15625 1.15625 0.15625q0.671875 0 1.109375 -0.078125q0.4375 -0.078125 1.375 -0.375l0 1.703125zm-2.421875 -4.09375l0 -0.109375q0 -0.8125 -0.234375 -1.171875q-0.21875 -0.375 -0.71875 -0.375q-0.359375 0 -0.625 0.203125q-0.25 0.1875 -0.390625 0.5625q-0.140625 0.359375 -0.171875 0.890625l2.140625 0zm9.336655 -4.25q-0.25 -0.125 -0.28125 -0.140625q-0.234375 -0.109375 -0.609375 -0.1875q-0.359375 -0.09375 -0.671875 -0.09375q-0.46875 0 -0.6875 0.390625q-0.203125 0.375 -0.203125 1.203125l0 0.1875l1.84375 0l0 1.4375l-1.84375 0l0 5.78125l-2.578125 0l0 -5.78125l-0.96875 0l0 -1.4375l0.96875 0l0 -0.1875q0 -1.046875 0.3125 -1.71875q0.3125 -0.6718826 0.96875 -0.9843826q0.671875 -0.328125 1.6875 -0.328125q1.0625 0 2.0625 0.28125l0 1.5781326zm5.1746826 8.515625q-0.46875 0.140625 -0.75 0.171875q-0.265625 0.046875 -0.6875 0.046875q-1.109375 0 -1.78125 -0.40625q-0.5 -0.3125 -0.6875 -0.765625q-0.171875 -0.46875 -0.171875 -1.40625l0 -3.359375l-0.71875 0l0 -1.4375l0.71875 0l0 -1.140625l2.578125 -0.3125l0 1.453125l1.359375 0l0 1.4375l-1.359375 0l0 3.09375q0 0.46875 0.03125 0.65625q0.046875 0.1875 0.203125 0.359375q0.234375 0.234375 0.703125 0.234375q0.234375 0 0.5625 -0.109375l0 1.484375zm9.780289 0.0625l-2.125 0l-4.140625 -5.78125l0 5.78125l-1.921875 0l0 -9.640633l2.140625 0l4.125 5.7812576l0 -5.7812576l1.921875 0l0 9.640633zm9.641754 -3.609375q0 0.875 -0.28125 1.578125q-0.265625 0.6875 -0.796875 1.1875q-0.515625 0.5 -1.25 0.75q-0.734375 0.25 -1.640625 0.25q-0.9375 0 -1.6875 -0.25q-0.75 -0.25 -1.296875 -0.734375q-0.53125 -0.5 -0.8125 -1.203125q-0.265625 -0.71875 -0.265625 -1.59375q0 -0.859375 0.265625 -1.5625q0.28125 -0.71875 0.796875 -1.203125q0.53125 -0.484375 1.265625 -0.734375q0.734375 -0.265625 1.671875 -0.265625q0.953125 0 1.6875 0.265625q0.75 0.25 1.265625 0.734375q0.53125 0.484375 0.796875 1.1875q0.28125 0.6875 0.28125 1.59375zm-2.734375 -0.015625q0 -1.046875 -0.359375 -1.671875q-0.359375 -0.640625 -0.9375 -0.640625q-0.375 0 -0.65625 0.296875q-0.28125 0.28125 -0.453125 0.828125q-0.15625 0.53125 -0.15625 1.203125q0 0.65625 0.15625 1.203125q0.15625 0.53125 0.4375 0.828125q0.296875 0.296875 0.671875 0.296875q0.578125 0 0.9375 -0.640625q0.359375 -0.65625 0.359375 -1.703125zm11.353256 3.625l-2.5625 0l0 -1.359375l-0.015625 0q-0.265625 0.703125 -0.890625 1.109375q-0.609375 0.40625 -1.40625 0.40625q-0.859375 0 -1.5 -0.421875q-0.625 -0.4375 -0.953125 -1.25q-0.328125 -0.828125 -0.328125 -1.921875q0 -1.21875 0.375 -2.109375q0.375 -0.890625 1.078125 -1.359375q0.703125 -0.484375 1.640625 -0.484375q0.59375 0 1.015625 0.171875q0.421875 0.171875 0.96875 0.625l0.015625 0l0 -0.625l0 -3.0625076l2.5625 0l0 10.281258zm-2.5625 -2.765625l0 -2.421875q-0.484375 -0.671875 -1.109375 -0.671875q-0.359375 0 -0.65625 0.28125q-0.28125 0.28125 -0.4375 0.8125q-0.15625 0.515625 -0.15625 1.140625q0 0.890625 0.3125 1.390625q0.3125 0.5 0.859375 0.5q0.671875 0 1.1875 -1.03125zm11.273727 2.53125q-0.234375 0.0625 -0.4375 0.109375q-1.296875 0.296875 -2.515625 0.296875q-0.890625 0 -1.65625 -0.21875q-0.75 -0.234375 -1.234375 -0.625q-0.609375 -0.515625 -0.984375 -1.34375q-0.359375 -0.84375 -0.359375 -1.703125q0 -0.8125 0.265625 -1.5q0.28125 -0.6875 0.78125 -1.171875q0.5 -0.484375 1.203125 -0.734375q0.71875 -0.265625 1.578125 -0.265625q0.828125 0 1.40625 0.203125q0.578125 0.203125 1.0 0.625q0.5625 0.59375 0.75 1.328125q0.09375 0.359375 0.125 0.640625q0.046875 0.265625 0.0625 0.640625q0.015625 0.359375 0.015625 0.90625l-4.53125 0q0.03125 0.3125 0.078125 0.515625q0.046875 0.1875 0.171875 0.375q0.234375 0.359375 0.640625 0.515625q0.421875 0.15625 1.15625 0.15625q0.671875 0 1.109375 -0.078125q0.4375 -0.078125 1.375 -0.375l0 1.703125zm-2.421875 -4.09375l0 -0.109375q0 -0.8125 -0.234375 -1.171875q-0.21875 -0.375 -0.71875 -0.375q-0.359375 0 -0.625 0.203125q-0.25 0.1875 -0.390625 0.5625q-0.140625 0.359375 -0.171875 0.890625l2.140625 0z" fill-rule="nonzero"/><path fill="#000000" fill-opacity="0.0" d="m685.6378 67.031494l-148.15753 0" fill-rule="evenodd"/><path stroke="#000000" stroke-width="2.0" stroke-linejoin="round" stroke-linecap="butt" d="m685.6378 67.031494l-148.15753 0" fill-rule="evenodd"/><path fill="#000000" fill-opacity="0.0" d="m685.6378 67.03674l0.8503418 45.480316" fill-rule="evenodd"/><path stroke="#000000" stroke-width="2.0" stroke-linejoin="round" stroke-linecap="butt" d="m685.6378 67.03674l0.6260376 33.48242" fill-rule="evenodd"/><path stroke="#000000" stroke-width="2.0" stroke-linecap="butt" d="m682.96094 100.58092l3.4725952 9.012848l3.1331787 -9.136368z" fill-rule="evenodd"/><path fill="#ffffff" d="m135.5748 134.01837l119.33859 0l0 34.015747l-119.33859 0z" fill-rule="evenodd"/><path stroke="#000000" stroke-width="2.0" stroke-linejoin="round" stroke-linecap="butt" d="m135.5748 134.01837l119.33859 0l0 34.015747l-119.33859 0z" fill-rule="evenodd"/><path fill="#000000" d="m149.1057 155.82625l0 -7.0625l1.28125 0l0 1.328125q0.390625 -0.625 1.0 -1.046875q0.609375 -0.4375 1.40625 -0.4375q0.46875 0 0.8125 0.15625q0.34375 0.140625 0.625 0.421875q0.28125 0.265625 0.5 0.90625q0.390625 -0.640625 0.984375 -1.0625q0.609375 -0.4375 1.390625 -0.4375q0.75 0 1.34375 0.46875q0.609375 0.46875 0.609375 1.625l0 5.140625l-1.28125 0l0 -4.9375q0 -0.703125 -0.296875 -0.953125q-0.296875 -0.265625 -0.65625 -0.265625q-0.46875 0 -0.953125 0.296875q-0.484375 0.28125 -1.140625 1.125l0 4.734375l-1.296875 0l0 -4.9375q0 -0.71875 -0.296875 -0.96875q-0.296875 -0.25 -0.671875 -0.25q-0.46875 0 -0.9375 0.28125q-0.46875 0.28125 -1.140625 1.140625l0 4.734375l-1.28125 0zm11.724304 0.96875l0 -0.96875l5.53125 0l0 0.96875l-5.53125 0zm7.3828125 1.609375l0 -9.640625l1.28125 0l0 1.328125q0.40625 -0.75 0.984375 -1.109375q0.59375 -0.375 1.375 -0.375q1.3125 0 2.03125 0.96875q0.71875 0.953125 0.71875 2.5q0 1.015625 -0.34375 1.921875q-0.328125 0.90625 -1.03125 1.453125q-0.6875 0.53125 -1.578125 0.53125q-0.359375 0 -0.9375 -0.109375q-0.5625 -0.09375 -1.21875 -0.84375l0 3.375l-1.28125 0zm1.28125 -4.265625q0.65625 0.59375 1.046875 0.75q0.390625 0.140625 0.84375 0.140625q0.9375 0 1.390625 -0.796875q0.453125 -0.796875 0.453125 -2.03125q0 -1.140625 -0.40625 -1.8125q-0.390625 -0.671875 -1.234375 -0.671875q-0.53125 0 -1.0625 0.296875q-0.515625 0.28125 -1.03125 0.875l0 3.25zm10.748032 0.796875q-0.5625 0.515625 -1.125 0.78125q-0.5625 0.265625 -1.09375 0.265625q-0.75 0 -1.390625 -0.484375q-0.640625 -0.5 -0.640625 -1.453125q0 -1.03125 0.890625 -1.703125q0.90625 -0.6875 2.875 -0.6875l0.296875 0l0 -0.859375q0 -0.5 -0.140625 -0.734375q-0.125 -0.234375 -0.421875 -0.359375q-0.28125 -0.140625 -0.71875 -0.140625q-1.0 0 -2.171875 0.625l0 -1.0625q1.296875 -0.515625 2.4375 -0.515625q0.625 0 1.140625 0.203125q0.53125 0.1875 0.84375 0.625q0.3125 0.421875 0.3125 1.359375l0 3.203125q0 0.53125 0.078125 0.71875q0.09375 0.1875 0.25 0.28125q0.15625 0.09375 0.359375 0.09375q0.078125 0 0.234375 -0.015625l0.09375 0.703125q-0.4375 0.203125 -0.953125 0.203125q-0.359375 0 -0.6875 -0.21875q-0.328125 -0.234375 -0.46875 -0.828125zm-0.1875 -0.703125l0 -1.828125l-0.40625 -0.015625q-1.015625 0 -1.703125 0.390625q-0.671875 0.390625 -0.671875 1.0625q0 0.46875 0.328125 0.78125q0.34375 0.3125 0.796875 0.3125q0.390625 0 0.8125 -0.171875q0.421875 -0.1875 0.84375 -0.53125zm3.9072876 1.59375l0 -7.0625l1.28125 0l0 1.328125q0.359375 -0.71875 0.9375 -1.09375q0.59375 -0.390625 1.28125 -0.390625q0.1875 0 0.40625 0.03125l0 1.1875q-0.328125 -0.109375 -0.59375 -0.109375q-0.59375 0 -1.109375 0.375q-0.515625 0.359375 -0.921875 1.078125l0 4.65625l-1.28125 0zm10.641098 -0.234375q-1.296875 0.390625 -2.21875 0.390625q-1.640625 0 -2.59375 -1.109375q-0.9375 -1.109375 -0.9375 -2.609375q0 -1.0 0.421875 -1.890625q0.421875 -0.90625 1.09375 -1.34375q0.671875 -0.4375 1.578125 -0.4375q1.21875 0 1.953125 0.890625q0.734375 0.875 0.734375 2.625l-0.015625 0.390625l-4.453125 0q0.109375 0.9375 0.40625 1.453125q0.296875 0.5 0.796875 0.78125q0.5 0.28125 1.265625 0.28125q0.390625 0 0.765625 -0.0625q0.390625 -0.078125 1.203125 -0.375l0 1.015625zm-4.375 -4.0625l3.109375 0q0 -1.0625 -0.421875 -1.515625q-0.40625 -0.453125 -1.046875 -0.453125q-0.734375 0 -1.15625 0.5q-0.40625 0.484375 -0.484375 1.46875zm6.6129913 4.296875l0 -7.0625l1.28125 0l0 1.328125q0.484375 -0.71875 1.125 -1.09375q0.65625 -0.390625 1.359375 -0.390625q0.890625 0 1.453125 0.578125q0.5625 0.5625 0.5625 1.5625l0 5.078125l-1.28125 0l0 -4.65625q0 -0.734375 -0.140625 -0.96875q-0.125 -0.234375 -0.359375 -0.359375q-0.234375 -0.140625 -0.5 -0.140625q-0.46875 0 -1.03125 0.296875q-0.546875 0.296875 -1.1875 1.25l0 4.578125l-1.28125 0zm11.427765 0q-0.59375 0.15625 -1.03125 0.15625q-0.953125 0 -1.515625 -0.546875q-0.5625 -0.546875 -0.5625 -1.5625l0 -4.15625l-0.875 0l0 -0.953125l0.875 0l0 -1.28125l1.28125 -0.125l0 1.40625l1.859375 0l0 0.953125l-1.859375 0l0 3.921875q0 0.75 0.28125 1.078125q0.296875 0.3125 0.921875 0.3125q0.25 0 0.625 -0.09375l0 0.890625zm1.7975311 0l0 -9.625l1.328125 0l4.859375 7.4375l0 -7.4375l1.171875 0l0 9.625l-1.34375 0l-4.84375 -7.4375l0 7.4375l-1.171875 0zm12.69017 0.15625q-1.015625 0 -1.765625 -0.40625q-0.734375 -0.40625 -1.171875 -1.296875q-0.4375 -0.890625 -0.4375 -1.984375q0 -1.03125 0.390625 -1.90625q0.40625 -0.890625 1.15625 -1.328125q0.765625 -0.453125 1.828125 -0.453125q1.015625 0 1.75 0.40625q0.75 0.40625 1.1875 1.296875q0.4375 0.890625 0.4375 1.984375q0 1.03125 -0.40625 1.921875q-0.40625 0.875 -1.15625 1.328125q-0.75 0.4375 -1.8125 0.4375zm0 -0.953125q0.953125 0 1.484375 -0.703125q0.53125 -0.71875 0.53125 -2.03125q0 -1.3125 -0.53125 -2.015625q-0.53125 -0.71875 -1.484375 -0.71875q-0.953125 0 -1.484375 0.71875q-0.515625 0.703125 -0.515625 2.015625q0 1.3125 0.515625 2.03125q0.53125 0.703125 1.484375 0.703125zm9.905655 0.796875l0 -1.328125q-0.390625 0.75 -0.984375 1.125q-0.578125 0.359375 -1.359375 0.359375q-1.3125 0 -2.03125 -0.953125q-0.71875 -0.953125 -0.71875 -2.515625q0 -1.671875 0.8125 -2.78125q0.8125 -1.125 2.203125 -1.125q0.40625 0 0.78125 0.09375q0.375 0.09375 0.65625 0.28125q0.296875 0.171875 0.640625 0.578125l0 -4.015625l1.296875 0l0 10.28125l-1.296875 0zm0 -5.375q-0.65625 -0.59375 -1.046875 -0.734375q-0.390625 -0.15625 -0.828125 -0.15625q-0.9375 0 -1.390625 0.796875q-0.453125 0.78125 -0.453125 2.03125q0 1.140625 0.390625 1.8125q0.40625 0.65625 1.25 0.65625q0.53125 0 1.046875 -0.28125q0.53125 -0.296875 1.03125 -0.875l0 -3.25zm9.044907 5.140625q-1.296875 0.390625 -2.21875 0.390625q-1.640625 0 -2.59375 -1.109375q-0.9375 -1.109375 -0.9375 -2.609375q0 -1.0 0.421875 -1.890625q0.421875 -0.90625 1.09375 -1.34375q0.671875 -0.4375 1.578125 -0.4375q1.21875 0 1.953125 0.890625q0.734375 0.875 0.734375 2.625l-0.015625 0.390625l-4.453125 0q0.109375 0.9375 0.40625 1.453125q0.296875 0.5 0.796875 0.78125q0.5 0.28125 1.265625 0.28125q0.390625 0 0.765625 -0.0625q0.390625 -0.078125 1.203125 -0.375l0 1.015625zm-4.375 -4.0625l3.109375 0q0 -1.0625 -0.421875 -1.515625q-0.40625 -0.453125 -1.046875 -0.453125q-0.734375 0 -1.15625 0.5q-0.40625 0.484375 -0.484375 1.46875z" fill-rule="nonzero"/><path fill="#ffffff" d="m537.4803 133.01312l119.33862 0l0 34.015747l-119.33862 0z" fill-rule="evenodd"/><path stroke="#000000" stroke-width="2.0" stroke-linejoin="round" stroke-linecap="butt" d="m537.4803 133.01312l119.33862 0l0 34.015747l-119.33862 0z" fill-rule="evenodd"/><path fill="#000000" d="m551.0112 154.821l0 -7.0625l1.28125 0l0 1.328125q0.390625 -0.625 1.0 -1.046875q0.609375 -0.4375 1.40625 -0.4375q0.46875 0 0.8125 0.15625q0.34375 0.140625 0.625 0.421875q0.28125 0.265625 0.5 0.90625q0.390625 -0.640625 0.984375 -1.0625q0.609375 -0.4375 1.390625 -0.4375q0.75 0 1.34375 0.46875q0.609375 0.46875 0.609375 1.625l0 5.140625l-1.28125 0l0 -4.9375q0 -0.703125 -0.296875 -0.953125q-0.296875 -0.265625 -0.65625 -0.265625q-0.46875 0 -0.953125 0.296875q-0.484375 0.28125 -1.140625 1.125l0 4.734375l-1.296875 0l0 -4.9375q0 -0.71875 -0.296875 -0.96875q-0.296875 -0.25 -0.671875 -0.25q-0.46875 0 -0.9375 0.28125q-0.46875 0.28125 -1.140625 1.140625l0 4.734375l-1.28125 0zm11.724304 0.96875l0 -0.96875l5.53125 0l0 0.96875l-5.53125 0zm7.3828125 1.609375l0 -9.640625l1.28125 0l0 1.328125q0.40625 -0.75 0.984375 -1.109375q0.59375 -0.375 1.375 -0.375q1.3125 0 2.03125 0.96875q0.71875 0.953125 0.71875 2.5q0 1.015625 -0.34375 1.921875q-0.328125 0.90625 -1.03125 1.453125q-0.6875 0.53125 -1.578125 0.53125q-0.359375 0 -0.9375 -0.109375q-0.5625 -0.09375 -1.21875 -0.84375l0 3.375l-1.28125 0zm1.28125 -4.265625q0.65625 0.59375 1.046875 0.75q0.390625 0.140625 0.84375 0.140625q0.9375 0 1.390625 -0.796875q0.453125 -0.796875 0.453125 -2.03125q0 -1.140625 -0.40625 -1.8125q-0.390625 -0.671875 -1.234375 -0.671875q-0.53125 0 -1.0625 0.296875q-0.515625 0.28125 -1.03125 0.875l0 3.25zm10.747986 0.796875q-0.5625 0.515625 -1.125 0.78125q-0.5625 0.265625 -1.09375 0.265625q-0.75 0 -1.390625 -0.484375q-0.640625 -0.5 -0.640625 -1.453125q0 -1.03125 0.890625 -1.703125q0.90625 -0.6875 2.875 -0.6875l0.296875 0l0 -0.859375q0 -0.5 -0.140625 -0.734375q-0.125 -0.234375 -0.421875 -0.359375q-0.28125 -0.140625 -0.71875 -0.140625q-1.0 0 -2.171875 0.625l0 -1.0625q1.296875 -0.515625 2.4375 -0.515625q0.625 0 1.140625 0.203125q0.53125 0.1875 0.84375 0.625q0.3125 0.421875 0.3125 1.359375l0 3.203125q0 0.53125 0.078125 0.71875q0.09375 0.1875 0.25 0.28125q0.15625 0.09375 0.359375 0.09375q0.078125 0 0.234375 -0.015625l0.09375 0.703125q-0.4375 0.203125 -0.953125 0.203125q-0.359375 0 -0.6875 -0.21875q-0.328125 -0.234375 -0.46875 -0.828125zm-0.1875 -0.703125l0 -1.828125l-0.40625 -0.015625q-1.015625 0 -1.703125 0.390625q-0.671875 0.390625 -0.671875 1.0625q0 0.46875 0.328125 0.78125q0.34375 0.3125 0.796875 0.3125q0.390625 0 0.8125 -0.171875q0.421875 -0.1875 0.84375 -0.53125zm3.9072876 1.59375l0 -7.0625l1.28125 0l0 1.328125q0.359375 -0.71875 0.9375 -1.09375q0.59375 -0.390625 1.28125 -0.390625q0.1875 0 0.40625 0.03125l0 1.1875q-0.328125 -0.109375 -0.59375 -0.109375q-0.59375 0 -1.109375 0.375q-0.515625 0.359375 -0.921875 1.078125l0 4.65625l-1.28125 0zm10.641113 -0.234375q-1.296875 0.390625 -2.21875 0.390625q-1.640625 0 -2.59375 -1.109375q-0.9375 -1.109375 -0.9375 -2.609375q0 -1.0 0.421875 -1.890625q0.421875 -0.90625 1.09375 -1.34375q0.671875 -0.4375 1.578125 -0.4375q1.21875 0 1.953125 0.890625q0.734375 0.875 0.734375 2.625l-0.015625 0.390625l-4.453125 0q0.109375 0.9375 0.40625 1.453125q0.296875 0.5 0.796875 0.78125q0.5 0.28125 1.265625 0.28125q0.390625 0 0.765625 -0.0625q0.390625 -0.078125 1.203125 -0.375l0 1.015625zm-4.375 -4.0625l3.109375 0q0 -1.0625 -0.421875 -1.515625q-0.40625 -0.453125 -1.046875 -0.453125q-0.734375 0 -1.15625 0.5q-0.40625 0.484375 -0.484375 1.46875zm6.612976 4.296875l0 -7.0625l1.28125 0l0 1.328125q0.484375 -0.71875 1.125 -1.09375q0.65625 -0.390625 1.359375 -0.390625q0.890625 0 1.453125 0.578125q0.5625 0.5625 0.5625 1.5625l0 5.078125l-1.28125 0l0 -4.65625q0 -0.734375 -0.140625 -0.96875q-0.125 -0.234375 -0.359375 -0.359375q-0.234375 -0.140625 -0.5 -0.140625q-0.46875 0 -1.03125 0.296875q-0.546875 0.296875 -1.1875 1.25l0 4.578125l-1.28125 0zm11.427795 0q-0.59375 0.15625 -1.03125 0.15625q-0.953125 0 -1.515625 -0.546875q-0.5625 -0.546875 -0.5625 -1.5625l0 -4.15625l-0.875 0l0 -0.953125l0.875 0l0 -1.28125l1.28125 -0.125l0 1.40625l1.859375 0l0 0.953125l-1.859375 0l0 3.921875q0 0.75 0.28125 1.078125q0.296875 0.3125 0.921875 0.3125q0.25 0 0.625 -0.09375l0 0.890625zm1.7975464 0l0 -9.625l1.328125 0l4.859375 7.4375l0 -7.4375l1.171875 0l0 9.625l-1.34375 0l-4.84375 -7.4375l0 7.4375l-1.171875 0zm12.6901245 0.15625q-1.015625 0 -1.765625 -0.40625q-0.734375 -0.40625 -1.171875 -1.296875q-0.4375 -0.890625 -0.4375 -1.984375q0 -1.03125 0.390625 -1.90625q0.40625 -0.890625 1.15625 -1.328125q0.765625 -0.453125 1.828125 -0.453125q1.015625 0 1.75 0.40625q0.75 0.40625 1.1875 1.296875q0.4375 0.890625 0.4375 1.984375q0 1.03125 -0.40625 1.921875q-0.40625 0.875 -1.15625 1.328125q-0.75 0.4375 -1.8125 0.4375zm0 -0.953125q0.953125 0 1.484375 -0.703125q0.53125 -0.71875 0.53125 -2.03125q0 -1.3125 -0.53125 -2.015625q-0.53125 -0.71875 -1.484375 -0.71875q-0.953125 0 -1.484375 0.71875q-0.515625 0.703125 -0.515625 2.015625q0 1.3125 0.515625 2.03125q0.53125 0.703125 1.484375 0.703125zm9.905701 0.796875l0 -1.328125q-0.390625 0.75 -0.984375 1.125q-0.578125 0.359375 -1.359375 0.359375q-1.3125 0 -2.03125 -0.953125q-0.71875 -0.953125 -0.71875 -2.515625q0 -1.671875 0.8125 -2.78125q0.8125 -1.125 2.203125 -1.125q0.40625 0 0.78125 0.09375q0.375 0.09375 0.65625 0.28125q0.296875 0.171875 0.640625 0.578125l0 -4.015625l1.296875 0l0 10.28125l-1.296875 0zm0 -5.375q-0.65625 -0.59375 -1.046875 -0.734375q-0.390625 -0.15625 -0.828125 -0.15625q-0.9375 0 -1.390625 0.796875q-0.453125 0.78125 -0.453125 2.03125q0 1.140625 0.390625 1.8125q0.40625 0.65625 1.25 0.65625q0.53125 0 1.046875 -0.28125q0.53125 -0.296875 1.03125 -0.875l0 -3.25zm9.044861 5.140625q-1.296875 0.390625 -2.21875 0.390625q-1.640625 0 -2.59375 -1.109375q-0.9375 -1.109375 -0.9375 -2.609375q0 -1.0 0.421875 -1.890625q0.421875 -0.90625 1.09375 -1.34375q0.671875 -0.4375 1.578125 -0.4375q1.21875 0 1.953125 0.890625q0.734375 0.875 0.734375 2.625l-0.015625 0.390625l-4.453125 0q0.109375 0.9375 0.40625 1.453125q0.296875 0.5 0.796875 0.78125q0.5 0.28125 1.265625 0.28125q0.390625 0 0.765625 -0.0625q0.390625 -0.078125 1.203125 -0.375l0 1.015625zm-4.375 -4.0625l3.109375 0q0 -1.0625 -0.421875 -1.515625q-0.40625 -0.453125 -1.046875 -0.453125q-0.734375 0 -1.15625 0.5q-0.40625 0.484375 -0.484375 1.46875z" fill-rule="nonzero"/><path fill="#000000" fill-opacity="0.0" d="m254.91339 151.02625l128.8504 -0.15748596" fill-rule="evenodd"/><path stroke="#000000" stroke-width="2.0" stroke-linejoin="round" stroke-linecap="butt" d="m254.91339 151.02625l128.8504 -0.15748596" fill-rule="evenodd"/><path fill="#000000" fill-opacity="0.0" d="m406.11023 150.99738l131.37006 -0.9763794" fill-rule="evenodd"/><path stroke="#000000" stroke-width="2.0" stroke-linejoin="round" stroke-linecap="butt" d="m406.11023 150.99738l131.37006 -0.9763794" fill-rule="evenodd"/><path fill="#000000" fill-opacity="0.0" d="m383.1181 151.01575l-0.881897 -83.055115" fill-rule="evenodd"/><path stroke="#000000" stroke-width="2.0" stroke-linejoin="round" stroke-linecap="butt" d="m383.1181 151.01575l-0.75445557 -71.05579" fill-rule="evenodd"/><path stroke="#000000" stroke-width="2.0" stroke-linecap="butt" d="m385.6669 79.92488l-3.3996277 -9.040611l-3.2069092 9.110756z" fill-rule="evenodd"/><path fill="#000000" fill-opacity="0.0" d="m406.79266 151.01575l-0.881897 -83.055115" fill-rule="evenodd"/><path stroke="#000000" stroke-width="2.0" stroke-linejoin="round" stroke-linecap="butt" d="m406.79266 151.01575l-0.7544861 -71.05579" fill-rule="evenodd"/><path stroke="#000000" stroke-width="2.0" stroke-linecap="butt" d="m409.34146 79.92488l-3.3996582 -9.040611l-3.2069092 9.110756z" fill-rule="evenodd"/><path fill="#000000" fill-opacity="0.0" d="m131.83727 48.992126l97.98425 0l0 16.97638l-97.98425 0z" fill-rule="evenodd"/><path fill="#000000" d="m146.88681 61.01719l0 -0.9375q1.015625 0.5 1.75 0.5q0.4375 0 0.734375 -0.234375q0.296875 -0.25 0.296875 -0.609375q0 -0.21875 -0.15625 -0.4375q-0.140625 -0.203125 -0.671875 -0.421875l-0.59375 -0.265625q-0.6875 -0.28125 -1.0 -0.65625q-0.328125 -0.375 -0.328125 -0.921875q0 -0.6875 0.5 -1.140625q0.5 -0.453125 1.453125 -0.453125q0.484375 0 1.171875 0.140625l0.21875 0.03125l0 0.859375q-0.859375 -0.25 -1.375 -0.25q-0.484375 0 -0.734375 0.21875q-0.234375 0.203125 -0.234375 0.5q0 0.21875 0.15625 0.40625q0.171875 0.1875 0.59375 0.375l0.484375 0.203125q1.0 0.421875 1.265625 0.828125q0.265625 0.40625 0.265625 0.890625q0 0.46875 -0.25 0.875q-0.25 0.390625 -0.75 0.609375q-0.484375 0.21875 -1.078125 0.21875q-0.703125 0 -1.71875 -0.328125zm8.166565 0.203125q-0.484375 0.125 -0.828125 0.125q-0.75 0 -1.203125 -0.4375q-0.453125 -0.4375 -0.453125 -1.25l0 -3.3125l-0.703125 0l0 -0.78125l0.703125 0l0 -1.015625l1.03125 -0.109375l0 1.125l1.46875 0l0 0.78125l-1.46875 0l0 3.125q0 0.59375 0.21875 0.859375q0.234375 0.25 0.734375 0.25q0.203125 0 0.5 -0.0625l0 0.703125zm5.0950623 0l0 -1.0625q-0.3125 0.59375 -0.796875 0.890625q-0.46875 0.296875 -1.09375 0.296875q-1.03125 0 -1.609375 -0.765625q-0.578125 -0.765625 -0.578125 -2.015625q0 -1.328125 0.640625 -2.21875q0.65625 -0.90625 1.765625 -0.90625q0.328125 0 0.625 0.078125q0.296875 0.078125 0.53125 0.234375q0.234375 0.140625 0.515625 0.46875l0 -3.21875l1.03125 0l0 8.21875l-1.03125 0zm0 -4.296875q-0.53125 -0.46875 -0.84375 -0.578125q-0.3125 -0.125 -0.671875 -0.125q-0.75 0 -1.109375 0.625q-0.359375 0.625 -0.359375 1.625q0 0.921875 0.3125 1.453125q0.328125 0.53125 1.0 0.53125q0.421875 0 0.84375 -0.234375q0.421875 -0.234375 0.828125 -0.703125l0 -2.59375zm3.2226105 4.296875l0 -1.03125l1.03125 0l0 1.03125l-1.03125 0zm0 -4.625l0 -1.03125l1.03125 0l0 1.03125l-1.03125 0zm3.371704 4.625l0 -1.03125l1.03125 0l0 1.03125l-1.03125 0zm0 -4.625l0 -1.03125l1.03125 0l0 1.03125l-1.03125 0zm3.887329 4.625l-1.625 -5.65625l1.0 0l1.25 4.375l1.328125 -4.375l1.03125 0l1.171875 4.375l1.421875 -4.375l0.875 0l-1.84375 5.65625l-1.03125 0l-1.203125 -4.375l-1.34375 4.375l-1.03125 0zm11.695099 -0.1875q-1.03125 0.3125 -1.765625 0.3125q-1.3125 0 -2.078125 -0.875q-0.75 -0.890625 -0.75 -2.09375q0 -0.796875 0.328125 -1.515625q0.34375 -0.71875 0.875 -1.0625q0.546875 -0.359375 1.265625 -0.359375q0.984375 0 1.5625 0.703125q0.578125 0.703125 0.578125 2.109375l0 0.296875l-3.5625 0q0.078125 0.75 0.3125 1.15625q0.25 0.40625 0.640625 0.640625q0.40625 0.21875 1.015625 0.21875q0.3125 0 0.625 -0.046875q0.3125 -0.0625 0.953125 -0.296875l0 0.8125zm-3.5 -3.25l2.484375 0q0 -0.84375 -0.328125 -1.203125q-0.328125 -0.375 -0.84375 -0.375q-0.578125 0 -0.921875 0.40625q-0.328125 0.390625 -0.390625 1.171875zm8.20253 2.71875q-0.453125 0.421875 -0.90625 0.640625q-0.4375 0.203125 -0.859375 0.203125q-0.609375 0 -1.125 -0.390625q-0.515625 -0.390625 -0.515625 -1.15625q0 -0.828125 0.71875 -1.375q0.71875 -0.546875 2.296875 -0.546875l0.234375 0l0 -0.671875q0 -0.40625 -0.109375 -0.59375q-0.109375 -0.1875 -0.34375 -0.28125q-0.21875 -0.109375 -0.5625 -0.109375q-0.796875 0 -1.734375 0.5l0 -0.859375q1.03125 -0.421875 1.9375 -0.421875q0.5 0 0.921875 0.171875q0.421875 0.15625 0.671875 0.5q0.25 0.328125 0.25 1.09375l0 2.546875q0 0.4375 0.0625 0.59375q0.078125 0.140625 0.1875 0.21875q0.125 0.078125 0.296875 0.078125q0.0625 0 0.1875 -0.03125l0.078125 0.578125q-0.34375 0.15625 -0.765625 0.15625q-0.28125 0 -0.546875 -0.171875q-0.265625 -0.1875 -0.375 -0.671875zm-0.15625 -0.5625l0 -1.453125l-0.328125 -0.015625q-0.796875 0 -1.34375 0.3125q-0.546875 0.3125 -0.546875 0.84375q0 0.375 0.265625 0.640625q0.265625 0.25 0.625 0.25q0.328125 0 0.65625 -0.140625q0.328125 -0.15625 0.671875 -0.4375zm3.1348724 1.28125l0 -8.21875l1.015625 0l0 5.3125l2.390625 -2.75l1.109375 0l-2.28125 2.640625l2.75 3.015625l-1.3125 0l-2.65625 -2.890625l0 2.890625l-1.015625 0zm5.6501617 0.765625l0 -0.765625l4.421875 0l0 0.765625l-4.421875 0zm5.90625 1.296875l0 -7.71875l1.015625 0l0 1.0625q0.328125 -0.59375 0.796875 -0.890625q0.46875 -0.296875 1.09375 -0.296875q1.046875 0 1.609375 0.78125q0.578125 0.765625 0.578125 2.0q0 0.8125 -0.265625 1.546875q-0.265625 0.71875 -0.828125 1.15625q-0.546875 0.421875 -1.265625 0.421875q-0.28125 0 -0.734375 -0.078125q-0.453125 -0.078125 -0.984375 -0.6875l0 2.703125l-1.015625 0zm1.015625 -3.40625q0.53125 0.46875 0.84375 0.59375q0.3125 0.109375 0.671875 0.109375q0.75 0 1.109375 -0.625q0.359375 -0.640625 0.359375 -1.625q0 -0.921875 -0.328125 -1.453125q-0.3125 -0.53125 -0.984375 -0.53125q-0.421875 0 -0.84375 0.234375q-0.40625 0.21875 -0.828125 0.6875l0 2.609375zm8.206985 1.34375q-0.484375 0.125 -0.828125 0.125q-0.75 0 -1.203125 -0.4375q-0.453125 -0.4375 -0.453125 -1.25l0 -3.3125l-0.703125 0l0 -0.78125l0.703125 0l0 -1.015625l1.03125 -0.109375l0 1.125l1.46875 0l0 0.78125l-1.46875 0l0 3.125q0 0.59375 0.21875 0.859375q0.234375 0.25 0.734375 0.25q0.203125 0 0.5 -0.0625l0 0.703125zm1.4700623 0l0 -5.65625l1.015625 0l0 1.0625q0.296875 -0.5625 0.75 -0.875q0.46875 -0.3125 1.015625 -0.3125q0.15625 0 0.328125 0.03125l0 0.953125q-0.25 -0.078125 -0.46875 -0.078125q-0.484375 0 -0.890625 0.296875q-0.40625 0.28125 -0.734375 0.859375l0 3.71875l-1.015625 0z" fill-rule="nonzero"/><path fill="#000000" fill-opacity="0.0" d="m569.13385 50.05512l97.98425 0l0 16.976376l-97.98425 0z" fill-rule="evenodd"/><path fill="#000000" d="m579.8465 62.08018l0 -0.9375q1.015625 0.5 1.75 0.5q0.4375 0 0.734375 -0.234375q0.296875 -0.25 0.296875 -0.609375q0 -0.21875 -0.15625 -0.4375q-0.140625 -0.203125 -0.671875 -0.421875l-0.59375 -0.265625q-0.6875 -0.28125 -1.0 -0.65625q-0.328125 -0.375 -0.328125 -0.921875q0 -0.6875 0.5 -1.140625q0.5 -0.453125 1.453125 -0.453125q0.484375 0 1.171875 0.140625l0.21875 0.03125l0 0.859375q-0.859375 -0.25 -1.375 -0.25q-0.484375 0 -0.734375 0.21875q-0.234375 0.203125 -0.234375 0.5q0 0.21875 0.15625 0.40625q0.171875 0.1875 0.59375 0.375l0.484375 0.203125q1.0 0.421875 1.265625 0.828125q0.265625 0.40625 0.265625 0.890625q0 0.46875 -0.25 0.875q-0.25 0.390625 -0.75 0.609375q-0.484375 0.21875 -1.078125 0.21875q-0.703125 0 -1.71875 -0.328125zm8.166565 0.203125q-0.484375 0.125 -0.828125 0.125q-0.75 0 -1.203125 -0.4375q-0.453125 -0.4375 -0.453125 -1.25l0 -3.3125l-0.703125 0l0 -0.78125l0.703125 0l0 -1.015625l1.03125 -0.109375l0 1.125l1.46875 0l0 0.78125l-1.46875 0l0 3.125q0 0.59375 0.21875 0.859375q0.234375 0.25 0.734375 0.25q0.203125 0 0.5 -0.0625l0 0.703125zm5.0950317 0l0 -1.0625q-0.3125 0.59375 -0.796875 0.890625q-0.46875 0.296875 -1.09375 0.296875q-1.03125 0 -1.609375 -0.765625q-0.578125 -0.765625 -0.578125 -2.015625q0 -1.328125 0.640625 -2.21875q0.65625 -0.90625 1.765625 -0.90625q0.328125 0 0.625 0.078125q0.296875 0.078125 0.53125 0.234375q0.234375 0.140625 0.515625 0.46875l0 -3.21875l1.03125 0l0 8.21875l-1.03125 0zm0 -4.296875q-0.53125 -0.46875 -0.84375 -0.578125q-0.3125 -0.125 -0.671875 -0.125q-0.75 0 -1.109375 0.625q-0.359375 0.625 -0.359375 1.625q0 0.921875 0.3125 1.453125q0.328125 0.53125 1.0 0.53125q0.421875 0 0.84375 -0.234375q0.421875 -0.234375 0.828125 -0.703125l0 -2.59375zm3.2226562 4.296875l0 -1.03125l1.03125 0l0 1.03125l-1.03125 0zm0 -4.625l0 -1.03125l1.03125 0l0 1.03125l-1.03125 0zm3.371704 4.625l0 -1.03125l1.03125 0l0 1.03125l-1.03125 0zm0 -4.625l0 -1.03125l1.03125 0l0 1.03125l-1.03125 0zm3.012329 4.421875l0 -0.9375q1.015625 0.5 1.75 0.5q0.4375 0 0.734375 -0.234375q0.296875 -0.25 0.296875 -0.609375q0 -0.21875 -0.15625 -0.4375q-0.140625 -0.203125 -0.671875 -0.421875l-0.59375 -0.265625q-0.6875 -0.28125 -1.0 -0.65625q-0.328125 -0.375 -0.328125 -0.921875q0 -0.6875 0.5 -1.140625q0.5 -0.453125 1.453125 -0.453125q0.484375 0 1.171875 0.140625l0.21875 0.03125l0 0.859375q-0.859375 -0.25 -1.375 -0.25q-0.484375 0 -0.734375 0.21875q-0.234375 0.203125 -0.234375 0.5q0 0.21875 0.15625 0.40625q0.171875 0.1875 0.59375 0.375l0.484375 0.203125q1.0 0.421875 1.265625 0.828125q0.265625 0.40625 0.265625 0.890625q0 0.46875 -0.25 0.875q-0.25 0.390625 -0.75 0.609375q-0.484375 0.21875 -1.078125 0.21875q-0.703125 0 -1.71875 -0.328125zm5.65094 0.203125l0 -8.21875l1.015625 0l0 3.625q0.390625 -0.5625 0.90625 -0.875q0.515625 -0.3125 1.078125 -0.3125q0.71875 0 1.15625 0.46875q0.453125 0.453125 0.453125 1.25l0 4.0625l-1.015625 0l0 -3.71875q0 -0.59375 -0.109375 -0.78125q-0.109375 -0.1875 -0.296875 -0.28125q-0.1875 -0.109375 -0.390625 -0.109375q-0.390625 0 -0.828125 0.234375q-0.4375 0.234375 -0.953125 1.0l0 3.65625l-1.015625 0zm9.519531 -0.71875q-0.453125 0.421875 -0.90625 0.640625q-0.4375 0.203125 -0.859375 0.203125q-0.609375 0 -1.125 -0.390625q-0.515625 -0.390625 -0.515625 -1.15625q0 -0.828125 0.71875 -1.375q0.71875 -0.546875 2.296875 -0.546875l0.234375 0l0 -0.671875q0 -0.40625 -0.109375 -0.59375q-0.109375 -0.1875 -0.34375 -0.28125q-0.21875 -0.109375 -0.5625 -0.109375q-0.796875 0 -1.734375 0.5l0 -0.859375q1.03125 -0.421875 1.9375 -0.421875q0.5 0 0.921875 0.171875q0.421875 0.15625 0.671875 0.5q0.25 0.328125 0.25 1.09375l0 2.546875q0 0.4375 0.0625 0.59375q0.078125 0.140625 0.1875 0.21875q0.125 0.078125 0.296875 0.078125q0.0625 0 0.1875 -0.03125l0.078125 0.578125q-0.34375 0.15625 -0.765625 0.15625q-0.28125 0 -0.546875 -0.171875q-0.265625 -0.1875 -0.375 -0.671875zm-0.15625 -0.5625l0 -1.453125l-0.328125 -0.015625q-0.796875 0 -1.34375 0.3125q-0.546875 0.3125 -0.546875 0.84375q0 0.375 0.265625 0.640625q0.265625 0.25 0.625 0.25q0.328125 0 0.65625 -0.140625q0.328125 -0.15625 0.671875 -0.4375zm3.1348877 1.28125l0 -5.65625l1.015625 0l0 1.0625q0.296875 -0.5625 0.75 -0.875q0.46875 -0.3125 1.015625 -0.3125q0.15625 0 0.328125 0.03125l0 0.953125q-0.25 -0.078125 -0.46875 -0.078125q-0.484375 0 -0.890625 0.296875q-0.40625 0.28125 -0.734375 0.859375l0 3.71875l-1.015625 0zm8.500977 -0.1875q-1.03125 0.3125 -1.765625 0.3125q-1.3125 0 -2.078125 -0.875q-0.75 -0.890625 -0.75 -2.09375q0 -0.796875 0.328125 -1.515625q0.34375 -0.71875 0.875 -1.0625q0.546875 -0.359375 1.265625 -0.359375q0.984375 0 1.5625 0.703125q0.578125 0.703125 0.578125 2.109375l0 0.296875l-3.5625 0q0.078125 0.75 0.3125 1.15625q0.25 0.40625 0.640625 0.640625q0.40625 0.21875 1.015625 0.21875q0.3125 0 0.625 -0.046875q0.3125 -0.0625 0.953125 -0.296875l0 0.8125zm-3.5 -3.25l2.484375 0q0 -0.84375 -0.328125 -1.203125q-0.328125 -0.375 -0.84375 -0.375q-0.578125 0 -0.921875 0.40625q-0.328125 0.390625 -0.390625 1.171875zm8.921265 3.4375l0 -1.0625q-0.3125 0.59375 -0.796875 0.890625q-0.46875 0.296875 -1.09375 0.296875q-1.03125 0 -1.609375 -0.765625q-0.578125 -0.765625 -0.578125 -2.015625q0 -1.328125 0.640625 -2.21875q0.65625 -0.90625 1.765625 -0.90625q0.328125 0 0.625 0.078125q0.296875 0.078125 0.53125 0.234375q0.234375 0.140625 0.515625 0.46875l0 -3.21875l1.03125 0l0 8.21875l-1.03125 0zm0 -4.296875q-0.53125 -0.46875 -0.84375 -0.578125q-0.3125 -0.125 -0.671875 -0.125q-0.75 0 -1.109375 0.625q-0.359375 0.625 -0.359375 1.625q0 0.921875 0.3125 1.453125q0.328125 0.53125 1.0 0.53125q0.421875 0 0.84375 -0.234375q0.421875 -0.234375 0.828125 -0.703125l0 -2.59375zm2.5038452 5.0625l0 -0.765625l4.421875 0l0 0.765625l-4.421875 0zm5.90625 1.2968788l0 -7.718754l1.015625 0l0 1.0625q0.328125 -0.59375 0.796875 -0.890625q0.46875 -0.296875 1.09375 -0.296875q1.046875 0 1.609375 0.78125q0.578125 0.765625 0.578125 2.0q0 0.8125 -0.265625 1.546875q-0.265625 0.71875 -0.828125 1.15625q-0.546875 0.421875 -1.265625 0.421875q-0.28125 0 -0.734375 -0.078125q-0.453125 -0.078125 -0.984375 -0.6875l0 2.7031288l-1.015625 0zm1.015625 -3.4062538q0.53125 0.46875 0.84375 0.59375q0.3125 0.109375 0.671875 0.109375q0.75 0 1.109375 -0.625q0.359375 -0.640625 0.359375 -1.625q0 -0.921875 -0.328125 -1.453125q-0.3125 -0.53125 -0.984375 -0.53125q-0.421875 0 -0.84375 0.234375q-0.40625 0.21875 -0.828125 0.6875l0 2.609375zm8.20697 1.34375q-0.484375 0.125 -0.828125 0.125q-0.75 0 -1.203125 -0.4375q-0.453125 -0.4375 -0.453125 -1.25l0 -3.3125l-0.703125 0l0 -0.78125l0.703125 0l0 -1.015625l1.03125 -0.109375l0 1.125l1.46875 0l0 0.78125l-1.46875 0l0 3.125q0 0.59375 0.21875 0.859375q0.234375 0.25 0.734375 0.25q0.203125 0 0.5 -0.0625l0 0.703125zm1.4700928 0l0 -5.65625l1.015625 0l0 1.0625q0.296875 -0.5625 0.75 -0.875q0.46875 -0.3125 1.015625 -0.3125q0.15625 0 0.328125 0.03125l0 0.953125q-0.25 -0.078125 -0.46875 -0.078125q-0.484375 0 -0.890625 0.296875q-0.40625 0.28125 -0.734375 0.859375l0 3.71875l-1.015625 0z" fill-rule="nonzero"/><path fill="#000000" fill-opacity="0.0" d="m429.5853 134.04987l97.98428 0l0 16.97638l-97.98428 0z" fill-rule="evenodd"/><path fill="#000000" d="m440.29794 146.07494l0 -0.9375q1.015625 0.5 1.75 0.5q0.4375 0 0.734375 -0.234375q0.296875 -0.25 0.296875 -0.609375q0 -0.21875 -0.15625 -0.4375q-0.140625 -0.203125 -0.671875 -0.421875l-0.59375 -0.265625q-0.6875 -0.28125 -1.0 -0.65625q-0.328125 -0.375 -0.328125 -0.921875q0 -0.6875 0.5 -1.140625q0.5 -0.453125 1.453125 -0.453125q0.484375 0 1.171875 0.140625l0.21875 0.03125l0 0.859375q-0.859375 -0.25 -1.375 -0.25q-0.484375 0 -0.734375 0.21875q-0.234375 0.203125 -0.234375 0.5q0 0.21875 0.15625 0.40625q0.171875 0.1875 0.59375 0.375l0.484375 0.203125q1.0 0.421875 1.265625 0.828125q0.265625 0.40625 0.265625 0.890625q0 0.46875 -0.25 0.875q-0.25 0.390625 -0.75 0.609375q-0.484375 0.21875 -1.078125 0.21875q-0.703125 0 -1.71875 -0.328125zm8.166565 0.203125q-0.484375 0.125 -0.828125 0.125q-0.75 0 -1.203125 -0.4375q-0.453125 -0.4375 -0.453125 -1.25l0 -3.3125l-0.703125 0l0 -0.78125l0.703125 0l0 -1.015625l1.03125 -0.109375l0 1.125l1.46875 0l0 0.78125l-1.46875 0l0 3.125q0 0.59375 0.21875 0.859375q0.234375 0.25 0.734375 0.25q0.203125 0 0.5 -0.0625l0 0.703125zm5.0950623 0l0 -1.0625q-0.3125 0.59375 -0.796875 0.890625q-0.46875 0.296875 -1.09375 0.296875q-1.03125 0 -1.609375 -0.765625q-0.578125 -0.765625 -0.578125 -2.015625q0 -1.328125 0.640625 -2.21875q0.65625 -0.90625 1.765625 -0.90625q0.328125 0 0.625 0.078125q0.296875 0.078125 0.53125 0.234375q0.234375 0.140625 0.515625 0.46875l0 -3.21875l1.03125 0l0 8.21875l-1.03125 0zm0 -4.296875q-0.53125 -0.46875 -0.84375 -0.578125q-0.3125 -0.125 -0.671875 -0.125q-0.75 0 -1.109375 0.625q-0.359375 0.625 -0.359375 1.625q0 0.921875 0.3125 1.453125q0.328125 0.53125 1.0 0.53125q0.421875 0 0.84375 -0.234375q0.421875 -0.234375 0.828125 -0.703125l0 -2.59375zm3.2225952 4.296875l0 -1.03125l1.03125 0l0 1.03125l-1.03125 0zm0 -4.625l0 -1.03125l1.03125 0l0 1.03125l-1.03125 0zm3.371704 4.625l0 -1.03125l1.03125 0l0 1.03125l-1.03125 0zm0 -4.625l0 -1.03125l1.03125 0l0 1.03125l-1.03125 0zm3.012329 4.421875l0 -0.9375q1.015625 0.5 1.75 0.5q0.4375 0 0.734375 -0.234375q0.296875 -0.25 0.296875 -0.609375q0 -0.21875 -0.15625 -0.4375q-0.140625 -0.203125 -0.671875 -0.421875l-0.59375 -0.265625q-0.6875 -0.28125 -1.0 -0.65625q-0.328125 -0.375 -0.328125 -0.921875q0 -0.6875 0.5 -1.140625q0.5 -0.453125 1.453125 -0.453125q0.484375 0 1.171875 0.140625l0.21875 0.03125l0 0.859375q-0.859375 -0.25 -1.375 -0.25q-0.484375 0 -0.734375 0.21875q-0.234375 0.203125 -0.234375 0.5q0 0.21875 0.15625 0.40625q0.171875 0.1875 0.59375 0.375l0.484375 0.203125q1.0 0.421875 1.265625 0.828125q0.265625 0.40625 0.265625 0.890625q0 0.46875 -0.25 0.875q-0.25 0.390625 -0.75 0.609375q-0.484375 0.21875 -1.078125 0.21875q-0.703125 0 -1.71875 -0.328125zm5.65094 0.203125l0 -8.21875l1.015625 0l0 3.625q0.390625 -0.5625 0.90625 -0.875q0.515625 -0.3125 1.078125 -0.3125q0.71875 0 1.15625 0.46875q0.453125 0.453125 0.453125 1.25l0 4.0625l-1.015625 0l0 -3.71875q0 -0.59375 -0.109375 -0.78125q-0.109375 -0.1875 -0.296875 -0.28125q-0.1875 -0.109375 -0.390625 -0.109375q-0.390625 0 -0.828125 0.234375q-0.4375 0.234375 -0.953125 1.0l0 3.65625l-1.015625 0zm9.519592 -0.71875q-0.453125 0.421875 -0.90625 0.640625q-0.4375 0.203125 -0.859375 0.203125q-0.609375 0 -1.125 -0.390625q-0.515625 -0.390625 -0.515625 -1.15625q0 -0.828125 0.71875 -1.375q0.71875 -0.546875 2.296875 -0.546875l0.234375 0l0 -0.671875q0 -0.40625 -0.109375 -0.59375q-0.109375 -0.1875 -0.34375 -0.28125q-0.21875 -0.109375 -0.5625 -0.109375q-0.796875 0 -1.734375 0.5l0 -0.859375q1.03125 -0.421875 1.9375 -0.421875q0.5 0 0.921875 0.171875q0.421875 0.15625 0.671875 0.5q0.25 0.328125 0.25 1.09375l0 2.546875q0 0.4375 0.0625 0.59375q0.078125 0.140625 0.1875 0.21875q0.125 0.078125 0.296875 0.078125q0.0625 0 0.1875 -0.03125l0.078125 0.578125q-0.34375 0.15625 -0.765625 0.15625q-0.28125 0 -0.546875 -0.171875q-0.265625 -0.1875 -0.375 -0.671875zm-0.15625 -0.5625l0 -1.453125l-0.328125 -0.015625q-0.796875 0 -1.34375 0.3125q-0.546875 0.3125 -0.546875 0.84375q0 0.375 0.265625 0.640625q0.265625 0.25 0.625 0.25q0.328125 0 0.65625 -0.140625q0.328125 -0.15625 0.671875 -0.4375zm3.1348572 1.28125l0 -5.65625l1.015625 0l0 1.0625q0.296875 -0.5625 0.75 -0.875q0.46875 -0.3125 1.015625 -0.3125q0.15625 0 0.328125 0.03125l0 0.953125q-0.25 -0.078125 -0.46875 -0.078125q-0.484375 0 -0.890625 0.296875q-0.40625 0.28125 -0.734375 0.859375l0 3.71875l-1.015625 0zm8.500946 -0.1875q-1.03125 0.3125 -1.765625 0.3125q-1.3125 0 -2.078125 -0.875q-0.75 -0.890625 -0.75 -2.09375q0 -0.796875 0.328125 -1.515625q0.34375 -0.71875 0.875 -1.0625q0.546875 -0.359375 1.265625 -0.359375q0.984375 0 1.5625 0.703125q0.578125 0.703125 0.578125 2.109375l0 0.296875l-3.5625 0q0.078125 0.75 0.3125 1.15625q0.25 0.40625 0.640625 0.640625q0.40625 0.21875 1.015625 0.21875q0.3125 0 0.625 -0.046875q0.3125 -0.0625 0.953125 -0.296875l0 0.8125zm-3.5 -3.25l2.484375 0q0 -0.84375 -0.328125 -1.203125q-0.328125 -0.375 -0.84375 -0.375q-0.578125 0 -0.921875 0.40625q-0.328125 0.390625 -0.390625 1.171875zm8.921295 3.4375l0 -1.0625q-0.3125 0.59375 -0.796875 0.890625q-0.46875 0.296875 -1.09375 0.296875q-1.03125 0 -1.609375 -0.765625q-0.578125 -0.765625 -0.578125 -2.015625q0 -1.328125 0.640625 -2.21875q0.65625 -0.90625 1.765625 -0.90625q0.328125 0 0.625 0.078125q0.296875 0.078125 0.53125 0.234375q0.234375 0.140625 0.515625 0.46875l0 -3.21875l1.03125 0l0 8.21875l-1.03125 0zm0 -4.296875q-0.53125 -0.46875 -0.84375 -0.578125q-0.3125 -0.125 -0.671875 -0.125q-0.75 0 -1.109375 0.625q-0.359375 0.625 -0.359375 1.625q0 0.921875 0.3125 1.453125q0.328125 0.53125 1.0 0.53125q0.421875 0 0.84375 -0.234375q0.421875 -0.234375 0.828125 -0.703125l0 -2.59375zm2.5038452 5.0625l0 -0.765625l4.421875 0l0 0.765625l-4.421875 0zm5.90625 1.296875l0 -7.71875l1.015625 0l0 1.0625q0.328125 -0.59375 0.796875 -0.890625q0.46875 -0.296875 1.09375 -0.296875q1.046875 0 1.609375 0.78125q0.578125 0.765625 0.578125 2.0q0 0.8125 -0.265625 1.546875q-0.265625 0.71875 -0.828125 1.15625q-0.546875 0.421875 -1.265625 0.421875q-0.28125 0 -0.734375 -0.078125q-0.453125 -0.078125 -0.984375 -0.6875l0 2.703125l-1.015625 0zm1.015625 -3.40625q0.53125 0.46875 0.84375 0.59375q0.3125 0.109375 0.671875 0.109375q0.75 0 1.109375 -0.625q0.359375 -0.640625 0.359375 -1.625q0 -0.921875 -0.328125 -1.453125q-0.3125 -0.53125 -0.984375 -0.53125q-0.421875 0 -0.84375 0.234375q-0.40625 0.21875 -0.828125 0.6875l0 2.609375zm8.207001 1.34375q-0.484375 0.125 -0.828125 0.125q-0.75 0 -1.203125 -0.4375q-0.453125 -0.4375 -0.453125 -1.25l0 -3.3125l-0.703125 0l0 -0.78125l0.703125 0l0 -1.015625l1.03125 -0.109375l0 1.125l1.46875 0l0 0.78125l-1.46875 0l0 3.125q0 0.59375 0.21875 0.859375q0.234375 0.25 0.734375 0.25q0.203125 0 0.5 -0.0625l0 0.703125zm1.4700317 0l0 -5.65625l1.015625 0l0 1.0625q0.296875 -0.5625 0.75 -0.875q0.46875 -0.3125 1.015625 -0.3125q0.15625 0 0.328125 0.03125l0 0.953125q-0.25 -0.078125 -0.46875 -0.078125q-0.484375 0 -0.890625 0.296875q-0.40625 0.28125 -0.734375 0.859375l0 3.71875l-1.015625 0z" fill-rule="nonzero"/><path fill="#000000" fill-opacity="0.0" d="m274.4987 134.04987l97.98425 0l0 16.97638l-97.98425 0z" fill-rule="evenodd"/><path fill="#000000" d="m285.2113 146.07494l0 -0.9375q1.015625 0.5 1.75 0.5q0.4375 0 0.734375 -0.234375q0.296875 -0.25 0.296875 -0.609375q0 -0.21875 -0.15625 -0.4375q-0.140625 -0.203125 -0.671875 -0.421875l-0.59375 -0.265625q-0.6875 -0.28125 -1.0 -0.65625q-0.328125 -0.375 -0.328125 -0.921875q0 -0.6875 0.5 -1.140625q0.5 -0.453125 1.453125 -0.453125q0.484375 0 1.171875 0.140625l0.21875 0.03125l0 0.859375q-0.859375 -0.25 -1.375 -0.25q-0.484375 0 -0.734375 0.21875q-0.234375 0.203125 -0.234375 0.5q0 0.21875 0.15625 0.40625q0.171875 0.1875 0.59375 0.375l0.484375 0.203125q1.0 0.421875 1.265625 0.828125q0.265625 0.40625 0.265625 0.890625q0 0.46875 -0.25 0.875q-0.25 0.390625 -0.75 0.609375q-0.484375 0.21875 -1.078125 0.21875q-0.703125 0 -1.71875 -0.328125zm8.166565 0.203125q-0.484375 0.125 -0.828125 0.125q-0.75 0 -1.203125 -0.4375q-0.453125 -0.4375 -0.453125 -1.25l0 -3.3125l-0.703125 0l0 -0.78125l0.703125 0l0 -1.015625l1.03125 -0.109375l0 1.125l1.46875 0l0 0.78125l-1.46875 0l0 3.125q0 0.59375 0.21875 0.859375q0.234375 0.25 0.734375 0.25q0.203125 0 0.5 -0.0625l0 0.703125zm5.0950623 0l0 -1.0625q-0.3125 0.59375 -0.796875 0.890625q-0.46875 0.296875 -1.09375 0.296875q-1.03125 0 -1.609375 -0.765625q-0.578125 -0.765625 -0.578125 -2.015625q0 -1.328125 0.640625 -2.21875q0.65625 -0.90625 1.765625 -0.90625q0.328125 0 0.625 0.078125q0.296875 0.078125 0.53125 0.234375q0.234375 0.140625 0.515625 0.46875l0 -3.21875l1.03125 0l0 8.21875l-1.03125 0zm0 -4.296875q-0.53125 -0.46875 -0.84375 -0.578125q-0.3125 -0.125 -0.671875 -0.125q-0.75 0 -1.109375 0.625q-0.359375 0.625 -0.359375 1.625q0 0.921875 0.3125 1.453125q0.328125 0.53125 1.0 0.53125q0.421875 0 0.84375 -0.234375q0.421875 -0.234375 0.828125 -0.703125l0 -2.59375zm3.2226257 4.296875l0 -1.03125l1.03125 0l0 1.03125l-1.03125 0zm0 -4.625l0 -1.03125l1.03125 0l0 1.03125l-1.03125 0zm3.371704 4.625l0 -1.03125l1.03125 0l0 1.03125l-1.03125 0zm0 -4.625l0 -1.03125l1.03125 0l0 1.03125l-1.03125 0zm3.012329 4.421875l0 -0.9375q1.015625 0.5 1.75 0.5q0.4375 0 0.734375 -0.234375q0.296875 -0.25 0.296875 -0.609375q0 -0.21875 -0.15625 -0.4375q-0.140625 -0.203125 -0.671875 -0.421875l-0.59375 -0.265625q-0.6875 -0.28125 -1.0 -0.65625q-0.328125 -0.375 -0.328125 -0.921875q0 -0.6875 0.5 -1.140625q0.5 -0.453125 1.453125 -0.453125q0.484375 0 1.171875 0.140625l0.21875 0.03125l0 0.859375q-0.859375 -0.25 -1.375 -0.25q-0.484375 0 -0.734375 0.21875q-0.234375 0.203125 -0.234375 0.5q0 0.21875 0.15625 0.40625q0.171875 0.1875 0.59375 0.375l0.484375 0.203125q1.0 0.421875 1.265625 0.828125q0.265625 0.40625 0.265625 0.890625q0 0.46875 -0.25 0.875q-0.25 0.390625 -0.75 0.609375q-0.484375 0.21875 -1.078125 0.21875q-0.703125 0 -1.71875 -0.328125zm5.65094 0.203125l0 -8.21875l1.015625 0l0 3.625q0.390625 -0.5625 0.90625 -0.875q0.515625 -0.3125 1.078125 -0.3125q0.71875 0 1.15625 0.46875q0.453125 0.453125 0.453125 1.25l0 4.0625l-1.015625 0l0 -3.71875q0 -0.59375 -0.109375 -0.78125q-0.109375 -0.1875 -0.296875 -0.28125q-0.1875 -0.109375 -0.390625 -0.109375q-0.390625 0 -0.828125 0.234375q-0.4375 0.234375 -0.953125 1.0l0 3.65625l-1.015625 0zm9.519562 -0.71875q-0.453125 0.421875 -0.90625 0.640625q-0.4375 0.203125 -0.859375 0.203125q-0.609375 0 -1.125 -0.390625q-0.515625 -0.390625 -0.515625 -1.15625q0 -0.828125 0.71875 -1.375q0.71875 -0.546875 2.296875 -0.546875l0.234375 0l0 -0.671875q0 -0.40625 -0.109375 -0.59375q-0.109375 -0.1875 -0.34375 -0.28125q-0.21875 -0.109375 -0.5625 -0.109375q-0.796875 0 -1.734375 0.5l0 -0.859375q1.03125 -0.421875 1.9375 -0.421875q0.5 0 0.921875 0.171875q0.421875 0.15625 0.671875 0.5q0.25 0.328125 0.25 1.09375l0 2.546875q0 0.4375 0.0625 0.59375q0.078125 0.140625 0.1875 0.21875q0.125 0.078125 0.296875 0.078125q0.0625 0 0.1875 -0.03125l0.078125 0.578125q-0.34375 0.15625 -0.765625 0.15625q-0.28125 0 -0.546875 -0.171875q-0.265625 -0.1875 -0.375 -0.671875zm-0.15625 -0.5625l0 -1.453125l-0.328125 -0.015625q-0.796875 0 -1.34375 0.3125q-0.546875 0.3125 -0.546875 0.84375q0 0.375 0.265625 0.640625q0.265625 0.25 0.625 0.25q0.328125 0 0.65625 -0.140625q0.328125 -0.15625 0.671875 -0.4375zm3.1348877 1.28125l0 -5.65625l1.015625 0l0 1.0625q0.296875 -0.5625 0.75 -0.875q0.46875 -0.3125 1.015625 -0.3125q0.15625 0 0.328125 0.03125l0 0.953125q-0.25 -0.078125 -0.46875 -0.078125q-0.484375 0 -0.890625 0.296875q-0.40625 0.28125 -0.734375 0.859375l0 3.71875l-1.015625 0zm8.500946 -0.1875q-1.03125 0.3125 -1.765625 0.3125q-1.3125 0 -2.078125 -0.875q-0.75 -0.890625 -0.75 -2.09375q0 -0.796875 0.328125 -1.515625q0.34375 -0.71875 0.875 -1.0625q0.546875 -0.359375 1.265625 -0.359375q0.984375 0 1.5625 0.703125q0.578125 0.703125 0.578125 2.109375l0 0.296875l-3.5625 0q0.078125 0.75 0.3125 1.15625q0.25 0.40625 0.640625 0.640625q0.40625 0.21875 1.015625 0.21875q0.3125 0 0.625 -0.046875q0.3125 -0.0625 0.953125 -0.296875l0 0.8125zm-3.5 -3.25l2.484375 0q0 -0.84375 -0.328125 -1.203125q-0.328125 -0.375 -0.84375 -0.375q-0.578125 0 -0.921875 0.40625q-0.328125 0.390625 -0.390625 1.171875zm8.921265 3.4375l0 -1.0625q-0.3125 0.59375 -0.796875 0.890625q-0.46875 0.296875 -1.09375 0.296875q-1.03125 0 -1.609375 -0.765625q-0.578125 -0.765625 -0.578125 -2.015625q0 -1.328125 0.640625 -2.21875q0.65625 -0.90625 1.765625 -0.90625q0.328125 0 0.625 0.078125q0.296875 0.078125 0.53125 0.234375q0.234375 0.140625 0.515625 0.46875l0 -3.21875l1.03125 0l0 8.21875l-1.03125 0zm0 -4.296875q-0.53125 -0.46875 -0.84375 -0.578125q-0.3125 -0.125 -0.671875 -0.125q-0.75 0 -1.109375 0.625q-0.359375 0.625 -0.359375 1.625q0 0.921875 0.3125 1.453125q0.328125 0.53125 1.0 0.53125q0.421875 0 0.84375 -0.234375q0.421875 -0.234375 0.828125 -0.703125l0 -2.59375zm2.5038757 5.0625l0 -0.765625l4.421875 0l0 0.765625l-4.421875 0zm5.90625 1.296875l0 -7.71875l1.015625 0l0 1.0625q0.328125 -0.59375 0.796875 -0.890625q0.46875 -0.296875 1.09375 -0.296875q1.046875 0 1.609375 0.78125q0.578125 0.765625 0.578125 2.0q0 0.8125 -0.265625 1.546875q-0.265625 0.71875 -0.828125 1.15625q-0.546875 0.421875 -1.265625 0.421875q-0.28125 0 -0.734375 -0.078125q-0.453125 -0.078125 -0.984375 -0.6875l0 2.703125l-1.015625 0zm1.015625 -3.40625q0.53125 0.46875 0.84375 0.59375q0.3125 0.109375 0.671875 0.109375q0.75 0 1.109375 -0.625q0.359375 -0.640625 0.359375 -1.625q0 -0.921875 -0.328125 -1.453125q-0.3125 -0.53125 -0.984375 -0.53125q-0.421875 0 -0.84375 0.234375q-0.40625 0.21875 -0.828125 0.6875l0 2.609375zm8.20697 1.34375q-0.484375 0.125 -0.828125 0.125q-0.75 0 -1.203125 -0.4375q-0.453125 -0.4375 -0.453125 -1.25l0 -3.3125l-0.703125 0l0 -0.78125l0.703125 0l0 -1.015625l1.03125 -0.109375l0 1.125l1.46875 0l0 0.78125l-1.46875 0l0 3.125q0 0.59375 0.21875 0.859375q0.234375 0.25 0.734375 0.25q0.203125 0 0.5 -0.0625l0 0.703125zm1.4700623 0l0 -5.65625l1.015625 0l0 1.0625q0.296875 -0.5625 0.75 -0.875q0.46875 -0.3125 1.015625 -0.3125q0.15625 0 0.328125 0.03125l0 0.953125q-0.25 -0.078125 -0.46875 -0.078125q-0.484375 0 -0.890625 0.296875q-0.40625 0.28125 -0.734375 0.859375l0 3.71875l-1.015625 0z" fill-rule="nonzero"/></g></svg>