<svg version="1.1" viewBox="0.0 0.0 588.6377952755905 366.78477690288713" fill="none" stroke="none" stroke-linecap="square" stroke-miterlimit="10" xmlns:xlink="http://www.w3.org/1999/xlink" xmlns="http://www.w3.org/2000/svg"><clipPath id="p.0"><path d="m0 0l588.6378 0l0 366.7848l-588.6378 0l0 -366.7848z" clip-rule="nonzero"/></clipPath><g clip-path="url(#p.0)"><path fill="#000000" fill-opacity="0.0" d="m0 0l588.6378 0l0 366.7848l-588.6378 0z" fill-rule="evenodd"/><path fill="#ffffff" d="m54.78478 66.74278l84.944885 0l0 36.409447l-84.944885 0z" fill-rule="evenodd"/><path stroke="#000000" stroke-width="2.0" stroke-linejoin="round" stroke-linecap="butt" d="m54.78478 66.74278l84.944885 0l0 36.409447l-84.944885 0z" fill-rule="evenodd"/><path fill="#ffffff" d="m54.78478 103.15223l84.944885 0l0 36.409447l-84.944885 0z" fill-rule="evenodd"/><path stroke="#000000" stroke-width="2.0" stroke-linejoin="round" stroke-linecap="butt" d="m54.78478 103.15223l84.944885 0l0 36.409447l-84.944885 0z" fill-rule="evenodd"/><path fill="#000000" d="m98.77675 127.21696l-1.40625 0l0 -8.96875q-0.515625 0.484375 -1.34375 0.96875q-0.8125 0.484375 -1.46875 0.734375l0 -1.359375q1.171875 -0.5625 2.046875 -1.34375q0.890625 -0.796875 1.265625 -1.53125l0.90625 0l0 11.5z" fill-rule="nonzero"/><path fill="#ffffff" d="m184.85301 4.2703414l84.9449 0l0 36.40945l-84.9449 0z" fill-rule="evenodd"/><path stroke="#000000" stroke-width="2.0" stroke-linejoin="round" stroke-linecap="butt" d="m184.85301 4.2703414l84.9449 0l0 36.40945l-84.9449 0z" fill-rule="evenodd"/><path fill="#ffffff" d="m184.85301 40.67979l84.9449 0l0 36.40945l-84.9449 0z" fill-rule="evenodd"/><path stroke="#000000" stroke-width="2.0" stroke-linejoin="round" stroke-linecap="butt" d="m184.85301 40.67979l84.9449 0l0 36.40945l-84.9449 0z" fill-rule="evenodd"/><path fill="#000000" d="m228.84499 64.744514l-1.40625 0l0 -8.96875q-0.515625 0.484375 -1.34375 0.96875q-0.8125 0.484375 -1.46875 0.734375l0 -1.359375q1.171875 -0.5625 2.046875 -1.34375q0.890625 -0.796875 1.265625 -1.53125l0.90625 0l0 11.5z" fill-rule="nonzero"/><path fill="#000000" fill-opacity="0.0" d="m94.42782 86.1601c22.6063 0 33.909447 -15.921257 45.21261 -31.842518c11.303146 -15.921261 22.606293 -31.84252 45.212585 -31.84252" fill-rule="evenodd"/><path stroke="#000000" stroke-width="2.0" stroke-linejoin="round" stroke-linecap="butt" d="m101.98077 85.520226l0.4166565 -0.07533264c2.4946365 -0.46644592 4.8347473 -1.1505585 7.0423965 -2.0212555c4.415291 -1.7413864 8.300751 -4.22908 11.832985 -7.2143173c7.0644608 -5.9704742 12.716042 -13.931107 18.367622 -21.891735c5.6515656 -7.9606285 11.303146 -15.921261 18.367615 -21.891731c3.5322266 -2.9852371 7.417694 -5.4729347 11.832977 -7.214321c0.5519104 -0.21767426 1.1121063 -0.42368507 1.6809235 -0.6175518c0.28440857 -0.096933365 0.5709686 -0.19083023 0.85972595 -0.28162766c0.14437866 -0.045398712 0.28930664 -0.09002304 0.43478394 -0.13386726l0.15174866 -0.04473877" fill-rule="evenodd"/><path fill="#000000" stroke="#000000" stroke-width="2.0" stroke-linecap="butt" d="m95.424255 86.07569c-0.15338898 -1.8105316 1.1899948 -3.4026031 3.0005188 -3.5559921c1.8105316 -0.15338135 3.4026031 1.1899948 3.5559921 3.0005264c0.15338135 1.8105316 -1.1899948 3.4026031 -3.0005264 3.5559921c-1.8105316 0.15338135 -3.4026031 -1.1899948 -3.5559845 -3.0005264z" fill-rule="nonzero"/><path fill="#000000" stroke="#000000" stroke-width="2.0" stroke-linecap="butt" d="m173.42482 27.405504l8.532455 -4.5263004l-9.445679 -2.01721z" fill-rule="evenodd"/><path fill="#000000" fill-opacity="0.0" d="m7.695538 57.46719l55.181103 0l0 42.01575l-55.181103 0z" fill-rule="evenodd"/><path fill="#000000" d="m18.133038 84.04344l0 -1.65625q1.75 0.875 3.046875 0.875q0.765625 0 1.28125 -0.40625q0.515625 -0.421875 0.515625 -1.0625q0 -0.390625 -0.25 -0.765625q-0.25 -0.359375 -1.171875 -0.75l-1.046875 -0.453125q-1.21875 -0.5 -1.765625 -1.15625q-0.5625 -0.65625 -0.5625 -1.609375q0 -1.203125 0.859375 -1.984375q0.875 -0.796875 2.5625 -0.796875q0.828125 0 2.046875 0.21875l0.375 0.078125l0 1.5q-1.5 -0.453125 -2.390625 -0.453125q-0.859375 0 -1.296875 0.375q-0.421875 0.375 -0.421875 0.890625q0 0.390625 0.28125 0.71875q0.296875 0.328125 1.03125 0.640625l0.859375 0.359375q1.734375 0.75 2.21875 1.46875q0.46875 0.71875 0.46875 1.5625q0 0.8125 -0.4375 1.5q-0.4375 0.6875 -1.3125 1.09375q-0.859375 0.390625 -1.90625 0.390625q-1.234375 0 -2.984375 -0.578125zm9.86969 3.9375l0 -13.484375l1.796875 0l0 1.859375q0.546875 -1.046875 1.375 -1.5625q0.828125 -0.515625 1.921875 -0.515625q1.84375 0 2.84375 1.34375q1.0 1.34375 1.0 3.515625q0 1.421875 -0.46875 2.703125q-0.46875 1.265625 -1.453125 2.03125q-0.96875 0.75 -2.203125 0.75q-0.5 0 -1.3125 -0.15625q-0.796875 -0.140625 -1.703125 -1.203125l0 4.71875l-1.796875 0zm1.796875 -5.953125q0.921875 0.8125 1.46875 1.03125q0.546875 0.203125 1.171875 0.203125q1.3125 0 1.9375 -1.109375q0.640625 -1.109375 0.640625 -2.828125q0 -1.609375 -0.5625 -2.546875q-0.546875 -0.9375 -1.734375 -0.9375q-0.734375 0 -1.46875 0.40625q-0.734375 0.40625 -1.453125 1.21875l0 4.5625zm13.023392 2.359375l0 -12.140625l-2.125 0l0 -1.125l3.9375 -0.328125l0 13.59375l-1.8125 0z" fill-rule="nonzero"/><path fill="#ffffff" d="m184.85301 174.3517l84.9449 0l0 36.409454l-84.9449 0z" fill-rule="evenodd"/><path stroke="#000000" stroke-width="2.0" stroke-linejoin="round" stroke-linecap="butt" d="m184.85301 174.3517l84.9449 0l0 36.409454l-84.9449 0z" fill-rule="evenodd"/><path fill="#000000" d="m212.1653 195.5883l1.375 0.140625q-0.296875 1.03125 -1.359375 1.953125q-1.0625 0.921875 -2.546875 0.921875q-0.921875 0 -1.6875 -0.421875q-0.765625 -0.4375 -1.171875 -1.25q-0.40625 -0.8125 -0.40625 -1.84375q0 -1.359375 0.625 -2.640625q0.640625 -1.28125 1.640625 -1.890625q1.0 -0.625 2.15625 -0.625q1.484375 0 2.375 0.921875q0.890625 0.921875 0.890625 2.515625q0 0.609375 -0.109375 1.25l-6.109375 0q-0.03125 0.234375 -0.03125 0.4375q0 1.15625 0.53125 1.78125q0.53125 0.609375 1.3125 0.609375q0.71875 0 1.421875 -0.46875q0.703125 -0.484375 1.09375 -1.390625zm-4.109375 -2.046875l4.65625 0q0.015625 -0.21875 0.015625 -0.3125q0 -1.0625 -0.53125 -1.625q-0.53125 -0.578125 -1.375 -0.578125q-0.90625 0 -1.65625 0.625q-0.734375 0.625 -1.109375 1.890625zm6.9140625 4.875l1.734375 -8.296875l1.40625 0l-0.28125 1.359375q0.78125 -0.875 1.40625 -1.203125q0.625 -0.34375 1.34375 -0.34375q0.78125 0 1.296875 0.40625q0.515625 0.40625 0.6875 1.140625q0.625 -0.78125 1.328125 -1.15625q0.703125 -0.390625 1.46875 -0.390625q1.046875 0 1.5625 0.5q0.515625 0.484375 0.515625 1.375q0 0.375 -0.171875 1.265625l-1.125 5.34375l-1.40625 0l1.140625 -5.484375q0.140625 -0.671875 0.140625 -0.96875q0 -0.40625 -0.265625 -0.640625q-0.25 -0.234375 -0.71875 -0.234375q-0.625 0 -1.28125 0.390625q-0.65625 0.375 -1.03125 1.0q-0.359375 0.625 -0.625 1.90625l-0.84375 4.03125l-1.421875 0l1.171875 -5.609375q0.125 -0.5625 0.125 -0.8125q0 -0.40625 -0.25 -0.65625q-0.25 -0.25 -0.65625 -0.25q-0.609375 0 -1.265625 0.390625q-0.65625 0.375 -1.078125 1.0625q-0.40625 0.6875 -0.671875 1.953125l-0.828125 3.921875l-1.40625 0zm12.625 3.1875l2.40625 -11.484375l1.3125 0l-0.25 1.15625q0.734375 -0.765625 1.296875 -1.046875q0.578125 -0.296875 1.21875 -0.296875q1.1875 0 1.96875 0.859375q0.78125 0.859375 0.78125 2.46875q0 1.296875 -0.4375 2.375q-0.421875 1.0625 -1.046875 1.71875q-0.625 0.640625 -1.265625 0.953125q-0.640625 0.296875 -1.3125 0.296875q-1.484375 0 -2.3125 -1.515625l-0.9375 4.515625l-1.421875 0zm2.8125 -6.578125q0 0.921875 0.125 1.28125q0.203125 0.515625 0.640625 0.828125q0.453125 0.3125 1.03125 0.3125q1.21875 0 1.96875 -1.375q0.75 -1.375 0.75 -2.796875q0 -1.0625 -0.5 -1.625q-0.5 -0.578125 -1.25 -0.578125q-0.546875 0 -1.015625 0.28125q-0.453125 0.28125 -0.84375 0.859375q-0.390625 0.5625 -0.65625 1.390625q-0.25 0.8125 -0.25 1.421875zm10.1015625 2.234375l-0.234375 1.171875q-0.515625 0.125 -0.984375 0.125q-0.84375 0 -1.34375 -0.421875q-0.375 -0.3125 -0.375 -0.84375q0 -0.28125 0.203125 -1.265625l1.0 -4.8125l-1.109375 0l0.21875 -1.09375l1.125 0l0.421875 -2.046875l1.625 -0.96875l-0.640625 3.015625l1.390625 0l-0.234375 1.09375l-1.375 0l-0.96875 4.578125q-0.171875 0.875 -0.171875 1.046875q0 0.25 0.140625 0.390625q0.140625 0.125 0.46875 0.125q0.46875 0 0.84375 -0.09375zm0.6015625 4.359375l0.09375 -1.328125q0.4375 0.125 0.84375 0.125q0.4375 0 0.703125 -0.1875q0.34375 -0.265625 0.75 -0.96875l0.453125 -0.8125l-1.390625 -8.328125l1.390625 0l0.625 4.1875q0.1875 1.25 0.328125 2.484375l3.703125 -6.671875l1.484375 0l-5.296875 9.40625q-0.765625 1.375 -1.359375 1.8125q-0.59375 0.453125 -1.359375 0.453125q-0.5 0 -0.96875 -0.171875z" fill-rule="nonzero"/><path fill="#ffffff" d="m184.85301 210.76115l84.9449 0l0 36.409454l-84.9449 0z" fill-rule="evenodd"/><path stroke="#000000" stroke-width="2.0" stroke-linejoin="round" stroke-linecap="butt" d="m184.85301 210.76115l84.9449 0l0 36.409454l-84.9449 0z" fill-rule="evenodd"/><path fill="#000000" d="m223.54811 229.16963q0 -2.03125 0.40625 -3.265625q0.421875 -1.234375 1.25 -1.90625q0.828125 -0.671875 2.078125 -0.671875q0.921875 0 1.609375 0.375q0.703125 0.359375 1.15625 1.0625q0.453125 0.703125 0.703125 1.703125q0.265625 1.0 0.265625 2.703125q0 2.015625 -0.421875 3.265625q-0.40625 1.234375 -1.234375 1.921875q-0.828125 0.671875 -2.078125 0.671875q-1.65625 0 -2.609375 -1.203125q-1.125 -1.421875 -1.125 -4.65625zm1.4375 0q0 2.828125 0.65625 3.765625q0.671875 0.921875 1.640625 0.921875q0.96875 0 1.625 -0.9375q0.65625 -0.9375 0.65625 -3.75q0 -2.828125 -0.65625 -3.75q-0.65625 -0.9375 -1.640625 -0.9375q-0.96875 0 -1.546875 0.828125q-0.734375 1.046875 -0.734375 3.859375z" fill-rule="nonzero"/><path fill="#000000" fill-opacity="0.0" d="m214.15486 19.816273c0 38.425198 -7.283478 57.6378 -14.56694 76.85039c-7.2834625 19.2126 -14.566925 38.425194 -14.566925 76.850395" fill-rule="evenodd"/><path stroke="#000000" stroke-width="2.0" stroke-linejoin="round" stroke-linecap="butt" d="m214.05487 27.395613l-0.029922485 1.0839329c-0.017074585 0.55532074 -0.03579712 1.1063175 -0.056137085 1.6530609c-0.04067993 1.0934925 -0.08779907 2.169979 -0.1411438 3.2300491c-0.21336365 4.24028 -0.52633667 8.217888 -0.9246521 11.970348c-0.79663086 7.504921 -1.9346771 14.109253 -3.3003235 20.113194c-2.731308 12.007874 -6.3730316 21.614166 -10.0147705 31.220467c-3.6417236 9.6063 -7.2834625 19.2126 -10.014755 31.220474c-1.3656464 6.0039444 -2.5036926 12.608269 -3.3003235 20.113197c-0.39831543 3.7524567 -0.71128845 7.730057 -0.92466736 11.970337l-0.07281494 1.5490875" fill-rule="evenodd"/><path fill="#000000" stroke="#000000" stroke-width="2.0" stroke-linecap="butt" d="m214.14166 20.816187c1.816864 0.023967743 3.270279 1.5162544 3.2463226 3.3331127c-0.023971558 1.8168583 -1.5162659 3.2702827 -3.3331146 3.246313c-1.816864 -0.023967743 -3.2702942 -1.5162544 -3.2463226 -3.3331127c0.023971558 -1.8168583 1.5162506 -3.2702827 3.3331146 -3.246313z" fill-rule="nonzero"/><path fill="#000000" stroke="#000000" stroke-width="2.0" stroke-linecap="butt" d="m181.97266 161.44974l3.110321 9.14418l3.4951172 -9.004135z" fill-rule="evenodd"/><path fill="#000000" fill-opacity="0.0" d="m4.1207347 252.01837l589.8898 0l0 119.590546l-589.8898 0z" fill-rule="evenodd"/><path fill="#000000" d="m31.492912 269.65714q1.0 0 1.96875 0.53125q0.96875 0.515625 1.5 1.484375q0.53125 0.96875 0.53125 2.0q0 1.671875 -1.171875 2.84375q-1.171875 1.171875 -2.828125 1.171875q-1.671875 0 -2.84375 -1.171875q-1.171875 -1.171875 -1.171875 -2.84375q0 -1.046875 0.53125 -2.0q0.546875 -0.96875 1.5 -1.484375q0.96875 -0.53125 1.984375 -0.53125z" fill-rule="nonzero"/><path fill="#000000" d="m68.370735 279.28214q-1.90625 0 -3.328125 -0.859375q-1.421875 -0.859375 -2.203125 -2.5q-0.765625 -1.65625 -0.765625 -3.71875q0 -2.015625 0.734375 -3.65625q0.75 -1.640625 2.1875 -2.53125q1.453125 -0.890625 3.375 -0.890625q1.921875 0 3.359375 0.890625q1.453125 0.890625 2.203125 2.53125q0.75 1.640625 0.75 3.65625q0 1.984375 -0.734375 3.625q-0.734375 1.640625 -2.171875 2.546875q-1.4375 0.90625 -3.40625 0.90625zm0 -1.4375q2.046875 0 3.15625 -1.515625q1.125 -1.53125 1.125 -4.15625q0 -2.609375 -1.125 -4.109375q-1.125 -1.515625 -3.15625 -1.515625q-2.015625 0 -3.140625 1.515625q-1.125 1.5 -1.125 4.109375q0 2.625 1.109375 4.15625q1.109375 1.515625 3.15625 1.515625zm9.040085 1.203125l0 -14.5l1.796875 0l0 6.359375q0.546875 -1.046875 1.375 -1.5625q0.828125 -0.515625 1.921875 -0.515625q1.84375 0 2.84375 1.34375q1.0 1.34375 1.0 3.515625q0 2.34375 -1.140625 3.921875q-1.125 1.5625 -3.09375 1.5625q-0.5625 0 -1.09375 -0.140625q-0.515625 -0.140625 -0.921875 -0.390625q-0.40625 -0.265625 -0.890625 -0.828125l-0.21875 1.234375l-1.578125 0zm1.796875 -2.46875q0.921875 0.8125 1.46875 1.03125q0.546875 0.203125 1.171875 0.203125q1.3125 0 1.9375 -1.109375q0.640625 -1.109375 0.640625 -2.828125q0 -1.609375 -0.5625 -2.546875q-0.546875 -0.9375 -1.734375 -0.9375q-0.734375 0 -1.46875 0.40625q-0.734375 0.40625 -1.453125 1.21875l0 4.5625zm6.7421417 5.71875l0 -1.421875q1.265625 0.53125 1.921875 0.53125q0.4375 0 0.796875 -0.171875q0.375 -0.171875 0.5625 -0.546875q0.203125 -0.359375 0.203125 -1.75l0 -9.890625l1.796875 0l0 9.890625q0 1.5 -0.375 2.234375q-0.359375 0.734375 -1.125 1.15625q-0.75 0.421875 -1.71875 0.421875q-0.953125 0 -2.0625 -0.453125zm3.484375 -15.046875l0 -1.796875l1.796875 0l0 1.796875l-1.796875 0zm12.643967 11.375q-1.8125 0.546875 -3.09375 0.546875q-2.296875 0 -3.625 -1.546875q-1.3125 -1.5625 -1.3125 -3.671875q0 -1.40625 0.578125 -2.65625q0.578125 -1.265625 1.515625 -1.875q0.953125 -0.609375 2.234375 -0.609375q1.703125 0 2.71875 1.234375q1.03125 1.234375 1.03125 3.6875l-0.015625 0.53125l-6.234375 0q0.140625 1.3125 0.5625 2.03125q0.421875 0.703125 1.109375 1.109375q0.703125 0.390625 1.78125 0.390625q0.546875 0 1.078125 -0.09375q0.546875 -0.09375 1.671875 -0.5l0 1.421875zm-6.125 -5.703125l4.359375 0q0 -1.484375 -0.578125 -2.109375q-0.578125 -0.640625 -1.46875 -0.640625q-1.03125 0 -1.609375 0.6875q-0.578125 0.6875 -0.703125 2.0625zm9.268936 6.015625l0 -14.390625l1.796875 0l0 9.296875l4.1875 -4.796875l1.921875 0l-3.984375 4.609375l4.828125 5.28125l-2.296875 0l-4.65625 -5.078125l0 5.078125l-1.796875 0zm15.310318 0q-0.828125 0.234375 -1.4375 0.234375q-1.328125 0 -2.109375 -0.765625q-0.78125 -0.78125 -0.78125 -2.203125l0 -5.8125l-1.25 0l0 -1.34375l1.25 0l0 -1.796875l1.78125 -0.171875l0 1.96875l2.59375 0l0 1.34375l-2.59375 0l0 5.484375q0 1.046875 0.40625 1.5q0.40625 0.4375 1.28125 0.4375q0.34375 0 0.859375 -0.109375l0 1.234375zm8.115196 -0.34375l0 -1.65625q1.75 0.875 3.046875 0.875q0.765625 0 1.28125 -0.40625q0.515625 -0.421875 0.515625 -1.0625q0 -0.390625 -0.25 -0.765625q-0.25 -0.359375 -1.171875 -0.75l-1.046875 -0.453125q-1.21875 -0.5 -1.765625 -1.15625q-0.5625 -0.65625 -0.5625 -1.609375q0 -1.203125 0.859375 -1.984375q0.875 -0.796875 2.5625 -0.796875q0.828125 0 2.046875 0.21875l0.375 0.078125l0 1.5q-1.5 -0.453125 -2.390625 -0.453125q-0.859375 0 -1.296875 0.375q-0.421875 0.375 -0.421875 0.890625q0 0.390625 0.28125 0.71875q0.296875 0.328125 1.03125 0.640625l0.859375 0.359375q1.734375 0.75 2.21875 1.46875q0.46875 0.71875 0.46875 1.5625q0 0.8125 -0.4375 1.5q-0.4375 0.6875 -1.3125 1.09375q-0.859375 0.390625 -1.90625 0.390625q-1.234375 0 -2.984375 -0.578125zm9.86969 3.9375l0 -13.484375l1.796875 0l0 1.859375q0.546875 -1.046875 1.375 -1.5625q0.828125 -0.515625 1.921875 -0.515625q1.84375 0 2.84375 1.34375q1.0 1.34375 1.0 3.515625q0 1.421875 -0.46875 2.703125q-0.46875 1.265625 -1.453125 2.03125q-0.96875 0.75 -2.203125 0.75q-0.5 0 -1.3125 -0.15625q-0.796875 -0.140625 -1.703125 -1.203125l0 4.71875l-1.796875 0zm1.796875 -5.953125q0.921875 0.8125 1.46875 1.03125q0.546875 0.203125 1.171875 0.203125q1.3125 0 1.9375 -1.109375q0.640625 -1.109375 0.640625 -2.828125q0 -1.609375 -0.5625 -2.546875q-0.546875 -0.9375 -1.734375 -0.9375q-0.734375 0 -1.46875 0.40625q-0.734375 0.40625 -1.453125 1.21875l0 4.5625zm9.695267 2.359375l0 -1.578125q0.78125 -1.828125 3.171875 -3.984375l1.03125 -0.921875q1.125 -1.015625 1.546875 -1.84375q0.4375 -0.828125 0.4375 -1.71875q0 -1.140625 -0.703125 -1.78125q-0.6875 -0.640625 -1.84375 -0.640625q-0.5 0 -0.96875 0.09375q-0.453125 0.09375 -0.984375 0.3125q-0.515625 0.203125 -1.34375 0.671875l0 -1.578125q1.796875 -0.84375 3.5625 -0.84375q1.9375 0 3.0625 1.0625q1.125 1.0625 1.125 2.65625q0 1.03125 -0.46875 1.953125q-0.453125 0.921875 -2.265625 2.46875l-0.6875 0.59375q-0.765625 0.640625 -1.53125 1.5625q-0.765625 0.90625 -0.96875 1.9375l5.859375 0l0 1.578125l-8.03125 0zm19.090378 0l-2.828125 -9.890625l1.765625 0l2.15625 7.65625l2.34375 -7.65625l1.796875 0l2.046875 7.65625l2.484375 -7.65625l1.546875 0l-3.234375 9.890625l-1.796875 0l-2.09375 -7.65625l-2.375 7.65625l-1.8125 0zm13.234161 0l0 -9.890625l1.796875 0l0 9.890625l-1.796875 0zm0 -11.6875l0 -1.796875l1.796875 0l0 1.796875l-1.796875 0zm5.3928223 11.6875l0 -9.890625l1.796875 0l0 1.859375q0.5 -1.0 1.3125 -1.53125q0.828125 -0.546875 1.78125 -0.546875q0.265625 0 0.578125 0.046875l0 1.671875q-0.453125 -0.15625 -0.828125 -0.15625q-0.84375 0 -1.5625 0.515625q-0.71875 0.5 -1.28125 1.515625l0 6.515625l-1.796875 0zm13.977509 0l0 -1.859375q-0.546875 1.046875 -1.375 1.578125q-0.8125 0.515625 -1.921875 0.515625q-1.8125 0 -2.828125 -1.34375q-1.0 -1.34375 -1.0 -3.53125q0 -2.34375 1.125 -3.90625q1.125 -1.5625 3.09375 -1.5625q0.5625 0 1.078125 0.140625q0.53125 0.125 0.9375 0.375q0.40625 0.25 0.890625 0.828125l0 -5.625l1.8125 0l0 14.390625l-1.8125 0zm0 -7.53125q-0.921875 -0.828125 -1.46875 -1.03125q-0.546875 -0.203125 -1.171875 -0.203125q-1.3125 0 -1.953125 1.109375q-0.625 1.09375 -0.625 2.84375q0 1.609375 0.5625 2.546875q0.5625 0.921875 1.734375 0.921875q0.75 0 1.484375 -0.40625q0.734375 -0.421875 1.4375 -1.234375l0 -4.546875zm18.551346 7.21875q-1.8125 0.546875 -3.09375 0.546875q-2.296875 0 -3.625 -1.546875q-1.3125 -1.5625 -1.3125 -3.671875q0 -1.40625 0.578125 -2.65625q0.578125 -1.265625 1.515625 -1.875q0.953125 -0.609375 2.234375 -0.609375q1.703125 0 2.71875 1.234375q1.03125 1.234375 1.03125 3.6875l-0.015625 0.53125l-6.234375 0q0.140625 1.3125 0.5625 2.03125q0.421875 0.703125 1.109375 1.109375q0.703125 0.390625 1.78125 0.390625q0.546875 0 1.078125 -0.09375q0.546875 -0.09375 1.671875 -0.5l0 1.421875zm-6.125 -5.703125l4.359375 0q0 -1.484375 -0.578125 -2.109375q-0.578125 -0.640625 -1.46875 -0.640625q-1.03125 0 -1.609375 0.6875q-0.578125 0.6875 -0.703125 2.0625zm9.268936 6.015625l0 -9.890625l1.796875 0l0 1.859375q0.671875 -1.0 1.578125 -1.53125q0.90625 -0.546875 1.890625 -0.546875q1.25 0 2.03125 0.796875q0.796875 0.796875 0.796875 2.203125l0 7.109375l-1.796875 0l0 -6.515625q0 -1.03125 -0.1875 -1.359375q-0.1875 -0.328125 -0.515625 -0.5q-0.328125 -0.1875 -0.6875 -0.1875q-0.671875 0 -1.453125 0.40625q-0.765625 0.40625 -1.65625 1.75l0 6.40625l-1.796875 0zm15.984421 0q-0.828125 0.234375 -1.4375 0.234375q-1.328125 0 -2.109375 -0.765625q-0.78125 -0.78125 -0.78125 -2.203125l0 -5.8125l-1.25 0l0 -1.34375l1.25 0l0 -1.796875l1.78125 -0.171875l0 1.96875l2.59375 0l0 1.34375l-2.59375 0l0 5.484375q0 1.046875 0.40625 1.5q0.40625 0.4375 1.28125 0.4375q0.34375 0 0.859375 -0.109375l0 1.234375zm2.8997498 0l0 -8.546875l-1.390625 0l0 -1.34375l1.390625 0l0 -1.1875q0 -1.21875 0.3125 -1.90625q0.328125 -0.703125 1.03125 -1.15625q0.71875 -0.46875 1.875 -0.46875q0.921875 0 2.0625 0.296875l0 1.421875q-1.21875 -0.375 -1.9375 -0.375q-0.421875 0 -0.765625 0.140625q-0.34375 0.125 -0.5625 0.46875q-0.203125 0.328125 -0.203125 1.390625l0 1.375l2.46875 0l0 1.34375l-2.46875 0l0 8.546875l-1.8125 0zm13.781342 -0.3125q-1.8125153 0.546875 -3.0937653 0.546875q-2.296875 0 -3.625 -1.546875q-1.3125 -1.5625 -1.3125 -3.671875q0 -1.40625 0.578125 -2.65625q0.578125 -1.265625 1.515625 -1.875q0.953125 -0.609375 2.234375 -0.609375q1.703125 0 2.71875 1.234375q1.0312653 1.234375 1.0312653 3.6875l-0.015625 0.53125l-6.2343903 0q0.140625 1.3125 0.5625 2.03125q0.421875 0.703125 1.109375 1.109375q0.703125 0.390625 1.78125 0.390625q0.546875 0 1.078125 -0.09375q0.546875 -0.09375 1.6718903 -0.5l0 1.421875zm-6.1250153 -5.703125l4.359375 0q0 -1.484375 -0.578125 -2.109375q-0.578125 -0.640625 -1.46875 -0.640625q-1.03125 0 -1.609375 0.6875q-0.578125 0.6875 -0.703125 2.0625zm9.268936 6.015625l0 -9.890625l1.796875 0l0 1.859375q0.5 -1.0 1.3125 -1.53125q0.828125 -0.546875 1.78125 -0.546875q0.265625 0 0.578125 0.046875l0 1.671875q-0.453125 -0.15625 -0.828125 -0.15625q-0.84375 0 -1.5625 0.515625q-0.71875 0.5 -1.28125 1.515625l0 6.515625l-1.796875 0zm7.6337585 0l0 -9.890625l1.796875 0l0 1.859375q0.671875 -1.0 1.578125 -1.53125q0.90625 -0.546875 1.890625 -0.546875q1.25 0 2.03125 0.796875q0.796875 0.796875 0.796875 2.203125l0 7.109375l-1.796875 0l0 -6.515625q0 -1.03125 -0.1875 -1.359375q-0.1875 -0.328125 -0.515625 -0.5q-0.328125 -0.1875 -0.6875 -0.1875q-0.671875 0 -1.453125 0.40625q-0.765625 0.40625 -1.65625 1.75l0 6.40625l-1.796875 0zm15.9844055 0q-0.828125 0.234375 -1.4375 0.234375q-1.328125 0 -2.109375 -0.765625q-0.78125 -0.78125 -0.78125 -2.203125l0 -5.8125l-1.25 0l0 -1.34375l1.25 0l0 -1.796875l1.78125 -0.171875l0 1.96875l2.59375 0l0 1.34375l-2.59375 0l0 5.484375q0 1.046875 0.40625 1.5q0.40625 0.4375 1.28125 0.4375q0.34375 0 0.859375 -0.109375l0 1.234375zm2.8216553 0l0 -1.796875l1.796875 0l0 1.796875l-1.796875 0zm0 -8.09375l0 -1.796875l1.796875 0l0 1.796875l-1.796875 0z" fill-rule="nonzero"/><path fill="#000000" d="m75.641594 309.68835q-0.796875 0.734375 -1.578125 1.109375q-0.78125 0.375 -1.515625 0.375q-1.0625 0 -1.96875 -0.6875q-0.890625 -0.703125 -0.890625 -2.03125q0 -1.453125 1.25 -2.40625q1.265625 -0.953125 4.03125 -0.953125l0.40625 0l0 -1.203125q0 -0.703125 -0.1875 -1.03125q-0.1875 -0.328125 -0.59375 -0.5q-0.40625 -0.1875 -1.0 -0.1875q-1.40625 0 -3.046875 0.875l0 -1.484375q1.8125 -0.734375 3.40625 -0.734375q0.875 0 1.609375 0.28125q0.734375 0.265625 1.171875 0.875q0.4375 0.59375 0.4375 1.90625l0 4.484375q0 0.75 0.109375 1.015625q0.125 0.25 0.34375 0.390625q0.21875 0.140625 0.5 0.140625q0.109375 0 0.34375 -0.046875l0.125 1.0q-0.609375 0.296875 -1.34375 0.296875q-0.5 0 -0.953125 -0.3125q-0.453125 -0.328125 -0.65625 -1.171875zm-0.265625 -0.984375l0 -2.5625l-0.5625 -0.015625q-1.421875 0 -2.375 0.546875q-0.953125 0.546875 -0.953125 1.484375q0 0.65625 0.46875 1.109375q0.46875 0.4375 1.09375 0.4375q0.5625 0 1.140625 -0.25q0.59375 -0.25 1.1875 -0.75zm4.349716 -10.90625l0 -1.25q1.484375 1.015625 2.40625 2.421875q0.921875 1.40625 1.390625 3.0q0.484375 1.59375 0.484375 3.125q0 1.53125 -0.484375 3.125q-0.46875 1.59375 -1.390625 3.0q-0.921875 1.40625 -2.40625 2.421875l0 -1.25q1.03125 -1.109375 1.515625 -2.15625q0.5 -1.0625 0.71875 -2.375q0.234375 -1.328125 0.234375 -2.765625q0 -1.4375 -0.234375 -2.75q-0.21875 -1.328125 -0.71875 -2.375q-0.484375 -1.0625 -1.515625 -2.171875z" fill-rule="nonzero"/><path fill="#000000" d="m110.85511 310.93835l0 -13.484375l4.484375 0q2.59375 0 3.9375 0.75q1.34375 0.75 2.09375 2.203125q0.765625 1.4375 0.765625 3.46875q0 1.921875 -0.703125 3.53125q-0.6875 1.59375 -2.109375 2.5625q-1.421875 0.96875 -3.953125 0.96875l-4.515625 0zm1.921875 -1.4375l2.453125 0q1.90625 0 2.859375 -0.59375q0.953125 -0.609375 1.484375 -1.921875q0.546875 -1.3125 0.546875 -2.921875q0 -1.421875 -0.46875 -2.59375q-0.46875 -1.171875 -1.515625 -1.875q-1.03125 -0.703125 -3.78125 -0.703125l-1.578125 0l0 10.609375zm19.364586 1.125q-1.8125 0.546875 -3.09375 0.546875q-2.2968674 0 -3.6249924 -1.546875q-1.3125 -1.5625 -1.3125 -3.671875q0 -1.40625 0.578125 -2.65625q0.578125 -1.265625 1.515625 -1.875q0.953125 -0.609375 2.2343674 -0.609375q1.703125 0 2.71875 1.234375q1.03125 1.234375 1.03125 3.6875l-0.015625 0.53125l-6.2343674 0q0.140625 1.3125 0.5625 2.03125q0.421875 0.703125 1.109375 1.109375q0.7031174 0.390625 1.7812424 0.390625q0.546875 0 1.078125 -0.09375q0.546875 -0.09375 1.671875 -0.5l0 1.421875zm-6.1249924 -5.703125l4.3593674 0q0 -1.484375 -0.578125 -2.109375q-0.578125 -0.640625 -1.46875 -0.640625q-1.0312424 0 -1.6093674 0.6875q-0.578125 0.6875 -0.703125 2.0625zm8.909554 5.671875l0 -1.65625q1.75 0.875 3.046875 0.875q0.765625 0 1.28125 -0.40625q0.515625 -0.421875 0.515625 -1.0625q0 -0.390625 -0.25 -0.765625q-0.25 -0.359375 -1.171875 -0.75l-1.046875 -0.453125q-1.21875 -0.5 -1.765625 -1.15625q-0.5625 -0.65625 -0.5625 -1.609375q0 -1.203125 0.859375 -1.984375q0.875 -0.796875 2.5625 -0.796875q0.828125 0 2.046875 0.21875l0.375 0.078125l0 1.5q-1.5 -0.453125 -2.390625 -0.453125q-0.859375 0 -1.296875 0.375q-0.421875 0.375 -0.421875 0.890625q0 0.390625 0.28125 0.71875q0.296875 0.328125 1.03125 0.640625l0.859375 0.359375q1.734375 0.75 2.21875 1.46875q0.46875 0.71875 0.46875 1.5625q0 0.8125 -0.4375 1.5q-0.4375 0.6875 -1.3125 1.09375q-0.859375 0.390625 -1.90625 0.390625q-1.234375 0 -2.984375 -0.578125zm14.27594 0.34375q-0.828125 0.234375 -1.4375 0.234375q-1.328125 0 -2.109375 -0.765625q-0.78125 -0.78125 -0.78125 -2.203125l0 -5.8125l-1.25 0l0 -1.34375l1.25 0l0 -1.796875l1.78125 -0.171875l0 1.96875l2.59375 0l0 1.34375l-2.59375 0l0 5.484375q0 1.046875 0.40625 1.5q0.40625 0.4375 1.28125 0.4375q0.34375 0 0.859375 -0.109375l0 1.234375zm2.5716248 0l0 -9.890625l1.796875 0l0 1.859375q0.5 -1.0 1.3125 -1.53125q0.828125 -0.546875 1.78125 -0.546875q0.265625 0 0.578125 0.046875l0 1.671875q-0.453125 -0.15625 -0.828125 -0.15625q-0.84375 0 -1.5625 0.515625q-0.71875 0.5 -1.28125 1.515625l0 6.515625l-1.796875 0zm13.821259 0l0 -1.859375q-0.703125 1.0 -1.609375 1.546875q-0.890625 0.546875 -1.859375 0.546875q-1.25 0 -2.046875 -0.796875q-0.78125 -0.796875 -0.78125 -2.21875l0 -7.109375l1.796875 0l0 6.515625q0 1.03125 0.171875 1.359375q0.1875 0.328125 0.515625 0.515625q0.328125 0.171875 0.703125 0.171875q0.65625 0 1.421875 -0.40625q0.78125 -0.40625 1.6875 -1.75l0 -6.40625l1.796875 0l0 9.890625l-1.796875 0zm5.390671 0l0 -14.390625l1.796875 0l0 9.296875l4.1875 -4.796875l1.921875 0l-3.984375 4.609375l4.828125 5.28125l-2.296875 0l-4.65625 -5.078125l0 5.078125l-1.796875 0zm15.310318 0q-0.828125 0.234375 -1.4375 0.234375q-1.328125 0 -2.109375 -0.765625q-0.78125 -0.78125 -0.78125 -2.203125l0 -5.8125l-1.25 0l0 -1.34375l1.25 0l0 -1.796875l1.78125 -0.171875l0 1.96875l2.59375 0l0 1.34375l-2.59375 0l0 5.484375q0 1.046875 0.40625 1.5q0.40625 0.4375 1.28125 0.4375q0.34375 0 0.859375 -0.109375l0 1.234375zm6.5091248 0.234375q-1.421875 0 -2.46875 -0.578125q-1.03125 -0.578125 -1.640625 -1.828125q-0.609375 -1.25 -0.609375 -2.78125q0 -1.4375 0.546875 -2.671875q0.5625 -1.234375 1.625 -1.859375q1.0625 -0.625 2.546875 -0.625q1.40625 0 2.453125 0.578125q1.046875 0.5625 1.65625 1.8125q0.609375 1.25 0.609375 2.765625q0 1.46875 -0.578125 2.703125q-0.5625 1.234375 -1.609375 1.859375q-1.046875 0.625 -2.53125 0.625zm0 -1.359375q1.328125 0 2.0625 -0.984375q0.75 -1.0 0.75 -2.84375q0 -1.828125 -0.75 -2.8125q-0.734375 -1.0 -2.0625 -1.0q-1.328125 0 -2.078125 1.0q-0.734375 0.984375 -0.734375 2.8125q0 1.84375 0.734375 2.84375q0.75 0.984375 2.078125 0.984375zm7.5222473 1.125l0 -9.890625l1.796875 0l0 1.859375q0.5 -1.0 1.3125 -1.53125q0.828125 -0.546875 1.78125 -0.546875q0.265625 0 0.578125 0.046875l0 1.671875q-0.453125 -0.15625 -0.828125 -0.15625q-0.84375 0 -1.5625 0.515625q-0.71875 0.5 -1.28125 1.515625l0 6.515625l-1.796875 0zm15.583588 0l-3.6875 -9.890625l1.796875 0l2.890625 7.6875l3.03125 -7.6875l1.671875 0l-3.90625 9.890625l-1.796875 0zm11.546692 0.234375q-1.421875 0 -2.46875 -0.578125q-1.03125 -0.578125 -1.640625 -1.828125q-0.609375 -1.25 -0.609375 -2.78125q0 -1.4375 0.546875 -2.671875q0.5625 -1.234375 1.625 -1.859375q1.0625 -0.625 2.546875 -0.625q1.40625 0 2.453125 0.578125q1.046875 0.5625 1.65625 1.8125q0.609375 1.25 0.609375 2.765625q0 1.46875 -0.578125 2.703125q-0.5625 1.234375 -1.609375 1.859375q-1.046875 0.625 -2.53125 0.625zm0 -1.359375q1.328125 0 2.0625 -0.984375q0.75 -1.0 0.75 -2.84375q0 -1.828125 -0.75 -2.8125q-0.734375 -1.0 -2.0625 -1.0q-1.328125 0 -2.078125 1.0q-0.734375 0.984375 -0.734375 2.8125q0 1.84375 0.734375 2.84375q0.75 0.984375 2.078125 0.984375zm7.5222473 1.125l0 -9.890625l1.796875 0l0 1.859375q0.671875 -1.0 1.578125 -1.53125q0.90625 -0.546875 1.890625 -0.546875q1.25 0 2.03125 0.796875q0.796875 0.796875 0.796875 2.203125l0 7.109375l-1.796875 0l0 -6.515625q0 -1.03125 -0.1875 -1.359375q-0.1875 -0.328125 -0.515625 -0.5q-0.328125 -0.1875 -0.6875 -0.1875q-0.671875 0 -1.453125 0.40625q-0.765625 0.40625 -1.65625 1.75l0 6.40625l-1.796875 0zm17.12175 -0.34375l0 -1.65625q1.75 0.875 3.046875 0.875q0.765625 0 1.28125 -0.40625q0.515625 -0.421875 0.515625 -1.0625q0 -0.390625 -0.25 -0.765625q-0.25 -0.359375 -1.171875 -0.75l-1.046875 -0.453125q-1.21875 -0.5 -1.765625 -1.15625q-0.5625 -0.65625 -0.5625 -1.609375q0 -1.203125 0.859375 -1.984375q0.875 -0.796875 2.5625 -0.796875q0.828125 0 2.046875 0.21875l0.375 0.078125l0 1.5q-1.5 -0.453125 -2.390625 -0.453125q-0.859375 0 -1.296875 0.375q-0.421875 0.375 -0.421875 0.890625q0 0.390625 0.28125 0.71875q0.296875 0.328125 1.03125 0.640625l0.859375 0.359375q1.734375 0.75 2.21875 1.46875q0.46875 0.71875 0.46875 1.5625q0 0.8125 -0.4375 1.5q-0.4375 0.6875 -1.3125 1.09375q-0.859375 0.390625 -1.90625 0.390625q-1.234375 0 -2.984375 -0.578125zm9.86969 3.9375l0 -13.484375l1.796875 0l0 1.859375q0.546875 -1.046875 1.375 -1.5625q0.828125 -0.515625 1.921875 -0.515625q1.84375 0 2.84375 1.34375q1.0 1.34375 1.0 3.515625q0 1.421875 -0.46875 2.703125q-0.46875 1.265625 -1.453125 2.03125q-0.96875 0.75 -2.203125 0.75q-0.5 0 -1.3125 -0.15625q-0.796875 -0.140625 -1.703125 -1.203125l0 4.71875l-1.796875 0zm1.796875 -5.953125q0.921875 0.8125 1.46875 1.03125q0.546875 0.203125 1.171875 0.203125q1.3125 0 1.9375 -1.109375q0.640625 -1.109375 0.640625 -2.828125q0 -1.609375 -0.5625 -2.546875q-0.546875 -0.9375 -1.734375 -0.9375q-0.734375 0 -1.46875 0.40625q-0.734375 0.40625 -1.453125 1.21875l0 4.5625zm9.695282 2.359375l0 -1.578125q0.78125 -1.828125 3.171875 -3.984375l1.03125 -0.921875q1.125 -1.015625 1.546875 -1.84375q0.4375 -0.828125 0.4375 -1.71875q0 -1.140625 -0.703125 -1.78125q-0.6875 -0.640625 -1.84375 -0.640625q-0.5 0 -0.96875 0.09375q-0.453125 0.09375 -0.984375 0.3125q-0.515625 0.203125 -1.34375 0.671875l0 -1.578125q1.796875 -0.84375 3.5625 -0.84375q1.9375 0 3.0625 1.0625q1.125 1.0625 1.125 2.65625q0 1.03125 -0.46875 1.953125q-0.453125 0.921875 -2.265625 2.46875l-0.6875 0.59375q-0.765625 0.640625 -1.53125 1.5625q-0.765625 0.90625 -0.96875 1.9375l5.859375 0l0 1.578125l-8.03125 0zm19.090363 0l-2.828125 -9.890625l1.765625 0l2.15625 7.65625l2.34375 -7.65625l1.796875 0l2.046875 7.65625l2.484375 -7.65625l1.546875 0l-3.234375 9.890625l-1.796875 0l-2.09375 -7.65625l-2.375 7.65625l-1.8125 0zm13.234161 0l0 -9.890625l1.796875 0l0 9.890625l-1.796875 0zm0 -11.6875l0 -1.796875l1.796875 0l0 1.796875l-1.796875 0zm5.3928223 11.6875l0 -9.890625l1.796875 0l0 1.859375q0.5 -1.0 1.3125 -1.53125q0.828125 -0.546875 1.78125 -0.546875q0.265625 0 0.578125 0.046875l0 1.671875q-0.453125 -0.15625 -0.828125 -0.15625q-0.84375 0 -1.5625 0.515625q-0.71875 0.5 -1.28125 1.515625l0 6.515625l-1.796875 0zm13.977509 0l0 -1.859375q-0.546875 1.046875 -1.375 1.578125q-0.8125 0.515625 -1.921875 0.515625q-1.8125 0 -2.828125 -1.34375q-1.0 -1.34375 -1.0 -3.53125q0 -2.34375 1.125 -3.90625q1.125 -1.5625 3.09375 -1.5625q0.5625 0 1.078125 0.140625q0.53125 0.125 0.9375 0.375q0.40625 0.25 0.890625 0.828125l0 -5.625l1.8125 0l0 14.390625l-1.8125 0zm0 -7.53125q-0.921875 -0.828125 -1.46875 -1.03125q-0.546875 -0.203125 -1.171875 -0.203125q-1.3125 0 -1.953125 1.109375q-0.625 1.09375 -0.625 2.84375q0 1.609375 0.5625 2.546875q0.5625 0.921875 1.734375 0.921875q0.75 0 1.484375 -0.40625q0.734375 -0.421875 1.4375 -1.234375l0 -4.546875zm16.395111 6.28125q-0.796875 0.734375 -1.578125 1.109375q-0.78125 0.375 -1.515625 0.375q-1.0625 0 -1.96875 -0.6875q-0.890625 -0.703125 -0.890625 -2.03125q0 -1.453125 1.25 -2.40625q1.265625 -0.953125 4.03125 -0.953125l0.40625 0l0 -1.203125q0 -0.703125 -0.1875 -1.03125q-0.1875 -0.328125 -0.59375 -0.5q-0.40625 -0.1875 -1.0 -0.1875q-1.40625 0 -3.046875 0.875l0 -1.484375q1.8125 -0.734375 3.40625 -0.734375q0.875 0 1.609375 0.28125q0.734375 0.265625 1.171875 0.875q0.4375 0.59375 0.4375 1.90625l0 4.484375q0 0.75 0.109375 1.015625q0.125 0.25 0.34375 0.390625q0.21875 0.140625 0.5 0.140625q0.109375 0 0.34375 -0.046875l0.125 1.0q-0.609375 0.296875 -1.34375 0.296875q-0.5 0 -0.953125 -0.3125q-0.453125 -0.328125 -0.65625 -1.171875zm-0.265625 -0.984375l0 -2.5625l-0.5625 -0.015625q-1.421875 0 -2.375 0.546875q-0.953125 0.546875 -0.953125 1.484375q0 0.65625 0.46875 1.109375q0.46875 0.4375 1.09375 0.4375q0.5625 0 1.140625 -0.25q0.59375 -0.25 1.1875 -0.75zm11.662201 2.234375l0 -1.859375q-0.703125 1.0 -1.609375 1.546875q-0.890625 0.546875 -1.859375 0.546875q-1.25 0 -2.046875 -0.796875q-0.78125 -0.796875 -0.78125 -2.21875l0 -7.109375l1.796875 0l0 6.515625q0 1.03125 0.171875 1.359375q0.1875 0.328125 0.515625 0.515625q0.328125 0.171875 0.703125 0.171875q0.65625 0 1.421875 -0.40625q0.78125 -0.40625 1.6875 -1.75l0 -6.40625l1.796875 0l0 9.890625l-1.796875 0zm5.7187805 0l0 -8.546875l-1.390625 0l0 -1.34375l1.390625 0l0 -1.1875q0 -1.21875 0.3125 -1.90625q0.328125 -0.703125 1.03125 -1.15625q0.71875 -0.46875 1.875 -0.46875q0.921875 0 2.0625 0.296875l0 1.421875q-1.21875 -0.375 -1.9375 -0.375q-0.421875 0 -0.765625 0.140625q-0.34375 0.125 -0.5625 0.46875q-0.203125 0.328125 -0.203125 1.390625l0 1.375l2.46875 0l0 1.34375l-2.46875 0l0 8.546875l-1.8125 0zm6.5625916 3.28125l0.21875 -1.546875q1.546875 0.734375 3.078125 0.734375q1.703125 0 2.359375 -0.875q0.65625 -0.859375 0.65625 -2.34375l0 -1.5625q-0.390625 0.828125 -1.21875 1.453125q-0.828125 0.625 -2.015625 0.625q-2.03125 0 -2.96875 -1.453125q-0.921875 -1.46875 -0.921875 -3.328125q0 -1.40625 0.546875 -2.625q0.546875 -1.234375 1.515625 -1.84375q0.96875 -0.625 2.21875 -0.625q0.546875 0 1.03125 0.125q0.484375 0.125 0.890625 0.390625q0.421875 0.25 0.921875 0.828125l0 -1.125l1.8125 0l0 7.1875q0 3.15625 -0.53125 4.3125q-0.515625 1.15625 -1.640625 1.671875q-1.109375 0.53125 -2.65625 0.53125q-0.5 0 -1.078125 -0.0625q-0.578125 -0.046875 -1.03125 -0.140625q-0.453125 -0.078125 -1.1875 -0.328125zm6.3125 -6.703125l0 -4.109375q-0.59375 -0.625 -1.234375 -0.921875q-0.640625 -0.3125 -1.34375 -0.3125q-1.1875 0 -1.921875 0.96875q-0.71875 0.953125 -0.71875 2.78125q0 1.421875 0.53125 2.328125q0.546875 0.890625 1.75 0.890625q0.796875 0 1.515625 -0.40625q0.734375 -0.40625 1.421875 -1.21875zm12.539093 3.109375q-1.8125 0.546875 -3.09375 0.546875q-2.296875 0 -3.625 -1.546875q-1.3125 -1.5625 -1.3125 -3.671875q0 -1.40625 0.578125 -2.65625q0.578125 -1.265625 1.515625 -1.875q0.953125 -0.609375 2.234375 -0.609375q1.703125 0 2.71875 1.234375q1.03125 1.234375 1.03125 3.6875l-0.015625 0.53125l-6.234375 0q0.140625 1.3125 0.5625 2.03125q0.421875 0.703125 1.109375 1.109375q0.703125 0.390625 1.78125 0.390625q0.546875 0 1.078125 -0.09375q0.546875 -0.09375 1.671875 -0.5l0 1.421875zm-6.125 -5.703125l4.359375 0q0 -1.484375 -0.578125 -2.109375q-0.578125 -0.640625 -1.46875 -0.640625q-1.03125 0 -1.609375 0.6875q-0.578125 0.6875 -0.703125 2.0625zm9.268921 6.015625l0 -9.890625l1.796875 0l0 1.859375q0.5 -1.0 1.3125 -1.53125q0.828125 -0.546875 1.78125 -0.546875q0.265625 0 0.578125 0.046875l0 1.671875q-0.453125 -0.15625 -0.828125 -0.15625q-0.84375 0 -1.5625 0.515625q-0.71875 0.5 -1.28125 1.515625l0 6.515625l-1.796875 0zm13.821259 0l0 -1.859375q-0.703125 1.0 -1.609375 1.546875q-0.890625 0.546875 -1.859375 0.546875q-1.25 0 -2.046875 -0.796875q-0.78125 -0.796875 -0.78125 -2.21875l0 -7.109375l1.796875 0l0 6.515625q0 1.03125 0.171875 1.359375q0.1875 0.328125 0.515625 0.515625q0.328125 0.171875 0.703125 0.171875q0.65625 0 1.421875 -0.40625q0.78125 -0.40625 1.6875 -1.75l0 -6.40625l1.796875 0l0 9.890625l-1.796875 0zm5.7187805 0l0 -8.546875l-1.390625 0l0 -1.34375l1.390625 0l0 -1.1875q0 -1.21875 0.3125 -1.90625q0.328125 -0.703125 1.03125 -1.15625q0.71875 -0.46875 1.875 -0.46875q0.921875 0 2.0625 0.296875l0 1.421875q-1.21875 -0.375 -1.9375 -0.375q-0.421875 0 -0.765625 0.140625q-0.34375 0.125 -0.5625 0.46875q-0.203125 0.328125 -0.203125 1.390625l0 1.375l2.46875 0l0 1.34375l-2.46875 0l0 8.546875l-1.8125 0zm13.781311 -0.3125q-1.8125 0.546875 -3.09375 0.546875q-2.296875 0 -3.625 -1.546875q-1.3125 -1.5625 -1.3125 -3.671875q0 -1.40625 0.578125 -2.65625q0.578125 -1.265625 1.515625 -1.875q0.953125 -0.609375 2.234375 -0.609375q1.703125 0 2.71875 1.234375q1.03125 1.234375 1.03125 3.6875l-0.015625 0.53125l-6.234375 0q0.140625 1.3125 0.5625 2.03125q0.421875 0.703125 1.109375 1.109375q0.703125 0.390625 1.78125 0.390625q0.546875 0 1.078125 -0.09375q0.546875 -0.09375 1.671875 -0.5l0 1.421875zm-6.125 -5.703125l4.359375 0q0 -1.484375 -0.578125 -2.109375q-0.578125 -0.640625 -1.46875 -0.640625q-1.03125 0 -1.609375 0.6875q-0.578125 0.6875 -0.703125 2.0625zm9.268921 6.015625l0 -9.890625l1.796875 0l0 1.859375q0.671875 -1.0 1.578125 -1.53125q0.90625 -0.546875 1.890625 -0.546875q1.25 0 2.03125 0.796875q0.796875 0.796875 0.796875 2.203125l0 7.109375l-1.796875 0l0 -6.515625q0 -1.03125 -0.1875 -1.359375q-0.1875 -0.328125 -0.515625 -0.5q-0.328125 -0.1875 -0.6875 -0.1875q-0.671875 0 -1.453125 0.40625q-0.765625 0.40625 -1.65625 1.75l0 6.40625l-1.796875 0z" fill-rule="nonzero"/><path fill="#000000" d="m69.10854 333.44775l0 -14.5l1.796875 0l0 6.359375q0.546875 -1.046875 1.375 -1.5625q0.828125 -0.515625 1.921875 -0.515625q1.84375 0 2.84375 1.34375q1.0 1.34375 1.0 3.515625q0 2.34375 -1.140625 3.921875q-1.125 1.5625 -3.09375 1.5625q-0.5625 0 -1.09375 -0.140625q-0.515625 -0.140625 -0.921875 -0.390625q-0.40625 -0.265625 -0.890625 -0.828125l-0.21875 1.234375l-1.578125 0zm1.796875 -2.46875q0.921875 0.8125 1.46875 1.03125q0.546875 0.203125 1.171875 0.203125q1.3125 0 1.9375 -1.109375q0.640625 -1.109375 0.640625 -2.828125q0 -1.609375 -0.5625 -2.546875q-0.546875 -0.9375 -1.734375 -0.9375q-0.734375 0 -1.46875 0.40625q-0.734375 0.40625 -1.453125 1.21875l0 4.5625zm8.820267 -10.78125l0 -1.25q1.484375 1.015625 2.40625 2.421875q0.921875 1.40625 1.390625 3.0q0.484375 1.59375 0.484375 3.125q0 1.53125 -0.484375 3.125q-0.46875 1.59375 -1.390625 3.0q-0.921875 1.40625 -2.40625 2.421875l0 -1.25q1.03125 -1.109375 1.515625 -2.15625q0.5 -1.0625 0.71875 -2.375q0.234375 -1.328125 0.234375 -2.765625q0 -1.4375 -0.234375 -2.75q-0.21875 -1.328125 -0.71875 -2.375q-0.484375 -1.0625 -1.515625 -2.171875z" fill-rule="nonzero"/><path fill="#000000" d="m110.85511 333.33838l0 -13.484375l4.09375 0q2.265625 0 3.125 1.015625q0.859375 1.015625 0.859375 2.328125q0 0.765625 -0.3125 1.515625q-0.296875 0.75 -0.859375 1.328125q-0.5625 0.578125 -1.53125 0.984375l4.5 6.3125l-2.359375 0l-3.828125 -5.703125l-1.78125 0l0 5.703125l-1.90625 0zm1.90625 -7.125l0.609375 0q2.125 0 2.859375 -0.890625q0.75 -0.890625 0.75 -1.9375q0 -0.625 -0.28125 -1.09375q-0.265625 -0.484375 -0.859375 -0.734375q-0.59375 -0.265625 -1.875 -0.265625l-1.203125 0l0 4.921875zm17.203041 6.8125q-1.8125 0.546875 -3.0937424 0.546875q-2.296875 0 -3.625 -1.546875q-1.3125 -1.5625 -1.3125 -3.671875q0 -1.40625 0.578125 -2.65625q0.578125 -1.265625 1.515625 -1.875q0.953125 -0.609375 2.234375 -0.609375q1.703125 0 2.7187424 1.234375q1.03125 1.234375 1.03125 3.6875l-0.015625 0.53125l-6.2343674 0q0.140625 1.3125 0.5625 2.03125q0.421875 0.703125 1.109375 1.109375q0.703125 0.390625 1.78125 0.390625q0.546875 0 1.0781174 -0.09375q0.546875 -0.09375 1.671875 -0.5l0 1.421875zm-6.1249924 -5.703125l4.3593674 0q0 -1.484375 -0.5781174 -2.109375q-0.578125 -0.640625 -1.46875 -0.640625q-1.03125 0 -1.609375 0.6875q-0.578125 0.6875 -0.703125 2.0625zm9.597054 6.015625l0 -8.546875l-1.390625 0l0 -1.34375l1.390625 0l0 -1.1875q0 -1.21875 0.3125 -1.90625q0.328125 -0.703125 1.03125 -1.15625q0.71875 -0.46875 1.875 -0.46875q0.921875 0 2.0625 0.296875l0 1.421875q-1.21875 -0.375 -1.9375 -0.375q-0.421875 0 -0.765625 0.140625q-0.34375 0.125 -0.5625 0.46875q-0.203125 0.328125 -0.203125 1.390625l0 1.375l2.46875 0l0 1.34375l-2.46875 0l0 8.546875l-1.8125 0zm13.781326 -0.3125q-1.8125 0.546875 -3.09375 0.546875q-2.296875 0 -3.625 -1.546875q-1.3125 -1.5625 -1.3125 -3.671875q0 -1.40625 0.578125 -2.65625q0.578125 -1.265625 1.515625 -1.875q0.953125 -0.609375 2.234375 -0.609375q1.703125 0 2.71875 1.234375q1.03125 1.234375 1.03125 3.6875l-0.015625 0.53125l-6.234375 0q0.140625 1.3125 0.5625 2.03125q0.421875 0.703125 1.109375 1.109375q0.703125 0.390625 1.78125 0.390625q0.546875 0 1.078125 -0.09375q0.546875 -0.09375 1.671875 -0.5l0 1.421875zm-6.125 -5.703125l4.359375 0q0 -1.484375 -0.578125 -2.109375q-0.578125 -0.640625 -1.46875 -0.640625q-1.03125 0 -1.609375 0.6875q-0.578125 0.6875 -0.703125 2.0625zm9.268936 6.015625l0 -9.890625l1.796875 0l0 1.859375q0.5 -1.0 1.3125 -1.53125q0.828125 -0.546875 1.78125 -0.546875q0.265625 0 0.578125 0.046875l0 1.671875q-0.453125 -0.15625 -0.828125 -0.15625q-0.84375 0 -1.5625 0.515625q-0.71875 0.5 -1.28125 1.515625l0 6.515625l-1.796875 0zm14.883759 -0.3125q-1.8125 0.546875 -3.09375 0.546875q-2.296875 0 -3.625 -1.546875q-1.3125 -1.5625 -1.3125 -3.671875q0 -1.40625 0.578125 -2.65625q0.578125 -1.265625 1.515625 -1.875q0.953125 -0.609375 2.234375 -0.609375q1.703125 0 2.71875 1.234375q1.03125 1.234375 1.03125 3.6875l-0.015625 0.53125l-6.234375 0q0.140625 1.3125 0.5625 2.03125q0.421875 0.703125 1.109375 1.109375q0.703125 0.390625 1.78125 0.390625q0.546875 0 1.078125 -0.09375q0.546875 -0.09375 1.671875 -0.5l0 1.421875zm-6.125 -5.703125l4.359375 0q0 -1.484375 -0.578125 -2.109375q-0.578125 -0.640625 -1.46875 -0.640625q-1.03125 0 -1.609375 0.6875q-0.578125 0.6875 -0.703125 2.0625zm9.268936 6.015625l0 -9.890625l1.796875 0l0 1.859375q0.671875 -1.0 1.578125 -1.53125q0.90625 -0.546875 1.890625 -0.546875q1.25 0 2.03125 0.796875q0.796875 0.796875 0.796875 2.203125l0 7.109375l-1.796875 0l0 -6.515625q0 -1.03125 -0.1875 -1.359375q-0.1875 -0.328125 -0.515625 -0.5q-0.328125 -0.1875 -0.6875 -0.1875q-0.671875 0 -1.453125 0.40625q-0.765625 0.40625 -1.65625 1.75l0 6.40625l-1.796875 0zm10.906296 0l0 -1.34375l6.109375 -7.203125l-5.828125 0l0 -1.34375l8.046875 0l0 1.34375l-6.125 7.203125l6.25 0l0 1.34375l-8.453125 0zm10.69455 0l0 -1.34375l6.109375 -7.203125l-5.828125 0l0 -1.34375l8.046875 0l0 1.34375l-6.125 7.203125l6.25 0l0 1.34375l-8.453125 0zm16.460175 -1.25q-0.796875 0.734375 -1.578125 1.109375q-0.78125 0.375 -1.515625 0.375q-1.0625 0 -1.96875 -0.6875q-0.890625 -0.703125 -0.890625 -2.03125q0 -1.453125 1.25 -2.40625q1.265625 -0.953125 4.03125 -0.953125l0.40625 0l0 -1.203125q0 -0.703125 -0.1875 -1.03125q-0.1875 -0.328125 -0.59375 -0.5q-0.40625 -0.1875 -1.0 -0.1875q-1.40625 0 -3.046875 0.875l0 -1.484375q1.8125 -0.734375 3.40625 -0.734375q0.875 0 1.609375 0.28125q0.734375 0.265625 1.171875 0.875q0.4375 0.59375 0.4375 1.90625l0 4.484375q0 0.75 0.109375 1.015625q0.125 0.25 0.34375 0.390625q0.21875 0.140625 0.5 0.140625q0.109375 0 0.34375 -0.046875l0.125 1.0q-0.609375 0.296875 -1.34375 0.296875q-0.5 0 -0.953125 -0.3125q-0.453125 -0.328125 -0.65625 -1.171875zm-0.265625 -0.984375l0 -2.5625l-0.5625 -0.015625q-1.421875 0 -2.375 0.546875q-0.953125 0.546875 -0.953125 1.484375q0 0.65625 0.46875 1.109375q0.46875 0.4375 1.09375 0.4375q0.5625 0 1.140625 -0.25q0.59375 -0.25 1.1875 -0.75zm-4.046875 -9.453125l0 -1.578125l1.578125 0l0 1.578125l-1.578125 0zm3.59375 0l0 -1.578125l1.578125 0l0 1.578125l-1.578125 0zm5.927841 11.6875l0 -14.390625l1.796875 0l0 6.359375q0.671875 -1.0 1.578125 -1.53125q0.90625 -0.546875 1.890625 -0.546875q1.25 0 2.03125 0.796875q0.796875 0.796875 0.796875 2.203125l0 7.109375l-1.796875 0l0 -6.515625q0 -1.03125 -0.1875 -1.359375q-0.1875 -0.328125 -0.515625 -0.5q-0.328125 -0.1875 -0.6875 -0.1875q-0.671875 0 -1.453125 0.40625q-0.765625 0.40625 -1.65625 1.75l0 6.40625l-1.796875 0zm11.578171 0l0 -14.390625l1.796875 0l0 14.390625l-1.796875 0zm12.642822 -0.3125q-1.8125 0.546875 -3.09375 0.546875q-2.296875 0 -3.625 -1.546875q-1.3125 -1.5625 -1.3125 -3.671875q0 -1.40625 0.578125 -2.65625q0.578125 -1.265625 1.515625 -1.875q0.953125 -0.609375 2.234375 -0.609375q1.703125 0 2.71875 1.234375q1.03125 1.234375 1.03125 3.6875l-0.015625 0.53125l-6.234375 0q0.140625 1.3125 0.5625 2.03125q0.421875 0.703125 1.109375 1.109375q0.703125 0.390625 1.78125 0.390625q0.546875 0 1.078125 -0.09375q0.546875 -0.09375 1.671875 -0.5l0 1.421875zm-6.125 -5.703125l4.359375 0q0 -1.484375 -0.578125 -2.109375q-0.578125 -0.640625 -1.46875 -0.640625q-1.03125 0 -1.609375 0.6875q-0.578125 0.6875 -0.703125 2.0625zm9.268936 6.015625l0 -9.890625l1.796875 0l0 1.859375q0.5 -1.0 1.3125 -1.53125q0.828125 -0.546875 1.78125 -0.546875q0.265625 0 0.578125 0.046875l0 1.671875q-0.453125 -0.15625 -0.828125 -0.15625q-0.84375 0 -1.5625 0.515625q-0.71875 0.5 -1.28125 1.515625l0 6.515625l-1.796875 0zm18.630478 -1.25q-0.796875 0.734375 -1.578125 1.109375q-0.78126526 0.375 -1.5156403 0.375q-1.0625 0 -1.96875 -0.6875q-0.890625 -0.703125 -0.890625 -2.03125q0 -1.453125 1.25 -2.40625q1.265625 -0.953125 4.0312653 -0.953125l0.40625 0l0 -1.203125q0 -0.703125 -0.1875 -1.03125q-0.1875 -0.328125 -0.59375 -0.5q-0.40625 -0.1875 -1.0000153 -0.1875q-1.40625 0 -3.046875 0.875l0 -1.484375q1.8125 -0.734375 3.40625 -0.734375q0.87501526 0 1.6093903 0.28125q0.734375 0.265625 1.171875 0.875q0.4375 0.59375 0.4375 1.90625l0 4.484375q0 0.75 0.109375 1.015625q0.125 0.25 0.34375 0.390625q0.21875 0.140625 0.49996948 0.140625q0.109375 0 0.34375 -0.046875l0.125 1.0q-0.6093445 0.296875 -1.3437195 0.296875q-0.5 0 -0.953125 -0.3125q-0.453125 -0.328125 -0.65625 -1.171875zm-0.265625 -0.984375l0 -2.5625l-0.5625 -0.015625q-1.4218903 0 -2.3750153 0.546875q-0.953125 0.546875 -0.953125 1.484375q0 0.65625 0.46875 1.109375q0.46875 0.4375 1.09375 0.4375q0.5625 0 1.1406403 -0.25q0.59375 -0.25 1.1875 -0.75zm11.662201 2.234375l0 -1.859375q-0.703125 1.0 -1.609375 1.546875q-0.890625 0.546875 -1.859375 0.546875q-1.25 0 -2.046875 -0.796875q-0.78125 -0.796875 -0.78125 -2.21875l0 -7.109375l1.796875 0l0 6.515625q0 1.03125 0.171875 1.359375q0.1875 0.328125 0.515625 0.515625q0.328125 0.171875 0.703125 0.171875q0.65625 0 1.421875 -0.40625q0.78125 -0.40625 1.6875 -1.75l0 -6.40625l1.796875 0l0 9.890625l-1.796875 0zm5.718811 0l0 -8.546875l-1.390625 0l0 -1.34375l1.390625 0l0 -1.1875q0 -1.21875 0.3125 -1.90625q0.328125 -0.703125 1.03125 -1.15625q0.71875 -0.46875 1.875 -0.46875q0.921875 0 2.0625 0.296875l0 1.421875q-1.21875 -0.375 -1.9375 -0.375q-0.421875 0 -0.765625 0.140625q-0.34375 0.125 -0.5625 0.46875q-0.203125 0.328125 -0.203125 1.390625l0 1.375l2.46875 0l0 1.34375l-2.46875 0l0 8.546875l-1.8125 0zm15.29364 0l0 -5.625l-4.5 -7.859375l2.1875 0l3.5 6.09375l3.765625 -6.09375l1.78125 0l-4.828125 7.8125l0 5.671875l-1.90625 0zm15.807922 0l-2.828125 -9.890625l1.765625 0l2.15625 7.65625l2.34375 -7.65625l1.796875 0l2.046875 7.65625l2.484375 -7.65625l1.546875 0l-3.234375 9.890625l-1.796875 0l-2.09375 -7.65625l-2.375 7.65625l-1.8125 0zm13.234161 0l0 -9.890625l1.796875 0l0 9.890625l-1.796875 0zm0 -11.6875l0 -1.796875l1.796875 0l0 1.796875l-1.796875 0zm5.3928223 11.6875l0 -9.890625l1.796875 0l0 1.859375q0.5 -1.0 1.3125 -1.53125q0.828125 -0.546875 1.78125 -0.546875q0.265625 0 0.578125 0.046875l0 1.671875q-0.453125 -0.15625 -0.828125 -0.15625q-0.84375 0 -1.5625 0.515625q-0.71875 0.5 -1.28125 1.515625l0 6.515625l-1.796875 0zm13.977509 0l0 -1.859375q-0.546875 1.046875 -1.375 1.578125q-0.8125 0.515625 -1.921875 0.515625q-1.8125 0 -2.828125 -1.34375q-1.0 -1.34375 -1.0 -3.53125q0 -2.34375 1.125 -3.90625q1.125 -1.5625 3.09375 -1.5625q0.5625 0 1.078125 0.140625q0.53125 0.125 0.9375 0.375q0.40625 0.25 0.890625 0.828125l0 -5.625l1.8125 0l0 14.390625l-1.8125 0zm0 -7.53125q-0.921875 -0.828125 -1.46875 -1.03125q-0.546875 -0.203125 -1.171875 -0.203125q-1.3125 0 -1.953125 1.109375q-0.625 1.09375 -0.625 2.84375q0 1.609375 0.5625 2.546875q0.5625 0.921875 1.734375 0.921875q0.75 0 1.484375 -0.40625q0.734375 -0.421875 1.4375 -1.234375l0 -4.546875zm17.64508 7.53125l0 -1.859375q-0.546875 1.046875 -1.375 1.578125q-0.8125 0.515625 -1.921875 0.515625q-1.8125 0 -2.828125 -1.34375q-1.0 -1.34375 -1.0 -3.53125q0 -2.34375 1.125 -3.90625q1.125 -1.5625 3.09375 -1.5625q0.5625 0 1.078125 0.140625q0.53125 0.125 0.9375 0.375q0.40625 0.25 0.890625 0.828125l0 -5.625l1.8125 0l0 14.390625l-1.8125 0zm0 -7.53125q-0.921875 -0.828125 -1.46875 -1.03125q-0.546875 -0.203125 -1.171875 -0.203125q-1.3125 0 -1.953125 1.109375q-0.625 1.09375 -0.625 2.84375q0 1.609375 0.5625 2.546875q0.5625 0.921875 1.734375 0.921875q0.75 0 1.484375 -0.40625q0.734375 -0.421875 1.4375 -1.234375l0 -4.546875zm12.648407 7.21875q-1.8125 0.546875 -3.09375 0.546875q-2.296875 0 -3.625 -1.546875q-1.3125 -1.5625 -1.3125 -3.671875q0 -1.40625 0.578125 -2.65625q0.578125 -1.265625 1.515625 -1.875q0.953125 -0.609375 2.234375 -0.609375q1.703125 0 2.71875 1.234375q1.03125 1.234375 1.03125 3.6875l-0.015625 0.53125l-6.234375 0q0.140625 1.3125 0.5625 2.03125q0.421875 0.703125 1.109375 1.109375q0.703125 0.390625 1.78125 0.390625q0.546875 0 1.078125 -0.09375q0.546875 -0.09375 1.671875 -0.5l0 1.421875zm-6.125 -5.703125l4.359375 0q0 -1.484375 -0.578125 -2.109375q-0.578125 -0.640625 -1.46875 -0.640625q-1.03125 0 -1.609375 0.6875q-0.578125 0.6875 -0.703125 2.0625zm9.268951 6.015625l0 -14.390625l1.796875 0l0 9.296875l4.1875 -4.796875l1.921875 0l-3.984375 4.609375l4.828125 5.28125l-2.296875 0l-4.65625 -5.078125l0 5.078125l-1.796875 0zm10.904053 0l0 -9.890625l1.796875 0l0 1.859375q0.5 -1.0 1.3125 -1.53125q0.828125 -0.546875 1.78125 -0.546875q0.265625 0 0.578125 0.046875l0 1.671875q-0.453125 -0.15625 -0.828125 -0.15625q-0.84375 0 -1.5625 0.515625q-0.71875 0.5 -1.28125 1.515625l0 6.515625l-1.796875 0zm14.883759 -0.3125q-1.8125 0.546875 -3.09375 0.546875q-2.296875 0 -3.625 -1.546875q-1.3125 -1.5625 -1.3125 -3.671875q0 -1.40625 0.578125 -2.65625q0.578125 -1.265625 1.515625 -1.875q0.953125 -0.609375 2.234375 -0.609375q1.703125 0 2.71875 1.234375q1.03125 1.234375 1.03125 3.6875l-0.015625 0.53125l-6.234375 0q0.140625 1.3125 0.5625 2.03125q0.421875 0.703125 1.109375 1.109375q0.703125 0.390625 1.78125 0.390625q0.546875 0 1.078125 -0.09375q0.546875 -0.09375 1.671875 -0.5l0 1.421875zm-6.125 -5.703125l4.359375 0q0 -1.484375 -0.578125 -2.109375q-0.578125 -0.640625 -1.46875 -0.640625q-1.03125 0 -1.609375 0.6875q-0.578125 0.6875 -0.703125 2.0625zm9.268951 6.015625l0 -9.890625l1.796875 0l0 1.859375q0.546875 -0.875 1.390625 -1.46875q0.859375 -0.609375 1.96875 -0.609375q0.65625 0 1.140625 0.21875q0.484375 0.203125 0.875 0.59375q0.390625 0.375 0.703125 1.265625q0.546875 -0.890625 1.375 -1.484375q0.84375 -0.609375 1.9375 -0.609375q1.046875 0 1.890625 0.65625q0.859375 0.65625 0.859375 2.265625l0 7.203125l-1.8125 0l0 -6.921875q0 -0.96875 -0.421875 -1.328125q-0.40625 -0.359375 -0.90625 -0.359375q-0.640625 0 -1.328125 0.40625q-0.6875 0.390625 -1.59375 1.578125l0 6.625l-1.8125 0l0 -6.921875q0 -0.984375 -0.421875 -1.34375q-0.421875 -0.359375 -0.9375 -0.359375q-0.65625 0 -1.3125 0.40625q-0.65625 0.390625 -1.59375 1.59375l0 6.625l-1.796875 0zm24.667358 -0.3125q-1.8125 0.546875 -3.09375 0.546875q-2.296875 0 -3.625 -1.546875q-1.3125 -1.5625 -1.3125 -3.671875q0 -1.40625 0.578125 -2.65625q0.578125 -1.265625 1.515625 -1.875q0.953125 -0.609375 2.234375 -0.609375q1.703125 0 2.71875 1.234375q1.03125 1.234375 1.03125 3.6875l-0.015625 0.53125l-6.234375 0q0.140625 1.3125 0.5625 2.03125q0.421875 0.703125 1.109375 1.109375q0.703125 0.390625 1.78125 0.390625q0.546875 0 1.078125 -0.09375q0.546875 -0.09375 1.671875 -0.5l0 1.421875zm-6.125 -5.703125l4.359375 0q0 -1.484375 -0.578125 -2.109375q-0.578125 -0.640625 -1.46875 -0.640625q-1.03125 0 -1.609375 0.6875q-0.578125 0.6875 -0.703125 2.0625zm9.268921 6.015625l0 -9.890625l1.796875 0l0 1.859375q0.671875 -1.0 1.578125 -1.53125q0.90625 -0.546875 1.890625 -0.546875q1.25 0 2.03125 0.796875q0.796875 0.796875 0.796875 2.203125l0 7.109375l-1.796875 0l0 -6.515625q0 -1.03125 -0.1875 -1.359375q-0.1875 -0.328125 -0.515625 -0.5q-0.328125 -0.1875 -0.6875 -0.1875q-0.671875 0 -1.453125 0.40625q-0.765625 0.40625 -1.65625 1.75l0 6.40625l-1.796875 0zm15.984436 0q-0.828125 0.234375 -1.4375 0.234375q-1.328125 0 -2.109375 -0.765625q-0.78125 -0.78125 -0.78125 -2.203125l0 -5.8125l-1.25 0l0 -1.34375l1.25 0l0 -1.796875l1.78125 -0.171875l0 1.96875l2.59375 0l0 1.34375l-2.59375 0l0 5.484375q0 1.046875 0.40625 1.5q0.40625 0.4375 1.28125 0.4375q0.34375 0 0.859375 -0.109375l0 1.234375zm2.5716248 0l0 -9.890625l1.796875 0l0 9.890625l-1.796875 0zm0 -11.6875l0 -1.796875l1.796875 0l0 1.796875l-1.796875 0zm12.642822 11.375q-1.8125 0.546875 -3.09375 0.546875q-2.296875 0 -3.625 -1.546875q-1.3125 -1.5625 -1.3125 -3.671875q0 -1.40625 0.578125 -2.65625q0.578125 -1.265625 1.515625 -1.875q0.953125 -0.609375 2.234375 -0.609375q1.703125 0 2.71875 1.234375q1.03125 1.234375 1.03125 3.6875l-0.015625 0.53125l-6.234375 0q0.140625 1.3125 0.5625 2.03125q0.421875 0.703125 1.109375 1.109375q0.703125 0.390625 1.78125 0.390625q0.546875 0 1.078125 -0.09375q0.546875 -0.09375 1.671875 -0.5l0 1.421875zm-6.125 -5.703125l4.359375 0q0 -1.484375 -0.578125 -2.109375q-0.578125 -0.640625 -1.46875 -0.640625q-1.03125 0 -1.609375 0.6875q-0.578125 0.6875 -0.703125 2.0625zm9.268951 6.015625l0 -9.890625l1.796875 0l0 1.859375q0.5 -1.0 1.3125 -1.53125q0.828125 -0.546875 1.78125 -0.546875q0.265625 0 0.578125 0.046875l0 1.671875q-0.453125 -0.15625 -0.828125 -0.15625q-0.84375 0 -1.5625 0.515625q-0.71875 0.5 -1.28125 1.515625l0 6.515625l-1.796875 0zm12.040009 0q-0.828125 0.234375 -1.4375 0.234375q-1.328125 0 -2.109375 -0.765625q-0.78125 -0.78125 -0.78125 -2.203125l0 -5.8125l-1.25 0l0 -1.34375l1.25 0l0 -1.796875l1.78125 -0.171875l0 1.96875l2.59375 0l0 1.34375l-2.59375 0l0 5.484375q0 1.046875 0.40625 1.5q0.40625 0.4375 1.28125 0.4375q0.34375 0 0.859375 -0.109375l0 1.234375zm14.662079 0l0 -1.859375q-0.703125 1.0 -1.609375 1.546875q-0.890625 0.546875 -1.859375 0.546875q-1.25 0 -2.046875 -0.796875q-0.78125 -0.796875 -0.78125 -2.21875l0 -7.109375l1.796875 0l0 6.515625q0 1.03125 0.171875 1.359375q0.1875 0.328125 0.515625 0.515625q0.328125 0.171875 0.703125 0.171875q0.65625 0 1.421875 -0.40625q0.78125 -0.40625 1.6875 -1.75l0 -6.40625l1.796875 0l0 9.890625l-1.796875 0zm5.390686 0l0 -9.890625l1.796875 0l0 1.859375q0.671875 -1.0 1.578125 -1.53125q0.90625 -0.546875 1.890625 -0.546875q1.25 0 2.03125 0.796875q0.796875 0.796875 0.796875 2.203125l0 7.109375l-1.796875 0l0 -6.515625q0 -1.03125 -0.1875 -1.359375q-0.1875 -0.328125 -0.515625 -0.5q-0.328125 -0.1875 -0.6875 -0.1875q-0.671875 0 -1.453125 0.40625q-0.765625 0.40625 -1.65625 1.75l0 6.40625l-1.796875 0zm17.921936 0l0 -1.859375q-0.546875 1.046875 -1.375 1.578125q-0.8125 0.515625 -1.921875 0.515625q-1.8125 0 -2.828125 -1.34375q-1.0 -1.34375 -1.0 -3.53125q0 -2.34375 1.125 -3.90625q1.125 -1.5625 3.09375 -1.5625q0.5625 0 1.078125 0.140625q0.53125 0.125 0.9375 0.375q0.40625 0.25 0.890625 0.828125l0 -5.625l1.8125 0l0 14.390625l-1.8125 0zm0 -7.53125q-0.921875 -0.828125 -1.46875 -1.03125q-0.546875 -0.203125 -1.171875 -0.203125q-1.3125 0 -1.953125 1.109375q-0.625 1.09375 -0.625 2.84375q0 1.609375 0.5625 2.546875q0.5625 0.921875 1.734375 0.921875q0.75 0 1.484375 -0.40625q0.734375 -0.421875 1.4375 -1.234375l0 -4.546875zm11.301331 7.53125l0 -9.890625l1.796875 0l0 1.859375q0.671875 -1.0 1.578125 -1.53125q0.90625 -0.546875 1.890625 -0.546875q1.25 0 2.03125 0.796875q0.796875 0.796875 0.796875 2.203125l0 7.109375l-1.796875 0l0 -6.515625q0 -1.03125 -0.1875 -1.359375q-0.1875 -0.328125 -0.515625 -0.5q-0.328125 -0.1875 -0.6875 -0.1875q-0.671875 0 -1.453125 0.40625q-0.765625 0.40625 -1.65625 1.75l0 6.40625l-1.796875 0zm11.578186 0l0 -9.890625l1.796875 0l0 9.890625l-1.796875 0zm0 -11.6875l0 -1.796875l1.796875 0l0 1.796875l-1.796875 0zm5.3928223 11.6875l0 -9.890625l1.796875 0l0 1.859375q0.546875 -0.875 1.390625 -1.46875q0.859375 -0.609375 1.96875 -0.609375q0.65625 0 1.140625 0.21875q0.484375 0.203125 0.875 0.59375q0.390625 0.375 0.703125 1.265625q0.546875 -0.890625 1.375 -1.484375q0.84375 -0.609375 1.9375 -0.609375q1.046875 0 1.890625 0.65625q0.859375 0.65625 0.859375 2.265625l0 7.203125l-1.8125 0l0 -6.921875q0 -0.96875 -0.421875 -1.328125q-0.40625 -0.359375 -0.90625 -0.359375q-0.640625 0 -1.328125 0.40625q-0.6875 0.390625 -1.59375 1.578125l0 6.625l-1.8125 0l0 -6.921875q0 -0.984375 -0.421875 -1.34375q-0.421875 -0.359375 -0.9375 -0.359375q-0.65625 0 -1.3125 0.40625q-0.65625 0.390625 -1.59375 1.59375l0 6.625l-1.796875 0zm17.417358 0l0 -9.890625l1.796875 0l0 1.859375q0.546875 -0.875 1.390625 -1.46875q0.859375 -0.609375 1.96875 -0.609375q0.65625 0 1.140625 0.21875q0.484375 0.203125 0.875 0.59375q0.390625 0.375 0.703125 1.265625q0.546875 -0.890625 1.375 -1.484375q0.84375 -0.609375 1.9375 -0.609375q1.046875 0 1.890625 0.65625q0.859375 0.65625 0.859375 2.265625l0 7.203125l-1.8125 0l0 -6.921875q0 -0.96875 -0.421875 -1.328125q-0.40625 -0.359375 -0.90625 -0.359375q-0.640625 0 -1.328125 0.40625q-0.6875 0.390625 -1.59375 1.578125l0 6.625l-1.8125 0l0 -6.921875q0 -0.984375 -0.421875 -1.34375q-0.421875 -0.359375 -0.9375 -0.359375q-0.65625 0 -1.3125 0.40625q-0.65625 0.390625 -1.59375 1.59375l0 6.625l-1.796875 0zm21.823608 0q-0.828125 0.234375 -1.4375 0.234375q-1.328125 0 -2.109375 -0.765625q-0.78125 -0.78125 -0.78125 -2.203125l0 -5.8125l-1.25 0l0 -1.34375l1.25 0l0 -1.796875l1.78125 -0.171875l0 1.96875l2.59375 0l0 1.34375l-2.59375 0l0 5.484375q0 1.046875 0.40625 1.5q0.40625 0.4375 1.28125 0.4375q0.34375 0 0.859375 -0.109375l0 1.234375z" fill-rule="nonzero"/><path fill="#000000" d="m112.60511 355.73837l-3.46875 -13.484375l1.84375 0l2.765625 10.65625l2.53125 -10.65625l1.84375 0l2.40625 10.5l2.96875 -10.5l1.5625 0l-3.78125 13.484375l-1.90625 0l-2.375 -10.390625l-2.484375 10.390625l-1.90625 0zm21.522331 -0.3125q-1.8125 0.546875 -3.09375 0.546875q-2.296875 0 -3.6249924 -1.546875q-1.3125 -1.5625 -1.3125 -3.671875q0 -1.40625 0.578125 -2.65625q0.578125 -1.265625 1.5156174 -1.875q0.953125 -0.609375 2.234375 -0.609375q1.703125 0 2.71875 1.234375q1.03125 1.234375 1.03125 3.6875l-0.015625 0.53125l-6.2343674 0q0.14061737 1.3125 0.5624924 2.03125q0.421875 0.703125 1.109375 1.109375q0.703125 0.390625 1.78125 0.390625q0.546875 0 1.078125 -0.09375q0.546875 -0.09375 1.671875 -0.5l0 1.421875zm-6.125 -5.703125l4.359375 0q0 -1.484375 -0.578125 -2.109375q-0.578125 -0.640625 -1.46875 -0.640625q-1.03125 0 -1.609375 0.6875q-0.578125 0.6875 -0.703125 2.0625zm9.268936 6.015625l0 -9.890625l1.796875 0l0 1.859375q0.5 -1.0 1.3125 -1.53125q0.828125 -0.546875 1.78125 -0.546875q0.265625 0 0.578125 0.046875l0 1.671875q-0.453125 -0.15625 -0.828125 -0.15625q-0.84375 0 -1.5625 0.515625q-0.71875 0.5 -1.28125 1.515625l0 6.515625l-1.796875 0zm12.040009 0q-0.828125 0.234375 -1.4375 0.234375q-1.328125 0 -2.109375 -0.765625q-0.78125 -0.78125 -0.78125 -2.203125l0 -5.8125l-1.25 0l0 -1.34375l1.25 0l0 -1.796875l1.78125 -0.171875l0 1.96875l2.59375 0l0 1.34375l-2.59375 0l0 5.484375q0 1.046875 0.40625 1.5q0.40625 0.4375 1.28125 0.4375q0.34375 0 0.859375 -0.109375l0 1.234375zm11.552704 0l0 -12.140625l-2.125 0l0 -1.125l3.9375 -0.328125l0 13.59375l-1.8125 0zm19.715378 -1.25q-0.796875 0.734375 -1.578125 1.109375q-0.78125 0.375 -1.515625 0.375q-1.0625 0 -1.96875 -0.6875q-0.890625 -0.703125 -0.890625 -2.03125q0 -1.453125 1.25 -2.40625q1.265625 -0.953125 4.03125 -0.953125l0.40625 0l0 -1.203125q0 -0.703125 -0.1875 -1.03125q-0.1875 -0.328125 -0.59375 -0.5q-0.40625 -0.1875 -1.0 -0.1875q-1.40625 0 -3.046875 0.875l0 -1.484375q1.8125 -0.734375 3.40625 -0.734375q0.875 0 1.609375 0.28125q0.734375 0.265625 1.171875 0.875q0.4375 0.59375 0.4375 1.90625l0 4.484375q0 0.75 0.109375 1.015625q0.125 0.25 0.34375 0.390625q0.21875 0.140625 0.5 0.140625q0.109375 0 0.34375 -0.046875l0.125 1.0q-0.609375 0.296875 -1.34375 0.296875q-0.5 0 -0.953125 -0.3125q-0.453125 -0.328125 -0.65625 -1.171875zm-0.265625 -0.984375l0 -2.5625l-0.5625 -0.015625q-1.421875 0 -2.375 0.546875q-0.953125 0.546875 -0.953125 1.484375q0 0.65625 0.46875 1.109375q0.46875 0.4375 1.09375 0.4375q0.5625 0 1.140625 -0.25q0.59375 -0.25 1.1875 -0.75zm5.474716 2.234375l0 -9.890625l1.796875 0l0 1.859375q0.671875 -1.0 1.578125 -1.53125q0.90625 -0.546875 1.890625 -0.546875q1.25 0 2.03125 0.796875q0.796875 0.796875 0.796875 2.203125l0 7.109375l-1.796875 0l0 -6.515625q0 -1.03125 -0.1875 -1.359375q-0.1875 -0.328125 -0.515625 -0.5q-0.328125 -0.1875 -0.6875 -0.1875q-0.671875 0 -1.453125 0.40625q-0.765625 0.40625 -1.65625 1.75l0 6.40625l-1.796875 0z" fill-rule="nonzero"/><path fill="#000000" fill-opacity="0.0" d="m269.7966 19.816273l110.42517 0l0 42.015747l-110.42517 0z" fill-rule="evenodd"/><path fill="#000000" d="m278.93723 47.544147l4.484375 -6.765625l-4.265625 -6.71875l2.265625 0l3.234375 5.078125l3.421875 -5.078125l1.796875 0l-4.3125 6.515625l4.421875 6.96875l-2.265625 0l-3.421875 -5.34375l-3.546875 5.34375l-1.8125 0zm13.584625 0l0 -1.796875l1.796875 0l0 1.796875l-1.796875 0zm0 -8.09375l0 -1.796875l1.796875 0l0 1.796875l-1.796875 0zm5.902954 8.09375l0 -1.796875l1.796875 0l0 1.796875l-1.796875 0zm0 -8.09375l0 -1.796875l1.796875 0l0 1.796875l-1.796875 0zm5.652954 8.09375l0 -9.890625l1.796875 0l0 1.859375q0.546875 -0.875 1.390625 -1.46875q0.859375 -0.609375 1.96875 -0.609375q0.65625 0 1.140625 0.21875q0.484375 0.203125 0.875 0.59375q0.390625 0.375 0.703125 1.265625q0.546875 -0.890625 1.375 -1.484375q0.84375 -0.609375 1.9375 -0.609375q1.046875 0 1.890625 0.65625q0.859375 0.65625 0.859375 2.265625l0 7.203125l-1.8125 0l0 -6.921875q0 -0.96875 -0.421875 -1.328125q-0.40625 -0.359375 -0.90625 -0.359375q-0.640625 0 -1.328125 0.40625q-0.6875 0.390625 -1.59375 1.578125l0 6.625l-1.8125 0l0 -6.921875q0 -0.984375 -0.421875 -1.34375q-0.421875 -0.359375 -0.9375 -0.359375q-0.65625 0 -1.3125 0.40625q-0.65625 0.390625 -1.59375 1.59375l0 6.625l-1.796875 0zm16.401733 1.34375l0 -1.34375l7.75 0l0 1.34375l-7.75 0zm9.984375 -1.6875l0 -1.65625q1.75 0.875 3.046875 0.875q0.765625 0 1.28125 -0.40625q0.515625 -0.421875 0.515625 -1.0625q0 -0.390625 -0.25 -0.765625q-0.25 -0.359375 -1.171875 -0.75l-1.046875 -0.453125q-1.21875 -0.5 -1.765625 -1.15625q-0.5625 -0.65625 -0.5625 -1.609375q0 -1.203125 0.859375 -1.984375q0.875 -0.796875 2.5625 -0.796875q0.828125 0 2.046875 0.21875l0.375 0.078125l0 1.5q-1.5 -0.453125 -2.390625 -0.453125q-0.859375 0 -1.296875 0.375q-0.421875 0.375 -0.421875 0.890625q0 0.390625 0.28125 0.71875q0.296875 0.328125 1.03125 0.640625l0.859375 0.359375q1.734375 0.75 2.21875 1.46875q0.46875 0.71875 0.46875 1.5625q0 0.8125 -0.4375 1.5q-0.4375 0.6875 -1.3125 1.09375q-0.859375 0.390625 -1.90625 0.390625q-1.234375 0 -2.984375 -0.578125zm9.86969 3.9375l0 -13.484375l1.796875 0l0 1.859375q0.546875 -1.046875 1.375 -1.5625q0.828125 -0.515625 1.921875 -0.515625q1.84375 0 2.84375 1.34375q1.0 1.34375 1.0 3.515625q0 1.421875 -0.46875 2.703125q-0.46875 1.265625 -1.453125 2.03125q-0.96875 0.75 -2.203125 0.75q-0.5 0 -1.3125 -0.15625q-0.796875 -0.140625 -1.703125 -1.203125l0 4.71875l-1.796875 0zm1.796875 -5.953125q0.921875 0.8125 1.46875 1.03125q0.546875 0.203125 1.171875 0.203125q1.3125 0 1.9375 -1.109375q0.640625 -1.109375 0.640625 -2.828125q0 -1.609375 -0.5625 -2.546875q-0.546875 -0.9375 -1.734375 -0.9375q-0.734375 0 -1.46875 0.40625q-0.734375 0.40625 -1.453125 1.21875l0 4.5625zm12.804626 2.359375l0 -5.625l-4.5 -7.859375l2.1875 0l3.5 6.09375l3.765625 -6.09375l1.78125 0l-4.828125 7.8125l0 5.671875l-1.90625 0z" fill-rule="nonzero"/><path fill="#000000" fill-opacity="0.0" d="m269.7966 185.94095l110.42517 0l0 42.015747l-110.42517 0z" fill-rule="evenodd"/><path fill="#000000" d="m283.45285 213.66882l0 -5.625l-4.5 -7.859375l2.1875 0l3.5 6.09375l3.765625 -6.09375l1.78125 0l-4.828125 7.8125l0 5.671875l-1.90625 0zm9.014343 0l0 -1.796875l1.796875 0l0 1.796875l-1.796875 0zm0 -8.09375l0 -1.796875l1.796875 0l0 1.796875l-1.796875 0zm5.902954 8.09375l0 -1.796875l1.796875 0l0 1.796875l-1.796875 0zm0 -8.09375l0 -1.796875l1.796875 0l0 1.796875l-1.796875 0zm5.652954 8.09375l0 -9.890625l1.796875 0l0 1.859375q0.546875 -0.875 1.390625 -1.46875q0.859375 -0.609375 1.96875 -0.609375q0.65625 0 1.140625 0.21875q0.484375 0.203125 0.875 0.59375q0.390625 0.375 0.703125 1.265625q0.546875 -0.890625 1.375 -1.484375q0.84375 -0.609375 1.9375 -0.609375q1.046875 0 1.890625 0.65625q0.859375 0.65625 0.859375 2.265625l0 7.203125l-1.8125 0l0 -6.921875q0 -0.96875 -0.421875 -1.328125q-0.40625 -0.359375 -0.90625 -0.359375q-0.640625 0 -1.328125 0.40625q-0.6875 0.390625 -1.59375 1.578125l0 6.625l-1.8125 0l0 -6.921875q0 -0.984375 -0.421875 -1.34375q-0.421875 -0.359375 -0.9375 -0.359375q-0.65625 0 -1.3125 0.40625q-0.65625 0.390625 -1.59375 1.59375l0 6.625l-1.796875 0zm16.401733 1.34375l0 -1.34375l7.75 0l0 1.34375l-7.75 0zm9.984375 -1.6875l0 -1.65625q1.75 0.875 3.046875 0.875q0.765625 0 1.28125 -0.40625q0.515625 -0.421875 0.515625 -1.0625q0 -0.390625 -0.25 -0.765625q-0.25 -0.359375 -1.171875 -0.75l-1.046875 -0.453125q-1.21875 -0.5 -1.765625 -1.15625q-0.5625 -0.65625 -0.5625 -1.609375q0 -1.203125 0.859375 -1.984375q0.875 -0.796875 2.5625 -0.796875q0.828125 0 2.046875 0.21875l0.375 0.078125l0 1.5q-1.5 -0.453125 -2.390625 -0.453125q-0.859375 0 -1.296875 0.375q-0.421875 0.375 -0.421875 0.890625q0 0.390625 0.28125 0.71875q0.296875 0.328125 1.03125 0.640625l0.859375 0.359375q1.734375 0.75 2.21875 1.46875q0.46875 0.71875 0.46875 1.5625q0 0.8125 -0.4375 1.5q-0.4375 0.6875 -1.3125 1.09375q-0.859375 0.390625 -1.90625 0.390625q-1.234375 0 -2.984375 -0.578125zm9.86969 3.9375l0 -13.484375l1.796875 0l0 1.859375q0.546875 -1.046875 1.375 -1.5625q0.828125 -0.515625 1.921875 -0.515625q1.84375 0 2.84375 1.34375q1.0 1.34375 1.0 3.515625q0 1.421875 -0.46875 2.703125q-0.46875 1.265625 -1.453125 2.03125q-0.96875 0.75 -2.203125 0.75q-0.5 0 -1.3125 -0.15625q-0.796875 -0.140625 -1.703125 -1.203125l0 4.71875l-1.796875 0zm1.796875 -5.953125q0.921875 0.8125 1.46875 1.03125q0.546875 0.203125 1.171875 0.203125q1.3125 0 1.9375 -1.109375q0.640625 -1.109375 0.640625 -2.828125q0 -1.609375 -0.5625 -2.546875q-0.546875 -0.9375 -1.734375 -0.9375q-0.734375 0 -1.46875 0.40625q-0.734375 0.40625 -1.453125 1.21875l0 4.5625zm8.289001 2.359375l4.484375 -6.765625l-4.265625 -6.71875l2.265625 0l3.234375 5.078125l3.421875 -5.078125l1.796875 0l-4.3125 6.515625l4.421875 6.96875l-2.265625 0l-3.421875 -5.34375l-3.546875 5.34375l-1.8125 0z" fill-rule="nonzero"/></g></svg>